<?xml version="1.0" standalone="no"?>
<!DOCTYPE svg PUBLIC "-//W3C//DTD SVG 20010904//EN"
 "http://www.w3.org/TR/2001/REC-SVG-20010904/DTD/svg10.dtd">
<svg version="1.0" xmlns="http://www.w3.org/2000/svg"
 width="567.000000pt" height="567.000000pt" viewBox="0 0 567.000000 567.000000"
 preserveAspectRatio="xMidYMid meet">
<metadata>
Created by potrace 1.11, written by Peter Selinger 2001-2013
</metadata>
<g transform="translate(0.000000,567.000000) scale(0.100000,-0.100000)"
fill="#000000" stroke="none">
<path d="M0 5370 c1 -255 3 -300 16 -300 7 0 14 -5 14 -11 0 -5 5 -7 10 -4 6
3 7 17 4 31 -5 19 -2 24 14 24 11 0 23 8 25 18 4 16 5 16 6 -1 1 -13 7 -16 25
-11 14 3 29 0 39 -10 19 -19 170 -19 163 0 -3 7 3 10 16 6 14 -3 16 -7 7 -13
-18 -11 -23 -59 -7 -59 7 0 45 -3 83 -5 39 -2 62 -2 53 1 -22 7 -24 34 -3 34
8 0 15 8 15 18 1 16 1 16 14 0 17 -23 26 -23 26 1 0 11 -8 22 -17 24 -13 3
-12 5 5 6 13 1 33 -10 47 -25 18 -19 28 -24 37 -17 22 18 69 24 84 13 15 -13
204 -20 204 -7 0 4 18 7 40 7 22 0 40 5 40 10 0 6 14 10 30 10 17 0 30 -4 30
-9 0 -16 50 -19 59 -4 7 13 16 13 57 3 85 -20 111 -23 119 -10 6 9 0 11 -24 8
-21 -3 -31 0 -31 9 0 9 15 13 53 12 28 0 46 -3 40 -6 -7 -2 -13 -15 -13 -28 0
-14 -7 -25 -17 -28 -10 -2 -5 -3 12 0 16 2 46 14 67 28 39 26 90 43 87 29 -3
-14 12 -44 22 -44 5 0 8 3 8 8 -4 26 2 33 17 17 9 -9 24 -15 33 -13 9 2 29
-10 44 -25 16 -16 31 -26 35 -22 4 4 0 12 -8 18 -17 13 -15 47 2 47 5 0 12 -9
15 -20 7 -25 26 -26 44 -1 11 15 22 18 47 14 23 -4 32 -10 28 -19 -3 -9 1 -14
12 -14 9 0 26 -3 38 -6 13 -3 28 1 38 11 12 13 35 17 94 17 42 1 87 -2 99 -6
16 -5 25 -2 35 13 7 12 22 21 33 21 17 0 17 2 5 10 -20 13 24 13 148 -1 76 -8
105 -8 136 2 31 11 40 11 44 1 2 -7 10 -12 18 -12 9 0 13 4 10 8 -3 5 29 7 72
4 42 -3 79 -9 80 -13 2 -5 17 -9 33 -9 16 0 38 -5 49 -12 10 -7 23 -9 27 -5 4
5 1 12 -6 17 -9 5 9 9 50 12 78 4 109 0 109 -17 0 -15 51 -39 59 -27 7 10 55
23 89 24 12 0 22 6 22 14 0 8 7 14 15 14 9 0 13 -7 9 -17 -2 -10 1 -8 7 5 13
24 24 28 34 12 3 -5 1 -10 -6 -10 -7 0 -9 -3 -5 -7 4 -5 14 1 22 11 14 19 14
19 14 -3 0 -14 5 -21 13 -18 6 2 20 0 29 -5 12 -6 28 -3 48 7 29 15 36 11 31
-17 -1 -11 11 -10 29 2 13 8 12 10 -4 10 -24 0 -12 13 14 15 10 1 17 -2 13 -7
-3 -5 4 -4 15 3 17 11 25 11 46 0 14 -8 23 -18 20 -23 -3 -4 0 -8 5 -8 6 0 11
7 11 15 0 8 -7 15 -16 15 -8 0 -13 4 -10 9 4 5 16 4 30 -2 17 -8 21 -14 13
-20 -7 -4 1 -5 17 -1 19 5 31 2 37 -7 6 -11 9 -10 15 4 5 13 10 15 20 7 9 -8
19 -8 35 0 19 11 24 9 38 -9 17 -22 51 -21 51 2 0 6 7 2 16 -9 8 -10 13 -13 9
-6 -4 7 1 12 12 13 16 0 16 1 -1 8 -19 7 -19 8 1 13 16 4 23 0 27 -16 5 -18 8
-19 16 -6 5 8 10 10 10 3 0 -6 10 -9 23 -7 20 4 20 4 2 -5 -11 -4 -33 -7 -49
-5 -16 2 -26 1 -23 -3 7 -7 -22 -24 -70 -40 -25 -9 -34 -8 -49 5 -17 16 -17
16 -5 0 13 -18 6 -42 -9 -33 -5 3 -12 0 -15 -6 -4 -5 -14 -8 -22 -5 -8 3 -11
2 -8 -4 3 -5 -18 -16 -47 -25 -63 -18 -58 -18 -58 1 0 9 -5 13 -12 9 -16 -8
32 35 61 55 72 49 -68 57 -212 11 -152 -49 -393 -166 -427 -208 -13 -15 -20
-20 -17 -10 4 9 5 17 4 17 -4 0 -74 -36 -97 -49 -8 -5 -43 -21 -77 -37 -35
-15 -63 -32 -63 -36 0 -5 -5 -6 -10 -3 -17 10 -161 -73 -202 -116 -20 -22 -60
-88 -88 -147 -28 -59 -55 -114 -59 -123 -5 -8 -23 -51 -41 -95 -17 -43 -40
-98 -51 -122 -10 -23 -19 -50 -19 -58 0 -9 -9 -28 -20 -44 -11 -15 -17 -30
-13 -34 3 -3 1 -6 -5 -6 -7 0 -12 -10 -12 -22 0 -13 -7 -32 -15 -42 -8 -10
-12 -23 -9 -27 10 -17 -14 -9 -117 40 -113 53 -301 126 -417 162 -80 24 -110
47 -46 35 207 -40 319 -31 467 39 57 28 156 118 139 129 -23 14 -177 26 -341
27 -139 1 -169 3 -151 12 13 7 28 21 34 32 6 11 14 22 17 25 12 10 29 49 29
68 0 14 -12 25 -41 36 -49 20 -117 11 -230 -29 -41 -14 -110 -37 -154 -50 -44
-13 -97 -31 -117 -40 -23 -9 -38 -11 -38 -5 0 9 30 30 106 76 24 14 10 32 -22
26 -16 -3 -21 -7 -14 -12 7 -4 -6 -10 -29 -14 -23 -3 -41 -11 -41 -16 0 -5
-10 -9 -22 -9 -28 2 -78 -17 -78 -30 0 -5 -11 -12 -25 -15 -21 -5 -24 -11 -20
-34 3 -15 2 -21 -1 -14 -8 16 -29 15 -67 -5 -29 -15 -30 -17 -12 -24 22 -8 22
-8 -32 -13 -6 -1 -15 -5 -20 -10 -4 -5 -3 -6 4 -2 9 5 11 2 7 -9 -6 -14 -8
-14 -19 1 -11 15 -13 15 -28 -7 -10 -13 -17 -20 -17 -15 0 5 -10 1 -22 -10
-14 -12 -18 -14 -13 -4 4 8 -3 5 -17 -8 -26 -23 -44 -55 -96 -172 -37 -84 -86
-230 -78 -237 3 -3 -5 -20 -18 -37 -18 -24 -22 -36 -15 -54 6 -16 4 -35 -6
-58 -8 -19 -13 -55 -11 -79 2 -29 -1 -46 -10 -49 -14 -5 -26 -58 -53 -232 -11
-65 -23 -130 -29 -144 -6 -16 -6 -37 1 -60 5 -19 6 -60 3 -90 -4 -30 -11 -97
-16 -147 -5 -51 -17 -108 -26 -125 -18 -35 -28 -102 -14 -93 19 12 43 -185 26
-214 -12 -19 -56 -453 -57 -557 0 -81 23 -184 43 -184 5 0 17 -20 28 -45 24
-57 46 -59 53 -4 3 23 14 51 26 62 11 12 34 54 52 92 18 39 34 72 35 74 2 2
17 -7 33 -19 65 -46 94 5 66 118 -8 37 -18 76 -20 88 -3 11 1 29 9 39 12 17
14 17 29 -5 14 -20 21 -22 60 -16 40 6 46 4 60 -18 21 -32 51 -24 80 20 25 39
41 44 32 12 -6 -21 -5 -22 8 -5 19 23 30 22 17 -2 -14 -28 -14 -28 22 -23 30
5 32 3 19 -12 -8 -9 -12 -19 -9 -21 7 -8 71 14 79 27 9 14 59 17 59 3 0 -5 9
1 20 15 19 24 20 24 20 3 0 -12 4 -23 9 -25 5 -1 -6 -21 -25 -42 -34 -39 -59
-43 -36 -6 7 12 8 20 2 20 -5 0 -10 -4 -10 -10 0 -5 -4 -10 -9 -10 -5 0 -6 10
-3 22 5 22 5 22 -11 6 -25 -24 -21 -65 8 -92 19 -18 24 -30 20 -58 -3 -26 0
-40 15 -53 15 -13 17 -21 9 -31 -6 -7 -12 -25 -14 -39 -1 -14 -16 -43 -34 -65
-37 -46 -38 -61 -10 -78 16 -11 20 -21 17 -48 -2 -19 0 -34 4 -34 4 0 8 -18 8
-40 0 -22 4 -40 9 -40 5 0 21 20 35 45 17 29 34 45 46 45 11 0 19 -5 17 -11
-1 -6 13 -13 31 -15 37 -4 40 7 17 62 -15 36 -15 36 8 30 26 -6 41 2 50 27 5
14 11 16 26 8 14 -8 22 -6 36 9 10 11 22 17 28 13 6 -3 7 -1 3 5 -4 7 -14 12
-22 12 -10 0 -12 5 -7 13 4 6 6 23 5 37 -2 16 0 21 6 12 6 -9 18 1 42 33 19
25 44 52 57 61 22 14 25 13 51 -17 28 -34 37 -63 51 -164 13 -88 30 -119 45
-80 13 34 32 13 45 -47 9 -45 20 -69 42 -89 16 -15 29 -37 29 -51 0 -13 5 -29
11 -35 8 -8 -7 -10 -55 -6 -52 4 -69 1 -82 -11 -9 -9 -14 -23 -11 -31 3 -7 -1
-19 -8 -25 -16 -13 -26 -57 -29 -120 -1 -31 3 -42 18 -46 12 -4 15 -9 8 -16
-7 -7 -4 -17 9 -32 14 -14 22 -17 27 -9 5 8 14 6 29 -7 21 -17 21 -18 3 -23
-13 -3 -17 -1 -13 9 8 21 -1 17 -25 -11 l-21 -24 35 3 c19 1 37 -1 40 -6 3 -4
16 -7 29 -6 13 1 47 -10 77 -24 29 -14 67 -29 83 -32 l30 -7 -24 20 c-14 10
-25 28 -26 40 -2 22 9 28 20 11 11 -18 83 -50 112 -50 27 1 27 1 8 16 -19 15
-19 16 11 10 39 -9 61 12 44 43 -15 29 0 26 40 -9 35 -29 60 -38 60 -21 0 5
-7 17 -16 25 -8 9 -13 16 -9 16 11 0 125 -84 120 -88 -2 -3 -10 0 -17 5 -8 7
-21 7 -33 2 -18 -9 -18 -9 2 -5 13 2 26 0 29 -6 3 -5 12 -7 20 -4 8 3 26 1 40
-4 24 -9 26 -8 21 10 -6 24 18 27 47 5 14 -10 22 -12 27 -4 4 8 17 6 39 -6 30
-15 35 -16 45 -2 6 9 24 14 48 12 20 -1 37 0 37 3 0 3 -14 18 -30 34 -21 20
-37 27 -50 23 -15 -5 -18 -3 -14 9 3 9 1 16 -5 16 -17 0 -13 40 4 46 21 8 19
24 -3 24 -10 0 -23 5 -30 12 -9 9 -12 9 -12 0 0 -28 -29 -10 -35 22 -5 25 -15
37 -38 47 -18 8 -36 23 -42 34 -14 28 -54 67 -72 69 -9 2 -21 19 -28 39 -8 23
-9 34 -2 30 6 -4 8 0 5 8 -21 51 -21 52 -9 44 10 -6 11 -3 2 13 -17 32 -14 33
26 10 l36 -22 -7 28 c-6 23 -4 27 11 22 10 -3 47 -12 83 -21 36 -9 76 -26 88
-38 39 -36 86 -162 80 -213 -2 -18 0 -30 4 -28 4 3 10 -7 14 -21 13 -54 95
-96 147 -76 38 15 34 31 -6 24 -45 -7 -92 18 -105 56 -10 28 -9 30 16 33 33 4
53 58 34 89 -20 32 -13 34 18 4 17 -16 30 -25 30 -20 0 24 24 -19 29 -52 7
-36 8 -37 19 -16 16 28 -6 94 -36 108 -23 10 -30 25 -11 25 5 0 7 5 4 10 -5 8
-12 7 -22 -2 -14 -11 -15 -10 -8 12 6 20 5 23 -6 12 -19 -18 -28 -15 -22 8 7
26 22 25 80 -6 26 -14 56 -23 66 -20 11 3 27 -5 40 -20 25 -29 43 -30 59 -4
19 30 31 24 26 -12 l-5 -32 18 23 c16 20 20 21 25 7 11 -28 -3 -48 -28 -41
-18 5 -20 4 -8 -4 8 -6 23 -11 33 -11 14 0 17 -5 12 -22 -6 -22 -6 -22 9 -4
24 30 20 89 -7 123 -13 15 -33 44 -45 64 -25 41 -58 59 -110 59 l-37 -1 24
-19 c13 -11 29 -20 37 -20 8 0 14 -4 14 -9 0 -5 11 -12 25 -15 27 -7 34 -26
10 -26 -8 0 -15 4 -15 10 0 5 -7 6 -17 3 -10 -4 -14 -2 -10 4 4 7 -5 14 -23
18 -16 4 -30 11 -30 16 0 5 -6 9 -14 9 -8 0 -21 6 -28 13 -7 7 -29 13 -48 13
-23 0 -34 4 -32 13 2 8 -4 10 -18 6 -12 -4 -28 -1 -38 6 -14 11 -15 11 -4 -1
16 -18 16 -38 0 -22 -16 16 -38 15 -38 -2 0 -7 7 -19 15 -26 12 -10 13 -16 4
-26 -18 -22 -29 -16 -29 14 0 45 -14 57 -34 28 -9 -14 -21 -26 -27 -26 -8 0
-7 5 1 15 9 11 9 15 1 15 -7 0 -9 9 -5 24 3 13 1 27 -5 30 -7 4 -10 0 -9 -11
0 -10 0 -27 -1 -38 -2 -18 -3 -18 -12 4 -9 23 -10 23 -28 7 -13 -11 -21 -14
-26 -7 -3 6 1 11 10 11 9 0 13 5 10 11 -4 6 -13 8 -20 5 -7 -2 -16 -2 -20 2
-6 7 -11 8 -37 11 -6 0 -1 9 10 20 12 10 22 21 22 24 0 4 -23 25 -52 48 -30
24 -59 57 -70 81 -22 49 -23 65 -4 49 11 -9 15 -8 20 5 3 9 4 20 0 25 -9 15
16 10 32 -5 8 -8 23 -13 34 -11 12 2 20 -2 20 -9 0 -21 27 -40 33 -24 2 7 8 1
12 -14 4 -16 10 -28 14 -28 4 0 13 -16 20 -35 13 -37 32 -48 26 -16 -2 13 1
18 10 15 7 -3 16 -1 20 5 11 19 22 12 41 -26 l18 -38 6 35 c4 27 7 31 13 17 4
-10 7 -28 7 -39 0 -12 3 -18 6 -15 7 7 11 31 13 86 1 25 5 32 16 27 13 -4 14
-2 5 14 -6 11 -8 25 -5 30 8 13 35 13 35 -1 0 -5 4 -8 9 -4 5 3 13 -5 17 -17
7 -23 92 -108 108 -108 8 0 6 16 -9 55 -8 19 -6 18 17 -2 13 -13 28 -23 34
-23 5 0 1 7 -10 15 -10 7 -15 18 -11 24 3 6 2 11 -2 11 -14 0 -42 70 -29 71
41 4 90 -2 116 -16 35 -18 73 -74 91 -133 7 -23 16 -42 20 -42 4 0 10 -19 14
-42 20 -117 158 -148 210 -47 19 36 14 37 -19 4 -29 -29 -75 -33 -111 -9 -30
20 -34 54 -6 54 41 0 50 57 15 97 -41 47 -43 50 -37 72 4 14 14 21 32 22 14 0
46 2 71 4 27 2 54 -2 67 -11 27 -17 50 -18 56 -1 3 8 12 5 28 -10 21 -20 22
-26 12 -53 -11 -28 -2 -42 12 -20 4 6 10 8 14 5 5 -2 6 7 3 22 -3 18 -1 24 7
19 6 -4 11 -2 11 3 0 6 -5 11 -11 11 -6 0 -9 5 -7 11 2 6 7 9 11 7 9 -3 48
104 41 111 -2 2 -4 -1 -4 -8 0 -7 -4 -10 -9 -6 -5 3 -12 1 -16 -4 -7 -12 -45
18 -45 34 0 20 -55 64 -86 71 -22 4 -36 1 -47 -11 -12 -11 -17 -12 -17 -4 0
10 -3 10 -11 2 -6 -6 -18 -9 -25 -6 -9 3 -14 -2 -14 -12 0 -13 -3 -15 -13 -7
-16 13 -97 -6 -114 -28 -11 -13 -12 -13 -13 3 0 24 -19 21 -30 -5 l-9 -23 0
23 c-1 24 -16 30 -24 10 -3 -8 -6 -6 -6 5 -1 16 -4 16 -34 4 -32 -14 -77 -7
-77 11 0 4 -15 16 -32 27 -70 40 -218 203 -218 239 0 4 16 4 35 0 33 -6 36 -4
46 25 6 17 19 36 29 41 17 9 30 58 33 131 2 32 10 42 67 86 36 28 81 58 100
68 19 10 53 33 75 51 22 18 53 36 69 40 34 8 76 42 76 60 0 20 45 50 105 68
47 15 59 24 75 57 11 21 20 48 20 60 0 18 4 20 25 15 20 -5 36 1 71 30 24 20
43 42 41 48 -2 6 2 17 9 24 7 7 11 19 8 27 -5 12 3 15 39 15 51 0 88 24 107
70 10 24 18 30 43 30 42 0 95 38 108 77 9 29 15 33 60 39 58 8 99 47 99 95 0
29 0 29 61 29 45 0 71 -6 95 -21 46 -28 75 -22 98 22 24 43 17 75 -23 115 -37
36 -38 44 -6 38 40 -7 74 -22 108 -48 28 -22 37 -23 79 -16 89 17 114 33 134
86 9 27 21 54 26 61 5 7 4 13 -4 16 -7 3 2 3 20 0 71 -12 191 52 206 111 6 26
37 36 112 36 84 0 212 61 213 102 1 21 -49 63 -94 79 -39 14 -48 32 -12 25 12
-3 56 -8 97 -11 41 -3 104 -10 140 -15 41 -6 66 -6 68 0 2 6 10 6 20 1 22 -11
102 2 112 19 4 7 12 10 17 7 11 -7 83 39 83 53 0 26 -126 74 -465 175 -104 31
-194 61 -200 66 -16 15 76 10 202 -11 126 -22 369 -44 383 -35 5 3 11 1 14 -4
10 -16 164 -1 223 21 30 11 66 30 81 43 l27 24 -55 25 c-30 14 -129 44 -220
67 -147 37 -249 57 -590 115 -102 17 -145 37 -64 29 115 -12 181 -16 381 -21
138 -4 213 -3 213 3 0 6 -9 22 -21 37 -26 34 -13 34 22 0 27 -26 60 -33 104
-21 11 3 28 6 38 6 14 1 16 6 11 27 l-7 26 27 -17 c17 -11 26 -13 26 -5 0 7 8
9 19 5 12 -3 21 0 25 10 3 9 14 15 23 14 45 -4 54 0 47 26 -5 21 -3 25 15 25
12 0 21 5 21 10 0 15 -36 26 -105 34 -75 8 -140 24 -107 25 12 1 25 8 28 16 5
13 9 13 26 1 23 -16 50 -11 101 21 21 13 41 21 46 19 5 -3 16 3 26 14 18 20
14 35 -8 35 -7 1 -11 7 -9 14 1 7 -2 10 -8 6 -12 -8 -91 16 -85 26 3 4 -4 5
-14 2 -11 -3 -35 0 -54 6 -19 6 -51 14 -73 16 -21 3 -55 10 -74 15 -19 6 -50
10 -67 10 -32 0 -43 12 -23 25 19 12 10 25 -17 25 -20 0 -24 -3 -14 -9 7 -5
10 -14 6 -21 -6 -9 -9 -9 -16 1 -6 10 -9 11 -9 2 0 -9 -11 -11 -37 -7 -43 7
-116 11 -217 13 -111 2 -72 9 79 16 221 9 316 14 324 19 19 12 100 15 107 4 5
-7 2 -9 -7 -6 -8 3 -25 -3 -38 -13 -13 -11 -18 -19 -13 -19 6 0 14 5 17 10 3
6 11 10 16 10 6 0 7 -4 4 -10 -4 -6 6 -10 24 -10 25 0 30 4 29 23 -2 47 2 57
20 50 9 -3 23 -13 31 -22 9 -11 15 -13 18 -4 3 8 13 3 28 -15 22 -26 24 -26
42 -9 11 9 25 17 31 17 7 0 12 5 12 10 0 14 37 12 43 -2 3 -7 5 161 6 375 l1
387 -2835 0 -2835 0 0 -300z m683 -217 c-7 -2 -19 -2 -25 0 -7 3 -2 5 12 5 14
0 19 -2 13 -5z m3081 -8 c4 -12 -4 -15 -39 -15 -33 0 -45 4 -45 15 0 11 11 15
39 15 25 0 41 -5 45 -15z m116 -5 c6 0 8 4 5 10 -4 6 1 7 12 3 14 -6 13 -9
-12 -19 -20 -8 -32 -9 -36 -2 -4 6 -14 0 -23 -13 -14 -20 -18 -22 -26 -9 -4 8
-9 20 -10 25 -2 14 42 24 62 13 9 -4 22 -8 28 -8z m-3145 -11 c-4 -5 -16 -8
-28 -8 -17 1 -18 2 -4 6 9 2 17 9 17 14 0 6 5 7 10 4 6 -4 8 -11 5 -16z m485
11 c0 -5 -4 -10 -10 -10 -5 0 -10 5 -10 10 0 6 5 10 10 10 6 0 10 -4 10 -10z
m-814 -8 c6 -4 13 -15 17 -24 4 -11 13 -15 29 -11 17 4 20 3 12 -6 -14 -15
-77 -3 -70 14 2 7 -1 18 -7 24 -12 12 2 15 19 3z m514 -7 c0 -8 -4 -15 -10
-15 -5 0 -10 7 -10 15 0 8 5 15 10 15 6 0 10 -7 10 -15z m2230 5 c0 -5 -8 -10
-17 -10 -15 0 -16 2 -3 10 19 12 20 12 20 0z m430 0 c0 -5 -9 -10 -20 -10 -11
0 -20 5 -20 10 0 6 9 10 20 10 11 0 20 -4 20 -10z m-3100 -10 c0 -5 -7 -10
-16 -10 -8 0 -12 5 -9 10 3 6 10 10 16 10 5 0 9 -4 9 -10z m880 0 c0 -5 -10
-10 -22 -10 -19 0 -20 2 -8 10 19 13 30 13 30 0z m385 0 c3 -5 1 -10 -4 -10
-6 0 -11 5 -11 10 0 6 2 10 4 10 3 0 8 -4 11 -10z m150 0 c3 -5 -3 -10 -15
-10 -12 0 -18 5 -15 10 3 6 10 10 15 10 5 0 12 -4 15 -10z m2665 6 c0 -2 -8
-10 -17 -17 -16 -13 -17 -12 -4 4 13 16 21 21 21 13z m-4283 -12 c-3 -3 -12
-4 -19 -1 -8 3 -5 6 6 6 11 1 17 -2 13 -5z m1343 2 c0 -3 -4 -8 -10 -11 -5 -3
-10 -1 -10 4 0 6 5 11 10 11 6 0 10 -2 10 -4z m203 -3 c-13 -2 -33 -2 -45 0
-13 2 -3 4 22 4 25 0 35 -2 23 -4z m1614 -9 c-3 -3 -12 -4 -19 -1 -8 3 -5 6 6
6 11 1 17 -2 13 -5z m303 -4 c0 -5 -5 -10 -11 -10 -5 0 -7 5 -4 10 3 6 8 10
11 10 2 0 4 -4 4 -10z m736 -2 c4 -7 3 -8 -4 -4 -7 4 -12 1 -12 -10 0 -12 6
-15 23 -11 22 6 22 6 2 -9 -12 -9 -21 -11 -23 -4 -2 5 -8 10 -13 10 -6 0 -7
-5 -3 -12 5 -8 -2 -9 -24 -5 -18 4 -32 2 -32 -3 0 -5 -29 -8 -65 -7 -36 1 -65
-2 -65 -6 0 -5 -8 -7 -17 -5 -10 1 -25 -2 -33 -7 -13 -8 -13 -7 -1 8 17 21
116 51 133 40 22 -13 48 -14 48 -1 0 9 3 9 12 0 15 -15 32 -16 23 -2 -3 6 0
10 8 10 8 0 17 7 21 15 7 18 12 19 22 3z m358 -3 c-5 -13 -9 -13 -23 -3 -9 7
-18 14 -20 15 -2 2 8 3 22 3 20 0 25 -4 21 -15z m200 6 c3 -5 0 -11 -7 -14 -8
-3 -14 1 -14 9 0 16 13 19 21 5z m-393 -18 c13 -17 13 -17 -6 -3 -11 8 -22 16
-24 17 -2 2 0 3 6 3 6 0 17 -8 24 -17z m94 7 c4 -6 -6 -10 -22 -9 -25 0 -26 1
-8 9 11 5 21 9 22 9 1 1 5 -3 8 -9z m155 6 c0 -2 -9 -6 -20 -9 -11 -3 -20 -1
-20 4 0 5 9 9 20 9 11 0 20 -2 20 -4z m103 -3 c-7 -2 -19 -2 -25 0 -7 3 -2 5
12 5 14 0 19 -2 13 -5z m-438 -13 c3 -6 -1 -7 -9 -4 -18 7 -21 14 -7 14 6 0
13 -4 16 -10z m729 2 c3 -5 -1 -9 -9 -9 -8 0 -15 4 -15 9 0 4 4 8 9 8 6 0 12
-4 15 -8z m-4889 -12 c-3 -5 -10 -10 -16 -10 -5 0 -9 5 -9 10 0 6 7 10 16 10
8 0 12 -4 9 -10z m3450 0 c-98 -45 -213 -90 -227 -90 -44 0 -9 19 105 57 115
39 167 53 122 33z m1572 -6 c-3 -3 -12 -4 -19 -1 -8 3 -5 6 6 6 11 1 17 -2 13
-5z m-4997 -14 c0 -5 -4 -10 -10 -10 -5 0 -10 5 -10 10 0 6 5 10 10 10 6 0 10
-4 10 -10z m3709 -34 c-2 -2 -17 -6 -34 -9 l-30 -6 30 13 c26 12 47 13 34 2z
m1402 -48 c10 -19 9 -20 -16 -14 -19 5 -25 4 -19 -5 4 -8 3 -9 -4 -5 -22 13
-14 38 11 32 12 -3 16 -3 10 0 -7 3 -13 10 -13 15 0 15 18 1 31 -23z m89 0 c0
-5 -4 -8 -10 -8 -5 0 -10 4 -10 10 0 5 -7 7 -15 4 -15 -6 -21 7 -9 19 7 7 44
-14 44 -25z m-1571 -13 c-40 -13 -52 -9 -26 10 10 7 27 10 39 7 18 -4 16 -7
-13 -17z m84 18 c-7 -2 -21 -2 -30 0 -10 3 -4 5 12 5 17 0 24 -2 18 -5z m-360
-19 c10 -4 16 -13 13 -20 -3 -8 1 -14 8 -14 23 0 7 -45 -22 -61 -24 -13 -28
-13 -51 8 -13 13 -30 23 -38 23 -10 0 -13 10 -11 32 2 27 8 34 33 39 17 4 35
5 40 3 6 -2 18 -7 28 -10z m1657 -34 c0 -5 -4 -10 -9 -10 -6 0 -13 5 -16 10
-3 6 1 10 9 10 9 0 16 -4 16 -10z m-793 -56 c-3 -3 -12 -4 -19 -1 -8 3 -5 6 6
6 11 1 17 -2 13 -5z m-777 -29 c-28 -16 -60 -20 -44 -6 8 9 36 18 59 19 6 1
-1 -5 -15 -13z m-73 -21 c-3 -3 -12 -4 -19 -1 -8 3 -5 6 6 6 11 1 17 -2 13 -5z
m512 -48 c-2 -2 -17 -6 -34 -10 -22 -5 -26 -4 -15 4 14 9 59 15 49 6z m-496
-91 c-3 -9 -8 -14 -10 -11 -3 3 -2 9 2 15 9 16 15 13 8 -4z m1547 -45 c0 -5
-7 -10 -16 -10 -8 0 -12 5 -9 10 3 6 10 10 16 10 5 0 9 -4 9 -10z m-947 -47
c-7 -2 -19 -2 -25 0 -7 3 -2 5 12 5 14 0 19 -2 13 -5z m-46 -9 c-3 -3 -12 -4
-19 -1 -8 3 -5 6 6 6 11 1 17 -2 13 -5z m-324 -19 c118 0 167 -14 60 -17 -184
-5 -279 4 -267 23 4 7 21 7 48 2 22 -4 94 -8 159 -8z m232 5 c-11 -5 -38 -8
-60 -8 l-40 1 40 7 c22 4 49 7 60 8 l20 1 -20 -9z m-443 -92 c7 -7 24 -15 37
-16 13 -2 36 -12 50 -22 26 -18 268 -56 406 -63 44 -2 36 -4 -30 -5 -175 -3
-436 34 -523 75 l-33 16 23 12 c30 17 54 18 70 3z m-2272 -18 c10 -6 -2 -8
-36 -4 -36 5 -75 0 -135 -16 -46 -12 -95 -24 -109 -27 -22 -4 -23 -3 -6 7 59
38 248 64 286 40z m2860 -84 c0 -11 -19 -15 -25 -6 -3 5 1 10 9 10 9 0 16 -2
16 -4z m63 -3 c-7 -2 -19 -2 -25 0 -7 3 -2 5 12 5 14 0 19 -2 13 -5z m-3338
-27 c-49 -7 -101 -18 -114 -25 -19 -11 -23 -11 -19 1 7 22 68 37 148 36 l75 0
-90 -12z m2675 -56 c51 -24 57 -29 30 -24 -47 9 -167 66 -125 60 17 -3 59 -19
95 -36z m-2250 -13 c25 -2 -35 -4 -132 -5 -98 -1 -178 1 -178 6 0 6 202 6 310
-1z m-452 -11 c2 -2 -32 -4 -75 -4 -52 -1 -71 2 -58 8 18 8 124 4 133 -4z
m2861 -32 c10 -9 -35 -3 -49 6 -11 8 -7 9 15 4 17 -4 32 -8 34 -10z m-2694
-32 l45 -28 -35 0 c-25 0 -37 5 -41 18 -3 10 -10 18 -15 18 -5 0 -9 5 -9 10 0
15 5 13 55 -18z m2388 -47 c43 -20 76 -39 74 -41 -6 -7 -187 78 -187 88 0 5 8
5 18 0 9 -5 52 -26 95 -47z m-2680 33 c-6 -11 -45 -9 -63 2 -11 7 -4 9 27 8
22 -2 39 -6 36 -10z m86 -30 c13 -5 21 -11 18 -14 -3 -3 -14 -1 -26 5 -11 6
-31 12 -45 13 -13 1 -22 6 -19 11 5 8 22 4 72 -15z m-369 -10 c0 -19 -2 -20
-10 -8 -13 19 -13 30 0 30 6 0 10 -10 10 -22z m657 -73 c84 -32 151 -60 150
-62 -7 -6 -327 110 -327 119 0 6 6 8 13 5 6 -2 81 -30 164 -62z m-377 25 c12
-8 11 -10 -7 -10 -12 0 -25 5 -28 10 -8 13 15 13 35 0z m2865 -31 c5 -5 -5 -4
-23 2 -17 6 -32 13 -32 16 0 7 43 -8 55 -18z m-2587 -63 c19 -17 43 -44 54
-61 19 -27 17 -26 -18 8 -22 20 -45 37 -51 37 -7 0 -21 13 -32 29 -40 55 -22
50 47 -13z m-348 13 c10 -6 5 -7 -15 -3 -16 4 -34 11 -40 16 -11 12 31 1 55
-13z m3027 15 c-3 -3 -12 -4 -19 -1 -8 3 -5 6 6 6 11 1 17 -2 13 -5z m48 -14
c13 -6 15 -9 5 -9 -8 0 -22 4 -30 9 -18 12 -2 12 25 0z m-3154 -77 l34 -36
-31 21 c-36 24 -61 52 -47 52 5 0 25 -16 44 -37z m369 12 c16 -19 118 -90 183
-128 26 -15 47 -30 47 -33 0 -12 -273 149 -278 164 -5 17 33 15 48 -3z m-501
-75 c1 -13 0 -13 -9 0 -5 8 -9 26 -9 40 l1 25 8 -25 c4 -14 8 -32 9 -40z m52
38 c11 -21 11 -22 -4 -9 -10 7 -17 17 -17 22 0 15 9 10 21 -13z m2510 -25 c13
-16 12 -17 -3 -4 -17 13 -22 21 -14 21 2 0 10 -8 17 -17z m-1161 -12 c0 -14
-29 -21 -36 -9 -4 7 -3 8 4 4 7 -4 12 -2 12 3 0 6 5 11 10 11 6 0 10 -4 10 -9z
m-607 -57 c82 -42 133 -60 201 -74 63 -12 85 -20 71 -25 -11 -3 -30 -11 -43
-16 -18 -7 -50 5 -170 65 -139 70 -198 105 -178 106 5 0 58 -25 119 -56z
m-791 -9 c3 -13 1 -22 -3 -19 -9 5 -13 44 -5 44 2 0 6 -11 8 -25z m529 -130
c89 -86 122 -123 79 -86 -84 71 -250 229 -250 237 0 13 26 -10 171 -151z m234
87 c-3 -3 -11 0 -18 7 -9 10 -8 11 6 5 10 -3 15 -9 12 -12z m-430 -132 c32
-47 85 -120 117 -162 32 -43 57 -78 55 -78 -15 0 -277 352 -277 372 0 13 36
-32 105 -132z m-316 113 c0 -10 1 -38 1 -62 1 -25 -4 -47 -11 -52 -8 -5 -10
-20 -5 -45 4 -22 9 -59 11 -84 3 -25 7 -58 9 -75 3 -16 7 -50 10 -75 4 -25 15
-114 27 -198 11 -84 18 -158 16 -165 -2 -7 -7 13 -11 43 -4 30 -17 111 -27
180 -11 69 -22 141 -25 160 -2 19 -6 46 -9 60 -17 85 -25 213 -14 226 6 8 9
27 6 44 -7 32 0 60 13 60 5 0 9 -8 9 -17z m1599 -42 c96 -38 426 -214 484
-258 56 -42 128 -129 128 -153 0 -7 24 -39 54 -70 61 -64 96 -126 96 -170 0
-47 -24 -95 -61 -121 -24 -16 -30 -18 -20 -5 12 14 12 22 3 36 -9 14 -8 21 3
30 13 11 15 7 15 -21 1 -29 2 -31 11 -15 16 26 -5 70 -29 62 -14 -5 -14 -4 2
9 28 22 3 48 -38 41 -33 -6 -79 17 -54 27 7 3 -1 6 -17 6 -17 1 -36 6 -42 12
-5 5 -49 25 -97 43 -47 18 -83 35 -80 39 4 4 -8 7 -26 7 l-34 0 29 -30 c15
-16 50 -37 76 -45 71 -24 68 -34 -4 -18 -60 14 -154 57 -169 78 -4 5 -6 16 -3
23 3 7 1 10 -4 7 -5 -3 -17 5 -26 17 l-16 23 4 -23 c2 -13 10 -28 18 -33 14
-10 9 -10 -53 7 -23 6 -23 6 -3 -10 19 -15 19 -15 -10 -7 -16 5 -47 18 -67 31
-34 20 -51 22 -175 21 -151 0 -240 -8 -249 -22 -7 -11 -44 -12 -44 -1 0 4 5
13 12 20 9 9 9 12 0 12 -7 0 -12 5 -12 10 0 6 -12 22 -27 35 -28 25 -26 32 12
49 6 3 4 9 -4 14 -11 8 -6 12 22 17 25 5 34 11 30 21 -3 8 -12 14 -21 14 -14
0 -9 14 6 15 19 2 52 17 52 25 0 4 9 6 20 3 14 -4 20 0 20 11 0 10 5 14 10 11
6 -3 10 -2 10 3 0 4 -20 23 -45 42 -25 19 -45 37 -45 42 0 12 24 10 38 -4 20
-20 25 -1 9 31 -16 32 -10 40 11 19 9 -9 12 -9 12 -1 0 7 -5 15 -11 19 -8 4
-7 9 2 14 9 6 9 12 -4 25 -22 21 -21 23 6 23 92 2 107 4 101 14 -4 7 5 8 27 4
34 -7 34 -7 9 8 -23 13 -20 14 40 11 36 -2 89 -13 118 -24z m-1414 -114 c21
-50 67 -148 103 -217 35 -69 56 -116 48 -105 -20 24 -177 337 -193 383 -6 17
-8 32 -4 32 4 0 24 -42 46 -93z m-89 -91 c15 -54 25 -100 23 -102 -5 -4 -58
178 -58 198 0 26 11 -3 35 -96z m420 -136 c10 -11 16 -20 13 -20 -3 0 -13 9
-23 20 -10 11 -16 20 -13 20 3 0 13 -9 23 -20z m-692 -117 c4 -45 3 -73 -3
-73 -6 0 -10 34 -10 77 0 94 6 92 13 -4z m144 -40 c-3 -10 -5 -2 -5 17 0 19 2
27 5 18 2 -10 2 -26 0 -35z m403 17 c6 -11 8 -20 6 -20 -3 0 -10 9 -16 20 -6
11 -8 20 -6 20 3 0 10 -9 16 -20z m1280 -12 c11 -7 8 -8 -10 -4 -14 3 -33 6
-43 6 -10 0 -15 5 -12 10 7 11 38 5 65 -12z m-2010 2 c0 -5 -5 -10 -11 -10 -5
0 -7 5 -4 10 3 6 8 10 11 10 2 0 4 -4 4 -10z m1765 0 c16 -7 13 -9 -17 -9 -29
-1 -36 -4 -32 -16 4 -8 14 -15 24 -15 12 0 17 -6 16 -17 -2 -13 -13 -18 -37
-19 -19 -1 -45 -6 -59 -12 -14 -5 -26 -6 -28 -1 -2 5 -13 9 -25 9 -17 1 -13 6
18 22 22 12 34 23 27 26 -7 2 -20 -2 -30 -10 -15 -12 -16 -11 -3 5 12 15 12
20 1 27 -10 6 -8 9 6 13 32 8 118 6 139 -3z m544 -33 c9 -8 42 -23 74 -35 32
-12 78 -35 102 -52 51 -35 62 -53 13 -21 -48 32 -118 67 -160 80 -20 7 -42 19
-48 27 -15 18 -2 19 19 1z m-1972 -39 c-3 -7 -5 -2 -5 12 0 14 2 19 5 13 2 -7
2 -19 0 -25z m-151 -24 c3 -47 -7 -36 -13 13 -2 20 -1 34 3 30 4 -3 8 -23 10
-43z m-209 4 c-3 -7 -5 -2 -5 12 0 14 2 19 5 13 2 -7 2 -19 0 -25z m130 -40
c-2 -13 -4 -5 -4 17 -1 22 1 32 4 23 2 -10 2 -28 0 -40z m30 10 c-3 -8 -6 -5
-6 6 -1 11 2 17 5 13 3 -3 4 -12 1 -19z m0 -80 c-2 -13 -4 -3 -4 22 0 25 2 35
4 23 2 -13 2 -33 0 -45z m50 -105 c-2 -32 -3 -8 -3 52 0 61 1 87 3 58 2 -29 2
-78 0 -110z m-80 35 c-2 -18 -4 -4 -4 32 0 36 2 50 4 33 2 -18 2 -48 0 -65z
m339 -103 c-4 -13 -26 89 -25 118 0 12 7 -7 15 -43 8 -36 12 -69 10 -75z
m-466 58 c0 -21 -3 -24 -9 -14 -5 8 -7 20 -4 28 8 21 13 15 13 -14z m127 -135
c-2 -24 -4 -7 -4 37 0 44 2 63 4 43 2 -21 2 -57 0 -80z m90 -5 c-2 -16 -4 -5
-4 22 0 28 2 40 4 28 2 -13 2 -35 0 -50z m-157 -60 c-10 -16 -11 -14 -6 7 3
14 7 41 8 60 1 32 2 32 5 -7 2 -24 -1 -51 -7 -60z m67 -35 c-2 -13 -4 -5 -4
17 -1 22 1 32 4 23 2 -10 2 -28 0 -40z m-70 -50 c-2 -13 -4 -3 -4 22 0 25 2
35 4 23 2 -13 2 -33 0 -45z m170 40 c-3 -8 -6 -5 -6 6 -1 11 2 17 5 13 3 -3 4
-12 1 -19z m-100 -130 c-3 -7 -5 -2 -5 12 0 14 2 19 5 13 2 -7 2 -19 0 -25z
m-80 -180 c-2 -35 -3 -7 -3 62 0 69 1 97 3 63 2 -35 2 -91 0 -125z m624 -175
c-12 -20 -14 -14 -5 12 4 9 9 14 11 11 3 -2 0 -13 -6 -23z m-64 -42 c-7 -17
-16 -28 -20 -25 -3 4 1 20 9 36 20 39 28 30 11 -11z m-40 -16 c0 -8 -6 -16
-14 -19 -11 -4 -11 -1 -3 14 13 24 17 25 17 5z m158 -23 c-3 -3 -11 0 -18 7
-9 10 -8 11 6 5 10 -3 15 -9 12 -12z m19 -135 c-3 -8 -11 -14 -19 -14 -8 0
-15 6 -15 14 0 7 9 13 20 13 12 0 17 -5 14 -13z m2036 -169 c0 -18 -2 -20 -9
-8 -6 8 -7 18 -5 22 9 14 14 9 14 -14z m-430 -19 c0 -6 -4 -7 -10 -4 -5 3 -10
11 -10 16 0 6 5 7 10 4 6 -3 10 -11 10 -16z m460 -40 c16 -29 6 -35 -18 -11
-11 11 -18 23 -14 26 10 11 21 6 32 -15z m-2004 -64 c-3 -13 -16 -35 -29 -49
-12 -13 -29 -34 -37 -46 l-15 -21 -1 24 c-1 17 4 27 16 30 10 3 28 23 39 46
24 46 36 54 27 16z m44 -25 c0 -5 -2 -10 -4 -10 -3 0 -8 5 -11 10 -3 6 -1 10
4 10 6 0 11 -4 11 -10z m1253 -10 c3 -11 1 -18 -4 -14 -5 3 -9 12 -9 20 0 20
7 17 13 -6z m-1360 -5 c-3 -9 -8 -14 -10 -11 -3 3 -2 9 2 15 9 16 15 13 8 -4z
m1162 -175 c3 -5 2 -10 -4 -10 -5 0 -13 5 -16 10 -3 6 -2 10 4 10 5 0 13 -4
16 -10z m-306 -102 c16 -18 27 -37 24 -41 -3 -5 -10 -4 -15 1 -6 6 -17 8 -24
5 -8 -3 -22 1 -31 8 -15 13 -15 12 -4 -8 10 -20 9 -23 -5 -23 -10 0 -14 -5
-11 -15 4 -8 3 -17 -2 -19 -11 -7 -51 23 -50 37 0 9 2 9 5 0 7 -17 34 -4 34
16 0 9 4 23 10 31 7 12 12 12 29 -4 24 -21 25 -18 11 18 -13 34 -6 33 29 -6z
m532 22 c10 -6 19 -16 19 -23 0 -7 -3 -8 -8 -2 -4 6 -13 10 -21 10 -8 0 -16 6
-18 13 -6 15 2 15 28 2z m-751 -40 c0 -5 -4 -10 -10 -10 -5 0 -10 5 -10 10 0
6 5 10 10 10 6 0 10 -4 10 -10z m70 -60 c1 -14 4 -19 7 -12 2 6 9 12 15 12 6
0 6 -6 -2 -15 -7 -8 -17 -15 -21 -15 -15 0 -30 51 -23 74 7 21 7 21 15 1 4
-11 8 -31 9 -45z m250 10 c-18 -12 -30 -13 -30 -2 0 4 10 9 22 9 18 2 20 0 8
-7z m-330 -26 c0 -2 -9 -4 -21 -4 -11 0 -18 4 -14 10 5 8 35 3 35 -6z m598
-194 c14 -23 5 -26 -20 -6 -21 16 -23 26 -5 26 7 0 18 -9 25 -20z"/>
<path d="M4278 5053 c7 -3 16 -2 19 1 4 3 -2 6 -13 5 -11 0 -14 -3 -6 -6z"/>
<path d="M2686 3321 c-4 -5 -17 -8 -30 -7 -22 3 -23 1 -15 -28 5 -17 9 -32 9
-33 0 -1 7 -9 16 -17 16 -16 134 -23 168 -10 26 10 18 31 -16 43 -18 7 -54 23
-80 37 -26 13 -49 20 -52 15z"/>
<path d="M2218 3303 c6 -2 18 -2 25 0 6 3 1 5 -13 5 -14 0 -19 -2 -12 -5z"/>
<path d="M2097 3280 c7 -7 38 -15 70 -16 l58 -3 -50 8 c-27 5 -59 12 -70 16
-16 7 -18 5 -8 -5z"/>
<path d="M2400 3266 c0 -8 71 -48 76 -43 2 2 -6 11 -18 19 -26 16 -58 29 -58
24z"/>
<path d="M2570 3221 c0 -10 30 -24 37 -17 3 2 -5 9 -16 16 -12 6 -21 7 -21 1z"/>
<path d="M2915 3170 c-3 -6 5 -10 19 -10 14 0 28 5 31 10 3 6 -5 10 -19 10
-14 0 -28 -4 -31 -10z"/>
<path d="M2905 3130 c-16 -7 -17 -9 -3 -9 9 -1 20 4 23 9 7 11 7 11 -20 0z"/>
<path d="M2480 5100 c0 -5 9 -10 20 -10 11 0 20 5 20 10 0 6 -9 10 -20 10 -11
0 -20 -4 -20 -10z"/>
<path d="M2538 5093 c-4 -13 2 -18 19 -19 27 -2 28 2 9 22 -19 18 -23 18 -28
-3z"/>
<path d="M126 5081 c-4 -7 -5 -15 -2 -18 9 -9 19 4 14 18 -4 11 -6 11 -12 0z"/>
<path d="M976 5075 c4 -8 11 -15 16 -15 6 0 5 6 -2 15 -7 8 -14 15 -16 15 -2
0 -1 -7 2 -15z"/>
<path d="M638 5068 c-3 -7 -17 -12 -36 -10 -25 2 -30 -1 -26 -13 10 -24 61
-19 67 7 7 24 2 38 -5 16z"/>
<path d="M1660 5071 c0 -5 7 -12 16 -15 24 -9 27 -7 10 9 -17 17 -26 19 -26 6z"/>
<path d="M940 5064 c0 -3 7 -12 15 -20 16 -17 18 -14 9 10 -6 15 -24 23 -24
10z"/>
<path d="M698 5053 c7 -3 16 -2 19 1 4 3 -2 6 -13 5 -11 0 -14 -3 -6 -6z"/>
<path d="M764 5035 c1 -23 16 -37 16 -16 0 5 3 16 6 25 4 10 1 16 -9 16 -10 0
-14 -9 -13 -25z"/>
<path d="M796 5035 c-3 -8 4 -11 17 -10 12 1 31 3 41 4 28 2 11 14 -23 16 -16
2 -32 -3 -35 -10z"/>
<path d="M298 5023 c7 -3 16 -2 19 1 4 3 -2 6 -13 5 -11 0 -14 -3 -6 -6z"/>
<path d="M335 5020 c3 -5 10 -10 16 -10 5 0 9 5 9 10 0 6 -7 10 -16 10 -8 0
-12 -4 -9 -10z"/>
<path d="M690 4990 c0 -5 7 -10 15 -10 8 0 15 5 15 10 0 6 -7 10 -15 10 -8 0
-15 -4 -15 -10z"/>
<path d="M5301 4873 c-9 -16 -12 -16 -20 -3 -8 12 -10 10 -8 -8 1 -15 6 -21
15 -17 7 3 18 5 24 5 6 0 7 7 4 16 -3 8 -2 12 3 9 5 -3 12 -1 16 5 3 5 -1 10
-9 10 -8 0 -20 -8 -25 -17z"/>
<path d="M5452 4868 c-14 -14 -16 -58 -2 -58 12 0 30 33 30 54 0 19 -11 21
-28 4z"/>
<path d="M5618 4873 c-17 -4 -33 -32 -23 -41 3 -3 5 0 5 6 0 7 6 12 14 12 7 0
19 7 26 15 13 15 9 16 -22 8z"/>
<path d="M5238 4853 c7 -3 16 -2 19 1 4 3 -2 6 -13 5 -11 0 -14 -3 -6 -6z"/>
<path d="M5378 4843 c7 -3 16 -2 19 1 4 3 -2 6 -13 5 -11 0 -14 -3 -6 -6z"/>
<path d="M4243 2453 c20 -2 54 -2 75 0 20 2 3 4 -38 4 -41 0 -58 -2 -37 -4z"/>
<path d="M4118 2443 c6 -2 18 -2 25 0 6 3 1 5 -13 5 -14 0 -19 -2 -12 -5z"/>
<path d="M4428 2443 c7 -3 16 -2 19 1 4 3 -2 6 -13 5 -11 0 -14 -3 -6 -6z"/>
<path d="M4058 2433 c7 -3 16 -2 19 1 4 3 -2 6 -13 5 -11 0 -14 -3 -6 -6z"/>
<path d="M4018 2423 c7 -3 16 -2 19 1 4 3 -2 6 -13 5 -11 0 -14 -3 -6 -6z"/>
<path d="M4080 2411 c-102 -21 -192 -53 -280 -99 -92 -48 -175 -108 -172 -122
1 -6 -2 -9 -8 -5 -15 9 -113 -87 -182 -179 -239 -318 -275 -750 -92 -1109 55
-107 105 -177 192 -264 292 -292 724 -387 1110 -244 152 56 256 124 378 245
175 174 266 359 301 608 15 104 15 135 4 235 -46 424 -315 763 -713 899 -162
55 -372 69 -538 35z m-243 -177 c3 -8 10 -11 17 -7 6 3 1 -4 -11 -16 -13 -12
-23 -28 -23 -36 0 -8 -9 -15 -20 -15 -11 0 -20 -5 -20 -11 0 -5 -4 -8 -9 -4
-5 3 -13 0 -17 -6 -4 -8 -3 -9 4 -5 7 4 12 2 12 -3 0 -11 -19 -15 -50 -12 -9
1 -11 -1 -5 -6 11 -9 14 -44 3 -40 -3 1 -15 -6 -26 -16 -16 -15 -22 -16 -28
-5 -4 7 -3 10 1 5 9 -8 45 20 45 36 0 6 -8 3 -18 -6 -10 -10 -33 -17 -51 -17
-18 0 -30 -4 -26 -9 3 -5 1 -13 -5 -16 -6 -4 -10 -3 -9 2 4 22 -2 34 -13 27
-8 -5 -7 0 2 11 15 19 15 19 -15 1 -30 -19 -30 -19 -12 1 9 11 14 23 10 28 -5
4 -2 5 5 1 7 -4 12 -2 13 6 0 10 2 10 6 0 4 -10 11 -5 24 15 10 15 19 24 19
19 0 -5 7 -3 15 4 8 7 12 16 9 21 -3 5 -2 8 3 7 4 -1 23 6 41 16 27 14 31 20
22 31 -10 12 -6 13 21 5 22 -7 37 -6 44 1 7 7 4 8 -10 4 -15 -5 -16 -4 -6 3
17 12 51 4 58 -14z m646 -3 c324 -83 562 -317 648 -636 29 -105 32 -306 7
-410 -35 -143 -85 -245 -175 -358 -327 -408 -940 -437 -1304 -60 -81 83 -119
139 -170 247 -117 251 -106 555 29 791 52 90 135 189 207 247 35 28 62 55 59
59 -2 4 1 11 7 15 8 4 9 3 5 -4 -4 -7 -3 -12 3 -12 5 0 12 4 15 8 6 11 100 57
156 78 157 58 367 72 513 35z"/>
<path d="M4125 2126 c-28 -7 -49 -17 -48 -24 5 -22 194 -447 203 -456 7 -7 10
-6 10 2 0 6 25 67 56 134 127 278 144 317 144 327 0 28 -268 41 -365 17z m69
-111 c3 -8 1 -15 -4 -15 -6 0 -10 7 -10 15 0 8 2 15 4 15 2 0 6 -7 10 -15z"/>
<path d="M3843 2001 c-63 -45 -161 -142 -183 -182 -7 -13 -4 -15 19 -11 25 3
30 -1 58 -65 17 -37 90 -201 163 -363 72 -162 133 -296 134 -297 1 -2 26 52
55 120 28 67 55 129 60 137 6 12 29 15 101 15 l92 0 74 -165 c41 -91 81 -184
90 -207 10 -25 21 -40 27 -36 8 5 7 8 -1 11 -7 2 -12 12 -12 23 0 11 -15 52
-34 92 -29 63 -109 240 -123 275 -3 7 3 12 14 12 16 0 33 -29 84 -140 35 -77
66 -136 69 -132 4 4 19 36 35 72 31 72 210 469 256 568 16 35 29 68 29 73 0 5
14 9 30 9 28 0 30 2 19 21 -29 55 -238 233 -254 217 -3 -3 -1 -17 5 -32 8 -23
3 -43 -40 -139 -28 -62 -87 -194 -132 -294 l-81 -183 -117 0 -117 0 -27 60
c-15 32 -31 62 -37 66 -5 3 -31 -4 -57 -17 -26 -12 -65 -23 -87 -23 l-40 -1
-72 145 c-40 80 -72 155 -73 166 0 14 25 45 71 89 68 63 71 69 74 116 1 27 1
49 0 49 -1 0 -33 -22 -72 -49z"/>
<path d="M3556 1619 c-40 -108 -47 -289 -16 -418 11 -46 25 -91 30 -100 13
-22 12 -12 -4 45 -8 27 -17 68 -20 91 -8 64 18 45 34 -24 27 -121 110 -264
207 -354 53 -50 160 -125 168 -118 2 3 -22 63 -54 134 -32 72 -108 243 -170
380 -62 138 -125 279 -141 314 -17 39 -31 59 -34 50z"/>
<path d="M4973 1569 c-17 -35 -70 -152 -118 -259 -48 -107 -123 -272 -165
-367 -43 -94 -81 -181 -85 -192 -6 -19 -4 -19 17 -8 145 78 275 223 329 366
43 115 52 178 46 323 -9 220 29 178 43 -47 l7 -120 1 98 c2 90 -17 218 -38
256 -5 9 -17 -7 -37 -50z"/>
<path d="M5026 1224 c-4 -20 -5 -38 -3 -40 3 -3 8 11 11 32 4 20 5 38 3 40 -3
3 -8 -11 -11 -32z"/>
<path d="M4996 1125 c-9 -26 -7 -32 5 -12 6 10 9 21 6 23 -2 3 -7 -2 -11 -11z"/>
<path d="M4231 1019 c-68 -147 -141 -315 -141 -327 0 -13 111 -32 191 -32 56
0 189 16 196 24 2 2 -8 30 -23 62 -14 32 -32 73 -39 89 -21 47 -70 153 -104
224 l-30 65 -50 -105z"/>
<path d="M3580 1076 c0 -11 30 -66 36 -66 2 0 -3 15 -12 33 -19 36 -24 44 -24
33z"/>
<path d="M4945 1009 c-15 -28 -47 -77 -72 -108 l-44 -56 41 45 c41 43 115 159
107 166 -2 2 -16 -19 -32 -47z"/>
<path d="M4762 791 c-34 -27 -84 -62 -112 -77 -27 -15 -48 -29 -46 -31 6 -6
107 56 155 96 25 20 52 41 60 48 9 7 13 13 10 13 -3 0 -33 -22 -67 -49z"/>
<path d="M3900 2390 c-8 -5 -10 -10 -5 -10 6 0 17 5 25 10 8 5 11 10 5 10 -5
0 -17 -5 -25 -10z"/>
<path d="M3744 2314 c-18 -14 -18 -15 4 -4 12 6 22 13 22 15 0 8 -5 6 -26 -11z"/>
<path d="M3679 2273 c-13 -16 -12 -17 4 -4 9 7 17 15 17 17 0 8 -8 3 -21 -13z"/>
<path d="M3604 2218 l-29 -33 33 29 c30 28 37 36 29 36 -2 0 -16 -15 -33 -32z"/>
<path d="M4960 2216 c0 -2 8 -10 18 -17 15 -13 16 -12 3 4 -13 16 -21 21 -21
13z"/>
<path d="M3515 2138 l-50 -53 53 50 c28 27 52 51 52 52 0 8 -9 -1 -55 -49z"/>
<path d="M5105 2070 c10 -11 20 -20 23 -20 3 0 -3 9 -13 20 -10 11 -20 20 -23
20 -3 0 3 -9 13 -20z"/>
<path d="M3429 2043 l-24 -28 28 24 c15 14 27 26 27 28 0 8 -8 1 -31 -24z"/>
<path d="M3379 1973 c-13 -16 -12 -17 4 -4 9 7 17 15 17 17 0 8 -8 3 -21 -13z"/>
<path d="M3340 1910 c-6 -11 -8 -20 -6 -20 3 0 10 9 16 20 6 11 8 20 6 20 -3
0 -10 -9 -16 -20z"/>
<path d="M910 1901 c0 -11 5 -23 10 -26 6 -3 10 3 10 14 0 11 -4 23 -10 26 -5
3 -10 -3 -10 -14z"/>
<path d="M5331 1614 c0 -11 3 -14 6 -6 3 7 2 16 -1 19 -3 4 -6 -2 -5 -13z"/>
<path d="M950 1546 c0 -22 3 -27 11 -19 8 8 8 16 0 30 -9 16 -10 14 -11 -11z"/>
<path d="M5352 1475 c0 -16 2 -22 5 -12 2 9 2 23 0 30 -3 6 -5 -1 -5 -18z"/>
<path d="M840 1450 c-16 -38 -5 -53 11 -16 14 29 31 36 23 9 -5 -15 -4 -15 6
1 10 15 9 20 -1 27 -22 13 -26 11 -39 -21z"/>
<path d="M1106 1458 c-18 -26 -21 -68 -5 -68 6 0 8 9 4 20 -4 13 0 31 9 45 20
31 13 33 -8 3z"/>
<path d="M1036 1445 c-3 -8 -1 -15 4 -15 6 0 10 7 10 15 0 8 -2 15 -4 15 -2 0
-6 -7 -10 -15z"/>
<path d="M886 1414 c-8 -21 -8 -24 3 -24 5 0 11 9 14 20 6 24 -8 27 -17 4z"/>
<path d="M857 1413 c-4 -3 -7 -11 -7 -17 0 -6 5 -5 12 2 6 6 9 14 7 17 -3 3
-9 2 -12 -2z"/>
<path d="M1418 1353 c6 -2 18 -2 25 0 6 3 1 5 -13 5 -14 0 -19 -2 -12 -5z"/>
<path d="M1416 1301 c-3 -4 -1 -13 3 -20 6 -9 11 -10 15 -2 13 21 27 12 16
-10 -7 -11 -9 -23 -6 -27 9 -8 36 31 33 48 -2 15 -53 25 -61 11z"/>
<path d="M5350 1271 c0 -63 -38 -213 -75 -302 l-32 -76 71 -19 c39 -10 79 -17
89 -15 10 1 25 -3 32 -9 56 -46 201 -115 168 -79 -24 24 -13 31 16 10 30 -21
51 -27 51 -13 0 9 -75 62 -88 62 -5 0 -15 6 -21 14 -18 22 5 30 31 12 12 -9
35 -16 50 -16 l28 0 0 139 0 139 -57 4 c-31 3 -59 10 -61 16 -2 7 -10 12 -18
12 -10 0 -14 14 -14 54 0 32 -5 58 -13 64 -7 6 -42 14 -77 18 -36 4 -68 12
-72 18 -4 6 -8 -9 -8 -33z m145 -371 c4 -6 11 -8 16 -5 5 4 17 1 26 -4 16 -9
15 -10 -8 -11 -14 0 -34 7 -45 15 -10 8 -14 15 -7 15 6 0 15 -5 18 -10z"/>
<path d="M1313 1263 c9 -2 23 -2 30 0 6 3 -1 5 -18 5 -16 0 -22 -2 -12 -5z"/>
<path d="M2290 1249 c0 -5 9 -9 20 -9 11 0 20 2 20 4 0 2 -9 6 -20 9 -11 3
-20 1 -20 -4z"/>
<path d="M1357 1233 c-3 -5 -5 -32 -5 -60 -1 -51 10 -69 22 -38 3 8 1 15 -4
15 -6 0 -10 5 -10 10 0 6 7 10 15 10 10 0 15 11 15 35 0 24 -5 35 -14 35 -8 0
-17 -3 -19 -7z"/>
<path d="M3178 1205 c-3 -16 -4 -42 -1 -56 3 -15 0 -30 -6 -33 -16 -10 -13
-26 3 -20 19 7 24 31 17 89 -6 45 -7 47 -13 20z"/>
<path d="M1259 1159 c-22 -47 -22 -50 -5 -67 17 -16 17 -16 14 3 -2 15 3 21
25 23 15 2 25 7 22 12 -3 4 -14 6 -25 3 -25 -7 -26 11 -2 35 14 14 15 21 6 29
-8 9 -17 -1 -35 -38z"/>
<path d="M92 1179 c-12 -19 -11 -19 8 -9 11 6 20 15 20 20 0 17 -15 11 -28
-11z"/>
<path d="M3015 1166 c-4 -18 -6 -42 -5 -52 1 -11 1 -21 0 -24 -1 -3 -2 -20 -3
-39 -2 -26 3 -36 21 -44 29 -14 76 19 80 56 3 21 -2 26 -27 32 -38 8 -41 13
-43 64 -2 50 -15 54 -23 7z m55 -101 c-7 -9 -15 -13 -17 -11 -7 7 7 26 19 26
6 0 6 -6 -2 -15z"/>
<path d="M2328 1163 c7 -3 16 -2 19 1 4 3 -2 6 -13 5 -11 0 -14 -3 -6 -6z"/>
<path d="M5577 1163 c-10 -9 -9 -23 2 -23 5 0 11 7 15 15 5 15 -5 20 -17 8z"/>
<path d="M0 1127 c0 -27 6 -39 27 -52 24 -16 25 -16 20 -1 -6 14 -3 15 13 6
37 -20 22 16 -20 50 l-40 32 0 -35z"/>
<path d="M2535 1151 c3 -6 -3 -15 -12 -21 -16 -9 -15 -10 7 -8 28 3 42 38 15
38 -9 0 -14 -4 -10 -9z"/>
<path d="M2960 1132 c0 -18 5 -32 10 -32 6 0 8 11 4 28 -10 39 -14 40 -14 4z"/>
<path d="M2608 1110 c-2 -22 0 -40 4 -40 5 0 8 -9 8 -20 0 -11 7 -23 15 -26 8
-4 15 -13 15 -21 0 -8 15 -20 34 -28 18 -8 36 -21 39 -30 7 -16 57 -21 57 -5
0 6 -4 10 -10 10 -5 0 -16 15 -24 33 -12 28 -12 34 1 44 22 17 9 46 -17 38
-24 -7 -78 30 -91 63 -13 34 -26 26 -31 -18z"/>
<path d="M2771 1141 c-17 -11 -7 -41 14 -41 8 0 15 5 15 10 0 6 -5 10 -11 10
-8 0 -8 5 1 15 14 16 3 20 -19 6z"/>
<path d="M2900 1143 c-22 -9 -30 -26 -18 -40 5 -7 8 -29 6 -48 -5 -41 1 -43
26 -9 15 22 16 28 5 35 -10 6 -11 9 -1 9 6 0 12 6 12 14 0 8 5 16 12 18 14 5
1 28 -15 27 -7 0 -19 -3 -27 -6z"/>
<path d="M2818 1103 c7 -3 16 -2 19 1 4 3 -2 6 -13 5 -11 0 -14 -3 -6 -6z"/>
<path d="M3210 1080 c0 -5 5 -10 10 -10 6 0 10 5 10 10 0 6 -4 10 -10 10 -5 0
-10 -4 -10 -10z"/>
<path d="M1230 1069 c0 -5 -4 -8 -9 -4 -5 3 -12 1 -16 -5 -3 -5 -1 -10 6 -10
7 0 4 -7 -7 -15 -17 -13 -15 -13 16 -1 19 8 34 17 33 20 -2 3 -3 11 -3 16 0 6
-4 10 -10 10 -5 0 -10 -5 -10 -11z"/>
<path d="M1304 1065 c-10 -8 -14 -14 -9 -15 15 0 40 18 34 24 -3 3 -14 -1 -25
-9z"/>
<path d="M3175 1045 c0 -19 5 -35 11 -35 6 0 32 -11 59 -25 40 -22 46 -23 40
-8 -4 10 -10 26 -12 36 -3 9 -10 17 -15 17 -6 0 -8 -7 -4 -15 7 -19 -4 -19
-31 0 -11 8 -24 26 -27 40 -9 36 -21 31 -21 -10z"/>
<path d="M0 1040 c0 -11 2 -20 4 -20 2 0 6 9 9 20 3 11 1 20 -4 20 -5 0 -9 -9
-9 -20z"/>
<path d="M1440 1050 c0 -5 5 -10 10 -10 6 0 10 5 10 10 0 6 -4 10 -10 10 -5 0
-10 -4 -10 -10z"/>
<path d="M25 1030 c3 -5 8 -10 11 -10 2 0 4 5 4 10 0 6 -5 10 -11 10 -5 0 -7
-4 -4 -10z"/>
<path d="M65 1020 c3 -5 10 -10 16 -10 5 0 9 5 9 10 0 6 -7 10 -16 10 -8 0
-12 -4 -9 -10z"/>
<path d="M153 1023 c-28 -5 -30 -18 -3 -20 11 -1 20 2 20 7 0 5 7 7 15 4 8 -4
15 -1 15 5 0 11 -7 12 -47 4z"/>
<path d="M1416 1013 c-7 -7 13 -33 25 -33 5 0 9 6 9 14 0 15 -24 28 -34 19z"/>
<path d="M1370 989 c0 -11 5 -17 10 -14 6 3 10 13 10 21 0 8 -4 14 -10 14 -5
0 -10 -9 -10 -21z"/>
<path d="M0 981 c0 -5 7 -12 16 -15 14 -5 15 -4 4 9 -14 17 -20 19 -20 6z"/>
<path d="M3172 973 c2 -11 14 -19 31 -21 29 -4 35 6 15 26 -19 19 -50 15 -46
-5z"/>
<path d="M2550 955 c0 -10 9 -14 26 -13 23 2 24 4 8 15 -23 17 -34 16 -34 -2z"/>
<path d="M1475 950 c-3 -5 -1 -10 4 -10 6 0 11 5 11 10 0 6 -2 10 -4 10 -3 0
-8 -4 -11 -10z"/>
<path d="M1580 940 c17 -11 57 -14 46 -3 -4 4 -19 9 -34 10 -21 3 -24 1 -12
-7z"/>
<path d="M1896 904 c-5 -14 -4 -15 9 -4 17 14 19 20 6 20 -5 0 -12 -7 -15 -16z"/>
<path d="M3135 909 c-9 -14 -2 -20 14 -10 8 6 9 11 3 15 -6 3 -14 1 -17 -5z"/>
<path d="M3176 911 c-4 -5 -2 -12 3 -15 5 -4 12 -2 15 3 4 5 2 12 -3 15 -5 4
-12 2 -15 -3z"/>
<path d="M75 900 c-7 -12 22 -12 50 0 17 7 15 9 -12 9 -17 1 -35 -3 -38 -9z"/>
<path d="M1150 899 c0 -5 5 -7 10 -4 6 3 10 8 10 11 0 2 -4 4 -10 4 -5 0 -10
-5 -10 -11z"/>
<path d="M1230 896 c0 -8 -8 -17 -17 -19 -17 -4 -17 -5 0 -6 17 -1 47 20 47
33 0 3 -7 6 -15 6 -8 0 -15 -6 -15 -14z"/>
<path d="M1323 885 c-9 -20 -8 -25 3 -25 8 0 14 7 14 15 0 8 5 15 10 15 6 0
10 5 10 10 0 20 -25 9 -37 -15z"/>
<path d="M1930 899 c0 -5 9 -9 20 -9 11 0 20 2 20 4 0 2 -9 6 -20 9 -11 3 -20
1 -20 -4z"/>
<path d="M1505 890 c3 -5 8 -10 11 -10 2 0 4 5 4 10 0 6 -5 10 -11 10 -5 0 -7
-4 -4 -10z"/>
<path d="M1990 890 c0 -5 5 -10 11 -10 5 0 7 5 4 10 -3 6 -8 10 -11 10 -2 0
-4 -4 -4 -10z"/>
<path d="M2047 889 c7 -7 15 -10 18 -7 3 3 -2 9 -12 12 -14 6 -15 5 -6 -5z"/>
<path d="M1830 880 c0 -5 5 -10 10 -10 6 0 10 5 10 10 0 6 -4 10 -10 10 -5 0
-10 -4 -10 -10z"/>
<path d="M2490 880 c0 -5 5 -10 10 -10 6 0 10 5 10 10 0 6 -4 10 -10 10 -5 0
-10 -4 -10 -10z"/>
<path d="M2680 874 c0 -14 3 -14 15 -4 8 7 15 14 15 16 0 2 -7 4 -15 4 -8 0
-15 -7 -15 -16z"/>
<path d="M2770 881 c-23 -4 -31 -9 -22 -14 6 -5 16 -6 21 -2 6 3 14 -3 20 -12
10 -17 10 -17 11 1 0 15 3 16 15 6 16 -14 18 -10 9 14 -3 9 -9 15 -13 15 -3
-1 -22 -4 -41 -8z"/>
<path d="M1480 870 c0 -5 5 -10 11 -10 5 0 7 5 4 10 -3 6 -8 10 -11 10 -2 0
-4 -4 -4 -10z"/>
<path d="M5226 863 c-6 -14 -5 -15 5 -6 7 7 10 15 7 18 -3 3 -9 -2 -12 -12z"/>
<path d="M2183 863 c-18 -7 -16 -23 2 -23 8 0 15 7 15 15 0 8 -1 15 -2 14 -2
0 -9 -3 -15 -6z"/>
<path d="M1440 850 c0 -5 5 -10 10 -10 6 0 10 5 10 10 0 6 -4 10 -10 10 -5 0
-10 -4 -10 -10z"/>
<path d="M2135 850 c3 -5 8 -10 11 -10 2 0 4 5 4 10 0 6 -5 10 -11 10 -5 0 -7
-4 -4 -10z"/>
<path d="M2470 850 c0 -5 5 -10 11 -10 5 0 7 5 4 10 -3 6 -8 10 -11 10 -2 0
-4 -4 -4 -10z"/>
<path d="M2218 843 c7 -3 16 -2 19 1 4 3 -2 6 -13 5 -11 0 -14 -3 -6 -6z"/>
<path d="M1188 833 c7 -3 16 -2 19 1 4 3 -2 6 -13 5 -11 0 -14 -3 -6 -6z"/>
<path d="M5645 810 c3 -5 10 -10 16 -10 5 0 9 5 9 10 0 6 -7 10 -16 10 -8 0
-12 -4 -9 -10z"/>
<path d="M5330 800 c20 -13 33 -13 25 0 -3 6 -14 10 -23 10 -15 0 -15 -2 -2
-10z"/>
<path d="M5435 800 c-3 -5 -1 -10 4 -10 6 0 11 5 11 10 0 6 -2 10 -4 10 -3 0
-8 -4 -11 -10z"/>
<path d="M5164 761 c-13 -19 -14 -23 -3 -14 12 10 18 10 28 0 10 -9 15 -8 27
7 19 27 18 31 -11 32 -16 1 -30 -7 -41 -25z"/>
<path d="M5250 780 c1 -20 24 -31 72 -36 44 -5 56 -2 61 10 4 9 13 16 22 16 8
0 15 5 15 10 0 15 -16 12 -34 -5 -16 -17 -42 -20 -50 -6 -6 10 -86 20 -86 11z"/>
<path d="M1120 770 c0 -5 5 -10 10 -10 6 0 10 5 10 10 0 6 -4 10 -10 10 -5 0
-10 -4 -10 -10z"/>
<path d="M5480 773 c0 -5 11 -13 25 -20 20 -9 25 -8 25 2 0 7 -7 16 -16 19
-21 8 -34 8 -34 -1z"/>
<path d="M260 719 c0 -5 5 -7 10 -4 6 3 10 8 10 11 0 2 -4 4 -10 4 -5 0 -10
-5 -10 -11z"/>
<path d="M978 723 c6 -2 18 -2 25 0 6 3 1 5 -13 5 -14 0 -19 -2 -12 -5z"/>
<path d="M1750 719 c0 -5 5 -7 10 -4 6 3 10 8 10 11 0 2 -4 4 -10 4 -5 0 -10
-5 -10 -11z"/>
<path d="M1310 710 c0 -5 5 -10 11 -10 5 0 7 5 4 10 -3 6 -8 10 -11 10 -2 0
-4 -4 -4 -10z"/>
<path d="M2605 710 c3 -5 8 -10 11 -10 2 0 4 5 4 10 0 6 -5 10 -11 10 -5 0 -7
-4 -4 -10z"/>
<path d="M2635 710 c3 -5 10 -10 16 -10 5 0 9 5 9 10 0 6 -7 10 -16 10 -8 0
-12 -4 -9 -10z"/>
<path d="M1397 698 c2 -5 15 -8 28 -8 13 0 30 -7 39 -15 8 -8 17 -15 20 -15 3
0 3 7 0 15 -4 8 -1 15 5 15 6 0 11 -3 11 -7 0 -5 21 -8 47 -9 41 -1 44 0 28
13 -11 7 -26 13 -34 13 -9 1 -46 2 -83 3 -36 1 -64 -1 -61 -5z"/>
<path d="M1677 699 c7 -7 15 -10 18 -7 3 3 -2 9 -12 12 -14 6 -15 5 -6 -5z"/>
<path d="M1840 701 c0 -9 33 -21 66 -25 14 -1 20 3 17 12 -3 7 -12 11 -19 8
-8 -3 -25 -1 -39 4 -14 5 -25 6 -25 1z"/>
<path d="M5112 698 c-14 -14 -16 -28 -3 -28 5 0 11 9 14 20 6 23 5 24 -11 8z"/>
<path d="M860 696 c0 -2 7 -7 16 -10 8 -3 12 -2 9 4 -6 10 -25 14 -25 6z"/>
<path d="M910 696 c0 -2 7 -6 15 -10 8 -3 15 -1 15 4 0 6 -7 10 -15 10 -8 0
-15 -2 -15 -4z"/>
<path d="M1013 693 c9 -2 23 -2 30 0 6 3 -1 5 -18 5 -16 0 -22 -2 -12 -5z"/>
<path d="M1070 680 c0 -5 5 -10 10 -10 6 0 10 5 10 10 0 6 -4 10 -10 10 -5 0
-10 -4 -10 -10z"/>
<path d="M1118 683 c6 -2 18 -2 25 0 6 3 1 5 -13 5 -14 0 -19 -2 -12 -5z"/>
<path d="M1721 667 c-6 -8 -7 -17 -3 -22 4 -4 -8 -6 -25 -3 -32 4 -46 -6 -21
-14 27 -9 56 5 61 28 5 28 4 29 -12 11z"/>
<path d="M5355 670 c-3 -5 1 -10 10 -10 9 0 13 5 10 10 -3 6 -8 10 -10 10 -2
0 -7 -4 -10 -10z"/>
<path d="M5490 670 c0 -5 5 -10 10 -10 6 0 10 5 10 10 0 6 -4 10 -10 10 -5 0
-10 -4 -10 -10z"/>
<path d="M1790 660 c0 -5 5 -10 11 -10 5 0 7 5 4 10 -3 6 -8 10 -11 10 -2 0
-4 -4 -4 -10z"/>
<path d="M5545 660 c4 -6 11 -8 16 -5 14 9 11 15 -7 15 -8 0 -12 -5 -9 -10z"/>
<path d="M5035 608 l-50 -53 53 50 c48 46 57 55 49 55 -1 0 -25 -24 -52 -52z"/>
<path d="M1378 643 c7 -3 16 -2 19 1 4 3 -2 6 -13 5 -11 0 -14 -3 -6 -6z"/>
<path d="M1436 638 c3 -4 11 -5 19 -1 21 7 19 12 -4 10 -11 0 -18 -5 -15 -9z"/>
<path d="M1502 645 c3 -3 17 -7 30 -9 13 -1 29 -6 36 -10 6 -4 20 -2 31 4 11
5 28 7 38 3 10 -3 15 -3 11 2 -4 4 -40 9 -80 12 -39 2 -69 1 -66 -2z"/>
<path d="M97 629 c7 -7 15 -10 18 -7 3 3 -2 9 -12 12 -14 6 -15 5 -6 -5z"/>
<path d="M5310 610 c0 -5 5 -10 11 -10 5 0 7 5 4 10 -3 6 -8 10 -11 10 -2 0
-4 -4 -4 -10z"/>
<path d="M515 600 c-3 -5 -2 -10 4 -10 5 0 13 5 16 10 3 6 2 10 -4 10 -5 0
-13 -4 -16 -10z"/>
<path d="M2118 603 c6 -2 18 -2 25 0 6 3 1 5 -13 5 -14 0 -19 -2 -12 -5z"/>
<path d="M635 580 c3 -5 8 -10 11 -10 2 0 4 5 4 10 0 6 -5 10 -11 10 -5 0 -7
-4 -4 -10z"/>
<path d="M235 570 c28 -12 37 -12 30 0 -3 6 -16 10 -28 9 -21 0 -21 -1 -2 -9z"/>
<path d="M2330 569 c0 -5 5 -7 10 -4 6 3 10 8 10 11 0 2 -4 4 -10 4 -5 0 -10
-5 -10 -11z"/>
<path d="M2370 569 c0 -5 9 -9 20 -9 11 0 20 2 20 4 0 2 -9 6 -20 9 -11 3 -20
1 -20 -4z"/>
<path d="M2438 563 c7 -3 16 -2 19 1 4 3 -2 6 -13 5 -11 0 -14 -3 -6 -6z"/>
<path d="M2475 560 c-8 -13 5 -13 25 0 13 8 13 10 -2 10 -9 0 -20 -4 -23 -10z"/>
<path d="M2785 560 c-3 -5 -1 -10 4 -10 6 0 11 5 11 10 0 6 -2 10 -4 10 -3 0
-8 -4 -11 -10z"/>
<path d="M100 552 c0 -14 11 -21 26 -15 8 3 11 9 8 14 -7 11 -34 12 -34 1z"/>
<path d="M960 550 c0 -13 11 -13 30 0 12 8 11 10 -7 10 -13 0 -23 -4 -23 -10z"/>
<path d="M1225 550 c3 -5 8 -10 11 -10 2 0 4 5 4 10 0 6 -5 10 -11 10 -5 0 -7
-4 -4 -10z"/>
<path d="M1436 545 c4 -8 8 -15 10 -15 2 0 4 7 4 15 0 8 -4 15 -10 15 -5 0 -7
-7 -4 -15z"/>
<path d="M1775 550 c3 -5 8 -10 11 -10 2 0 4 5 4 10 0 6 -5 10 -11 10 -5 0 -7
-4 -4 -10z"/>
<path d="M2550 555 c0 -8 29 -12 39 -5 9 5 4 8 -13 8 -14 0 -26 -2 -26 -3z"/>
<path d="M2630 549 c0 -5 5 -7 10 -4 6 3 10 8 10 11 0 2 -4 4 -10 4 -5 0 -10
-5 -10 -11z"/>
<path d="M5030 556 c0 -9 30 -14 35 -6 4 6 -3 10 -14 10 -12 0 -21 -2 -21 -4z"/>
<path d="M2208 543 c7 -3 16 -2 19 1 4 3 -2 6 -13 5 -11 0 -14 -3 -6 -6z"/>
<path d="M5210 540 c-8 -5 -29 -7 -47 -5 -18 2 -35 0 -38 -5 -3 -5 -22 -6 -42
-3 -26 4 -34 3 -29 -5 4 -7 1 -12 -6 -13 -117 -6 -143 -10 -171 -28 l-32 -20
58 1 c32 1 60 5 63 10 3 4 10 8 15 8 6 0 7 -4 4 -10 -4 -6 7 -8 27 -4 69 11
83 10 82 -8 -2 -19 12 -25 18 -8 2 6 19 13 37 15 19 3 39 10 43 17 6 8 7 5 3
-9 -4 -14 -2 -23 4 -23 6 0 11 7 11 15 0 8 4 15 9 15 5 0 16 3 24 6 11 4 17
-3 20 -23 4 -27 5 -27 12 -5 4 12 15 23 24 24 9 0 28 2 42 3 14 1 38 5 53 9
18 4 25 3 21 -3 -7 -12 79 -4 106 10 9 5 20 5 24 1 3 -4 27 -8 51 -8 35 -1 42
1 34 12 -11 12 -33 15 -102 15 -16 0 -28 4 -28 9 0 16 -37 21 -66 9 -32 -13
-64 -12 -78 2 -11 10 -50 12 -59 3 -4 -4 -23 -8 -44 -10 -27 -2 -34 -1 -23 6
8 5 11 10 5 10 -5 0 -17 -5 -25 -10z m140 -10 c0 -5 -9 -10 -19 -10 -11 0 -21
-6 -24 -12 -2 -7 -8 -10 -12 -6 -10 10 17 37 38 38 9 0 17 -4 17 -10z m130
-20 c0 -5 -4 -10 -10 -10 -5 0 -10 5 -10 10 0 6 5 10 10 10 6 0 10 -4 10 -10z
m-300 -10 c0 -5 -11 -10 -24 -10 -14 0 -28 5 -31 10 -4 6 7 10 24 10 17 0 31
-4 31 -10z"/>
<path d="M1795 530 c-3 -5 -1 -10 4 -10 6 0 11 5 11 10 0 6 -2 10 -4 10 -3 0
-8 -4 -11 -10z"/>
<path d="M1820 530 c0 -5 5 -10 10 -10 6 0 10 5 10 10 0 6 -4 10 -10 10 -5 0
-10 -4 -10 -10z"/>
<path d="M1938 533 c7 -3 16 -2 19 1 4 3 -2 6 -13 5 -11 0 -14 -3 -6 -6z"/>
<path d="M2975 530 c-18 -8 -17 -9 8 -9 15 -1 27 4 27 9 0 12 -8 12 -35 0z"/>
<path d="M5620 530 c0 -5 5 -10 10 -10 6 0 10 5 10 10 0 6 -4 10 -10 10 -5 0
-10 -4 -10 -10z"/>
<path d="M664 519 c-3 -5 -1 -9 5 -9 5 0 16 -3 25 -6 9 -3 16 -2 16 4 0 13
-38 23 -46 11z"/>
<path d="M945 521 c-3 -6 -12 -8 -20 -4 -9 3 -15 -1 -15 -11 0 -9 7 -16 15
-16 8 0 15 4 15 9 0 5 8 11 18 13 12 2 13 6 5 11 -6 4 -14 3 -18 -2z"/>
<path d="M1030 520 c0 -5 5 -10 11 -10 5 0 7 5 4 10 -3 6 -8 10 -11 10 -2 0
-4 -4 -4 -10z"/>
<path d="M3040 520 c0 -5 10 -10 23 -10 18 0 19 2 7 10 -19 13 -30 13 -30 0z"/>
<path d="M3100 519 c-12 -9 -11 -10 7 -6 13 3 25 1 28 -3 6 -10 45 -1 45 11 0
13 -62 11 -80 -2z"/>
<path d="M3200 514 c0 -7 8 -10 20 -7 11 3 20 8 20 12 0 4 -9 7 -20 7 -11 0
-20 -6 -20 -12z"/>
<path d="M1208 513 c7 -3 16 -2 19 1 4 3 -2 6 -13 5 -11 0 -14 -3 -6 -6z"/>
<path d="M1995 510 c3 -5 10 -10 16 -10 5 0 9 5 9 10 0 6 -7 10 -16 10 -8 0
-12 -4 -9 -10z"/>
<path d="M2095 510 c-3 -5 1 -10 9 -10 9 0 16 5 16 10 0 6 -4 10 -9 10 -6 0
-13 -4 -16 -10z"/>
<path d="M2158 513 c6 -2 18 -2 25 0 6 3 1 5 -13 5 -14 0 -19 -2 -12 -5z"/>
<path d="M3300 510 c0 -5 14 -10 30 -10 17 0 30 5 30 10 0 6 -13 10 -30 10
-16 0 -30 -4 -30 -10z"/>
<path d="M3385 510 c-3 -5 1 -10 10 -10 9 0 13 5 10 10 -3 6 -8 10 -10 10 -2
0 -7 -4 -10 -10z"/>
<path d="M3420 510 c0 -5 9 -10 20 -10 11 0 20 5 20 10 0 6 -9 10 -20 10 -11
0 -20 -4 -20 -10z"/>
<path d="M3626 505 c-3 -9 0 -15 9 -15 9 0 12 6 9 15 -4 8 -7 15 -9 15 -2 0
-5 -7 -9 -15z"/>
<path d="M16 501 c-3 -5 7 -11 22 -14 32 -6 42 0 22 13 -19 12 -37 13 -44 1z"/>
<path d="M1263 492 c1 -13 7 -18 19 -14 11 2 17 5 16 6 -2 1 -11 7 -20 15 -15
11 -17 10 -15 -7z"/>
<path d="M3595 500 c-3 -5 -1 -10 4 -10 6 0 11 5 11 10 0 6 -2 10 -4 10 -3 0
-8 -4 -11 -10z"/>
<path d="M327 494 c-10 -11 3 -24 24 -24 23 0 25 15 3 24 -19 7 -19 7 -27 0z"/>
<path d="M3558 493 c7 -3 16 -2 19 1 4 3 -2 6 -13 5 -11 0 -14 -3 -6 -6z"/>
<path d="M860 481 c0 -13 48 -20 79 -12 24 7 23 8 -14 14 -53 9 -65 9 -65 -2z"/>
<path d="M1186 475 c-16 -12 -17 -15 -4 -15 9 0 18 7 22 15 7 18 6 18 -18 0z"/>
<path d="M1526 476 c3 -9 11 -16 16 -16 13 0 5 23 -10 28 -7 2 -10 -2 -6 -12z"/>
<path d="M730 470 c0 -5 14 -10 31 -10 17 0 28 4 24 10 -3 6 -17 10 -31 10
-13 0 -24 -4 -24 -10z"/>
<path d="M1073 473 c9 -2 15 -8 12 -13 -3 -4 2 -10 10 -14 8 -3 15 -2 15 2 0
14 -24 32 -39 31 -12 -1 -12 -2 2 -6z"/>
<path d="M1226 472 c-3 -6 -1 -14 5 -17 15 -10 25 3 12 16 -7 7 -13 7 -17 1z"/>
<path d="M1480 470 c-19 -12 -7 -22 21 -18 19 2 20 5 8 15 -9 7 -20 9 -29 3z"/>
<path d="M3690 473 c0 -15 19 -37 26 -31 3 4 -1 14 -10 23 -9 9 -16 13 -16 8z"/>
<path d="M5360 470 c0 -5 5 -10 10 -10 6 0 10 5 10 10 0 6 -4 10 -10 10 -5 0
-10 -4 -10 -10z"/>
<path d="M9 467 c-7 -22 -7 -47 1 -47 6 0 10 4 10 9 0 5 10 11 22 13 21 3 21
4 -5 15 -15 7 -27 12 -28 10z"/>
<path d="M220 462 c0 -5 -10 -14 -22 -20 -23 -10 -23 -11 5 -11 28 -1 37 -15
15 -24 -10 -4 -10 -6 -1 -6 6 -1 15 4 18 9 3 6 15 10 26 10 10 0 19 5 19 11 0
6 -9 9 -20 6 -11 -3 -23 -1 -26 4 -3 5 2 9 10 9 9 0 16 5 16 10 0 6 -9 10 -20
10 -11 0 -20 -4 -20 -8z"/>
<path d="M1886 461 c9 -9 47 -15 74 -11 19 3 -27 18 -59 19 -16 1 -21 -3 -15
-8z"/>
<path d="M5540 460 c0 -5 5 -10 10 -10 6 0 10 5 10 10 0 6 -4 10 -10 10 -5 0
-10 -4 -10 -10z"/>
<path d="M490 440 c-9 -6 -10 -10 -3 -10 6 0 15 5 18 10 8 12 4 12 -15 0z"/>
<path d="M2427 444 c-12 -12 -8 -24 7 -24 8 0 16 -6 19 -12 2 -7 8 -9 13 -5 4
4 -1 17 -12 28 -11 11 -23 16 -27 13z"/>
<path d="M328 433 c7 -3 16 -2 19 1 4 3 -2 6 -13 5 -11 0 -14 -3 -6 -6z"/>
<path d="M940 430 c-12 -8 -9 -10 13 -10 16 0 26 4 22 10 -8 12 -16 12 -35 0z"/>
<path d="M2342 431 c-8 -4 -29 -7 -49 -5 -39 3 -34 -10 8 -20 18 -4 33 0 49
14 23 20 17 27 -8 11z"/>
<path d="M2385 430 c-3 -5 -1 -10 4 -10 6 0 11 5 11 10 0 6 -2 10 -4 10 -3 0
-8 -4 -11 -10z"/>
<path d="M2486 424 c-9 -23 -8 -24 19 -24 30 0 32 11 6 27 -16 10 -20 9 -25
-3z"/>
<path d="M455 420 c3 -5 8 -10 11 -10 2 0 4 5 4 10 0 6 -5 10 -11 10 -5 0 -7
-4 -4 -10z"/>
<path d="M1270 420 c0 -5 7 -10 16 -10 8 0 12 5 9 10 -3 6 -10 10 -16 10 -5 0
-9 -4 -9 -10z"/>
<path d="M2200 421 c0 -6 4 -13 10 -16 6 -3 7 1 4 9 -7 18 -14 21 -14 7z"/>
<path d="M2540 416 c0 -9 11 -14 34 -13 28 1 31 3 20 14 -17 17 -54 17 -54 -1z"/>
<path d="M2726 422 c-8 -14 34 -23 53 -12 14 8 14 9 -1 10 -9 0 -23 3 -31 6
-8 3 -18 1 -21 -4z"/>
<path d="M5610 420 c0 -5 5 -10 11 -10 5 0 7 5 4 10 -3 6 -8 10 -11 10 -2 0
-4 -4 -4 -10z"/>
<path d="M350 410 c-8 -5 1 -8 24 -8 20 0 43 -5 50 -11 14 -12 62 -6 71 9 3 5
-9 5 -27 0 -21 -7 -36 -6 -45 2 -18 14 -56 19 -73 8z"/>
<path d="M758 413 c6 -2 12 -9 12 -15 0 -6 -7 -8 -15 -4 -8 3 -15 1 -15 -4 0
-6 14 -10 30 -10 17 0 30 5 30 11 0 6 9 8 20 4 12 -4 20 -2 20 6 0 7 -10 9
-30 6 -16 -4 -32 -2 -35 3 -3 6 -12 10 -18 9 -9 0 -9 -2 1 -6z"/>
<path d="M1097 408 c-14 -8 -16 -13 -6 -24 15 -18 33 -18 48 0 17 20 -17 39
-42 24z"/>
<path d="M2105 410 c4 -6 11 -8 16 -5 14 9 11 15 -7 15 -8 0 -12 -5 -9 -10z"/>
<path d="M2818 408 c14 -7 26 -8 32 -2 5 5 -4 10 -23 11 -30 1 -31 1 -9 -9z"/>
<path d="M3515 410 c-3 -5 -1 -10 4 -10 6 0 11 5 11 10 0 6 -2 10 -4 10 -3 0
-8 -4 -11 -10z"/>
<path d="M3615 410 c-3 -5 -1 -10 4 -10 6 0 11 5 11 10 0 6 -2 10 -4 10 -3 0
-8 -4 -11 -10z"/>
<path d="M5510 410 c0 -5 7 -10 15 -10 8 0 15 5 15 10 0 6 -7 10 -15 10 -8 0
-15 -4 -15 -10z"/>
<path d="M159 390 c12 -11 27 -17 33 -14 14 9 -12 34 -36 34 -21 -1 -21 -1 3
-20z"/>
<path d="M4990 400 c0 -5 5 -10 11 -10 5 0 7 5 4 10 -3 6 -8 10 -11 10 -2 0
-4 -4 -4 -10z"/>
<path d="M5115 400 c3 -5 10 -10 16 -10 5 0 9 5 9 10 0 6 -7 10 -16 10 -8 0
-12 -4 -9 -10z"/>
<path d="M5197 391 c-3 -13 -1 -18 9 -14 7 2 10 11 7 19 -7 19 -10 18 -16 -5z"/>
<path d="M5410 400 c0 -5 7 -10 16 -10 8 0 12 5 9 10 -3 6 -10 10 -16 10 -5 0
-9 -4 -9 -10z"/>
<path d="M5655 400 c-3 -5 -1 -10 4 -10 6 0 11 5 11 10 0 6 -2 10 -4 10 -3 0
-8 -4 -11 -10z"/>
<path d="M0 390 c0 -5 4 -10 9 -10 6 0 13 5 16 10 3 6 -1 10 -9 10 -9 0 -16
-4 -16 -10z"/>
<path d="M270 385 c6 -7 20 -15 31 -18 16 -4 18 -3 9 8 -6 7 -20 15 -31 18
-16 4 -18 3 -9 -8z"/>
<path d="M529 387 c6 -8 9 -16 6 -19 -3 -2 9 -3 25 0 17 2 30 9 30 14 0 6 -7
8 -15 5 -8 -4 -17 -2 -20 3 -4 6 -13 10 -22 10 -12 0 -13 -3 -4 -13z"/>
<path d="M635 390 c-3 -6 1 -7 9 -4 18 7 21 14 7 14 -6 0 -13 -4 -16 -10z"/>
<path d="M870 390 c0 -5 5 -10 11 -10 5 0 7 5 4 10 -3 6 -8 10 -11 10 -2 0 -4
-4 -4 -10z"/>
<path d="M2683 389 c14 -8 22 -8 30 0 8 8 3 11 -18 11 -26 -1 -28 -2 -12 -11z"/>
<path d="M992 376 c-23 -12 -22 -13 12 -12 22 1 36 6 36 14 0 15 -18 15 -48
-2z"/>
<path d="M1506 381 c-4 -5 -2 -12 3 -15 5 -4 12 -2 15 3 4 5 2 12 -3 15 -5 4
-12 2 -15 -3z"/>
<path d="M5270 375 c-7 -9 -8 -15 -2 -15 5 0 12 7 16 15 3 8 4 15 2 15 -2 0
-9 -7 -16 -15z"/>
<path d="M378 368 c5 -5 16 -8 23 -6 8 3 3 7 -10 11 -17 4 -21 3 -13 -5z"/>
<path d="M5405 370 c3 -5 11 -10 16 -10 6 0 7 5 4 10 -3 6 -11 10 -16 10 -6 0
-7 -4 -4 -10z"/>
<path d="M815 360 c-3 -5 -1 -10 4 -10 6 0 11 5 11 10 0 6 -2 10 -4 10 -3 0
-8 -4 -11 -10z"/>
<path d="M4835 360 c-3 -5 -2 -10 4 -10 5 0 13 5 16 10 3 6 2 10 -4 10 -5 0
-13 -4 -16 -10z"/>
<path d="M117 349 c7 -7 15 -10 18 -7 3 3 -2 9 -12 12 -14 6 -15 5 -6 -5z"/>
<path d="M495 350 c3 -5 11 -10 16 -10 6 0 7 5 4 10 -3 6 -11 10 -16 10 -6 0
-7 -4 -4 -10z"/>
<path d="M940 349 c0 -5 5 -7 10 -4 6 3 10 8 10 11 0 2 -4 4 -10 4 -5 0 -10
-5 -10 -11z"/>
<path d="M988 340 l-23 -19 48 -1 c26 0 47 2 47 4 0 2 -11 11 -24 20 -23 14
-26 14 -48 -4z"/>
<path d="M3540 350 c0 -5 7 -10 15 -10 8 0 15 5 15 10 0 6 -7 10 -15 10 -8 0
-15 -4 -15 -10z"/>
<path d="M4635 350 c-3 -5 3 -10 15 -10 12 0 18 -4 15 -10 -3 -5 -1 -10 4 -10
17 0 13 27 -5 34 -21 8 -22 8 -29 -4z"/>
<path d="M336 335 c4 -8 16 -15 28 -14 11 0 15 3 8 6 -6 2 -10 9 -6 14 3 5 -4
9 -15 9 -14 0 -19 -5 -15 -15z"/>
<path d="M633 342 c-8 -5 -8 -10 1 -17 13 -12 31 -13 41 -3 10 9 -29 28 -42
20z"/>
<path d="M1530 341 c0 -9 23 -21 41 -21 4 0 6 7 3 15 -7 16 -44 21 -44 6z"/>
<path d="M1630 340 c0 -5 7 -10 16 -10 8 0 12 5 9 10 -3 6 -10 10 -16 10 -5 0
-9 -4 -9 -10z"/>
<path d="M5340 339 c0 -5 5 -7 10 -4 6 3 10 8 10 11 0 2 -4 4 -10 4 -5 0 -10
-5 -10 -11z"/>
<path d="M55 331 c-8 -14 12 -23 36 -16 16 6 20 4 14 -6 -6 -11 -5 -12 5 -2
10 9 17 10 27 2 7 -7 13 -7 13 -2 0 23 -83 43 -95 24z"/>
<path d="M178 333 c7 -3 16 -2 19 1 4 3 -2 6 -13 5 -11 0 -14 -3 -6 -6z"/>
<path d="M1263 325 c0 -8 4 -12 9 -9 4 3 8 9 8 15 0 5 -4 9 -8 9 -5 0 -9 -7
-9 -15z"/>
<path d="M3588 333 c6 -2 18 -2 25 0 6 3 1 5 -13 5 -14 0 -19 -2 -12 -5z"/>
<path d="M4825 330 c4 -6 11 -8 16 -5 14 9 11 15 -7 15 -8 0 -12 -5 -9 -10z"/>
<path d="M5448 333 c7 -3 16 -2 19 1 4 3 -2 6 -13 5 -11 0 -14 -3 -6 -6z"/>
<path d="M285 320 c3 -5 8 -10 11 -10 2 0 4 5 4 10 0 6 -5 10 -11 10 -5 0 -7
-4 -4 -10z"/>
<path d="M534 314 c3 -9 6 -18 6 -20 0 -2 10 -4 23 -3 21 0 21 1 2 9 -13 6
-15 9 -5 9 13 1 13 2 0 11 -22 14 -33 12 -26 -6z"/>
<path d="M716 317 c3 -8 18 -11 45 -9 28 3 37 7 28 13 -22 14 -79 11 -73 -4z"/>
<path d="M1346 322 c-11 -19 10 -30 44 -23 34 7 34 8 13 19 -25 14 -50 16 -57
4z"/>
<path d="M1815 320 c-18 -8 -17 -9 8 -9 16 -1 26 3 22 9 -3 6 -7 10 -8 9 -1 0
-11 -4 -22 -9z"/>
<path d="M3245 320 c3 -5 8 -10 11 -10 2 0 4 5 4 10 0 6 -5 10 -11 10 -5 0 -7
-4 -4 -10z"/>
<path d="M3940 320 c0 -5 5 -10 10 -10 6 0 10 5 10 10 0 6 -4 10 -10 10 -5 0
-10 -4 -10 -10z"/>
<path d="M4720 315 c0 -8 6 -12 14 -9 7 3 16 -2 19 -10 7 -17 37 -22 37 -7 0
12 -40 41 -57 41 -7 0 -13 -7 -13 -15z"/>
<path d="M5593 305 c-22 -26 -15 -45 9 -21 8 7 25 17 38 21 24 8 24 8 5 16
-28 11 -28 11 -52 -16z"/>
<path d="M3707 306 c-4 -10 -1 -13 8 -9 8 3 12 9 9 14 -7 12 -11 11 -17 -5z"/>
<path d="M3855 310 c-3 -5 1 -10 9 -10 9 0 16 5 16 10 0 6 -4 10 -9 10 -6 0
-13 -4 -16 -10z"/>
<path d="M4510 310 c-12 -8 -12 -10 3 -16 21 -8 35 2 21 16 -5 5 -15 6 -24 0z"/>
<path d="M4870 310 c-12 -8 -11 -10 8 -10 12 0 22 5 22 10 0 13 -11 13 -30 0z"/>
<path d="M5135 310 c-3 -5 -2 -10 4 -10 5 0 13 5 16 10 3 6 2 10 -4 10 -5 0
-13 -4 -16 -10z"/>
<path d="M5285 309 c-23 -11 -50 -48 -41 -56 6 -6 76 49 76 60 0 9 -10 8 -35
-4z"/>
<path d="M30 300 c0 -5 5 -10 10 -10 6 0 10 5 10 10 0 6 -4 10 -10 10 -5 0
-10 -4 -10 -10z"/>
<path d="M310 300 c0 -5 7 -10 15 -10 8 0 15 5 15 10 0 6 -7 10 -15 10 -8 0
-15 -4 -15 -10z"/>
<path d="M1918 303 c7 -3 16 -2 19 1 4 3 -2 6 -13 5 -11 0 -14 -3 -6 -6z"/>
<path d="M3771 296 c-9 -10 -8 -15 3 -19 8 -3 16 2 19 14 6 22 -6 25 -22 5z"/>
<path d="M3916 302 c-2 -4 4 -14 15 -20 19 -12 19 -11 9 8 -12 22 -16 24 -24
12z"/>
<path d="M4083 303 c4 -3 -1 -15 -10 -26 -17 -19 -17 -19 2 -15 11 2 25 -3 31
-11 7 -9 18 -12 30 -7 18 8 18 9 -3 18 -12 6 -23 19 -26 29 -3 11 -11 19 -18
19 -7 0 -9 -3 -6 -7z"/>
<path d="M4410 295 c-8 -9 -8 -15 -2 -15 6 0 17 -3 25 -6 12 -4 14 0 10 15 -6
25 -16 27 -33 6z"/>
<path d="M4458 303 c6 -2 18 -2 25 0 6 3 1 5 -13 5 -14 0 -19 -2 -12 -5z"/>
<path d="M4965 300 c-4 -6 -16 -10 -28 -8 -14 2 -22 -2 -22 -12 0 -9 7 -14 20
-12 23 4 52 29 43 37 -3 4 -9 1 -13 -5z"/>
<path d="M5487 281 c-15 -26 -15 -29 -1 -35 28 -11 38 -6 18 9 -10 8 -14 15
-8 15 14 0 26 27 15 34 -4 3 -15 -8 -24 -23z"/>
<path d="M1540 290 c0 -5 5 -10 11 -10 5 0 7 5 4 10 -3 6 -8 10 -11 10 -2 0
-4 -4 -4 -10z"/>
<path d="M3820 290 c0 -5 5 -10 11 -10 5 0 7 5 4 10 -3 6 -8 10 -11 10 -2 0
-4 -4 -4 -10z"/>
<path d="M4260 285 c-14 -16 -3 -20 19 -6 8 5 9 11 3 15 -5 3 -15 -1 -22 -9z"/>
<path d="M65 280 c-11 -4 -30 -6 -43 -3 -30 7 -28 -13 2 -21 29 -7 52 0 60 20
3 8 4 14 3 13 -1 0 -11 -4 -22 -9z"/>
<path d="M175 280 c-3 -6 1 -7 9 -4 18 7 21 14 7 14 -6 0 -13 -4 -16 -10z"/>
<path d="M255 280 c-3 -5 0 -10 8 -10 8 0 17 -7 21 -15 3 -8 14 -15 25 -15 11
0 23 -4 26 -10 8 -12 25 -13 25 -1 0 5 -10 11 -23 15 -12 3 -32 14 -44 26 -25
23 -29 24 -38 10z"/>
<path d="M411 281 c-18 -12 1 -22 49 -27 30 -3 38 0 34 10 -6 17 -44 28 -44
14 0 -7 -4 -7 -13 0 -7 6 -18 7 -26 3z"/>
<path d="M955 280 c-3 -5 1 -10 9 -10 9 0 16 5 16 10 0 6 -4 10 -9 10 -6 0
-13 -4 -16 -10z"/>
<path d="M1254 269 c14 -11 32 -18 39 -16 9 4 9 6 -1 6 -7 1 -20 8 -28 16 -9
8 -20 15 -26 15 -6 0 1 -9 16 -21z"/>
<path d="M1460 280 c0 -5 5 -10 11 -10 5 0 7 5 4 10 -3 6 -8 10 -11 10 -2 0
-4 -4 -4 -10z"/>
<path d="M3980 282 c0 -15 32 -24 44 -12 7 7 7 10 -1 10 -6 0 -18 3 -27 6 -9
3 -16 2 -16 -4z"/>
<path d="M4600 280 c0 -5 4 -10 9 -10 6 0 13 5 16 10 3 6 -1 10 -9 10 -9 0
-16 -4 -16 -10z"/>
<path d="M4718 283 c7 -3 16 -2 19 1 4 3 -2 6 -13 5 -11 0 -14 -3 -6 -6z"/>
<path d="M5170 279 c0 -6 -9 -8 -21 -4 -15 5 -19 4 -15 -4 4 -6 0 -11 -10 -11
-13 0 -15 -3 -7 -11 14 -14 95 2 101 20 3 10 0 11 -17 2 -12 -7 -21 -8 -21 -2
0 5 6 12 13 14 7 3 5 6 -5 6 -10 1 -18 -4 -18 -10z"/>
<path d="M5315 280 c-3 -5 -1 -10 4 -10 6 0 11 5 11 10 0 6 -2 10 -4 10 -3 0
-8 -4 -11 -10z"/>
<path d="M5415 277 c-11 -7 -29 -12 -40 -13 -25 0 -105 -36 -105 -46 0 -5 -7
-8 -16 -8 -9 0 -12 -5 -8 -12 4 -6 -1 -17 -11 -25 -11 -7 -14 -13 -7 -13 6 0
22 11 36 25 14 14 28 25 32 25 4 0 13 8 20 18 8 10 13 12 14 5 0 -7 9 -13 20
-13 22 0 27 15 8 23 -7 3 -1 6 13 6 29 1 57 -23 39 -34 -5 -3 -10 -10 -10 -15
0 -14 52 -7 57 7 3 7 10 10 16 6 6 -4 20 -7 31 -8 12 -1 36 -5 54 -9 26 -6 32
-5 32 8 0 9 -6 16 -12 17 -87 5 -108 9 -125 26 -11 11 -17 25 -15 31 5 15 2
15 -23 -1z m35 -43 c0 -8 -4 -12 -10 -9 -5 3 -10 10 -10 16 0 5 5 9 10 9 6 0
10 -7 10 -16z"/>
<path d="M5648 283 c7 -3 16 -2 19 1 4 3 -2 6 -13 5 -11 0 -14 -3 -6 -6z"/>
<path d="M1018 273 c7 -3 16 -2 19 1 4 3 -2 6 -13 5 -11 0 -14 -3 -6 -6z"/>
<path d="M1210 270 c0 -5 5 -10 11 -10 5 0 7 5 4 10 -3 6 -8 10 -11 10 -2 0
-4 -4 -4 -10z"/>
<path d="M3235 271 c-3 -5 -1 -12 5 -16 5 -3 10 1 10 9 0 18 -6 21 -15 7z"/>
<path d="M3327 260 c3 -11 13 -20 22 -19 10 0 11 2 4 6 -7 2 -13 11 -13 19 0
8 -4 14 -9 14 -5 0 -7 -9 -4 -20z"/>
<path d="M4966 265 c-8 -8 -21 -15 -28 -16 -7 0 2 -5 21 -11 23 -6 37 -6 44 1
16 16 37 13 31 -4 -8 -19 6 -19 31 -2 27 20 10 37 -30 30 -23 -4 -35 -2 -35 6
0 16 -16 14 -34 -4z"/>
<path d="M5607 274 c-8 -8 14 -55 23 -49 5 3 10 -2 14 -10 3 -8 11 -15 17 -15
7 0 3 10 -9 23 -12 13 -22 31 -22 40 0 17 -11 22 -23 11z"/>
<path d="M210 260 c0 -5 5 -10 10 -10 6 0 10 5 10 10 0 6 -4 10 -10 10 -5 0
-10 -4 -10 -10z"/>
<path d="M896 255 c-3 -8 -1 -15 3 -15 5 0 11 7 15 15 3 8 1 15 -3 15 -5 0
-11 -7 -15 -15z"/>
<path d="M1080 255 c0 -8 6 -15 14 -15 8 0 21 -3 29 -6 9 -3 16 3 20 15 4 18
1 21 -29 21 -24 0 -34 -5 -34 -15z"/>
<path d="M3070 260 c8 -5 22 -10 30 -10 13 0 13 1 0 10 -8 5 -22 10 -30 10
-13 0 -13 -1 0 -10z"/>
<path d="M3610 258 c0 -5 6 -8 14 -8 8 0 16 -6 18 -13 2 -10 9 -8 24 7 l20 21
-38 0 c-21 0 -38 -3 -38 -7z"/>
<path d="M3724 255 c24 -18 42 -19 52 -4 4 8 0 9 -15 4 -12 -4 -21 -2 -21 4 0
6 -8 11 -17 11 -16 -1 -16 -2 1 -15z"/>
<path d="M4160 259 c0 -13 42 -59 54 -59 2 0 7 7 10 16 4 11 2 15 -7 11 -17
-6 -30 2 -45 28 -9 15 -11 16 -12 4z"/>
<path d="M140 250 c0 -5 7 -7 15 -4 8 4 15 8 15 10 0 2 -7 4 -15 4 -8 0 -15
-4 -15 -10z"/>
<path d="M990 249 c0 -6 7 -8 17 -5 9 4 20 1 24 -5 4 -6 12 -8 18 -5 20 13 12
21 -24 23 -20 2 -35 -2 -35 -8z"/>
<path d="M1325 250 c-16 -7 -17 -9 -3 -9 9 -1 20 4 23 9 7 11 7 11 -20 0z"/>
<path d="M1495 250 c3 -5 -1 -10 -9 -10 -9 0 -16 -9 -16 -20 0 -23 25 -27 34
-5 3 8 12 12 21 9 8 -3 15 -1 15 5 0 6 -7 11 -15 11 -8 0 -15 5 -15 10 0 6 -5
10 -11 10 -5 0 -7 -4 -4 -10z"/>
<path d="M3413 253 c9 -2 25 -2 35 0 9 3 1 5 -18 5 -19 0 -27 -2 -17 -5z"/>
<path d="M3470 250 c0 -11 30 -21 41 -14 16 10 9 19 -16 20 -14 1 -25 -2 -25
-6z"/>
<path d="M4010 250 c-13 -8 -12 -10 3 -10 9 0 17 5 17 10 0 12 -1 12 -20 0z"/>
<path d="M5640 256 c0 -2 7 -9 15 -16 9 -7 15 -8 15 -2 0 5 -7 12 -15 16 -8 3
-15 4 -15 2z"/>
<path d="M600 240 c0 -5 5 -10 10 -10 6 0 10 5 10 10 0 6 -4 10 -10 10 -5 0
-10 -4 -10 -10z"/>
<path d="M1210 240 c0 -13 11 -13 30 0 12 8 11 10 -7 10 -13 0 -23 -4 -23 -10z"/>
<path d="M2018 239 c-10 -6 -8 -12 7 -23 23 -18 55 -21 55 -6 0 6 -8 10 -17
11 -12 1 -10 4 7 9 14 4 21 9 15 10 -34 6 -56 6 -67 -1z"/>
<path d="M3892 224 c-1 -15 2 -23 8 -19 6 4 8 11 5 16 -4 5 -1 9 4 9 6 0 11 5
11 10 0 23 -26 8 -28 -16z"/>
<path d="M4240 231 c0 -25 6 -27 13 -6 4 8 2 17 -3 20 -6 4 -10 -3 -10 -14z"/>
<path d="M4406 241 c-4 -5 0 -11 6 -14 7 -2 10 -8 6 -12 -5 -5 -18 0 -30 11
-23 19 -23 19 -5 -2 9 -11 14 -24 10 -27 -3 -4 0 -7 7 -7 17 0 51 40 44 51 -7
12 -31 11 -38 0z"/>
<path d="M4887 244 c-8 -8 1 -24 14 -24 5 0 9 7 9 15 0 15 -12 20 -23 9z"/>
<path d="M180 230 c0 -5 7 -10 15 -10 8 0 15 5 15 10 0 6 -7 10 -15 10 -8 0
-15 -4 -15 -10z"/>
<path d="M735 230 c3 -5 8 -10 11 -10 2 0 4 5 4 10 0 6 -5 10 -11 10 -5 0 -7
-4 -4 -10z"/>
<path d="M2780 230 c-8 -5 -10 -10 -5 -10 6 0 17 5 25 10 8 5 11 10 5 10 -5 0
-17 -5 -25 -10z"/>
<path d="M3055 230 c3 -6 20 -10 37 -10 38 0 34 5 -10 13 -21 4 -31 3 -27 -3z"/>
<path d="M3300 229 c0 -5 5 -7 10 -4 6 3 10 8 10 11 0 2 -4 4 -10 4 -5 0 -10
-5 -10 -11z"/>
<path d="M3547 233 c-11 -10 -8 -25 4 -18 5 4 19 -1 29 -10 10 -9 24 -14 29
-10 16 9 13 25 -3 19 -7 -3 -20 2 -29 10 -17 18 -21 19 -30 9z"/>
<path d="M4538 233 c7 -3 16 -2 19 1 4 3 -2 6 -13 5 -11 0 -14 -3 -6 -6z"/>
<path d="M5082 225 c-4 -9 -21 -20 -38 -24 -16 -5 -21 -10 -11 -10 9 -1 17 -8
17 -16 0 -18 5 -18 31 -4 12 6 18 17 15 24 -7 18 14 32 23 16 6 -8 15 -9 34
-2 36 14 34 22 -3 15 -19 -4 -30 -2 -30 5 0 16 -28 13 -38 -4z"/>
<path d="M5212 225 c-16 -19 -11 -19 24 0 23 12 25 15 9 15 -11 -1 -26 -7 -33
-15z"/>
<path d="M780 220 c20 -13 43 -13 35 0 -3 6 -16 10 -28 10 -18 0 -19 -2 -7
-10z"/>
<path d="M1258 223 c7 -3 16 -2 19 1 4 3 -2 6 -13 5 -11 0 -14 -3 -6 -6z"/>
<path d="M3407 216 c-4 -10 -1 -13 8 -9 8 3 12 9 9 14 -7 12 -11 11 -17 -5z"/>
<path d="M3705 220 c-4 -6 -16 -8 -27 -4 -14 4 -18 2 -14 -5 8 -13 77 -10 73
3 -5 15 -24 18 -32 6z"/>
<path d="M3960 226 c0 -2 7 -7 16 -10 8 -3 12 -2 9 4 -6 10 -25 14 -25 6z"/>
<path d="M4475 220 c-4 -6 5 -10 20 -10 15 0 24 4 20 10 -3 6 -12 10 -20 10
-8 0 -17 -4 -20 -10z"/>
<path d="M4685 220 c3 -5 12 -7 20 -3 21 7 19 13 -6 13 -11 0 -18 -4 -14 -10z"/>
<path d="M4948 213 c-11 -14 -10 -15 9 -9 12 4 24 2 28 -4 3 -5 1 -10 -4 -10
-6 0 -11 -4 -11 -10 0 -5 9 -10 19 -10 27 0 23 36 -5 49 -17 8 -26 6 -36 -6z"/>
<path d="M1540 213 c-14 -3 -30 -9 -37 -15 -7 -5 -21 -7 -33 -3 -11 4 -20 2
-20 -4 0 -6 6 -12 13 -12 6 -1 25 -3 40 -5 18 -2 30 2 34 12 7 20 23 18 23 -3
0 -16 1 -16 16 -1 15 15 12 40 -4 37 -4 -1 -18 -4 -32 -6z"/>
<path d="M1715 210 c3 -5 11 -10 16 -10 6 0 7 5 4 10 -3 6 -11 10 -16 10 -6 0
-7 -4 -4 -10z"/>
<path d="M1890 213 c-8 -3 -18 -10 -21 -16 -4 -6 -13 -6 -25 0 -11 6 -30 7
-44 2 -23 -6 -23 -7 -3 -8 12 -1 33 -6 47 -12 20 -9 29 -8 50 7 36 27 34 41
-4 27z"/>
<path d="M1978 213 c7 -3 16 -2 19 1 4 3 -2 6 -13 5 -11 0 -14 -3 -6 -6z"/>
<path d="M3003 209 c14 -8 22 -8 30 0 8 8 3 11 -18 11 -26 -1 -28 -2 -12 -11z"/>
<path d="M4040 210 c8 -5 28 -10 44 -10 39 0 30 6 -19 13 -27 4 -35 3 -25 -3z"/>
<path d="M4320 216 c0 -2 7 -9 15 -16 12 -10 15 -10 15 4 0 9 -7 16 -15 16 -8
0 -15 -2 -15 -4z"/>
<path d="M4857 204 c3 -8 11 -14 19 -14 21 0 17 17 -5 23 -14 3 -18 1 -14 -9z"/>
<path d="M180 200 c0 -5 10 -10 23 -10 18 0 19 2 7 10 -19 13 -30 13 -30 0z"/>
<path d="M1163 203 c-24 -9 -13 -19 23 -20 20 -1 40 -7 45 -14 4 -7 12 -10 16
-5 4 5 2 11 -5 13 -7 3 -19 11 -26 19 -15 14 -31 16 -53 7z"/>
<path d="M1310 200 c20 -13 33 -13 25 0 -3 6 -14 10 -23 10 -15 0 -15 -2 -2
-10z"/>
<path d="M1648 192 c2 -7 11 -11 19 -8 8 3 22 6 30 6 9 0 13 3 9 8 -14 13 -64
8 -58 -6z"/>
<path d="M2110 200 c0 -5 4 -10 9 -10 6 0 13 5 16 10 3 6 -1 10 -9 10 -9 0
-16 -4 -16 -10z"/>
<path d="M3068 203 c7 -3 16 -2 19 1 4 3 -2 6 -13 5 -11 0 -14 -3 -6 -6z"/>
<path d="M3830 201 c0 -5 9 -11 19 -14 14 -3 18 -1 14 9 -6 15 -33 19 -33 5z"/>
<path d="M4768 203 c7 -3 16 -2 19 1 4 3 -2 6 -13 5 -11 0 -14 -3 -6 -6z"/>
<path d="M5175 200 c-3 -5 -1 -10 4 -10 6 0 11 5 11 10 0 6 -2 10 -4 10 -3 0
-8 -4 -11 -10z"/>
<path d="M760 190 c0 -6 -10 -8 -23 -5 -15 4 -28 1 -36 -8 -10 -13 -7 -15 16
-15 53 1 73 7 67 23 -7 17 -24 20 -24 5z"/>
<path d="M857 189 c-9 -6 -17 -15 -17 -22 0 -9 2 -9 8 -1 4 7 16 13 27 16 11
2 15 6 10 10 -6 3 -18 2 -28 -3z"/>
<path d="M2316 191 c-3 -5 6 -11 19 -14 14 -2 28 0 31 5 4 5 15 8 25 5 11 -3
17 -1 13 4 -7 12 -81 12 -88 0z"/>
<path d="M67 179 c9 -9 44 -13 87 -11 49 3 18 17 -40 18 -30 1 -52 -2 -47 -7z"/>
<path d="M505 182 c-9 -10 7 -22 30 -22 36 0 39 17 5 22 -17 3 -32 2 -35 0z"/>
<path d="M620 180 c-12 -8 -10 -10 8 -10 13 0 20 4 17 10 -7 12 -6 12 -25 0z"/>
<path d="M906 175 c7 -17 20 -20 28 -6 3 5 -1 12 -10 15 -22 9 -24 8 -18 -9z"/>
<path d="M1913 176 c2 -6 15 -13 29 -17 21 -5 25 -4 21 11 -3 11 -13 17 -29
16 -13 0 -23 -5 -21 -10z"/>
<path d="M2635 180 c3 -5 11 -10 16 -10 6 0 7 5 4 10 -3 6 -11 10 -16 10 -6 0
-7 -4 -4 -10z"/>
<path d="M3980 179 c0 -11 25 -22 39 -17 6 1 -1 8 -14 15 -14 6 -25 7 -25 2z"/>
<path d="M4018 183 c6 -2 18 -2 25 0 6 3 1 5 -13 5 -14 0 -19 -2 -12 -5z"/>
<path d="M4197 176 c-4 -10 -1 -13 9 -9 7 3 14 9 14 14 0 14 -17 10 -23 -5z"/>
<path d="M4525 180 c3 -5 10 -10 16 -10 5 0 9 5 9 10 0 6 -7 10 -16 10 -8 0
-12 -4 -9 -10z"/>
<path d="M4705 180 c3 -4 20 -10 39 -12 27 -3 33 -1 25 8 -11 13 -72 16 -64 4z"/>
<path d="M1284 158 c1 -15 7 -22 16 -19 8 2 23 4 33 5 25 1 21 23 -5 30 -38
10 -45 7 -44 -16z"/>
<path d="M1605 170 c3 -5 11 -10 16 -10 6 0 7 5 4 10 -3 6 -11 10 -16 10 -6 0
-7 -4 -4 -10z"/>
<path d="M1668 173 c-16 -2 -28 -9 -28 -15 0 -5 7 -8 15 -5 8 4 17 2 21 -4 3
-6 19 -7 36 -4 24 6 29 4 22 -6 -6 -11 -4 -11 10 0 9 8 13 18 9 22 -12 11 -54
17 -85 12z"/>
<path d="M2089 170 c-20 -13 -5 -22 21 -12 18 7 20 10 8 14 -8 4 -21 2 -29 -2z"/>
<path d="M2421 163 c-6 -7 -21 -13 -31 -13 -11 0 -20 -3 -20 -7 0 -5 21 -8 47
-8 40 1 47 4 48 22 2 24 -23 28 -44 6z"/>
<path d="M3005 166 c-20 -15 -20 -15 0 -16 16 0 17 -2 5 -9 -8 -6 -17 -8 -20
-7 -3 2 -12 -5 -22 -15 -15 -16 -15 -18 5 -23 11 -3 26 -1 33 5 14 12 84 2 84
-12 0 -5 5 -9 10 -9 17 0 11 28 -7 32 -14 3 -12 8 12 22 24 14 26 16 8 13 -13
-3 -26 -1 -29 4 -3 5 -16 9 -29 9 -13 0 -25 5 -27 10 -2 7 -11 5 -23 -4z"/>
<path d="M3890 169 c0 -5 5 -7 10 -4 6 3 10 8 10 11 0 2 -4 4 -10 4 -5 0 -10
-5 -10 -11z"/>
<path d="M4155 170 c-3 -5 1 -10 9 -10 9 0 16 5 16 10 0 6 -4 10 -9 10 -6 0
-13 -4 -16 -10z"/>
<path d="M4245 170 c3 -5 11 -10 16 -10 6 0 7 5 4 10 -3 6 -11 10 -16 10 -6 0
-7 -4 -4 -10z"/>
<path d="M4330 170 c-15 -3 -20 -9 -13 -13 6 -4 21 -3 34 1 29 11 12 21 -21
12z"/>
<path d="M4474 169 c-9 -16 2 -22 21 -11 15 8 16 10 1 15 -8 3 -18 2 -22 -4z"/>
<path d="M4812 164 c-7 -8 -8 -14 -3 -14 10 0 25 19 20 25 -2 1 -10 -3 -17
-11z"/>
<path d="M4856 171 c-4 -7 -5 -15 -2 -18 9 -9 19 4 14 18 -4 11 -6 11 -12 0z"/>
<path d="M420 160 c0 -5 5 -10 10 -10 6 0 10 5 10 10 0 6 -4 10 -10 10 -5 0
-10 -4 -10 -10z"/>
<path d="M460 158 c0 -6 3 -8 7 -5 3 4 12 2 20 -5 7 -6 17 -8 20 -4 8 8 -16
26 -34 26 -7 0 -13 -5 -13 -12z"/>
<path d="M5173 163 c-22 -8 -14 -21 16 -25 26 -4 29 -2 20 14 -10 19 -15 20
-36 11z"/>
<path d="M5568 163 c7 -3 16 -2 19 1 4 3 -2 6 -13 5 -11 0 -14 -3 -6 -6z"/>
<path d="M22 155 c11 -11 58 -15 58 -5 0 5 -14 10 -32 10 -17 0 -29 -2 -26 -5z"/>
<path d="M188 148 c9 -9 15 -9 24 0 9 9 7 12 -12 12 -19 0 -21 -3 -12 -12z"/>
<path d="M860 149 c0 -5 5 -7 10 -4 6 3 10 8 10 11 0 2 -4 4 -10 4 -5 0 -10
-5 -10 -11z"/>
<path d="M1185 150 c-3 -5 1 -10 10 -10 9 0 13 5 10 10 -3 6 -8 10 -10 10 -2
0 -7 -4 -10 -10z"/>
<path d="M3475 150 c-14 -6 -4 -8 32 -7 28 1 49 5 46 10 -6 9 -53 8 -78 -3z"/>
<path d="M4223 136 c11 -24 54 -43 86 -37 8 1 10 -2 5 -11 -6 -10 -4 -10 9 1
22 17 13 31 -20 31 -21 0 -24 2 -13 15 10 13 9 15 -11 15 -13 0 -34 3 -46 6
-21 6 -21 4 -10 -20z"/>
<path d="M4606 144 c-17 -16 -21 -34 -8 -34 4 0 12 11 19 25 13 29 11 31 -11
9z"/>
<path d="M5381 141 c-10 -19 -5 -31 12 -31 5 0 7 6 4 14 -4 9 1 16 11 18 16 3
16 4 0 10 -12 5 -21 1 -27 -11z"/>
<path d="M1005 141 c-3 -6 -21 -11 -40 -11 -19 0 -37 -5 -40 -10 -4 -7 3 -9
22 -5 l28 7 -25 -21 c-14 -11 -21 -21 -16 -21 7 0 46 26 85 57 2 2 2 6 -1 9
-3 3 -9 1 -13 -5z"/>
<path d="M1023 113 c-17 -19 -25 -32 -17 -29 9 3 19 6 23 6 8 0 34 51 29 55
-2 1 -17 -13 -35 -32z"/>
<path d="M1870 140 c0 -6 7 -10 15 -10 8 0 15 2 15 4 0 2 -7 6 -15 10 -8 3
-15 1 -15 -4z"/>
<path d="M2285 140 c3 -5 8 -10 11 -10 2 0 4 5 4 10 0 6 -5 10 -11 10 -5 0 -7
-4 -4 -10z"/>
<path d="M3218 141 c12 -7 62 -4 62 5 0 2 -17 4 -37 4 -24 0 -33 -3 -25 -9z"/>
<path d="M3725 141 c-3 -5 4 -16 15 -24 12 -8 20 -21 18 -28 -2 -10 7 -14 28
-14 22 -1 30 3 27 12 -3 7 -13 13 -23 13 -21 0 -44 25 -35 40 3 5 -1 10 -9 10
-8 0 -17 -4 -21 -9z"/>
<path d="M3930 140 c0 -5 5 -10 11 -10 5 0 7 5 4 10 -3 6 -8 10 -11 10 -2 0
-4 -4 -4 -10z"/>
<path d="M5270 140 c0 -5 4 -10 9 -10 6 0 13 5 16 10 3 6 -1 10 -9 10 -9 0
-16 -4 -16 -10z"/>
<path d="M5485 140 c-3 -5 -1 -10 4 -10 6 0 11 5 11 10 0 6 -2 10 -4 10 -3 0
-8 -4 -11 -10z"/>
<path d="M5606 143 c-12 -12 -6 -21 19 -25 14 -3 25 -2 25 1 0 10 -37 30 -44
24z"/>
<path d="M1070 125 c0 -9 6 -12 15 -9 8 4 15 10 15 15 0 5 -7 9 -15 9 -8 0
-15 -7 -15 -15z"/>
<path d="M1120 120 l-25 -21 28 12 c15 7 27 16 27 21 0 11 -1 10 -30 -12z"/>
<path d="M1590 130 c0 -5 7 -10 16 -10 8 0 12 5 9 10 -3 6 -10 10 -16 10 -5 0
-9 -4 -9 -10z"/>
<path d="M2145 131 c-15 -6 -6 -9 33 -12 51 -4 68 3 36 15 -20 8 -44 7 -69 -3z"/>
<path d="M3568 126 c-16 -5 -28 -14 -28 -19 0 -5 -7 -4 -15 3 -15 12 -35 6
-35 -11 0 -5 15 -9 33 -9 17 0 50 -3 72 -6 35 -6 38 -5 27 9 -11 13 -10 16 9
19 19 3 19 4 -7 13 -20 7 -38 8 -56 1z"/>
<path d="M3789 129 c-10 -6 -7 -9 14 -9 29 0 35 5 14 13 -8 3 -20 1 -28 -4z"/>
<path d="M4415 130 c3 -5 15 -10 26 -10 10 0 19 -5 19 -11 0 -5 5 -7 10 -4 15
9 -14 35 -40 35 -12 0 -18 -4 -15 -10z"/>
<path d="M4953 133 c9 -2 23 -2 30 0 6 3 -1 5 -18 5 -16 0 -22 -2 -12 -5z"/>
<path d="M5338 133 c7 -3 16 -2 19 1 4 3 -2 6 -13 5 -11 0 -14 -3 -6 -6z"/>
<path d="M5510 132 c0 -4 18 -9 41 -11 26 -1 38 2 34 9 -7 12 -75 14 -75 2z"/>
<path d="M356 114 c-5 -12 -2 -15 10 -10 8 3 22 6 30 6 24 0 15 16 -10 18 -14
1 -27 -5 -30 -14z"/>
<path d="M420 121 c0 -5 9 -11 20 -14 26 -7 26 -27 1 -27 -23 0 -36 -16 -20
-25 6 -4 20 2 32 13 23 21 87 37 87 23 0 -5 -6 -12 -12 -15 -10 -5 -10 -7 0
-12 10 -5 10 -9 0 -22 -11 -13 -11 -14 1 -8 10 6 12 4 7 -11 -6 -19 1 -19 169
-21 96 -1 175 2 175 7 0 5 -6 9 -12 8 -41 -1 -57 5 -64 25 -6 19 -8 20 -18 6
-9 -12 -24 -15 -54 -12 -33 3 -40 1 -36 -11 4 -8 1 -15 -5 -15 -6 0 -11 7 -11
16 0 12 -6 15 -22 9 -55 -16 -64 -16 -82 4 -19 21 -19 21 1 21 25 0 33 8 26
26 -3 9 -13 12 -23 9 -15 -5 -17 -2 -13 15 5 18 1 20 -48 20 -53 -1 -53 -1
-29 -16 l25 -15 -30 6 c-16 4 -31 11 -33 16 -5 12 -32 12 -32 0z"/>
<path d="M750 120 c0 -5 9 -10 20 -10 11 0 20 5 20 10 0 6 -9 10 -20 10 -11 0
-20 -4 -20 -10z"/>
<path d="M1207 109 c-4 -16 -3 -18 9 -8 16 13 19 29 5 29 -5 0 -11 -9 -14 -21z"/>
<path d="M1253 120 c-13 -5 -23 -16 -23 -24 0 -20 22 -11 38 14 7 11 11 20 10
19 -2 0 -13 -4 -25 -9z"/>
<path d="M1395 120 c26 -11 35 -12 35 -2 0 4 -12 8 -27 9 -24 1 -25 1 -8 -7z"/>
<path d="M1510 123 c-43 -13 -45 -15 -20 -25 41 -16 81 -16 78 0 -3 17 -36 31
-58 25z"/>
<path d="M1654 116 c-27 -21 -12 -29 37 -21 42 7 42 8 18 21 -30 17 -31 17
-55 0z"/>
<path d="M2265 120 c-3 -5 -1 -10 4 -10 6 0 11 5 11 10 0 6 -2 10 -4 10 -3 0
-8 -4 -11 -10z"/>
<path d="M91 106 c-9 -11 -2 -14 39 -13 54 1 55 11 3 20 -20 4 -35 1 -42 -7z"/>
<path d="M702 106 c13 -10 15 -15 6 -24 -8 -8 -9 -12 -1 -12 9 0 23 21 23 35
0 1 -10 5 -22 8 -21 5 -21 5 -6 -7z"/>
<path d="M1165 110 c-3 -5 1 -10 9 -10 9 0 16 5 16 10 0 6 -4 10 -9 10 -6 0
-13 -4 -16 -10z"/>
<path d="M1310 110 c0 -5 4 -10 9 -10 6 0 13 5 16 10 3 6 -1 10 -9 10 -9 0
-16 -4 -16 -10z"/>
<path d="M1960 110 c-8 -5 -11 -12 -8 -16 4 -3 14 1 23 10 18 17 9 21 -15 6z"/>
<path d="M2503 113 c-20 -3 -33 -10 -33 -19 0 -8 -5 -14 -12 -14 -7 0 -8 -3
-2 -9 14 -13 119 -21 135 -10 12 8 11 12 -5 24 -11 8 -26 15 -34 15 -7 0 -10
5 -7 10 3 6 3 9 -2 8 -4 0 -23 -3 -40 -5z m57 -33 c0 -5 -5 -10 -11 -10 -5 0
-7 5 -4 10 3 6 8 10 11 10 2 0 4 -4 4 -10z"/>
<path d="M2690 110 c-9 -6 -10 -10 -3 -10 6 0 15 5 18 10 8 12 4 12 -15 0z"/>
<path d="M3364 101 c19 -21 43 -19 43 4 0 10 -11 15 -30 15 -29 0 -30 -1 -13
-19z"/>
<path d="M3435 101 c3 -11 1 -22 -5 -26 -5 -3 -10 -11 -10 -17 0 -6 8 -4 18 5
22 20 26 57 6 57 -11 0 -13 -6 -9 -19z"/>
<path d="M3856 105 c-10 -7 -15 -18 -11 -24 8 -15 26 -14 23 1 -2 7 13 12 36
14 32 3 36 1 22 -9 -14 -10 -5 -13 51 -14 63 -1 69 0 80 23 6 13 7 24 2 24 -5
0 -9 -5 -9 -10 0 -6 -11 -8 -26 -4 -21 5 -25 4 -19 -6 6 -10 4 -11 -11 -6 -50
21 -78 25 -85 15 -5 -8 -8 -8 -13 0 -9 14 -17 14 -40 -4z"/>
<path d="M1360 99 c0 -5 5 -7 10 -4 6 3 10 8 10 11 0 2 -4 4 -10 4 -5 0 -10
-5 -10 -11z"/>
<path d="M1873 103 c9 -2 25 -2 35 0 9 3 1 5 -18 5 -19 0 -27 -2 -17 -5z"/>
<path d="M2114 98 c-8 -13 15 -28 45 -28 19 0 21 3 12 14 -15 18 -49 27 -57
14z"/>
<path d="M3695 100 c3 -5 12 -7 20 -3 21 7 19 13 -6 13 -11 0 -18 -4 -14 -10z"/>
<path d="M4188 103 c13 -5 17 -24 5 -21 -5 0 -15 -2 -23 -5 -8 -3 -24 -7 -35
-9 -11 -2 -21 -12 -23 -23 -2 -12 0 -16 5 -9 4 6 18 14 31 18 16 6 22 3 22 -8
0 -9 -3 -15 -7 -15 -19 3 -33 -2 -33 -11 0 -5 22 -9 50 -9 27 1 47 6 44 10 -3
5 -11 9 -19 9 -7 0 -16 7 -19 16 -9 23 -8 26 10 16 16 -9 74 -4 74 7 0 11 -57
41 -77 40 -10 0 -13 -3 -5 -6z"/>
<path d="M4531 97 c14 -7 24 -18 21 -25 -3 -11 0 -12 18 -2 27 14 17 25 -30
33 -33 5 -34 5 -9 -6z"/>
<path d="M810 90 c-9 -6 -10 -10 -3 -10 6 0 15 5 18 10 8 12 4 12 -15 0z"/>
<path d="M895 84 c-19 -14 -19 -15 -1 -32 11 -9 16 -11 12 -4 -4 7 -2 20 5 28
17 20 8 25 -16 8z"/>
<path d="M1410 91 c0 -5 -22 -17 -50 -26 -54 -18 -67 -31 -22 -22 15 3 34 0
42 -7 12 -10 20 -10 40 0 18 10 20 14 8 14 -9 0 -20 -5 -23 -10 -7 -11 -25 -4
-25 9 0 4 11 14 25 21 25 13 33 30 15 30 -5 0 -10 -4 -10 -9z"/>
<path d="M3165 90 c3 -5 11 -10 16 -10 6 0 7 5 4 10 -3 6 -11 10 -16 10 -6 0
-7 -4 -4 -10z"/>
<path d="M5594 86 c-10 -8 -16 -18 -12 -22 9 -8 -9 -34 -23 -34 -5 0 -9 9 -9
20 0 11 -7 20 -15 20 -8 0 -15 -7 -15 -15 0 -9 7 -18 15 -21 8 -4 15 -12 15
-20 0 -10 15 -14 60 -14 48 0 58 3 54 15 -3 8 -14 17 -24 20 -31 10 -44 33
-30 50 16 19 10 19 -16 1z"/>
<path d="M320 80 c0 -5 7 -10 15 -10 8 0 15 5 15 10 0 6 -7 10 -15 10 -8 0
-15 -4 -15 -10z"/>
<path d="M740 81 c0 -13 26 -32 33 -24 11 10 8 25 -3 18 -5 -3 -10 -1 -10 4 0
6 -4 11 -10 11 -5 0 -10 -4 -10 -9z"/>
<path d="M1091 64 c-13 -14 -30 -23 -38 -20 -8 4 -13 -2 -13 -15 0 -16 5 -20
20 -16 11 3 23 1 26 -4 7 -12 174 -12 174 1 0 6 -11 10 -24 10 -13 0 -29 6
-36 14 -6 8 -17 13 -24 10 -7 -3 -13 2 -13 11 0 8 7 15 16 15 11 0 12 3 3 12
-8 8 -16 5 -31 -13 l-20 -24 -8 22 -8 22 -24 -25z"/>
<path d="M1275 80 c-3 -6 1 -7 9 -4 18 7 21 14 7 14 -6 0 -13 -4 -16 -10z"/>
<path d="M1780 86 c0 -2 7 -6 15 -10 8 -3 15 -1 15 4 0 6 -7 10 -15 10 -8 0
-15 -2 -15 -4z"/>
<path d="M2380 79 c0 -5 -4 -7 -10 -4 -5 3 -18 1 -27 -4 -16 -9 -16 -10 4 -11
12 0 28 3 37 6 18 7 22 24 6 24 -5 0 -10 -5 -10 -11z"/>
<path d="M2844 78 c-6 -9 -5 -9 44 -13 17 -1 32 1 32 5 0 11 -70 18 -76 8z"/>
<path d="M3020 80 c8 -5 20 -10 25 -10 6 0 3 5 -5 10 -8 5 -19 10 -25 10 -5 0
-3 -5 5 -10z"/>
<path d="M3270 80 c0 -6 7 -10 15 -10 8 0 15 2 15 4 0 2 -7 6 -15 10 -8 3 -15
1 -15 -4z"/>
<path d="M4440 80 c0 -5 5 -10 10 -10 6 0 10 5 10 10 0 6 -4 10 -10 10 -5 0
-10 -4 -10 -10z"/>
<path d="M5366 81 c-4 -7 -5 -15 -2 -18 9 -9 19 4 14 18 -4 11 -6 11 -12 0z"/>
<path d="M216 68 c3 -5 12 -7 20 -4 8 3 14 1 14 -4 0 -14 23 -12 43 3 15 10
10 12 -33 14 -30 0 -48 -3 -44 -9z"/>
<path d="M952 64 c-11 -12 -9 -14 12 -14 14 0 28 5 32 12 5 7 2 9 -9 5 -9 -3
-17 -2 -19 3 -2 4 -9 2 -16 -6z"/>
<path d="M1015 70 c-3 -5 -8 -20 -10 -31 -6 -29 -12 -34 -27 -22 -23 19 -59
26 -56 11 2 -7 -3 -12 -10 -10 -8 1 -11 -2 -7 -8 8 -12 85 -13 104 -1 8 5 11
16 8 25 -4 10 -1 19 8 22 17 7 20 24 6 24 -6 0 -13 -4 -16 -10z"/>
<path d="M1290 60 c-14 -11 -19 -20 -12 -20 7 0 22 9 34 20 28 26 11 26 -22 0z"/>
<path d="M1537 74 c-12 -13 -7 -23 8 -18 11 5 13 2 9 -9 -5 -14 -2 -14 19 -4
25 12 27 33 2 23 -7 -2 -17 0 -22 5 -5 5 -12 6 -16 3z"/>
<path d="M3690 70 c0 -13 11 -13 30 0 12 8 11 10 -7 10 -13 0 -23 -4 -23 -10z"/>
<path d="M4378 73 c7 -3 16 -2 19 1 4 3 -2 6 -13 5 -11 0 -14 -3 -6 -6z"/>
<path d="M4470 69 c0 -5 5 -7 10 -4 6 3 10 8 10 11 0 2 -4 4 -10 4 -5 0 -10
-5 -10 -11z"/>
<path d="M4690 71 c0 -5 8 -7 18 -4 10 2 24 -3 31 -11 15 -17 9 -22 -39 -29
l-25 -3 28 -9 c23 -6 33 -3 50 14 22 22 22 22 3 37 -22 16 -66 19 -66 5z"/>
<path d="M4847 68 c-10 -5 -22 -6 -28 -2 -7 4 -10 1 -7 -7 5 -15 56 -14 71 0
13 13 -17 20 -36 9z"/>
<path d="M4970 70 c0 -5 9 -10 21 -10 11 0 17 5 14 10 -3 6 -13 10 -21 10 -8
0 -14 -4 -14 -10z"/>
<path d="M23 57 c-13 -6 -23 -19 -23 -31 0 -18 7 -21 50 -23 38 -2 48 0 44 11
-3 7 3 22 13 31 17 18 17 18 -11 11 -15 -4 -33 -3 -39 2 -8 6 -21 6 -34 -1z"/>
<path d="M478 63 c7 -3 16 -2 19 1 4 3 -2 6 -13 5 -11 0 -14 -3 -6 -6z"/>
<path d="M656 62 c-3 -5 1 -9 9 -9 8 0 12 4 9 9 -3 4 -7 8 -9 8 -2 0 -6 -4 -9
-8z"/>
<path d="M1474 58 c-3 -4 2 -8 11 -8 9 0 13 -4 10 -10 -3 -5 -2 -10 4 -10 5 0
13 5 16 10 3 6 1 10 -5 10 -6 0 -9 4 -6 8 3 5 -2 9 -10 9 -8 0 -17 -4 -20 -9z"/>
<path d="M1910 55 c-7 -9 2 -12 34 -13 45 -2 69 11 40 22 -10 4 -13 2 -8 -6 5
-7 3 -8 -7 -3 -21 13 -48 13 -59 0z"/>
<path d="M2771 49 c-6 -11 -18 -19 -26 -19 -8 0 -15 -4 -15 -10 0 -12 17 -13
24 -1 3 4 28 6 56 3 40 -4 50 -2 50 11 0 9 -15 18 -38 24 -34 9 -41 7 -51 -8z"/>
<path d="M3170 60 c0 -5 5 -10 11 -10 5 0 7 5 4 10 -3 6 -8 10 -11 10 -2 0 -4
-4 -4 -10z"/>
<path d="M3570 60 c0 -6 7 -10 15 -10 8 0 15 2 15 4 0 2 -7 6 -15 10 -8 3 -15
1 -15 -4z"/>
<path d="M132 40 l-23 -19 36 4 c26 4 37 1 41 -10 5 -11 21 -15 63 -14 47 0
52 2 31 10 -14 6 -33 8 -42 5 -11 -2 -18 1 -18 10 0 8 -9 14 -19 14 -11 0 -23
5 -26 10 -9 14 -17 12 -43 -10z"/>
<path d="M1705 50 c3 -5 8 -10 11 -10 2 0 4 5 4 10 0 6 -5 10 -11 10 -5 0 -7
-4 -4 -10z"/>
<path d="M2403 53 c11 -10 -13 -33 -34 -33 -11 0 -19 -4 -19 -10 0 -6 34 -10
81 -10 71 0 79 2 65 15 -8 8 -28 15 -45 15 -31 0 -42 14 -18 23 6 3 1 6 -12 6
-13 1 -21 -2 -18 -6z"/>
<path d="M2710 45 c0 -18 1 -18 36 0 l29 15 -32 0 c-23 0 -33 -5 -33 -15z"/>
<path d="M3090 50 c0 -5 5 -10 10 -10 6 0 10 5 10 10 0 6 -4 10 -10 10 -5 0
-10 -4 -10 -10z"/>
<path d="M5128 43 c-21 -9 -38 -19 -38 -23 0 -7 73 -20 112 -20 19 0 19 1 1
30 -19 34 -23 34 -75 13z"/>
<path d="M5470 51 c0 -10 30 -24 37 -17 3 3 2 9 -2 15 -8 13 -35 15 -35 2z"/>
<path d="M285 40 c-3 -5 1 -10 9 -10 8 0 18 5 21 10 3 6 -1 10 -9 10 -8 0 -18
-4 -21 -10z"/>
<path d="M1220 40 c0 -5 4 -10 9 -10 6 0 13 5 16 10 3 6 -1 10 -9 10 -9 0 -16
-4 -16 -10z"/>
<path d="M1838 38 c12 -6 22 -15 22 -21 0 -5 -6 -5 -13 2 -10 8 -19 7 -33 -4
-18 -13 -17 -14 18 -15 20 0 38 5 40 12 6 17 -16 38 -39 37 -15 0 -14 -2 5
-11z"/>
<path d="M3995 40 c3 -5 8 -10 11 -10 2 0 4 5 4 10 0 6 -5 10 -11 10 -5 0 -7
-4 -4 -10z"/>
<path d="M4938 43 c-34 -8 -18 -23 24 -23 23 0 39 2 37 4 -14 12 -47 22 -61
19z"/>
<path d="M334 25 c-18 -13 -18 -14 6 -19 32 -6 57 -6 94 1 27 5 28 7 13 18
-23 17 -90 17 -113 0z"/>
<path d="M1597 33 c-20 -5 -18 -25 4 -31 11 -3 11 -2 -1 7 -13 9 -13 11 3 11
9 0 17 5 17 10 0 6 -1 9 -2 9 -2 -1 -11 -3 -21 -6z"/>
<path d="M2060 30 c0 -5 5 -10 10 -10 6 0 10 5 10 10 0 6 -4 10 -10 10 -5 0
-10 -4 -10 -10z"/>
<path d="M2260 30 c0 -5 -6 -10 -14 -10 -8 0 -18 -4 -21 -10 -4 -6 4 -6 22 1
19 7 29 7 31 0 2 -6 8 -8 13 -5 6 3 5 11 -2 20 -13 16 -29 18 -29 4z"/>
<path d="M3820 30 c-12 -8 -10 -10 8 -10 13 0 20 4 17 10 -7 12 -6 12 -25 0z"/>
<path d="M4470 33 c0 -13 32 -35 40 -27 5 5 -1 14 -16 21 -13 6 -24 9 -24 6z"/>
<path d="M4775 30 c-3 -6 1 -7 9 -4 18 7 21 14 7 14 -6 0 -13 -4 -16 -10z"/>
<path d="M5443 25 c-14 -15 -7 -25 19 -25 21 0 24 13 6 28 -9 7 -17 6 -25 -3z"/>
<path d="M475 20 c4 -6 11 -8 16 -5 14 9 11 15 -7 15 -8 0 -12 -5 -9 -10z"/>
<path d="M1520 15 c0 -8 9 -15 20 -15 24 0 27 15 4 24 -22 9 -24 8 -24 -9z"/>
<path d="M1630 13 c0 -16 66 -18 75 -3 4 6 11 8 16 5 5 -4 9 -3 9 2 0 4 -22 8
-50 8 -34 0 -50 -4 -50 -12z"/>
<path d="M1750 20 c0 -5 5 -10 10 -10 6 0 10 5 10 10 0 6 -4 10 -10 10 -5 0
-10 -4 -10 -10z"/>
<path d="M1900 26 c0 -2 11 -6 25 -8 13 -3 22 -1 19 3 -5 9 -44 13 -44 5z"/>
<path d="M2310 20 c0 -5 5 -10 11 -10 5 0 7 5 4 10 -3 6 -8 10 -11 10 -2 0 -4
-4 -4 -10z"/>
<path d="M3070 20 c0 -5 5 -10 11 -10 5 0 7 5 4 10 -3 6 -8 10 -11 10 -2 0 -4
-4 -4 -10z"/>
<path d="M3236 21 c-11 -4 -15 -10 -10 -13 16 -9 74 -7 74 3 0 5 -4 9 -9 9 -5
0 -15 2 -23 4 -7 3 -22 1 -32 -3z"/>
<path d="M3445 21 c-10 -18 17 -23 33 -7 15 15 15 16 -5 16 -12 0 -24 -4 -28
-9z"/>
<path d="M3548 23 c7 -3 16 -2 19 1 4 3 -2 6 -13 5 -11 0 -14 -3 -6 -6z"/>
<path d="M1320 9 c0 -5 11 -9 25 -9 14 0 25 2 25 4 0 2 -11 6 -25 8 -14 3 -25
1 -25 -3z"/>
<path d="M1415 10 c4 -6 11 -8 16 -5 14 9 11 15 -7 15 -8 0 -12 -5 -9 -10z"/>
<path d="M2595 10 l-30 -8 33 -1 c17 0 32 4 32 9 0 6 -1 9 -2 9 -2 -1 -16 -5
-33 -9z"/>
<path d="M4310 8 c0 -5 11 -8 25 -8 14 0 25 3 25 8 0 4 -11 7 -25 7 -14 0 -25
-3 -25 -7z"/>
<path d="M4380 10 c0 -12 8 -12 35 0 18 8 17 9 -7 9 -16 1 -28 -3 -28 -9z"/>
<path d="M3558 3 c6 -2 18 -2 25 0 6 3 1 5 -13 5 -14 0 -19 -2 -12 -5z"/>
<path d="M4553 3 c9 -2 23 -2 30 0 6 3 -1 5 -18 5 -16 0 -22 -2 -12 -5z"/>
</g>
</svg>
