<?xml version="1.0" standalone="no"?>
<!DOCTYPE svg PUBLIC "-//W3C//DTD SVG 1.1//EN" "http://www.w3.org/Graphics/SVG/1.1/DTD/svg11.dtd" >
<svg xmlns="http://www.w3.org/2000/svg">
<metadata>
Created by FontPrep 20130207 at Tue Nov  1 10:34:11 2016
 By Marcelo Arteiro
Copyright (c) 2015 by Volkswagen AG. All rights reserved.
</metadata>
<defs>
<font id="bd92c6b40dec16b4c2c850fa89a8a3f5" horiz-adv-x='1024' >
  <font-face 
    font-family="VWText-BoldItalic"
    font-weight="700"
    font-style="italic"
    font-stretch="normal"
    units-per-em="2048"
    panose-1="2 11 8 4 4 2 0 0 0 3"
    ascent="1612"
    descent="-436"
    x-height="987"
    cap-height="1393"
    bbox="-530 -453 2228 2044"
    underline-thickness="184"
    underline-position="-41"
    slope="-12"
    unicode-range="U+000D-FB02"
  />
<missing-glyph horiz-adv-x="1265" 
d="M354 119h609v1155h-609v-1155zM236 0v1393h845v-1393h-845z" />
    <glyph glyph-name=".notdef" horiz-adv-x="1265" 
d="M354 119h609v1155h-609v-1155zM236 0v1393h845v-1393h-845z" />
    <glyph glyph-name=".null" horiz-adv-x="0" 
 />
    <glyph glyph-name=".null" horiz-adv-x="0" 
 />
    <glyph glyph-name="nonmarkingreturn" horiz-adv-x="681" 
 />
    <glyph glyph-name="CR" unicode="&#xd;" horiz-adv-x="448" 
 />
    <glyph glyph-name="space" unicode=" " horiz-adv-x="460" 
 />
    <glyph glyph-name="exclam" unicode="!" horiz-adv-x="552" 
d="M206 307q140 -1 140 -147q0 -72 -57 -131t-130 -59t-106 35q-33 37 -33 109t56 132q58 60 130 61zM520 1077l-184 -596h-156l66 596l67 316h273z" />
    <glyph glyph-name="quotedbl" unicode="&#x22;" horiz-adv-x="851" 
d="M508 1198l-131 -369h-154l25 369l41 195h260zM864 1198l-131 -369h-153l24 369l41 195h260z" />
    <glyph glyph-name="numbersign" unicode="#" horiz-adv-x="1366" 
d="M643 874l-151 -364h266l149 364h-264zM283 0h-205l4 20l131 316h-168l27 174h213l151 364h-157l26 175h203l141 344h205l-4 -21l-135 -323h264l143 344h205l-4 -21l-135 -323h180l-27 -175h-223l-151 -364h168l-27 -174h-213l-139 -336h-203l4 20l129 316h-266z" />
    <glyph glyph-name="dollar" unicode="$" 
d="M702 393q0 72 -55 127l-65 -309q120 53 120 182zM494 1004q0 -86 63 -136l68 322q-131 -49 -131 -186zM223 979q0 184 119 302t332 138l35 158h163l-34 -160q137 -18 249 -88l-102 -199q-90 53 -192 70l-91 -416l15 -6q256 -143 256 -356q0 -176 -122 -298t-321 -149
l-49 -237h-164l50 235q-183 16 -330 131l102 197q115 -100 275 -115l90 428l-60 33q-221 123 -221 332z" />
    <glyph glyph-name="percent" unicode="%" horiz-adv-x="1638" 
d="M1524 453q0 -189 -102 -329t-283 -140q-119 0 -180 77q-60 78 -60 201q0 188 100 330t277 141q124 -1 186 -79t62 -201zM1079 274q0 -133 82 -133q90 0 135 86t45 217t-88 131q-70 0 -122 -84t-52 -217zM791 1124q-1 -188 -103 -328t-282 -141q-119 0 -180 78
q-60 78 -60 201q0 188 100 330t277 141q123 0 185 -79t63 -202zM346 946q0 -133 82 -133q90 0 135 86t45 217t-88 131q-70 0 -122 -84t-52 -217zM352 0h-221l4 20l1208 1373h222l-6 -21z" />
    <glyph glyph-name="ampersand" unicode="&#x26;" horiz-adv-x="1382" 
d="M864 1094q0 122 -104 120q-74 0 -122 -57t-48 -131t43 -145l14 -25l62 37q79 49 117 95t38 106zM455 178q127 0 274 131l-184 287q-172 -101 -209 -184q-18 -41 -18 -96q0 -54 36 -96q37 -42 101 -42zM350 1026q0 160 124 279t306 118q136 0 226 -90t90 -218t-74 -212
t-215 -170l-57 -35l151 -217q92 84 252 287l160 -137q-180 -221 -293 -324l201 -287l-4 -20h-283l-90 137q-217 -168 -436 -168q-162 0 -260 88q-97 88 -97 226q0 188 131 304q100 89 240 161l20 10q-92 153 -92 268z" />
    <glyph glyph-name="quotesingle" unicode="'" horiz-adv-x="495" 
d="M508 1198l-131 -369h-154l25 369l41 195h260z" />
    <glyph glyph-name="parenleft" unicode="(" horiz-adv-x="593" 
d="M57 170q0 713 492 1296l129 -82q-76 -117 -112 -175t-104 -194q-192 -380 -192 -909q0 -242 45 -501l-168 -43q-90 286 -90 608z" />
    <glyph glyph-name="parenright" unicode=")" horiz-adv-x="593" 
d="M510 858q0 -713 -492 -1296l-129 82q76 117 112 175t104 194q69 136 102 251q90 314 90 684q0 216 -45 475l168 43q90 -286 90 -608z" />
    <glyph glyph-name="asterisk" unicode="*" horiz-adv-x="907" 
d="M457 944l-4 2l-209 -137l-62 180l230 92v4l-189 93l131 163l152 -137l4 2l25 228h198l-76 -228l5 -2l208 137l62 -180l-230 -90v-4l189 -94l-131 -164l-154 139l-4 -2l-22 -231h-199z" />
    <glyph glyph-name="plus" unicode="+" 
d="M770 1057l-84 -395h367l-45 -211h-367l-84 -398h-219l86 398h-365l45 211h363l84 395h219z" />
    <glyph glyph-name="comma" unicode="," horiz-adv-x="530" 
d="M-147 -330l4 21l247 585h250l-4 -20l-309 -586h-188z" />
    <glyph glyph-name="hyphen" unicode="-" horiz-adv-x="833" 
d="M674 451h-568l46 211h567z" />
    <glyph glyph-name="period" unicode="." horiz-adv-x="534" 
d="M198 307q144 -1 144 -149q0 -72 -59 -130t-132 -58t-108 36t-35 108t60 132q58 60 130 61z" />
    <glyph glyph-name="slash" unicode="/" horiz-adv-x="843" 
d="M154 0h-224l4 20l807 1373h222l-5 -21z" />
    <glyph glyph-name="zero" unicode="0" 
d="M1126 926q0 -236 -57 -425t-155 -302q-197 -228 -459 -230q-203 0 -304 131t-101 364t55 421t151 303q195 235 467 235q203 0 303 -131q100 -130 100 -366zM311 465q0 -279 170 -279q158 0 272 178t113 564q0 279 -168 278q-149 0 -260 -156q-57 -82 -92 -232t-35 -353z
" />
    <glyph glyph-name="one" unicode="1" 
d="M338 1047h-25l49 231l332 115h183l-252 -1182h276l-45 -211h-795l45 211h265l194 911h-4z" />
    <glyph glyph-name="two" unicode="2" 
d="M387 211h526l-45 -211h-860l41 193l561 507q102 92 151 161q48 69 48 155t-41 138q-42 52 -104 52q-104 0 -204 -72q-32 -24 -93 -75l-123 166q213 199 450 198q176 0 280 -101t103 -269q0 -168 -110 -307q-53 -66 -88 -100t-91 -83l-401 -348v-4z" />
    <glyph glyph-name="three" unicode="3" 
d="M545 813q127 0 185 70t58 154q0 169 -159 169q-139 0 -307 -76l-58 201q190 92 388 92t303 -88t105 -235q0 -146 -83 -250q-84 -104 -186 -150v-4q161 -76 161 -274t-154 -326q-154 -127 -394 -127t-394 105l88 198q135 -86 312 -86q118 0 202 72t84 184q0 156 -198 156
h-209l45 215h211z" />
    <glyph glyph-name="four" unicode="4" 
d="M748 940h256l-93 -428h140l-45 -211h-140l-63 -301h-256l63 301h-604l37 178l545 914h260l-512 -881h319z" />
    <glyph glyph-name="five" unicode="5" 
d="M588 868q176 0 277 -86t102 -256q0 -262 -166 -409t-441 -148q-170 0 -352 78l82 211q150 -72 302 -72t229 81q78 81 77 216q0 166 -186 166q-114 0 -274 -16l-29 37l219 723h678l-45 -211h-453l-92 -316q37 2 72 2z" />
    <glyph glyph-name="six" unicode="6" 
d="M768 516q0 88 -45 137t-123 49q-125 0 -201 -88t-75 -231q0 -90 44 -143t121 -54q115 0 197 96t82 234zM719 920q141 0 226 -104t85 -267q0 -242 -156 -411t-409 -169q-197 0 -302 112t-105 266q0 155 50 261t158 244l430 541h285l-4 -21l-412 -491l2 -2q78 41 152 41z
" />
    <glyph glyph-name="seven" unicode="7" 
d="M834 1182h-568l43 211h852l-41 -191l-723 -1202h-274l4 20l707 1158v4z" />
    <glyph glyph-name="eight" unicode="8" 
d="M614 831q109 0 163 68t54 170q0 137 -137 137q-109 0 -162 -68t-53 -171q0 -136 135 -136zM719 1423q186 0 282 -87q97 -87 97 -230q0 -142 -72 -238t-176 -143v-4q72 -33 115 -108t43 -173q0 -209 -146 -340t-411 -131q-205 0 -315 92t-110 245q0 154 89 268
q88 114 221 167v4q-117 72 -117 232q0 193 126 319t374 127zM477 186q131 0 202 77t71 171t-45 138t-138 44q-131 0 -199 -76t-67 -170q0 -96 43 -140t133 -44z" />
    <glyph glyph-name="nine" unicode="9" 
d="M406 877q0 -87 45 -137t122 -50q125 0 201 88t76 232q0 90 -44 143t-122 53q-114 0 -196 -95t-82 -234zM455 473q-141 -1 -227 103t-85 268q0 242 156 410t410 169q197 1 302 -111t105 -280q0 -104 -31 -193t-65 -141t-115 -153l-428 -545h-284l4 20l409 494l-2 2
q-82 -43 -149 -43z" />
    <glyph glyph-name="colon" unicode=":" horiz-adv-x="585" 
d="M222 307q144 -1 145 -149q1 -72 -59 -130t-132 -58t-108 36q-35 36 -35 108t59 132q58 60 130 61zM325 680q-143 0 -143 146q0 72 60 131q60 61 130 61q72 0 108 -38t36 -110t-59 -132q-59 -58 -132 -58z" />
    <glyph glyph-name="semicolon" unicode=";" horiz-adv-x="589" 
d="M199 826q0 72 59 131q58 61 130 61t108 -38t36 -110t-59 -132q-59 -58 -131 -58q-142 0 -143 146zM-135 -330l4 21l248 585h250l-5 -20l-309 -586h-188z" />
    <glyph glyph-name="less" unicode="&#x3c;" 
d="M883 -8h-19l-831 461l43 202l1028 461h16l-47 -231l-801 -336v-6l658 -336z" />
    <glyph glyph-name="equal" unicode="=" 
d="M57 430h949l-45 -211h-949zM1059 682h-948l45 211h948z" />
    <glyph glyph-name="greater" unicode="&#x3e;" 
d="M12 -8h-18l47 231l801 336v6l-656 336l47 215h19l829 -461l-43 -202z" />
    <glyph glyph-name="question" unicode="?" horiz-adv-x="960" 
d="M378 307q140 -1 140 -147q0 -72 -57 -131t-142 -60q-124 1 -124 145q0 72 56 132q55 60 127 61zM566 1202q-67 0 -125 -30t-142 -93l-104 178q75 66 189 116t226 50q174 0 274 -88t99 -233q0 -80 -29 -153q-30 -73 -68 -121q-88 -110 -300 -218l-54 -129h-204l45 267
q326 115 325 315q0 59 -32 99q-33 40 -100 40z" />
    <glyph glyph-name="at" unicode="@" horiz-adv-x="1886" 
d="M1016 844q-127 0 -219 -130t-92 -264t112 -133q92 0 180 66l154 416q-47 45 -135 45zM778 -287q-332 0 -517 175t-185 491q0 211 82 409t223 348q141 148 345 238t433 90q309 0 481 -178t172 -446q0 -328 -174 -535t-372 -207t-242 131h-4q-158 -106 -280 -106t-194 81
t-73 212q0 131 67 274t191 245q125 101 263 101t231 -96h2l61 72h160l-213 -545q-78 -201 53 -201q123 0 234 158q110 158 110 386t-121 359t-369 131t-451 -126t-315 -333q-112 -206 -112 -448t134 -380t395 -138q134 0 333 53l39 -147q-186 -68 -387 -68z" />
    <glyph glyph-name="A" unicode="A" horiz-adv-x="1243" 
d="M758 1167h-6l-170 -374l-142 -285h348l-22 285zM944 1393l156 -1393h-266l-17 305h-487l-150 -305h-280l743 1393h301z" />
    <glyph glyph-name="B" unicode="B" horiz-adv-x="1236" 
d="M664 811q145 0 198 54t53 184q0 73 -42 103t-136 30h-180l-80 -371h187zM776 1393q201 0 306 -75q106 -75 106 -219q0 -145 -74 -243t-176 -141v-4q166 -68 166 -256q0 -455 -524 -455h-531l297 1393h430zM582 211q143 0 203 68t61 190q0 145 -195 145h-215l-86 -403h232
z" />
    <glyph glyph-name="C" unicode="C" horiz-adv-x="1148" 
d="M117 516q0 387 209 647t551 260q180 0 331 -90l-88 -194q-111 68 -268 67q-190 0 -329 -195q-138 -196 -138 -462q0 -164 67 -263t183 -100q158 0 297 68l47 -195q-190 -90 -371 -90q-236 -1 -364 149t-127 398z" />
    <glyph glyph-name="D" unicode="D" horiz-adv-x="1316" 
d="M457 211q522 0 522 670q0 153 -73 227t-242 74h-107l-207 -971h107zM713 1393q530 0 530 -494q0 -899 -786 -899h-408l297 1393h367z" />
    <glyph glyph-name="E" unicode="E" horiz-adv-x="1116" 
d="M346 1393h825l-45 -211h-569l-80 -371h510l-45 -211h-510l-82 -389h576l-43 -211h-834z" />
    <glyph glyph-name="F" unicode="F" horiz-adv-x="1087" 
d="M346 1393h825l-45 -211h-569l-90 -416h512l-45 -211h-510l-119 -555h-256z" />
    <glyph glyph-name="G" unicode="G" horiz-adv-x="1292" 
d="M604 -31q-242 0 -366 153q-123 152 -123 392t86 442t268 335q181 132 411 132t412 -104l-92 -197q-150 84 -328 84q-125 0 -222 -59t-155 -157q-118 -200 -118 -468q0 -156 61 -246q62 -90 188 -90t214 43l61 293l-209 37l37 174h473l-135 -651q-221 -113 -463 -113z" />
    <glyph glyph-name="H" unicode="H" horiz-adv-x="1366" 
d="M815 0l127 600h-510l-127 -600h-256l297 1393h256l-125 -582h510l123 582h256l-295 -1393h-256z" />
    <glyph glyph-name="I" unicode="I" horiz-adv-x="600" 
d="M602 1393l-297 -1393h-256l297 1393h256z" />
    <glyph glyph-name="J" unicode="J" horiz-adv-x="919" 
d="M240 -31q-98 1 -180 43t-128 103l154 178q31 -37 48 -54t54 -35t82 -18q147 0 199 240l205 967h256l-213 -1004q-90 -420 -477 -420z" />
    <glyph glyph-name="K" unicode="K" horiz-adv-x="1206" 
d="M442 627h-4l-133 -627h-256l297 1393h256l-145 -676h4l569 676h301l-4 -21l-629 -715l365 -637l-4 -20h-283z" />
    <glyph glyph-name="L" unicode="L" horiz-adv-x="1005" 
d="M346 1393h256l-250 -1172h527l-48 -221h-782z" />
    <glyph glyph-name="M" unicode="M" horiz-adv-x="1624" 
d="M797 565h4l168 275l397 553h258l-295 -1393h-256l146 690l94 307h-2l-437 -647h-225l-160 647h-2l-34 -305l-148 -692h-256l297 1393h238l159 -553z" />
    <glyph glyph-name="N" unicode="N" horiz-adv-x="1394" 
d="M946 342h6l21 270l166 781h256l-295 -1393h-262l-340 1049h-6l-21 -271l-166 -778h-256l297 1393h262z" />
    <glyph glyph-name="O" unicode="O" horiz-adv-x="1425" 
d="M1358 883q0 -240 -81 -443t-256 -337t-417 -134t-364 152t-123 391q0 361 187 628q90 130 238 207t330 76q242 0 364 -150t122 -390zM381 508q0 -136 61 -228q60 -92 184 -94q124 0 218 66t145 170q103 210 103 444q0 154 -60 247t-182 93q-123 0 -216 -64t-147 -167
q-106 -203 -106 -467z" />
    <glyph glyph-name="P" unicode="P" horiz-adv-x="1136" 
d="M629 694q106 0 178 91t72 216q0 81 -38 131t-108 50h-176l-104 -488h176zM778 1393q180 -1 274 -99t95 -258q0 -240 -139 -396t-383 -157h-217l-103 -483h-256l297 1393h432z" />
    <glyph glyph-name="Q" unicode="Q" horiz-adv-x="1425" 
d="M381 508q0 -136 61 -228q60 -92 184 -94q124 0 218 66t145 170q103 210 103 444q0 154 -60 247t-182 93q-123 0 -216 -64t-147 -167q-106 -203 -106 -467zM1358 877q0 -246 -97 -466t-276 -339l281 -170l-144 -203l-432 274q-57 -4 -86 -4q-242 0 -364 152t-123 391
q0 361 187 628q90 130 238 207t330 76q242 0 364 -150t122 -396z" />
    <glyph glyph-name="R" unicode="R" horiz-adv-x="1251" 
d="M721 772q109 0 169 75t60 165q0 170 -141 170h-252l-88 -410h252zM846 1393q178 0 275 -85t98 -235q1 -188 -91 -318t-274 -175l217 -547l-8 -33h-258l-203 561h-178l-119 -561h-256l297 1393h500z" />
    <glyph glyph-name="S" unicode="S" horiz-adv-x="1060" 
d="M426 186q112 0 180 56t68 160q0 102 -135 178l-123 67q-221 123 -221 329t143 327t393 120q174 0 328 -94l-103 -199q-124 76 -244 76t-184 -57t-63 -152q0 -95 94 -147l129 -72q256 -143 256 -349t-152 -333t-380 -127t-404 135l103 197q133 -115 315 -115z" />
    <glyph glyph-name="T" unicode="T" horiz-adv-x="1056" 
d="M227 1393h949l-46 -211h-346l-252 -1182h-256l252 1182h-346z" />
    <glyph glyph-name="U" unicode="U" horiz-adv-x="1341" 
d="M586 186q254 0 332 367l178 840h258l-183 -865q-59 -276 -202 -417t-407 -141t-366 153q-101 154 -38 452l174 818h256l-178 -840q-78 -367 176 -367z" />
    <glyph glyph-name="V" unicode="V" horiz-adv-x="1232" 
d="M1378 1393l-4 -21l-725 -1372h-313l-139 1372l4 21h262l55 -795l10 -377h7l172 379l385 793h286z" />
    <glyph glyph-name="W" unicode="W" horiz-adv-x="1857" 
d="M1985 1393l-5 -21l-622 -1372h-305l-13 819l17 340h-4l-131 -340l-361 -819h-307l-39 1372l4 21h266l-16 -809l-12 -346h4l131 346l352 809h301l6 -809l-14 -346h4l133 346l328 809h283z" />
    <glyph glyph-name="X" unicode="X" horiz-adv-x="1163" 
d="M229 1393h263l137 -547h4l368 547h281l-4 -21l-492 -674l205 -678l-4 -20h-262l-135 547h-4l-371 -547h-283l5 20l491 678l-205 674z" />
    <glyph glyph-name="Y" unicode="Y" horiz-adv-x="1120" 
d="M182 1393h264l148 -598h4l401 598h285l-4 -21l-594 -807l-119 -565h-256l119 565l-252 807z" />
    <glyph glyph-name="Z" unicode="Z" horiz-adv-x="1095" 
d="M313 211h607l-46 -211h-913l41 195l813 983v4h-565l45 211h874l-41 -195l-815 -983v-4z" />
    <glyph glyph-name="bracketleft" unicode="[" horiz-adv-x="634" 
d="M326 1434h419l-28 -129l-217 -48l-318 -1486l199 -47l-27 -130h-420z" />
    <glyph glyph-name="backslash" unicode="\" horiz-adv-x="817" 
d="M645 0h-203l-223 1372l4 21h205l221 -1373z" />
    <glyph glyph-name="bracketright" unicode="]" horiz-adv-x="638" 
d="M256 1434h422l-391 -1840h-422l29 134l219 47l315 1478l-201 47z" />
    <glyph glyph-name="asciicircum" unicode="^" horiz-adv-x="940" 
d="M1077 782l-6 -20h-240l-106 428h-6l-291 -428h-260l4 20l471 652h238z" />
    <glyph glyph-name="underscore" unicode="_" horiz-adv-x="942" 
d="M651 -219h-696l37 174h696z" />
    <glyph glyph-name="grave" unicode="`" horiz-adv-x="1062" 
d="M639 1442l4 18h254l84 -278l-4 -21h-209z" />
    <glyph glyph-name="a" unicode="a" horiz-adv-x="1134" 
d="M602 811q-131 0 -204 -127t-72 -293q0 -215 141 -215q74 0 174 74l109 504q-57 57 -148 57zM543 1018q134 0 260 -119h4l51 88h191l-166 -772q-6 -23 -2 -30t26 -7h72l-41 -188q-78 -14 -145 -15q-150 0 -156 113h-4q-70 -59 -130 -89t-141 -30q-150 0 -224 110t-75 281
q1 264 133 461t347 197z" />
    <glyph glyph-name="b" unicode="b" horiz-adv-x="1122" 
d="M1024 625q0 -260 -138 -458t-356 -198q-154 0 -268 119h-4l-53 -88h-187l306 1434h251l-112 -519h4q106 103 251 103q146 0 226 -112t80 -281zM475 176q131 0 208 128t77 292q0 98 -38 156t-115 59q-77 0 -181 -74l-107 -504q55 -57 156 -57z" />
    <glyph glyph-name="c" unicode="c" horiz-adv-x="917" 
d="M63 379q0 275 160 457t420 182q150 0 256 -62l-72 -188q-104 43 -180 43q-131 0 -226 -112t-95 -291q0 -111 50 -171q50 -61 130 -61t205 43l28 -188q-137 -61 -278 -62q-188 0 -293 113t-105 297z" />
    <glyph glyph-name="d" unicode="d" horiz-adv-x="1124" 
d="M612 811q-131 0 -209 -128t-77 -292q0 -96 38 -155q38 -60 118 -60t180 74l108 504q-57 57 -158 57zM372 -31q-146 0 -228 112q-81 112 -81 281q1 260 139 458t353 198q152 0 246 -103h2l110 519h252l-305 -1434h-186l-17 88h-4q-135 -119 -281 -119z" />
    <glyph glyph-name="e" unicode="e" horiz-adv-x="1038" 
d="M729 682q0 154 -139 154q-84 0 -148 -74t-92 -176h363q16 41 16 96zM492 170q108 0 274 74l43 -187q-183 -88 -369 -88t-282 117t-97 293q0 256 154 447t391 192q174 0 262 -96t88 -234t-61 -266h-586q-16 -112 30 -182q45 -70 153 -70z" />
    <glyph glyph-name="f" unicode="f" horiz-adv-x="727" 
d="M674 1444q100 0 166 -19l-41 -188q-61 16 -111 16q-50 -1 -75 -31q-26 -30 -42 -100l-28 -135h215l-43 -196h-215l-168 -791h-252l168 791h-152l29 139l164 57l35 158q63 299 350 299z" />
    <glyph glyph-name="g" unicode="g" horiz-adv-x="1122" 
d="M346 -436q-198 0 -340 92l92 178q119 -80 252 -80q203 0 256 252l17 76h-5q-111 -98 -252 -98t-222 108t-81 275q1 259 137 455t353 196q150 0 270 -121h4l52 90h188l-205 -964q-47 -219 -182 -339q-136 -120 -334 -120zM610 811q-133 0 -208 -126t-74 -288
q0 -207 149 -207q89 0 185 70l104 494q-55 57 -156 57z" />
    <glyph glyph-name="h" unicode="h" horiz-adv-x="1110" 
d="M623 811q-104 0 -199 -98l-154 -713h-252l306 1434h251l-112 -527h4q133 111 260 111q165 0 233 -104t27 -296l-133 -618h-252l129 604q45 207 -108 207z" />
    <glyph glyph-name="i" unicode="i" horiz-adv-x="536" 
d="M446 1450q132 0 130 -124q0 -62 -52 -110t-118 -48t-98 30t-32 92t52 111t118 49zM272 0h-252l209 987h252z" />
    <glyph glyph-name="j" unicode="j" horiz-adv-x="538" 
d="M406 1167q-130 -1 -130 123q0 62 52 111t116 49q132 0 132 -124q0 -62 -52 -111q-52 -48 -118 -48zM-121 -436q-76 0 -141 14l41 191q49 -14 90 -15q98 0 129 144l231 1089h254l-231 -1087q-72 -336 -373 -336z" />
    <glyph glyph-name="k" unicode="k" horiz-adv-x="1015" 
d="M373 459h-4l-99 -459h-252l306 1434h251l-190 -891h4l379 444h289l-4 -18l-430 -486l243 -463l-4 -20h-270z" />
    <glyph glyph-name="l" unicode="l" horiz-adv-x="534" 
d="M270 0h-252l306 1434h251z" />
    <glyph glyph-name="m" unicode="m" horiz-adv-x="1705" 
d="M733 1018q195 0 250 -148h4q41 41 74 66q33 26 107 54t155 28q167 0 233 -104t25 -296l-131 -618h-252l129 604q45 207 -108 207q-102 0 -211 -104q0 -27 -13 -86l-133 -621h-254l129 604q45 207 -108 207q-117 0 -205 -98l-152 -713h-252l209 987h205l12 -94h5
q49 41 71 58t84 42q61 25 127 25z" />
    <glyph glyph-name="n" unicode="n" horiz-adv-x="1112" 
d="M742 1018q152 0 219 -104q68 -104 26 -300l-131 -614h-252l129 604q45 207 -108 207q-111 0 -201 -98l-152 -713h-252l209 987h205l12 -94h5q139 125 291 125z" />
    <glyph glyph-name="o" unicode="o" horiz-adv-x="1120" 
d="M1022 608q0 -266 -156 -452t-415 -187q-184 0 -286 116q-101 116 -102 296q0 265 158 451t412 186q189 0 289 -115t100 -295zM324 391q0 -102 38 -159q39 -56 111 -56q129 0 208 121t79 299q0 102 -39 158t-113 57q-128 0 -206 -122t-78 -298z" />
    <glyph glyph-name="p" unicode="p" horiz-adv-x="1122" 
d="M475 176q131 0 208 128t77 292q0 98 -38 156t-115 59q-77 0 -181 -74l-107 -504q55 -57 156 -57zM710 1018q152 0 233 -112t81 -281q0 -260 -139 -458t-353 -198q-143 0 -241 103h-4l-103 -478h-252l297 1393h185l18 -88h4q122 119 274 119z" />
    <glyph glyph-name="q" unicode="q" horiz-adv-x="1122" 
d="M610 811q-131 0 -209 -128t-77 -292q0 -96 38 -155q38 -60 117 -60q80 0 180 74l109 504q-57 57 -158 57zM61 360q-1 262 137 460t353 198q141 0 270 -119h4l54 88h188l-297 -1393h-252l103 478h-5q-106 -102 -250 -102t-225 111q-80 112 -80 279z" />
    <glyph glyph-name="r" unicode="r" horiz-adv-x="720" 
d="M631 803q-121 0 -209 -111l-150 -692h-252l209 987h207l10 -117h5q102 147 227 148q43 0 84 -12l-45 -211q-39 8 -86 8z" />
    <glyph glyph-name="s" unicode="s" horiz-adv-x="897" 
d="M346 166q160 0 160 115q0 68 -96 106l-109 47q-184 80 -184 245t107 252q108 87 296 87t328 -72l-84 -182q-119 57 -242 57q-154 0 -153 -108q0 -66 88 -103l108 -47q193 -84 193 -252t-111 -255t-313 -87t-344 94l92 185q127 -82 264 -82z" />
    <glyph glyph-name="t" unicode="t" horiz-adv-x="763" 
d="M475 176q74 0 152 29l-43 -203q-121 -33 -199 -33q-309 0 -246 299l111 523h-158l29 139l170 57l49 230h252l-49 -230h243l-43 -196h-241l-107 -502q-25 -113 80 -113z" />
    <glyph glyph-name="u" unicode="u" horiz-adv-x="1099" 
d="M442 176q88 0 197 94l154 717h251l-208 -987h-207l-15 94h-2q-44 -39 -68 -56t-83 -43t-121 -26q-164 1 -228 105t-24 299l131 614h252l-129 -604q-45 -207 100 -207z" />
    <glyph glyph-name="v" unicode="v" horiz-adv-x="1019" 
d="M1063 987l-4 -20l-537 -967h-276l-127 967l4 20h237l50 -571l6 -207h4l94 207l291 571h258z" />
    <glyph glyph-name="w" unicode="w" horiz-adv-x="1560" 
d="M1593 987l-4 -20l-463 -967h-276l-35 584l8 202h-4l-80 -202l-282 -584h-275l-51 967l4 20h232l8 -581l-15 -199h5l81 199l271 581h274l25 -581l-2 -199h4l69 199l252 581h254z" />
    <glyph glyph-name="x" unicode="x" horiz-adv-x="1013" 
d="M475 360h-4l-262 -360h-279l4 20l381 474l-180 473l4 20h256l109 -362h4l262 362h279l-7 -20l-378 -473l178 -474l-4 -20h-250z" />
    <glyph glyph-name="y" unicode="y" horiz-adv-x="1001" 
d="M39 -436q-84 0 -178 24l39 185q84 -19 133 -19t88 32t80 110l63 114l-147 957l4 20h246l45 -545l4 -204h6l90 204l268 545h269l-5 -20l-634 -1135q-150 -268 -371 -268z" />
    <glyph glyph-name="z" unicode="z" horiz-adv-x="892" 
d="M305 190h414l-41 -190h-721l29 139l553 654v4h-385l41 190h694l-31 -139l-553 -653v-5z" />
    <glyph glyph-name="braceleft" unicode="{" horiz-adv-x="708" 
d="M725 1434h88l-31 -144q-195 0 -241 -217l-64 -307q-25 -119 -74 -180t-137 -80v-4q80 -18 104 -80t-3 -180l-64 -287q-45 -217 150 -217l-31 -144h-47q-195 0 -256 100t-19 304l56 262q16 78 -18 119t-109 41l41 188q74 0 126 41t68 119l68 322q37 172 121 258t272 86z
" />
    <glyph glyph-name="bar" unicode="|" horiz-adv-x="450" 
d="M489 1434l-391 -1840h-164l392 1840h163z" />
    <glyph glyph-name="braceright" unicode="}" horiz-adv-x="708" 
d="M307 1434q195 0 256 -100t19 -304l-56 -262q-16 -78 18 -119t109 -41l-41 -188q-74 0 -126 -41t-68 -119l-68 -321q-37 -172 -121 -258t-272 -87h-88l31 144q195 0 241 217l64 307q25 119 74 180t137 80v4q-80 18 -104 80t3 180l64 287q45 217 -150 217l31 144h47z" />
    <glyph glyph-name="asciitilde" unicode="~" horiz-adv-x="1071" 
d="M365 739q81 -1 201 -77t190 -76t143 82l64 -146q-121 -137 -254 -137q-74 0 -197 77t-172 77t-97 -26t-81 -67l-64 146q127 147 267 147z" />
    <glyph glyph-name="uni00A0" unicode="&#xa0;" horiz-adv-x="460" 
 />
    <glyph glyph-name="exclamdown" unicode="&#xa1;" horiz-adv-x="536" 
d="M304 680q-142 0 -142 146q0 72 57 132t129 60t107 -36q34 -36 34 -108t-57 -134q-56 -60 -128 -60zM-10 -90l184 596h156l-68 -596l-67 -316h-273z" />
    <glyph glyph-name="cent" unicode="&#xa2;" 
d="M426 404q0 -141 82 -197l123 577q-93 -41 -149 -140t-56 -240zM164 379q0 256 141 434t375 201l37 170h162l-37 -174q86 -12 157 -54l-71 -188q-94 33 -129 39l-133 -627q61 10 145 39l29 -188q-92 -43 -219 -58l-35 -170h-162l37 177q-143 29 -220 135t-77 264z" />
    <glyph glyph-name="sterling" unicode="&#xa3;" 
d="M379 211h543l-45 -211h-838l39 184q104 56 142 152t52 250h-149l41 194h129q20 262 123 440q119 203 409 203q190 0 338 -90l-88 -198q-137 71 -268 71t-185 -104t-69 -322h309l-41 -194h-280q-12 -213 -162 -371v-4z" />
    <glyph glyph-name="currency" unicode="&#xa4;" horiz-adv-x="1103" 
d="M408 520q0 -158 94 -158q76 0 128 70t52 156q0 158 -98 155q-70 1 -123 -69t-53 -154zM893 631q0 -147 -86 -273l127 -188l-152 -133l-133 182q-90 -45 -174 -45t-156 43l-202 -182l-115 153l205 185q-12 49 -12 96q0 154 90 289l-125 186l155 131l127 -180q80 37 167 37
t157 -47l213 188l113 -151l-211 -193q12 -41 12 -98z" />
    <glyph glyph-name="yen" unicode="&#xa5;" 
d="M1067 799l-43 -195h-328l-34 -158h329l-41 -194h-329l-54 -252h-256l54 252h-338l41 194h338l34 158h-338l41 195h238l-164 573l4 21h266l119 -557h4l351 557h282l-6 -21l-403 -573h233z" />
    <glyph glyph-name="brokenbar" unicode="&#xa6;" horiz-adv-x="477" 
d="M358 754h-165l145 680h164zM92 274h164l-145 -680h-164z" />
    <glyph glyph-name="section" unicode="&#xa7;" horiz-adv-x="1091" 
d="M360 -369q-226 0 -413 107l108 221q178 -113 326 -113q100 0 160 43q59 43 59 111q0 92 -111 139l-194 86q-190 86 -191 252q0 195 218 305v4q-106 88 -107 228q0 180 135 295q134 115 360 115t367 -76l-98 -211q-133 72 -283 71q-102 0 -156 -49t-55 -112q0 -90 97 -132
l161 -67q238 -100 238 -270t-219 -320v-6q109 -70 108 -215q0 -186 -142 -296t-368 -110zM713 490q0 90 -78 126l-182 84q-35 -26 -59 -68t-23 -89q0 -76 84 -115l178 -84q80 56 80 146z" />
    <glyph glyph-name="dieresis" unicode="&#xa8;" horiz-adv-x="1062" 
d="M630 1452q130 0 130 -124q0 -62 -51 -110t-117 -48t-99 30q-32 30 -32 92t51 111q52 49 118 49zM1028 1452q132 0 131 -124q0 -62 -51 -110q-52 -48 -118 -48t-98 30t-32 92t51 111t117 49z" />
    <glyph glyph-name="copyright" unicode="&#xa9;" horiz-adv-x="1650" 
d="M463 614q0 214 125 348t340 134q119 0 217 -49l-60 -148q-80 41 -176 41t-173 -88t-77 -215q0 -84 41 -134t121 -50t178 41l37 -148q-119 -49 -237 -49q-160 0 -248 87t-88 230zM268 590q0 -209 131 -345t340 -136q281 -1 488 207t207 493q0 207 -126 341t-333 134
q-283 0 -495 -206t-212 -488zM121 558q0 244 122 442q123 198 321 311t421 112q264 0 430 -172q166 -173 166 -417t-122 -442q-123 -198 -321 -310t-421 -113q-264 0 -430 172q-166 173 -166 417z" />
    <glyph glyph-name="ordfeminine" unicode="&#xaa;" horiz-adv-x="727" 
d="M588 412h-512l33 157h512zM329 698q-83 0 -128 46t-45 114q0 240 297 240h102l4 22q18 88 -74 88q-86 0 -198 -41l-19 142q135 49 255 49t177 -71t31 -193l-80 -377h-131l-18 55h-2q-88 -74 -171 -74zM446 983q-48 0 -76 -24t-28 -64q0 -49 55 -49t111 39l20 98h-82z" />
    <glyph glyph-name="guillemotleft" unicode="&#xab;" horiz-adv-x="1075" 
d="M506 541l6 24l391 449l146 -111l-258 -362l106 -361l-180 -88zM70 541l6 24l391 449l145 -111l-258 -362l107 -361l-180 -88z" />
    <glyph glyph-name="logicalnot" unicode="&#xac;" 
d="M780 203l51 248h-778l45 211h949l-99 -459h-168z" />
    <glyph glyph-name="uni00AD" unicode="&#xad;" horiz-adv-x="833" 
d="M674 451h-568l46 211h567z" />
    <glyph glyph-name="registered" unicode="&#xae;" horiz-adv-x="1105" 
d="M694 1186q33 0 51 17t19 42q0 39 -49 39h-82l-23 -98h84zM739 1378q70 0 105 -32t35 -84q0 -121 -131 -158l83 -162l-2 -10h-114l-76 164h-47l-35 -164h-111l95 446h198zM317 1083q0 -127 80 -211t209 -84q172 0 297 128t125 303q0 127 -76 209t-202 81q-172 0 -302 -127
t-131 -299zM205 1075q0 225 168 384t387 159q170 0 276 -114t107 -279q0 -225 -168 -384t-389 -159q-170 0 -276 114t-105 279z" />
    <glyph glyph-name="macron" unicode="&#xaf;" horiz-adv-x="1064" 
d="M1049 1186h-527l45 211h527z" />
    <glyph glyph-name="degree" unicode="&#xb0;" horiz-adv-x="876" 
d="M190 1026q0 178 124 288t292 109q129 1 210 -77t81 -205q0 -178 -125 -289q-124 -111 -272 -111t-229 79t-81 206zM385 1062q-1 -146 137 -147q68 1 125 59t57 130t-33 111q-33 38 -99 38t-126 -59q-60 -58 -61 -132z" />
    <glyph glyph-name="plusminus" unicode="&#xb1;" 
d="M12 211h949l-46 -211h-948zM811 1282l-84 -395h377l-45 -211h-377l-61 -295h-199l63 295h-374l45 211h374l84 395h197z" />
    <glyph glyph-name="twosuperior" unicode="&#xb2;" horiz-adv-x="641" 
d="M438 1069h244l-33 -151h-512l29 137l336 250q66 47 65 114q0 31 -18 53t-51 21q-59 0 -160 -84l-94 119q123 123 276 123q100 -1 166 -55t66 -143t-39 -147t-123 -120l-152 -113v-4z" />
    <glyph glyph-name="threesuperior" unicode="&#xb3;" horiz-adv-x="628" 
d="M446 1352q102 0 103 86q0 55 -88 55t-168 -35l-39 146q122 47 236 47t181 -48t67 -130q0 -83 -45 -131q-44 -48 -101 -62v-2q92 -36 92 -142t-81 -170t-225 -65q-144 0 -237 55l56 150q76 -45 176 -45q133 0 133 92q0 47 -88 47h-131l30 152h129z" />
    <glyph glyph-name="acute" unicode="&#xb4;" horiz-adv-x="1062" 
d="M1049 1460l-5 -18l-247 -281h-226l4 21l203 278h271z" />
    <glyph glyph-name="mu" unicode="&#xb5;" horiz-adv-x="1110" 
d="M453 176q86 0 196 92l154 719h252l-209 -987h-207l-14 94h-2q-129 -125 -281 -125q-47 0 -88 17l-14 -131l-56 -261h-252l297 1393h250l-129 -625q-37 -186 103 -186z" />
    <glyph glyph-name="paragraph" unicode="&#xb6;" horiz-adv-x="1114" 
d="M578 1393h645l-33 -154h-172l-350 -1645h-160l350 1645h-151l-351 -1645h-161l229 1078q-121 0 -198 79t-76 212q0 195 126 313t302 117z" />
    <glyph glyph-name="periodcentered" unicode="&#xb7;" horiz-adv-x="548" 
d="M109 566q0 72 59 131q58 61 130 61t108 -38t36 -110t-59 -132q-59 -58 -131 -58q-142 0 -143 146z" />
    <glyph glyph-name="cedilla" unicode="&#xb8;" horiz-adv-x="1064" 
d="M431 -436q-99 0 -148 24l41 129q39 -16 73 -16q74 0 74 61q0 45 -94 45l-4 13l108 194h148l-66 -106q45 -8 71 -42t25 -81q0 -96 -64 -159q-65 -62 -164 -62z" />
    <glyph glyph-name="onesuperior" unicode="&#xb9;" horiz-adv-x="495" 
d="M217 1360h-14l35 166l270 110h131l-154 -718h-174l113 524h-2z" />
    <glyph glyph-name="ordmasculine" unicode="&#xba;" horiz-adv-x="741" 
d="M586 412h-514l32 157h514zM776 1090q0 -160 -103 -276t-267 -116q-121 0 -191 78t-70 193q1 161 105 275t266 114q124 0 192 -78t68 -190zM498 1200q-68 0 -118 -58t-50 -142q0 -144 94 -144q72 0 119 58t47 172t-92 114z" />
    <glyph glyph-name="guillemotright" unicode="&#xbb;" horiz-adv-x="1077" 
d="M997 565l-6 -24l-391 -449l-145 111l258 362l-107 361l180 88zM561 565l-6 -24l-391 -449l-146 111l258 362l-106 361l180 88z" />
    <glyph glyph-name="onequarter" unicode="&#xbc;" horiz-adv-x="1458" 
d="M1114 487h174l-39 -182h76l-33 -153h-75l-33 -152h-172l32 152h-323l29 139l254 428h182l-236 -412l-2 -2h129zM201 1114h-15l35 166l271 111h131l-154 -719h-174l113 524h-2zM260 0h-221l4 20l1208 1373h222l-7 -21z" />
    <glyph glyph-name="onehalf" unicode="&#xbd;" horiz-adv-x="1513" 
d="M1087 152h244l-33 -152h-512l29 137l336 250q66 47 66 115q-1 30 -19 52t-51 21q-59 0 -160 -83l-94 118q123 123 276 123q100 0 166 -54t66 -143q0 -90 -39 -148t-123 -120l-152 -112v-4zM201 1110h-15l35 166l271 110h131l-154 -718h-174l113 524h-2zM262 0h-221l4 20
l1208 1373h222l-7 -21z" />
    <glyph glyph-name="threequarters" unicode="&#xbe;" horiz-adv-x="1579" 
d="M426 1100q102 0 102 86q0 55 -88 55t-168 -35l-39 146q121 47 236 47t181 -48t67 -130q0 -82 -44 -130t-102 -63v-2q93 -36 93 -142t-81 -170t-225 -65q-144 0 -237 56l55 149q76 -45 176 -45q133 0 133 92q0 47 -88 47h-131l31 152h129zM1239 487h174l-39 -182h76
l-33 -153h-76l-32 -152h-172l32 152h-323l28 139l254 428h183l-236 -412l-2 -2h129zM344 0h-221l4 20l1208 1373h221l-6 -21z" />
    <glyph glyph-name="questiondown" unicode="&#xbf;" horiz-adv-x="952" 
d="M539 680q-140 0 -140 146q-1 72 57 132t130 60t104 -36q33 -36 33 -108t-56 -134q-56 -60 -128 -60zM219 -76q0 -59 33 -99q34 -40 100 -40t124 30t142 93l105 -178q-75 -66 -189 -116t-227 -50q-174 0 -273 88t-100 233q0 80 29 153t68 121q97 120 301 218l53 129h205
l-45 -266q-326 -115 -326 -316z" />
    <glyph glyph-name="Agrave" unicode="&#xc0;" horiz-adv-x="1243" 
d="M623 1817l4 18h270l68 -279l-4 -20h-228zM758 1167h-6l-170 -374l-142 -285h348l-22 285zM944 1393l156 -1393h-266l-17 305h-487l-150 -305h-280l743 1393h301z" />
    <glyph glyph-name="Aacute" unicode="&#xc1;" horiz-adv-x="1243" 
d="M1165 1835l-4 -18l-229 -281h-244l4 20l187 279h286zM758 1167h-6l-170 -374l-142 -285h348l-22 285zM944 1393l156 -1393h-266l-17 305h-487l-150 -305h-280l743 1393h301z" />
    <glyph glyph-name="Acircumflex" unicode="&#xc2;" horiz-adv-x="1243" 
d="M1004 1835l147 -279l-4 -20h-199l-80 162l-145 -162h-215l4 20l266 279h226zM758 1167h-6l-170 -374l-142 -285h348l-22 285zM944 1393l156 -1393h-266l-17 305h-487l-150 -305h-280l743 1393h301z" />
    <glyph glyph-name="Atilde" unicode="&#xc3;" horiz-adv-x="1243" 
d="M750 1837q57 0 130 -46q72 -46 112 -46t83 19t72 51l29 -140q-96 -137 -209 -137q-55 0 -137 46t-121 46q-83 1 -144 -71l-28 143q98 135 213 135zM758 1167h-6l-170 -374l-142 -285h348l-22 285zM944 1393l156 -1393h-266l-17 305h-487l-150 -305h-280l743 1393h301z
" />
    <glyph glyph-name="Adieresis" unicode="&#xc4;" horiz-adv-x="1243" 
d="M1072 1534q-130 0 -130 124q0 62 51 110t117 48t99 -30q32 -30 32 -92t-51 -111q-52 -49 -118 -49zM600 1534q-130 0 -131 124q0 62 51 110q52 48 118 48t98 -30t32 -92t-51 -111t-117 -49zM758 1167h-6l-170 -374l-142 -285h348l-22 285zM944 1393l156 -1393h-266
l-17 305h-487l-150 -305h-280l743 1393h301z" />
    <glyph glyph-name="Aring" unicode="&#xc5;" horiz-adv-x="1236" 
d="M737 1507q0 -63 62 -63q41 0 67 29t27 73q0 63 -59 64q-41 0 -69 -30t-28 -73zM756 1167h-6l-170 -374l-142 -285h348l-22 285zM586 1481q0 121 74 195t178 73q102 0 154 -47t52 -133q0 -145 -102 -219l156 -1350h-267l-16 305h-487l-150 -305h-280l731 1358
q-43 47 -43 123z" />
    <glyph glyph-name="AE" unicode="&#xc6;" horiz-adv-x="1753" 
d="M948 1157h-6l-203 -307l-239 -342h295l71 342zM-150 0l5 20l1019 1373h934l-43 -211h-571l-80 -371h512l-45 -211h-510l-84 -389h578l-45 -211h-834l66 305h-408l-219 -305h-275z" />
    <glyph glyph-name="Ccedilla" unicode="&#xc7;" horiz-adv-x="1148" 
d="M117 516q0 387 209 647t551 260q180 0 331 -90l-88 -194q-111 68 -268 67q-190 0 -329 -195q-138 -196 -138 -462q0 -164 67 -263t183 -100q158 0 297 68l47 -195q-186 -90 -365 -90l-36 -61q44 -8 70 -42t26 -81q0 -97 -65 -159t-164 -62t-148 24l41 129q39 -16 74 -16
q74 0 73 61q0 45 -94 45l-4 13l90 164q-174 39 -267 180t-93 352z" />
    <glyph glyph-name="Egrave" unicode="&#xc8;" horiz-adv-x="1116" 
d="M575 1817l5 18h270l68 -279l-5 -20h-227zM346 1393h825l-45 -211h-569l-80 -371h510l-45 -211h-510l-82 -389h576l-43 -211h-834z" />
    <glyph glyph-name="Eacute" unicode="&#xc9;" horiz-adv-x="1116" 
d="M1143 1835l-4 -18l-230 -281h-243l4 20l186 279h287zM346 1393h825l-45 -211h-569l-80 -371h510l-45 -211h-510l-82 -389h576l-43 -211h-834z" />
    <glyph glyph-name="Ecircumflex" unicode="&#xca;" horiz-adv-x="1116" 
d="M958 1835l148 -279l-4 -20h-199l-80 162l-145 -162h-215l4 20l266 279h225zM346 1393h825l-45 -211h-569l-80 -371h510l-45 -211h-510l-82 -389h576l-43 -211h-834z" />
    <glyph glyph-name="Edieresis" unicode="&#xcb;" horiz-adv-x="1116" 
d="M1026 1534q-130 0 -131 124q0 62 51 110q52 48 118 48t98 -30t32 -92t-51 -111t-117 -49zM552 1534q-130 0 -130 124q0 62 51 110t117 48t99 -30q32 -30 32 -92t-51 -111q-52 -49 -118 -49zM346 1393h825l-45 -211h-569l-80 -371h510l-45 -211h-510l-82 -389h576
l-43 -211h-834z" />
    <glyph glyph-name="Igrave" unicode="&#xcc;" horiz-adv-x="600" 
d="M281 1817l4 18h270l68 -279l-5 -20h-227zM602 1393l-297 -1393h-256l297 1393h256z" />
    <glyph glyph-name="Iacute" unicode="&#xcd;" horiz-adv-x="600" 
d="M852 1835l-4 -18l-230 -281h-243l4 20l186 279h287zM602 1393l-297 -1393h-256l297 1393h256z" />
    <glyph glyph-name="Icircumflex" unicode="&#xce;" horiz-adv-x="600" 
d="M670 1835l147 -279l-4 -20h-199l-79 162l-146 -162h-215l4 20l266 279h226zM602 1393l-297 -1393h-256l297 1393h256z" />
    <glyph glyph-name="Idieresis" unicode="&#xcf;" horiz-adv-x="600" 
d="M740 1534q-130 0 -130 124q0 62 52 110t117 48q67 0 99 -30t32 -92t-52 -111t-118 -49zM268 1534q-130 0 -131 124q0 62 51 110q52 48 118 48t98 -30t32 -92t-51 -111t-117 -49zM602 1393l-297 -1393h-256l297 1393h256z" />
    <glyph glyph-name="Eth" unicode="&#xd0;" horiz-adv-x="1318" 
d="M459 211q522 0 522 670q0 153 -73 227t-242 74h-107l-84 -389h199l-45 -211h-199l-78 -371h107zM715 1393q530 0 530 -494q0 -899 -786 -899h-408l123 582h-96l45 211h96l129 600h367z" />
    <glyph glyph-name="Ntilde" unicode="&#xd1;" horiz-adv-x="1394" 
d="M807 1837q57 0 130 -46t113 -46t83 19t71 51l29 -140q-96 -137 -209 -137q-55 0 -136 46t-122 46q-82 1 -143 -71l-29 143q98 135 213 135zM946 342h6l21 270l166 781h256l-295 -1393h-262l-340 1049h-6l-21 -271l-166 -778h-256l297 1393h262z" />
    <glyph glyph-name="Ograve" unicode="&#xd2;" horiz-adv-x="1425" 
d="M731 1817l4 18h271l67 -279l-4 -20h-227zM1358 883q0 -240 -81 -443t-256 -337t-417 -134t-364 152t-123 391q0 361 187 628q90 130 238 207t330 76q242 0 364 -150t122 -390zM381 508q0 -136 61 -228q60 -92 184 -94q124 0 218 66t145 170q103 210 103 444
q0 154 -60 247t-182 93q-123 0 -216 -64t-147 -167q-106 -203 -106 -467z" />
    <glyph glyph-name="Oacute" unicode="&#xd3;" horiz-adv-x="1425" 
d="M1270 1835l-4 -18l-230 -281h-243l4 20l186 279h287zM1358 883q0 -240 -81 -443t-256 -337t-417 -134t-364 152t-123 391q0 361 187 628q90 130 238 207t330 76q242 0 364 -150t122 -390zM381 508q0 -136 61 -228q60 -92 184 -94q124 0 218 66t145 170q103 210 103 444
q0 154 -60 247t-182 93q-123 0 -216 -64t-147 -167q-106 -203 -106 -467z" />
    <glyph glyph-name="Ocircumflex" unicode="&#xd4;" horiz-adv-x="1425" 
d="M1108 1835l147 -279l-4 -20h-198l-80 162l-146 -162h-215l4 20l267 279h225zM1358 883q0 -240 -81 -443t-256 -337t-417 -134t-364 152t-123 391q0 361 187 628q90 130 238 207t330 76q242 0 364 -150t122 -390zM381 508q0 -136 61 -228q60 -92 184 -94q124 0 218 66
t145 170q103 210 103 444q0 154 -60 247t-182 93q-123 0 -216 -64t-147 -167q-106 -203 -106 -467z" />
    <glyph glyph-name="Otilde" unicode="&#xd5;" horiz-adv-x="1425" 
d="M846 1837q57 0 130 -46t113 -46q41 0 83 19t71 51l29 -140q-96 -137 -209 -137q-55 0 -136 46t-122 46q-82 1 -143 -71l-29 143q98 135 213 135zM1358 883q0 -240 -81 -443t-256 -337t-417 -134t-364 152t-123 391q0 361 187 628q90 130 238 207t330 76q242 0 364 -150
t122 -390zM381 508q0 -136 61 -228q60 -92 184 -94q124 0 218 66t145 170q103 210 103 444q0 154 -60 247t-182 93q-123 0 -216 -64t-147 -167q-106 -203 -106 -467z" />
    <glyph glyph-name="Odieresis" unicode="&#xd6;" horiz-adv-x="1425" 
d="M1168 1534q-130 0 -130 124q0 62 52 110t118 48t98 -30t32 -92t-52 -111t-118 -49zM696 1534q-130 0 -131 124q0 62 51 110q52 48 118 48t98 -30t32 -92t-51 -111t-117 -49zM1358 883q0 -240 -81 -443t-256 -337t-417 -134t-364 152t-123 391q0 361 187 628
q90 130 238 207t330 76q242 0 364 -150t122 -390zM381 508q0 -136 61 -228q60 -92 184 -94q124 0 218 66t145 170q103 210 103 444q0 154 -60 247t-182 93q-123 0 -216 -64t-147 -167q-106 -203 -106 -467z" />
    <glyph glyph-name="multiply" unicode="&#xd7;" 
d="M53 236l371 325l-227 320l155 135l228 -320l368 324l111 -148l-371 -325l227 -316l-157 -135l-226 316l-370 -324z" />
    <glyph glyph-name="Oslash" unicode="&#xd8;" horiz-adv-x="1425" 
d="M381 554q0 -89 8 -136l602 739q-59 49 -161 49t-196 -64q-164 -115 -226 -384q-26 -115 -27 -204zM1092 844q0 90 -13 149l-612 -745q61 -62 172 -62t205 66t145 170t77 218t26 204zM117 502q0 186 48 347q106 357 378 498q147 77 319 77t285 -74l104 127l138 -105
l-119 -145q88 -139 88 -361t-81 -426q-81 -203 -256 -337t-417 -134q-180 0 -295 86l-100 -123l-129 107l117 143q-80 134 -80 320z" />
    <glyph glyph-name="Ugrave" unicode="&#xd9;" horiz-adv-x="1341" 
d="M657 1817l5 18h270l67 -279l-4 -20h-227zM586 186q254 0 332 367l178 840h258l-183 -865q-59 -276 -202 -417t-407 -141t-366 153q-101 154 -38 452l174 818h256l-178 -840q-78 -367 176 -367z" />
    <glyph glyph-name="Uacute" unicode="&#xda;" horiz-adv-x="1341" 
d="M1221 1835l-4 -18l-230 -281h-244l5 20l186 279h287zM586 186q254 0 332 367l178 840h258l-183 -865q-59 -276 -202 -417t-407 -141t-366 153q-101 154 -38 452l174 818h256l-178 -840q-78 -367 176 -367z" />
    <glyph glyph-name="Ucircumflex" unicode="&#xdb;" horiz-adv-x="1341" 
d="M1038 1835l148 -279l-4 -20h-199l-80 162l-145 -162h-215l4 20l266 279h225zM586 186q254 0 332 367l178 840h258l-183 -865q-59 -276 -202 -417t-407 -141t-366 153q-101 154 -38 452l174 818h256l-178 -840q-78 -367 176 -367z" />
    <glyph glyph-name="Udieresis" unicode="&#xdc;" horiz-adv-x="1341" 
d="M1110 1534q-130 0 -131 124q0 62 51 110q52 48 118 48t98 -30t32 -92t-51 -111t-117 -49zM636 1534q-130 0 -130 124q0 62 51 110t117 48t99 -30q32 -30 32 -92t-51 -111q-52 -49 -118 -49zM586 186q254 0 332 367l178 840h258l-183 -865q-59 -276 -202 -417t-407 -141
t-366 153q-101 154 -38 452l174 818h256l-178 -840q-78 -367 176 -367z" />
    <glyph glyph-name="Yacute" unicode="&#xdd;" horiz-adv-x="1120" 
d="M1114 1835l-4 -18l-229 -281h-244l4 20l186 279h287zM182 1393h264l148 -598h4l401 598h285l-4 -21l-594 -807l-119 -565h-256l119 565l-252 807z" />
    <glyph glyph-name="Thorn" unicode="&#xde;" horiz-adv-x="1153" 
d="M831 784q0 168 -129 168h-194l-105 -487h195q111 0 172 97t61 222zM748 1163q178 0 265 -93q87 -94 87 -228t-28 -233q-64 -225 -244 -308q-101 -47 -234 -47h-236l-53 -254h-256l297 1393h254l-47 -230h195z" />
    <glyph glyph-name="germandbls" unicode="&#xdf;" horiz-adv-x="1204" 
d="M730 1444q186 0 290 -93t104 -229t-59 -231q-59 -94 -152 -135v-4q70 -33 118 -110t48 -175q0 -242 -141 -370t-420 -128q-63 0 -117 15l45 213q47 -10 99 -11q276 0 276 283q0 164 -198 164h-50l50 225h45q86 0 141 66t55 180q0 141 -145 141q-97 0 -153 -63t-85 -203
l-209 -979h-252l209 987q47 223 181 340t320 117z" />
    <glyph glyph-name="agrave" unicode="&#xe0;" horiz-adv-x="1134" 
d="M440 1442l4 18h254l84 -278l-4 -21h-209zM602 811q-131 0 -204 -127t-72 -293q0 -215 141 -215q74 0 174 74l109 504q-57 57 -148 57zM543 1018q134 0 260 -119h4l51 88h191l-166 -772q-6 -23 -2 -30t26 -7h72l-41 -188q-78 -14 -145 -15q-150 0 -156 113h-4
q-70 -59 -130 -89t-141 -30q-150 0 -224 110t-75 281q1 264 133 461t347 197z" />
    <glyph glyph-name="aacute" unicode="&#xe1;" horiz-adv-x="1134" 
d="M1022 1460l-4 -18l-248 -281h-225l4 21l203 278h270zM602 811q-131 0 -204 -127t-72 -293q0 -215 141 -215q74 0 174 74l109 504q-57 57 -148 57zM543 1018q134 0 260 -119h4l51 88h191l-166 -772q-6 -23 -2 -30t26 -7h72l-41 -188q-78 -14 -145 -15q-150 0 -156 113h-4
q-70 -59 -130 -89t-141 -30q-150 0 -224 110t-75 281q1 264 133 461t347 197z" />
    <glyph glyph-name="acircumflex" unicode="&#xe2;" horiz-adv-x="1134" 
d="M879 1460l104 -278l-4 -21h-199l-59 162l-127 -162h-215l4 21l223 278h273zM602 811q-131 0 -204 -127t-72 -293q0 -215 141 -215q74 0 174 74l109 504q-57 57 -148 57zM543 1018q134 0 260 -119h4l51 88h191l-166 -772q-6 -23 -2 -30t26 -7h72l-41 -188
q-78 -14 -145 -15q-150 0 -156 113h-4q-70 -59 -130 -89t-141 -30q-150 0 -224 110t-75 281q1 264 133 461t347 197z" />
    <glyph glyph-name="atilde" unicode="&#xe3;" horiz-adv-x="1134" 
d="M610 1460q57 0 130 -46t113 -46t83 20t72 50l28 -140q-96 -137 -209 -137q-55 0 -136 46t-122 46q-82 1 -143 -71l-29 143q98 135 213 135zM602 811q-131 0 -204 -127t-72 -293q0 -215 141 -215q74 0 174 74l109 504q-57 57 -148 57zM543 1018q134 0 260 -119h4l51 88
h191l-166 -772q-6 -23 -2 -30t26 -7h72l-41 -188q-78 -14 -145 -15q-150 0 -156 113h-4q-70 -59 -130 -89t-141 -30q-150 0 -224 110t-75 281q1 264 133 461t347 197z" />
    <glyph glyph-name="adieresis" unicode="&#xe4;" horiz-adv-x="1134" 
d="M536 1452q130 0 130 -124q0 -62 -52 -110t-118 -48q-130 -2 -129 122q0 62 51 111q52 49 118 49zM934 1452q132 0 131 -124q0 -62 -51 -110q-52 -48 -118 -48t-98 30t-32 92t51 111t117 49zM602 811q-131 0 -204 -127t-72 -293q0 -215 141 -215q74 0 174 74l109 504
q-57 57 -148 57zM543 1018q134 0 260 -119h4l51 88h191l-166 -772q-6 -23 -2 -30t26 -7h72l-41 -188q-78 -14 -145 -15q-150 0 -156 113h-4q-70 -59 -130 -89t-141 -30q-150 0 -224 110t-75 281q1 264 133 461t347 197z" />
    <glyph glyph-name="aring" unicode="&#xe5;" horiz-adv-x="1134" 
d="M489 1290q0 104 75 176q76 74 178 74t154 -47t52 -151t-74 -177t-176 -73t-156 47t-53 151zM641 1298q0 -63 61 -63q41 0 68 29t27 73q0 63 -60 64q-41 0 -69 -30t-27 -73zM602 811q-131 0 -204 -127t-72 -293q0 -215 141 -215q74 0 174 74l109 504q-57 57 -148 57z
M543 1018q134 0 260 -119h4l51 88h191l-166 -772q-6 -23 -2 -30t26 -7h72l-41 -188q-78 -14 -145 -15q-150 0 -156 113h-4q-70 -59 -130 -89t-141 -30q-150 0 -224 110t-75 281q1 264 133 461t347 197z" />
    <glyph glyph-name="ae" unicode="&#xe6;" horiz-adv-x="1601" 
d="M1292 688q0 147 -131 148q-82 0 -143 -73t-88 -177h346q16 53 16 102zM298 -31q-132 0 -209 68t-77 184q0 375 484 375h174l10 45q20 94 -28 132t-109 38q-121 0 -318 -78l-45 193q221 92 414 92t260 -137q138 137 316 137t264 -95t86 -237t-62 -264h-567
q-15 -112 25 -182t135 -70q129 0 280 66l39 -179q-180 -87 -376 -87t-289 180q-87 -84 -181 -132t-226 -49zM483 432q-103 0 -163 -45t-60 -129q0 -92 96 -92q88 0 170 74t107 192h-150z" />
    <glyph glyph-name="ccedilla" unicode="&#xe7;" horiz-adv-x="917" 
d="M63 379q0 275 160 457t420 182q150 0 256 -62l-72 -188q-104 43 -180 43q-131 0 -226 -112t-95 -291q0 -111 50 -171q50 -61 130 -61t205 43l28 -188q-127 -59 -270 -62l-37 -61q45 -8 71 -42t25 -81q0 -96 -64 -159q-65 -62 -164 -62t-148 24l41 129q39 -16 73 -16
q74 0 74 61q0 45 -94 45l-4 13l92 166q-131 35 -201 139t-70 254z" />
    <glyph glyph-name="egrave" unicode="&#xe8;" horiz-adv-x="1038" 
d="M467 1442l4 18h254l84 -278l-4 -21h-209zM729 682q0 154 -139 154q-84 0 -148 -74t-92 -176h363q16 41 16 96zM492 170q108 0 274 74l43 -187q-183 -88 -369 -88t-282 117t-97 293q0 256 154 447t391 192q174 0 262 -96t88 -234t-61 -266h-586q-16 -112 30 -182
q45 -70 153 -70z" />
    <glyph glyph-name="eacute" unicode="&#xe9;" horiz-adv-x="1038" 
d="M1028 1460l-4 -18l-248 -281h-225l4 21l203 278h270zM729 682q0 154 -139 154q-84 0 -148 -74t-92 -176h363q16 41 16 96zM492 170q108 0 274 74l43 -187q-183 -88 -369 -88t-282 117t-97 293q0 256 154 447t391 192q174 0 262 -96t88 -234t-61 -266h-586
q-16 -112 30 -182q45 -70 153 -70z" />
    <glyph glyph-name="ecircumflex" unicode="&#xea;" horiz-adv-x="1038" 
d="M868 1460l105 -278l-4 -21h-199l-59 162l-127 -162h-215l4 21l223 278h272zM729 682q0 154 -139 154q-84 0 -148 -74t-92 -176h363q16 41 16 96zM492 170q108 0 274 74l43 -187q-183 -88 -369 -88t-282 117t-97 293q0 256 154 447t391 192q174 0 262 -96t88 -234
t-61 -266h-586q-16 -112 30 -182q45 -70 153 -70z" />
    <glyph glyph-name="edieresis" unicode="&#xeb;" horiz-adv-x="1038" 
d="M518 1452q130 0 131 -124q0 -62 -51 -110q-52 -48 -118 -48t-98 30t-32 92t51 111t117 49zM918 1452q132 0 131 -124q1 -62 -51 -110t-118 -48q-130 -2 -130 122q0 62 51 111t117 49zM729 682q0 154 -139 154q-84 0 -148 -74t-92 -176h363q16 41 16 96zM492 170
q108 0 274 74l43 -187q-183 -88 -369 -88t-282 117t-97 293q0 256 154 447t391 192q174 0 262 -96t88 -234t-61 -266h-586q-16 -112 30 -182q45 -70 153 -70z" />
    <glyph glyph-name="igrave" unicode="&#xec;" horiz-adv-x="534" 
d="M270 0h-252l209 987h252zM164 1442l4 18h254l84 -278l-4 -21h-209z" />
    <glyph glyph-name="iacute" unicode="&#xed;" horiz-adv-x="536" 
d="M272 0h-252l209 987h252zM748 1460l-5 -18l-247 -281h-226l4 21l203 278h271z" />
    <glyph glyph-name="icircumflex" unicode="&#xee;" horiz-adv-x="534" 
d="M584 1460l104 -278l-4 -21h-199l-59 162l-127 -162h-215l4 21l223 278h273zM270 0h-252l209 987h252z" />
    <glyph glyph-name="idieresis" unicode="&#xef;" horiz-adv-x="534" 
d="M270 0h-252l209 987h252zM240 1452q130 0 131 -124q1 -62 -51 -110t-118 -48q-130 -2 -130 122q0 62 51 111t117 49zM638 1452q132 0 132 -124q0 -62 -51 -110t-117 -48t-99 30q-32 30 -32 92t51 111q50 49 116 49z" />
    <glyph glyph-name="eth" unicode="&#xf0;" horiz-adv-x="1146" 
d="M322 387q0 -207 165 -207q150 0 223 117t72 285q0 195 -172 194q-145 0 -217 -108q-71 -109 -71 -281zM1047 616q0 -274 -152 -460t-414 -187q-197 0 -307 121t-111 299q1 254 143 425t345 171q79 1 147 -23t95 -51l4 4q-25 96 -90 220l-222 -60l-30 142l188 47
q-59 98 -98 149l4 21h235q49 -80 60 -103l182 47l29 -139l-152 -35q57 -125 101 -291t43 -297z" />
    <glyph glyph-name="ntilde" unicode="&#xf1;" horiz-adv-x="1112" 
d="M598 1460q57 0 130 -46t113 -46t83 20t71 50l29 -140q-96 -137 -209 -137q-55 0 -136 46t-122 46q-82 1 -143 -71l-29 143q98 135 213 135zM742 1018q152 0 219 -104q68 -104 26 -300l-131 -614h-252l129 604q45 207 -108 207q-111 0 -201 -98l-152 -713h-252l209 987
h205l12 -94h5q139 125 291 125z" />
    <glyph glyph-name="ograve" unicode="&#xf2;" horiz-adv-x="1120" 
d="M455 1442l4 18h254l84 -278l-4 -21h-209zM1022 608q0 -266 -156 -452t-415 -187q-184 0 -286 116q-101 116 -102 296q0 265 158 451t412 186q189 0 289 -115t100 -295zM324 391q0 -102 38 -159q39 -56 111 -56q129 0 208 121t79 299q0 102 -39 158t-113 57
q-128 0 -206 -122t-78 -298z" />
    <glyph glyph-name="oacute" unicode="&#xf3;" horiz-adv-x="1120" 
d="M1044 1460l-4 -18l-247 -281h-226l4 21l203 278h270zM1022 608q0 -266 -156 -452t-415 -187q-184 0 -286 116q-101 116 -102 296q0 265 158 451t412 186q189 0 289 -115t100 -295zM324 391q0 -102 38 -159q39 -56 111 -56q129 0 208 121t79 299q0 102 -39 158t-113 57
q-128 0 -206 -122t-78 -298z" />
    <glyph glyph-name="ocircumflex" unicode="&#xf4;" horiz-adv-x="1120" 
d="M881 1460l104 -278l-4 -21h-199l-59 162l-127 -162h-215l4 21l223 278h273zM1022 608q0 -266 -156 -452t-415 -187q-184 0 -286 116q-101 116 -102 296q0 265 158 451t412 186q189 0 289 -115t100 -295zM324 391q0 -102 38 -159q39 -56 111 -56q129 0 208 121t79 299
q0 102 -39 158t-113 57q-128 0 -206 -122t-78 -298z" />
    <glyph glyph-name="otilde" unicode="&#xf5;" horiz-adv-x="1120" 
d="M602 1460q57 0 130 -46t113 -46t83 20t71 50l29 -140q-96 -137 -209 -137q-55 0 -136 46t-122 46q-82 1 -143 -71l-29 143q98 135 213 135zM1022 608q0 -266 -156 -452t-415 -187q-184 0 -286 116q-101 116 -102 296q0 265 158 451t412 186q189 0 289 -115t100 -295z
M324 391q0 -102 38 -159q39 -56 111 -56q129 0 208 121t79 299q0 102 -39 158t-113 57q-128 0 -206 -122t-78 -298z" />
    <glyph glyph-name="odieresis" unicode="&#xf6;" horiz-adv-x="1120" 
d="M534 1452q130 0 130 -124q0 -62 -52 -110t-118 -48q-130 -2 -129 122q0 62 51 111q52 49 118 49zM932 1452q132 0 131 -124q0 -62 -51 -110q-52 -48 -118 -48t-98 30t-32 92t51 111t117 49zM1022 608q0 -266 -156 -452t-415 -187q-184 0 -286 116q-101 116 -102 296
q0 265 158 451t412 186q189 0 289 -115t100 -295zM324 391q0 -102 38 -159q39 -56 111 -56q129 0 208 121t79 299q0 102 -39 158t-113 57q-128 0 -206 -122t-78 -298z" />
    <glyph glyph-name="divide" unicode="&#xf7;" 
d="M622 809q-143 -1 -143 145q-1 72 59 132t132 60t107 -37q36 -39 36 -111t-59 -130t-132 -59zM491 307q144 -1 144 -149q1 -72 -59 -130t-132 -58t-108 36q-35 36 -35 108t59 132t131 61zM117 662h948l-45 -211h-948z" />
    <glyph glyph-name="oslash" unicode="&#xf8;" horiz-adv-x="1120" 
d="M324 391v-10l370 401q-35 29 -86 29q-128 0 -206 -122t-78 -298zM760 596v20l-379 -407q33 -33 92 -33q129 0 208 121t79 299zM633 1018q131 0 223 -60l96 103l117 -113l-102 -110q55 -98 55 -230q0 -266 -156 -452t-415 -187q-137 0 -232 68l-104 -113l-109 115l109 117
q-51 96 -52 225q0 265 158 451t412 186z" />
    <glyph glyph-name="ugrave" unicode="&#xf9;" horiz-adv-x="1099" 
d="M438 1442l4 18h254l84 -278l-4 -21h-209zM442 176q88 0 197 94l154 717h251l-208 -987h-207l-15 94h-2q-44 -39 -68 -56t-83 -43t-121 -26q-164 1 -228 105t-24 299l131 614h252l-129 -604q-45 -207 100 -207z" />
    <glyph glyph-name="uacute" unicode="&#xfa;" horiz-adv-x="1099" 
d="M1030 1460l-4 -18l-248 -281h-225l4 21l203 278h270zM442 176q88 0 197 94l154 717h251l-208 -987h-207l-15 94h-2q-44 -39 -68 -56t-83 -43t-121 -26q-164 1 -228 105t-24 299l131 614h252l-129 -604q-45 -207 100 -207z" />
    <glyph glyph-name="ucircumflex" unicode="&#xfb;" horiz-adv-x="1099" 
d="M858 1460l105 -278l-5 -21h-198l-60 162l-127 -162h-215l4 21l224 278h272zM442 176q88 0 197 94l154 717h251l-208 -987h-207l-15 94h-2q-44 -39 -68 -56t-83 -43t-121 -26q-164 1 -228 105t-24 299l131 614h252l-129 -604q-45 -207 100 -207z" />
    <glyph glyph-name="udieresis" unicode="&#xfc;" horiz-adv-x="1099" 
d="M520 1452q132 0 132 -124q0 -62 -52 -110t-118 -48t-98 30t-32 92t51 111t117 49zM920 1452q132 0 131 -124q1 -62 -51 -110t-118 -48q-130 -2 -130 122q0 62 51 111t117 49zM442 176q88 0 197 94l154 717h251l-208 -987h-207l-15 94h-2q-44 -39 -68 -56t-83 -43
t-121 -26q-164 1 -228 105t-24 299l131 614h252l-129 -604q-45 -207 100 -207z" />
    <glyph glyph-name="yacute" unicode="&#xfd;" horiz-adv-x="1001" 
d="M985 1460l-4 -18l-248 -281h-225l4 21l203 278h270zM39 -436q-84 0 -178 24l39 185q84 -19 133 -19t88 32t80 110l63 114l-147 957l4 20h246l45 -545l4 -204h6l90 204l268 545h269l-5 -20l-634 -1135q-150 -268 -371 -268z" />
    <glyph glyph-name="thorn" unicode="&#xfe;" horiz-adv-x="1122" 
d="M475 176q131 0 208 128t77 292q0 98 -38 156t-115 59q-77 0 -181 -74l-107 -504q55 -57 156 -57zM1024 629q0 -262 -137 -461t-355 -199q-135 0 -241 103h-4l-103 -478h-252l392 1840h251l-110 -519h4q119 103 257 103t218 -111t80 -278z" />
    <glyph glyph-name="ydieresis" unicode="&#xff;" horiz-adv-x="1001" 
d="M478 1452q132 0 130 -124q0 -62 -51 -110t-117 -48t-99 30q-32 30 -32 92t51 111q52 49 118 49zM876 1452q132 0 132 -124q0 -62 -52 -110t-118 -48q-130 -2 -129 122q0 62 51 111q50 49 116 49zM39 -436q-84 0 -178 24l39 185q84 -19 133 -19t88 32t80 110l63 114
l-147 957l4 20h246l45 -545l4 -204h6l90 204l268 545h269l-5 -20l-634 -1135q-150 -268 -371 -268z" />
    <glyph glyph-name="Amacron" unicode="&#x100;" horiz-adv-x="1243" 
d="M1094 1554h-527l45 211h527zM758 1167h-6l-170 -374l-142 -285h348l-22 285zM944 1393l156 -1393h-266l-17 305h-487l-150 -305h-280l743 1393h301z" />
    <glyph glyph-name="amacron" unicode="&#x101;" horiz-adv-x="1134" 
d="M954 1186h-526l45 211h526zM602 811q-131 0 -204 -127t-72 -293q0 -215 141 -215q74 0 174 74l109 504q-57 57 -148 57zM543 1018q134 0 260 -119h4l51 88h191l-166 -772q-6 -23 -2 -30t26 -7h72l-41 -188q-78 -14 -145 -15q-150 0 -156 113h-4q-70 -59 -130 -89
t-141 -30q-150 0 -224 110t-75 281q1 264 133 461t347 197z" />
    <glyph glyph-name="Abreve" unicode="&#x102;" horiz-adv-x="1243" 
d="M866 1755q127 0 256 70l35 -160q-154 -129 -321 -129t-277 143l82 146q98 -70 225 -70zM758 1167h-6l-170 -374l-142 -285h348l-22 285zM944 1393l156 -1393h-266l-17 305h-487l-150 -305h-280l743 1393h301z" />
    <glyph glyph-name="abreve" unicode="&#x103;" horiz-adv-x="1134" 
d="M724 1380q130 0 255 70l35 -160q-154 -129 -321 -129t-277 144l84 145q94 -70 224 -70zM602 811q-131 0 -204 -127t-72 -293q0 -215 141 -215q74 0 174 74l109 504q-57 57 -148 57zM543 1018q134 0 260 -119h4l51 88h191l-166 -772q-6 -23 -2 -30t26 -7h72l-41 -188
q-78 -14 -145 -15q-150 0 -156 113h-4q-70 -59 -130 -89t-141 -30q-150 0 -224 110t-75 281q1 264 133 461t347 197z" />
    <glyph glyph-name="Aogonek" unicode="&#x104;" horiz-adv-x="1243" 
d="M758 1167h-6l-170 -374l-142 -285h348l-22 285zM838 -436q-93 0 -144 54t-51 134t50 137t141 113l-17 303h-487l-150 -305h-280l743 1393h301l156 -1393q-124 -25 -186 -83q-62 -59 -62 -117t56 -58t110 37l-4 -164q-83 -51 -176 -51z" />
    <glyph glyph-name="aogonek" unicode="&#x105;" horiz-adv-x="1134" 
d="M602 811q-131 0 -204 -127t-72 -293q0 -215 141 -215q74 0 174 74l109 504q-57 57 -148 57zM543 1018q134 0 260 -119h4l51 88h191l-166 -772q-6 -23 -2 -30t26 -7h72l-41 -188q-168 -74 -168 -183q0 -66 61 -65q53 0 107 37l-6 -164q-82 -51 -177 -51t-146 50
q-50 50 -50 126q0 150 172 242q-90 18 -94 106h-4q-70 -59 -130 -89t-141 -30q-150 0 -224 110t-75 281q1 264 133 461t347 197z" />
    <glyph glyph-name="Cacute" unicode="&#x106;" horiz-adv-x="1148" 
d="M1249 1835l-4 -18l-229 -281h-244l4 20l187 279h286zM117 516q0 387 209 647t551 260q180 0 331 -90l-88 -194q-111 68 -268 67q-190 0 -329 -195q-138 -196 -138 -462q0 -164 67 -263t183 -100q158 0 297 68l47 -195q-190 -90 -371 -90q-236 -1 -364 149t-127 398z" />
    <glyph glyph-name="cacute" unicode="&#x107;" horiz-adv-x="917" 
d="M1042 1460l-4 -18l-247 -281h-226l4 21l203 278h270zM63 379q0 275 160 457t420 182q150 0 256 -62l-72 -188q-104 43 -180 43q-131 0 -226 -112t-95 -291q0 -111 50 -171q50 -61 130 -61t205 43l28 -188q-137 -61 -278 -62q-188 0 -293 113t-105 297z" />
    <glyph glyph-name="Ccircumflex" unicode="&#x108;" horiz-adv-x="1148" 
d="M1083 1835l148 -279l-4 -20h-199l-80 162l-145 -162h-215l4 20l266 279h225zM117 516q0 387 209 647t551 260q180 0 331 -90l-88 -194q-111 68 -268 67q-190 0 -329 -195q-138 -196 -138 -462q0 -164 67 -263t183 -100q158 0 297 68l47 -195q-190 -90 -371 -90
q-236 -1 -364 149t-127 398z" />
    <glyph glyph-name="ccircumflex" unicode="&#x109;" horiz-adv-x="917" 
d="M860 1460l105 -278l-4 -21h-199l-60 162l-127 -162h-215l5 21l223 278h272zM63 379q0 275 160 457t420 182q150 0 256 -62l-72 -188q-104 43 -180 43q-131 0 -226 -112t-95 -291q0 -111 50 -171q50 -61 130 -61t205 43l28 -188q-137 -61 -278 -62q-188 0 -293 113
t-105 297z" />
    <glyph glyph-name="Cdotaccent" unicode="&#x10a;" horiz-adv-x="1148" 
d="M799 1658q0 62 51 110q52 48 118 48t98 -30t32 -92t-51 -111t-117 -49q-130 0 -131 124zM117 516q0 387 209 647t551 260q180 0 331 -90l-88 -194q-111 68 -268 67q-190 0 -329 -195q-138 -196 -138 -462q0 -164 67 -263t183 -100q158 0 297 68l47 -195
q-190 -90 -371 -90q-236 -1 -364 149t-127 398z" />
    <glyph glyph-name="cdotaccent" unicode="&#x10b;" horiz-adv-x="917" 
d="M710 1450q130 0 130 -124q0 -62 -52 -110t-118 -48q-130 -2 -129 122q0 62 51 111q52 49 118 49zM63 379q0 275 160 457t420 182q150 0 256 -62l-72 -188q-104 43 -180 43q-131 0 -226 -112t-95 -291q0 -111 50 -171q50 -61 130 -61t205 43l28 -188q-137 -61 -278 -62
q-188 0 -293 113t-105 297z" />
    <glyph glyph-name="Ccaron" unicode="&#x10c;" horiz-adv-x="1148" 
d="M797 1536l-148 279l4 20h199l80 -162l145 162h215l-4 -20l-266 -279h-225zM117 516q0 387 209 647t551 260q180 0 331 -90l-88 -194q-111 68 -268 67q-190 0 -329 -195q-138 -196 -138 -462q0 -164 67 -263t183 -100q158 0 297 68l47 -195q-190 -90 -371 -90
q-236 -1 -364 149t-127 398z" />
    <glyph glyph-name="ccaron" unicode="&#x10d;" horiz-adv-x="917" 
d="M524 1161l-104 279l4 20h199l59 -162l129 162h213l-4 -20l-223 -279h-273zM63 379q0 275 160 457t420 182q150 0 256 -62l-72 -188q-104 43 -180 43q-131 0 -226 -112t-95 -291q0 -111 50 -171q50 -61 130 -61t205 43l28 -188q-137 -61 -278 -62q-188 0 -293 113
t-105 297z" />
    <glyph glyph-name="Dcaron" unicode="&#x10e;" horiz-adv-x="1316" 
d="M700 1536l-147 279l4 20h199l80 -162l145 162h215l-4 -20l-266 -279h-226zM457 211q522 0 522 670q0 153 -73 227t-242 74h-107l-207 -971h107zM713 1393q530 0 530 -494q0 -899 -786 -899h-408l297 1393h367z" />
    <glyph glyph-name="dcaron" unicode="&#x10f;" horiz-adv-x="1124" 
d="M1165 1053l4 20l113 320h258l-4 -21l-176 -319h-195zM612 811q-131 0 -209 -128t-77 -292q0 -96 38 -155q38 -60 118 -60t180 74l108 504q-57 57 -158 57zM372 -31q-146 0 -228 112q-81 112 -81 281q1 260 139 458t353 198q152 0 246 -103h2l110 519h252l-305 -1434h-186
l-17 88h-4q-135 -119 -281 -119z" />
    <glyph glyph-name="Dcroat" unicode="&#x110;" horiz-adv-x="1318" 
d="M459 211q522 0 522 670q0 153 -73 227t-242 74h-107l-84 -389h199l-45 -211h-199l-78 -371h107zM715 1393q530 0 530 -494q0 -899 -786 -899h-408l123 582h-96l45 211h96l129 600h367z" />
    <glyph glyph-name="dcroat" unicode="&#x111;" horiz-adv-x="1124" 
d="M612 811q-131 0 -209 -128t-77 -292q0 -96 38 -155q38 -60 118 -60t180 74l108 504q-57 57 -158 57zM372 -31q-146 0 -228 112q-81 112 -81 281q1 260 139 458t353 198q152 0 246 -103h2l43 203h-189l39 191h191l26 125h252l-26 -125h84l-41 -191h-84l-238 -1118h-186
l-17 88h-4q-135 -119 -281 -119z" />
    <glyph glyph-name="Emacron" unicode="&#x112;" horiz-adv-x="1116" 
d="M1053 1554h-527l45 211h527zM346 1393h825l-45 -211h-569l-80 -371h510l-45 -211h-510l-82 -389h576l-43 -211h-834z" />
    <glyph glyph-name="emacron" unicode="&#x113;" horiz-adv-x="1038" 
d="M938 1186h-526l45 211h526zM729 682q0 154 -139 154q-84 0 -148 -74t-92 -176h363q16 41 16 96zM492 170q108 0 274 74l43 -187q-183 -88 -369 -88t-282 117t-97 293q0 256 154 447t391 192q174 0 262 -96t88 -234t-61 -266h-586q-16 -112 30 -182q45 -70 153 -70z" />
    <glyph glyph-name="Ebreve" unicode="&#x114;" horiz-adv-x="1116" 
d="M836 1755q127 0 256 70l34 -160q-154 -129 -320 -129t-278 143l82 146q99 -70 226 -70zM346 1393h825l-45 -211h-569l-80 -371h510l-45 -211h-510l-82 -389h576l-43 -211h-834z" />
    <glyph glyph-name="ebreve" unicode="&#x115;" horiz-adv-x="1038" 
d="M716 1380q130 0 255 70l35 -160q-154 -129 -321 -129t-277 144l84 145q94 -70 224 -70zM729 682q0 154 -139 154q-84 0 -148 -74t-92 -176h363q16 41 16 96zM492 170q108 0 274 74l43 -187q-183 -88 -369 -88t-282 117t-97 293q0 256 154 447t391 192q174 0 262 -96
t88 -234t-61 -266h-586q-16 -112 30 -182q45 -70 153 -70z" />
    <glyph glyph-name="Edotaccent" unicode="&#x116;" horiz-adv-x="1116" 
d="M806 1534q-130 0 -130 124q0 62 51 110t117 48t99 -30q32 -30 32 -92t-51 -111q-52 -49 -118 -49zM346 1393h825l-45 -211h-569l-80 -371h510l-45 -211h-510l-82 -389h576l-43 -211h-834z" />
    <glyph glyph-name="edotaccent" unicode="&#x117;" horiz-adv-x="1038" 
d="M720 1450q130 0 130 -124q0 -62 -51 -110t-117 -48t-99 30q-32 30 -32 92t51 111q52 49 118 49zM729 682q0 154 -139 154q-84 0 -148 -74t-92 -176h363q16 41 16 96zM492 170q108 0 274 74l43 -187q-183 -88 -369 -88t-282 117t-97 293q0 256 154 447t391 192
q174 0 262 -96t88 -234t-61 -266h-586q-16 -112 30 -182q45 -70 153 -70z" />
    <glyph glyph-name="Eogonek" unicode="&#x118;" horiz-adv-x="1116" 
d="M664 -436q-91 0 -140 50t-49 118t34 122t70 83t93 63h-623l297 1393h825l-45 -211h-569l-80 -371h510l-45 -211h-510l-82 -389h576l-43 -211q-77 -27 -139 -87q-62 -59 -62 -115t58 -56t108 37l-6 -164q-87 -51 -178 -51z" />
    <glyph glyph-name="eogonek" unicode="&#x119;" horiz-adv-x="1038" 
d="M729 682q0 154 -139 154q-84 0 -148 -74t-92 -176h363q16 41 16 96zM463 -31h-27q-182 0 -278 117t-97 293q0 256 154 447t391 192q174 0 262 -96t88 -234t-61 -266h-586q-16 -112 30 -182q45 -70 153 -70t274 74l43 -187q-8 -4 -37 -16q-89 -37 -155 -106
q-66 -70 -66 -132t61 -61q53 0 107 37l-6 -164q-81 -51 -177 -51t-146 50t-50 126q0 125 123 225v4z" />
    <glyph glyph-name="Ecaron" unicode="&#x11a;" horiz-adv-x="1116" 
d="M688 1536l-147 279l4 20h198l80 -162l146 162h215l-4 -20l-267 -279h-225zM346 1393h825l-45 -211h-569l-80 -371h510l-45 -211h-510l-82 -389h576l-43 -211h-834z" />
    <glyph glyph-name="ecaron" unicode="&#x11b;" horiz-adv-x="1038" 
d="M532 1161l-104 279l4 20h199l59 -162l129 162h213l-4 -20l-223 -279h-273zM729 682q0 154 -139 154q-84 0 -148 -74t-92 -176h363q16 41 16 96zM492 170q108 0 274 74l43 -187q-183 -88 -369 -88t-282 117t-97 293q0 256 154 447t391 192q174 0 262 -96t88 -234t-61 -266
h-586q-16 -112 30 -182q45 -70 153 -70z" />
    <glyph glyph-name="Gcircumflex" unicode="&#x11c;" horiz-adv-x="1292" 
d="M1077 1835l148 -279l-4 -20h-199l-80 162l-145 -162h-215l4 20l266 279h225zM604 -31q-242 0 -366 153q-123 152 -123 392t86 442t268 335q181 132 411 132t412 -104l-92 -197q-150 84 -328 84q-125 0 -222 -59t-155 -157q-118 -200 -118 -468q0 -156 61 -246
q62 -90 188 -90t214 43l61 293l-209 37l37 174h473l-135 -651q-221 -113 -463 -113z" />
    <glyph glyph-name="gcircumflex" unicode="&#x11d;" horiz-adv-x="1122" 
d="M905 1460l105 -278l-4 -21h-199l-59 162l-127 -162h-215l4 21l223 278h272zM346 -436q-198 0 -340 92l92 178q119 -80 252 -80q203 0 256 252l17 76h-5q-111 -98 -252 -98t-222 108t-81 275q1 259 137 455t353 196q150 0 270 -121h4l52 90h188l-205 -964
q-47 -219 -182 -339q-136 -120 -334 -120zM610 811q-133 0 -208 -126t-74 -288q0 -207 149 -207q89 0 185 70l104 494q-55 57 -156 57z" />
    <glyph glyph-name="Gbreve" unicode="&#x11e;" horiz-adv-x="1292" 
d="M946 1755q127 0 256 70l35 -160q-154 -129 -321 -129t-277 143l82 146q98 -70 225 -70zM604 -31q-242 0 -366 153q-123 152 -123 392t86 442t268 335q181 132 411 132t412 -104l-92 -197q-150 84 -328 84q-125 0 -222 -59t-155 -157q-118 -200 -118 -468q0 -156 61 -246
q62 -90 188 -90t214 43l61 293l-209 37l37 174h473l-135 -651q-221 -113 -463 -113z" />
    <glyph glyph-name="gbreve" unicode="&#x11f;" horiz-adv-x="1122" 
d="M744 1380q130 0 255 70l35 -160q-154 -129 -320 -129t-278 144l84 145q94 -70 224 -70zM346 -436q-198 0 -340 92l92 178q119 -80 252 -80q203 0 256 252l17 76h-5q-111 -98 -252 -98t-222 108t-81 275q1 259 137 455t353 196q150 0 270 -121h4l52 90h188l-205 -964
q-47 -219 -182 -339q-136 -120 -334 -120zM610 811q-133 0 -208 -126t-74 -288q0 -207 149 -207q89 0 185 70l104 494q-55 57 -156 57z" />
    <glyph glyph-name="Gdotaccent" unicode="&#x120;" horiz-adv-x="1292" 
d="M916 1534q-130 0 -130 124q0 62 52 110t118 48t98 -30t32 -92t-52 -111t-118 -49zM604 -31q-242 0 -366 153q-123 152 -123 392t86 442t268 335q181 132 411 132t412 -104l-92 -197q-150 84 -328 84q-125 0 -222 -59t-155 -157q-118 -200 -118 -468q0 -156 61 -246
q62 -90 188 -90t214 43l61 293l-209 37l37 174h473l-135 -651q-221 -113 -463 -113z" />
    <glyph glyph-name="gdotaccent" unicode="&#x121;" horiz-adv-x="1122" 
d="M754 1450q130 0 131 -124q0 -62 -51 -110q-52 -48 -118 -48q-130 -2 -130 122q0 62 51 111t117 49zM346 -436q-198 0 -340 92l92 178q119 -80 252 -80q203 0 256 252l17 76h-5q-111 -98 -252 -98t-222 108t-81 275q1 259 137 455t353 196q150 0 270 -121h4l52 90h188
l-205 -964q-47 -219 -182 -339q-136 -120 -334 -120zM610 811q-133 0 -208 -126t-74 -288q0 -207 149 -207q89 0 185 70l104 494q-55 57 -156 57z" />
    <glyph glyph-name="Gcommaaccent" unicode="&#x122;" horiz-adv-x="1292" 
d="M317 -446l117 340h250l-4 -21l-176 -319h-187zM604 -31q-242 0 -366 153q-123 152 -123 392t86 442t268 335q181 132 411 132t412 -104l-92 -197q-150 84 -328 84q-125 0 -222 -59t-155 -157q-118 -200 -118 -468q0 -156 61 -246q62 -90 188 -90t214 43l61 293l-209 37
l37 174h473l-135 -651q-221 -113 -463 -113z" />
    <glyph glyph-name="gcommaaccent" unicode="&#x123;" horiz-adv-x="1122" 
d="M940 1481l-4 -21l-115 -319h-248l5 20l176 320h186zM346 -436q-198 0 -340 92l92 178q119 -80 252 -80q203 0 256 252l17 76h-5q-111 -98 -252 -98t-222 108t-81 275q1 259 137 455t353 196q150 0 270 -121h4l52 90h188l-205 -964q-47 -219 -182 -339
q-136 -120 -334 -120zM610 811q-133 0 -208 -126t-74 -288q0 -207 149 -207q89 0 185 70l104 494q-55 57 -156 57z" />
    <glyph glyph-name="Hcircumflex" unicode="&#x124;" horiz-adv-x="1366" 
d="M1053 1835l147 -279l-4 -20h-199l-79 162l-146 -162h-215l4 20l266 279h226zM815 0l127 600h-510l-127 -600h-256l297 1393h256l-125 -582h510l123 582h256l-295 -1393h-256z" />
    <glyph glyph-name="hcircumflex" unicode="&#x125;" horiz-adv-x="1110" 
d="M934 1835l147 -279l-4 -20h-198l-80 162l-146 -162h-215l4 20l267 279h225zM623 811q-104 0 -199 -98l-154 -713h-252l306 1434h251l-112 -527h4q133 111 260 111q165 0 233 -104t27 -296l-133 -618h-252l129 604q45 207 -108 207z" />
    <glyph glyph-name="Hbar" unicode="&#x126;" horiz-adv-x="1370" 
d="M481 811h510l43 203h-510zM1386 1014h-96l-215 -1014h-256l127 600h-510l-127 -600h-256l215 1014h-94l45 211h94l37 168h256l-37 -168h510l35 168h256l-35 -168h97z" />
    <glyph glyph-name="hbar" unicode="&#x127;" horiz-adv-x="1110" 
d="M623 811q-104 0 -199 -98l-154 -713h-252l238 1116h-86l39 191h88l27 127h251l-26 -127h186l-41 -191h-186l-45 -209h4q133 111 260 111q165 0 233 -104t27 -296l-133 -618h-252l129 604q45 207 -108 207z" />
    <glyph glyph-name="Itilde" unicode="&#x128;" horiz-adv-x="600" 
d="M422 1837q57 0 130 -46t113 -46t83 19t71 51l29 -140q-96 -137 -209 -137q-55 0 -136 46t-122 46q-82 1 -143 -71l-29 143q98 135 213 135zM602 1393l-297 -1393h-256l297 1393h256z" />
    <glyph glyph-name="itilde" unicode="&#x129;" horiz-adv-x="534" 
d="M270 0h-252l209 987h252zM311 1460q57 0 130 -46t113 -46t83 20t72 50l28 -140q-96 -137 -209 -137q-55 0 -136 46t-122 46q-82 1 -143 -71l-29 143q98 135 213 135z" />
    <glyph glyph-name="Imacron" unicode="&#x12a;" horiz-adv-x="600" 
d="M762 1554h-526l45 211h526zM602 1393l-297 -1393h-256l297 1393h256z" />
    <glyph glyph-name="imacron" unicode="&#x12b;" horiz-adv-x="534" 
d="M270 0h-252l209 987h252zM657 1186h-526l45 211h526z" />
    <glyph glyph-name="Ibreve" unicode="&#x12c;" horiz-adv-x="600" 
d="M539 1755q127 0 256 70l34 -160q-155 -129 -321 -129t-277 143l82 146q99 -70 226 -70zM602 1393l-297 -1393h-256l297 1393h256z" />
    <glyph glyph-name="ibreve" unicode="&#x12d;" horiz-adv-x="534" 
d="M270 0h-252l209 987h252zM429 1380q130 0 255 70l35 -160q-154 -129 -321 -129t-277 144l84 145q94 -70 224 -70z" />
    <glyph glyph-name="Iogonek" unicode="&#x12e;" horiz-adv-x="600" 
d="M64 -436q-93 0 -143 50t-50 132t47 141t131 113l297 1393h256l-297 -1393q-105 -27 -165 -85q-60 -57 -60 -115t57 -58t107 37l-4 -164q-83 -51 -176 -51z" />
    <glyph glyph-name="iogonek" unicode="&#x12f;" horiz-adv-x="536" 
d="M444 1450q132 0 132 -124q0 -62 -53 -110t-119 -48t-98 30t-32 92t52 111t118 49zM32 -436q-93 0 -144 50q-50 50 -50 128q0 143 180 260l211 985h252l-211 -987q-104 -27 -164 -85q-60 -57 -59 -115q0 -58 57 -58t107 37l-4 -164q-82 -51 -175 -51z" />
    <glyph glyph-name="Idotaccent" unicode="&#x130;" horiz-adv-x="600" 
d="M510 1534q-130 0 -131 124q0 62 51 110q52 48 118 48t98 -30t32 -92t-51 -111t-117 -49zM602 1393l-297 -1393h-256l297 1393h256z" />
    <glyph glyph-name="dotlessi" unicode="&#x131;" horiz-adv-x="536" 
d="M272 0h-252l209 987h252z" />
    <glyph glyph-name="IJ" unicode="&#x132;" horiz-adv-x="1519" 
d="M840 -31q-98 1 -180 43t-128 103l154 178q31 -37 48 -54t54 -35t82 -18q147 0 199 240l205 967h256l-213 -1004q-90 -420 -477 -420zM602 1393l-297 -1393h-256l297 1393h256z" />
    <glyph glyph-name="ij" unicode="&#x133;" horiz-adv-x="1075" 
d="M944 1167q-130 -1 -131 123q0 62 51 111q50 49 116 49q132 0 132 -124q0 -62 -51 -111q-51 -48 -117 -48zM416 -436q-78 0 -142 14l41 191q49 -14 91 -15q98 0 129 144l231 1089h254l-232 -1087q-72 -336 -372 -336zM446 1450q132 0 130 -124q0 -62 -52 -110t-118 -48
t-98 30t-32 92t52 111t118 49zM272 0h-252l209 987h252z" />
    <glyph glyph-name="Jcircumflex" unicode="&#x134;" horiz-adv-x="919" 
d="M1016 1835l147 -279l-4 -20h-198l-80 162l-146 -162h-215l4 20l267 279h225zM240 -31q-98 1 -180 43t-128 103l154 178q31 -37 48 -54t54 -35t82 -18q147 0 199 240l205 967h256l-213 -1004q-90 -420 -477 -420z" />
    <glyph glyph-name="jcircumflex" unicode="&#x135;" horiz-adv-x="534" 
d="M588 1460l104 -278l-4 -21h-199l-59 162l-127 -162h-215l4 21l223 278h273zM-123 -436q-78 0 -141 14l41 191q51 -14 90 -15q98 0 129 144l231 1089h254l-231 -1087q-72 -336 -373 -336z" />
    <glyph glyph-name="Kcommaaccent" unicode="&#x136;" horiz-adv-x="1206" 
d="M219 -446l4 20l113 320h250l-4 -21l-176 -319h-187zM442 627h-4l-133 -627h-256l297 1393h256l-145 -676h4l569 676h301l-4 -21l-629 -715l365 -637l-4 -20h-283z" />
    <glyph glyph-name="kcommaaccent" unicode="&#x137;" horiz-adv-x="1015" 
d="M135 -446l4 20l113 320h250l-4 -21l-176 -319h-187zM373 459h-4l-99 -459h-252l306 1434h251l-190 -891h4l379 444h289l-4 -18l-430 -486l243 -463l-4 -20h-270z" />
    <glyph glyph-name="kgreenlandic" unicode="&#x138;" horiz-adv-x="1017" 
d="M373 453h-4l-97 -453h-252l209 987h252l-94 -450h4l377 450h291l-4 -18l-439 -490l252 -459l-4 -20h-272z" />
    <glyph glyph-name="Lacute" unicode="&#x139;" horiz-adv-x="1005" 
d="M852 1835l-4 -18l-230 -281h-243l4 20l186 279h287zM346 1393h256l-250 -1172h527l-48 -221h-782z" />
    <glyph glyph-name="lacute" unicode="&#x13a;" horiz-adv-x="534" 
d="M813 1835l-4 -18l-229 -281h-244l4 20l186 279h287zM270 0h-252l306 1434h251z" />
    <glyph glyph-name="Lcommaaccent" unicode="&#x13b;" horiz-adv-x="1005" 
d="M180 -446l4 20l113 320h250l-4 -21l-176 -319h-187zM346 1393h256l-250 -1172h527l-48 -221h-782z" />
    <glyph glyph-name="lcommaaccent" unicode="&#x13c;" horiz-adv-x="534" 
d="M-131 -446l4 20l113 320h250l-5 -21l-176 -319h-186zM270 0h-252l306 1434h251z" />
    <glyph glyph-name="Lcaron" unicode="&#x13d;" horiz-adv-x="1005" 
d="M670 1053l4 20l112 320h258l-4 -21l-176 -319h-194zM346 1393h256l-250 -1172h527l-48 -221h-782z" />
    <glyph glyph-name="lcaron" unicode="&#x13e;" horiz-adv-x="534" 
d="M567 1053l4 20l113 320h258l-4 -21l-176 -319h-195zM270 0h-252l306 1434h251z" />
    <glyph glyph-name="Ldot" unicode="&#x13f;" horiz-adv-x="1009" 
d="M823 901q144 -1 144 -149q1 -72 -59 -130t-132 -58t-108 36q-35 36 -35 108t59 132t131 61zM346 1393h256l-250 -1172h527l-48 -221h-782z" />
    <glyph glyph-name="ldot" unicode="&#x140;" horiz-adv-x="735" 
d="M690 901q144 -1 144 -149q0 -72 -60 -130t-132 -58t-107 36t-35 108t59 132t131 61zM270 0h-252l306 1434h251z" />
    <glyph glyph-name="Lslash" unicode="&#x141;" horiz-adv-x="1032" 
d="M375 1393h256l-111 -514l219 110h17l-47 -223l-238 -121l-90 -424h528l-47 -221h-784l108 504l-141 -72h-18l47 223l162 82z" />
    <glyph glyph-name="lslash" unicode="&#x142;" horiz-adv-x="659" 
d="M317 0h-251l104 487l-121 -59h-18l47 223l141 70l152 713h252l-121 -572l160 82h18l-47 -223l-180 -92z" />
    <glyph glyph-name="Nacute" unicode="&#x143;" horiz-adv-x="1394" 
d="M1239 1835l-4 -18l-229 -281h-244l4 20l186 279h287zM946 342h6l21 270l166 781h256l-295 -1393h-262l-340 1049h-6l-21 -271l-166 -778h-256l297 1393h262z" />
    <glyph glyph-name="nacute" unicode="&#x144;" horiz-adv-x="1112" 
d="M1051 1460l-4 -18l-248 -281h-226l5 21l202 278h271zM742 1018q152 0 219 -104q68 -104 26 -300l-131 -614h-252l129 604q45 207 -108 207q-111 0 -201 -98l-152 -713h-252l209 987h205l12 -94h5q139 125 291 125z" />
    <glyph glyph-name="Ncommaaccent" unicode="&#x145;" horiz-adv-x="1394" 
d="M299 -446l4 20l113 320h250l-4 -21l-177 -319h-186zM946 342h6l21 270l166 781h256l-295 -1393h-262l-340 1049h-6l-21 -271l-166 -778h-256l297 1393h262z" />
    <glyph glyph-name="ncommaaccent" unicode="&#x146;" horiz-adv-x="1112" 
d="M166 -446l4 20l113 320h249l-4 -21l-176 -319h-186zM742 1018q152 0 219 -104q68 -104 26 -300l-131 -614h-252l129 604q45 207 -108 207q-111 0 -201 -98l-152 -713h-252l209 987h205l12 -94h5q139 125 291 125z" />
    <glyph glyph-name="Ncaron" unicode="&#x147;" horiz-adv-x="1394" 
d="M786 1536l-147 279l4 20h199l80 -162l145 162h215l-4 -20l-266 -279h-226zM946 342h6l21 270l166 781h256l-295 -1393h-262l-340 1049h-6l-21 -271l-166 -778h-256l297 1393h262z" />
    <glyph glyph-name="ncaron" unicode="&#x148;" horiz-adv-x="1112" 
d="M553 1161l-104 279l4 20h198l60 -162l129 162h213l-4 -20l-224 -279h-272zM742 1018q152 0 219 -104q68 -104 26 -300l-131 -614h-252l129 604q45 207 -108 207q-111 0 -201 -98l-152 -713h-252l209 987h205l12 -94h5q139 125 291 125z" />
    <glyph glyph-name="napostrophe" unicode="&#x149;" horiz-adv-x="1110" 
d="M37 1053l4 20l113 320h258l-4 -21l-177 -319h-194zM740 1018q152 0 218 -104q68 -104 27 -300l-131 -614h-252l129 604q45 207 -108 207q-111 0 -201 -98l-152 -713h-252l209 987h205l12 -94h5q139 125 291 125z" />
    <glyph glyph-name="Eng" unicode="&#x14a;" horiz-adv-x="1394" 
d="M711 -436q-80 0 -146 14l41 191q43 -14 103 -15q84 0 114 144l23 108l-342 1051h-6l-27 -279l-166 -778h-256l297 1393h270l326 -1053h6l25 272l166 781h258l-316 -1481q-76 -348 -370 -348z" />
    <glyph glyph-name="eng" unicode="&#x14b;" horiz-adv-x="1112" 
d="M731 1018q161 0 229 -104t29 -293l-151 -709q-76 -348 -371 -348q-82 0 -145 14l40 191q43 -14 107 -15q84 0 115 144l149 706q45 207 -108 207q-109 0 -199 -94l-154 -717h-252l209 987h205l12 -94h5q47 39 71 57t85 43q60 25 124 25z" />
    <glyph glyph-name="Omacron" unicode="&#x14c;" horiz-adv-x="1425" 
d="M1186 1554h-527l46 211h526zM1358 883q0 -240 -81 -443t-256 -337t-417 -134t-364 152t-123 391q0 361 187 628q90 130 238 207t330 76q242 0 364 -150t122 -390zM381 508q0 -136 61 -228q60 -92 184 -94q124 0 218 66t145 170q103 210 103 444q0 154 -60 247t-182 93
q-123 0 -216 -64t-147 -167q-106 -203 -106 -467z" />
    <glyph glyph-name="omacron" unicode="&#x14d;" horiz-adv-x="1120" 
d="M948 1186h-526l45 211h526zM1022 608q0 -266 -156 -452t-415 -187q-184 0 -286 116q-101 116 -102 296q0 265 158 451t412 186q189 0 289 -115t100 -295zM324 391q0 -102 38 -159q39 -56 111 -56q129 0 208 121t79 299q0 102 -39 158t-113 57q-128 0 -206 -122t-78 -298z
" />
    <glyph glyph-name="Obreve" unicode="&#x14e;" horiz-adv-x="1425" 
d="M960 1755q127 0 257 70l34 -160q-155 -129 -321 -129t-277 143l82 146q98 -70 225 -70zM1358 883q0 -240 -81 -443t-256 -337t-417 -134t-364 152t-123 391q0 361 187 628q90 130 238 207t330 76q242 0 364 -150t122 -390zM381 508q0 -136 61 -228q60 -92 184 -94
q124 0 218 66t145 170q103 210 103 444q0 154 -60 247t-182 93q-123 0 -216 -64t-147 -167q-106 -203 -106 -467z" />
    <glyph glyph-name="obreve" unicode="&#x14f;" horiz-adv-x="1120" 
d="M718 1380q130 0 255 70l35 -160q-154 -129 -321 -129t-277 144l84 145q94 -70 224 -70zM1022 608q0 -266 -156 -452t-415 -187q-184 0 -286 116q-101 116 -102 296q0 265 158 451t412 186q189 0 289 -115t100 -295zM324 391q0 -102 38 -159q39 -56 111 -56q129 0 208 121
t79 299q0 102 -39 158t-113 57q-128 0 -206 -122t-78 -298z" />
    <glyph glyph-name="Ohungarumlaut" unicode="&#x150;" horiz-adv-x="1425" 
d="M1487 1835l-4 -20l-246 -279h-225l4 20l205 279h266zM1104 1835l-4 -20l-246 -279h-225l4 20l203 279h268zM1358 883q0 -240 -81 -443t-256 -337t-417 -134t-364 152t-123 391q0 361 187 628q90 130 238 207t330 76q242 0 364 -150t122 -390zM381 508q0 -136 61 -228
q60 -92 184 -94q124 0 218 66t145 170q103 210 103 444q0 154 -60 247t-182 93q-123 0 -216 -64t-147 -167q-106 -203 -106 -467z" />
    <glyph glyph-name="ohungarumlaut" unicode="&#x151;" horiz-adv-x="1120" 
d="M1229 1460l-4 -18l-246 -281h-225l4 21l205 278h266zM846 1460l-4 -18l-246 -281h-225l4 21l203 278h268zM1022 608q0 -266 -156 -452t-415 -187q-184 0 -286 116q-101 116 -102 296q0 265 158 451t412 186q189 0 289 -115t100 -295zM324 391q0 -102 38 -159
q39 -56 111 -56q129 0 208 121t79 299q0 102 -39 158t-113 57q-128 0 -206 -122t-78 -298z" />
    <glyph glyph-name="OE" unicode="&#x152;" horiz-adv-x="1851" 
d="M381 510q1 -134 61 -229t186 -95t208 47l196 926q-66 47 -186 47t-212 -64q-93 -64 -147 -168q-106 -206 -106 -464zM846 1423q156 0 244 -30h817l-45 -211h-568l-80 -371h510l-43 -211h-512l-82 -389h576l-45 -211h-827q-109 -31 -187 -31q-242 0 -364 152t-123 393
q0 359 187 626q90 130 238 206t304 77z" />
    <glyph glyph-name="oe" unicode="&#x153;" horiz-adv-x="1716" 
d="M1407 682q0 154 -139 154q-84 0 -152 -75t-94 -175h369q16 41 16 96zM324 391q0 -102 38 -159q39 -56 111 -56q129 0 208 121t79 299q0 102 -39 158t-113 57q-128 0 -206 -122t-78 -298zM1170 170q108 0 274 74l43 -187q-184 -88 -379 -88t-283 152q-145 -152 -374 -152
q-184 0 -286 116q-101 116 -102 296q0 265 158 451t412 186q211 0 305 -154q139 154 346 154q174 0 262 -96t88 -234t-61 -266h-586q-16 -112 30 -182q45 -70 153 -70z" />
    <glyph glyph-name="Racute" unicode="&#x154;" horiz-adv-x="1251" 
d="M1139 1835l-4 -18l-230 -281h-243l4 20l186 279h287zM721 772q109 0 169 75t60 165q0 170 -141 170h-252l-88 -410h252zM846 1393q178 0 275 -85t98 -235q1 -188 -91 -318t-274 -175l217 -547l-8 -33h-258l-203 561h-178l-119 -561h-256l297 1393h500z" />
    <glyph glyph-name="racute" unicode="&#x155;" horiz-adv-x="720" 
d="M854 1460l-4 -18l-248 -281h-225l4 21l203 278h270zM631 803q-121 0 -209 -111l-150 -692h-252l209 987h207l10 -117h5q102 147 227 148q43 0 84 -12l-45 -211q-39 8 -86 8z" />
    <glyph glyph-name="Rcommaaccent" unicode="&#x156;" horiz-adv-x="1251" 
d="M227 -446l4 20l113 320h250l-4 -21l-176 -319h-187zM721 772q109 0 169 75t60 165q0 170 -141 170h-252l-88 -410h252zM846 1393q178 0 275 -85t98 -235q1 -188 -91 -318t-274 -175l217 -547l-8 -33h-258l-203 561h-178l-119 -561h-256l297 1393h500z" />
    <glyph glyph-name="rcommaaccent" unicode="&#x157;" horiz-adv-x="720" 
d="M-123 -446l4 20l113 320h250l-4 -21l-177 -319h-186zM631 803q-121 0 -209 -111l-150 -692h-252l209 987h207l10 -117h5q102 147 227 148q43 0 84 -12l-45 -211q-39 8 -86 8z" />
    <glyph glyph-name="Rcaron" unicode="&#x158;" horiz-adv-x="1251" 
d="M686 1536l-147 279l4 20h198l80 -162l146 162h215l-4 -20l-267 -279h-225zM721 772q109 0 169 75t60 165q0 170 -141 170h-252l-88 -410h252zM846 1393q178 0 275 -85t98 -235q1 -188 -91 -318t-274 -175l217 -547l-8 -33h-258l-203 561h-178l-119 -561h-256l297 1393
h500z" />
    <glyph glyph-name="rcaron" unicode="&#x159;" horiz-adv-x="720" 
d="M387 1161l-104 279l4 20h198l60 -162l129 162h213l-4 -20l-224 -279h-272zM631 803q-121 0 -209 -111l-150 -692h-252l209 987h207l10 -117h5q102 147 227 148q43 0 84 -12l-45 -211q-39 8 -86 8z" />
    <glyph glyph-name="Sacute" unicode="&#x15a;" horiz-adv-x="1060" 
d="M1094 1835l-4 -18l-230 -281h-244l5 20l186 279h287zM426 186q112 0 180 56t68 160q0 102 -135 178l-123 67q-221 123 -221 329t143 327t393 120q174 0 328 -94l-103 -199q-124 76 -244 76t-184 -57t-63 -152q0 -95 94 -147l129 -72q256 -143 256 -349t-152 -333
t-380 -127t-404 135l103 197q133 -115 315 -115z" />
    <glyph glyph-name="sacute" unicode="&#x15b;" horiz-adv-x="897" 
d="M918 1460l-5 -18l-247 -281h-226l4 21l203 278h271zM346 166q160 0 160 115q0 68 -96 106l-109 47q-184 80 -184 245t107 252q108 87 296 87t328 -72l-84 -182q-119 57 -242 57q-154 0 -153 -108q0 -66 88 -103l108 -47q193 -84 193 -252t-111 -255t-313 -87t-344 94
l92 185q127 -82 264 -82z" />
    <glyph glyph-name="Scircumflex" unicode="&#x15c;" horiz-adv-x="1060" 
d="M907 1835l148 -279l-4 -20h-199l-80 162l-145 -162h-215l4 20l266 279h225zM426 186q112 0 180 56t68 160q0 102 -135 178l-123 67q-221 123 -221 329t143 327t393 120q174 0 328 -94l-103 -199q-124 76 -244 76t-184 -57t-63 -152q0 -95 94 -147l129 -72
q256 -143 256 -349t-152 -333t-380 -127t-404 135l103 197q133 -115 315 -115z" />
    <glyph glyph-name="scircumflex" unicode="&#x15d;" horiz-adv-x="897" 
d="M770 1460l104 -278l-4 -21h-198l-60 162l-127 -162h-215l4 21l224 278h272zM346 166q160 0 160 115q0 68 -96 106l-109 47q-184 80 -184 245t107 252q108 87 296 87t328 -72l-84 -182q-119 57 -242 57q-154 0 -153 -108q0 -66 88 -103l108 -47q193 -84 193 -252
t-111 -255t-313 -87t-344 94l92 185q127 -82 264 -82z" />
    <glyph glyph-name="Scedilla" unicode="&#x15e;" horiz-adv-x="1060" 
d="M426 186q112 0 180 56t68 160q0 102 -135 178l-123 67q-221 123 -221 329t143 327t393 120q174 0 328 -94l-103 -199q-124 76 -244 76t-184 -57t-63 -152q0 -95 94 -147l129 -72q256 -143 256 -356q0 -186 -135 -310t-350 -141l-39 -63q44 -8 70 -42t26 -81
q0 -96 -64 -159q-64 -62 -164 -62t-149 24l41 129q39 -16 74 -16q74 0 74 61q-1 45 -95 45l-4 13l86 155q-170 20 -307 129l103 197q133 -115 315 -115z" />
    <glyph glyph-name="scedilla" unicode="&#x15f;" horiz-adv-x="897" 
d="M346 166q160 0 160 115q0 68 -96 106l-109 47q-184 80 -184 245t107 252q108 87 296 87t328 -72l-84 -182q-119 57 -242 57q-154 0 -153 -108q0 -66 88 -103l108 -47q193 -84 193 -246q0 -319 -369 -346l-39 -63q45 -8 71 -42t25 -81q0 -96 -64 -159q-65 -62 -164 -62
t-148 24l41 129q39 -16 73 -16q74 0 74 61q0 45 -94 45l-4 13l86 155q-154 18 -256 88l92 185q127 -82 264 -82z" />
    <glyph glyph-name="Scaron" unicode="&#x160;" horiz-adv-x="1060" 
d="M627 1536l-148 279l4 20h199l80 -162l145 162h215l-4 -20l-266 -279h-225zM426 186q112 0 180 56t68 160q0 102 -135 178l-123 67q-221 123 -221 329t143 327t393 120q174 0 328 -94l-103 -199q-124 76 -244 76t-184 -57t-63 -152q0 -95 94 -147l129 -72
q256 -143 256 -349t-152 -333t-380 -127t-404 135l103 197q133 -115 315 -115z" />
    <glyph glyph-name="scaron" unicode="&#x161;" horiz-adv-x="897" 
d="M440 1161l-104 279l4 20h199l59 -162l129 162h213l-4 -20l-223 -279h-273zM346 166q160 0 160 115q0 68 -96 106l-109 47q-184 80 -184 245t107 252q108 87 296 87t328 -72l-84 -182q-119 57 -242 57q-154 0 -153 -108q0 -66 88 -103l108 -47q193 -84 193 -252t-111 -255
t-313 -87t-344 94l92 185q127 -82 264 -82z" />
    <glyph glyph-name="Tcommaaccent" unicode="&#x162;" horiz-adv-x="1056" 
d="M514 -215q0 -96 -64 -159q-64 -62 -164 -62t-149 24l41 129q39 -16 74 -16q74 0 74 61q-1 45 -95 45l-4 13l101 180h-52l252 1182h-346l45 211h949l-46 -211h-346l-252 -1182h-59l-55 -92q44 -8 70 -42t26 -81z" />
    <glyph glyph-name="tcommaaccent" unicode="&#x163;" horiz-adv-x="763" 
d="M475 176q66 0 146 27l-43 -203q-123 -31 -193 -31h-14l-37 -61q44 -8 70 -42t26 -81q0 -96 -64 -159q-64 -62 -164 -62t-149 24l41 129q39 -16 74 -16q74 0 74 61q-1 45 -95 45l-4 13l97 174q-147 57 -101 274l111 523h-158l29 139l170 57l49 230h252l-49 -230h252
l-43 -196h-250l-107 -502q-25 -113 80 -113z" />
    <glyph glyph-name="Tcaron" unicode="&#x164;" horiz-adv-x="1056" 
d="M621 1536l-148 279l4 20h199l80 -162l145 162h215l-4 -20l-266 -279h-225zM227 1393h949l-46 -211h-346l-252 -1182h-256l252 1182h-346z" />
    <glyph glyph-name="tcaron" unicode="&#x165;" horiz-adv-x="763" 
d="M688 1053l4 20l113 320h258l-4 -21l-176 -319h-195zM475 176q74 0 152 29l-43 -203q-121 -33 -199 -33q-309 0 -246 299l111 523h-158l29 139l170 57l49 230h252l-49 -230h243l-43 -196h-241l-107 -502q-25 -113 80 -113z" />
    <glyph glyph-name="Tbar" unicode="&#x166;" horiz-adv-x="1056" 
d="M227 1393h949l-46 -211h-346l-71 -334h207l-41 -197h-207l-140 -651h-256l140 651h-207l41 197h207l71 334h-346z" />
    <glyph glyph-name="tbar" unicode="&#x167;" horiz-adv-x="763" 
d="M475 176q66 0 146 27l-43 -203q-123 -31 -193 -31q-309 0 -246 299l35 170h-117l41 191h117l35 162h-158l29 139l170 57l49 230h252l-49 -230h252l-43 -196h-250l-35 -162h158l-41 -191h-158l-31 -149q-25 -113 80 -113z" />
    <glyph glyph-name="Utilde" unicode="&#x168;" horiz-adv-x="1341" 
d="M786 1837q57 0 130 -46t113 -46t83 19t72 51l28 -140q-96 -137 -208 -137q-54 0 -136 46t-123 46q-82 1 -143 -71l-29 143q98 135 213 135zM586 186q254 0 332 367l178 840h258l-183 -865q-59 -276 -202 -417t-407 -141t-366 153q-101 154 -38 452l174 818h256l-178 -840
q-78 -367 176 -367z" />
    <glyph glyph-name="utilde" unicode="&#x169;" horiz-adv-x="1099" 
d="M588 1460q57 0 130 -46t113 -46q41 0 83 20t71 50l29 -140q-96 -137 -209 -137q-55 0 -136 46t-122 46q-83 1 -144 -71l-28 143q98 135 213 135zM442 176q88 0 197 94l154 717h251l-208 -987h-207l-15 94h-2q-44 -39 -68 -56t-83 -43t-121 -26q-164 1 -228 105t-24 299
l131 614h252l-129 -604q-45 -207 100 -207z" />
    <glyph glyph-name="Umacron" unicode="&#x16a;" horiz-adv-x="1341" 
d="M1133 1554h-527l45 211h527zM586 186q254 0 332 367l178 840h258l-183 -865q-59 -276 -202 -417t-407 -141t-366 153q-101 154 -38 452l174 818h256l-178 -840q-78 -367 176 -367z" />
    <glyph glyph-name="umacron" unicode="&#x16b;" horiz-adv-x="1099" 
d="M938 1186h-526l45 211h526zM442 176q88 0 197 94l154 717h251l-208 -987h-207l-15 94h-2q-44 -39 -68 -56t-83 -43t-121 -26q-164 1 -228 105t-24 299l131 614h252l-129 -604q-45 -207 100 -207z" />
    <glyph glyph-name="Ubreve" unicode="&#x16c;" horiz-adv-x="1341" 
d="M901 1755q127 0 256 70l35 -160q-154 -129 -321 -129t-277 143l82 146q98 -70 225 -70zM586 186q254 0 332 367l178 840h258l-183 -865q-59 -276 -202 -417t-407 -141t-366 153q-101 154 -38 452l174 818h256l-178 -840q-78 -367 176 -367z" />
    <glyph glyph-name="ubreve" unicode="&#x16d;" horiz-adv-x="1099" 
d="M708 1380q130 0 255 70l34 -160q-155 -129 -321 -129t-277 144l84 145q95 -70 225 -70zM442 176q88 0 197 94l154 717h251l-208 -987h-207l-15 94h-2q-44 -39 -68 -56t-83 -43t-121 -26q-164 1 -228 105t-24 299l131 614h252l-129 -604q-45 -207 100 -207z" />
    <glyph glyph-name="Uring" unicode="&#x16e;" horiz-adv-x="1341" 
d="M674 1678q0 104 75 178t177 73q102 0 154 -47q52 -46 52 -150t-73 -178q-75 -74 -177 -74t-155 48q-53 46 -53 150zM825 1688q0 -63 62 -64q41 0 67 29t27 73q0 63 -59 64q-41 0 -69 -30t-28 -72zM586 186q254 0 332 367l178 840h258l-183 -865q-59 -276 -202 -417
t-407 -141t-366 153q-101 154 -38 452l174 818h256l-178 -840q-78 -367 176 -367z" />
    <glyph glyph-name="uring" unicode="&#x16f;" horiz-adv-x="1099" 
d="M463 1290q0 104 75 176q75 74 177 74t154 -47q53 -47 53 -151t-74 -177t-176 -73t-156 47q-53 47 -53 151zM614 1298q0 -63 62 -63q42 0 68 29t26 73q0 63 -59 64q-41 0 -69 -30t-28 -73zM442 176q88 0 197 94l154 717h251l-208 -987h-207l-15 94h-2q-44 -39 -68 -56
t-83 -43t-121 -26q-164 1 -228 105t-24 299l131 614h252l-129 -604q-45 -207 100 -207z" />
    <glyph glyph-name="Uhungarumlaut" unicode="&#x170;" horiz-adv-x="1341" 
d="M1413 1835l-4 -20l-246 -279h-225l4 20l205 279h266zM1030 1835l-4 -20l-246 -279h-225l4 20l203 279h268zM586 186q254 0 332 367l178 840h258l-183 -865q-59 -276 -202 -417t-407 -141t-366 153q-101 154 -38 452l174 818h256l-178 -840q-78 -367 176 -367z" />
    <glyph glyph-name="uhungarumlaut" unicode="&#x171;" horiz-adv-x="1099" 
d="M1214 1460l-4 -18l-245 -281h-226l4 21l205 278h266zM831 1460l-4 -18l-245 -281h-226l4 21l203 278h268zM442 176q88 0 197 94l154 717h251l-208 -987h-207l-15 94h-2q-44 -39 -68 -56t-83 -43t-121 -26q-164 1 -228 105t-24 299l131 614h252l-129 -604
q-45 -207 100 -207z" />
    <glyph glyph-name="Uogonek" unicode="&#x172;" horiz-adv-x="1341" 
d="M507 -436q-95 0 -146 50q-50 50 -50 126q0 141 140 237q-408 61 -293 598l174 818h256l-178 -840q-78 -367 176 -367t332 367l178 840h258l-183 -865q-55 -262 -186 -401t-364 -156q-47 -10 -73 -56t-26 -93q0 -80 62 -80q53 0 106 37l-6 -164q-82 -51 -177 -51z" />
    <glyph glyph-name="uogonek" unicode="&#x173;" horiz-adv-x="1099" 
d="M442 176q88 0 197 94l154 717h251l-208 -987q-76 -29 -136 -88q-60 -58 -61 -114q0 -56 56 -56t110 37l-4 -164q-87 -51 -179 -51t-142 50t-50 118t35 124q35 54 69 82t93 66l-13 90h-2q-44 -39 -68 -56t-83 -43t-121 -26q-164 1 -228 105t-24 299l131 614h252l-129 -604
q-45 -207 100 -207z" />
    <glyph glyph-name="Wcircumflex" unicode="&#x174;" horiz-adv-x="1857" 
d="M1309 1835l147 -279l-4 -20h-199l-79 162l-146 -162h-215l4 20l266 279h226zM1985 1393l-5 -21l-622 -1372h-305l-13 819l17 340h-4l-131 -340l-361 -819h-307l-39 1372l4 21h266l-16 -809l-12 -346h4l131 346l352 809h301l6 -809l-14 -346h4l133 346l328 809h283z" />
    <glyph glyph-name="wcircumflex" unicode="&#x175;" horiz-adv-x="1560" 
d="M1092 1460l104 -278l-4 -21h-199l-59 162l-127 -162h-215l4 21l223 278h273zM1593 987l-4 -20l-463 -967h-276l-35 584l8 202h-4l-80 -202l-282 -584h-275l-51 967l4 20h232l8 -581l-15 -199h5l81 199l271 581h274l25 -581l-2 -199h4l69 199l252 581h254z" />
    <glyph glyph-name="Ycircumflex" unicode="&#x176;" horiz-adv-x="1120" 
d="M942 1835l148 -279l-5 -20h-198l-80 162l-145 -162h-216l5 20l266 279h225zM182 1393h264l148 -598h4l401 598h285l-4 -21l-594 -807l-119 -565h-256l119 565l-252 807z" />
    <glyph glyph-name="ycircumflex" unicode="&#x177;" horiz-adv-x="1001" 
d="M819 1460l105 -278l-4 -21h-199l-59 162l-127 -162h-216l5 21l223 278h272zM39 -436q-84 0 -178 24l39 185q84 -19 133 -19t88 32t80 110l63 114l-147 957l4 20h246l45 -545l4 -204h6l90 204l268 545h269l-5 -20l-634 -1135q-150 -268 -371 -268z" />
    <glyph glyph-name="Ydieresis" unicode="&#x178;" horiz-adv-x="1120" 
d="M885 1658q0 62 51 110q52 48 118 48t98 -30t32 -92t-51 -111t-117 -49q-130 0 -131 124zM412 1658q0 62 51 110t117 48t99 -30q32 -30 32 -92q1 -62 -51 -111t-118 -49q-130 0 -130 124zM182 1393h264l148 -598h4l401 598h285l-4 -21l-594 -807l-119 -565h-256l119 565
l-252 807z" />
    <glyph glyph-name="Zacute" unicode="&#x179;" horiz-adv-x="1095" 
d="M1104 1835l-4 -18l-230 -281h-243l4 20l186 279h287zM313 211h607l-46 -211h-913l41 195l813 983v4h-565l45 211h874l-41 -195l-815 -983v-4z" />
    <glyph glyph-name="zacute" unicode="&#x17a;" horiz-adv-x="892" 
d="M907 1460l-4 -18l-248 -281h-225l4 21l203 278h270zM305 190h414l-41 -190h-721l29 139l553 654v4h-385l41 190h694l-31 -139l-553 -653v-5z" />
    <glyph glyph-name="Zdotaccent" unicode="&#x17b;" horiz-adv-x="1095" 
d="M790 1534q-130 0 -131 124q-1 62 51 110t118 48t99 -30q31 -30 31 -92t-51 -111t-117 -49zM313 211h607l-46 -211h-913l41 195l813 983v4h-565l45 211h874l-41 -195l-815 -983v-4z" />
    <glyph glyph-name="zdotaccent" unicode="&#x17c;" horiz-adv-x="892" 
d="M632 1450q130 0 130 -124q0 -62 -51 -110t-117 -48t-99 30q-32 30 -32 92t51 111q52 49 118 49zM305 190h414l-41 -190h-721l29 139l553 654v4h-385l41 190h694l-31 -139l-553 -653v-5z" />
    <glyph glyph-name="Zcaron" unicode="&#x17d;" horiz-adv-x="1095" 
d="M657 1536l-147 279l4 20h199l80 -162l145 162h215l-4 -20l-266 -279h-226zM313 211h607l-46 -211h-913l41 195l813 983v4h-565l45 211h874l-41 -195l-815 -983v-4z" />
    <glyph glyph-name="zcaron" unicode="&#x17e;" horiz-adv-x="892" 
d="M446 1161l-104 279l4 20h199l59 -162l129 162h213l-4 -20l-223 -279h-273zM305 190h414l-41 -190h-721l29 139l553 654v4h-385l41 190h694l-31 -139l-553 -653v-5z" />
    <glyph glyph-name="florin" unicode="&#x192;" 
d="M1016 1233q-80 0 -133 -148l-109 -299h199l-76 -196h-197l-260 -701q-66 -173 -154 -249t-200 -76q-114 0 -180 14l47 191q135 -37 183 22q30 37 57 111l253 688h-159l71 196h160l115 312q61 170 154 248t229 77q98 0 162 -14l-48 -190q-51 14 -114 14z" />
    <glyph glyph-name="Aringacute" unicode="&#x1fa;" horiz-adv-x="1236" 
d="M1227 2044l-4 -14l-219 -211h-232l4 16l176 209h275zM737 1507q0 -63 62 -63q41 0 67 29t27 73q0 63 -59 64q-41 0 -69 -30t-28 -73zM756 1167h-6l-170 -374l-142 -285h348l-22 285zM586 1481q0 121 74 195t178 73q102 0 154 -47t52 -133q0 -145 -102 -219l156 -1350
h-267l-16 305h-487l-150 -305h-280l731 1358q-43 47 -43 123z" />
    <glyph glyph-name="aringacute" unicode="&#x1fb;" horiz-adv-x="1134" 
d="M1106 1800l-4 -12l-228 -211h-206l4 16l186 207h248zM692 1079q-205 1 -205 195q0 100 74 173q75 73 175 73t151 -46t51 -148t-73 -174t-173 -73zM637 1282q0 -61 59 -61q41 1 67 29t25 71q0 63 -57 63q-41 0 -67 -30t-27 -72zM602 811q-131 0 -204 -127t-72 -293
q0 -215 141 -215q74 0 174 74l109 504q-57 57 -148 57zM543 1018q134 0 260 -119h4l51 88h191l-166 -772q-6 -23 -2 -30t26 -7h72l-41 -188q-78 -14 -145 -15q-150 0 -156 113h-4q-70 -59 -130 -89t-141 -30q-150 0 -224 110t-75 281q1 264 133 461t347 197z" />
    <glyph glyph-name="AEacute" unicode="&#x1fc;" horiz-adv-x="1753" 
d="M1704 1835l-4 -18l-230 -281h-243l4 20l186 279h287zM948 1157h-6l-203 -307l-239 -342h295l71 342zM-150 0l5 20l1019 1373h934l-43 -211h-571l-80 -371h512l-45 -211h-510l-84 -389h578l-45 -211h-834l66 305h-408l-219 -305h-275z" />
    <glyph glyph-name="aeacute" unicode="&#x1fd;" horiz-adv-x="1601" 
d="M1319 1460l-4 -18l-248 -281h-225l4 21l203 278h270zM1292 688q0 147 -131 148q-82 0 -143 -73t-88 -177h346q16 53 16 102zM298 -31q-132 0 -209 68t-77 184q0 375 484 375h174l10 45q20 94 -28 132t-109 38q-121 0 -318 -78l-45 193q221 92 414 92t260 -137
q138 137 316 137t264 -95t86 -237t-62 -264h-567q-15 -112 25 -182t135 -70q129 0 280 66l39 -179q-180 -87 -376 -87t-289 180q-87 -84 -181 -132t-226 -49zM483 432q-103 0 -163 -45t-60 -129q0 -92 96 -92q88 0 170 74t107 192h-150z" />
    <glyph glyph-name="Oslashacute" unicode="&#x1fe;" horiz-adv-x="1425" 
d="M1288 1835l-4 -18l-229 -281h-244l4 20l186 279h287zM381 554q0 -89 8 -136l602 739q-59 49 -161 49t-196 -64q-164 -115 -226 -384q-26 -115 -27 -204zM1092 844q0 90 -13 149l-612 -745q61 -62 172 -62t205 66t145 170t77 218t26 204zM117 502q0 186 48 347
q106 357 378 498q147 77 319 77t285 -74l104 127l138 -105l-119 -145q88 -139 88 -361t-81 -426q-81 -203 -256 -337t-417 -134q-180 0 -295 86l-100 -123l-129 107l117 143q-80 134 -80 320z" />
    <glyph glyph-name="oslashacute" unicode="&#x1ff;" horiz-adv-x="1120" 
d="M324 391v-10l370 401q-35 29 -86 29q-128 0 -206 -122t-78 -298zM760 596v20l-379 -407q33 -33 92 -33q129 0 208 121t79 299zM633 1018q131 0 223 -60l96 103l117 -113l-102 -110q55 -98 55 -230q0 -266 -156 -452t-415 -187q-137 0 -232 68l-104 -113l-109 115l109 117
q-51 96 -52 225q0 265 158 451t412 186zM1044 1460l-4 -18l-247 -281h-226l4 21l203 278h270z" />
    <glyph glyph-name="Scommaaccent" unicode="&#x218;" horiz-adv-x="1060" 
d="M154 -446l4 20l112 320h250l-4 -21l-176 -319h-186zM426 186q112 0 180 56t68 160q0 102 -135 178l-123 67q-221 123 -221 329t143 327t393 120q174 0 328 -94l-103 -199q-124 76 -244 76t-184 -57t-63 -152q0 -95 94 -147l129 -72q256 -143 256 -349t-152 -333
t-380 -127t-404 135l103 197q133 -115 315 -115z" />
    <glyph glyph-name="scommaaccent" unicode="&#x219;" horiz-adv-x="897" 
d="M88 -446l4 20l113 320h250l-4 -21l-177 -319h-186zM346 166q160 0 160 115q0 68 -96 106l-109 47q-184 80 -184 245t107 252q108 87 296 87t328 -72l-84 -182q-119 57 -242 57q-154 0 -153 -108q0 -66 88 -103l108 -47q193 -84 193 -252t-111 -255t-313 -87t-344 94
l92 185q127 -82 264 -82z" />
    <glyph glyph-name="uni021A" unicode="&#x21a;" horiz-adv-x="1056" 
d="M141 -446l4 20l113 320h250l-4 -21l-176 -319h-187zM227 1393h949l-46 -211h-346l-252 -1182h-256l252 1182h-346z" />
    <glyph glyph-name="uni021B" unicode="&#x21b;" horiz-adv-x="763" 
d="M39 -446l4 20l113 320h250l-5 -21l-176 -319h-186zM475 176q74 0 152 29l-43 -203q-121 -33 -199 -33q-309 0 -246 299l111 523h-158l29 139l170 57l49 230h252l-49 -230h243l-43 -196h-241l-107 -502q-25 -113 80 -113z" />
    <glyph glyph-name="dotlessj" unicode="&#x237;" horiz-adv-x="538" 
d="M-121 -436q-76 0 -141 14l41 191q49 -14 90 -15q98 0 129 144l231 1089h254l-231 -1087q-72 -336 -373 -336z" />
    <glyph glyph-name="circumflex" unicode="&#x2c6;" horiz-adv-x="1064" 
d="M979 1460l104 -278l-4 -21h-198l-60 162l-127 -162h-215l4 21l224 278h272z" />
    <glyph glyph-name="caron" unicode="&#x2c7;" horiz-adv-x="1064" 
d="M643 1161l-104 279l4 20h198l60 -162l129 162h213l-4 -20l-224 -279h-272z" />
    <glyph glyph-name="uni02C9" unicode="&#x2c9;" horiz-adv-x="1064" 
d="M1049 1206h-527l45 211h527z" />
    <glyph glyph-name="breve" unicode="&#x2d8;" horiz-adv-x="1064" 
d="M818 1380q130 0 255 70l35 -160q-154 -129 -321 -129t-277 144l84 145q94 -70 224 -70z" />
    <glyph glyph-name="dotaccent" unicode="&#x2d9;" horiz-adv-x="1064" 
d="M830 1450q130 0 131 -124q1 -62 -51 -110t-118 -48q-130 -2 -130 122q0 62 51 111t117 49z" />
    <glyph glyph-name="ring" unicode="&#x2da;" horiz-adv-x="1067" 
d="M584 1290q0 104 74 176q74 74 178 74q102 0 154 -47t52 -151t-74 -177t-176 -73t-155 47t-53 151zM735 1298q0 -63 62 -63q41 0 67 29t27 73q0 63 -60 64q-41 0 -69 -30t-27 -73z" />
    <glyph glyph-name="ogonek" unicode="&#x2db;" horiz-adv-x="1064" 
d="M482 -436q-95 0 -145 50t-50 126q0 118 84 192t215 129l78 -49q-58 -27 -112 -83t-54 -122t61 -65q53 0 107 37l-7 -164q-82 -51 -177 -51z" />
    <glyph glyph-name="tilde" unicode="&#x2dc;" horiz-adv-x="1064" 
d="M700 1460q57 0 130 -46t113 -46t83 20t72 50l28 -140q-96 -137 -208 -137q-54 0 -136 46t-123 46q-82 1 -143 -71l-29 143q98 135 213 135z" />
    <glyph glyph-name="hungarumlaut" unicode="&#x2dd;" horiz-adv-x="1062" 
d="M1239 1460l-4 -18l-246 -281h-225l4 21l205 278h266zM856 1460l-4 -18l-246 -281h-225l4 21l203 278h268z" />
    <glyph glyph-name="tonos" unicode="&#x384;" horiz-adv-x="1183" 
d="M1124 1485l-4 -19l-182 -321h-205l4 20l133 320h254z" />
    <glyph glyph-name="dieresistonos" unicode="&#x385;" horiz-adv-x="1185" 
d="M1252 1090q-142 0 -142 132q0 66 56 118t128 52t108 -33t36 -99t-56 -118q-58 -52 -130 -52zM1133 1454l-5 -18l-188 -342h-205l4 20l140 340h254zM514 1090q-142 0 -143 132q0 66 56 118q55 52 127 52t108 -33t36 -99t-56 -118t-128 -52z" />
    <glyph glyph-name="Alphatonos" unicode="&#x386;" horiz-adv-x="1347" 
d="M553 1393l-4 -19l-176 -321h-211l4 20l127 320h260zM862 1167h-6l-170 -374l-141 -285h348l-23 285zM1049 1393l155 -1393h-266l-16 305h-488l-149 -305h-281l744 1393h301z" />
    <glyph glyph-name="anoteleia" unicode="&#x387;" horiz-adv-x="548" 
d="M109 566q0 72 59 131q58 61 130 61t108 -38t36 -110t-59 -132q-59 -58 -131 -58q-142 0 -143 146z" />
    <glyph glyph-name="Epsilontonos" unicode="&#x388;" horiz-adv-x="1415" 
d="M522 1393l-4 -19l-176 -321h-211l4 20l127 320h260zM645 1393h825l-45 -211h-569l-80 -371h510l-45 -211h-510l-82 -389h576l-43 -211h-834z" />
    <glyph glyph-name="Etatonos" unicode="&#x389;" horiz-adv-x="1665" 
d="M522 1393l-4 -19l-176 -321h-211l4 20l127 320h260zM1114 0l127 600h-510l-127 -600h-256l297 1393h256l-125 -582h510l123 582h256l-295 -1393h-256z" />
    <glyph glyph-name="Iotatonos" unicode="&#x38a;" horiz-adv-x="899" 
d="M522 1393l-4 -19l-176 -321h-211l4 20l127 320h260zM901 1393l-297 -1393h-256l297 1393h256z" />
    <glyph glyph-name="Omicrontonos" unicode="&#x38c;" horiz-adv-x="1652" 
d="M522 1393l-4 -19l-176 -321h-211l4 20l127 320h260zM1585 883q0 -240 -81 -443t-256 -337t-417 -134q-243 0 -365 152t-122 391q0 361 187 628q91 130 239 207t330 76q242 0 364 -150t121 -390zM608 508q0 -136 62 -228t184 -94q123 0 217 66q162 114 222 388
q26 114 26 247t-59 226q-58 93 -182 93t-217 -64t-146 -167q-53 -102 -80 -217q-27 -114 -27 -250z" />
    <glyph glyph-name="Upsilontonos" unicode="&#x38e;" horiz-adv-x="1581" 
d="M537 1393l-5 -19l-176 -321h-211l5 20l126 320h261zM643 1393h264l148 -598h4l401 598h285l-4 -21l-594 -807l-119 -565h-256l119 565l-252 807z" />
    <glyph glyph-name="Omegatonos" unicode="&#x38f;" horiz-adv-x="1669" 
d="M528 1393l-4 -19l-176 -321h-211l4 20l127 320h260zM373 634q0 138 47 276t136 254t232 188t318 71q242 1 368 -151t126 -380t-116 -414q-116 -185 -270 -267h256l-45 -211h-524l41 190q209 119 295 280t86 396q0 152 -58 246q-59 94 -183 94t-218 -68t-143 -173
q-98 -212 -96 -412q0 -242 161 -363l-41 -190h-524l45 211h271q-70 49 -117 167t-47 256z" />
    <glyph glyph-name="iotadieresistonos" unicode="&#x390;" horiz-adv-x="589" 
d="M814 1090q-142 0 -142 132q0 66 56 118t128 52t108 -33t36 -99t-57 -118t-129 -52zM694 1454l-4 -18l-188 -342h-205l4 20l139 340h254zM75 1090q-143 0 -143 132q0 66 56 118t128 52t108 -33t36 -99t-56 -118t-129 -52zM383 176q33 0 82 14l-31 -202q-78 -18 -153 -19
q-268 0 -199 324l147 694h250l-151 -715q-23 -96 55 -96z" />
    <glyph glyph-name="Alpha" unicode="&#x391;" horiz-adv-x="1243" 
d="M758 1167h-6l-170 -374l-142 -285h348l-22 285zM944 1393l156 -1393h-266l-17 305h-487l-150 -305h-280l743 1393h301z" />
    <glyph glyph-name="Beta" unicode="&#x392;" horiz-adv-x="1236" 
d="M664 811q145 0 198 54t53 184q0 73 -42 103t-136 30h-180l-80 -371h187zM776 1393q201 0 306 -75q106 -75 106 -219q0 -145 -74 -243t-176 -141v-4q166 -68 166 -256q0 -455 -524 -455h-531l297 1393h430zM582 211q143 0 203 68t61 190q0 145 -195 145h-215l-86 -403h232
z" />
    <glyph glyph-name="Gamma" unicode="&#x393;" horiz-adv-x="1011" 
d="M305 0h-256l297 1393h782l-47 -222h-526z" />
    <glyph glyph-name="uni0394" unicode="&#x394;" horiz-adv-x="1239" 
d="M756 1167h-6l-170 -368l-293 -596h528l-49 596zM1096 10l-2 -10h-1192l2 10l739 1383h301z" />
    <glyph glyph-name="Epsilon" unicode="&#x395;" horiz-adv-x="1116" 
d="M346 1393h825l-45 -211h-569l-80 -371h510l-45 -211h-510l-82 -389h576l-43 -211h-834z" />
    <glyph glyph-name="Zeta" unicode="&#x396;" horiz-adv-x="1095" 
d="M313 211h607l-46 -211h-913l41 195l813 983v4h-565l45 211h874l-41 -195l-815 -983v-4z" />
    <glyph glyph-name="Eta" unicode="&#x397;" horiz-adv-x="1366" 
d="M815 0l127 600h-510l-127 -600h-256l297 1393h256l-125 -582h510l123 582h256l-295 -1393h-256z" />
    <glyph glyph-name="Theta" unicode="&#x398;" horiz-adv-x="1425" 
d="M1358 883q0 -240 -81 -443t-256 -337t-417 -134t-364 152t-123 391q0 361 187 628q90 130 238 207t330 76q242 0 364 -150t122 -390zM381 508q0 -136 61 -228q60 -92 184 -94q124 0 218 66t145 170q103 210 103 444q0 154 -60 247t-182 93q-123 0 -216 -64t-147 -167
q-106 -203 -106 -467zM926 584h-432l51 237h432z" />
    <glyph glyph-name="Iota" unicode="&#x399;" horiz-adv-x="600" 
d="M602 1393l-297 -1393h-256l297 1393h256z" />
    <glyph glyph-name="Kappa" unicode="&#x39a;" horiz-adv-x="1206" 
d="M442 627h-4l-133 -627h-256l297 1393h256l-145 -676h4l569 676h301l-4 -21l-629 -715l365 -637l-4 -20h-283z" />
    <glyph glyph-name="Lambda" unicode="&#x39b;" horiz-adv-x="1243" 
d="M582 793l-402 -793h-280l743 1393h301l156 -1393h-266l-68 793l-12 354h-6z" />
    <glyph glyph-name="Mu" unicode="&#x39c;" horiz-adv-x="1624" 
d="M797 565h4l168 275l397 553h258l-295 -1393h-256l146 690l94 307h-2l-437 -647h-225l-160 647h-2l-34 -305l-148 -692h-256l297 1393h238l159 -553z" />
    <glyph glyph-name="Nu" unicode="&#x39d;" horiz-adv-x="1394" 
d="M946 342h6l21 270l166 781h256l-295 -1393h-262l-340 1049h-6l-21 -271l-166 -778h-256l297 1393h262z" />
    <glyph glyph-name="Xi" unicode="&#x39e;" horiz-adv-x="1101" 
d="M1106 1169h-862l49 224h860zM924 590h-744l49 223h742zM43 223h868l-49 -223h-866z" />
    <glyph glyph-name="Omicron" unicode="&#x39f;" horiz-adv-x="1425" 
d="M1358 883q0 -240 -81 -443t-256 -337t-417 -134t-364 152t-123 391q0 361 187 628q90 130 238 207t330 76q242 0 364 -150t122 -390zM381 508q0 -136 61 -228q60 -92 184 -94q124 0 218 66t145 170q103 210 103 444q0 154 -60 247t-182 93q-123 0 -216 -64t-147 -167
q-106 -203 -106 -467z" />
    <glyph glyph-name="Pi" unicode="&#x3a0;" horiz-adv-x="1368" 
d="M817 0l252 1182h-512l-252 -1182h-256l297 1393h1022l-295 -1393h-256z" />
    <glyph glyph-name="Rho" unicode="&#x3a1;" horiz-adv-x="1136" 
d="M629 694q106 0 178 91t72 216q0 81 -38 131t-108 50h-176l-104 -488h176zM778 1393q180 -1 274 -99t95 -258q0 -240 -139 -396t-383 -157h-217l-103 -483h-256l297 1393h432z" />
    <glyph glyph-name="Sigma" unicode="&#x3a3;" horiz-adv-x="1114" 
d="M-29 0l41 190l422 519l-180 491l41 193h897l-45 -211h-629l195 -492l-391 -479h618l-43 -211h-926z" />
    <glyph glyph-name="Tau" unicode="&#x3a4;" horiz-adv-x="1056" 
d="M227 1393h949l-46 -211h-346l-252 -1182h-256l252 1182h-346z" />
    <glyph glyph-name="Upsilon" unicode="&#x3a5;" horiz-adv-x="1120" 
d="M182 1393h264l148 -598h4l401 598h285l-4 -21l-594 -807l-119 -565h-256l119 565l-252 807z" />
    <glyph glyph-name="Phi" unicode="&#x3a6;" horiz-adv-x="1550" 
d="M1231 799q0 244 -219 276l-162 -760q381 66 381 484zM369 592q0 -244 225 -277l162 762q-182 -25 -285 -148q-102 -124 -102 -337zM96 582q0 268 153 454q168 204 548 234l26 123h256l-26 -123q231 -23 341 -148t109 -313q0 -267 -159 -459t-535 -227l-25 -123h-256
l25 121q-233 23 -345 147t-112 314z" />
    <glyph glyph-name="Chi" unicode="&#x3a7;" horiz-adv-x="1163" 
d="M229 1393h263l137 -547h4l368 547h281l-4 -21l-492 -674l205 -678l-4 -20h-262l-135 547h-4l-371 -547h-283l5 20l491 678l-205 674z" />
    <glyph glyph-name="Psi" unicode="&#x3a8;" horiz-adv-x="1433" 
d="M1016 1393l-180 -854q120 10 186 91t102 255l109 508h258l-113 -529q-57 -268 -197 -403t-393 -142l-67 -319h-256l67 319q-248 13 -330 157t-20 433l103 484h256l-109 -508q-39 -174 -5 -256t153 -90l180 854h256z" />
    <glyph glyph-name="uni03A9" unicode="&#x3a9;" horiz-adv-x="1447" 
d="M152 634q0 138 47 276t136 254t232 188t318 71q241 1 367 -151t126 -380t-115 -414q-116 -185 -270 -267h256l-45 -211h-524l41 190q209 119 295 280t86 396q0 152 -58 246t-183 94q-124 0 -218 -68t-143 -173q-97 -210 -97 -412q0 -242 162 -363l-41 -190h-524l45 211
h270q-70 49 -116 167q-47 118 -47 256z" />
    <glyph glyph-name="Iotadieresis" unicode="&#x3aa;" horiz-adv-x="600" 
d="M623 1658q0 62 51 110q52 48 118 48t98 -30t32 -92t-52 -111t-118 -49q-130 0 -129 124zM150 1658q0 62 51 110t117 48t99 -30q32 -30 32 -92q1 -62 -51 -111t-118 -49q-130 0 -130 124zM602 1393l-297 -1393h-256l297 1393h256z" />
    <glyph glyph-name="Upsilondieresis" unicode="&#x3ab;" horiz-adv-x="1120" 
d="M994 1534q-130 0 -130 124q0 62 51 110t117 48t100 -30q32 -30 32 -92t-52 -111t-118 -49zM522 1534q-130 0 -131 124q0 62 51 110q52 48 118 48t98 -30t32 -92t-51 -111t-117 -49zM182 1393h264l148 -598h4l401 598h285l-4 -21l-594 -807l-119 -565h-256l119 565
l-252 807z" />
    <glyph glyph-name="alphatonos" unicode="&#x3ac;" horiz-adv-x="1171" 
d="M1032 1485l-4 -19l-182 -321h-205l4 20l133 320h254zM582 811q-104 0 -184 -124t-79 -298q0 -97 34 -155t93 -58q132 1 279 318q-4 141 -40 229t-103 88zM406 -31q-158 0 -251 112t-94 292q0 273 152 459t375 186q118 0 182 -60t82 -141h4l62 170h256l-228 -491l17 -496
h-240l12 170h-4q-129 -201 -325 -201z" />
    <glyph glyph-name="epsilontonos" unicode="&#x3ad;" horiz-adv-x="942" 
d="M440 397q-156 0 -155 -127q0 -100 151 -100q180 0 312 59l38 -186q-166 -74 -372 -74q-393 0 -394 258q0 105 58 183t162 114v4q-90 51 -90 181t110 220q111 89 340 89q166 0 305 -68l-65 -184q-137 51 -259 51t-152 -48t-30 -97q0 -78 97 -78h229l-41 -197h-244z
M952 1485l-4 -19l-182 -321h-205l4 20l133 320h254z" />
    <glyph glyph-name="etatonos" unicode="&#x3ae;" horiz-adv-x="1112" 
d="M971 1485l-4 -19l-183 -321h-204l4 20l133 320h254zM742 1018q152 0 219 -104q68 -104 26 -300l-217 -1020h-252l215 1010q45 207 -108 207q-111 0 -201 -98l-152 -713h-252l209 987h205l12 -94h5q139 125 291 125z" />
    <glyph glyph-name="iotatonos" unicode="&#x3af;" horiz-adv-x="591" 
d="M690 1485l-4 -19l-182 -321h-205l4 20l133 320h254zM385 176q33 0 82 14l-31 -202q-78 -18 -153 -19q-268 0 -199 324l147 694h250l-151 -715q-23 -96 55 -96z" />
    <glyph glyph-name="upsilondieresistonos" unicode="&#x3b0;" horiz-adv-x="1091" 
d="M467 176q115 0 193 154t79 450q0 113 -4 207h254q4 -94 4 -205q0 -813 -549 -813q-209 0 -300 120t-46 339l119 559h250l-121 -571q-51 -240 121 -240zM950 1485l-4 -19l-182 -321h-205l4 20l133 320h254z" />
    <glyph glyph-name="alpha" unicode="&#x3b1;" horiz-adv-x="1171" 
d="M582 811q-104 0 -184 -124t-79 -298q0 -97 34 -155t93 -58q132 1 279 318q-4 141 -40 229t-103 88zM406 -31q-158 0 -251 112t-94 292q0 273 152 459t375 186q118 0 182 -60t82 -141h4l62 170h256l-228 -491l17 -496h-240l12 170h-4q-129 -201 -325 -201z" />
    <glyph glyph-name="beta" unicode="&#x3b2;" horiz-adv-x="1122" 
d="M549 645h-53l41 191h49q88 0 142 72t54 156q0 172 -106 173q-146 0 -203 -262l-156 -735q47 -64 169 -64t191 84t68 209q0 80 -50 128t-146 48zM719 1444q149 0 237 -89t88 -229t-70 -239q-70 -98 -163 -137v-5q78 -27 132 -103t54 -185q0 -231 -140 -359t-345 -129
q-137 0 -231 78h-5l-96 -453h-248l293 1375q51 247 171 361t323 114z" />
    <glyph glyph-name="gamma" unicode="&#x3b3;" horiz-adv-x="1003" 
d="M408 240h4q24 30 62 108t50 96q152 244 264 543h256l-4 -20q-170 -428 -553 -971l-86 -402h-247l88 412l-121 961l4 20h244l39 -541v-206z" />
    <glyph glyph-name="delta" unicode="&#x3b4;" horiz-adv-x="1103" 
d="M457 176q119 0 199 92t81 244q0 150 -147 301q-127 -81 -205 -193t-78 -224t40 -166t110 -54zM813 1237q-76 0 -118 -34t-42 -80t35 -90t85 -93t101 -107q50 -57 86 -143t35 -180q-1 -207 -157 -374t-404 -167q-182 0 -282 117q-100 116 -100 294t113 325
q114 147 300 241l-14 21q-13 23 -15 27q-36 64 -35 136q0 146 118 230t282 84q96 -1 174 -19l-23 -206q-63 18 -139 18z" />
    <glyph glyph-name="epsilon" unicode="&#x3b5;" horiz-adv-x="942" 
d="M440 397q-156 0 -155 -127q0 -100 151 -100q180 0 312 59l38 -186q-166 -74 -372 -74q-393 0 -394 258q0 105 58 183t162 114v4q-90 51 -90 181t110 220q111 89 340 89q166 0 305 -68l-65 -184q-137 51 -259 51t-152 -48t-30 -97q0 -78 97 -78h229l-41 -197h-244z" />
    <glyph glyph-name="zeta" unicode="&#x3b6;" horiz-adv-x="894" 
d="M309 398q0 -33 26 -71q25 -38 65 -64q103 -68 170 -121q92 -74 92 -195q0 -164 -232 -328l-143 141q106 86 106 151t-124 142q-52 33 -103 73q-123 96 -123 249q0 113 69 248q50 94 214 258q47 47 166 163t188 189v4h-416l41 197h729l-37 -179q-444 -446 -518 -532
q-152 -168 -168 -274q-2 -18 -2 -51z" />
    <glyph glyph-name="eta" unicode="&#x3b7;" horiz-adv-x="1112" 
d="M742 1018q152 0 219 -104q68 -104 26 -300l-217 -1020h-252l215 1010q45 207 -108 207q-111 0 -201 -98l-152 -713h-252l209 987h205l12 -94h5q139 125 291 125z" />
    <glyph glyph-name="theta" unicode="&#x3b8;" horiz-adv-x="1120" 
d="M473 176q98 0 170 108t125 322h-410q-23 -125 -22 -209q0 -221 137 -221zM700 1237q-193 0 -301 -438h412q23 123 23 231q-5 207 -134 207zM723 1444q352 0 352 -410q0 -141 -41 -334q-76 -356 -215 -543t-368 -188q-354 0 -355 408q0 143 41 336q75 355 215 543t371 188
z" />
    <glyph glyph-name="iota" unicode="&#x3b9;" horiz-adv-x="591" 
d="M385 176q33 0 82 14l-31 -202q-78 -18 -153 -19q-268 0 -199 324l147 694h250l-151 -715q-23 -96 55 -96z" />
    <glyph glyph-name="kappa" unicode="&#x3ba;" horiz-adv-x="1013" 
d="M358 432h-4l-92 -432h-242l209 987h242l-100 -471h4l395 471h281l-2 -14l-449 -506l260 -453l-2 -14h-260z" />
    <glyph glyph-name="lambda" unicode="&#x3bb;" horiz-adv-x="999" 
d="M375 1237q-33 0 -78 -10l22 198q59 19 139 19t142 -55t80 -172l162 -1197l-4 -20h-250l-39 465l-6 248h-6l-115 -244l-242 -469h-266l4 20l555 957l-16 145q-14 115 -82 115z" />
    <glyph glyph-name="uni03BC" unicode="&#x3bc;" horiz-adv-x="1110" 
d="M453 176q86 0 196 92l154 719h252l-209 -987h-207l-14 94h-2q-129 -125 -281 -125q-47 0 -88 17l-14 -131l-56 -261h-252l297 1393h250l-129 -625q-37 -186 103 -186z" />
    <glyph glyph-name="nu" unicode="&#x3bd;" horiz-adv-x="1007" 
d="M410 240h4q22 32 64 112t52 97q145 242 261 538h256l-5 -20q-170 -440 -538 -967h-273l-108 967l4 20h244l39 -541v-206z" />
    <glyph glyph-name="xi" unicode="&#x3be;" horiz-adv-x="909" 
d="M395 1243h-186l41 191h792l-38 -191h-246q-135 0 -210 -79t-75 -191q0 -76 48 -120t147 -44h133l-41 -197h-133q-315 0 -316 -225q0 -91 145 -160q60 -29 120 -61t103 -88q42 -55 42 -129q0 -170 -240 -330l-139 143q111 92 111 148q0 67 -144 139q-59 31 -119 67
t-101 96q-42 60 -42 136q0 291 313 387v4q-61 27 -102 85t-41 144t50 162t128 109v4z" />
    <glyph glyph-name="omicron" unicode="&#x3bf;" horiz-adv-x="1120" 
d="M1022 608q0 -266 -156 -452t-415 -187q-184 0 -286 116q-101 116 -102 296q0 265 158 451t412 186q189 0 289 -115t100 -295zM324 391q0 -102 38 -159q39 -56 111 -56q129 0 208 121t79 299q0 102 -39 158t-113 57q-128 0 -206 -122t-78 -298z" />
    <glyph glyph-name="pi" unicode="&#x3c0;" horiz-adv-x="1232" 
d="M967 176q37 0 82 14l-43 -204q-82 -16 -142 -17q-266 0 -198 318l106 504h-248l-168 -791h-250l168 791h-176l41 196h1096l-41 -196h-174l-111 -519q-23 -96 58 -96z" />
    <glyph glyph-name="rho" unicode="&#x3c1;" horiz-adv-x="1110" 
d="M627 1018q187 0 285 -115t100 -291q0 -256 -144 -450t-372 -193q-141 0 -226 92h-4l-98 -467h-248l201 947q51 237 185 357t321 120zM462 176q102 0 173 74q121 128 121 350q0 96 -39 154t-118 57q-79 1 -141 -73t-87 -191l-66 -301q55 -70 157 -70z" />
    <glyph glyph-name="sigma1" unicode="&#x3c2;" horiz-adv-x="880" 
d="M633 811q-123 0 -210 -100t-87 -258q0 -73 52 -133t114 -96t115 -102q52 -66 53 -151q0 -190 -234 -352l-141 154q104 88 104 134t-33 82q-34 37 -82 71t-98 77q-49 43 -83 117t-33 166q0 260 152 429q153 169 419 169q135 -1 258 -60l-70 -190q-111 43 -196 43z" />
    <glyph glyph-name="sigma" unicode="&#x3c3;" horiz-adv-x="1136" 
d="M317 395q0 -96 42 -147t118 -51q123 0 201 100t78 268q0 95 -42 145t-118 50q-121 0 -200 -98t-79 -267zM932 776v-4q70 -92 69 -242q-1 -221 -155 -391t-397 -170q-186 0 -288 115q-101 115 -102 291q0 250 157 431t409 181h522l-45 -211h-170z" />
    <glyph glyph-name="tau" unicode="&#x3c4;" horiz-adv-x="913" 
d="M550 176q54 0 144 29l-30 -205q-117 -31 -207 -31q-147 0 -201 76q-53 76 -20 238l108 508h-252l41 196h793l-41 -196h-293l-107 -502q-14 -53 -1 -83q12 -30 66 -30z" />
    <glyph glyph-name="upsilon" unicode="&#x3c5;" horiz-adv-x="1091" 
d="M467 176q115 0 193 154t79 450q0 113 -4 207h254q4 -94 4 -205q0 -813 -549 -813q-209 0 -300 120t-46 339l119 559h250l-121 -571q-51 -240 121 -240z" />
    <glyph glyph-name="phi" unicode="&#x3c6;" horiz-adv-x="1370" 
d="M1024 643q0 168 -82 168q-47 0 -79 -47t-56 -162l-88 -422q305 61 305 463zM971 1018q155 0 231 -112t76 -249q0 -261 -132 -442q-69 -93 -188 -153t-280 -76l-84 -392h-248l82 388q-184 22 -272 132t-88 261t51 281t166 331h256q-223 -377 -223 -579t153 -230l90 418
q88 422 410 422z" />
    <glyph glyph-name="chi" unicode="&#x3c7;" horiz-adv-x="989" 
d="M111 987h247l72 -352l21 -193h2l108 197l219 348h267l-5 -20l-454 -674l168 -678l-4 -21h-250l-70 349l-22 198h-2l-107 -198l-217 -349h-270l4 21l454 678l-168 674z" />
    <glyph glyph-name="psi" unicode="&#x3c8;" horiz-adv-x="1404" 
d="M1311 748q0 -396 -162 -588t-449 -185l-79 -381h-250l80 381q-444 23 -351 459l117 553h250l-121 -571q-29 -130 8 -188t138 -58l270 1264h250l-271 -1264q121 0 218 143t98 424q0 137 -10 250h256q8 -123 8 -239z" />
    <glyph glyph-name="omega" unicode="&#x3c9;" horiz-adv-x="1552" 
d="M948 -31q-209 0 -252 203h-4q-129 -203 -346 -203q-129 -1 -209 95t-80 272q0 121 41 243q41 123 84 197t135 211h271l-4 -20q-137 -181 -205 -323t-68 -300q0 -74 28 -121q29 -47 85 -47t110 62t78 178l68 319h248l-70 -332q-25 -111 5 -169t95 -58q94 0 163 128t69 300
t-62 363l5 20h253q57 -209 58 -360q0 -311 -130 -485t-366 -173z" />
    <glyph glyph-name="iotadieresis" unicode="&#x3ca;" horiz-adv-x="589" 
d="M244 1452q130 0 131 -124q0 -62 -51 -110q-52 -48 -118 -48t-98 30t-32 92t51 111t117 49zM642 1452q132 0 132 -124q0 -62 -51 -110t-117 -48t-99 30q-32 30 -32 92t51 111q50 49 116 49zM383 176q33 0 82 14l-31 -202q-78 -18 -153 -19q-268 0 -199 324l147 694h250
l-151 -715q-23 -96 55 -96z" />
    <glyph glyph-name="upsilondieresis" unicode="&#x3cb;" horiz-adv-x="1091" 
d="M500 1452q130 0 131 -124q0 -62 -51 -110q-52 -48 -118 -48t-98 30t-32 92t51 111t117 49zM898 1452q132 0 132 -124q0 -62 -51 -110t-117 -48t-99 30q-32 30 -32 92t51 111q50 49 116 49zM467 176q115 0 193 154t79 450q0 113 -4 207h254q4 -94 4 -205q0 -813 -549 -813
q-209 0 -300 120t-46 339l119 559h250l-121 -571q-51 -240 121 -240z" />
    <glyph glyph-name="omicrontonos" unicode="&#x3cc;" horiz-adv-x="1120" 
d="M971 1485l-4 -19l-183 -321h-204l4 20l133 320h254zM1022 608q0 -266 -156 -452t-415 -187q-184 0 -286 116q-101 116 -102 296q0 265 158 451t412 186q189 0 289 -115t100 -295zM324 391q0 -102 38 -159q39 -56 111 -56q129 0 208 121t79 299q0 102 -39 158t-113 57
q-128 0 -206 -122t-78 -298z" />
    <glyph glyph-name="upsilontonos" unicode="&#x3cd;" horiz-adv-x="1091" 
d="M467 176q115 0 193 154t79 450q0 113 -4 207h254q4 -94 4 -205q0 -813 -549 -813q-209 0 -300 120t-46 339l119 559h250l-121 -571q-51 -240 121 -240zM963 1485l-5 -19l-182 -321h-205l4 20l134 320h254z" />
    <glyph glyph-name="omegatonos" unicode="&#x3ce;" horiz-adv-x="1552" 
d="M1192 1485l-4 -19l-182 -321h-205l4 20l133 320h254zM948 -31q-209 0 -252 203h-4q-129 -203 -346 -203q-129 -1 -209 95t-80 272q0 121 41 243q41 123 84 197t135 211h271l-4 -20q-137 -181 -205 -323t-68 -300q0 -74 28 -121q29 -47 85 -47t110 62t78 178l68 319h248
l-70 -332q-25 -111 5 -169t95 -58q94 0 163 128t69 300t-62 363l5 20h253q57 -209 58 -360q0 -311 -130 -485t-366 -173z" />
    <glyph glyph-name="uni0400" unicode="&#x400;" horiz-adv-x="1116" 
d="M606 1817l4 18h271l67 -279l-4 -20h-227zM346 1393h825l-45 -211h-569l-80 -371h510l-45 -211h-510l-82 -389h576l-43 -211h-834z" />
    <glyph glyph-name="uni0401" unicode="&#x401;" horiz-adv-x="1116" 
d="M1040 1534q-130 0 -131 124q-1 62 51 110t118 48t98 -30t32 -92t-51 -111t-117 -49zM566 1534q-130 0 -130 124q0 62 51 110t117 48t99 -30q32 -30 32 -92t-51 -111q-52 -49 -118 -49zM346 1393h825l-45 -211h-569l-80 -371h510l-45 -211h-510l-82 -389h576l-43 -211
h-834z" />
    <glyph glyph-name="uni0402" unicode="&#x402;" horiz-adv-x="1318" 
d="M942 465q0 176 -154 176q-102 0 -229 -39l-129 -602h-256l252 1182h-246l45 211h852l-45 -211h-350l-80 -369q129 39 246 39q188 0 278 -100t90 -258t-63 -280q-64 -122 -105 -175t-68 -90t-79 -89q-51 -52 -95 -96t-50 -51l-170 178q272 279 326 421q30 77 30 153z" />
    <glyph glyph-name="uni0403" unicode="&#x403;" horiz-adv-x="1050" 
d="M1163 1835l-4 -18l-229 -281h-244l4 20l187 279h286zM346 1393h823l-45 -211h-567l-252 -1182h-256z" />
    <glyph glyph-name="uni0404" unicode="&#x404;" horiz-adv-x="1142" 
d="M117 516q0 387 209 647t551 260q180 0 331 -90l-88 -194q-111 67 -260 67t-266 -112t-172 -291h496l-46 -213h-487v-41q0 -164 67 -263t183 -100q158 0 297 68l47 -195q-190 -90 -371 -90q-236 -1 -364 149t-127 398z" />
    <glyph glyph-name="uni0405" unicode="&#x405;" horiz-adv-x="1060" 
d="M426 186q112 0 180 56t68 160q0 102 -135 178l-123 67q-221 123 -221 329t143 327t393 120q174 0 328 -94l-103 -199q-124 76 -244 76t-184 -57t-63 -152q0 -95 94 -147l129 -72q256 -143 256 -349t-152 -333t-380 -127t-404 135l103 197q133 -115 315 -115z" />
    <glyph glyph-name="uni0406" unicode="&#x406;" horiz-adv-x="600" 
d="M602 1393l-297 -1393h-256l297 1393h256z" />
    <glyph glyph-name="uni0407" unicode="&#x407;" horiz-adv-x="600" 
d="M740 1534q-130 0 -130 124q0 62 52 110t117 48q67 0 99 -30t32 -92t-52 -111t-118 -49zM268 1534q-130 0 -131 124q0 62 51 110q52 48 118 48t98 -30t32 -92t-51 -111t-117 -49zM602 1393l-297 -1393h-256l297 1393h256z" />
    <glyph glyph-name="uni0408" unicode="&#x408;" horiz-adv-x="919" 
d="M240 -31q-98 1 -180 43t-128 103l154 178q31 -37 48 -54t54 -35t82 -18q147 0 199 240l205 967h256l-213 -1004q-90 -420 -477 -420z" />
    <glyph glyph-name="uni0409" unicode="&#x409;" horiz-adv-x="1859" 
d="M1249 211q117 0 175 85t59 202q0 158 -140 157h-235l-94 -444h235zM1384 866q184 0 280 -86t95 -243q0 -257 -130 -397t-386 -140h-530l252 1182h-316l-119 -453q-123 -474 -271 -620q-79 -78 -159 -104t-198 -25l47 219q72 1 121 35t107 157t116 354l164 648h809
l-113 -527h231z" />
    <glyph glyph-name="uni040A" unicode="&#x40a;" horiz-adv-x="1912" 
d="M1298 211q117 0 178 85q60 85 60 202q0 160 -141 159h-234l-94 -446h231zM1438 868q182 0 278 -87t96 -246q0 -255 -132 -395t-388 -140h-528l139 657h-459l-139 -657h-256l297 1393h256l-113 -525h459l111 525h260l-113 -525h232z" />
    <glyph glyph-name="uni040B" unicode="&#x40b;" horiz-adv-x="1333" 
d="M825 731q-125 0 -250 -53l-143 -678h-256l252 1182h-248l45 211h854l-45 -211h-350l-63 -297q149 59 315 59t249 -108t40 -301l-113 -535h-256l111 522q45 209 -142 209z" />
    <glyph glyph-name="uni040C" unicode="&#x40c;" horiz-adv-x="1206" 
d="M1178 1835l-4 -18l-230 -281h-244l5 20l186 279h287zM442 627h-4l-133 -627h-256l297 1393h256l-145 -676h4l569 676h301l-4 -21l-629 -715l365 -637l-4 -20h-283z" />
    <glyph glyph-name="uni040D" unicode="&#x40d;" horiz-adv-x="1374" 
d="M678 1817l4 18h270l68 -279l-4 -20h-228zM346 358h6l748 1035h276l-297 -1393h-256l166 778l88 254h-6l-745 -1032h-277l297 1393h256l-166 -781z" />
    <glyph glyph-name="uni040E" unicode="&#x40e;" horiz-adv-x="1058" 
d="M786 1755q127 0 256 70l35 -160q-154 -129 -321 -129t-277 143l82 146q98 -70 225 -70zM115 0h-97l45 211h56q84 0 137 34t100 120l29 51l-188 956l4 21h276l58 -441l18 -268h4l133 268l238 441h278l-4 -21l-600 -1034q-121 -206 -218 -272t-269 -66z" />
    <glyph glyph-name="uni040F" unicode="&#x40f;" horiz-adv-x="1349" 
d="M584 -289h-187l41 289h-389l297 1393h256l-252 -1182h494l252 1182h256l-297 -1393h-389z" />
    <glyph glyph-name="uni0410" unicode="&#x410;" horiz-adv-x="1243" 
d="M758 1167h-6l-170 -374l-142 -285h348l-22 285zM944 1393l156 -1393h-266l-17 305h-487l-150 -305h-280l743 1393h301z" />
    <glyph glyph-name="uni0411" unicode="&#x411;" horiz-adv-x="1208" 
d="M586 211q117 0 176 85t59 202q0 160 -141 159h-236l-94 -446h236zM723 868q182 0 277 -86t96 -245q0 -257 -131 -397t-387 -140h-529l297 1393h844l-45 -211h-588l-68 -314h234z" />
    <glyph glyph-name="uni0412" unicode="&#x412;" horiz-adv-x="1236" 
d="M664 811q145 0 198 54t53 184q0 73 -42 103t-136 30h-180l-80 -371h187zM776 1393q201 0 306 -75q106 -75 106 -219q0 -145 -74 -243t-176 -141v-4q166 -68 166 -256q0 -455 -524 -455h-531l297 1393h430zM582 211q143 0 203 68t61 190q0 145 -195 145h-215l-86 -403h232
z" />
    <glyph glyph-name="uni0413" unicode="&#x413;" horiz-adv-x="1050" 
d="M346 1393h823l-45 -211h-567l-252 -1182h-256z" />
    <glyph glyph-name="uni0414" unicode="&#x414;" horiz-adv-x="1349" 
d="M336 211h457l206 971h-337l-93 -346q-129 -492 -233 -625zM57 -289h-186l70 500h112q162 178 277 627l141 555h829l-251 -1182h141l-141 -500h-187l43 289h-770z" />
    <glyph glyph-name="uni0415" unicode="&#x415;" horiz-adv-x="1116" 
d="M346 1393h825l-45 -211h-569l-80 -371h510l-45 -211h-510l-82 -389h576l-43 -211h-834z" />
    <glyph glyph-name="uni0416" unicode="&#x416;" horiz-adv-x="1822" 
d="M793 623h-2l-572 -623h-313l4 20l637 685l-326 667l4 21h273l313 -674h2l143 674h258l-143 -674h4l570 674h301l-4 -21l-619 -708l354 -644l-4 -20h-282l-336 623h-4l-133 -623h-259z" />
    <glyph glyph-name="uni0417" unicode="&#x417;" horiz-adv-x="1050" 
d="M520 813q127 0 186 70q58 70 58 154q0 169 -160 169q-139 0 -307 -76l-57 201q190 92 388 92t303 -88t105 -235q0 -146 -84 -250t-186 -150v-4q162 -76 162 -274t-155 -326q-155 -127 -395 -127t-392 105l88 198q135 -86 311 -86q117 0 202 72t85 184q0 156 -199 156
h-209l45 215h211z" />
    <glyph glyph-name="uni0418" unicode="&#x418;" horiz-adv-x="1374" 
d="M346 358h6l748 1035h276l-297 -1393h-256l166 778l88 254h-6l-745 -1032h-277l297 1393h256l-166 -781z" />
    <glyph glyph-name="uni0419" unicode="&#x419;" horiz-adv-x="1374" 
d="M958 1755q127 0 256 70l35 -160q-155 -129 -321 -129t-277 143l82 146q98 -70 225 -70zM346 358h6l748 1035h276l-297 -1393h-256l166 778l88 254h-6l-745 -1032h-277l297 1393h256l-166 -781z" />
    <glyph glyph-name="uni041A" unicode="&#x41a;" horiz-adv-x="1206" 
d="M442 627h-4l-133 -627h-256l297 1393h256l-145 -676h4l569 676h301l-4 -21l-629 -715l365 -637l-4 -20h-283z" />
    <glyph glyph-name="uni041B" unicode="&#x41b;" horiz-adv-x="1333" 
d="M782 0l252 1182h-387l-119 -453q-82 -309 -170 -472t-191 -220t-267 -57l47 217q72 1 121 35t107 158t116 355l164 648h880l-297 -1393h-256z" />
    <glyph glyph-name="uni041C" unicode="&#x41c;" horiz-adv-x="1624" 
d="M797 565h4l168 275l397 553h258l-295 -1393h-256l146 690l94 307h-2l-437 -647h-225l-160 647h-2l-34 -305l-148 -692h-256l297 1393h238l159 -553z" />
    <glyph glyph-name="uni041D" unicode="&#x41d;" horiz-adv-x="1366" 
d="M815 0l127 600h-510l-127 -600h-256l297 1393h256l-125 -582h510l123 582h256l-295 -1393h-256z" />
    <glyph glyph-name="uni041E" unicode="&#x41e;" horiz-adv-x="1425" 
d="M1358 883q0 -240 -81 -443t-256 -337t-417 -134t-364 152t-123 391q0 361 187 628q90 130 238 207t330 76q242 0 364 -150t122 -390zM381 508q0 -136 61 -228q60 -92 184 -94q124 0 218 66t145 170q103 210 103 444q0 154 -60 247t-182 93q-123 0 -216 -64t-147 -167
q-106 -203 -106 -467z" />
    <glyph glyph-name="uni041F" unicode="&#x41f;" horiz-adv-x="1368" 
d="M817 0l252 1182h-512l-252 -1182h-256l297 1393h1022l-295 -1393h-256z" />
    <glyph glyph-name="uni0420" unicode="&#x420;" horiz-adv-x="1136" 
d="M629 694q106 0 178 91t72 216q0 81 -38 131t-108 50h-176l-104 -488h176zM778 1393q180 -1 274 -99t95 -258q0 -240 -139 -396t-383 -157h-217l-103 -483h-256l297 1393h432z" />
    <glyph glyph-name="uni0421" unicode="&#x421;" horiz-adv-x="1148" 
d="M117 516q0 387 209 647t551 260q180 0 331 -90l-88 -194q-111 68 -268 67q-190 0 -329 -195q-138 -196 -138 -462q0 -164 67 -263t183 -100q158 0 297 68l47 -195q-190 -90 -371 -90q-236 -1 -364 149t-127 398z" />
    <glyph glyph-name="uni0422" unicode="&#x422;" horiz-adv-x="1056" 
d="M227 1393h949l-46 -211h-346l-252 -1182h-256l252 1182h-346z" />
    <glyph glyph-name="uni0423" unicode="&#x423;" horiz-adv-x="1058" 
d="M115 0h-97l45 211h56q84 0 137 34t100 120l29 51l-188 956l4 21h276l58 -441l18 -268h4l133 268l238 441h278l-4 -21l-600 -1034q-121 -206 -218 -272t-269 -66z" />
    <glyph glyph-name="uni0424" unicode="&#x424;" horiz-adv-x="1550" 
d="M1231 799q0 244 -219 276l-162 -760q381 66 381 484zM369 592q0 -244 225 -277l162 762q-182 -25 -285 -148q-102 -124 -102 -337zM96 582q0 268 153 454q168 204 548 234l26 123h256l-26 -123q231 -23 341 -148t109 -313q0 -267 -159 -459t-535 -227l-25 -123h-256
l25 121q-233 23 -345 147t-112 314z" />
    <glyph glyph-name="uni0425" unicode="&#x425;" horiz-adv-x="1163" 
d="M229 1393h263l137 -547h4l368 547h281l-4 -21l-492 -674l205 -678l-4 -20h-262l-135 547h-4l-371 -547h-283l5 20l491 678l-205 674z" />
    <glyph glyph-name="uni0426" unicode="&#x426;" horiz-adv-x="1402" 
d="M1100 -289h-187l43 289h-907l297 1393h256l-252 -1182h494l252 1182h256l-252 -1182h143z" />
    <glyph glyph-name="uni0427" unicode="&#x427;" horiz-adv-x="1228" 
d="M567 602q147 0 250 53l158 738h256l-297 -1393h-256l94 446q-150 -59 -316 -59q-166 -1 -248 105q-83 106 -44 294l129 607h256l-127 -596q-41 -195 145 -195z" />
    <glyph glyph-name="uni0428" unicode="&#x428;" horiz-adv-x="1916" 
d="M1622 0h-1573l297 1393h256l-252 -1182h404l252 1182h256l-252 -1182h401l250 1182h256z" />
    <glyph glyph-name="uni0429" unicode="&#x429;" horiz-adv-x="1968" 
d="M1665 -289h-184l43 289h-1475l297 1393h256l-252 -1182h404l252 1182h256l-252 -1182h401l250 1182h256l-250 -1182h141z" />
    <glyph glyph-name="uni042A" unicode="&#x42a;" horiz-adv-x="1306" 
d="M694 211q117 0 176 85t60 202q0 160 -139 159h-236l-94 -446h233zM834 868q182 0 277 -86t95 -245q0 -257 -131 -397t-387 -140h-528l252 1182h-234l43 211h492l-113 -525h234z" />
    <glyph glyph-name="uni042B" unicode="&#x42b;" horiz-adv-x="1685" 
d="M584 211q117 0 176 85t59 202q0 160 -139 159h-236l-94 -446h234zM723 868q184 0 278 -86t95 -245q0 -257 -131 -397t-387 -140h-529l297 1393h256l-113 -525h234zM1688 1393l-297 -1393h-256l297 1393h256z" />
    <glyph glyph-name="uni042C" unicode="&#x42c;" horiz-adv-x="1196" 
d="M584 211q117 0 176 85t59 202q0 160 -139 159h-236l-94 -446h234zM723 868q184 0 278 -86t95 -245q0 -257 -131 -397t-387 -140h-529l297 1393h256l-113 -525h234z" />
    <glyph glyph-name="uni042D" unicode="&#x42d;" horiz-adv-x="1148" 
d="M546 1206q-132 0 -280 -71l-49 198q190 90 371 90q231 -1 361 -151t130 -408q0 -375 -207 -635t-553 -260q-180 0 -331 90l88 195q113 -68 259 -68t267 111t168 293h-494l46 213h489q4 53 4 78q-2 149 -70 237q-67 88 -199 88z" />
    <glyph glyph-name="uni042E" unicode="&#x42e;" horiz-adv-x="1992" 
d="M948 508q0 -136 62 -228t184 -94q123 0 217 66t145 170q103 210 103 444q1 154 -59 247t-183 93t-216 -64t-146 -167q-53 -102 -80 -217q-27 -114 -27 -250zM1440 1423q242 0 364 -150t121 -390q0 -240 -81 -443t-256 -337t-417 -134q-243 0 -365 152t-122 391q0 55 2 84
h-254l-127 -596h-256l297 1393h256l-125 -586h242q70 272 254 444t467 172z" />
    <glyph glyph-name="uni042F" unicode="&#x42f;" horiz-adv-x="1259" 
d="M709 1182q-105 0 -167 -78t-62 -170q-1 -179 138 -178h252l91 426h-252zM209 887q0 231 128 368t384 138h541l-297 -1393h-256l116 545h-159l-437 -545h-278l6 33l451 551q-199 98 -199 303z" />
    <glyph glyph-name="uni0430" unicode="&#x430;" horiz-adv-x="1134" 
d="M602 811q-131 0 -204 -127t-72 -293q0 -215 141 -215q74 0 174 74l109 504q-57 57 -148 57zM543 1018q134 0 260 -119h4l51 88h191l-166 -772q-6 -23 -2 -30t26 -7h72l-41 -188q-78 -14 -145 -15q-150 0 -156 113h-4q-70 -59 -130 -89t-141 -30q-150 0 -224 110t-75 281
q1 264 133 461t347 197z" />
    <glyph glyph-name="uni0431" unicode="&#x431;" horiz-adv-x="1148" 
d="M782 518q0 90 -42 144t-115 55q-115 0 -194 -97t-79 -237q0 -91 42 -149t116 -58q112 0 192 104t80 238zM702 924q154 0 247 -100t93 -259q0 -244 -152 -420t-405 -176q-381 0 -381 471q0 228 52 408t139 291q166 209 403 264q76 17 261 33t237 26l-49 -229
q-37 -11 -199 -21t-221 -24q-139 -36 -222 -136t-126 -278h6q51 62 136 106t181 44z" />
    <glyph glyph-name="uni0432" unicode="&#x432;" horiz-adv-x="1026" 
d="M518 584q156 0 156 139q0 88 -107 88h-133l-49 -227h133zM641 987q135 0 212 -57t77 -168q0 -182 -176 -266v-2q53 -20 86 -68t32 -111q0 -315 -383 -315h-469l209 987h412zM473 176q86 0 122 51t36 107q0 88 -107 88h-172l-53 -246h174z" />
    <glyph glyph-name="uni0433" unicode="&#x433;" horiz-adv-x="854" 
d="M229 987h660l-43 -196h-416l-168 -791h-242z" />
    <glyph glyph-name="uni0434" unicode="&#x434;" horiz-adv-x="1138" 
d="M322 201h311l125 590h-244l-45 -166q-90 -336 -147 -424zM63 -246h-167l57 447h100q102 102 185 420l92 366h710l-166 -786h99l-129 -447h-168l29 246h-570z" />
    <glyph glyph-name="uni0435" unicode="&#x435;" horiz-adv-x="1038" 
d="M729 682q0 154 -139 154q-84 0 -148 -74t-92 -176h363q16 41 16 96zM492 170q108 0 274 74l43 -187q-183 -88 -369 -88t-282 117t-97 293q0 256 154 447t391 192q174 0 262 -96t88 -234t-61 -266h-586q-16 -112 30 -182q45 -70 153 -70z" />
    <glyph glyph-name="uni0436" unicode="&#x436;" horiz-adv-x="1501" 
d="M592 428l-391 -428h-289l2 14l467 488l-246 471l2 14h254l219 -471h4l101 471h248l-101 -471h4l394 471h280l-4 -14l-449 -500l263 -459l-4 -14h-259l-239 432h-4l-90 -432h-248l90 428h-4z" />
    <glyph glyph-name="uni0437" unicode="&#x437;" horiz-adv-x="927" 
d="M440 594q139 0 140 133q0 94 -132 94t-270 -51l-28 180q164 68 336 68t264 -66t92 -176q0 -203 -178 -272v-4q109 -53 108 -187q0 -344 -473 -344q-190 0 -328 76l62 188q113 -63 289 -63q199 0 198 152q0 76 -106 75h-240l43 197h223z" />
    <glyph glyph-name="uni0438" unicode="&#x438;" horiz-adv-x="1124" 
d="M322 336h6l96 149l373 502h272l-209 -987h-242l99 459l49 192h-6l-125 -192l-342 -459h-273l209 987h242l-109 -504z" />
    <glyph glyph-name="uni0439" unicode="&#x439;" horiz-adv-x="1124" 
d="M322 336h6l96 149l373 502h272l-209 -987h-242l99 459l49 192h-6l-125 -192l-342 -459h-273l209 987h242l-109 -504zM748 1380q130 0 256 70l34 -160q-154 -129 -320 -129t-278 144l84 145q94 -70 224 -70z" />
    <glyph glyph-name="uni043A" unicode="&#x43a;" horiz-adv-x="1007" 
d="M358 432h-4l-92 -432h-242l209 987h242l-100 -471h4l395 471h281l-2 -14l-443 -500l254 -459l-2 -14h-260z" />
    <glyph glyph-name="uni043B" unicode="&#x43b;" horiz-adv-x="1099" 
d="M594 0l168 791h-264l-82 -289q-111 -396 -283 -476q-84 -40 -215 -40l29 202q80 0 139 73t111 263l120 463h727l-210 -987h-240z" />
    <glyph glyph-name="uni043C" unicode="&#x43c;" horiz-adv-x="1296" 
d="M610 453h4l82 127l301 407h244l-209 -987h-241l90 426l49 180h-2l-109 -168l-145 -202h-197l-55 202l-37 168h-4l-29 -180l-90 -426h-242l209 987h224l129 -407z" />
    <glyph glyph-name="uni043D" unicode="&#x43d;" horiz-adv-x="1112" 
d="M608 0l84 393h-346l-84 -393h-242l209 987h242l-82 -393h344l84 393h240l-209 -987h-240z" />
    <glyph glyph-name="uni043E" unicode="&#x43e;" horiz-adv-x="1120" 
d="M1022 608q0 -266 -156 -452t-415 -187q-184 0 -286 116q-101 116 -102 296q0 265 158 451t412 186q189 0 289 -115t100 -295zM324 391q0 -102 38 -159q39 -56 111 -56q129 0 208 121t79 299q0 102 -39 158t-113 57q-128 0 -206 -122t-78 -298z" />
    <glyph glyph-name="uni043F" unicode="&#x43f;" horiz-adv-x="1112" 
d="M608 0l168 791h-346l-168 -791h-242l209 987h828l-209 -987h-240z" />
    <glyph glyph-name="uni0440" unicode="&#x440;" horiz-adv-x="1122" 
d="M475 176q131 0 208 128t77 292q0 98 -38 156t-115 59q-77 0 -181 -74l-107 -504q55 -57 156 -57zM710 1018q152 0 233 -112t81 -281q0 -260 -139 -458t-353 -198q-143 0 -241 103h-4l-103 -478h-252l297 1393h185l18 -88h4q122 119 274 119z" />
    <glyph glyph-name="uni0441" unicode="&#x441;" horiz-adv-x="917" 
d="M63 379q0 275 160 457t420 182q150 0 256 -62l-72 -188q-104 43 -180 43q-131 0 -226 -112t-95 -291q0 -111 50 -171q50 -61 130 -61t205 43l28 -188q-137 -61 -278 -62q-188 0 -293 113t-105 297z" />
    <glyph glyph-name="uni0442" unicode="&#x442;" horiz-adv-x="864" 
d="M139 987h760l-41 -196h-260l-168 -791h-242l168 791h-258z" />
    <glyph glyph-name="uni0443" unicode="&#x443;" horiz-adv-x="1001" 
d="M39 -436q-84 0 -178 24l39 185q84 -19 133 -19t88 32t80 110l63 114l-147 957l4 20h246l45 -545l4 -204h6l90 204l268 545h269l-5 -20l-634 -1135q-150 -268 -371 -268z" />
    <glyph glyph-name="uni0444" unicode="&#x444;" horiz-adv-x="1626" 
d="M1235 1018q145 0 219 -104t74 -270t-51 -316t-163 -254t-248 -104t-237 73h-4l-96 -449h-250l96 449h-4q-121 -74 -215 -74q-145 1 -219 105t-74 269q-1 165 51 315t164 255t252 105t234 -66h4l102 482h250l-102 -482h4q102 66 213 66zM592 811q-115 0 -193 -114
q-77 -113 -77 -317t135 -204q77 0 153 45l119 557q-47 33 -137 33zM992 176q77 0 131 41t81 94q66 130 66 301q0 199 -137 199q-74 0 -154 -45l-119 -557q55 -33 132 -33z" />
    <glyph glyph-name="uni0445" unicode="&#x445;" horiz-adv-x="1013" 
d="M475 360h-4l-262 -360h-279l4 20l381 474l-180 473l4 20h256l109 -362h4l262 362h279l-7 -20l-378 -473l178 -474l-4 -20h-250z" />
    <glyph glyph-name="uni0446" unicode="&#x446;" horiz-adv-x="1153" 
d="M872 -246h-167l30 246h-715l209 987h242l-168 -792h330l168 792h243l-167 -792h127z" />
    <glyph glyph-name="uni0447" unicode="&#x447;" horiz-adv-x="991" 
d="M430 469q96 0 162 35l102 483h242l-211 -987h-242l68 311q-102 -45 -205 -45q-145 0 -214 89t-38 227l86 405h242l-86 -405q-25 -113 94 -113z" />
    <glyph glyph-name="uni0448" unicode="&#x448;" horiz-adv-x="1533" 
d="M1268 0h-1248l209 987h242l-168 -792h262l168 792h242l-168 -792h258l170 792h244z" />
    <glyph glyph-name="uni0449" unicode="&#x449;" horiz-adv-x="1587" 
d="M1305 -246h-168l30 246h-1147l209 987h242l-168 -792h262l168 792h242l-168 -792h258l170 792h244l-170 -792h127z" />
    <glyph glyph-name="uni044A" unicode="&#x44a;" horiz-adv-x="1058" 
d="M545 188q55 0 96 46t41 122q0 96 -82 97h-164l-57 -265h166zM635 645q151 1 229 -65t78 -187q0 -197 -95 -295t-308 -98h-441l168 791h-170l41 196h412l-74 -342h160z" />
    <glyph glyph-name="uni044B" unicode="&#x44b;" horiz-adv-x="1425" 
d="M1161 0h-252l209 987h252zM467 188q88 0 112 63q25 63 25 105q0 96 -82 97h-164l-57 -265h166zM557 643q151 -1 229 -65t78 -185q0 -197 -97 -295t-306 -98h-441l209 987h242l-72 -344h158z" />
    <glyph glyph-name="uni044C" unicode="&#x44c;" horiz-adv-x="980" 
d="M467 188q88 0 112 63q25 63 25 105q0 96 -82 97h-164l-57 -265h166zM557 643q151 -1 229 -65t78 -185q0 -197 -97 -295t-306 -98h-441l209 987h242l-72 -344h158z" />
    <glyph glyph-name="uni044D" unicode="&#x44d;" horiz-adv-x="931" 
d="M834 604q0 -270 -159 -448t-425 -179q-158 0 -266 66l84 190q110 -53 200 -53t166 56t107 157h-346l41 197h337q4 98 -41 158q-44 60 -126 61q-82 0 -220 -55l-51 192q141 64 313 64t280 -112q106 -112 106 -294z" />
    <glyph glyph-name="uni044E" unicode="&#x44e;" horiz-adv-x="1593" 
d="M797 391q0 -103 39 -159t110 -56q129 0 208 121t79 299q0 102 -39 158t-113 57q-127 0 -205 -122t-79 -298zM1495 608q0 -266 -156 -452t-415 -187q-184 0 -286 116q-101 116 -101 296v16h-191l-84 -397h-242l209 987h242l-82 -393h176q55 188 199 306t336 118
q194 0 294 -115t101 -295z" />
    <glyph glyph-name="uni044F" unicode="&#x44f;" horiz-adv-x="1046" 
d="M522 791q-68 -1 -104 -51t-37 -119q0 -98 84 -99h186l56 269h-185zM121 598q0 170 98 280t313 109h459l-211 -987h-241l69 326h-84l-317 -326h-262l4 23l332 335q-74 30 -117 92t-43 148z" />
    <glyph glyph-name="uni0450" unicode="&#x450;" horiz-adv-x="1038" 
d="M479 1442l4 18h254l84 -278l-4 -21h-209zM729 682q0 154 -139 154q-84 0 -148 -74t-92 -176h363q16 41 16 96zM492 170q108 0 274 74l43 -187q-183 -88 -369 -88t-282 117t-97 293q0 256 154 447t391 192q174 0 262 -96t88 -234t-61 -266h-586q-16 -112 30 -182
q45 -70 153 -70z" />
    <glyph glyph-name="uni0451" unicode="&#x451;" horiz-adv-x="1038" 
d="M530 1452q132 0 130 -124q0 -62 -52 -110t-118 -48t-98 30t-32 92t52 111t118 49zM928 1452q132 0 131 -124q0 -62 -51 -110q-52 -48 -118 -48t-98 30t-32 92t51 111t117 49zM729 682q0 154 -139 154q-84 0 -148 -74t-92 -176h363q16 41 16 96zM492 170q108 0 274 74
l43 -187q-183 -88 -369 -88t-282 117t-97 293q0 256 154 447t391 192q174 0 262 -96t88 -234t-61 -266h-586q-16 -112 30 -182q45 -70 153 -70z" />
    <glyph glyph-name="uni0452" unicode="&#x452;" horiz-adv-x="1099" 
d="M723 1018q129 0 200 -92t70 -256q0 -365 -383 -992l-194 115q137 237 227 475t90 373q0 170 -110 170q-102 0 -205 -102l-152 -709h-248l238 1116h-90l41 191h90l27 127h247l-26 -127h188l-41 -191h-188l-45 -211h4q131 113 260 113z" />
    <glyph glyph-name="uni0453" unicode="&#x453;" horiz-adv-x="854" 
d="M229 987h660l-43 -196h-416l-168 -791h-242zM967 1460l-4 -18l-248 -281h-226l5 21l202 278h271z" />
    <glyph glyph-name="uni0454" unicode="&#x454;" horiz-adv-x="927" 
d="M63 383q0 270 159 448t425 179q158 0 266 -66l-84 -190q-111 53 -201 53t-165 -57q-76 -57 -107 -160h346l-40 -197h-338q-4 -98 41 -156q45 -59 127 -59t219 55l51 -192q-142 -63 -314 -63t-278 111q-106 112 -107 294z" />
    <glyph glyph-name="uni0455" unicode="&#x455;" horiz-adv-x="897" 
d="M346 166q160 0 160 115q0 68 -96 106l-109 47q-184 80 -184 245t107 252q108 87 296 87t328 -72l-84 -182q-119 57 -242 57q-154 0 -153 -108q0 -66 88 -103l108 -47q193 -84 193 -252t-111 -255t-313 -87t-344 94l92 185q127 -82 264 -82z" />
    <glyph glyph-name="uni0456" unicode="&#x456;" horiz-adv-x="536" 
d="M446 1450q132 0 130 -124q0 -62 -52 -110t-118 -48t-98 30t-32 92t52 111t118 49zM272 0h-252l209 987h252z" />
    <glyph glyph-name="uni0457" unicode="&#x457;" horiz-adv-x="534" 
d="M270 0h-252l209 987h252zM240 1452q130 0 131 -124q1 -62 -51 -110t-118 -48q-130 -2 -130 122q0 62 51 111t117 49zM638 1452q132 0 132 -124q0 -62 -51 -110t-117 -48t-99 30q-32 30 -32 92t51 111q50 49 116 49z" />
    <glyph glyph-name="uni0458" unicode="&#x458;" horiz-adv-x="538" 
d="M406 1167q-130 -1 -130 123q0 62 52 111t116 49q132 0 132 -124q0 -62 -52 -111q-52 -48 -118 -48zM-121 -436q-76 0 -141 14l41 191q49 -14 90 -15q98 0 129 144l231 1089h254l-231 -1087q-72 -336 -373 -336z" />
    <glyph glyph-name="uni0459" unicode="&#x459;" horiz-adv-x="1486" 
d="M975 195q63 0 99 46t36 113q0 92 -82 92h-166l-53 -251h166zM1063 643q151 -1 229 -65t78 -185q0 -197 -97 -295t-306 -98h-441l168 791h-198l-80 -289q-88 -304 -198 -410t-302 -106l29 202q80 0 139 73t111 263l122 463h660l-72 -344h158z" />
    <glyph glyph-name="uni045A" unicode="&#x45a;" horiz-adv-x="1538" 
d="M1024 195q66 0 102 46t35 113q0 92 -84 92h-164l-53 -251h164zM1114 643q152 -1 230 -65t77 -185q0 -197 -97 -295t-306 -98h-440l94 446h-316l-94 -446h-242l209 987h242l-72 -344h314l73 344h242l-74 -344h160z" />
    <glyph glyph-name="uni045B" unicode="&#x45b;" horiz-adv-x="1110" 
d="M623 811q-104 0 -199 -98l-154 -713h-252l238 1116h-86l39 191h88l27 127h251l-26 -127h186l-41 -191h-186l-45 -209h4q133 111 260 111q165 0 233 -104t27 -296l-133 -618h-252l129 604q45 207 -108 207z" />
    <glyph glyph-name="uni045C" unicode="&#x45c;" horiz-adv-x="1007" 
d="M358 432h-4l-92 -432h-242l209 987h242l-100 -471h4l395 471h281l-2 -14l-443 -500l254 -459l-2 -14h-260zM1014 1460l-4 -18l-248 -281h-225l4 21l202 278h271z" />
    <glyph glyph-name="uni045D" unicode="&#x45d;" horiz-adv-x="1124" 
d="M322 336h6l96 149l373 502h272l-209 -987h-242l99 459l49 192h-6l-125 -192l-342 -459h-273l209 987h242l-109 -504zM496 1442l4 18h254l84 -278l-4 -21h-209z" />
    <glyph glyph-name="uni045E" unicode="&#x45e;" horiz-adv-x="1001" 
d="M650 1380q130 0 255 70l35 -160q-154 -129 -321 -129t-277 144l84 145q94 -70 224 -70zM39 -436q-84 0 -178 24l39 185q84 -19 133 -19t88 32t80 110l63 114l-147 957l4 20h246l45 -545l4 -204h6l90 204l268 545h269l-5 -20l-634 -1135q-150 -268 -371 -268z" />
    <glyph glyph-name="uni045F" unicode="&#x45f;" horiz-adv-x="1099" 
d="M461 -246h-166l24 246h-299l209 987h242l-168 -792h330l168 792h243l-208 -987h-297z" />
    <glyph glyph-name="uni0462" unicode="&#x462;" horiz-adv-x="1339" 
d="M733 211q117 0 175 85t59 202q0 160 -140 159h-235l-94 -446h235zM870 868q182 0 278 -86t95 -245q0 -257 -130 -397t-386 -140h-530l225 1057h-250l45 211h250l27 125h256l-27 -125h346l-45 -211h-346l-41 -189h233z" />
    <glyph glyph-name="uni0463" unicode="&#x463;" horiz-adv-x="1062" 
d="M551 195q59 1 93 39t39 67t5 53q0 92 -84 92h-164l-53 -251h164zM641 643q151 -1 229 -65t78 -185q0 -197 -97 -295t-306 -98h-441l168 791h-172l41 196h172l97 449h241l-96 -449h287l-43 -196h-285l-33 -148h160z" />
    <glyph glyph-name="uni0472" unicode="&#x472;" horiz-adv-x="1425" 
d="M846 1206q-164 0 -271 -112q-106 -113 -157 -291h672l2 63q0 154 -60 247t-186 93zM381 526q0 -154 61 -246t187 -94q168 0 274 118t154 300h-674q-2 -27 -2 -78zM1358 883q0 -240 -81 -443t-256 -337t-417 -134t-364 152t-123 391q0 361 187 628q90 130 238 207t330 76
q242 0 364 -150t122 -390z" />
    <glyph glyph-name="uni0473" unicode="&#x473;" horiz-adv-x="1120" 
d="M760 596q0 215 -159 215q-81 0 -147 -61t-102 -164h408v10zM324 391q0 -215 157 -215q80 0 148 62t100 163h-405v-10zM1022 608q0 -266 -156 -452t-415 -187q-184 0 -286 116q-101 116 -102 296q0 265 158 451t412 186q189 0 289 -115t100 -295z" />
    <glyph glyph-name="uni0474" unicode="&#x474;" horiz-adv-x="1257" 
d="M1186 1055l-535 -1055h-315l-139 1372l4 21h258l55 -795l10 -377h6l172 379l263 543q72 147 170 214t256 66l-41 -217q-88 1 -164 -151z" />
    <glyph glyph-name="uni0475" unicode="&#x475;" horiz-adv-x="1028" 
d="M514 416l186 372q56 113 140 167t223 55l-41 -201q-55 0 -109 -98l-391 -711h-276l-127 967l4 20h237l50 -571l6 -207h4z" />
    <glyph glyph-name="uni0490" unicode="&#x490;" horiz-adv-x="1046" 
d="M1001 1681h199l-76 -499h-567l-252 -1182h-256l297 1393h563z" />
    <glyph glyph-name="uni0491" unicode="&#x491;" horiz-adv-x="849" 
d="M745 1204h173l-72 -413h-416l-168 -791h-242l209 987h441z" />
    <glyph glyph-name="uni0E3F" unicode="&#xe3f;" 
d="M836 1060q0 106 -76 111l-74 -350q68 2 109 67q41 66 41 172zM524 1176l-75 -359h88l77 359h-90zM406 612l-84 -395h88l84 395h-88zM739 483q0 123 -98 125l-84 -389q90 0 136 81t46 183zM1094 1088q0 -134 -62 -232t-155 -145v-4q131 -68 131 -238q0 -330 -253 -425
q-99 -38 -243 -44l-47 -221h-148l48 221h-351l297 1393h348l39 184h148l-39 -188q137 -11 212 -89t75 -212z" />
    <glyph glyph-name="Wgrave" unicode="&#x1e80;" horiz-adv-x="1857" 
d="M911 1817l4 18h271l67 -279l-4 -20h-227zM1985 1393l-5 -21l-622 -1372h-305l-13 819l17 340h-4l-131 -340l-361 -819h-307l-39 1372l4 21h266l-16 -809l-12 -346h4l131 346l352 809h301l6 -809l-14 -346h4l133 346l328 809h283z" />
    <glyph glyph-name="wgrave" unicode="&#x1e81;" horiz-adv-x="1560" 
d="M664 1442l4 18h254l84 -278l-5 -21h-208zM1593 987l-4 -20l-463 -967h-276l-35 584l8 202h-4l-80 -202l-282 -584h-275l-51 967l4 20h232l8 -581l-15 -199h5l81 199l271 581h274l25 -581l-2 -199h4l69 199l252 581h254z" />
    <glyph glyph-name="Wacute" unicode="&#x1e82;" horiz-adv-x="1857" 
d="M1495 1835l-4 -18l-229 -281h-244l4 20l186 279h287zM1985 1393l-5 -21l-622 -1372h-305l-13 819l17 340h-4l-131 -340l-361 -819h-307l-39 1372l4 21h266l-16 -809l-12 -346h4l131 346l352 809h301l6 -809l-14 -346h4l133 346l328 809h283z" />
    <glyph glyph-name="wacute" unicode="&#x1e83;" horiz-adv-x="1560" 
d="M1276 1460l-4 -18l-248 -281h-225l4 21l203 278h270zM1593 987l-4 -20l-463 -967h-276l-35 584l8 202h-4l-80 -202l-282 -584h-275l-51 967l4 20h232l8 -581l-15 -199h5l81 199l271 581h274l25 -581l-2 -199h4l69 199l252 581h254z" />
    <glyph glyph-name="Wdieresis" unicode="&#x1e84;" horiz-adv-x="1857" 
d="M1382 1534q-130 0 -131 124q-1 62 51 110t118 48t99 -30q31 -30 31 -92t-51 -111t-117 -49zM908 1534q-130 0 -130 124q0 62 51 110t117 48t100 -30q32 -30 32 -92t-52 -111t-118 -49zM1985 1393l-5 -21l-622 -1372h-305l-13 819l17 340h-4l-131 -340l-361 -819h-307
l-39 1372l4 21h266l-16 -809l-12 -346h4l131 346l352 809h301l6 -809l-14 -346h4l133 346l328 809h283z" />
    <glyph glyph-name="wdieresis" unicode="&#x1e85;" horiz-adv-x="1560" 
d="M752 1452q130 0 131 -124q1 -62 -51 -110t-118 -48q-130 -2 -130 122q0 62 51 111t117 49zM1150 1452q132 0 132 -124q0 -62 -51 -110t-117 -48t-99 30q-32 30 -32 92t51 111q50 49 116 49zM1593 987l-4 -20l-463 -967h-276l-35 584l8 202h-4l-80 -202l-282 -584h-275
l-51 967l4 20h232l8 -581l-15 -199h5l81 199l271 581h274l25 -581l-2 -199h4l69 199l252 581h254z" />
    <glyph glyph-name="uni1E9E" unicode="&#x1e9e;" horiz-adv-x="1320" 
d="M836 1423q114 0 228 -41t196 -104l-37 -170l-269 -317v-5q119 -24 185 -100t65 -201q0 -229 -142 -372t-370 -144q-139 0 -233 25l47 215q74 -25 162 -25q124 0 192 81t68 196q0 145 -146 145h-133l39 180l293 371q-66 43 -184 43q-248 0 -310 -293l-192 -907h-258
l192 903q111 520 607 520z" />
    <glyph glyph-name="Ygrave" unicode="&#x1ef2;" horiz-adv-x="1120" 
d="M539 1817l4 18h270l68 -279l-4 -20h-228zM182 1393h264l148 -598h4l401 598h285l-4 -21l-594 -807l-119 -565h-256l119 565l-252 807z" />
    <glyph glyph-name="ygrave" unicode="&#x1ef3;" horiz-adv-x="1001" 
d="M389 1442l4 18h254l84 -278l-4 -21h-209zM39 -436q-84 0 -178 24l39 185q84 -19 133 -19t88 32t80 110l63 114l-147 957l4 20h246l45 -545l4 -204h6l90 204l268 545h269l-5 -20l-634 -1135q-150 -268 -371 -268z" />
    <glyph glyph-name="endash" unicode="&#x2013;" horiz-adv-x="1101" 
d="M942 451h-836l46 211h835z" />
    <glyph glyph-name="emdash" unicode="&#x2014;" horiz-adv-x="1695" 
d="M1536 451h-1430l46 211h1429z" />
    <glyph glyph-name="quoteleft" unicode="&#x2018;" horiz-adv-x="550" 
d="M635 1393l-4 -21l-248 -586h-250l4 21l312 586h186z" />
    <glyph glyph-name="quoteright" unicode="&#x2019;" horiz-adv-x="546" 
d="M143 786l4 21l248 586h250l-4 -21l-309 -586h-189z" />
    <glyph glyph-name="quotesinglbase" unicode="&#x201a;" horiz-adv-x="530" 
d="M-147 -330l4 21l247 585h250l-4 -20l-309 -586h-188z" />
    <glyph glyph-name="quotedblleft" unicode="&#x201c;" horiz-adv-x="974" 
d="M635 1393l-4 -21l-248 -586h-250l4 21l312 586h186zM1059 1393l-4 -21l-248 -586h-250l4 21l311 586h187z" />
    <glyph glyph-name="quotedblright" unicode="&#x201d;" horiz-adv-x="972" 
d="M569 786l4 21l248 586h250l-4 -21l-309 -586h-189zM143 786l4 21l248 586h250l-4 -21l-309 -586h-189z" />
    <glyph glyph-name="quotedblbase" unicode="&#x201e;" horiz-adv-x="956" 
d="M279 -330l4 21l247 585h250l-4 -20l-309 -586h-188zM-147 -330l4 21l247 585h250l-4 -20l-309 -586h-188z" />
    <glyph glyph-name="dagger" unicode="&#x2020;" horiz-adv-x="874" 
d="M143 987h301l95 447h161l-94 -447h299l-35 -166h-299l-260 -1227h-164l263 1227h-301z" />
    <glyph glyph-name="daggerdbl" unicode="&#x2021;" horiz-adv-x="980" 
d="M201 987h301l94 447h162l-94 -447h297l-35 -166h-297l-131 -614h297l-35 -166h-297l-94 -447h-164l96 447h-301l35 166h301l131 614h-301z" />
    <glyph glyph-name="bullet" unicode="&#x2022;" horiz-adv-x="772" 
d="M152 547q0 121 81 202q82 81 205 80q88 0 137 -50q49 -51 49 -153t-81 -183t-187 -81t-155 50t-49 135z" />
    <glyph glyph-name="ellipsis" unicode="&#x2026;" horiz-adv-x="1509" 
d="M1173 307q144 -1 144 -149q1 -72 -59 -130t-132 -58t-108 36q-35 36 -35 108t59 132t131 61zM688 307q146 -1 144 -149q0 -72 -60 -130t-132 -58q-142 -2 -142 144q0 72 59 132t131 61zM198 307q144 -1 144 -149q0 -72 -59 -130t-132 -58t-108 36t-35 108t60 132
q58 60 130 61z" />
    <glyph glyph-name="perthousand" unicode="&#x2030;" horiz-adv-x="2332" 
d="M1524 453q0 -189 -102 -329t-283 -140q-119 0 -180 77q-60 78 -60 201q0 188 100 330t277 141q124 -1 186 -79t62 -201zM1079 274q0 -133 82 -133q90 0 135 86t45 217t-88 131q-70 0 -122 -84t-52 -217zM791 1124q-1 -188 -103 -328t-282 -141q-119 0 -180 78
q-60 78 -60 201q0 188 100 330t277 141q123 0 185 -79t63 -202zM346 946q0 -133 82 -133q90 0 135 86t45 217t-88 131q-70 0 -122 -84t-52 -217zM2228 453q0 -189 -102 -329t-283 -140q-119 0 -179 78t-60 200q0 188 100 330t276 141q124 -1 186 -79t62 -201zM1784 274
q0 -133 82 -133q90 0 135 86t45 217t-88 131q-70 0 -122 -84t-52 -217zM352 0h-221l4 20l1208 1373h222l-6 -21z" />
    <glyph glyph-name="guilsinglleft" unicode="&#x2039;" horiz-adv-x="638" 
d="M70 541l6 24l391 449l145 -111l-258 -362l107 -361l-180 -88z" />
    <glyph glyph-name="guilsinglright" unicode="&#x203a;" horiz-adv-x="641" 
d="M561 565l-6 -24l-391 -449l-146 111l258 362l-106 361l180 88z" />
    <glyph glyph-name="fraction" unicode="&#x2044;" horiz-adv-x="321" 
d="M-309 0h-221l4 20l1208 1373h221l-6 -21z" />
    <glyph glyph-name="zerosuperior" unicode="&#x2070;" horiz-adv-x="724" 
d="M823 1370q0 -188 -102 -328t-283 -141q-119 0 -179 78t-60 201q0 188 100 329t276 142q123 0 185 -79t63 -202zM379 1192q0 -133 82 -133q90 0 135 86t45 217t-88 131q-70 0 -122 -84t-52 -217z" />
    <glyph glyph-name="foursuperior" unicode="&#x2074;" horiz-adv-x="655" 
d="M543 1405h174l-39 -182h76l-33 -154h-76l-33 -151h-172l33 151h-323l28 139l254 428h182l-235 -411l-2 -2h129z" />
    <glyph glyph-name="fivesuperior" unicode="&#x2075;" horiz-adv-x="604" 
d="M444 1384q106 0 166 -47t62 -139q0 -139 -86 -218t-226 -79t-231 41l53 156q72 -37 174 -37q129 0 129 98q1 70 -83 70t-160 -10l-17 16l117 401h401l-32 -155h-250l-27 -97h10z" />
    <glyph glyph-name="sixsuperior" unicode="&#x2076;" horiz-adv-x="643" 
d="M549 1186q0 72 -78 71q-57 -1 -89 -33t-32 -91q0 -76 78 -76q121 0 121 129zM731 1206q0 -135 -88 -220t-217 -85t-192 65q-62 65 -62 167t104 229l230 274h207l-2 -12l-224 -240v-2q29 12 87 12t107 -50q50 -52 50 -138z" />
    <glyph glyph-name="sevensuperior" unicode="&#x2077;" horiz-adv-x="585" 
d="M549 1481h-313l32 155h508l-31 -143l-403 -575h-190l2 10l395 551v2z" />
    <glyph glyph-name="eightsuperior" unicode="&#x2078;" horiz-adv-x="667" 
d="M428 1417q0 -61 62 -61t89 28q26 28 25 68q0 61 -72 61q-52 -1 -78 -29t-26 -67zM535 1651q115 0 174 -50t59 -128q0 -129 -137 -187v-2q96 -38 96 -146t-85 -172t-213 -65q-128 0 -195 51t-66 135q0 158 170 218v2q-70 37 -70 127t76 153q76 64 191 64zM432 1042
q123 0 123 103q0 69 -78 69q-79 0 -107 -32t-28 -74q0 -66 90 -66z" />
    <glyph glyph-name="ninesuperior" unicode="&#x2079;" horiz-adv-x="643" 
d="M391 1368q0 -72 78 -72q57 0 89 33t32 92q0 76 -78 76q-121 0 -121 -129zM383 1159q-74 0 -124 51t-50 138q0 135 88 220t217 85q130 0 192 -65t62 -167t-104 -229l-230 -274h-207l2 12l224 239v2q-29 -12 -70 -12z" />
    <glyph glyph-name="plussuperior" unicode="&#x207a;" horiz-adv-x="491" 
d="M510 1501l-31 -147h121l-29 -140h-122l-31 -145h-142l33 145h-119l29 140h119l31 147h141z" />
    <glyph glyph-name="minussuperior" unicode="&#x207b;" horiz-adv-x="546" 
d="M600 1214h-381l29 140h381z" />
    <glyph glyph-name="parenleftsuperior" unicode="&#x207d;" horiz-adv-x="366" 
d="M340 1107q0 -173 29 -310l-107 -39q-74 180 -74 381t89 363t196 294l90 -78q-115 -166 -169 -302t-54 -309z" />
    <glyph glyph-name="parenrightsuperior" unicode="&#x207e;" horiz-adv-x="368" 
d="M477 1414q0 -202 -88 -363t-196 -293l-91 78q115 166 169 302q55 136 55 310t-29 309l106 39q74 -180 74 -382z" />
    <glyph glyph-name="zeroinferior" unicode="&#x2080;" horiz-adv-x="724" 
d="M575 207q0 -189 -102 -329t-283 -140q-119 0 -179 78t-60 200q0 188 100 330t277 141q123 -1 185 -79t62 -201zM131 29q0 -133 82 -133q90 0 135 86t45 217t-88 131q-70 0 -122 -84t-52 -217z" />
    <glyph glyph-name="oneinferior" unicode="&#x2081;" horiz-adv-x="495" 
d="M-31 197h-14l35 165l270 111h131l-153 -719h-175l113 525h-2z" />
    <glyph glyph-name="twoinferior" unicode="&#x2082;" horiz-adv-x="641" 
d="M190 -94h244l-33 -152h-512l29 137l336 250q66 47 65 115q0 30 -18 52t-51 22q-59 0 -160 -84l-94 119q123 123 276 122q100 0 166 -54t66 -143q0 -90 -39 -148t-123 -119l-152 -113v-4z" />
    <glyph glyph-name="threeinferior" unicode="&#x2083;" horiz-adv-x="628" 
d="M199 188q102 0 102 86q0 56 -88 56t-168 -35l-39 145q121 47 236 47q116 0 182 -48t66 -130t-45 -130q-44 -48 -101 -62v-2q92 -35 92 -142t-81 -171t-224 -64t-237 55l55 150q76 -45 176 -45q133 0 133 92q0 47 -88 47h-131l31 151h129z" />
    <glyph glyph-name="fourinferior" unicode="&#x2084;" horiz-adv-x="655" 
d="M295 242h174l-39 -183h76l-33 -153h-76l-32 -152h-172l32 152h-323l28 139l254 428h183l-236 -412l-2 -2h129z" />
    <glyph glyph-name="fiveinferior" unicode="&#x2085;" horiz-adv-x="604" 
d="M197 221q107 0 167 -47t60 -139q0 -139 -86 -218t-226 -79t-231 41l53 155q72 -37 175 -36q129 0 129 98q0 70 -84 70t-160 -11l-17 17l117 401h402l-33 -156h-250l-27 -96h11z" />
    <glyph glyph-name="sixinferior" unicode="&#x2086;" horiz-adv-x="643" 
d="M301 23q0 72 -78 71q-57 0 -89 -33t-32 -92q0 -76 78 -75q121 0 121 129zM309 231q74 0 124 -51t50 -137q0 -135 -88 -220t-217 -85t-191 64q-63 64 -63 168q0 102 105 229l229 274h207l-2 -12l-223 -240v-2q29 12 69 12z" />
    <glyph glyph-name="seveninferior" unicode="&#x2087;" horiz-adv-x="585" 
d="M301 317h-313l32 156h508l-30 -143l-404 -576h-190l2 10l395 551v2z" />
    <glyph glyph-name="eightinferior" unicode="&#x2088;" horiz-adv-x="669" 
d="M182 254q0 -61 62 -61q62 -1 89 27q26 28 25 69q0 61 -71 61q-51 0 -78 -28t-27 -68zM289 487q115 0 174 -50t59 -128q0 -129 -137 -186v-2q96 -37 96 -146t-85 -173t-213 -64q-129 0 -195 51t-66 135q0 158 170 217v2q-70 37 -70 127t76 154q76 63 191 63zM186 -121
q123 0 123 103q0 70 -78 70q-79 0 -107 -33q-28 -32 -28 -74q0 -66 90 -66z" />
    <glyph glyph-name="nineinferior" unicode="&#x2089;" horiz-adv-x="643" 
d="M143 205q0 -72 78 -72q57 0 89 33t32 92q0 76 -78 76q-121 0 -121 -129zM135 -4q-74 0 -124 51t-50 137q0 135 88 220t217 85t192 -64q62 -65 62 -167t-104 -229l-230 -275h-206l2 13l223 239v2q-29 -12 -70 -12z" />
    <glyph glyph-name="parenleftinferior" unicode="&#x208d;" horiz-adv-x="366" 
d="M92 -56q0 -174 29 -311l-107 -39q-73 181 -73 383t89 364t195 292l90 -78q-115 -166 -169 -302q-54 -135 -54 -309z" />
    <glyph glyph-name="parenrightinferior" unicode="&#x208e;" horiz-adv-x="366" 
d="M78 284q0 174 -29 310l107 39q73 -181 73 -383t-89 -364t-195 -292l-90 78q115 166 169 302t54 310z" />
    <glyph glyph-name="uni20A1" unicode="&#x20a1;" 
d="M336 547q0 -123 24 -213l308 852q-140 -74 -236 -252t-96 -387zM825 1202h-18l-358 -958q43 -33 75 -41l373 991q-27 8 -72 8zM563 -31h-4l-74 -190h-129l78 203q-12 2 -82 22l-86 -225h-129l109 291q-170 143 -170 442q0 352 186 605t504 298l63 162h129l-61 -154
q53 -4 88 -10l64 164h129l-74 -195q51 -23 104 -49l-112 -205q-53 27 -82 37l-365 -972q123 8 262 71l47 -205q-190 -90 -395 -90z" />
    <glyph glyph-name="lira" unicode="&#x20a4;" horiz-adv-x="1060" 
d="M786 1423q204 0 361 -92l-94 -213q-143 74 -279 74q-170 0 -207 -195q-6 -27 -6 -28h348l-41 -195h-329l-19 -158h316l-43 -194h-304q-47 -133 -135 -207l-2 -4h547l-45 -211h-854l37 176q143 78 176 227l4 19h-145l41 194h125l18 158h-109l41 195h97q6 12 6 28
q45 223 168 325t327 101z" />
    <glyph glyph-name="uni20A6" unicode="&#x20a6;" 
d="M403 1206h-6l-41 -260h84zM760 199h6l47 254h-88zM469 776h-141l-27 -153h186zM678 776l20 -153h144l28 153h-192zM1133 453h-91l-96 -453h-373l-61 453h-244l-96 -453h-242l97 453h-90l36 170h90l33 153h-92l37 170h90l96 447h375l49 -447h254l94 447h242l-94 -447h92
l-37 -170h-92l-33 -153h92z" />
    <glyph glyph-name="rupee" unicode="&#x20a8;" 
d="M354 723q174 0 226 117h-424l100 204h367q0 123 -172 123h-226l107 238h882l-96 -195h-334v-4q78 -43 93 -162h262l-99 -204h-196q-104 -297 -418 -328l295 -467l-8 -33h-281l-311 535l37 176h196z" />
    <glyph glyph-name="uni20AA" unicode="&#x20aa;" horiz-adv-x="1366" 
d="M715 0h-418l211 995h227l-166 -778h172q129 0 191 69q61 69 98 244l184 865h265l-183 -858q-61 -289 -187 -413t-394 -124zM635 1176h-174l-250 -1176h-264l297 1393h415q268 0 342 -124t13 -413l-99 -459h-221l99 465q39 174 4 244t-162 70z" />
    <glyph glyph-name="dong" unicode="&#x20ab;" 
d="M823 0h-796l34 166h797zM595 893q-103 0 -169 -81t-66 -202q0 -76 38 -122t112 -46t160 43l80 381q-53 27 -155 27zM401 242q-145 0 -227 97t-82 241q0 208 127 362t328 154q152 0 235 -64h4l31 146h-178l37 165h178l18 91h258l-18 -91h80l-35 -165h-82l-192 -912h-207
l-12 56h-5q-113 -80 -258 -80z" />
    <glyph glyph-name="Euro" unicode="&#x20ac;" 
d="M602 -31q-198 0 -314 120t-126 333h-146l99 194h59q14 88 35 158h-117l96 195h91q213 455 606 454q184 0 315 -90l-94 -213q-124 72 -232 72q-215 0 -319 -223h473l-96 -195h-463q-25 -68 -35 -158h438l-96 -194h-340q12 -221 228 -221q112 0 262 71l45 -217
q-172 -86 -369 -86z" />
    <glyph glyph-name="uni20AD" unicode="&#x20ad;" 
d="M1022 588h-268l215 -568l-4 -20h-306l-184 588h-51l-125 -588h-266l125 588h-97l41 194h97l131 611h266l-131 -611h51l428 611h297l-4 -21l-449 -590h275z" />
    <glyph glyph-name="uni20AE" unicode="&#x20ae;" 
d="M891 662l-37 -170l-195 -70l-90 -422h-266l70 326l-193 -68l37 170l193 68l28 137l-192 -68l37 170l190 68l80 373h-354l47 217h977l-47 -217h-357l-57 -277l194 70l-36 -170l-195 -70l-29 -137z" />
    <glyph glyph-name="uni20B1" unicode="&#x20b1;" 
d="M637 1180h-88l-23 -113h256q-2 45 -42 79t-103 34zM496 518q63 0 116 35t74 82h-252l-24 -117h86zM492 907l-25 -112h295q14 47 24 112h-294zM479 305h-106l-66 -305h-264l133 631h-88l35 164h88l25 112h-89l35 164h88l70 322h330q172 0 272 -86t115 -236h123l-35 -164
h-96q-8 -66 -23 -112h94l-35 -164h-118q-164 -326 -488 -326z" />
    <glyph glyph-name="uni20B2" unicode="&#x20b2;" 
d="M352 487q0 -224 74 -274l203 958q-117 -72 -197 -266t-80 -418zM84 486q0 208 68 402t205 341q138 147 323 190l35 158h155l-30 -154q186 -8 317 -100l-100 -201q-109 76 -266 78l-213 -1007q72 0 141 36l61 293l-69 23l43 203h311l-139 -666q-160 -96 -396 -111
l-41 -192h-157l43 201q-141 26 -216 162t-75 344z" />
    <glyph glyph-name="uni20B4" unicode="&#x20b4;" 
d="M481 -31q-178 0 -279 87t-102 235q0 72 23 131h-66l41 194h199q8 6 127 95l88 63h-379l41 195h614q20 37 20 96t-35 99q-36 40 -96 40q-61 0 -147 -26t-157 -62l-51 207q206 100 378 100t272 -88t99 -221q0 -76 -31 -145h68l-41 -195h-199q-123 -90 -125 -90l-106 -68
h395l-41 -194h-614q-16 -39 -17 -88q0 -145 148 -146q72 0 180 37t170 80l55 -203q-88 -53 -213 -93t-219 -40z" />
    <glyph glyph-name="uni20B5" unicode="&#x20b5;" 
d="M344 553q0 -285 135 -344l207 971q-138 -50 -240 -230t-102 -397zM76 537q0 331 178 583t481 301l35 156h164l-33 -154q141 -8 279 -90l-82 -205q-115 63 -244 72l-213 -1007q133 8 274 71l66 -205q-176 -84 -389 -90l-39 -190h-166l43 203q-174 35 -264 182t-90 373z
" />
    <glyph glyph-name="afii61289" unicode="&#x2113;" horiz-adv-x="788" 
d="M672 1197q0 75 -47 75q-61 0 -86 -113l-72 -342q89 81 147 193t58 187zM375 -31q-129 0 -183 71t-24 216l43 188q-33 -27 -135 -96l-51 158q156 98 233 176l94 440q74 342 316 342q86 0 142 -57t56 -150q0 -324 -450 -682l-64 -294q-25 -117 64 -117q71 0 159 61l43 -172
q-115 -84 -243 -84z" />
    <glyph glyph-name="afii61352" unicode="&#x2116;" horiz-adv-x="2033" 
d="M1853 412h-514l33 157h514zM2044 1090q0 -160 -104 -276t-267 -116q-121 0 -191 78t-69 193q1 161 105 275t266 114q124 0 192 -78t68 -190zM1692 856q72 0 118 58t48 172q0 114 -93 114q-68 0 -118 -58t-50 -142q0 -144 95 -144zM926 342h6l20 270l166 781h256
l-295 -1393h-262l-340 1049h-6l-20 -271l-166 -778h-256l297 1393h262z" />
    <glyph glyph-name="uni2117" unicode="&#x2117;" horiz-adv-x="1650" 
d="M268 590q0 -209 131 -345t340 -136q281 -1 488 207t207 493q0 207 -126 341t-333 134q-283 0 -495 -206t-212 -488zM121 558q0 244 122 442q123 198 321 311t421 112q264 0 430 -172q166 -173 166 -417t-122 -442q-123 -198 -321 -310t-421 -113q-264 0 -430 172
q-166 173 -166 417zM893 702q89 0 108 56q17 46 17 94q0 76 -78 76h-98l-47 -226h98zM979 1079q121 0 178 -59t57 -152q0 -135 -78 -226t-237 -91h-137l-51 -238h-185l162 766h291z" />
    <glyph glyph-name="trademark" unicode="&#x2122;" horiz-adv-x="1503" 
d="M1141 1118q16 23 44 68t40 63l131 185h184l-123 -574h-164l41 199l62 186h-2l-166 -268h-135l-54 268h-2l-18 -186l-43 -199h-160l121 574h170l47 -181zM305 1434h492l-27 -131h-164l-94 -443h-164l94 443h-166z" />
    <glyph glyph-name="Omega" unicode="&#x2126;" horiz-adv-x="1458" 
d="M156 634q0 138 47 276t136 254t232 188t318 71q241 1 367 -151t126 -380t-115 -414q-116 -185 -270 -267h256l-45 -211h-524l41 190q209 119 295 280t86 396q0 152 -58 246t-182 94t-219 -68q-94 -68 -143 -173q-98 -212 -96 -412q0 -242 161 -363l-41 -190h-524l45 211
h270q-70 49 -116 167q-47 118 -47 256z" />
    <glyph glyph-name="estimated" unicode="&#x212e;" horiz-adv-x="1376" 
d="M1049 676v330q-137 129 -344 129t-334 -129v-330h678zM127 595q0 265 161 441t419 176q257 0 419 -166t170 -432l-14 -20h-911v-412q133 -127 338 -127q276 0 419 217l76 -55q-96 -133 -213 -190t-282 -58q-258 1 -420 181t-162 445z" />
    <glyph glyph-name="onethird" unicode="&#x2153;" horiz-adv-x="1540" 
d="M1139 434q102 0 102 86q0 55 -88 55t-168 -34l-39 145q121 47 236 47q116 0 182 -48t66 -130t-44 -130t-102 -63v-2q92 -36 92 -142t-81 -170t-224 -64t-237 55l55 149q76 -45 176 -45q133 0 133 93q0 47 -88 47h-131l31 151h129zM203 1114h-15l35 166l271 111h131
l-154 -719h-174l113 524h-2zM262 0h-221l4 20l1208 1373h222l-7 -21z" />
    <glyph glyph-name="twothirds" unicode="&#x2154;" horiz-adv-x="1652" 
d="M1253 434q102 0 103 86q0 55 -88 55t-168 -34l-39 145q121 47 235 47t182 -48q66 -48 66 -130t-44 -130t-101 -63v-2q92 -36 92 -142t-81 -170q-80 -64 -224 -64t-238 55l56 149q76 -45 176 -45q133 0 133 93q0 47 -88 47h-131l30 151h129zM422 819h244l-33 -151h-512
l29 137l335 250q66 47 66 114q-1 31 -19 53t-51 21q-59 0 -159 -84l-95 119q123 123 277 123q100 0 166 -54q66 -53 66 -143t-40 -148q-39 -58 -123 -120l-151 -113v-4zM375 0h-221l4 20l1208 1373h221l-6 -21z" />
    <glyph glyph-name="oneeighth" unicode="&#x215b;" horiz-adv-x="1538" 
d="M1081 500q1 -62 63 -62t88 28t25 69q0 61 -71 61q-51 0 -78 -29t-27 -67zM1188 733q115 0 174 -50t59 -128q0 -129 -137 -186v-2q96 -37 96 -146t-85 -173t-213 -64t-194 51t-67 135q0 158 170 217v2q-69 37 -69 127t75 154q76 63 191 63zM1085 125q123 0 123 102
q0 70 -78 70t-106 -32t-29 -75q0 -65 90 -65zM203 1114h-15l35 166l271 111h131l-154 -719h-174l113 524h-2zM262 0h-221l4 20l1208 1373h222l-7 -21z" />
    <glyph glyph-name="threeeighths" unicode="&#x215c;" horiz-adv-x="1617" 
d="M426 1100q102 0 102 86q0 55 -88 55t-168 -35l-39 146q121 47 236 47t181 -48t67 -130q0 -82 -44 -130t-102 -63v-2q93 -36 93 -142t-81 -170t-225 -65q-144 0 -237 56l55 149q76 -45 176 -45q133 0 133 92q0 47 -88 47h-131l31 152h129zM1161 500q1 -62 63 -62t88 28
t25 69q0 61 -71 61q-51 0 -78 -29t-27 -67zM1001 516q0 90 76 154t191 63q115 0 174 -50t59 -128q0 -129 -137 -186v-2q96 -37 96 -146t-85 -173t-213 -64t-194 51t-67 135q0 158 170 217v2q-70 37 -70 127zM1165 125q123 0 123 102q0 70 -78 70t-106 -32t-29 -75
q0 -65 90 -65zM342 0h-221l4 20l1208 1373h221l-6 -21z" />
    <glyph glyph-name="fiveeighths" unicode="&#x215d;" horiz-adv-x="1579" 
d="M1122 500q0 -62 62 -62t89 28q26 28 25 69q0 61 -71 61q-51 0 -78 -29t-27 -67zM1229 733q115 0 174 -50t59 -128q0 -129 -137 -186v-2q96 -37 96 -146t-85 -173t-213 -64q-129 0 -195 51t-66 135q0 158 170 217v2q-70 37 -70 127t76 154q76 63 191 63zM1126 125
q123 0 123 102q0 70 -78 70q-79 0 -107 -32t-28 -75q0 -65 90 -65zM426 1139q106 0 166 -47t61 -140q0 -139 -86 -218q-87 -79 -227 -79t-229 41l53 156q72 -37 174 -37q129 0 129 98q0 70 -84 70t-160 -10l-16 16l117 402h401l-33 -156h-250l-26 -96h10zM303 0h-221l4 20
l1208 1373h222l-7 -21z" />
    <glyph glyph-name="seveneighths" unicode="&#x215e;" horiz-adv-x="1509" 
d="M547 1235h-314l33 156h508l-31 -144l-403 -575h-190l2 10l395 551v2zM1122 438q55 0 81 28t26 69q0 61 -72 61q-51 0 -78 -29t-26 -67q-1 -62 69 -62zM893 516q-1 90 75 154t191 63q115 0 174 -50t60 -128q0 -129 -138 -186v-2q97 -37 97 -146t-85 -173t-213 -64t-195 51
t-66 135q0 158 170 217v2q-70 37 -70 127zM1057 125q123 0 123 102q0 70 -78 70t-107 -32t-28 -75q0 -65 90 -65zM233 0h-221l4 20l1209 1373h221l-6 -21z" />
    <glyph glyph-name="arrowleft" unicode="&#x2190;" horiz-adv-x="1826" 
d="M1827 815v-242h-1292l507 -475l-182 -182l-778 778l778 779l182 -183l-507 -475h1292z" />
    <glyph glyph-name="arrowup" unicode="&#x2191;" horiz-adv-x="1826" 
d="M952 1563l779 -779l-183 -182l-475 510l-2 -1292h-242l2 1292l-475 -510l-182 182z" />
    <glyph glyph-name="arrowright" unicode="&#x2192;" horiz-adv-x="1826" 
d="M82 573v242h1292l-508 475l183 183l778 -779l-778 -778l-183 182l508 475h-1292z" />
    <glyph glyph-name="arrowdown" unicode="&#x2193;" horiz-adv-x="1826" 
d="M952 -180l-778 778l182 182l475 -510l3 1293h241l-2 -1293l475 510l183 -182z" />
    <glyph glyph-name="uni2196" unicode="&#x2196;" horiz-adv-x="1818" 
d="M326 1356h1101v-258l-694 22l914 -911l-174 -174l-914 915l25 -696h-258v1102z" />
    <glyph glyph-name="uni2197" unicode="&#x2197;" horiz-adv-x="1818" 
d="M1647 1356v-1102h-258l22 694l-911 -913l-174 174l915 913l-696 -22v256h1102z" />
    <glyph glyph-name="uni2198" unicode="&#x2198;" horiz-adv-x="1818" 
d="M1647 37h-1102v258l694 -23l-913 912l174 174l913 -916l-24 697h258v-1102z" />
    <glyph glyph-name="uni2199" unicode="&#x2199;" horiz-adv-x="1818" 
d="M326 37v1102h258l-23 -695l912 914l174 -174l-916 -914l696 25v-258h-1101z" />
    <glyph glyph-name="partialdiff" unicode="&#x2202;" horiz-adv-x="1165" 
d="M602 768q-125 0 -206 -109t-81 -270q0 -96 41 -149t113 -54q113 0 211 116t127 310q-80 156 -205 156zM1090 868q0 -250 -82 -452t-237 -324q-155 -123 -340 -123t-281 115t-97 287q1 276 149 445t344 169t302 -151h4q12 174 -88 276t-305 107l55 217q274 0 425 -158
t151 -408z" />
    <glyph glyph-name="Delta" unicode="&#x2206;" horiz-adv-x="1302" 
d="M791 1167h-7l-170 -368l-292 -596h528l-49 596zM1130 10l-2 -10h-1191l2 10l739 1383h301z" />
    <glyph glyph-name="product" unicode="&#x220f;" horiz-adv-x="1331" 
d="M713 -406l346 1629h-512l-346 -1629h-256l391 1840h1022l-389 -1840h-256z" />
    <glyph glyph-name="summation" unicode="&#x2211;" horiz-adv-x="1140" 
d="M-129 -406l45 211l651 723l-323 695l47 211h921l-45 -211h-669l346 -707l-639 -711h690l-45 -211h-979z" />
    <glyph glyph-name="minus" unicode="&#x2212;" 
d="M106 662h949l-45 -211h-949z" />
    <glyph glyph-name="uni2215" unicode="&#x2215;" horiz-adv-x="1173" 
d="M117 0h-221l4 20l1208 1373h221l-6 -21z" />
    <glyph glyph-name="uni2219" unicode="&#x2219;" horiz-adv-x="548" 
d="M109 566q0 72 59 131q58 61 130 61t108 -38t36 -110t-59 -132q-59 -58 -131 -58q-142 0 -143 146z" />
    <glyph glyph-name="radical" unicode="&#x221a;" horiz-adv-x="1210" 
d="M2 434l4 21h225l66 -394l16 -241h4l111 248l690 1325h236l-944 -1799h-260z" />
    <glyph glyph-name="infinity" unicode="&#x221e;" horiz-adv-x="1394" 
d="M301 526q0 -94 95 -94q50 0 167 123q-41 69 -65 95t-71 26q-46 0 -86 -45t-40 -105zM957 432q44 0 85 44t41 94q-1 50 -23 78t-59 28t-75 -27t-105 -96q43 -73 67 -97t69 -24zM96 498q0 158 100 263t236 105q88 0 150 -39t131 -133q117 109 178 141q61 31 157 31t168 -68
t72 -206q0 -136 -100 -244t-227 -106q-98 0 -163 40t-122 130q-110 -102 -178 -136t-163 -34t-167 70t-72 186z" />
    <glyph glyph-name="integral" unicode="&#x222b;" horiz-adv-x="968" 
d="M940 1233q-76 0 -129 -148l-440 -1196q-115 -325 -361 -325q-114 0 -180 14l47 191q51 -14 109 -15q80 0 133 148l440 1196q61 172 153 249t228 76q96 0 162 -14l-47 -190q-51 14 -115 14z" />
    <glyph glyph-name="approxequal" unicode="&#x2248;" 
d="M313 487q80 0 231 -56q152 -56 224 -56t129 49l70 -129q-111 -131 -260 -131q-72 0 -228 56q-155 56 -231 56t-129 -51l-70 129q113 133 264 133zM412 948q80 0 230 -56t222 -56t131 49l70 -129q-111 -131 -260 -131q-73 0 -229 56t-231 56t-128 -51l-70 129
q113 133 265 133z" />
    <glyph glyph-name="notequal" unicode="&#x2260;" 
d="M57 430h320l147 252h-413l45 211h493l125 215h209l-4 -21l-115 -194h240l-45 -211h-318l-147 -252h412l-45 -211h-492l-127 -219h-209l4 20l115 199h-240z" />
    <glyph glyph-name="lessequal" unicode="&#x2264;" 
d="M0 211h944l-43 -211h-946zM958 279h-16l-844 399l43 203l1014 399h16l-47 -231l-764 -275v-6l648 -274z" />
    <glyph glyph-name="greaterequal" unicode="&#x2265;" 
d="M25 211h944l-43 -211h-946zM57 279h-18l47 231l766 274v7l-647 274l47 215h18l842 -399l-43 -203z" />
    <glyph glyph-name="lozenge" unicode="&#x25ca;" horiz-adv-x="1071" 
d="M475 258l320 438l-146 437l-323 -453zM342 0l-260 711l504 682h192l260 -723l-503 -670h-193z" />
    <glyph glyph-name="whitecircle" unicode="&#x25cb;" horiz-adv-x="1638" 
d="M256 696q0 -240 162 -402t402 -163q240 0 400 163q160 162 160 402t-160 403q-161 163 -401 163q-239 0 -401 -163t-162 -403zM123 696q0 297 200 497q201 200 497 200t496 -200t200 -497q0 -296 -200 -496t-497 -200t-497 200t-199 496z" />
    <glyph glyph-name="blackcircle" unicode="&#x25cf;" horiz-adv-x="1638" 
d="M1516 697q0 -297 -201 -497t-497 -200t-496 200t-199 497q0 296 200 496q199 200 495 200t497 -200t201 -496z" />
    <glyph glyph-name="uni25DC" unicode="&#x25dc;" horiz-adv-x="696" 
d="M696 1393v-131q-240 0 -402 -163t-161 -403h-133q0 297 200 497t496 200z" />
    <glyph glyph-name="uni25DD" unicode="&#x25dd;" horiz-adv-x="696" 
d="M0 1262v131q297 0 497 -200t199 -497h-135q-1 240 -161 403t-400 163z" />
    <glyph glyph-name="uni25DE" unicode="&#x25de;" horiz-adv-x="696" 
d="M0 0v131q240 0 400 163t161 402h135q0 -296 -200 -496t-496 -200z" />
    <glyph glyph-name="uni25DF" unicode="&#x25df;" horiz-adv-x="696" 
d="M696 131v-131q-296 0 -496 200t-200 496h133q-1 -240 161 -402t402 -163z" />
    <glyph glyph-name="uniEA01" unicode="&#xea01;" horiz-adv-x="2048" 
d="M1206 225v385h-360v-385h-238v961h238v-385h360v385h236v-961h-236zM291 -47h1464v1464h-1464v-1464zM141 -197v1764h1764v-1764h-1764z" />
    <glyph glyph-name="uniEA02" unicode="&#xea02;" horiz-adv-x="2048" 
d="M588 705q0 229 127 365t356 136q147 0 283 -61l-62 -189q-115 54 -219 54t-170 -79q-65 -79 -65 -226t65 -226q66 -78 169 -78t220 52l62 -189q-141 -61 -283 -61q-229 1 -356 137t-127 365zM291 -47h1464v1464h-1464v-1464zM141 -197v1764h1764v-1764h-1764z" />
    <glyph glyph-name="uniEA03" unicode="&#xea03;" horiz-adv-x="2048" 
d="M1006 397q131 0 131 97q0 35 -25 54t-100 44l-111 35q-236 78 -235 278q0 141 97 221t263 80t307 -61l-61 -189q-117 58 -240 58t-123 -92q1 -32 19 -50t69 -34l107 -33q143 -45 210 -110t66 -173q0 -147 -104 -233t-278 -86t-343 86l60 188q55 -31 139 -55t152 -25z
M291 -47h1464v1464h-1464v-1464zM141 -197v1764h1764v-1764h-1764z" />
    <glyph glyph-name="uniEA04" unicode="&#xea04;" horiz-adv-x="2048" 
d="M1206 610v-385h236v961h-236v-385h-360v385h-238v-961h238v385h360zM141 -197v1764h1764v-1764h-1764z" />
    <glyph glyph-name="uniEA05" unicode="&#xea05;" horiz-adv-x="2048" 
d="M588 705q0 -229 127 -365t356 -137q141 0 283 61l-62 189q-268 -117 -389 26q-65 77 -65 225t65 227q66 79 170 79t219 -54l62 189q-135 61 -283 61q-229 0 -356 -136t-127 -365zM141 -197v1764h1764v-1764h-1764z" />
    <glyph glyph-name="uniEA06" unicode="&#xea06;" horiz-adv-x="2048" 
d="M998 203q174 0 278 86t104 233q0 110 -66 174t-210 109l-107 33q-51 16 -69 34t-19 50q0 92 123 92t240 -58l61 189q-141 61 -307 61t-263 -80t-97 -221q0 -201 235 -278l111 -35q76 -25 100 -44t25 -54q0 -96 -131 -97q-68 1 -152 25t-139 55l-60 -188q169 -86 343 -86z
M141 -197v1764h1764v-1764h-1764z" />
    <glyph glyph-name="commaaccent" unicode="&#xf6c3;" horiz-adv-x="1064" 
d="M291 -446l4 20l113 320h249l-4 -21l-176 -319h-186z" />
    <glyph glyph-name="commainferior" unicode="&#xf6e1;" horiz-adv-x="376" 
d="M-182 -453l4 17l166 440h200l-4 -16l-215 -441h-151z" />
    <glyph glyph-name="commasuperior" unicode="&#xf6e2;" horiz-adv-x="374" 
d="M63 709l170 456h201l-4 -16l-215 -440h-152z" />
    <glyph glyph-name="hypheninferior" unicode="&#xf6e5;" horiz-adv-x="512" 
d="M317 51h-346l29 139h348z" />
    <glyph glyph-name="hyphensuperior" unicode="&#xf6e6;" horiz-adv-x="512" 
d="M565 1214h-346l29 140h348z" />
    <glyph glyph-name="periodinferior" unicode="&#xf6e7;" horiz-adv-x="376" 
d="M58 0q112 0 112 -114q0 -58 -46 -101t-112 -43q-102 0 -102 112q0 58 46 102t102 44z" />
    <glyph glyph-name="periodsuperior" unicode="&#xf6e8;" horiz-adv-x="376" 
d="M306 1163q112 1 112 -113q0 -58 -46 -102q-46 -43 -112 -43q-102 1 -102 113q0 58 46 102t102 43z" />
    <glyph glyph-name="uniF8FF" unicode="&#xf8ff;" horiz-adv-x="1265" 
d="M354 119h609v1155h-609v-1155zM236 0v1393h845v-1393h-845z" />
    <glyph glyph-name="fi" unicode="&#xfb01;" horiz-adv-x="1212" 
d="M674 1444q100 0 166 -19l-41 -188q-61 16 -111 16q-50 -1 -75 -31q-26 -30 -42 -100l-28 -135h614l-211 -987h-250l170 791h-366l-168 -791h-252l168 791h-152l29 139l164 57l35 158q63 299 350 299zM1116 1442q128 0 129 -132q0 -66 -53 -118q-54 -53 -118 -53
q-126 1 -126 131q0 66 51 118q51 54 117 54z" />
    <glyph glyph-name="fl" unicode="&#xfb02;" horiz-adv-x="1220" 
d="M956 0h-251l305 1434h252zM674 1444q100 0 166 -19l-41 -188q-61 16 -111 16q-50 -1 -75 -31q-26 -30 -42 -100l-28 -135h215l-43 -196h-215l-168 -791h-252l168 791h-152l29 139l164 57l35 158q63 299 350 299z" />
    <glyph glyph-name="zero.lf" horiz-adv-x="1273" 
d="M1200 926q0 -236 -57 -425t-155 -302q-197 -228 -460 -230q-203 0 -304 131t-101 364t56 421q55 188 151 303q195 235 467 235q203 0 303 -131q100 -130 100 -366zM385 465q0 -279 170 -279q157 0 271 178t114 564q0 279 -168 278q-149 0 -260 -156q-57 -82 -92 -232
t-35 -353z" />
    <glyph glyph-name="one.lf" horiz-adv-x="772" 
d="M188 1028h-24l47 232l399 133h185l-297 -1393h-256l241 1128h-4z" />
    <glyph glyph-name="two.lf" horiz-adv-x="1075" 
d="M362 211h527l-45 -211h-860l41 193l561 507q102 92 150 161t48 155t-41 138t-103 52q-105 0 -205 -72q-32 -24 -93 -75l-123 166q213 199 451 198q176 0 279 -101t103 -268t-110 -308q-53 -66 -88 -100t-90 -83l-402 -348v-4z" />
    <glyph glyph-name="three.lf" horiz-adv-x="1083" 
d="M524 813q127 0 186 70q58 70 58 154q0 169 -160 169q-139 0 -307 -76l-57 201q190 92 388 92t303 -88t105 -235q0 -146 -84 -250t-186 -150v-4q162 -76 162 -274t-155 -326q-155 -127 -394 -127t-393 105l88 198q135 -86 311 -86q117 0 202 72t85 184q0 156 -199 156
h-209l45 215h211z" />
    <glyph glyph-name="four.lf" horiz-adv-x="1191" 
d="M786 940h256l-92 -428h158l-45 -211h-158l-63 -301h-256l63 301h-631l37 178l553 914h260l-520 -881h346z" />
    <glyph glyph-name="five.lf" horiz-adv-x="1054" 
d="M553 868q176 0 277 -86t102 -256q0 -262 -166 -409t-440 -148q-170 0 -353 78l82 211q149 -72 301 -72t230 81t78 216q0 166 -187 166q-114 0 -274 -16l-29 37l219 723h678l-45 -211h-453l-92 -316q37 2 72 2z" />
    <glyph glyph-name="six.lf" horiz-adv-x="1128" 
d="M770 516q0 88 -45 137t-123 49q-125 0 -201 -88t-75 -231q0 -90 44 -143t122 -54q114 0 196 96t82 234zM721 920q141 0 226 -104t85 -267q0 -242 -156 -411t-409 -169q-197 0 -302 112t-105 266q0 155 50 261t158 244l430 541h285l-4 -21l-412 -491l2 -2q78 41 152 41z
" />
    <glyph glyph-name="seven.lf" horiz-adv-x="985" 
d="M764 1182h-567l43 211h852l-41 -191l-723 -1202h-275l4 20l707 1158v4z" />
    <glyph glyph-name="eight.lf" horiz-adv-x="1187" 
d="M647 831q109 0 163 68t54 170q0 137 -137 137q-109 0 -162 -68t-53 -171q0 -136 135 -136zM752 1423q186 0 282 -87t96 -230t-71 -239q-72 -95 -176 -142v-4q73 -33 115 -108t42 -173q0 -209 -146 -340t-411 -131q-205 0 -315 92t-109 245q0 154 88 268t222 167v4
q-117 72 -117 232q0 193 126 319t374 127zM510 186q131 0 202 77t70 188q0 77 -45 121t-137 44q-131 0 -199 -76t-67 -190q0 -76 43 -120t133 -44z" />
    <glyph glyph-name="nine.lf" horiz-adv-x="1128" 
d="M408 877q0 -87 45 -137t122 -50q125 0 201 88t76 232q0 90 -44 143t-122 53q-114 0 -196 -95t-82 -234zM457 473q-141 -1 -227 103t-85 268q0 242 156 410t410 169q197 1 302 -111t105 -280q0 -104 -31 -193t-65 -141t-115 -153l-428 -545h-284l4 20l409 494l-2 2
q-82 -43 -149 -43z" />
    <glyph glyph-name="uni0444.alt" horiz-adv-x="1361" 
d="M1006 578q0 172 -158 206l-123 -583q281 60 281 377zM319 408q0 -180 156 -209l125 587q-281 -46 -281 -378zM63 389q-1 238 145 414t437 203l92 428h250l-92 -433q188 -29 279 -137q90 -109 90 -268q0 -236 -142 -408t-444 -202l-82 -392h-250l82 388q-186 27 -276 136
t-89 271z" />
    <glyph glyph-name="Euro.alt" horiz-adv-x="1103" 
d="M591 -31q-193 0 -309 120t-126 333h-125l41 194h96q10 63 33 158h-95l41 195h125q211 455 605 454q184 0 315 -90l-94 -213q-124 72 -232 72q-213 0 -317 -223h346l-41 -195h-399q-20 -74 -33 -158h399l-41 -194h-350q8 -221 225 -221q113 0 263 71l45 -213
q-180 -90 -372 -90z" />
    <glyph glyph-name="rupee.alt" 
d="M379 711q190 0 250 123h-432l39 194h436q-4 63 -54 101t-141 38h-209l45 226h846l-41 -195h-284v-4q82 -55 92 -166h155l-41 -194h-139q-98 -301 -428 -334l342 -467l-6 -33h-297l-371 539l35 172h203z" />
    <glyph glyph-name="registered.alt" horiz-adv-x="1650" 
d="M268 590q0 -209 131 -345t340 -136q281 -1 488 207t207 493q0 207 -126 341t-333 134q-283 0 -495 -206t-212 -488zM121 558q0 244 122 442q123 198 321 311t421 112q264 0 430 -172q166 -173 166 -417t-122 -442q-123 -198 -321 -310t-421 -113q-264 0 -430 172
q-166 173 -166 417zM885 754q61 0 88 32t26 76q0 66 -77 66h-152l-37 -174h152zM950 1079q246 0 246 -192q0 -217 -219 -273l143 -282l-4 -19h-194l-131 289h-91l-61 -289h-184l161 766h334z" />
    <glyph glyph-name="guillemotleft.case" horiz-adv-x="1077" 
d="M520 686l6 25l392 448l145 -110l-258 -363l106 -360l-180 -88zM119 686l6 25l391 448l146 -110l-259 -363l107 -360l-180 -88z" />
    <glyph glyph-name="bracketleft.case" horiz-adv-x="653" 
d="M375 1618h420l-29 -129l-217 -47l-318 -1487l199 -47l-27 -129h-419z" />
    <glyph glyph-name="guilsinglright.case" horiz-adv-x="675" 
d="M608 711l-6 -25l-391 -448l-145 110l258 363l-107 360l180 88z" />
    <glyph glyph-name="bar.case" horiz-adv-x="471" 
d="M539 1618l-392 -1839h-163l391 1839h164z" />
    <glyph glyph-name="periodcentered.case" horiz-adv-x="567" 
d="M328 858q144 0 143 -148q0 -72 -59 -131t-132 -59t-108 37t-35 109q-1 72 59 132t132 60z" />
    <glyph glyph-name="bullet.case" horiz-adv-x="765" 
d="M170 647q0 121 82 202t188 81t154 -50q49 -50 49 -135q0 -121 -82 -201q-81 -80 -187 -81q-106 0 -155 50t-49 134z" />
    <glyph glyph-name="emdash.case" horiz-adv-x="1714" 
d="M1575 596h-1430l45 211h1430z" />
    <glyph glyph-name="bracketright.case" horiz-adv-x="657" 
d="M303 1618h422l-391 -1839h-422l29 133l219 47l315 1479l-201 47z" />
    <glyph glyph-name="endash.case" horiz-adv-x="1120" 
d="M981 596h-836l45 211h836z" />
    <glyph glyph-name="hyphen.case" horiz-adv-x="854" 
d="M713 592h-568l45 211h568z" />
    <glyph glyph-name="guillemotright.case" horiz-adv-x="1079" 
d="M1012 711l-6 -25l-392 -448l-145 110l258 363l-106 360l180 88zM608 711l-6 -25l-391 -448l-145 110l258 363l-107 360l180 88z" />
    <glyph glyph-name="parenleft.case" horiz-adv-x="608" 
d="M104 354q0 713 492 1297l129 -82q-76 -117 -112 -175q-37 -58 -105 -194t-100 -252q-90 -320 -91 -610q0 -289 45 -549l-167 -43q-91 286 -91 608z" />
    <glyph glyph-name="guilsinglleft.case" horiz-adv-x="675" 
d="M119 686l6 25l391 448l146 -110l-259 -363l107 -360l-180 -88z" />
    <glyph glyph-name="braceright.case" horiz-adv-x="718" 
d="M4 -221h-88l31 143q195 0 241 217l64 307q25 118 74 180t137 81v4q-80 19 -104 81t3 179l64 286q45 217 -150 218l31 143h47q195 0 256 -99t19 -305l-56 -262q-15 -78 19 -118t108 -41l-41 -189q-73 0 -125 -41t-69 -119l-68 -321q-37 -172 -121 -258t-272 -86z" />
    <glyph glyph-name="braceleft.case" horiz-adv-x="718" 
d="M766 1618h88l-31 -143q-195 0 -241 -218l-64 -307q-25 -119 -74 -180t-137 -80v-4q80 -18 104 -80t-3 -180l-64 -287q-45 -217 150 -217l-31 -143h-47q-195 0 -256 99t-19 304l56 262q15 78 -19 119t-108 41l41 189q74 0 126 41t68 118l68 322q37 172 121 258t272 86z
" />
    <glyph glyph-name="parenright.case" horiz-adv-x="608" 
d="M555 1042q0 -713 -492 -1296l-129 82q76 117 112 175q36 59 105 195q191 378 191 908q0 242 -45 502l168 43q90 -287 90 -609z" />
    <glyph glyph-name="minus.case" horiz-adv-x="1605" 
d="M1376 594h-897l41 190h897z" />
    <glyph glyph-name="zero.num" horiz-adv-x="724" 
d="M772 1124q0 -188 -102 -328t-283 -141q-119 0 -179 78t-61 201q1 188 101 330t276 141q124 0 186 -79t62 -202zM328 946q0 -133 82 -133q90 0 135 86t45 217t-88 131q-70 0 -122 -84t-52 -217z" />
    <glyph glyph-name="one.num" horiz-adv-x="495" 
d="M164 1114h-14l34 166l271 111h131l-154 -719h-174l113 524h-2z" />
    <glyph glyph-name="two.num" horiz-adv-x="643" 
d="M387 823h244l-33 -151h-512l29 137l336 250q66 47 65 115q0 30 -18 52t-52 21q-59 0 -159 -84l-94 119q123 123 276 123q100 0 166 -54q65 -53 65 -143t-38 -148t-123 -120l-152 -113v-4z" />
    <glyph glyph-name="three.num" horiz-adv-x="626" 
d="M393 1106q102 0 103 86q0 55 -88 55t-168 -35l-39 146q121 47 235 47t182 -48q66 -48 66 -130t-44 -130t-101 -63v-2q92 -36 92 -142t-81 -170q-80 -64 -224 -65q-144 0 -238 56l55 149q76 -45 176 -45q133 0 134 92q0 47 -88 47h-132l31 152h129z" />
    <glyph glyph-name="four.num" horiz-adv-x="655" 
d="M489 1159h175l-39 -182h75l-32 -154h-76l-33 -151h-172l33 151h-324l29 140l254 428h182l-235 -412l-2 -2h129z" />
    <glyph glyph-name="five.num" horiz-adv-x="604" 
d="M391 1139q107 0 167 -47t60 -140q0 -139 -86 -218t-226 -79t-230 41l53 156q72 -37 174 -37q129 0 129 98q0 70 -84 70t-160 -10l-16 16l117 402h401l-33 -156h-249l-27 -96h10z" />
    <glyph glyph-name="six.num" horiz-adv-x="643" 
d="M498 940q0 72 -78 72q-57 0 -89 -33t-32 -92q0 -76 78 -76q121 0 121 129zM506 1149q74 0 124 -51t50 -137q0 -135 -88 -221t-217 -85q-129 0 -192 65q-62 65 -62 167t104 229l230 275h207l-3 -13l-223 -239v-2q29 12 70 12z" />
    <glyph glyph-name="seven.num" horiz-adv-x="583" 
d="M496 1235h-314l33 156h508l-31 -144l-403 -575h-191l2 10l396 551v2z" />
    <glyph glyph-name="eight.num" horiz-adv-x="669" 
d="M438 1110q62 0 89 28q26 28 26 68q0 61 -72 62q-51 0 -78 -29t-26 -68q-1 -61 61 -61zM217 1188q-1 90 75 154t191 63q115 0 174 -50t60 -128q0 -129 -137 -187v-2q96 -38 96 -146t-85 -172t-213 -65t-195 51t-66 136q0 158 170 217v2q-70 37 -70 127zM381 797
q123 0 123 102q0 70 -78 70t-107 -32t-28 -75q0 -65 90 -65z" />
    <glyph glyph-name="nine.num" horiz-adv-x="643" 
d="M338 1122q0 -72 78 -71q57 1 89 33t32 92q0 76 -78 75q-121 0 -121 -129zM156 1102q0 135 88 220t217 85t191 -65t62 -167t-104 -229l-229 -274h-207l2 12l223 240v2q-29 -12 -86 -12t-107 50q-50 52 -50 138z" />
    <glyph glyph-name="comma.num" horiz-adv-x="374" 
d="M10 463l170 457h201l-4 -17l-215 -440h-152z" />
    <glyph glyph-name="plus.num" horiz-adv-x="491" 
d="M459 1255l-31 -147h121l-29 -139h-123l-30 -146h-142l33 146h-119l29 139h119l30 147h142z" />
    <glyph glyph-name="hyphen.num" horiz-adv-x="509" 
d="M510 969h-346l29 139h348z" />
    <glyph glyph-name="minus.num" horiz-adv-x="542" 
d="M545 969h-381l29 139h380z" />
    <glyph glyph-name="parenleft.num" horiz-adv-x="368" 
d="M289 860q0 -174 28 -309l-106 -39q-74 181 -74 381t89 363q89 162 196 294l90 -77q-115 -167 -169 -303t-54 -310z" />
    <glyph glyph-name="period.num" horiz-adv-x="374" 
d="M216 659q-112 1 -112 113q0 58 46 102t103 44q56 0 84 -28t28 -86q-1 -58 -47 -102q-46 -43 -102 -43z" />
    <glyph glyph-name="parenright.num" horiz-adv-x="368" 
d="M272 1202q0 174 -28 309l106 39q74 -180 74 -380t-89 -364q-89 -165 -196 -294l-90 78q115 166 169 302t54 310z" />
    <glyph glyph-name="zero.denom" horiz-adv-x="724" 
d="M629 453q-1 -189 -103 -329t-282 -140q-119 0 -179 78t-61 200q0 188 100 330t277 141q123 -1 185 -79t63 -201zM184 274q0 -133 82 -133q90 0 135 86t45 217t-88 131q-70 0 -122 -84t-52 -217z" />
    <glyph glyph-name="one.denom" horiz-adv-x="493" 
d="M20 442h-14l35 166l270 111h131l-153 -719h-174l112 524h-2z" />
    <glyph glyph-name="two.denom" horiz-adv-x="643" 
d="M244 152h243l-32 -152h-512l28 137l336 250q66 47 66 115q-1 30 -19 52t-51 21q-59 0 -160 -83l-94 118q123 123 277 123q100 0 166 -54t66 -143q0 -90 -40 -148q-39 -58 -123 -120l-151 -112v-4z" />
    <glyph glyph-name="three.denom" horiz-adv-x="626" 
d="M250 434q102 0 102 86q0 55 -88 55t-168 -34l-39 145q121 47 236 47t181 -48t67 -130q0 -82 -44 -130t-102 -63v-2q92 -36 92 -142q-1 -106 -81 -170t-224 -64t-237 55l55 149q76 -45 176 -45q133 0 133 93q0 47 -88 47h-131l31 151h129z" />
    <glyph glyph-name="four.denom" horiz-adv-x="655" 
d="M348 487h174l-39 -182h76l-33 -153h-75l-33 -152h-172l33 152h-324l29 139l254 428h182l-236 -412l-2 -2h129z" />
    <glyph glyph-name="five.denom" horiz-adv-x="606" 
d="M250 467q106 0 166 -47t61 -139q0 -139 -86 -219t-248 -78q-119 0 -209 41l54 155q72 -37 174 -37q129 0 129 99q0 70 -84 70t-160 -11l-16 16l116 402h402l-33 -156h-250l-26 -96h10z" />
    <glyph glyph-name="six.denom" horiz-adv-x="643" 
d="M354 268q0 72 -78 72q-57 0 -89 -33t-31 -92q0 -76 77 -76q121 0 121 129zM362 477q74 0 124 -51t51 -137q0 -135 -88 -220q-87 -85 -217 -85t-192 64t-62 168q0 102 104 228l229 275h207l-2 -12l-223 -240v-2q29 12 69 12z" />
    <glyph glyph-name="seven.denom" horiz-adv-x="583" 
d="M352 563h-313l33 156h508l-31 -144l-404 -575h-190l2 10l395 551v2z" />
    <glyph glyph-name="eight.denom" horiz-adv-x="667" 
d="M233 500q1 -62 63 -62t88 28t26 69q0 61 -72 61q-51 0 -78 -29t-27 -67zM340 733q115 0 174 -50t59 -128q0 -129 -137 -186v-2q96 -37 96 -146t-85 -173t-213 -64t-194 51t-67 135q0 158 170 217v2q-69 37 -69 127t76 154t190 63zM238 125q123 0 122 102q0 70 -78 70
t-106 -32t-29 -75q1 -65 91 -65z" />
    <glyph glyph-name="nine.denom" horiz-adv-x="643" 
d="M197 451q0 -72 77 -72q57 0 90 33q32 33 31 92q0 76 -78 76q-120 0 -120 -129zM188 242q-74 0 -124 51t-50 137q0 135 88 220t218 85q130 -1 191 -65q62 -64 62 -166t-104 -230l-229 -274h-207l2 12l223 240v2q-29 -12 -70 -12z" />
    <glyph glyph-name="comma.denom" horiz-adv-x="374" 
d="M-131 -207l4 17l166 440h201l-4 -17l-216 -440h-151z" />
    <glyph glyph-name="plus.denom" horiz-adv-x="491" 
d="M315 584l-30 -148h121l-29 -139h-123l-31 -145h-141l33 145h-119l29 139h118l31 148h141z" />
    <glyph glyph-name="parenright.denom" horiz-adv-x="462" 
d="M178 530q0 174 -28 310l106 39q74 -181 74 -382t-90 -364t-195 -293l-90 78q115 166 169 302t54 310z" />
    <glyph glyph-name="hyphen.denom" horiz-adv-x="512" 
d="M369 297h-346l28 139h348z" />
    <glyph glyph-name="minus.denom" horiz-adv-x="544" 
d="M403 297h-380l28 139h381z" />
    <glyph glyph-name="parenleft.denom" horiz-adv-x="366" 
d="M-6 223q0 202 90 366q90 163 195 290l90 -78q-115 -166 -169 -302q-54 -135 -54 -309t28 -311l-106 -39q-74 181 -74 383z" />
    <glyph glyph-name="period.denom" horiz-adv-x="376" 
d="M112 246q114 0 112 -114q0 -58 -47 -102q-46 -42 -111 -42q-103 0 -103 112q0 58 46 102q47 44 103 44z" />
    <glyph glyph-name="minusinferior" horiz-adv-x="546" 
d="M352 51h-381l29 139h381z" />
    <glyph glyph-name="plusinferior" horiz-adv-x="491" 
d="M264 338l-31 -148h121l-28 -139h-123l-31 -145h-141l32 145h-118l28 139h119l31 148h141z" />
    <glyph glyph-name="commaaccent.alt" horiz-adv-x="1064" 
d="M995 1481l-4 -21l-114 -319h-248l4 20l176 320h186z" />
    <glyph glyph-name="caron.alt" horiz-adv-x="1064" 
d="M606 1053l4 20l113 320h258l-4 -21l-176 -319h-195z" />
    <glyph glyph-name="commaaccent.cap" horiz-adv-x="1064" 
d="M291 -446l4 20l113 320h249l-4 -21l-176 -319h-186z" />
    <glyph glyph-name="grave.cap" horiz-adv-x="1062" 
d="M709 1817l4 18h270l68 -279l-4 -20h-228z" />
    <glyph glyph-name="acute.cap" horiz-adv-x="1064" 
d="M1139 1835l-4 -18l-230 -281h-243l4 20l186 279h287z" />
    <glyph glyph-name="circumflex.cap" horiz-adv-x="1062" 
d="M1034 1835l148 -279l-4 -20h-199l-80 162l-145 -162h-215l4 20l266 279h225z" />
    <glyph glyph-name="caron.cap" horiz-adv-x="1064" 
d="M745 1536l-147 279l4 20h199l80 -162l145 162h215l-4 -20l-266 -279h-226z" />
    <glyph glyph-name="tilde.cap" horiz-adv-x="1064" 
d="M780 1837q57 0 130 -46t113 -46t83 19t72 51l28 -140q-96 -137 -209 -137q-55 0 -136 46t-122 46q-82 1 -143 -71l-29 143q98 135 213 135z" />
    <glyph glyph-name="dieresis.cap" horiz-adv-x="1062" 
d="M1106 1534q-130 0 -131 124q0 62 51 110q52 48 118 48t98 -30t32 -92t-51 -111t-117 -49zM632 1534q-130 0 -130 124q0 62 51 110t117 48t99 -30q32 -30 32 -92t-51 -111q-52 -49 -118 -49z" />
    <glyph glyph-name="macron.cap" horiz-adv-x="1064" 
d="M1126 1554h-526l45 211h526z" />
    <glyph glyph-name="tonos.cap" horiz-adv-x="1183" 
d="M1092 1393l-5 -19l-176 -321h-211l5 20l126 320h261z" />
    <glyph glyph-name="breve.cap" horiz-adv-x="1064" 
d="M897 1755q127 0 256 70l35 -160q-154 -129 -321 -129t-277 143l82 146q98 -70 225 -70z" />
    <glyph glyph-name="ring.cap" horiz-adv-x="1064" 
d="M668 1678q0 104 74 178t178 73q102 0 154 -47q52 -46 52 -150t-74 -178t-176 -74t-155 48q-53 46 -53 150zM819 1688q0 -63 62 -64q41 0 67 29t27 73q0 63 -60 64q-41 0 -69 -30t-27 -72z" />
    <glyph glyph-name="hungarumlaut.cap" horiz-adv-x="1062" 
d="M1319 1835l-4 -20l-246 -279h-225l4 20l205 279h266zM936 1835l-4 -20l-246 -279h-225l4 20l203 279h268z" />
    <glyph glyph-name="dotaccent.cap" horiz-adv-x="1064" 
d="M870 1534q-130 0 -131 124q-1 62 51 110t118 48t99 -30q31 -30 31 -92t-51 -111t-117 -49z" />
    </font>
</defs>
</svg>
