<?xml version="1.0" standalone="no"?>
<!DOCTYPE svg PUBLIC "-//W3C//DTD SVG 1.1//EN" "http://www.w3.org/Graphics/SVG/1.1/DTD/svg11.dtd" >
<svg xmlns="http://www.w3.org/2000/svg">
<metadata>
Created by FontPrep 20130207 at Mon Nov 17 10:50:16 2014
 By Christoph Koeberlin
Copyright (c) 2014 by Volkswagen AG. All rights reserved.
</metadata>
<defs>
<font id="194f5394ae2e9c74dc3c441b92862d1d" horiz-adv-x='1024' >
  <font-face 
    font-family="Font"
    font-weight="700"
    font-stretch="normal"
    units-per-em="1000"
    panose-1="2 11 8 3 4 2 0 0 0 3"
    ascent="800"
    descent="-200"
    x-height="482"
    cap-height="680"
    bbox="-200 -220 1133 946"
    underline-thickness="90"
    underline-position="-20"
    unicode-range="U+0020-FB02"
  />
<missing-glyph horiz-adv-x="513" 
d="M50 680h413v-680h-413v680zM405 58v564h-297v-564h297z" />
    <glyph glyph-name=".notdef" horiz-adv-x="513" 
d="M50 680h413v-680h-413v680zM405 58v564h-297v-564h297z" />
    <glyph glyph-name=".null" horiz-adv-x="0" 
 />
    <glyph glyph-name="nonmarkingreturn" horiz-adv-x="231" 
 />
    <glyph glyph-name="space" unicode=" " horiz-adv-x="231" 
 />
    <glyph glyph-name="exclam" unicode="!" horiz-adv-x="281" 
d="M185 240h-89l-28 289v151h145v-151zM55 71q0 38 23 62t62 24t62 -24t23 -62t-23 -62t-62 -24t-62 24t-23 62z" />
    <glyph glyph-name="quotedbl" unicode="&#x22;" horiz-adv-x="444" 
d="M360 405h-83l-28 181v94h139v-94zM167 405h-83l-28 181v94h139v-94z" />
    <glyph glyph-name="numbersign" unicode="#" horiz-adv-x="727" 
d="M84 0v10l42 149h-95v93h122l49 170h-90v93h116l48 165h106v-10l-45 -155h151l48 165h106v-10l-45 -155h99v-93h-125l-49 -170h93v-93h-120l-45 -159h-106v10l42 149h-151l-45 -159h-106zM262 252h151l49 170h-151z" />
    <glyph glyph-name="dollar" unicode="$" 
d="M96 159q28 -18 73.5 -34.5t89.5 -21.5v184l-32 11q-81 27 -121.5 75t-39.5 114q0 81 48.5 136t144.5 68v79h89v-77q38 -5 83 -16.5t83 -30.5l-42 -111q-28 14 -61.5 24.5t-62.5 15.5v-177q48 -15 84 -33.5t59.5 -42t35 -53.5t11.5 -69q0 -43 -13 -78.5t-37.5 -62.5
t-59.5 -44.5t-80 -24.5v-98h-89v94q-57 5 -113 23.5t-93 40.5zM196 499q0 -14 2.5 -25.5t10 -22t20 -19t32.5 -15.5v164q-38 -11 -51.5 -31.5t-13.5 -50.5zM407 188q0 28 -15.5 46t-46.5 32v-165q29 11 45.5 33t16.5 54z" />
    <glyph glyph-name="percent" unicode="%" horiz-adv-x="808" 
d="M129 503q0 -54 14.5 -78t40.5 -24q29 0 44 24t15 78t-15 79t-44 25q-26 0 -40.5 -25t-14.5 -79zM339 503q0 -41 -10.5 -75t-30.5 -58t-48.5 -37t-65.5 -13q-35 0 -63.5 13t-48 37t-30 58t-10.5 75q0 42 10.5 76t30 58.5t48 37.5t63.5 13q37 0 65.5 -13t48.5 -37.5
t30.5 -58.5t10.5 -76zM566 175q0 -54 14.5 -78t40.5 -24q29 0 44 24t15 78t-15 79t-44 25q-26 0 -40.5 -25t-14.5 -79zM776 175q0 -41 -10.5 -75t-30.5 -58t-48.5 -37t-65.5 -13q-35 0 -63.5 13t-48 37t-30 58t-10.5 75q0 42 10.5 76t30 58.5t48 37.5t63.5 13q37 0 65.5 -13
t48.5 -37.5t30.5 -58.5t10.5 -76zM126 0v10l456 670h104v-10l-456 -670h-104z" />
    <glyph glyph-name="ampersand" unicode="&#x26;" horiz-adv-x="743" 
d="M701 308q-30 -45 -59 -84t-58 -71l145 -143v-10h-161l-70 70q-109 -85 -231 -85q-51 0 -92 13.5t-69.5 37.5t-44 58t-15.5 76q0 39 15.5 68t39 51.5t50.5 39.5t51 30l7 4l-2 2q-12 12 -27 28t-27.5 35.5t-21 42t-8.5 48.5q0 36 14.5 68t41 56t64.5 38t85 14q43 0 79 -14
t62.5 -38t41.5 -56t15 -67q0 -31 -9.5 -55.5t-26 -44t-37.5 -35.5t-43 -29l-19 -11l114 -113q24 28 49 62t54 76zM284 104q35 0 67.5 11t66.5 36l-132 134l-12 -7q-12 -7 -27 -16t-28 -21t-21.5 -27.5t-8.5 -34.5q0 -34 24 -54.5t71 -20.5zM256 514q0 -19 9 -36.5t29 -36.5
l17 -18l28 17q27 15 43.5 32t16.5 42q0 26 -19.5 45.5t-51.5 19.5q-35 0 -53.5 -19t-18.5 -46z" />
    <glyph glyph-name="quotesingle" unicode="'" horiz-adv-x="251" 
d="M167 405h-83l-28 181v94h139v-94z" />
    <glyph glyph-name="parenleft" unicode="(" horiz-adv-x="288" 
d="M42 251q0 73 11 139.5t29.5 125.5t42.5 109.5t51 90.5l78 -34q-46 -100 -66.5 -206.5t-20.5 -224.5t20.5 -224.5t66.5 -206.5l-78 -34q-27 40 -51 90.5t-42.5 109.5t-29.5 125.5t-11 139.5v0z" />
    <glyph glyph-name="parenright" unicode=")" horiz-adv-x="288" 
d="M246 251q0 -73 -11 -139.5t-29.5 -125.5t-42.5 -109.5t-51 -90.5l-78 34q46 100 66.5 206.5t20.5 224.5t-20.5 224.5t-66.5 206.5l78 34q27 -40 51 -90.5t42.5 -109.5t29.5 -125.5t11 -139.5z" />
    <glyph glyph-name="asterisk" unicode="*" horiz-adv-x="441" 
d="M183 462l-90 -67l-48 84l104 45v2l-104 45l47 84l90 -67l2 1l-12 111h97l-13 -111l2 -1l90 67l48 -84l-104 -44v-2l104 -46l-47 -84l-91 68l-2 -1l13 -113h-97l13 112z" />
    <glyph glyph-name="plus" unicode="+" 
d="M347 323h202v-103h-202v-214h-107v214h-201v103h201v213h107v-213z" />
    <glyph glyph-name="comma" unicode="," horiz-adv-x="270" 
d="M15 -151l66 293h135v-10l-100 -293h-101v10z" />
    <glyph glyph-name="hyphen" unicode="-" horiz-adv-x="414" 
d="M62 220v103h290v-103h-290z" />
    <glyph glyph-name="period" unicode="." horiz-adv-x="272" 
d="M51 71q0 38 23 62t62 24t62 -24t23 -62t-23 -62t-62 -24t-62 24t-23 62z" />
    <glyph glyph-name="slash" unicode="/" horiz-adv-x="448" 
d="M25 0v10l282 670h116v-10l-282 -670h-116z" />
    <glyph glyph-name="zero" unicode="0" 
d="M176 340q0 -60 6 -104t20 -73.5t37 -44t56 -14.5t55.5 14.5t36 44t19.5 73.5t6 104t-6 104t-19.5 73.5t-36 44t-55.5 14.5t-56 -14.5t-37 -44t-20 -73.5t-6 -104zM557 340q0 -82 -14.5 -147.5t-46 -111.5t-81.5 -71t-120 -25q-71 0 -121 25t-81.5 71t-46.5 111.5
t-15 147.5t15 147.5t46.5 111.5t81.5 71t121 25q70 0 120 -25t81.5 -71t46 -111.5t14.5 -147.5z" />
    <glyph glyph-name="one" unicode="1" 
d="M112 505v119l168 56h104v-564h132v-116h-424v116h153v426h-2l-119 -37h-12z" />
    <glyph glyph-name="two" unicode="2" 
d="M243 116h286v-116h-475v100l254 247q15 14 27.5 28.5t21.5 30t14.5 33.5t5.5 40q0 40 -29 68.5t-75 28.5q-48 0 -82.5 -21t-65.5 -50l-73 90q14 15 36 32.5t50.5 32.5t62.5 25t72 10q55 0 100.5 -14.5t78.5 -42t51.5 -67.5t18.5 -92q0 -35 -12 -66.5t-28.5 -57.5
t-35.5 -46t-32 -33l-171 -158v-2z" />
    <glyph glyph-name="three" unicode="3" 
d="M145 401h116q59 0 83.5 25t24.5 64t-26 62.5t-82 23.5q-38 0 -82 -9t-82 -25l-40 108q21 10 46 18.5t52 14.5t54 9t52 3q126 0 189.5 -51t63.5 -142q0 -30 -9 -54.5t-24 -43t-33 -31t-36 -18.5v-2q51 -18 85.5 -60.5t34.5 -109.5q0 -45 -17.5 -81.5t-51.5 -62.5t-85 -40
t-117 -14q-75 0 -126.5 14t-93.5 37l37 110q38 -20 82 -31t101 -11q27 0 50 6t40 17t26.5 28t9.5 38q0 23 -6.5 40.5t-21.5 29t-39 17t-59 5.5h-116v116z" />
    <glyph glyph-name="four" unicode="4" 
d="M483 459v-199h77v-116h-77v-144h-139v144h-324v100l192 436h139l-178 -418v-2h171v199h139z" />
    <glyph glyph-name="five" unicode="5" 
d="M91 323l38 357h374v-116h-256l-14 -135q8 1 20.5 1.5t23.5 0.5q55 0 101.5 -11.5t80.5 -38t52.5 -68t18.5 -101.5q0 -54 -19.5 -96t-56.5 -71.5t-89.5 -44.5t-118.5 -15q-18 0 -42.5 2.5t-51.5 7t-55.5 11.5t-53.5 16l32 117q45 -19 93.5 -27t81.5 -8q68 0 101.5 28.5
t33.5 79.5q0 48 -32 74t-108 26q-32 0 -68.5 -2t-68.5 -4z" />
    <glyph glyph-name="six" unicode="6" 
d="M427 670l-157 -230l1 -2q11 5 31.5 9t43.5 4q46 0 85 -17t67.5 -47.5t44.5 -72.5t16 -93q0 -48 -17 -91t-50 -75.5t-81.5 -51t-111.5 -18.5q-65 0 -114 18.5t-82 51t-49.5 75.5t-16.5 91q0 42 11 82.5t37 82.5l188 294h154v-10zM414 221q0 57 -31 84t-84 27
q-54 0 -85.5 -27t-31.5 -84t31.5 -87t85.5 -30q53 0 84 30t31 87z" />
    <glyph glyph-name="seven" unicode="7" 
d="M127 10l255 552v2h-319v116h470v-100l-260 -580h-146v10z" />
    <glyph glyph-name="eight" unicode="8" 
d="M295 104q61 0 88 26.5t27 68.5t-27 68.5t-88 26.5q-63 0 -89 -26.5t-26 -68.5t27 -68.5t88 -26.5zM295 695q60 0 104 -14t72.5 -39.5t42.5 -60.5t14 -76q0 -61 -26.5 -95.5t-61.5 -50.5v-2q52 -20 83.5 -64t31.5 -109q0 -45 -16.5 -81.5t-49 -62.5t-81 -40.5
t-113.5 -14.5t-113.5 14.5t-81 40.5t-49 62.5t-16.5 81.5q0 65 31.5 109t83.5 64v2q-18 8 -34 20.5t-28 30t-19 41.5t-7 54q0 41 14 76t42.5 60.5t72.5 39.5t104 14zM295 410q47 0 67.5 22t20.5 61t-20.5 61t-67.5 22t-67.5 -22t-20.5 -61t20.5 -61t67.5 -22z" />
    <glyph glyph-name="nine" unicode="9" 
d="M162 10l157 230l-1 2q-11 -5 -31.5 -9t-43.5 -4q-46 0 -85 17t-67.5 47.5t-44.5 72.5t-16 93q0 48 17 91t50 75.5t81.5 51t111.5 18.5q64 0 113 -18.5t82 -51t50 -75.5t17 -91q0 -42 -11 -82.5t-37 -82.5l-188 -294h-154v10zM175 459q0 -57 31 -84t84 -27q54 0 85.5 27
t31.5 84t-31.5 87t-85.5 30q-53 0 -84 -30t-31 -87z" />
    <glyph glyph-name="colon" unicode=":" horiz-adv-x="294" 
d="M62 411q0 38 23 62t62 24t62 -24t23 -62t-23 -62t-62 -24t-62 24t-23 62zM62 71q0 38 23 62t62 24t62 -24t23 -62t-23 -62t-62 -24t-62 24t-23 62z" />
    <glyph glyph-name="semicolon" unicode=";" horiz-adv-x="295" 
d="M21 -151l66 293h135v-10l-100 -293h-101v10zM70 411q0 38 23 62t62 24t62 -24t23 -62t-23 -62t-62 -24t-62 24t-23 62z" />
    <glyph glyph-name="less" unicode="&#x3c;" 
d="M524 -4l-500 225v99l500 225h10v-109l-390 -164v-3l390 -164v-109h-10z" />
    <glyph glyph-name="equal" unicode="=" 
d="M60 333v103h470v-103h-470zM60 107v103h470v-103h-470z" />
    <glyph glyph-name="greater" unicode="&#x3e;" 
d="M56 -4v109l390 164v3l-390 164v109h10l500 -225v-99l-500 -225h-10z" />
    <glyph glyph-name="question" unicode="?" horiz-adv-x="504" 
d="M181 240l-6 129q33 10 60 23.5t47 29.5t31 35.5t11 42.5q0 15 -5.5 28.5t-17 24t-28 17t-37.5 6.5q-45 0 -78 -21t-62 -50l-71 93q13 15 34.5 32t48.5 31.5t59.5 24t68.5 9.5q54 0 97 -13t73 -37t46.5 -59t16.5 -79q0 -42 -16.5 -74.5t-41.5 -58t-54 -43t-54 -29.5
l-13 -62h-109zM150 71q0 38 23 62t62 24t62 -24t23 -62t-23 -62t-62 -24t-62 24t-23 62z" />
    <glyph glyph-name="at" unicode="@" horiz-adv-x="900" 
d="M639 -109q-34 -13 -79 -22t-102 -9q-95 0 -172 27t-131 80.5t-83 132t-29 180.5q0 85 30 164t86.5 139t138.5 96t186 36q91 0 163 -29.5t121 -80.5t75 -119t26 -144q0 -71 -18.5 -126t-48.5 -92.5t-68.5 -56.5t-77.5 -19q-50 0 -78.5 17.5t-44.5 46.5h-2
q-26 -20 -58.5 -36t-74.5 -16q-35 0 -63.5 12.5t-49 36t-32 55.5t-11.5 71q0 49 14 97.5t40.5 87t65 62.5t88.5 24q42 0 68 -15.5t45 -31.5h1l23 35h78l-48 -266q-4 -23 -4 -41t5.5 -30.5t16.5 -19.5t29 -7q21 0 42.5 12.5t38 38.5t27 66t10.5 94q0 58 -17 111.5t-53.5 94
t-93 64.5t-135.5 24q-86 0 -151 -29.5t-109 -78.5t-66.5 -113.5t-22.5 -133.5q0 -79 21 -142t62 -107.5t101.5 -68t139.5 -23.5q49 0 90.5 9t70.5 17zM541 386q-14 13 -33.5 19.5t-39.5 6.5q-27 0 -48.5 -14t-36.5 -37t-23 -54.5t-8 -65.5q0 -38 17.5 -62t55.5 -24
q10 0 21.5 2t22.5 6t21 9t18 11z" />
    <glyph glyph-name="A" unicode="A" horiz-adv-x="668" 
d="M665 0h-153l-45 140h-266l-46 -140h-152l250 680h162zM332 538l-93 -286h189l-93 286h-3z" />
    <glyph glyph-name="B" unicode="B" horiz-adv-x="652" 
d="M218 116h129q31 0 53.5 5t36.5 16t20.5 27.5t6.5 39.5q0 46 -27.5 68t-95.5 22h-123v-178zM328 680q124 0 188 -43.5t64 -140.5q0 -55 -26 -90t-62 -51v-2q55 -19 86 -57.5t31 -101.5q0 -96 -59 -145t-191 -49h-280v680h249zM218 404h104q30 0 51.5 4t35 13t20 24t6.5 38
t-6 38.5t-19.5 25t-35.5 13.5t-54 4h-102v-160z" />
    <glyph glyph-name="C" unicode="C" horiz-adv-x="605" 
d="M46 340q0 79 21.5 144.5t63.5 112.5t104 72.5t142 25.5q47 0 96.5 -11t96.5 -33l-37 -110q-43 19 -78.5 27t-77.5 8q-45 0 -80 -17t-58.5 -48t-35.5 -74.5t-12 -96.5t12 -96.5t35.5 -74.5t58.5 -48t80 -17q42 0 77.5 8t78.5 27l37 -110q-47 -22 -96.5 -33t-96.5 -11
q-80 0 -142 25.5t-104 72.5t-63.5 112t-21.5 145z" />
    <glyph glyph-name="D" unicode="D" horiz-adv-x="690" 
d="M79 680h213q96 0 162 -22t107.5 -65.5t60 -107t18.5 -145.5q0 -83 -18.5 -146t-60 -106.5t-107.5 -65.5t-162 -22h-213v680zM279 116q66 0 108 13.5t66 41t33 69.5t9 100t-9 100t-33 69.5t-66 41t-108 13.5h-61v-448h61z" />
    <glyph glyph-name="E" unicode="E" 
d="M535 680v-116h-317v-163h284v-116h-284v-169h320v-116h-459v680h456z" />
    <glyph glyph-name="F" unicode="F" horiz-adv-x="571" 
d="M535 680v-116h-317v-187h284v-116h-284v-261h-139v680h456z" />
    <glyph glyph-name="G" unicode="G" horiz-adv-x="686" 
d="M628 365v-321q-47 -25 -117 -42t-142 -17q-81 0 -141.5 26t-101 73t-60.5 112.5t-20 143.5q0 72 20.5 136t62.5 113t106.5 77.5t153.5 28.5q69 0 130 -15.5t101 -33.5l-40 -108q-38 16 -87.5 27t-103.5 11q-53 0 -90.5 -17t-61.5 -48t-35 -74.5t-11 -96.5
q0 -54 10.5 -97.5t33 -74t57 -47.5t83.5 -17q32 0 61 4t53 14v127l-121 17v99h260z" />
    <glyph glyph-name="H" unicode="H" horiz-adv-x="722" 
d="M504 285h-286v-285h-139v680h139v-279h286v279h139v-680h-139v285z" />
    <glyph glyph-name="I" unicode="I" horiz-adv-x="297" 
d="M218 0h-139v680h139v-680z" />
    <glyph glyph-name="J" unicode="J" horiz-adv-x="482" 
d="M70 156q12 -11 23.5 -20t25 -16.5t29.5 -11.5t36 -4q24 0 40 9t26 24.5t14.5 35.5t4.5 43v464h139v-473q0 -111 -59.5 -166.5t-164.5 -55.5q-61 0 -104 22t-73 49z" />
    <glyph glyph-name="K" unicode="K" horiz-adv-x="643" 
d="M218 304v-304h-139v680h139v-329h2l248 329h154v-10l-260 -337l273 -323v-10h-162l-253 304h-2z" />
    <glyph glyph-name="L" unicode="L" horiz-adv-x="533" 
d="M218 680v-564h293v-116h-432v680h139z" />
    <glyph glyph-name="M" unicode="M" horiz-adv-x="842" 
d="M422 316l207 364h134v-680h-139v442h-2l-146 -271h-110l-146 271h-2v-442h-139v680h134l207 -364h2z" />
    <glyph glyph-name="N" unicode="N" horiz-adv-x="736" 
d="M518 211v469h139v-680h-147l-289 469h-3v-469h-139v680h147l289 -469h3z" />
    <glyph glyph-name="O" unicode="O" horiz-adv-x="749" 
d="M192 340q0 -50 9.5 -93.5t31.5 -75t56.5 -49.5t85.5 -18q50 0 85 18t56.5 49.5t31 75t9.5 93.5t-9.5 93.5t-31 75t-56.5 49.5t-85 18q-51 0 -85.5 -18t-56.5 -49.5t-31.5 -75t-9.5 -93.5zM702 340q0 -74 -19.5 -139t-59.5 -113t-102 -75.5t-146 -27.5q-85 0 -147 27.5
t-102 75.5t-59.5 113t-19.5 139t19.5 139t59.5 113t102 75.5t147 27.5q84 0 146 -27.5t102 -75.5t59.5 -113t19.5 -139z" />
    <glyph glyph-name="P" unicode="P" horiz-adv-x="596" 
d="M79 0v680h259q62 0 105.5 -17t71 -47t40 -71t12.5 -90t-13 -90.5t-40.5 -71.5t-71 -47t-104.5 -17h-120v-229h-139zM218 345h110q51 0 72.5 31t21.5 79t-21.5 78.5t-72.5 30.5h-110v-219z" />
    <glyph glyph-name="Q" unicode="Q" horiz-adv-x="749" 
d="M702 340q0 -45 -7 -87t-22 -79t-37 -68.5t-52 -55.5l148 -72l-62 -115l-238 126q-14 -2 -28 -3t-29 -1q-85 0 -147 27.5t-102 75.5t-59.5 113t-19.5 139t19.5 139t59.5 113t102 75.5t147 27.5q84 0 146 -27.5t102 -75.5t59.5 -113t19.5 -139zM192 340q0 -50 9.5 -93.5
t31.5 -75t56.5 -49.5t85.5 -18q50 0 85 18t56.5 49.5t31 75t9.5 93.5t-9.5 93.5t-31 75t-56.5 49.5t-85 18q-51 0 -85.5 -18t-56.5 -49.5t-31.5 -75t-9.5 -93.5z" />
    <glyph glyph-name="R" unicode="R" horiz-adv-x="664" 
d="M79 0v680h287q121 0 178.5 -53.5t57.5 -151.5q0 -78 -37 -128.5t-112 -68.5l186 -262v-16h-152l-182 269h-87v-269h-139zM359 385q47 0 72.5 24.5t25.5 65.5t-25.5 65t-72.5 24h-141v-179h141z" />
    <glyph glyph-name="S" unicode="S" horiz-adv-x="561" 
d="M81 159q16 -10 38.5 -20t48 -18.5t52 -13.5t49.5 -5q56 0 84 21.5t28 64.5q0 16 -5 28.5t-16.5 22t-29.5 18t-45 17.5l-73 24q-81 26 -121 75t-40 114q0 46 16 84.5t47 66t77 42.5t107 15q21 0 46 -3.5t51.5 -9.5t53 -15t50.5 -21l-42 -111q-37 18 -82 30.5t-77 12.5
q-56 0 -80.5 -21.5t-24.5 -57.5q0 -26 14.5 -45.5t55.5 -32.5l71 -23q48 -15 83.5 -33.5t59 -42t35 -53.5t11.5 -69q0 -50 -17.5 -90t-50.5 -68t-80 -42.5t-106 -14.5q-31 0 -63.5 5.5t-62.5 15t-57 21t-48 23.5z" />
    <glyph glyph-name="T" unicode="T" horiz-adv-x="568" 
d="M545 680v-116h-192v-564h-139v564h-191v116h522z" />
    <glyph glyph-name="U" unicode="U" horiz-adv-x="706" 
d="M210 680v-401q0 -38 7.5 -70t24.5 -55t44.5 -36.5t66.5 -13.5t66 13.5t44.5 36.5t25 55t7.5 70v401h139v-401q0 -70 -16.5 -124.5t-51 -92t-87.5 -57.5t-127 -20t-127.5 20t-88 57.5t-50.5 92.5t-16 124v401h139z" />
    <glyph glyph-name="V" unicode="V" horiz-adv-x="661" 
d="M655 670l-240 -670h-169l-240 670v10h151l173 -534h3l171 534h151v-10z" />
    <glyph glyph-name="W" unicode="W" horiz-adv-x="1014" 
d="M995 670l-185 -670h-165l-137 527h-1l-137 -527h-166l-185 670v10h149l115 -530h2l141 530h162l141 -530h2l114 530h150v-10z" />
    <glyph glyph-name="X" unicode="X" horiz-adv-x="624" 
d="M172 680l139 -256h2l140 256h150v-10l-192 -329l192 -331v-10h-152l-138 257h-2l-138 -257h-152v10l191 331l-191 329v10h151z" />
    <glyph glyph-name="Y" unicode="Y" horiz-adv-x="604" 
d="M149 680l151 -280h2l151 280h152v-10l-234 -396v-274h-139v274l-235 396v10h152z" />
    <glyph glyph-name="Z" unicode="Z" horiz-adv-x="587" 
d="M541 680v-100l-333 -462v-2h333v-116h-504v100l332 462v2h-311v116h483z" />
    <glyph glyph-name="bracketleft" unicode="[" horiz-adv-x="335" 
d="M302 700v-73l-117 -23v-706l117 -23v-73h-232v898h232z" />
    <glyph glyph-name="backslash" unicode="\" horiz-adv-x="448" 
d="M307 0l-282 670v10h116l282 -670v-10h-116z" />
    <glyph glyph-name="bracketright" unicode="]" horiz-adv-x="335" 
d="M265 700v-898h-232v73l117 23v706l-117 23v73h232z" />
    <glyph glyph-name="asciicircum" unicode="^" horiz-adv-x="504" 
d="M492 372h-133l-112 203h-4l-112 -203h-133v10l184 318h126l184 -318v-10z" />
    <glyph glyph-name="underscore" unicode="_" horiz-adv-x="504" 
d="M61 -113v93h382v-93h-382z" />
    <glyph glyph-name="grave" unicode="`" 
d="M184 713h142l79 -136v-10h-118l-103 137v9z" />
    <glyph glyph-name="a" unicode="a" horiz-adv-x="543" 
d="M467 105q0 -11 2.5 -14.5t13.5 -3.5h35v-92q-16 -3 -32 -5t-38 -2q-39 0 -61 14.5t-35 42.5h-2q-12 -10 -29.5 -20.5t-38 -19.5t-43 -14.5t-44.5 -5.5q-81 0 -122 43t-41 109q0 40 13.5 70t42 49.5t73.5 29t109 9.5h65v22q0 22 -8.5 36t-21.5 21t-27 9.5t-25 2.5
q-40 0 -82.5 -9.5t-77.5 -25.5l-32 103q38 17 90 30t109 13q105 0 156 -50.5t51 -144.5v-197zM284 208q-67 0 -95 -16t-28 -43q0 -58 64 -58q26 0 57.5 9t52.5 24v84h-51z" />
    <glyph glyph-name="b" unicode="b" horiz-adv-x="586" 
d="M198 125q20 -12 45.5 -20.5t51.5 -8.5q30 0 51.5 10.5t36 29.5t21 46t6.5 59t-6.5 59t-21 46t-36 29.5t-51.5 10.5q-26 0 -51.5 -8.5t-45.5 -20.5v-232zM198 700v-253h2q22 16 54.5 33t82.5 17q52 0 91.5 -20.5t66 -55t40 -81.5t13.5 -99q0 -53 -13.5 -99.5t-40 -81
t-66 -55t-91.5 -20.5q-26 0 -48.5 5.5t-41.5 14t-34.5 19t-28.5 19.5h-2l-19 -43h-100v700h135z" />
    <glyph glyph-name="c" unicode="c" horiz-adv-x="479" 
d="M38 241q0 58 17 105.5t49.5 81t80 51.5t109.5 18q44 0 85 -10t65 -19l-27 -103q-21 7 -48 14t-59 7q-27 0 -51.5 -8t-43 -25t-29 -45t-10.5 -67t10.5 -67t28.5 -45t42.5 -25t52.5 -8q32 0 59 7t48 14l27 -103q-24 -9 -65 -19t-85 -10q-62 0 -109.5 18t-80 51.5t-49.5 81
t-17 105.5z" />
    <glyph glyph-name="d" unicode="d" horiz-adv-x="587" 
d="M389 357q-20 12 -45.5 20.5t-51.5 8.5q-30 0 -51.5 -10.5t-36 -29.5t-21 -46t-6.5 -59t6.5 -59t21 -46t36 -29.5t51.5 -10.5q26 0 51.5 8.5t45.5 20.5v232zM524 700v-700h-100l-19 43h-2q-13 -9 -28.5 -19.5t-34.5 -19t-41 -14t-49 -5.5q-52 0 -91.5 20.5t-66 55t-40 81
t-13.5 99.5q0 52 13.5 99t40 81.5t66 55t91.5 20.5q50 0 82.5 -17t54.5 -33h2v253h135z" />
    <glyph glyph-name="e" unicode="e" horiz-adv-x="539" 
d="M174 202q2 -26 11 -46t24.5 -34t37 -21.5t48.5 -7.5q42 0 80.5 8.5t73.5 21.5l31 -97q-36 -17 -86.5 -29t-108.5 -12q-63 0 -109.5 20t-77 55t-46 82t-15.5 100q0 51 15.5 97.5t46 81.5t75.5 55.5t104 20.5q58 0 100.5 -16.5t70.5 -45t41 -66.5t13 -80q0 -23 -2.5 -48.5
t-4.5 -38.5h-322zM379 286q1 4 1 7.5v7.5q0 20 -5 38t-17 31.5t-31.5 21t-47.5 7.5q-26 0 -45 -9.5t-32 -25.5t-20 -36t-8 -42h205z" />
    <glyph glyph-name="f" unicode="f" horiz-adv-x="381" 
d="M105 0v379h-85v73l85 30v64q0 83 45 121t119 38q20 0 45 -2t41 -5v-111q-14 3 -33 5t-32 2q-27 0 -38.5 -10.5t-11.5 -43.5v-58h120v-103h-120v-379h-135z" />
    <glyph glyph-name="g" unicode="g" horiz-adv-x="586" 
d="M388 356q-20 12 -45.5 21t-51.5 9q-30 0 -51.5 -10t-35.5 -28.5t-20.5 -45t-6.5 -58.5t6.5 -58t20.5 -44t35.5 -27.5t51.5 -9.5q26 0 51.5 8t45.5 19v224zM523 31q0 -61 -16.5 -106.5t-48.5 -76t-78.5 -46t-105.5 -15.5t-106.5 14t-82.5 33l39 99q30 -16 67.5 -25.5
t82.5 -9.5q59 0 86.5 24t27.5 84v36h-2q-22 -16 -54 -32t-83 -16q-52 0 -91.5 19.5t-65.5 53t-39.5 79t-13.5 98.5q0 52 13.5 98.5t39.5 80.5t65.5 54t91.5 20q27 0 48.5 -5.5t39.5 -14.5t33 -19.5t28 -19.5h2l18 44h105v-451z" />
    <glyph glyph-name="h" unicode="h" horiz-adv-x="581" 
d="M388 0v290q0 46 -21 71t-65 25q-18 0 -34 -4.5t-29 -11t-23.5 -15t-17.5 -15.5v-340h-135v700h135v-258h2q10 9 25 18.5t33 17.5t40 13.5t46 5.5q86 0 132.5 -53.5t46.5 -140.5v-303h-135z" />
    <glyph glyph-name="i" unicode="i" horiz-adv-x="261" 
d="M63 0v482h135v-482h-135zM53 640q0 32 21.5 53t56.5 21q36 0 57.5 -21t21.5 -53t-21.5 -53t-57.5 -21q-35 0 -56.5 21t-21.5 53z" />
    <glyph glyph-name="j" unicode="j" horiz-adv-x="261" 
d="M198 482v-513q0 -94 -43.5 -138t-129.5 -44q-16 0 -35 2t-35 5v109q13 -3 26 -4t27 -1q29 0 42 15t13 48v521h135zM53 640q0 32 21.5 53t56.5 21q36 0 57.5 -21t21.5 -53t-21.5 -53t-57.5 -21q-35 0 -56.5 21t-21.5 53z" />
    <glyph glyph-name="k" unicode="k" horiz-adv-x="538" 
d="M198 223v-223h-135v700h135v-435h2l169 217h147v-10l-183 -224l192 -238v-10h-153l-172 223h-2z" />
    <glyph glyph-name="l" unicode="l" horiz-adv-x="290" 
d="M196 700v-592q0 -11 2.5 -14.5t13.5 -3.5h53v-92q-16 -3 -37 -5t-43 -2q-69 0 -96.5 34.5t-27.5 106.5v568h135z" />
    <glyph glyph-name="m" unicode="m" horiz-adv-x="905" 
d="M170 482l17 -47h3q10 9 25 20t34 20.5t43 15.5t53 6q53 0 89 -19.5t58 -54.5h2q11 9 26 22t36 24.5t49 19.5t65 8q88 0 132.5 -53t44.5 -140v-304h-135v290q0 47 -18 71.5t-66 24.5q-36 0 -63.5 -16t-45.5 -30q2 -8 3 -17.5t1 -18.5v-304h-135v290q0 23 -4.5 41t-14 30
t-26 18.5t-40.5 6.5q-36 0 -62 -14t-43 -27v-345h-135v482h107z" />
    <glyph glyph-name="n" unicode="n" horiz-adv-x="581" 
d="M171 482l18 -47h2q10 9 25 20t34 20.5t43 15.5t52 6q85 0 131.5 -53t46.5 -140v-304h-135v290q0 47 -21 71.5t-65 24.5q-17 0 -32.5 -4t-28.5 -10.5t-24 -13.5t-19 -13v-345h-135v482h108z" />
    <glyph glyph-name="o" unicode="o" horiz-adv-x="583" 
d="M175 241q0 -36 8.5 -63.5t23.5 -45.5t36.5 -27t47.5 -9q27 0 48.5 9t36.5 27t23.5 45.5t8.5 63.5t-8.5 63.5t-23.5 45.5t-36.5 27t-48.5 9q-26 0 -47.5 -9t-36.5 -27t-23.5 -45.5t-8.5 -63.5zM546 241q0 -53 -16 -99.5t-48.5 -81t-80 -55t-110.5 -20.5q-62 0 -109.5 20.5
t-79.5 55t-48.5 81t-16.5 99.5q0 52 16.5 99t48.5 81.5t79.5 55t109.5 20.5q63 0 110.5 -20.5t80 -55t48.5 -81.5t16 -99z" />
    <glyph glyph-name="p" unicode="p" horiz-adv-x="586" 
d="M198 125q19 -12 45 -20.5t52 -8.5q30 0 51.5 10.5t35.5 29.5t20.5 46t6.5 59t-6.5 59t-20.5 46t-35.5 29.5t-51.5 10.5q-26 0 -52 -8.5t-45 -20.5v-232zM162 482l19 -43h2q25 19 63 38.5t91 19.5q52 0 91.5 -20.5t65.5 -55t39.5 -81.5t13.5 -99q0 -53 -13.5 -99.5
t-39.5 -81t-65.5 -55t-91.5 -20.5q-51 0 -82.5 17t-54.5 33h-2v-233h-135v680h99z" />
    <glyph glyph-name="q" unicode="q" horiz-adv-x="586" 
d="M388 357q-19 12 -45 20.5t-52 8.5q-30 0 -51.5 -10.5t-35.5 -29.5t-20.5 -46t-6.5 -59t6.5 -59t20.5 -46t35.5 -29.5t51.5 -10.5q26 0 52 8.5t45 20.5v232zM523 -198h-135v233h-2q-23 -16 -54.5 -33t-82.5 -17q-52 0 -91.5 20.5t-65.5 55t-39.5 81t-13.5 99.5
q0 52 13.5 99t39.5 81.5t65.5 55t91.5 20.5q27 0 49.5 -5.5t41.5 -14t34.5 -19t28.5 -19.5h2l19 43h99v-680z" />
    <glyph glyph-name="r" unicode="r" horiz-adv-x="378" 
d="M172 482l19 -58h2q7 12 18 24.5t26 23.5t34.5 18t43.5 7q13 0 26 -2t22 -4l-12 -113q-11 2 -25 3t-23 1q-42 0 -67 -15.5t-38 -31.5v-335h-135v482h109z" />
    <glyph glyph-name="s" unicode="s" horiz-adv-x="468" 
d="M72 128q35 -18 75 -29.5t80 -11.5t58 12t18 35q0 22 -17 32.5t-49 18.5l-63 15q-25 6 -48.5 16.5t-42 27.5t-29.5 41t-11 57q0 71 53 113t147 42q55 0 96.5 -9t83.5 -26l-37 -96q-32 12 -68 20.5t-71 8.5q-38 0 -55.5 -11t-17.5 -33q0 -21 16 -31t46 -18l61 -15
q29 -7 54 -18.5t43.5 -28.5t29 -41t10.5 -56q0 -38 -14.5 -67t-41 -49.5t-64 -31t-83.5 -10.5q-62 0 -109 12t-90 34l40 97v0z" />
    <glyph glyph-name="t" unicode="t" horiz-adv-x="415" 
d="M244 594v-112h138v-103h-138v-228q0 -26 14 -40.5t43 -14.5q17 0 39 4.5t39 9.5v-110q-15 -4 -46.5 -9.5t-66.5 -5.5q-80 0 -118.5 34t-38.5 107v253h-88v73l88 30v112h135z" />
    <glyph glyph-name="u" unicode="u" horiz-adv-x="575" 
d="M193 482v-290q0 -47 19 -71.5t63 -24.5q17 0 32 4t28 10.5t23.5 13.5t18.5 13v345h135v-482h-109l-18 47h-2q-10 -9 -24 -20t-33 -20.5t-42 -15.5t-51 -6q-86 0 -130.5 53t-44.5 140v304h135z" />
    <glyph glyph-name="v" unicode="v" horiz-adv-x="538" 
d="M527 472l-185 -472h-146l-185 472v10h136l121 -345h2l121 345h136v-10z" />
    <glyph glyph-name="w" unicode="w" horiz-adv-x="840" 
d="M822 472l-144 -472h-147l-110 347h-2l-110 -347h-147l-144 472v10h135l89 -334h2l103 334h146l103 -334h2l89 334h135v-10z" />
    <glyph glyph-name="x" unicode="x" horiz-adv-x="539" 
d="M269 168l-103 -168h-145v10l153 231l-153 231v10h145l103 -169h2l102 169h145v-10l-153 -231l153 -231v-10h-145l-102 168h-2z" />
    <glyph glyph-name="y" unicode="y" horiz-adv-x="530" 
d="M519 472l-207 -531q-32 -81 -81 -117.5t-112 -36.5q-24 0 -43 2.5t-36 6.5v107q17 -3 35.5 -4t26.5 -1q32 0 51.5 12t30.5 41l20 54l-194 467v10h140l116 -328h3l110 328h140v-10z" />
    <glyph glyph-name="z" unicode="z" horiz-adv-x="472" 
d="M431 482v-71l-232 -306v-2h232v-103h-397v71l231 306v2h-216v103h382z" />
    <glyph glyph-name="braceleft" unicode="{" horiz-adv-x="367" 
d="M24 299q38 0 63.5 20t25.5 59v132q0 45 8 80t29 59.5t56.5 37.5t91.5 13h36v-73q-29 0 -49.5 -7.5t-33 -21.5t-18 -34t-5.5 -45v-138q0 -59 -20 -90t-66 -39v-2q46 -8 66 -39t20 -90v-138q0 -25 5.5 -45t18 -34t33 -21.5t49.5 -7.5v-73h-36q-56 0 -91.5 13t-56.5 37.5
t-29 59.5t-8 80v132q0 39 -25.5 59t-63.5 20v96z" />
    <glyph glyph-name="bar" unicode="|" horiz-adv-x="229" 
d="M159 -198h-89v898h89v-898z" />
    <glyph glyph-name="braceright" unicode="}" horiz-adv-x="367" 
d="M343 203q-38 0 -63.5 -20t-25.5 -59v-132q0 -45 -8 -80t-29 -59.5t-57 -37.5t-91 -13h-36v73q29 0 49.5 7.5t33 21.5t18 34t5.5 45v138q0 59 20 90t66 39v2q-46 8 -66 39t-20 90v138q0 25 -5.5 45t-18 34t-33 21.5t-49.5 7.5v73h36q55 0 91 -13t57 -37.5t29 -59.5t8 -80
v-132q0 -39 25.5 -59t63.5 -20v-96z" />
    <glyph glyph-name="asciitilde" unicode="~" horiz-adv-x="559" 
d="M45 285q23 33 54.5 49t75.5 16q32 0 59.5 -8.5t53.5 -19t51.5 -19t53.5 -8.5q25 0 40 5t31 19l48 -63q-24 -33 -55 -48.5t-74 -15.5q-29 0 -56.5 8.5t-54.5 19t-53.5 19t-54.5 8.5q-26 0 -42 -6t-29 -19z" />
    <glyph glyph-name="uni00A0" unicode="&#xa0;" horiz-adv-x="231" 
 />
    <glyph glyph-name="exclamdown" unicode="&#xa1;" horiz-adv-x="268" 
d="M89 242h89l28 -289v-151h-145v151zM219 411q0 -38 -23 -62t-62 -24t-62 24t-23 62t23 62t62 24t62 -24t23 -62z" />
    <glyph glyph-name="cent" unicode="&#xa2;" 
d="M395 493q31 -4 58 -11t45 -14l-27 -103q-16 5 -36 10.5t-40 8.5v-286q20 3 40 8.5t36 10.5l27 -103q-18 -7 -45 -14t-58 -11v-85h-89v84q-52 6 -92 26.5t-67 53.5t-41 77t-14 96t14 95.5t41 76.5t67 54t92 27v84h89v-85zM230 241q0 -27 5.5 -49t16 -38.5t24 -27.5
t30.5 -18v265q-17 -7 -30.5 -18.5t-24 -27.5t-16 -37.5t-5.5 -48.5z" />
    <glyph glyph-name="sterling" unicode="&#xa3;" 
d="M278 283q2 -14 3 -28t1 -28q0 -33 -15.5 -61t-35.5 -48v-2h293v-116h-456v96q20 11 33 23t21 25.5t11.5 27.5t3.5 30q0 20 -2 40t-5 41h-72v103h58q-2 21 -3.5 44t-1.5 49q0 109 58.5 162.5t176.5 53.5q47 0 98.5 -12.5t94.5 -32.5l-37 -110q-37 16 -75.5 26t-80.5 10
q-22 0 -39 -6t-28 -18t-17 -30t-6 -43t2 -47.5t5 -45.5h180v-103h-165z" />
    <glyph glyph-name="currency" unicode="&#xa4;" horiz-adv-x="599" 
d="M484 270q0 -25 -5 -48t-16 -43l94 -92l-73 -74l-93 93q-38 -21 -94 -21q-53 0 -91 19l-90 -91l-74 74l90 90q-11 20 -16 43.5t-5 49.5q0 52 22 94l-91 91l74 73l91 -92q38 19 90 19q54 0 92 -21l95 94l73 -73l-94 -94q21 -39 21 -91zM224 270q0 -45 20.5 -66.5
t52.5 -21.5q33 0 53.5 21.5t20.5 66.5t-20.5 66.5t-53.5 21.5q-32 0 -52.5 -21.5t-20.5 -66.5z" />
    <glyph glyph-name="yen" unicode="&#xa5;" 
d="M366 124v-124h-139v124h-187v103h187v66h-187v103h128l-156 274v10h152l131 -260h2l131 260h152v-10l-156 -274h126v-103h-184v-66h184v-103h-184z" />
    <glyph glyph-name="brokenbar" unicode="&#xa6;" horiz-adv-x="237" 
d="M163 134v-332h-89v332h89zM74 368v332h89v-332h-89z" />
    <glyph glyph-name="section" unicode="&#xa7;" horiz-adv-x="579" 
d="M225 342q-15 -9 -22.5 -26t-7.5 -34q0 -20 11 -39t43 -31l115 -44q17 11 23.5 27.5t6.5 31.5q0 27 -14.5 44.5t-37.5 26.5zM449 134q45 -24 64 -58.5t19 -71.5q0 -45 -18 -79.5t-50.5 -58t-77.5 -35t-99 -11.5q-69 0 -132 17t-108 37l43 119q42 -20 92.5 -39t101.5 -19
t78.5 13t27.5 39q0 21 -15 35.5t-63 32.5l-116 43q-70 26 -104.5 60.5t-34.5 96.5q0 41 24 71.5t59 47.5v2q-38 20 -60.5 55t-22.5 81q0 43 16.5 77t47.5 57.5t76 36t103 12.5q48 0 101 -7.5t104 -29.5l-42 -113q-41 17 -83.5 26t-80.5 9q-53 0 -76.5 -16t-23.5 -40
q0 -10 3 -18.5t10.5 -16t21.5 -15t35 -14.5l97 -34q91 -32 128.5 -70t37.5 -94q0 -21 -6.5 -40t-17.5 -34.5t-26 -28.5t-33 -23v-2z" />
    <glyph glyph-name="dieresis" unicode="&#xa8;" 
d="M106 640q0 32 21.5 53t56.5 21q36 0 57.5 -21t21.5 -53t-21.5 -53t-57.5 -21q-35 0 -56.5 21t-21.5 53zM326 640q0 32 21.5 53t56.5 21q36 0 57.5 -21t21.5 -53t-21.5 -53t-57.5 -21q-35 0 -56.5 21t-21.5 53z" />
    <glyph glyph-name="copyright" unicode="&#xa9;" horiz-adv-x="802" 
d="M46 340q0 75 27 140t75 113t113 75t140 27t140 -27t113 -75t75 -113t27 -140t-27 -140t-75 -113t-113 -75t-140 -27t-140 27t-113 75t-75 113t-27 140zM117 340q0 -61 22.5 -113.5t62 -91t92.5 -60.5t114 -22t111.5 22t87.5 60.5t57.5 91t20.5 113.5t-21.5 113.5
t-59.5 91t-90 60.5t-113 22t-113 -22t-90 -60.5t-59.5 -91t-21.5 -113.5zM214 340q0 88 49.5 141.5t143.5 53.5q27 0 56.5 -6t56.5 -18l-24 -72q-26 12 -45.5 16t-43.5 4q-43 0 -70.5 -33t-27.5 -86t27.5 -86t70.5 -33q24 0 43.5 4t45.5 16l24 -72q-27 -12 -56.5 -18
t-56.5 -6q-94 0 -143.5 53.5t-49.5 141.5z" />
    <glyph glyph-name="ordfeminine" unicode="&#xaa;" horiz-adv-x="435" 
d="M213 478q-24 0 -37 -8t-13 -24q0 -31 34 -31q17 0 34 6t28 13v44h-46zM284 350l-15 27h-1q-14 -12 -40.5 -24t-55.5 -12q-56 0 -81.5 28t-25.5 68q0 51 36 76t102 25h56v9q0 19 -11 28t-40 9q-27 0 -54 -5.5t-52 -14.5l-20 75q26 9 60 16.5t71 7.5q70 0 107 -35t37 -94
v-184h-73zM74 196v87h283v-87h-283z" />
    <glyph glyph-name="guillemotleft" unicode="&#xab;" horiz-adv-x="542" 
d="M34 276l161 219l83 -49l-107 -177l108 -176l-84 -48l-161 219v12zM255 276l161 219l83 -49l-107 -177l108 -176l-84 -48l-161 219v12z" />
    <glyph glyph-name="logicalnot" unicode="&#xac;" 
d="M455 220h-417v103h510v-224h-93v121z" />
    <glyph glyph-name="uni00AD" unicode="&#xad;" horiz-adv-x="414" 
d="M62 220v103h290v-103h-290z" />
    <glyph glyph-name="registered" unicode="&#xae;" horiz-adv-x="548" 
d="M46 561q0 49 17.5 90.5t48 72.5t72.5 48.5t90 17.5t90 -17.5t72.5 -48.5t48 -72.5t17.5 -90.5q0 -48 -17.5 -90t-48 -72.5t-72.5 -48t-90 -17.5t-90 17.5t-72.5 48t-48 72.5t-17.5 90zM101 561q0 -37 13.5 -69t37.5 -56t56.5 -37.5t70.5 -13.5q37 0 68 13.5t53 37.5
t34.5 56t12.5 69t-13 69t-36 56t-55 37.5t-69 13.5q-38 0 -69.5 -13.5t-54.5 -37.5t-36 -56t-13 -69zM184 455v218h99q42 0 61.5 -18.5t19.5 -50.5q0 -24 -12.5 -41t-36.5 -24l60 -79v-5h-63l-53 80h-20v-80h-55zM280 579q15 0 22 7t7 17q0 11 -7 17.5t-22 6.5h-41v-48h41z
" />
    <glyph glyph-name="macron" unicode="&#xaf;" 
d="M150 579v103h290v-103h-290z" />
    <glyph glyph-name="degree" unicode="&#xb0;" horiz-adv-x="441" 
d="M140 528q0 -38 22.5 -58t58.5 -20q37 0 58.5 20t21.5 58q0 35 -21.5 56t-58.5 21q-36 0 -58.5 -21t-22.5 -56zM44 528q0 39 13 69.5t36 52.5t56 33.5t72 11.5q79 0 127.5 -44.5t48.5 -122.5q0 -79 -48.5 -124.5t-127.5 -45.5t-128 45.5t-49 124.5z" />
    <glyph glyph-name="plusminus" unicode="&#xb1;" 
d="M348 433h202v-103h-202v-144h-107v144h-201v103h201v193h107v-193zM550 103v-103h-510v103h510z" />
    <glyph glyph-name="twosuperior" unicode="&#xb2;" horiz-adv-x="328" 
d="M159 524h141v-76h-275v70l147 117q14 11 20 23t6 27q0 18 -11.5 31t-32.5 13q-25 0 -42.5 -12.5t-34.5 -29.5l-53 60q8 9 20.5 20t29.5 20t38 15t47 6q28 0 53 -7.5t43.5 -22t29 -36.5t10.5 -51q0 -37 -19.5 -63.5t-48.5 -48.5l-68 -53v-2z" />
    <glyph glyph-name="threesuperior" unicode="&#xb3;" horiz-adv-x="324" 
d="M78 662h69q23 0 34 8t11 25q0 14 -10.5 24t-39.5 10q-22 0 -46.5 -4.5t-43.5 -12.5l-26 73q23 9 52.5 16t66.5 7q69 0 106 -26t37 -74q0 -37 -18 -54.5t-38 -20.5v-1q29 -9 47.5 -30t18.5 -58q0 -47 -36.5 -75.5t-121.5 -28.5q-36 0 -67.5 7.5t-55.5 19.5l24 75
q18 -9 45 -15.5t53 -6.5q32 0 47.5 9t15.5 28q0 17 -12.5 22.5t-41.5 5.5h-70v77z" />
    <glyph glyph-name="acute" unicode="&#xb4;" 
d="M405 704l-103 -137h-118v10l79 136h142v-9z" />
    <glyph glyph-name="mu" unicode="&#xb5;" horiz-adv-x="577" 
d="M68 -198v680h135v-290q0 -47 19 -71.5t63 -24.5q17 0 32 4t28 10.5t23.5 13.5t18.5 13v345h135v-482h-109l-18 47h-2q-10 -9 -24 -20t-31 -20.5t-36.5 -15.5t-41.5 -6q-16 0 -31.5 4.5t-25.5 11.5v-199h-135z" />
    <glyph glyph-name="paragraph" unicode="&#xb6;" horiz-adv-x="600" 
d="M213 328q-38 0 -72 11.5t-59 33.5t-39.5 55t-14.5 75t14.5 75t39.5 55.5t59 34.5t72 12h357v-85h-95v-793h-88v793h-85v-793h-89v526z" />
    <glyph glyph-name="periodcentered" unicode="&#xb7;" horiz-adv-x="278" 
d="M54 291q0 38 23 62t62 24t62 -24t23 -62t-23 -62t-62 -24t-62 24t-23 62z" />
    <glyph glyph-name="cedilla" unicode="&#xb8;" 
d="M228 -88l37 95h80l-23 -52q32 -5 50.5 -23.5t18.5 -49.5q0 -44 -31 -69.5t-87 -25.5q-23 0 -42 3.5t-33 8.5l14 63q11 -4 22.5 -6t20.5 -2q17 0 26 6t9 19q0 19 -19.5 23t-38.5 4z" />
    <glyph glyph-name="onesuperior" unicode="&#xb9;" horiz-adv-x="261" 
d="M16 658v84l130 58h70v-352h-92v254h-2l-97 -44h-9z" />
    <glyph glyph-name="ordmasculine" unicode="&#xba;" horiz-adv-x="439" 
d="M150 502q0 -46 20.5 -62t48.5 -16q29 0 49 16t20 62q0 45 -20 61.5t-49 16.5q-28 0 -48.5 -16.5t-20.5 -61.5zM388 502q0 -33 -11 -62.5t-32.5 -51t-53 -34.5t-72.5 -13q-40 0 -71.5 13t-53 34.5t-33 51t-11.5 62.5t11.5 62.5t33 51t53 34.5t71.5 13q41 0 72.5 -13
t53 -34.5t32.5 -51t11 -62.5zM77 196v87h283v-87h-283z" />
    <glyph glyph-name="guillemotright" unicode="&#xbb;" horiz-adv-x="543" 
d="M288 264l-161 -219l-83 49l107 177l-108 176l84 48l161 -219v-12zM509 264l-161 -219l-83 49l107 177l-108 176l84 48l161 -219v-12z" />
    <glyph glyph-name="onequarter" unicode="&#xbc;" horiz-adv-x="755" 
d="M92 0v10l456 670h104v-10l-456 -670h-104zM681 244v-93h42v-76h-42v-75h-91v75h-172v68l90 209h93l-81 -200v-1h70v93h91zM30 538v84l130 58h70v-352h-92v254h-2l-97 -44h-9z" />
    <glyph glyph-name="onehalf" unicode="&#xbd;" horiz-adv-x="774" 
d="M593 76h141v-76h-275v70l147 117q14 11 20 23t6 27q0 18 -11.5 31t-32.5 13q-25 0 -42.5 -12.5t-34.5 -29.5l-53 60q8 9 20.5 20t29.5 20t38 15t47 6q28 0 53 -7.5t43.5 -22t29 -36.5t10.5 -51q0 -37 -19.5 -63.5t-48.5 -48.5l-68 -53v-2zM92 0v10l456 670h104v-10
l-456 -670h-104zM30 538v84l130 58h70v-352h-92v254h-2l-97 -44h-9z" />
    <glyph glyph-name="threequarters" unicode="&#xbe;" horiz-adv-x="796" 
d="M134 0v10l456 670h104v-10l-456 -670h-104zM723 244v-93h42v-76h-42v-75h-91v75h-172v68l90 209h93l-81 -200v-1h70v93h91zM94 539h69q23 0 34 8t11 25q0 14 -10.5 24t-39.5 10q-22 0 -46.5 -4.5t-43.5 -12.5l-26 73q23 9 52.5 16t66.5 7q69 0 106 -26t37 -74
q0 -37 -18 -54.5t-38 -20.5v-1q29 -9 47.5 -30t18.5 -58q0 -47 -36.5 -75.5t-121.5 -28.5q-36 0 -67.5 7.5t-55.5 19.5l24 75q18 -9 45 -15.5t53 -6.5q32 0 47.5 9t15.5 28q0 17 -12.5 22.5t-41.5 5.5h-70v77z" />
    <glyph glyph-name="questiondown" unicode="&#xbf;" horiz-adv-x="501" 
d="M321 242l6 -129q-33 -11 -60 -24t-47 -29t-31 -35.5t-11 -42.5q0 -15 5.5 -29t17 -24.5t28 -16.5t37.5 -6q45 0 78 21t62 50l71 -93q-14 -15 -35 -32t-48 -31.5t-59.5 -24t-68.5 -9.5q-54 0 -97 13t-73 37t-46.5 59t-16.5 79q0 42 16.5 74.5t41.5 58t54 43t54 29.5l13 62
h109zM352 411q0 -38 -23 -62t-62 -24t-62 24t-23 62t23 62t62 24t62 -24t23 -62z" />
    <glyph glyph-name="Agrave" unicode="&#xc0;" horiz-adv-x="668" 
d="M665 0h-153l-45 140h-266l-46 -140h-152l250 680h162zM332 538l-93 -286h189l-93 286h-3zM198 896h152l59 -136v-10h-128l-83 137v9z" />
    <glyph glyph-name="Aacute" unicode="&#xc1;" horiz-adv-x="668" 
d="M665 0h-153l-45 140h-266l-46 -140h-152l250 680h162zM332 538l-93 -286h189l-93 286h-3zM471 887l-83 -137h-128v10l59 136h152v-9z" />
    <glyph glyph-name="Acircumflex" unicode="&#xc2;" horiz-adv-x="668" 
d="M665 0h-153l-45 140h-266l-46 -140h-152l250 680h162zM332 538l-93 -286h189l-93 286h-3zM509 760v-10h-112l-63 79l-62 -79h-112v10l111 136h127z" />
    <glyph glyph-name="Atilde" unicode="&#xc3;" horiz-adv-x="668" 
d="M665 0h-153l-45 140h-266l-46 -140h-152l250 680h162zM332 538l-93 -286h189l-93 286h-3zM160 831q16 28 44.5 47t61.5 19q24 0 43 -7t36 -15.5t33.5 -15.5t36.5 -7t37.5 9.5t29.5 24.5l27 -68q-17 -32 -46.5 -49.5t-58.5 -17.5q-22 0 -42 7t-38 15.5t-35.5 15.5t-34.5 7
q-22 0 -37.5 -9t-29.5 -26z" />
    <glyph glyph-name="Adieresis" unicode="&#xc4;" horiz-adv-x="668" 
d="M665 0h-153l-45 140h-266l-46 -140h-152l250 680h162zM332 538l-93 -286h189l-93 286h-3zM125 819q0 32 21.5 53t56.5 21q36 0 57.5 -21t21.5 -53t-21.5 -53t-57.5 -21q-35 0 -56.5 21t-21.5 53zM386 819q0 32 21.5 53t56.5 21q36 0 57.5 -21t21.5 -53t-21.5 -53
t-57.5 -21q-35 0 -56.5 21t-21.5 53z" />
    <glyph glyph-name="Aring" unicode="&#xc5;" horiz-adv-x="666" 
d="M211 751q0 52 34 82t88 30t87.5 -30t33.5 -82q0 -27 -13.5 -51t-33.5 -38l257 -661h-153l-45 140h-266l-46 -140h-152l256 660q-20 14 -33.5 38t-13.5 52zM331 539l-93 -286h189l-93 286h-3zM291 751q0 -19 11.5 -29t30.5 -10t30 10t11 29q0 18 -11 28.5t-30 10.5
t-30.5 -10.5t-11.5 -28.5z" />
    <glyph glyph-name="AE" unicode="&#xc6;" horiz-adv-x="958" 
d="M-19 10l403 670h519v-116h-317v-163h284v-116h-284v-169h320v-116h-459v140h-234l-83 -140h-149v10zM444 544l-167 -292h170v292h-3z" />
    <glyph glyph-name="Ccedilla" unicode="&#xc7;" horiz-adv-x="606" 
d="M284 -88l30 78q-65 9 -115 38.5t-84 75t-51 105.5t-17 131q0 79 21.5 144.5t63.5 112.5t104 72.5t142 25.5q47 0 96.5 -11t96.5 -33l-37 -110q-43 19 -78.5 27t-77.5 8q-45 0 -80 -17t-58.5 -48t-35.5 -74.5t-12 -96.5t12 -96.5t35.5 -74.5t58.5 -48t80 -17q42 0 77.5 8
t78.5 27l37 -110q-44 -20 -89.5 -31t-90.5 -13l-13 -30q32 -5 50.5 -23.5t18.5 -49.5q0 -44 -31 -69.5t-87 -25.5q-23 0 -42 3.5t-33 8.5l14 63q11 -4 22.5 -6t20.5 -2q17 0 26 6t9 19q0 19 -19.5 23t-38.5 4z" />
    <glyph glyph-name="Egrave" unicode="&#xc8;" 
d="M535 680v-116h-317v-163h284v-116h-284v-169h320v-116h-459v680h456zM170 896h152l59 -136v-10h-128l-83 137v9z" />
    <glyph glyph-name="Eacute" unicode="&#xc9;" 
d="M535 680v-116h-317v-163h284v-116h-284v-169h320v-116h-459v680h456zM457 887l-83 -137h-128v10l59 136h152v-9z" />
    <glyph glyph-name="Ecircumflex" unicode="&#xca;" 
d="M535 680v-116h-317v-163h284v-116h-284v-169h320v-116h-459v680h456zM484 760v-10h-112l-63 79l-62 -79h-112v10l111 136h127z" />
    <glyph glyph-name="Edieresis" unicode="&#xcb;" 
d="M535 680v-116h-317v-163h284v-116h-284v-169h320v-116h-459v680h456zM96 819q0 32 21.5 53t56.5 21q36 0 57.5 -21t21.5 -53t-21.5 -53t-57.5 -21q-35 0 -56.5 21t-21.5 53zM357 819q0 32 21.5 53t56.5 21q36 0 57.5 -21t21.5 -53t-21.5 -53t-57.5 -21q-35 0 -56.5 21
t-21.5 53z" />
    <glyph glyph-name="Igrave" unicode="&#xcc;" horiz-adv-x="297" 
d="M218 0h-139v680h139v-680zM7 896h152l59 -136v-10h-128l-83 137v9z" />
    <glyph glyph-name="Iacute" unicode="&#xcd;" horiz-adv-x="297" 
d="M218 0h-139v680h139v-680zM296 887l-83 -137h-128v10l59 136h152v-9z" />
    <glyph glyph-name="Icircumflex" unicode="&#xce;" horiz-adv-x="297" 
d="M218 0h-139v680h139v-680zM324 760v-10h-112l-63 79l-62 -79h-112v10l111 136h127z" />
    <glyph glyph-name="Idieresis" unicode="&#xcf;" horiz-adv-x="297" 
d="M218 0h-139v680h139v-680zM-61 819q0 32 21.5 53t56.5 21q36 0 57.5 -21t21.5 -53t-21.5 -53t-57.5 -21q-35 0 -56.5 21t-21.5 53zM200 819q0 32 21.5 53t56.5 21q36 0 57.5 -21t21.5 -53t-21.5 -53t-57.5 -21q-35 0 -56.5 21t-21.5 53z" />
    <glyph glyph-name="Eth" unicode="&#xd0;" horiz-adv-x="705" 
d="M94 277h-48v116h48v287h213q96 0 162 -22t107.5 -65.5t60 -107t18.5 -145.5q0 -83 -18.5 -146t-60 -106.5t-107.5 -65.5t-162 -22h-213v277zM294 116q66 0 108 13.5t66 41t33 69.5t9 100t-9 100t-33 69.5t-66 41t-108 13.5h-61v-171h113v-116h-113v-161h61z" />
    <glyph glyph-name="Ntilde" unicode="&#xd1;" horiz-adv-x="736" 
d="M518 211v469h139v-680h-147l-289 469h-3v-469h-139v680h147l289 -469h3zM189 831q16 28 44.5 47t61.5 19q24 0 43 -7t36 -15.5t33.5 -15.5t36.5 -7t37.5 9.5t29.5 24.5l27 -68q-17 -32 -46.5 -49.5t-58.5 -17.5q-22 0 -42 7t-38 15.5t-35.5 15.5t-34.5 7q-22 0 -37.5 -9
t-29.5 -26z" />
    <glyph glyph-name="Ograve" unicode="&#xd2;" horiz-adv-x="749" 
d="M192 340q0 -50 9.5 -93.5t31.5 -75t56.5 -49.5t85.5 -18q50 0 85 18t56.5 49.5t31 75t9.5 93.5t-9.5 93.5t-31 75t-56.5 49.5t-85 18q-51 0 -85.5 -18t-56.5 -49.5t-31.5 -75t-9.5 -93.5zM702 340q0 -74 -19.5 -139t-59.5 -113t-102 -75.5t-146 -27.5q-85 0 -147 27.5
t-102 75.5t-59.5 113t-19.5 139t19.5 139t59.5 113t102 75.5t147 27.5q84 0 146 -27.5t102 -75.5t59.5 -113t19.5 -139zM248 896h152l59 -136v-10h-128l-83 137v9z" />
    <glyph glyph-name="Oacute" unicode="&#xd3;" horiz-adv-x="749" 
d="M192 340q0 -50 9.5 -93.5t31.5 -75t56.5 -49.5t85.5 -18q50 0 85 18t56.5 49.5t31 75t9.5 93.5t-9.5 93.5t-31 75t-56.5 49.5t-85 18q-51 0 -85.5 -18t-56.5 -49.5t-31.5 -75t-9.5 -93.5zM702 340q0 -74 -19.5 -139t-59.5 -113t-102 -75.5t-146 -27.5q-85 0 -147 27.5
t-102 75.5t-59.5 113t-19.5 139t19.5 139t59.5 113t102 75.5t147 27.5q84 0 146 -27.5t102 -75.5t59.5 -113t19.5 -139zM519 887l-83 -137h-128v10l59 136h152v-9z" />
    <glyph glyph-name="Ocircumflex" unicode="&#xd4;" horiz-adv-x="749" 
d="M192 340q0 -50 9.5 -93.5t31.5 -75t56.5 -49.5t85.5 -18q50 0 85 18t56.5 49.5t31 75t9.5 93.5t-9.5 93.5t-31 75t-56.5 49.5t-85 18q-51 0 -85.5 -18t-56.5 -49.5t-31.5 -75t-9.5 -93.5zM702 340q0 -74 -19.5 -139t-59.5 -113t-102 -75.5t-146 -27.5q-85 0 -147 27.5
t-102 75.5t-59.5 113t-19.5 139t19.5 139t59.5 113t102 75.5t147 27.5q84 0 146 -27.5t102 -75.5t59.5 -113t19.5 -139zM556 760v-10h-112l-63 79l-62 -79h-112v10l111 136h127z" />
    <glyph glyph-name="Otilde" unicode="&#xd5;" horiz-adv-x="749" 
d="M192 340q0 -50 9.5 -93.5t31.5 -75t56.5 -49.5t85.5 -18q50 0 85 18t56.5 49.5t31 75t9.5 93.5t-9.5 93.5t-31 75t-56.5 49.5t-85 18q-51 0 -85.5 -18t-56.5 -49.5t-31.5 -75t-9.5 -93.5zM702 340q0 -74 -19.5 -139t-59.5 -113t-102 -75.5t-146 -27.5q-85 0 -147 27.5
t-102 75.5t-59.5 113t-19.5 139t19.5 139t59.5 113t102 75.5t147 27.5q84 0 146 -27.5t102 -75.5t59.5 -113t19.5 -139zM203 831q16 28 44.5 47t61.5 19q24 0 43 -7t36 -15.5t33.5 -15.5t36.5 -7t37.5 9.5t29.5 24.5l27 -68q-17 -32 -46.5 -49.5t-58.5 -17.5q-22 0 -42 7
t-38 15.5t-35.5 15.5t-34.5 7q-22 0 -37.5 -9t-29.5 -26z" />
    <glyph glyph-name="Odieresis" unicode="&#xd6;" horiz-adv-x="749" 
d="M192 340q0 -50 9.5 -93.5t31.5 -75t56.5 -49.5t85.5 -18q50 0 85 18t56.5 49.5t31 75t9.5 93.5t-9.5 93.5t-31 75t-56.5 49.5t-85 18q-51 0 -85.5 -18t-56.5 -49.5t-31.5 -75t-9.5 -93.5zM702 340q0 -74 -19.5 -139t-59.5 -113t-102 -75.5t-146 -27.5q-85 0 -147 27.5
t-102 75.5t-59.5 113t-19.5 139t19.5 139t59.5 113t102 75.5t147 27.5q84 0 146 -27.5t102 -75.5t59.5 -113t19.5 -139zM168 819q0 32 21.5 53t56.5 21q36 0 57.5 -21t21.5 -53t-21.5 -53t-57.5 -21q-35 0 -56.5 21t-21.5 53zM429 819q0 32 21.5 53t56.5 21q36 0 57.5 -21
t21.5 -53t-21.5 -53t-57.5 -21q-35 0 -56.5 21t-21.5 53z" />
    <glyph glyph-name="multiply" unicode="&#xd7;" 
d="M294 344l166 165l73 -73l-166 -165l166 -165l-73 -73l-166 165l-164 -165l-73 73l164 165l-164 165l73 73z" />
    <glyph glyph-name="Oslash" unicode="&#xd8;" horiz-adv-x="749" 
d="M95 19l40 59q-45 48 -66.5 115.5t-21.5 146.5q0 74 19.5 139t59.5 113t102 75.5t147 27.5q47 0 86 -8.5t72 -24.5l35 53l77 -52l-38 -55q48 -49 71.5 -118t23.5 -150q0 -74 -19.5 -139t-59.5 -113t-102 -75.5t-146 -27.5q-50 0 -91.5 10t-75.5 27l-35 -54zM557 340
q0 44 -7.5 82t-23.5 68l-247 -363q20 -11 43.5 -17t52.5 -6q50 0 85 18t56.5 49.5t31 75t9.5 93.5zM192 340q0 -41 5.5 -76.5t19.5 -64.5l244 358q-17 9 -38.5 14t-47.5 5q-51 0 -85.5 -18t-56.5 -49.5t-31.5 -75t-9.5 -93.5z" />
    <glyph glyph-name="Ugrave" unicode="&#xd9;" horiz-adv-x="706" 
d="M210 680v-401q0 -38 7.5 -70t24.5 -55t44.5 -36.5t66.5 -13.5t66 13.5t44.5 36.5t25 55t7.5 70v401h139v-401q0 -70 -16.5 -124.5t-51 -92t-87.5 -57.5t-127 -20t-127.5 20t-88 57.5t-50.5 92.5t-16 124v401h139zM215 896h152l59 -136v-10h-128l-83 137v9z" />
    <glyph glyph-name="Uacute" unicode="&#xda;" horiz-adv-x="706" 
d="M210 680v-401q0 -38 7.5 -70t24.5 -55t44.5 -36.5t66.5 -13.5t66 13.5t44.5 36.5t25 55t7.5 70v401h139v-401q0 -70 -16.5 -124.5t-51 -92t-87.5 -57.5t-127 -20t-127.5 20t-88 57.5t-50.5 92.5t-16 124v401h139zM499 887l-83 -137h-128v10l59 136h152v-9z" />
    <glyph glyph-name="Ucircumflex" unicode="&#xdb;" horiz-adv-x="706" 
d="M210 680v-401q0 -38 7.5 -70t24.5 -55t44.5 -36.5t66.5 -13.5t66 13.5t44.5 36.5t25 55t7.5 70v401h139v-401q0 -70 -16.5 -124.5t-51 -92t-87.5 -57.5t-127 -20t-127.5 20t-88 57.5t-50.5 92.5t-16 124v401h139zM527 760v-10h-112l-63 79l-62 -79h-112v10l111 136h127z
" />
    <glyph glyph-name="Udieresis" unicode="&#xdc;" horiz-adv-x="706" 
d="M210 680v-401q0 -38 7.5 -70t24.5 -55t44.5 -36.5t66.5 -13.5t66 13.5t44.5 36.5t25 55t7.5 70v401h139v-401q0 -70 -16.5 -124.5t-51 -92t-87.5 -57.5t-127 -20t-127.5 20t-88 57.5t-50.5 92.5t-16 124v401h139zM143 819q0 32 21.5 53t56.5 21q36 0 57.5 -21t21.5 -53
t-21.5 -53t-57.5 -21q-35 0 -56.5 21t-21.5 53zM404 819q0 32 21.5 53t56.5 21q36 0 57.5 -21t21.5 -53t-21.5 -53t-57.5 -21q-35 0 -56.5 21t-21.5 53z" />
    <glyph glyph-name="Yacute" unicode="&#xdd;" horiz-adv-x="604" 
d="M149 680l151 -280h2l151 280h152v-10l-234 -396v-274h-139v274l-235 396v10h152zM444 887l-83 -137h-128v10l59 136h152v-9z" />
    <glyph glyph-name="Thorn" unicode="&#xde;" horiz-adv-x="603" 
d="M79 0v680h139v-106h120q62 0 105.5 -17t71 -47t40 -71t12.5 -90t-13 -90.5t-40.5 -71.5t-71 -47t-104.5 -17h-120v-123h-139zM218 239h110q51 0 72.5 31t21.5 79t-21.5 78.5t-72.5 30.5h-110v-219z" />
    <glyph glyph-name="germandbls" unicode="&#xdf;" horiz-adv-x="628" 
d="M63 457q0 62 18 108.5t51 77.5t79 46.5t103 15.5q48 0 89.5 -12.5t71.5 -37t47 -60.5t17 -82q0 -30 -6.5 -52.5t-17 -39t-25 -28t-30.5 -18.5v-2q25 -9 48.5 -24t42 -36.5t29.5 -51t11 -66.5q0 -54 -17 -93.5t-50 -65.5t-82 -38.5t-113 -12.5q-17 0 -31.5 1t-23.5 3v110
q13 -2 27.5 -2.5t27.5 -0.5q64 0 94 26.5t30 82.5q0 52 -33 77.5t-100 25.5h-27v103h26q38 0 60 23.5t22 69.5q0 42 -26 66t-74 24q-46 0 -74.5 -30.5t-28.5 -103.5v-460h-135v457z" />
    <glyph glyph-name="agrave" unicode="&#xe0;" horiz-adv-x="543" 
d="M467 105q0 -11 2.5 -14.5t13.5 -3.5h35v-92q-16 -3 -32 -5t-38 -2q-39 0 -61 14.5t-35 42.5h-2q-12 -10 -29.5 -20.5t-38 -19.5t-43 -14.5t-44.5 -5.5q-81 0 -122 43t-41 109q0 40 13.5 70t42 49.5t73.5 29t109 9.5h65v22q0 22 -8.5 36t-21.5 21t-27 9.5t-25 2.5
q-40 0 -82.5 -9.5t-77.5 -25.5l-32 103q38 17 90 30t109 13q105 0 156 -50.5t51 -144.5v-197zM284 208q-67 0 -95 -16t-28 -43q0 -58 64 -58q26 0 57.5 9t52.5 24v84h-51zM139 713h142l79 -136v-10h-118l-103 137v9z" />
    <glyph glyph-name="aacute" unicode="&#xe1;" horiz-adv-x="543" 
d="M467 105q0 -11 2.5 -14.5t13.5 -3.5h35v-92q-16 -3 -32 -5t-38 -2q-39 0 -61 14.5t-35 42.5h-2q-12 -10 -29.5 -20.5t-38 -19.5t-43 -14.5t-44.5 -5.5q-81 0 -122 43t-41 109q0 40 13.5 70t42 49.5t73.5 29t109 9.5h65v22q0 22 -8.5 36t-21.5 21t-27 9.5t-25 2.5
q-40 0 -82.5 -9.5t-77.5 -25.5l-32 103q38 17 90 30t109 13q105 0 156 -50.5t51 -144.5v-197zM284 208q-67 0 -95 -16t-28 -43q0 -58 64 -58q26 0 57.5 9t52.5 24v84h-51zM434 704l-103 -137h-118v10l79 136h142v-9z" />
    <glyph glyph-name="acircumflex" unicode="&#xe2;" horiz-adv-x="543" 
d="M467 105q0 -11 2.5 -14.5t13.5 -3.5h35v-92q-16 -3 -32 -5t-38 -2q-39 0 -61 14.5t-35 42.5h-2q-12 -10 -29.5 -20.5t-38 -19.5t-43 -14.5t-44.5 -5.5q-81 0 -122 43t-41 109q0 40 13.5 70t42 49.5t73.5 29t109 9.5h65v22q0 22 -8.5 36t-21.5 21t-27 9.5t-25 2.5
q-40 0 -82.5 -9.5t-77.5 -25.5l-32 103q38 17 90 30t109 13q105 0 156 -50.5t51 -144.5v-197zM284 208q-67 0 -95 -16t-28 -43q0 -58 64 -58q26 0 57.5 9t52.5 24v84h-51zM455 577v-10h-112l-53 69l-52 -69h-112v10l91 136h147z" />
    <glyph glyph-name="atilde" unicode="&#xe3;" horiz-adv-x="543" 
d="M467 105q0 -11 2.5 -14.5t13.5 -3.5h35v-92q-16 -3 -32 -5t-38 -2q-39 0 -61 14.5t-35 42.5h-2q-12 -10 -29.5 -20.5t-38 -19.5t-43 -14.5t-44.5 -5.5q-81 0 -122 43t-41 109q0 40 13.5 70t42 49.5t73.5 29t109 9.5h65v22q0 22 -8.5 36t-21.5 21t-27 9.5t-25 2.5
q-40 0 -82.5 -9.5t-77.5 -25.5l-32 103q38 17 90 30t109 13q105 0 156 -50.5t51 -144.5v-197zM284 208q-67 0 -95 -16t-28 -43q0 -58 64 -58q26 0 57.5 9t52.5 24v84h-51zM115 647q16 28 44.5 47t61.5 19q24 0 43 -7t36 -15.5t33.5 -15.5t36.5 -7t37.5 9.5t29.5 24.5l27 -68
q-17 -32 -46.5 -49.5t-58.5 -17.5q-22 0 -42 7t-38 15.5t-35.5 15.5t-34.5 7q-22 0 -37.5 -9t-29.5 -26z" />
    <glyph glyph-name="adieresis" unicode="&#xe4;" horiz-adv-x="543" 
d="M467 105q0 -11 2.5 -14.5t13.5 -3.5h35v-92q-16 -3 -32 -5t-38 -2q-39 0 -61 14.5t-35 42.5h-2q-12 -10 -29.5 -20.5t-38 -19.5t-43 -14.5t-44.5 -5.5q-81 0 -122 43t-41 109q0 40 13.5 70t42 49.5t73.5 29t109 9.5h65v22q0 22 -8.5 36t-21.5 21t-27 9.5t-25 2.5
q-40 0 -82.5 -9.5t-77.5 -25.5l-32 103q38 17 90 30t109 13q105 0 156 -50.5t51 -144.5v-197zM284 208q-67 0 -95 -16t-28 -43q0 -58 64 -58q26 0 57.5 9t52.5 24v84h-51zM101 640q0 32 21.5 53t56.5 21q36 0 57.5 -21t21.5 -53t-21.5 -53t-57.5 -21q-35 0 -56.5 21
t-21.5 53zM321 640q0 32 21.5 53t56.5 21q36 0 57.5 -21t21.5 -53t-21.5 -53t-57.5 -21q-35 0 -56.5 21t-21.5 53z" />
    <glyph glyph-name="aring" unicode="&#xe5;" horiz-adv-x="543" 
d="M467 105q0 -11 2.5 -14.5t13.5 -3.5h35v-92q-16 -3 -32 -5t-38 -2q-39 0 -61 14.5t-35 42.5h-2q-12 -10 -29.5 -20.5t-38 -19.5t-43 -14.5t-44.5 -5.5q-81 0 -122 43t-41 109q0 40 13.5 70t42 49.5t73.5 29t109 9.5h65v22q0 22 -8.5 36t-21.5 21t-27 9.5t-25 2.5
q-40 0 -82.5 -9.5t-77.5 -25.5l-32 103q38 17 90 30t109 13q105 0 156 -50.5t51 -144.5v-197zM284 208q-67 0 -95 -16t-28 -43q0 -58 64 -58q26 0 57.5 9t52.5 24v84h-51zM249 643q0 -19 11.5 -29t30.5 -10t30 10t11 29q0 18 -11 28.5t-30 10.5t-30.5 -10.5t-11.5 -28.5z
M169 643q0 52 34 82t88 30t87.5 -30t33.5 -82q0 -53 -33.5 -83t-87.5 -30t-88 30t-34 83z" />
    <glyph glyph-name="ae" unicode="&#xe6;" horiz-adv-x="831" 
d="M474 202q5 -52 34 -80.5t84 -28.5q42 0 78 8.5t71 21.5l31 -97q-36 -17 -84 -29t-106 -12q-66 0 -109 24t-74 62q-15 -16 -33 -31.5t-41 -27.5t-53.5 -19.5t-70.5 -7.5t-71.5 11.5t-53 31.5t-33 48t-11.5 61q0 83 58 119.5t158 36.5h90v24q0 26 -10 40t-24.5 20.5
t-30.5 7.5t-27 1q-40 0 -79 -9.5t-74 -25.5l-32 103q38 17 86.5 30t105.5 13q54 0 95 -17t68 -48q27 28 67.5 46.5t91.5 18.5q58 0 100 -16.5t68.5 -45t39 -66.5t12.5 -80q0 -23 -2.5 -48.5t-4.5 -38.5h-314zM671 286q1 5 1 15q0 20 -5 38t-16 31.5t-30 21t-47 7.5
q-26 0 -44.5 -9.5t-31 -25.5t-19 -36t-7.5 -42h199zM252 206q-50 0 -72 -15.5t-22 -44.5q0 -57 63 -57q22 0 43.5 8.5t38.5 23.5t27 36.5t10 48.5h-88z" />
    <glyph glyph-name="ccedilla" unicode="&#xe7;" horiz-adv-x="479" 
d="M204 -88l30 79q-47 8 -83.5 29.5t-61.5 54t-38 74.5t-13 92q0 57 17 104t49.5 81t80 52.5t109.5 18.5q44 0 85 -10t65 -19l-27 -103q-21 7 -49.5 14t-51.5 7q-27 0 -52.5 -8t-45 -25t-31 -45t-11.5 -67t11.5 -67t31 -45t45 -25t52.5 -8q23 0 51.5 7t49.5 14l27 -103
q-22 -8 -57.5 -17t-75.5 -11l-13 -31q32 -5 50.5 -23.5t18.5 -49.5q0 -44 -31 -69.5t-87 -25.5q-23 0 -42 3.5t-33 8.5l14 63q11 -4 22.5 -6t20.5 -2q17 0 26 6t9 19q0 19 -19.5 23t-38.5 4z" />
    <glyph glyph-name="egrave" unicode="&#xe8;" horiz-adv-x="539" 
d="M174 202q2 -26 11 -46t24.5 -34t37 -21.5t48.5 -7.5q42 0 80.5 8.5t73.5 21.5l31 -97q-36 -17 -86.5 -29t-108.5 -12q-63 0 -109.5 20t-77 55t-46 82t-15.5 100q0 51 15.5 97.5t46 81.5t75.5 55.5t104 20.5q58 0 100.5 -16.5t70.5 -45t41 -66.5t13 -80q0 -23 -2.5 -48.5
t-4.5 -38.5h-322zM379 286q1 4 1 7.5v7.5q0 20 -5 38t-17 31.5t-31.5 21t-47.5 7.5q-26 0 -45 -9.5t-32 -25.5t-20 -36t-8 -42h205zM140 713h142l79 -136v-10h-118l-103 137v9z" />
    <glyph glyph-name="eacute" unicode="&#xe9;" horiz-adv-x="539" 
d="M174 202q2 -26 11 -46t24.5 -34t37 -21.5t48.5 -7.5q42 0 80.5 8.5t73.5 21.5l31 -97q-36 -17 -86.5 -29t-108.5 -12q-63 0 -109.5 20t-77 55t-46 82t-15.5 100q0 51 15.5 97.5t46 81.5t75.5 55.5t104 20.5q58 0 100.5 -16.5t70.5 -45t41 -66.5t13 -80q0 -23 -2.5 -48.5
t-4.5 -38.5h-322zM379 286q1 4 1 7.5v7.5q0 20 -5 38t-17 31.5t-31.5 21t-47.5 7.5q-26 0 -45 -9.5t-32 -25.5t-20 -36t-8 -42h205zM443 704l-103 -137h-118v10l79 136h142v-9z" />
    <glyph glyph-name="ecircumflex" unicode="&#xea;" horiz-adv-x="539" 
d="M174 202q2 -26 11 -46t24.5 -34t37 -21.5t48.5 -7.5q42 0 80.5 8.5t73.5 21.5l31 -97q-36 -17 -86.5 -29t-108.5 -12q-63 0 -109.5 20t-77 55t-46 82t-15.5 100q0 51 15.5 97.5t46 81.5t75.5 55.5t104 20.5q58 0 100.5 -16.5t70.5 -45t41 -66.5t13 -80q0 -23 -2.5 -48.5
t-4.5 -38.5h-322zM379 286q1 4 1 7.5v7.5q0 20 -5 38t-17 31.5t-31.5 21t-47.5 7.5q-26 0 -45 -9.5t-32 -25.5t-20 -36t-8 -42h205zM449 577v-10h-112l-53 69l-52 -69h-112v10l91 136h147z" />
    <glyph glyph-name="edieresis" unicode="&#xeb;" horiz-adv-x="539" 
d="M174 202q2 -26 11 -46t24.5 -34t37 -21.5t48.5 -7.5q42 0 80.5 8.5t73.5 21.5l31 -97q-36 -17 -86.5 -29t-108.5 -12q-63 0 -109.5 20t-77 55t-46 82t-15.5 100q0 51 15.5 97.5t46 81.5t75.5 55.5t104 20.5q58 0 100.5 -16.5t70.5 -45t41 -66.5t13 -80q0 -23 -2.5 -48.5
t-4.5 -38.5h-322zM379 286q1 4 1 7.5v7.5q0 20 -5 38t-17 31.5t-31.5 21t-47.5 7.5q-26 0 -45 -9.5t-32 -25.5t-20 -36t-8 -42h205zM96 640q0 32 21.5 53t56.5 21q36 0 57.5 -21t21.5 -53t-21.5 -53t-57.5 -21q-35 0 -56.5 21t-21.5 53zM316 640q0 32 21.5 53t56.5 21
q36 0 57.5 -21t21.5 -53t-21.5 -53t-57.5 -21q-35 0 -56.5 21t-21.5 53z" />
    <glyph glyph-name="igrave" unicode="&#xec;" horiz-adv-x="261" 
d="M63 0v482h135v-482h-135zM-25 713h142l79 -136v-10h-118l-103 137v9z" />
    <glyph glyph-name="iacute" unicode="&#xed;" horiz-adv-x="261" 
d="M63 0v482h135v-482h-135zM289 704l-103 -137h-118v10l79 136h142v-9z" />
    <glyph glyph-name="icircumflex" unicode="&#xee;" horiz-adv-x="261" 
d="M63 0v482h135v-482h-135zM296 577v-10h-112l-53 69l-52 -69h-112v10l91 136h147z" />
    <glyph glyph-name="idieresis" unicode="&#xef;" horiz-adv-x="261" 
d="M63 0v482h135v-482h-135zM-57 640q0 32 21.5 53t56.5 21q36 0 57.5 -21t21.5 -53t-21.5 -53t-57.5 -21q-35 0 -56.5 21t-21.5 53zM163 640q0 32 21.5 53t56.5 21q36 0 57.5 -21t21.5 -53t-21.5 -53t-57.5 -21q-35 0 -56.5 21t-21.5 53z" />
    <glyph glyph-name="eth" unicode="&#xf0;" horiz-adv-x="593" 
d="M409 587q26 -33 52 -73.5t46.5 -85t33.5 -90t13 -87.5q0 -58 -16.5 -106.5t-48.5 -84t-81 -55.5t-113 -20q-63 0 -111.5 19.5t-80.5 53.5t-48.5 80t-16.5 98q0 54 16 99.5t45 77.5t69.5 50t90.5 18q17 0 33 -3t31 -7.5t28 -10.5t23 -13l1 2q-10 19 -30 50.5t-42 54.5
l-116 -32l-21 72l83 23q-16 17 -34 37.5t-35 35.5v10h133q8 -10 20 -23.5t20 -23.5l99 23l19 -72zM175 236q0 -32 7.5 -58t22.5 -44t37.5 -27.5t52.5 -9.5q62 0 92 37t30 102q0 64 -30 98.5t-92 34.5q-60 0 -90 -34.5t-30 -98.5z" />
    <glyph glyph-name="ntilde" unicode="&#xf1;" horiz-adv-x="581" 
d="M171 482l18 -47h2q10 9 25 20t34 20.5t43 15.5t52 6q85 0 131.5 -53t46.5 -140v-304h-135v290q0 47 -21 71.5t-65 24.5q-17 0 -32.5 -4t-28.5 -10.5t-24 -13.5t-19 -13v-345h-135v482h108zM119 647q16 28 44.5 47t61.5 19q24 0 43 -7t36 -15.5t33.5 -15.5t36.5 -7
t37.5 9.5t29.5 24.5l27 -68q-17 -32 -46.5 -49.5t-58.5 -17.5q-22 0 -42 7t-38 15.5t-35.5 15.5t-34.5 7q-22 0 -37.5 -9t-29.5 -26z" />
    <glyph glyph-name="ograve" unicode="&#xf2;" horiz-adv-x="583" 
d="M175 241q0 -36 8.5 -63.5t23.5 -45.5t36.5 -27t47.5 -9q27 0 48.5 9t36.5 27t23.5 45.5t8.5 63.5t-8.5 63.5t-23.5 45.5t-36.5 27t-48.5 9q-26 0 -47.5 -9t-36.5 -27t-23.5 -45.5t-8.5 -63.5zM546 241q0 -53 -16 -99.5t-48.5 -81t-80 -55t-110.5 -20.5q-62 0 -109.5 20.5
t-79.5 55t-48.5 81t-16.5 99.5q0 52 16.5 99t48.5 81.5t79.5 55t109.5 20.5q63 0 110.5 -20.5t80 -55t48.5 -81.5t16 -99zM134 713h142l79 -136v-10h-118l-103 137v9z" />
    <glyph glyph-name="oacute" unicode="&#xf3;" horiz-adv-x="583" 
d="M175 241q0 -36 8.5 -63.5t23.5 -45.5t36.5 -27t47.5 -9q27 0 48.5 9t36.5 27t23.5 45.5t8.5 63.5t-8.5 63.5t-23.5 45.5t-36.5 27t-48.5 9q-26 0 -47.5 -9t-36.5 -27t-23.5 -45.5t-8.5 -63.5zM546 241q0 -53 -16 -99.5t-48.5 -81t-80 -55t-110.5 -20.5q-62 0 -109.5 20.5
t-79.5 55t-48.5 81t-16.5 99.5q0 52 16.5 99t48.5 81.5t79.5 55t109.5 20.5q63 0 110.5 -20.5t80 -55t48.5 -81.5t16 -99zM452 704l-103 -137h-118v10l79 136h142v-9z" />
    <glyph glyph-name="ocircumflex" unicode="&#xf4;" horiz-adv-x="583" 
d="M175 241q0 -36 8.5 -63.5t23.5 -45.5t36.5 -27t47.5 -9q27 0 48.5 9t36.5 27t23.5 45.5t8.5 63.5t-8.5 63.5t-23.5 45.5t-36.5 27t-48.5 9q-26 0 -47.5 -9t-36.5 -27t-23.5 -45.5t-8.5 -63.5zM546 241q0 -53 -16 -99.5t-48.5 -81t-80 -55t-110.5 -20.5q-62 0 -109.5 20.5
t-79.5 55t-48.5 81t-16.5 99.5q0 52 16.5 99t48.5 81.5t79.5 55t109.5 20.5q63 0 110.5 -20.5t80 -55t48.5 -81.5t16 -99zM456 577v-10h-112l-53 69l-52 -69h-112v10l91 136h147z" />
    <glyph glyph-name="otilde" unicode="&#xf5;" horiz-adv-x="583" 
d="M175 241q0 -36 8.5 -63.5t23.5 -45.5t36.5 -27t47.5 -9q27 0 48.5 9t36.5 27t23.5 45.5t8.5 63.5t-8.5 63.5t-23.5 45.5t-36.5 27t-48.5 9q-26 0 -47.5 -9t-36.5 -27t-23.5 -45.5t-8.5 -63.5zM546 241q0 -53 -16 -99.5t-48.5 -81t-80 -55t-110.5 -20.5q-62 0 -109.5 20.5
t-79.5 55t-48.5 81t-16.5 99.5q0 52 16.5 99t48.5 81.5t79.5 55t109.5 20.5q63 0 110.5 -20.5t80 -55t48.5 -81.5t16 -99zM117 647q16 28 44.5 47t61.5 19q24 0 43 -7t36 -15.5t33.5 -15.5t36.5 -7t37.5 9.5t29.5 24.5l27 -68q-17 -32 -46.5 -49.5t-58.5 -17.5q-22 0 -42 7
t-38 15.5t-35.5 15.5t-34.5 7q-22 0 -37.5 -9t-29.5 -26z" />
    <glyph glyph-name="odieresis" unicode="&#xf6;" horiz-adv-x="583" 
d="M175 241q0 -36 8.5 -63.5t23.5 -45.5t36.5 -27t47.5 -9q27 0 48.5 9t36.5 27t23.5 45.5t8.5 63.5t-8.5 63.5t-23.5 45.5t-36.5 27t-48.5 9q-26 0 -47.5 -9t-36.5 -27t-23.5 -45.5t-8.5 -63.5zM546 241q0 -53 -16 -99.5t-48.5 -81t-80 -55t-110.5 -20.5q-62 0 -109.5 20.5
t-79.5 55t-48.5 81t-16.5 99.5q0 52 16.5 99t48.5 81.5t79.5 55t109.5 20.5q63 0 110.5 -20.5t80 -55t48.5 -81.5t16 -99zM104 640q0 32 21.5 53t56.5 21q36 0 57.5 -21t21.5 -53t-21.5 -53t-57.5 -21q-35 0 -56.5 21t-21.5 53zM324 640q0 32 21.5 53t56.5 21q36 0 57.5 -21
t21.5 -53t-21.5 -53t-57.5 -21q-35 0 -56.5 21t-21.5 53z" />
    <glyph glyph-name="divide" unicode="&#xf7;" 
d="M550 323v-103h-510v103h510zM210 71q0 38 23 62t62 24t62 -24t23 -62t-23 -62t-62 -24t-62 24t-23 62zM210 477q0 38 23 62t62 24t62 -24t23 -62t-23 -62t-62 -24t-62 24t-23 62z" />
    <glyph glyph-name="oslash" unicode="&#xf8;" horiz-adv-x="583" 
d="M58 23l36 45q-29 35 -43 79t-14 94q0 52 16.5 99t48.5 81.5t79.5 55t109.5 20.5q37 0 69 -7t58 -21l35 44l69 -54l-35 -44q29 -35 44 -79t15 -95q0 -53 -16 -99.5t-48.5 -81t-80 -55t-110.5 -20.5q-38 0 -70 7.5t-59 21.5l-37 -48zM415 246q0 20 -2.5 38t-7.5 32
l-176 -217q25 -11 58 -11q29 0 53 10t40.5 29.5t25.5 49t9 69.5zM168 236q0 -20 2 -37t7 -31l174 215q-12 5 -26 8t-30 3q-29 0 -52.5 -10t-40 -29.5t-25.5 -49t-9 -69.5z" />
    <glyph glyph-name="ugrave" unicode="&#xf9;" horiz-adv-x="575" 
d="M193 482v-290q0 -47 19 -71.5t63 -24.5q17 0 32 4t28 10.5t23.5 13.5t18.5 13v345h135v-482h-109l-18 47h-2q-10 -9 -24 -20t-33 -20.5t-42 -15.5t-51 -6q-86 0 -130.5 53t-44.5 140v304h135zM128 713h142l79 -136v-10h-118l-103 137v9z" />
    <glyph glyph-name="uacute" unicode="&#xfa;" horiz-adv-x="575" 
d="M193 482v-290q0 -47 19 -71.5t63 -24.5q17 0 32 4t28 10.5t23.5 13.5t18.5 13v345h135v-482h-109l-18 47h-2q-10 -9 -24 -20t-33 -20.5t-42 -15.5t-51 -6q-86 0 -130.5 53t-44.5 140v304h135zM450 704l-103 -137h-118v10l79 136h142v-9z" />
    <glyph glyph-name="ucircumflex" unicode="&#xfb;" horiz-adv-x="575" 
d="M193 482v-290q0 -47 19 -71.5t63 -24.5q17 0 32 4t28 10.5t23.5 13.5t18.5 13v345h135v-482h-109l-18 47h-2q-10 -9 -24 -20t-33 -20.5t-42 -15.5t-51 -6q-86 0 -130.5 53t-44.5 140v304h135zM451 577v-10h-112l-53 69l-52 -69h-112v10l91 136h147z" />
    <glyph glyph-name="udieresis" unicode="&#xfc;" horiz-adv-x="575" 
d="M193 482v-290q0 -47 19 -71.5t63 -24.5q17 0 32 4t28 10.5t23.5 13.5t18.5 13v345h135v-482h-109l-18 47h-2q-10 -9 -24 -20t-33 -20.5t-42 -15.5t-51 -6q-86 0 -130.5 53t-44.5 140v304h135zM102 640q0 32 21.5 53t56.5 21q36 0 57.5 -21t21.5 -53t-21.5 -53t-57.5 -21
q-35 0 -56.5 21t-21.5 53zM322 640q0 32 21.5 53t56.5 21q36 0 57.5 -21t21.5 -53t-21.5 -53t-57.5 -21q-35 0 -56.5 21t-21.5 53z" />
    <glyph glyph-name="yacute" unicode="&#xfd;" horiz-adv-x="530" 
d="M519 472l-207 -531q-32 -81 -81 -117.5t-112 -36.5q-24 0 -43 2.5t-36 6.5v107q17 -3 35.5 -4t26.5 -1q32 0 51.5 12t30.5 41l20 54l-194 467v10h140l116 -328h3l110 328h140v-10zM426 704l-103 -137h-118v10l79 136h142v-9z" />
    <glyph glyph-name="thorn" unicode="&#xfe;" horiz-adv-x="586" 
d="M198 125q19 -12 45 -20.5t52 -8.5q30 0 51.5 10.5t35.5 29.5t21 46t7 59t-6.5 59t-21 46t-36 29.5t-51.5 10.5q-26 0 -51.5 -8.5t-45.5 -20.5v-232zM63 700h135v-253h2q22 16 54.5 33t82.5 17q52 0 91.5 -20.5t66 -55t39.5 -81.5t13 -99q0 -53 -13.5 -99.5t-39.5 -81
t-65.5 -55t-91.5 -20.5q-51 0 -82.5 17t-54.5 33h-2v-233h-135v898z" />
    <glyph glyph-name="ydieresis" unicode="&#xff;" horiz-adv-x="530" 
d="M519 472l-207 -531q-32 -81 -81 -117.5t-112 -36.5q-24 0 -43 2.5t-36 6.5v107q17 -3 35.5 -4t26.5 -1q32 0 51.5 12t30.5 41l20 54l-194 467v10h140l116 -328h3l110 328h140v-10zM80 640q0 32 21.5 53t56.5 21q36 0 57.5 -21t21.5 -53t-21.5 -53t-57.5 -21
q-35 0 -56.5 21t-21.5 53zM300 640q0 32 21.5 53t56.5 21q36 0 57.5 -21t21.5 -53t-21.5 -53t-57.5 -21q-35 0 -56.5 21t-21.5 53z" />
    <glyph glyph-name="Amacron" unicode="&#x100;" horiz-adv-x="668" 
d="M665 0h-153l-45 140h-266l-46 -140h-152l250 680h162zM332 538l-93 -286h189l-93 286h-3zM189 759v103h290v-103h-290z" />
    <glyph glyph-name="amacron" unicode="&#x101;" horiz-adv-x="543" 
d="M467 105q0 -11 2.5 -14.5t13.5 -3.5h35v-92q-16 -3 -32 -5t-38 -2q-39 0 -61 14.5t-35 42.5h-2q-12 -10 -29.5 -20.5t-38 -19.5t-43 -14.5t-44.5 -5.5q-81 0 -122 43t-41 109q0 40 13.5 70t42 49.5t73.5 29t109 9.5h65v22q0 22 -8.5 36t-21.5 21t-27 9.5t-25 2.5
q-40 0 -82.5 -9.5t-77.5 -25.5l-32 103q38 17 90 30t109 13q105 0 156 -50.5t51 -144.5v-197zM284 208q-67 0 -95 -16t-28 -43q0 -58 64 -58q26 0 57.5 9t52.5 24v84h-51zM144 579v103h290v-103h-290z" />
    <glyph glyph-name="Abreve" unicode="&#x102;" horiz-adv-x="668" 
d="M665 0h-153l-45 140h-266l-46 -140h-152l250 680h162zM332 538l-93 -286h189l-93 286h-3zM333 858q42 0 74.5 7t58.5 27l42 -64q-26 -38 -68.5 -57.5t-106.5 -19.5q-63 0 -105 19.5t-68 57.5l42 64q26 -19 58.5 -26.5t72.5 -7.5z" />
    <glyph glyph-name="abreve" unicode="&#x103;" horiz-adv-x="543" 
d="M467 105q0 -11 2.5 -14.5t13.5 -3.5h35v-92q-16 -3 -32 -5t-38 -2q-39 0 -61 14.5t-35 42.5h-2q-12 -10 -29.5 -20.5t-38 -19.5t-43 -14.5t-44.5 -5.5q-81 0 -122 43t-41 109q0 40 13.5 70t42 49.5t73.5 29t109 9.5h65v22q0 22 -8.5 36t-21.5 21t-27 9.5t-25 2.5
q-40 0 -82.5 -9.5t-77.5 -25.5l-32 103q38 17 90 30t109 13q105 0 156 -50.5t51 -144.5v-197zM284 208q-67 0 -95 -16t-28 -43q0 -58 64 -58q26 0 57.5 9t52.5 24v84h-51zM289 674q42 0 74.5 7t58.5 27l42 -64q-26 -38 -68.5 -57.5t-106.5 -19.5q-63 0 -105 19.5t-68 57.5
l42 64q26 -19 58.5 -26.5t72.5 -7.5z" />
    <glyph glyph-name="Aogonek" unicode="&#x104;" horiz-adv-x="668" 
d="M559 -213q-28 0 -49.5 8t-36.5 21.5t-22.5 32.5t-7.5 41q0 38 20 65t49 45l-45 140h-266l-46 -140h-152l250 680h162l250 -680q-33 -6 -55.5 -16t-36.5 -22t-20 -24.5t-6 -23.5q0 -23 10.5 -31.5t30.5 -8.5q15 0 29.5 5.5t23.5 12.5l11 -80q-16 -10 -43 -17.5t-50 -7.5z
M332 538l-93 -286h189l-93 286h-3z" />
    <glyph glyph-name="aogonek" unicode="&#x105;" horiz-adv-x="543" 
d="M467 105q0 -11 2.5 -14.5t13.5 -3.5h35v-92q-12 -5 -28 -14t-30.5 -20t-24.5 -24.5t-10 -27.5q0 -20 10.5 -27.5t30.5 -7.5q15 0 29.5 5.5t23.5 12.5l11 -80q-16 -10 -43 -17.5t-50 -7.5q-57 0 -86.5 29t-29.5 74q0 35 22 63.5t48 46.5q-14 7 -23 18.5t-16 26.5h-2
q-12 -10 -29.5 -20.5t-38 -19.5t-43 -14.5t-44.5 -5.5q-81 0 -122 43t-41 109q0 40 13.5 70t42 49.5t73.5 29t109 9.5h65v22q0 22 -8.5 36t-21.5 21t-27 9.5t-25 2.5q-40 0 -82.5 -9.5t-77.5 -25.5l-32 103q38 17 90 30t109 13q105 0 156 -50.5t51 -144.5v-197zM284 208
q-67 0 -95 -16t-28 -43q0 -58 64 -58q26 0 57.5 9t52.5 24v84h-51z" />
    <glyph glyph-name="Cacute" unicode="&#x106;" horiz-adv-x="605" 
d="M46 340q0 79 21.5 144.5t63.5 112.5t104 72.5t142 25.5q47 0 96.5 -11t96.5 -33l-37 -110q-43 19 -78.5 27t-77.5 8q-45 0 -80 -17t-58.5 -48t-35.5 -74.5t-12 -96.5t12 -96.5t35.5 -74.5t58.5 -48t80 -17q42 0 77.5 8t78.5 27l37 -110q-47 -22 -96.5 -33t-96.5 -11
q-80 0 -142 25.5t-104 72.5t-63.5 112t-21.5 145zM507 887l-83 -137h-128v10l59 136h152v-9z" />
    <glyph glyph-name="cacute" unicode="&#x107;" horiz-adv-x="479" 
d="M38 241q0 58 17 105.5t49.5 81t80 51.5t109.5 18q44 0 85 -10t65 -19l-27 -103q-21 7 -48 14t-59 7q-27 0 -51.5 -8t-43 -25t-29 -45t-10.5 -67t10.5 -67t28.5 -45t42.5 -25t52.5 -8q32 0 59 7t48 14l27 -103q-24 -9 -65 -19t-85 -10q-62 0 -109.5 18t-80 51.5t-49.5 81
t-17 105.5zM448 704l-103 -137h-118v10l79 136h142v-9z" />
    <glyph glyph-name="Ccircumflex" unicode="&#x108;" horiz-adv-x="605" 
d="M46 340q0 79 21.5 144.5t63.5 112.5t104 72.5t142 25.5q47 0 96.5 -11t96.5 -33l-37 -110q-43 19 -78.5 27t-77.5 8q-45 0 -80 -17t-58.5 -48t-35.5 -74.5t-12 -96.5t12 -96.5t35.5 -74.5t58.5 -48t80 -17q42 0 77.5 8t78.5 27l37 -110q-47 -22 -96.5 -33t-96.5 -11
q-80 0 -142 25.5t-104 72.5t-63.5 112t-21.5 145zM545 760v-10h-112l-63 79l-62 -79h-112v10l111 136h127z" />
    <glyph glyph-name="ccircumflex" unicode="&#x109;" horiz-adv-x="479" 
d="M38 241q0 58 17 105.5t49.5 81t80 51.5t109.5 18q44 0 85 -10t65 -19l-27 -103q-21 7 -48 14t-59 7q-27 0 -51.5 -8t-43 -25t-29 -45t-10.5 -67t10.5 -67t28.5 -45t42.5 -25t52.5 -8q32 0 59 7t48 14l27 -103q-24 -9 -65 -19t-85 -10q-62 0 -109.5 18t-80 51.5t-49.5 81
t-17 105.5zM443 577v-10h-112l-53 69l-52 -69h-112v10l91 136h147z" />
    <glyph glyph-name="Cdotaccent" unicode="&#x10a;" horiz-adv-x="605" 
d="M46 340q0 79 21.5 144.5t63.5 112.5t104 72.5t142 25.5q47 0 96.5 -11t96.5 -33l-37 -110q-43 19 -78.5 27t-77.5 8q-45 0 -80 -17t-58.5 -48t-35.5 -74.5t-12 -96.5t12 -96.5t35.5 -74.5t58.5 -48t80 -17q42 0 77.5 8t78.5 27l37 -110q-47 -22 -96.5 -33t-96.5 -11
q-80 0 -142 25.5t-104 72.5t-63.5 112t-21.5 145zM295 819q0 32 21.5 53t56.5 21q36 0 57.5 -21t21.5 -53t-21.5 -53t-57.5 -21q-35 0 -56.5 21t-21.5 53z" />
    <glyph glyph-name="cdotaccent" unicode="&#x10b;" horiz-adv-x="479" 
d="M38 241q0 58 17 105.5t49.5 81t80 51.5t109.5 18q44 0 85 -10t65 -19l-27 -103q-21 7 -48 14t-59 7q-27 0 -51.5 -8t-43 -25t-29 -45t-10.5 -67t10.5 -67t28.5 -45t42.5 -25t52.5 -8q32 0 59 7t48 14l27 -103q-24 -9 -65 -19t-85 -10q-62 0 -109.5 18t-80 51.5t-49.5 81
t-17 105.5zM200 640q0 32 21.5 53t56.5 21q36 0 57.5 -21t21.5 -53t-21.5 -53t-57.5 -21q-35 0 -56.5 21t-21.5 53z" />
    <glyph glyph-name="Ccaron" unicode="&#x10c;" horiz-adv-x="605" 
d="M46 340q0 79 21.5 144.5t63.5 112.5t104 72.5t142 25.5q47 0 96.5 -11t96.5 -33l-37 -110q-43 19 -78.5 27t-77.5 8q-45 0 -80 -17t-58.5 -48t-35.5 -74.5t-12 -96.5t12 -96.5t35.5 -74.5t58.5 -48t80 -17q42 0 77.5 8t78.5 27l37 -110q-47 -22 -96.5 -33t-96.5 -11
q-80 0 -142 25.5t-104 72.5t-63.5 112t-21.5 145zM194 886v10h112l63 -79l62 79h112v-10l-111 -136h-127z" />
    <glyph glyph-name="ccaron" unicode="&#x10d;" horiz-adv-x="479" 
d="M38 241q0 58 17 105.5t49.5 81t80 51.5t109.5 18q44 0 85 -10t65 -19l-27 -103q-21 7 -48 14t-59 7q-27 0 -51.5 -8t-43 -25t-29 -45t-10.5 -67t10.5 -67t28.5 -45t42.5 -25t52.5 -8q32 0 59 7t48 14l27 -103q-24 -9 -65 -19t-85 -10q-62 0 -109.5 18t-80 51.5t-49.5 81
t-17 105.5zM114 703v10h112l53 -69l52 69h112v-10l-91 -136h-147z" />
    <glyph glyph-name="Dcaron" unicode="&#x10e;" horiz-adv-x="690" 
d="M79 680h213q96 0 162 -22t107.5 -65.5t60 -107t18.5 -145.5q0 -83 -18.5 -146t-60 -106.5t-107.5 -65.5t-162 -22h-213v680zM279 116q66 0 108 13.5t66 41t33 69.5t9 100t-9 100t-33 69.5t-66 41t-108 13.5h-61v-448h61zM150 886v10h112l63 -79l62 79h112v-10l-111 -136
h-127z" />
    <glyph glyph-name="dcaron" unicode="&#x10f;" horiz-adv-x="587" 
d="M389 357q-20 12 -45.5 20.5t-51.5 8.5q-30 0 -51.5 -10.5t-36 -29.5t-21 -46t-6.5 -59t6.5 -59t21 -46t36 -29.5t51.5 -10.5q26 0 51.5 8.5t45.5 20.5v232zM524 700v-700h-100l-19 43h-2q-13 -9 -28.5 -19.5t-34.5 -19t-41 -14t-49 -5.5q-52 0 -91.5 20.5t-66 55t-40 81
t-13.5 99.5q0 52 13.5 99t40 81.5t66 55t91.5 20.5q50 0 82.5 -17t54.5 -33h2v253h135zM564 524l25 156h135v-10l-59 -156h-101v10z" />
    <glyph glyph-name="Dcroat" unicode="&#x110;" horiz-adv-x="705" 
d="M94 277h-48v116h48v287h213q96 0 162 -22t107.5 -65.5t60 -107t18.5 -145.5q0 -83 -18.5 -146t-60 -106.5t-107.5 -65.5t-162 -22h-213v277zM294 116q66 0 108 13.5t66 41t33 69.5t9 100t-9 100t-33 69.5t-66 41t-108 13.5h-61v-171h113v-116h-113v-161h61z" />
    <glyph glyph-name="dcroat" unicode="&#x111;" horiz-adv-x="587" 
d="M524 541v-541h-100l-19 43h-2q-13 -9 -28.5 -19.5t-34.5 -19t-41 -14t-49 -5.5q-52 0 -91.5 20.5t-66 55t-40 81t-13.5 99.5q0 52 13.5 99t40 81.5t66 55t91.5 20.5q50 0 82.5 -17t54.5 -33h2v94h-105v103h105v56h135v-56h50v-103h-50zM389 357q-20 12 -45.5 20.5
t-51.5 8.5q-30 0 -51.5 -10.5t-36 -29.5t-21 -46t-6.5 -59t6.5 -59t21 -46t36 -29.5t51.5 -10.5q26 0 51.5 8.5t45.5 20.5v232z" />
    <glyph glyph-name="Emacron" unicode="&#x112;" 
d="M535 680v-116h-317v-163h284v-116h-284v-169h320v-116h-459v680h456zM165 759v103h290v-103h-290z" />
    <glyph glyph-name="emacron" unicode="&#x113;" horiz-adv-x="539" 
d="M174 202q2 -26 11 -46t24.5 -34t37 -21.5t48.5 -7.5q42 0 80.5 8.5t73.5 21.5l31 -97q-36 -17 -86.5 -29t-108.5 -12q-63 0 -109.5 20t-77 55t-46 82t-15.5 100q0 51 15.5 97.5t46 81.5t75.5 55.5t104 20.5q58 0 100.5 -16.5t70.5 -45t41 -66.5t13 -80q0 -23 -2.5 -48.5
t-4.5 -38.5h-322zM379 286q1 4 1 7.5v7.5q0 20 -5 38t-17 31.5t-31.5 21t-47.5 7.5q-26 0 -45 -9.5t-32 -25.5t-20 -36t-8 -42h205zM139 579v103h290v-103h-290z" />
    <glyph glyph-name="Ebreve" unicode="&#x114;" 
d="M535 680v-116h-317v-163h284v-116h-284v-169h320v-116h-459v680h456zM314 858q42 0 74.5 7t58.5 27l42 -64q-26 -38 -68.5 -57.5t-106.5 -19.5q-63 0 -105 19.5t-68 57.5l42 64q26 -19 58.5 -26.5t72.5 -7.5z" />
    <glyph glyph-name="ebreve" unicode="&#x115;" horiz-adv-x="539" 
d="M174 202q2 -26 11 -46t24.5 -34t37 -21.5t48.5 -7.5q42 0 80.5 8.5t73.5 21.5l31 -97q-36 -17 -86.5 -29t-108.5 -12q-63 0 -109.5 20t-77 55t-46 82t-15.5 100q0 51 15.5 97.5t46 81.5t75.5 55.5t104 20.5q58 0 100.5 -16.5t70.5 -45t41 -66.5t13 -80q0 -23 -2.5 -48.5
t-4.5 -38.5h-322zM379 286q1 4 1 7.5v7.5q0 20 -5 38t-17 31.5t-31.5 21t-47.5 7.5q-26 0 -45 -9.5t-32 -25.5t-20 -36t-8 -42h205zM288 674q42 0 74.5 7t58.5 27l42 -64q-26 -38 -68.5 -57.5t-106.5 -19.5q-63 0 -105 19.5t-68 57.5l42 64q26 -19 58.5 -26.5t72.5 -7.5z
" />
    <glyph glyph-name="Edotaccent" unicode="&#x116;" 
d="M535 680v-116h-317v-163h284v-116h-284v-169h320v-116h-459v680h456zM236 819q0 32 21.5 53t56.5 21q36 0 57.5 -21t21.5 -53t-21.5 -53t-57.5 -21q-35 0 -56.5 21t-21.5 53z" />
    <glyph glyph-name="edotaccent" unicode="&#x117;" horiz-adv-x="539" 
d="M174 202q2 -26 11 -46t24.5 -34t37 -21.5t48.5 -7.5q42 0 80.5 8.5t73.5 21.5l31 -97q-36 -17 -86.5 -29t-108.5 -12q-63 0 -109.5 20t-77 55t-46 82t-15.5 100q0 51 15.5 97.5t46 81.5t75.5 55.5t104 20.5q58 0 100.5 -16.5t70.5 -45t41 -66.5t13 -80q0 -23 -2.5 -48.5
t-4.5 -38.5h-322zM379 286q1 4 1 7.5v7.5q0 20 -5 38t-17 31.5t-31.5 21t-47.5 7.5q-26 0 -45 -9.5t-32 -25.5t-20 -36t-8 -42h205zM206 640q0 32 21.5 53t56.5 21q36 0 57.5 -21t21.5 -53t-21.5 -53t-57.5 -21q-35 0 -56.5 21t-21.5 53z" />
    <glyph glyph-name="Eogonek" unicode="&#x118;" 
d="M469 -213q-28 0 -49.5 8t-36.5 21.5t-22.5 32.5t-7.5 41q0 19 7 35t18 29.5t25 25t28 20.5h-352v680h456v-116h-317v-163h284v-116h-284v-169h320v-116q-15 -6 -30 -16t-26 -22t-18 -24.5t-7 -23.5q0 -23 10.5 -31.5t30.5 -8.5q15 0 29.5 5.5t23.5 12.5l11 -80
q-16 -10 -43 -17.5t-50 -7.5z" />
    <glyph glyph-name="eogonek" unicode="&#x119;" horiz-adv-x="539" 
d="M312 -14q-6 -1 -13 -1h-14q-63 0 -109.5 20t-77 55t-46 82t-15.5 100q0 51 15.5 97.5t46 81.5t75.5 55.5t104 20.5q58 0 100.5 -16.5t70.5 -45t41 -66.5t13 -80q0 -23 -2.5 -48.5t-4.5 -38.5h-322q2 -26 11 -46t24.5 -34t37 -21.5t48.5 -7.5q42 0 80.5 8.5t73.5 21.5
l31 -97q-8 -4 -15.5 -8t-15.5 -8q-18 -9 -33 -18.5t-26 -20.5t-17 -24t-6 -28q0 -45 41 -45q15 0 29.5 5.5t23.5 12.5l11 -80q-16 -10 -43 -17.5t-50 -7.5q-28 0 -49.5 8t-36.5 21.5t-22.5 32.5t-7.5 41q0 29 14 52t35 42v2zM379 286q1 4 1 7.5v7.5q0 20 -5 38t-17 31.5
t-31.5 21t-47.5 7.5q-26 0 -45 -9.5t-32 -25.5t-20 -36t-8 -42h205z" />
    <glyph glyph-name="Ecaron" unicode="&#x11a;" 
d="M535 680v-116h-317v-163h284v-116h-284v-169h320v-116h-459v680h456zM142 886v10h112l63 -79l62 79h112v-10l-111 -136h-127z" />
    <glyph glyph-name="ecaron" unicode="&#x11b;" horiz-adv-x="539" 
d="M174 202q2 -26 11 -46t24.5 -34t37 -21.5t48.5 -7.5q42 0 80.5 8.5t73.5 21.5l31 -97q-36 -17 -86.5 -29t-108.5 -12q-63 0 -109.5 20t-77 55t-46 82t-15.5 100q0 51 15.5 97.5t46 81.5t75.5 55.5t104 20.5q58 0 100.5 -16.5t70.5 -45t41 -66.5t13 -80q0 -23 -2.5 -48.5
t-4.5 -38.5h-322zM379 286q1 4 1 7.5v7.5q0 20 -5 38t-17 31.5t-31.5 21t-47.5 7.5q-26 0 -45 -9.5t-32 -25.5t-20 -36t-8 -42h205zM120 703v10h112l53 -69l52 69h112v-10l-91 -136h-147z" />
    <glyph glyph-name="Gcircumflex" unicode="&#x11c;" horiz-adv-x="686" 
d="M628 365v-321q-47 -25 -117 -42t-142 -17q-81 0 -141.5 26t-101 73t-60.5 112.5t-20 143.5q0 72 20.5 136t62.5 113t106.5 77.5t153.5 28.5q69 0 130 -15.5t101 -33.5l-40 -108q-38 16 -87.5 27t-103.5 11q-53 0 -90.5 -17t-61.5 -48t-35 -74.5t-11 -96.5
q0 -54 10.5 -97.5t33 -74t57 -47.5t83.5 -17q32 0 61 4t53 14v127l-121 17v99h260zM543 760v-10h-112l-63 79l-62 -79h-112v10l111 136h127z" />
    <glyph glyph-name="gcircumflex" unicode="&#x11d;" horiz-adv-x="586" 
d="M388 356q-20 12 -45.5 21t-51.5 9q-30 0 -51.5 -10t-35.5 -28.5t-20.5 -45t-6.5 -58.5t6.5 -58t20.5 -44t35.5 -27.5t51.5 -9.5q26 0 51.5 8t45.5 19v224zM523 31q0 -61 -16.5 -106.5t-48.5 -76t-78.5 -46t-105.5 -15.5t-106.5 14t-82.5 33l39 99q30 -16 67.5 -25.5
t82.5 -9.5q59 0 86.5 24t27.5 84v36h-2q-22 -16 -54 -32t-83 -16q-52 0 -91.5 19.5t-65.5 53t-39.5 79t-13.5 98.5q0 52 13.5 98.5t39.5 80.5t65.5 54t91.5 20q27 0 48.5 -5.5t39.5 -14.5t33 -19.5t28 -19.5h2l18 44h105v-451zM467 577v-10h-112l-53 69l-52 -69h-112v10
l91 136h147z" />
    <glyph glyph-name="Gbreve" unicode="&#x11e;" horiz-adv-x="686" 
d="M628 365v-321q-47 -25 -117 -42t-142 -17q-81 0 -141.5 26t-101 73t-60.5 112.5t-20 143.5q0 72 20.5 136t62.5 113t106.5 77.5t153.5 28.5q69 0 130 -15.5t101 -33.5l-40 -108q-38 16 -87.5 27t-103.5 11q-53 0 -90.5 -17t-61.5 -48t-35 -74.5t-11 -96.5
q0 -54 10.5 -97.5t33 -74t57 -47.5t83.5 -17q32 0 61 4t53 14v127l-121 17v99h260zM370 858q42 0 74.5 7t58.5 27l42 -64q-26 -38 -68.5 -57.5t-106.5 -19.5q-63 0 -105 19.5t-68 57.5l42 64q26 -19 58.5 -26.5t72.5 -7.5z" />
    <glyph glyph-name="gbreve" unicode="&#x11f;" horiz-adv-x="586" 
d="M388 356q-20 12 -45.5 21t-51.5 9q-30 0 -51.5 -10t-35.5 -28.5t-20.5 -45t-6.5 -58.5t6.5 -58t20.5 -44t35.5 -27.5t51.5 -9.5q26 0 51.5 8t45.5 19v224zM523 31q0 -61 -16.5 -106.5t-48.5 -76t-78.5 -46t-105.5 -15.5t-106.5 14t-82.5 33l39 99q30 -16 67.5 -25.5
t82.5 -9.5q59 0 86.5 24t27.5 84v36h-2q-22 -16 -54 -32t-83 -16q-52 0 -91.5 19.5t-65.5 53t-39.5 79t-13.5 98.5q0 52 13.5 98.5t39.5 80.5t65.5 54t91.5 20q27 0 48.5 -5.5t39.5 -14.5t33 -19.5t28 -19.5h2l18 44h105v-451zM302 674q42 0 74.5 7t58.5 27l42 -64
q-26 -38 -68.5 -57.5t-106.5 -19.5q-63 0 -105 19.5t-68 57.5l42 64q26 -19 58.5 -26.5t72.5 -7.5z" />
    <glyph glyph-name="Gdotaccent" unicode="&#x120;" horiz-adv-x="686" 
d="M628 365v-321q-47 -25 -117 -42t-142 -17q-81 0 -141.5 26t-101 73t-60.5 112.5t-20 143.5q0 72 20.5 136t62.5 113t106.5 77.5t153.5 28.5q69 0 130 -15.5t101 -33.5l-40 -108q-38 16 -87.5 27t-103.5 11q-53 0 -90.5 -17t-61.5 -48t-35 -74.5t-11 -96.5
q0 -54 10.5 -97.5t33 -74t57 -47.5t83.5 -17q32 0 61 4t53 14v127l-121 17v99h260zM291 819q0 32 21.5 53t56.5 21q36 0 57.5 -21t21.5 -53t-21.5 -53t-57.5 -21q-35 0 -56.5 21t-21.5 53z" />
    <glyph glyph-name="gdotaccent" unicode="&#x121;" horiz-adv-x="586" 
d="M388 356q-20 12 -45.5 21t-51.5 9q-30 0 -51.5 -10t-35.5 -28.5t-20.5 -45t-6.5 -58.5t6.5 -58t20.5 -44t35.5 -27.5t51.5 -9.5q26 0 51.5 8t45.5 19v224zM523 31q0 -61 -16.5 -106.5t-48.5 -76t-78.5 -46t-105.5 -15.5t-106.5 14t-82.5 33l39 99q30 -16 67.5 -25.5
t82.5 -9.5q59 0 86.5 24t27.5 84v36h-2q-22 -16 -54 -32t-83 -16q-52 0 -91.5 19.5t-65.5 53t-39.5 79t-13.5 98.5q0 52 13.5 98.5t39.5 80.5t65.5 54t91.5 20q27 0 48.5 -5.5t39.5 -14.5t33 -19.5t28 -19.5h2l18 44h105v-451zM224 640q0 32 21.5 53t56.5 21q36 0 57.5 -21
t21.5 -53t-21.5 -53t-57.5 -21q-35 0 -56.5 21t-21.5 53z" />
    <glyph glyph-name="Gcommaaccent" unicode="&#x122;" horiz-adv-x="686" 
d="M628 365v-321q-47 -25 -117 -42t-142 -17q-81 0 -141.5 26t-101 73t-60.5 112.5t-20 143.5q0 72 20.5 136t62.5 113t106.5 77.5t153.5 28.5q69 0 130 -15.5t101 -33.5l-40 -108q-38 16 -87.5 27t-103.5 11q-53 0 -90.5 -17t-61.5 -48t-35 -74.5t-11 -96.5
q0 -54 10.5 -97.5t33 -74t57 -47.5t83.5 -17q32 0 61 4t53 14v127l-121 17v99h260zM279 -208l25 156h135v-10l-59 -156h-101v10z" />
    <glyph glyph-name="gcommaaccent" unicode="&#x123;" horiz-adv-x="586" 
d="M388 356q-20 12 -45.5 21t-51.5 9q-30 0 -51.5 -10t-35.5 -28.5t-20.5 -45t-6.5 -58.5t6.5 -58t20.5 -44t35.5 -27.5t51.5 -9.5q26 0 51.5 8t45.5 19v224zM523 31q0 -61 -16.5 -106.5t-48.5 -76t-78.5 -46t-105.5 -15.5t-106.5 14t-82.5 33l39 99q30 -16 67.5 -25.5
t82.5 -9.5q59 0 86.5 24t27.5 84v36h-2q-22 -16 -54 -32t-83 -16q-52 0 -91.5 19.5t-65.5 53t-39.5 79t-13.5 98.5q0 52 13.5 98.5t39.5 80.5t65.5 54t91.5 20q27 0 48.5 -5.5t39.5 -14.5t33 -19.5t28 -19.5h2l18 44h105v-451zM394 713l-25 -156h-135v10l59 156h101v-10z
" />
    <glyph glyph-name="Hcircumflex" unicode="&#x124;" horiz-adv-x="722" 
d="M504 285h-286v-285h-139v680h139v-279h286v279h139v-680h-139v285zM535 760v-10h-112l-63 79l-62 -79h-112v10l111 136h127z" />
    <glyph glyph-name="hcircumflex" unicode="&#x125;" horiz-adv-x="581" 
d="M388 0v290q0 46 -21 71t-65 25q-18 0 -34 -4.5t-29 -11t-23.5 -15t-17.5 -15.5v-340h-135v700h135v-258h2q10 9 25 18.5t33 17.5t40 13.5t46 5.5q86 0 132.5 -53.5t46.5 -140.5v-303h-135zM469 760v-10h-112l-63 79l-62 -79h-112v10l111 136h127z" />
    <glyph glyph-name="Hbar" unicode="&#x126;" horiz-adv-x="754" 
d="M520 285h-286v-285h-139v493h-50v106h50v81h139v-81h286v81h139v-81h50v-106h-50v-493h-139v285zM520 401v92h-286v-92h286z" />
    <glyph glyph-name="hbar" unicode="&#x127;" horiz-adv-x="581" 
d="M198 540v-98h2q10 9 25 18.5t33 17.5t40 13.5t46 5.5q86 0 132.5 -53.5t46.5 -140.5v-303h-135v290q0 46 -21 71t-65 25q-18 0 -34 -4.5t-29 -11t-23.5 -15t-17.5 -15.5v-340h-135v540h-50v103h50v57h135v-57h105v-103h-105z" />
    <glyph glyph-name="Itilde" unicode="&#x128;" horiz-adv-x="297" 
d="M218 0h-139v680h139v-680zM-24 831q16 28 44.5 47t61.5 19q24 0 43 -7t36 -15.5t33.5 -15.5t36.5 -7t37.5 9.5t29.5 24.5l27 -68q-17 -32 -46.5 -49.5t-58.5 -17.5q-22 0 -42 7t-38 15.5t-35.5 15.5t-34.5 7q-22 0 -37.5 -9t-29.5 -26z" />
    <glyph glyph-name="itilde" unicode="&#x129;" horiz-adv-x="261" 
d="M63 0v482h135v-482h-135zM-43 647q16 28 44.5 47t61.5 19q24 0 43 -7t36 -15.5t33.5 -15.5t36.5 -7t37.5 9.5t29.5 24.5l27 -68q-17 -32 -46.5 -49.5t-58.5 -17.5q-22 0 -42 7t-38 15.5t-35.5 15.5t-34.5 7q-22 0 -37.5 -9t-29.5 -26z" />
    <glyph glyph-name="Imacron" unicode="&#x12a;" horiz-adv-x="297" 
d="M218 0h-139v680h139v-680zM3 759v103h290v-103h-290z" />
    <glyph glyph-name="imacron" unicode="&#x12b;" horiz-adv-x="261" 
d="M63 0v482h135v-482h-135zM-13 579v103h290v-103h-290z" />
    <glyph glyph-name="Ibreve" unicode="&#x12c;" horiz-adv-x="297" 
d="M218 0h-139v680h139v-680zM150 858q42 0 74.5 7t58.5 27l42 -64q-26 -38 -68.5 -57.5t-106.5 -19.5q-63 0 -105 19.5t-68 57.5l42 64q26 -19 58.5 -26.5t72.5 -7.5z" />
    <glyph glyph-name="ibreve" unicode="&#x12d;" horiz-adv-x="261" 
d="M63 0v482h135v-482h-135zM131 674q42 0 74.5 7t58.5 27l42 -64q-26 -38 -68.5 -57.5t-106.5 -19.5q-63 0 -105 19.5t-68 57.5l42 64q26 -19 58.5 -26.5t72.5 -7.5z" />
    <glyph glyph-name="Iogonek" unicode="&#x12e;" horiz-adv-x="297" 
d="M126 -213q-28 0 -49.5 8t-36.5 21.5t-22.5 32.5t-7.5 41q0 38 20 65t49 45v680h139v-680q-28 -6 -47.5 -16t-32 -22t-18.5 -24.5t-6 -23.5q0 -23 10.5 -31.5t30.5 -8.5q15 0 29.5 5.5t23.5 12.5l11 -80q-16 -10 -43 -17.5t-50 -7.5z" />
    <glyph glyph-name="iogonek" unicode="&#x12f;" horiz-adv-x="261" 
d="M108 -213q-28 0 -49.5 8t-36.5 21.5t-22.5 32.5t-7.5 41q0 39 21 66t50 46v480h135v-482q-54 -12 -78 -38t-24 -48q0 -23 10.5 -31.5t30.5 -8.5q15 0 29.5 5.5t23.5 12.5l11 -80q-16 -10 -43 -17.5t-50 -7.5zM53 640q0 32 21.5 53t56.5 21q36 0 57.5 -21t21.5 -53
t-21.5 -53t-57.5 -21q-35 0 -56.5 21t-21.5 53z" />
    <glyph glyph-name="Idotaccent" unicode="&#x130;" horiz-adv-x="297" 
d="M218 0h-139v680h139v-680zM71 819q0 32 21.5 53t56.5 21q36 0 57.5 -21t21.5 -53t-21.5 -53t-57.5 -21q-35 0 -56.5 21t-21.5 53z" />
    <glyph glyph-name="dotlessi" unicode="&#x131;" horiz-adv-x="261" 
d="M63 0v482h135v-482h-135z" />
    <glyph glyph-name="IJ" unicode="&#x132;" horiz-adv-x="779" 
d="M218 0h-139v680h139v-680zM367 156q12 -11 23.5 -20t25 -16.5t29.5 -11.5t36 -4q24 0 40 9t26 24.5t14.5 35.5t4.5 43v464h139v-473q0 -111 -59.5 -166.5t-164.5 -55.5q-61 0 -104 22t-73 49z" />
    <glyph glyph-name="ij" unicode="&#x133;" horiz-adv-x="522" 
d="M63 0v482h135v-482h-135zM53 640q0 32 21.5 53t56.5 21q36 0 57.5 -21t21.5 -53t-21.5 -53t-57.5 -21q-35 0 -56.5 21t-21.5 53zM459 482v-513q0 -94 -43.5 -138t-129.5 -44q-16 0 -35 2t-35 5v109q13 -3 26 -4t27 -1q29 0 42 15t13 48v521h135zM314 640q0 32 21.5 53
t56.5 21q36 0 57.5 -21t21.5 -53t-21.5 -53t-57.5 -21q-35 0 -56.5 21t-21.5 53z" />
    <glyph glyph-name="Jcircumflex" unicode="&#x134;" horiz-adv-x="482" 
d="M70 156q12 -11 23.5 -20t25 -16.5t29.5 -11.5t36 -4q24 0 40 9t26 24.5t14.5 35.5t4.5 43v464h139v-473q0 -111 -59.5 -166.5t-164.5 -55.5q-61 0 -104 22t-73 49zM512 760v-10h-112l-63 79l-62 -79h-112v10l111 136h127z" />
    <glyph glyph-name="jcircumflex" unicode="&#x135;" horiz-adv-x="261" 
d="M198 482v-513q0 -94 -43.5 -138t-129.5 -44q-16 0 -35 2t-35 5v109q13 -3 26 -4t27 -1q29 0 42 15t13 48v521h135zM296 577v-10h-112l-53 69l-52 -69h-112v10l91 136h147z" />
    <glyph glyph-name="Kcommaaccent" unicode="&#x136;" horiz-adv-x="643" 
d="M218 304v-304h-139v680h139v-329h2l248 329h154v-10l-260 -337l273 -323v-10h-162l-253 304h-2zM230 -208l25 156h135v-10l-59 -156h-101v10z" />
    <glyph glyph-name="kcommaaccent" unicode="&#x137;" horiz-adv-x="538" 
d="M198 223v-223h-135v700h135v-435h2l169 217h147v-10l-183 -224l192 -238v-10h-153l-172 223h-2zM180 -208l25 156h135v-10l-59 -156h-101v10z" />
    <glyph glyph-name="kgreenlandic" unicode="&#x138;" horiz-adv-x="538" 
d="M197 211v-211h-133v482h133v-230h2l171 230h145v-7l-188 -237l197 -231v-7h-149l-176 211h-2z" />
    <glyph glyph-name="Lacute" unicode="&#x139;" horiz-adv-x="533" 
d="M218 680v-564h293v-116h-432v680h139zM296 887l-83 -137h-128v10l59 136h152v-9z" />
    <glyph glyph-name="lacute" unicode="&#x13a;" horiz-adv-x="290" 
d="M196 700v-592q0 -11 2.5 -14.5t13.5 -3.5h53v-92q-16 -3 -37 -5t-43 -2q-69 0 -96.5 34.5t-27.5 106.5v568h135zM276 887l-83 -137h-128v10l59 136h152v-9z" />
    <glyph glyph-name="Lcommaaccent" unicode="&#x13b;" horiz-adv-x="533" 
d="M218 680v-564h293v-116h-432v680h139zM209 -208l25 156h135v-10l-59 -156h-101v10z" />
    <glyph glyph-name="lcommaaccent" unicode="&#x13c;" horiz-adv-x="290" 
d="M196 700v-592q0 -11 2.5 -14.5t13.5 -3.5h53v-92q-16 -3 -37 -5t-43 -2q-69 0 -96.5 34.5t-27.5 106.5v568h135zM72 -208l25 156h135v-10l-59 -156h-101v10z" />
    <glyph glyph-name="Lcaron" unicode="&#x13d;" horiz-adv-x="534" 
d="M218 680v-564h293v-116h-432v680h139zM305 524l25 156h135v-10l-59 -156h-101v10z" />
    <glyph glyph-name="lcaron" unicode="&#x13e;" horiz-adv-x="285" 
d="M196 700v-592q0 -11 2.5 -14.5t13.5 -3.5h53v-92q-16 -3 -37 -5t-43 -2q-69 0 -96.5 34.5t-27.5 106.5v568h135zM238 524l25 156h135v-10l-59 -156h-101v10z" />
    <glyph glyph-name="Ldot" unicode="&#x13f;" horiz-adv-x="553" 
d="M218 680v-564h293v-116h-432v680h139zM328 361q0 38 23 62t62 24t62 -24t23 -62t-23 -62t-62 -24t-62 24t-23 62z" />
    <glyph glyph-name="ldot" unicode="&#x140;" horiz-adv-x="427" 
d="M196 700v-592q0 -11 2.5 -14.5t13.5 -3.5h53v-92q-16 -3 -37 -5t-43 -2q-69 0 -96.5 34.5t-27.5 106.5v568h135zM258 361q0 38 23 62t62 24t62 -24t23 -62t-23 -62t-62 -24t-62 24t-23 62z" />
    <glyph glyph-name="Lslash" unicode="&#x141;" horiz-adv-x="563" 
d="M248 680v-253l121 61h10v-119l-131 -66v-187h293v-116h-432v234l-56 -28h-10v119l66 33v322h139z" />
    <glyph glyph-name="lslash" unicode="&#x142;" horiz-adv-x="334" 
d="M227 700v-274l79 40h10v-119l-89 -45v-194q0 -11 2.5 -14.5t13.5 -3.5h53v-92q-16 -3 -37 -5t-43 -2q-69 0 -96.5 34.5t-27.5 106.5v102l-60 -30h-10v119l70 35v342h135z" />
    <glyph glyph-name="Nacute" unicode="&#x143;" horiz-adv-x="736" 
d="M518 211v469h139v-680h-147l-289 469h-3v-469h-139v680h147l289 -469h3zM510 887l-83 -137h-128v10l59 136h152v-9z" />
    <glyph glyph-name="nacute" unicode="&#x144;" horiz-adv-x="581" 
d="M171 482l18 -47h2q10 9 25 20t34 20.5t43 15.5t52 6q85 0 131.5 -53t46.5 -140v-304h-135v290q0 47 -21 71.5t-65 24.5q-17 0 -32.5 -4t-28.5 -10.5t-24 -13.5t-19 -13v-345h-135v482h108zM459 704l-103 -137h-118v10l79 136h142v-9z" />
    <glyph glyph-name="Ncommaaccent" unicode="&#x145;" horiz-adv-x="736" 
d="M518 211v469h139v-680h-147l-289 469h-3v-469h-139v680h147l289 -469h3zM275 -208l25 156h135v-10l-59 -156h-101v10z" />
    <glyph glyph-name="ncommaaccent" unicode="&#x146;" horiz-adv-x="581" 
d="M171 482l18 -47h2q10 9 25 20t34 20.5t43 15.5t52 6q85 0 131.5 -53t46.5 -140v-304h-135v290q0 47 -21 71.5t-65 24.5q-17 0 -32.5 -4t-28.5 -10.5t-24 -13.5t-19 -13v-345h-135v482h108zM198 -208l25 156h135v-10l-59 -156h-101v10z" />
    <glyph glyph-name="Ncaron" unicode="&#x147;" horiz-adv-x="736" 
d="M518 211v469h139v-680h-147l-289 469h-3v-469h-139v680h147l289 -469h3zM196 886v10h112l63 -79l62 79h112v-10l-111 -136h-127z" />
    <glyph glyph-name="ncaron" unicode="&#x148;" horiz-adv-x="581" 
d="M171 482l18 -47h2q10 9 25 20t34 20.5t43 15.5t52 6q85 0 131.5 -53t46.5 -140v-304h-135v290q0 47 -21 71.5t-65 24.5q-17 0 -32.5 -4t-28.5 -10.5t-24 -13.5t-19 -13v-345h-135v482h108zM134 703v10h112l53 -69l52 69h112v-10l-91 -136h-147z" />
    <glyph glyph-name="napostrophe" unicode="&#x149;" horiz-adv-x="581" 
d="M171 482l18 -47h2q10 9 25 20t34 20.5t43 15.5t52 6q85 0 131.5 -53t46.5 -140v-304h-135v290q0 47 -21 71.5t-65 24.5q-17 0 -32.5 -4t-28.5 -10.5t-24 -13.5t-19 -13v-345h-135v482h108zM-43 524l25 156h135v-10l-59 -156h-101v10z" />
    <glyph glyph-name="Eng" unicode="&#x14a;" horiz-adv-x="736" 
d="M518 221v459h139v-711q0 -94 -43.5 -138t-129.5 -44q-16 0 -35 2t-35 5v118q13 -3 26 -4t27 -1q29 0 40 12t11 45v36l-297 469h-3v-469h-139v680h147l289 -459h3z" />
    <glyph glyph-name="eng" unicode="&#x14b;" horiz-adv-x="581" 
d="M171 482l18 -47h2q10 9 25 20t34 20.5t43 15.5t52 6q85 0 131.5 -53t46.5 -140v-335q0 -94 -43.5 -138t-129.5 -44q-16 0 -35 2t-35 5v109q13 -3 26 -4t27 -1q29 0 42 15t13 48v329q0 47 -21 71.5t-65 24.5q-17 0 -32.5 -4t-28.5 -10.5t-24 -13.5t-19 -13v-345h-135v482
h108z" />
    <glyph glyph-name="Omacron" unicode="&#x14c;" horiz-adv-x="749" 
d="M192 340q0 -50 9.5 -93.5t31.5 -75t56.5 -49.5t85.5 -18q50 0 85 18t56.5 49.5t31 75t9.5 93.5t-9.5 93.5t-31 75t-56.5 49.5t-85 18q-51 0 -85.5 -18t-56.5 -49.5t-31.5 -75t-9.5 -93.5zM702 340q0 -74 -19.5 -139t-59.5 -113t-102 -75.5t-146 -27.5q-85 0 -147 27.5
t-102 75.5t-59.5 113t-19.5 139t19.5 139t59.5 113t102 75.5t147 27.5q84 0 146 -27.5t102 -75.5t59.5 -113t19.5 -139zM230 759v103h290v-103h-290z" />
    <glyph glyph-name="omacron" unicode="&#x14d;" horiz-adv-x="583" 
d="M175 241q0 -36 8.5 -63.5t23.5 -45.5t36.5 -27t47.5 -9q27 0 48.5 9t36.5 27t23.5 45.5t8.5 63.5t-8.5 63.5t-23.5 45.5t-36.5 27t-48.5 9q-26 0 -47.5 -9t-36.5 -27t-23.5 -45.5t-8.5 -63.5zM546 241q0 -53 -16 -99.5t-48.5 -81t-80 -55t-110.5 -20.5q-62 0 -109.5 20.5
t-79.5 55t-48.5 81t-16.5 99.5q0 52 16.5 99t48.5 81.5t79.5 55t109.5 20.5q63 0 110.5 -20.5t80 -55t48.5 -81.5t16 -99zM146 579v103h290v-103h-290z" />
    <glyph glyph-name="Obreve" unicode="&#x14e;" horiz-adv-x="749" 
d="M192 340q0 -50 9.5 -93.5t31.5 -75t56.5 -49.5t85.5 -18q50 0 85 18t56.5 49.5t31 75t9.5 93.5t-9.5 93.5t-31 75t-56.5 49.5t-85 18q-51 0 -85.5 -18t-56.5 -49.5t-31.5 -75t-9.5 -93.5zM702 340q0 -74 -19.5 -139t-59.5 -113t-102 -75.5t-146 -27.5q-85 0 -147 27.5
t-102 75.5t-59.5 113t-19.5 139t19.5 139t59.5 113t102 75.5t147 27.5q84 0 146 -27.5t102 -75.5t59.5 -113t19.5 -139zM376 858q42 0 74.5 7t58.5 27l42 -64q-26 -38 -68.5 -57.5t-106.5 -19.5q-63 0 -105 19.5t-68 57.5l42 64q26 -19 58.5 -26.5t72.5 -7.5z" />
    <glyph glyph-name="obreve" unicode="&#x14f;" horiz-adv-x="583" 
d="M175 241q0 -36 8.5 -63.5t23.5 -45.5t36.5 -27t47.5 -9q27 0 48.5 9t36.5 27t23.5 45.5t8.5 63.5t-8.5 63.5t-23.5 45.5t-36.5 27t-48.5 9q-26 0 -47.5 -9t-36.5 -27t-23.5 -45.5t-8.5 -63.5zM546 241q0 -53 -16 -99.5t-48.5 -81t-80 -55t-110.5 -20.5q-62 0 -109.5 20.5
t-79.5 55t-48.5 81t-16.5 99.5q0 52 16.5 99t48.5 81.5t79.5 55t109.5 20.5q63 0 110.5 -20.5t80 -55t48.5 -81.5t16 -99zM290 674q42 0 74.5 7t58.5 27l42 -64q-26 -38 -68.5 -57.5t-106.5 -19.5q-63 0 -105 19.5t-68 57.5l42 64q26 -19 58.5 -26.5t72.5 -7.5z" />
    <glyph glyph-name="Ohungarumlaut" unicode="&#x150;" horiz-adv-x="749" 
d="M192 340q0 -50 9.5 -93.5t31.5 -75t56.5 -49.5t85.5 -18q50 0 85 18t56.5 49.5t31 75t9.5 93.5t-9.5 93.5t-31 75t-56.5 49.5t-85 18q-51 0 -85.5 -18t-56.5 -49.5t-31.5 -75t-9.5 -93.5zM702 340q0 -74 -19.5 -139t-59.5 -113t-102 -75.5t-146 -27.5q-85 0 -147 27.5
t-102 75.5t-59.5 113t-19.5 139t19.5 139t59.5 113t102 75.5t147 27.5q84 0 146 -27.5t102 -75.5t59.5 -113t19.5 -139zM439 886l-103 -136h-118v10l79 136h142v-10zM649 886l-103 -136h-118v10l79 136h142v-10z" />
    <glyph glyph-name="ohungarumlaut" unicode="&#x151;" horiz-adv-x="583" 
d="M175 241q0 -36 8.5 -63.5t23.5 -45.5t36.5 -27t47.5 -9q27 0 48.5 9t36.5 27t23.5 45.5t8.5 63.5t-8.5 63.5t-23.5 45.5t-36.5 27t-48.5 9q-26 0 -47.5 -9t-36.5 -27t-23.5 -45.5t-8.5 -63.5zM546 241q0 -53 -16 -99.5t-48.5 -81t-80 -55t-110.5 -20.5q-62 0 -109.5 20.5
t-79.5 55t-48.5 81t-16.5 99.5q0 52 16.5 99t48.5 81.5t79.5 55t109.5 20.5q63 0 110.5 -20.5t80 -55t48.5 -81.5t16 -99zM344 704l-103 -137h-118v10l79 136h142v-9zM554 704l-103 -137h-118v10l79 136h142v-9z" />
    <glyph glyph-name="OE" unicode="&#x152;" horiz-adv-x="995" 
d="M375 695q62 0 112 -15h453v-116h-317v-163h284v-116h-284v-169h320v-116h-457q-25 -7 -52.5 -11t-58.5 -4q-85 0 -147 27.5t-102 75.5t-59.5 113t-19.5 139t19.5 139t59.5 113t102 75.5t147 27.5zM375 104q35 0 62 6t47 17v426q-21 11 -47.5 17t-61.5 6q-51 0 -85.5 -18
t-56.5 -49.5t-31.5 -75t-9.5 -93.5t9.5 -93.5t31.5 -75t56.5 -49.5t85.5 -18z" />
    <glyph glyph-name="oe" unicode="&#x153;" horiz-adv-x="911" 
d="M547 202q2 -26 11 -46t24.5 -34t37 -21.5t48.5 -7.5q42 0 80.5 8.5t73.5 21.5l31 -97q-36 -17 -86.5 -29t-108.5 -12q-60 0 -105.5 24t-76.5 56q-32 -33 -78.5 -56.5t-106.5 -23.5q-62 0 -109.5 20.5t-79.5 55t-48.5 81t-16.5 99.5q0 52 16.5 99t48.5 81.5t79.5 55
t109.5 20.5q61 0 107 -24t78 -57q31 33 74.5 57t100.5 24q58 0 100.5 -16.5t70.5 -45t41 -66.5t13 -80q0 -23 -2.5 -48.5t-4.5 -38.5h-322zM175 241q0 -36 8.5 -63.5t23.5 -45.5t36.5 -27t47.5 -9q27 0 48.5 9t36.5 27t23.5 45.5t8.5 63.5t-8.5 63.5t-23.5 45.5t-36.5 27
t-48.5 9q-26 0 -47.5 -9t-36.5 -27t-23.5 -45.5t-8.5 -63.5zM752 286q1 4 1 7.5v7.5q0 20 -5 38t-17 31.5t-31.5 21t-47.5 7.5q-26 0 -45 -9.5t-32 -25.5t-20 -36t-8 -42h205z" />
    <glyph glyph-name="Racute" unicode="&#x154;" horiz-adv-x="664" 
d="M79 0v680h287q121 0 178.5 -53.5t57.5 -151.5q0 -78 -37 -128.5t-112 -68.5l186 -262v-16h-152l-182 269h-87v-269h-139zM359 385q47 0 72.5 24.5t25.5 65.5t-25.5 65t-72.5 24h-141v-179h141zM453 887l-83 -137h-128v10l59 136h152v-9z" />
    <glyph glyph-name="racute" unicode="&#x155;" horiz-adv-x="378" 
d="M172 482l19 -58h2q7 12 18 24.5t26 23.5t34.5 18t43.5 7q13 0 26 -2t22 -4l-12 -113q-11 2 -25 3t-23 1q-42 0 -67 -15.5t-38 -31.5v-335h-135v482h109zM352 704l-103 -137h-118v10l79 136h142v-9z" />
    <glyph glyph-name="Rcommaaccent" unicode="&#x156;" horiz-adv-x="664" 
d="M79 0v680h287q121 0 178.5 -53.5t57.5 -151.5q0 -78 -37 -128.5t-112 -68.5l186 -262v-16h-152l-182 269h-87v-269h-139zM359 385q47 0 72.5 24.5t25.5 65.5t-25.5 65t-72.5 24h-141v-179h141zM235 -208l25 156h135v-10l-59 -156h-101v10z" />
    <glyph glyph-name="rcommaaccent" unicode="&#x157;" horiz-adv-x="378" 
d="M172 482l19 -58h2q7 12 18 24.5t26 23.5t34.5 18t43.5 7q13 0 26 -2t22 -4l-12 -113q-11 2 -25 3t-23 1q-42 0 -67 -15.5t-38 -31.5v-335h-135v482h109zM41 -208l25 156h135v-10l-59 -156h-101v10z" />
    <glyph glyph-name="Rcaron" unicode="&#x158;" horiz-adv-x="664" 
d="M79 0v680h287q121 0 178.5 -53.5t57.5 -151.5q0 -78 -37 -128.5t-112 -68.5l186 -262v-16h-152l-182 269h-87v-269h-139zM359 385q47 0 72.5 24.5t25.5 65.5t-25.5 65t-72.5 24h-141v-179h141zM140 886v10h112l63 -79l62 79h112v-10l-111 -136h-127z" />
    <glyph glyph-name="rcaron" unicode="&#x159;" horiz-adv-x="378" 
d="M172 482l19 -58h2q7 12 18 24.5t26 23.5t34.5 18t43.5 7q13 0 26 -2t22 -4l-12 -113q-11 2 -25 3t-23 1q-42 0 -67 -15.5t-38 -31.5v-335h-135v482h109zM43 703v10h112l53 -69l52 69h112v-10l-91 -136h-147z" />
    <glyph glyph-name="Sacute" unicode="&#x15a;" horiz-adv-x="561" 
d="M81 159q16 -10 38.5 -20t48 -18.5t52 -13.5t49.5 -5q56 0 84 21.5t28 64.5q0 16 -5 28.5t-16.5 22t-29.5 18t-45 17.5l-73 24q-81 26 -121 75t-40 114q0 46 16 84.5t47 66t77 42.5t107 15q21 0 46 -3.5t51.5 -9.5t53 -15t50.5 -21l-42 -111q-37 18 -82 30.5t-77 12.5
q-56 0 -80.5 -21.5t-24.5 -57.5q0 -26 14.5 -45.5t55.5 -32.5l71 -23q48 -15 83.5 -33.5t59 -42t35 -53.5t11.5 -69q0 -50 -17.5 -90t-50.5 -68t-80 -42.5t-106 -14.5q-31 0 -63.5 5.5t-62.5 15t-57 21t-48 23.5zM428 887l-83 -137h-128v10l59 136h152v-9z" />
    <glyph glyph-name="sacute" unicode="&#x15b;" horiz-adv-x="468" 
d="M72 128q35 -18 75 -29.5t80 -11.5t58 12t18 35q0 22 -17 32.5t-49 18.5l-63 15q-25 6 -48.5 16.5t-42 27.5t-29.5 41t-11 57q0 71 53 113t147 42q55 0 96.5 -9t83.5 -26l-37 -96q-32 12 -68 20.5t-71 8.5q-38 0 -55.5 -11t-17.5 -33q0 -21 16 -31t46 -18l61 -15
q29 -7 54 -18.5t43.5 -28.5t29 -41t10.5 -56q0 -38 -14.5 -67t-41 -49.5t-64 -31t-83.5 -10.5q-62 0 -109 12t-90 34l40 97v0zM385 704l-103 -137h-118v10l79 136h142v-9z" />
    <glyph glyph-name="Scircumflex" unicode="&#x15c;" horiz-adv-x="561" 
d="M81 159q16 -10 38.5 -20t48 -18.5t52 -13.5t49.5 -5q56 0 84 21.5t28 64.5q0 16 -5 28.5t-16.5 22t-29.5 18t-45 17.5l-73 24q-81 26 -121 75t-40 114q0 46 16 84.5t47 66t77 42.5t107 15q21 0 46 -3.5t51.5 -9.5t53 -15t50.5 -21l-42 -111q-37 18 -82 30.5t-77 12.5
q-56 0 -80.5 -21.5t-24.5 -57.5q0 -26 14.5 -45.5t55.5 -32.5l71 -23q48 -15 83.5 -33.5t59 -42t35 -53.5t11.5 -69q0 -50 -17.5 -90t-50.5 -68t-80 -42.5t-106 -14.5q-31 0 -63.5 5.5t-62.5 15t-57 21t-48 23.5zM455 760v-10h-112l-63 79l-62 -79h-112v10l111 136h127z" />
    <glyph glyph-name="scircumflex" unicode="&#x15d;" horiz-adv-x="468" 
d="M72 128q35 -18 75 -29.5t80 -11.5t58 12t18 35q0 22 -17 32.5t-49 18.5l-63 15q-25 6 -48.5 16.5t-42 27.5t-29.5 41t-11 57q0 71 53 113t147 42q55 0 96.5 -9t83.5 -26l-37 -96q-32 12 -68 20.5t-71 8.5q-38 0 -55.5 -11t-17.5 -33q0 -21 16 -31t46 -18l61 -15
q29 -7 54 -18.5t43.5 -28.5t29 -41t10.5 -56q0 -38 -14.5 -67t-41 -49.5t-64 -31t-83.5 -10.5q-62 0 -109 12t-90 34l40 97v0zM398 577v-10h-112l-53 69l-52 -69h-112v10l91 136h147z" />
    <glyph glyph-name="Scedilla" unicode="&#x15e;" horiz-adv-x="561" 
d="M204 -88l29 75q-55 6 -107.5 24t-87.5 39l43 109q16 -10 38.5 -20t48 -18.5t52 -13.5t49.5 -5q56 0 84 21.5t28 64.5q0 16 -5 28.5t-16.5 22t-29.5 18t-45 17.5l-73 24q-81 26 -121 75t-40 114q0 46 16 84.5t47 66t77 42.5t107 15q21 0 46 -3.5t51.5 -9.5t53 -15
t50.5 -21l-42 -111q-37 18 -82 30.5t-77 12.5q-56 0 -80.5 -21.5t-24.5 -57.5q0 -26 14.5 -45.5t55.5 -32.5l71 -23q48 -15 83.5 -33.5t59 -42t35 -53.5t11.5 -69q0 -45 -14.5 -82t-41.5 -64.5t-66.5 -44t-88.5 -21.5l-14 -33q32 -5 50.5 -23.5t18.5 -49.5q0 -44 -31 -69.5
t-87 -25.5q-23 0 -42 3.5t-33 8.5l14 63q11 -4 22.5 -6t20.5 -2q17 0 26 6t9 19q0 19 -19.5 23t-38.5 4z" />
    <glyph glyph-name="scedilla" unicode="&#x15f;" horiz-adv-x="469" 
d="M162 -88l29 75q-47 3 -85 14.5t-74 29.5l40 97q35 -18 75 -29.5t80 -11.5t58 12t18 35q0 22 -17 32.5t-49 18.5l-63 15q-25 6 -48.5 16.5t-42 27.5t-29.5 41t-11 57q0 71 53 113t147 42q55 0 96.5 -9t83.5 -26l-37 -96q-32 12 -68 20.5t-71 8.5q-38 0 -55.5 -11
t-17.5 -33q0 -21 16 -31t46 -18l61 -15q29 -7 54 -18.5t43.5 -28.5t29 -41t10.5 -56q0 -67 -44.5 -107.5t-119.5 -48.5l-14 -32q32 -5 50.5 -23.5t18.5 -49.5q0 -44 -31 -69.5t-87 -25.5q-23 0 -42 3.5t-33 8.5l14 63q11 -4 22.5 -6t20.5 -2q17 0 26 6t9 19q0 19 -19.5 23
t-38.5 4z" />
    <glyph glyph-name="Scaron" unicode="&#x160;" horiz-adv-x="561" 
d="M81 159q16 -10 38.5 -20t48 -18.5t52 -13.5t49.5 -5q56 0 84 21.5t28 64.5q0 16 -5 28.5t-16.5 22t-29.5 18t-45 17.5l-73 24q-81 26 -121 75t-40 114q0 46 16 84.5t47 66t77 42.5t107 15q21 0 46 -3.5t51.5 -9.5t53 -15t50.5 -21l-42 -111q-37 18 -82 30.5t-77 12.5
q-56 0 -80.5 -21.5t-24.5 -57.5q0 -26 14.5 -45.5t55.5 -32.5l71 -23q48 -15 83.5 -33.5t59 -42t35 -53.5t11.5 -69q0 -50 -17.5 -90t-50.5 -68t-80 -42.5t-106 -14.5q-31 0 -63.5 5.5t-62.5 15t-57 21t-48 23.5zM108 886v10h112l63 -79l62 79h112v-10l-111 -136h-127z" />
    <glyph glyph-name="scaron" unicode="&#x161;" horiz-adv-x="468" 
d="M72 128q35 -18 75 -29.5t80 -11.5t58 12t18 35q0 22 -17 32.5t-49 18.5l-63 15q-25 6 -48.5 16.5t-42 27.5t-29.5 41t-11 57q0 71 53 113t147 42q55 0 96.5 -9t83.5 -26l-37 -96q-32 12 -68 20.5t-71 8.5q-38 0 -55.5 -11t-17.5 -33q0 -21 16 -31t46 -18l61 -15
q29 -7 54 -18.5t43.5 -28.5t29 -41t10.5 -56q0 -38 -14.5 -67t-41 -49.5t-64 -31t-83.5 -10.5q-62 0 -109 12t-90 34l40 97v0zM70 703v10h112l53 -69l52 69h112v-10l-91 -136h-147z" />
    <glyph glyph-name="Tcommaaccent" unicode="&#x162;" horiz-adv-x="568" 
d="M207 -88l37 88h-30v564h-191v116h522v-116h-192v-564h-29l-23 -45q32 -5 50.5 -23.5t18.5 -49.5q0 -44 -31 -69.5t-87 -25.5q-23 0 -42 3.5t-33 8.5l14 63q11 -4 22.5 -6t20.5 -2q17 0 26 6t9 19q0 19 -19.5 23t-38.5 4z" />
    <glyph glyph-name="tcommaaccent" unicode="&#x163;" horiz-adv-x="415" 
d="M153 -88l33 85q-40 14 -58.5 46t-18.5 83v253h-88v73l88 30v112h135v-112h138v-103h-138v-228q0 -26 14 -40.5t43 -14.5q17 0 39 4.5t39 9.5v-110q-16 -4 -49 -9.5t-70 -5.5l-13 -30q32 -5 50.5 -23.5t18.5 -49.5q0 -44 -31 -69.5t-87 -25.5q-23 0 -42 3.5t-33 8.5l14 63
q11 -4 22.5 -6t20.5 -2q17 0 26 6t9 19q0 19 -19.5 23t-38.5 4z" />
    <glyph glyph-name="Tcaron" unicode="&#x164;" horiz-adv-x="568" 
d="M545 680v-116h-192v-564h-139v564h-191v116h522zM108 886v10h112l63 -79l62 79h112v-10l-111 -136h-127z" />
    <glyph glyph-name="tcaron" unicode="&#x165;" horiz-adv-x="415" 
d="M244 594v-112h138v-103h-138v-228q0 -26 14 -40.5t43 -14.5q17 0 39 4.5t39 9.5v-110q-15 -4 -46.5 -9.5t-66.5 -5.5q-80 0 -118.5 34t-38.5 107v253h-88v73l88 30v112h135zM316 524l25 156h135v-10l-59 -156h-101v10z" />
    <glyph glyph-name="Tbar" unicode="&#x166;" horiz-adv-x="568" 
d="M353 308v-308h-139v308h-115v106h115v150h-191v116h522v-116h-192v-150h116v-106h-116z" />
    <glyph glyph-name="tbar" unicode="&#x167;" horiz-adv-x="416" 
d="M245 209v-58q0 -26 14 -40.5t43 -14.5q17 0 39 4.5t39 9.5v-110q-15 -4 -46.5 -9.5t-66.5 -5.5q-80 0 -118.5 34t-38.5 107v83h-67v103h67v67h-88v73l88 30v112h135v-112h138v-103h-138v-67h88v-103h-88z" />
    <glyph glyph-name="Utilde" unicode="&#x168;" horiz-adv-x="706" 
d="M210 680v-401q0 -38 7.5 -70t24.5 -55t44.5 -36.5t66.5 -13.5t66 13.5t44.5 36.5t25 55t7.5 70v401h139v-401q0 -70 -16.5 -124.5t-51 -92t-87.5 -57.5t-127 -20t-127.5 20t-88 57.5t-50.5 92.5t-16 124v401h139zM178 831q16 28 44.5 47t61.5 19q24 0 43 -7t36 -15.5
t33.5 -15.5t36.5 -7t37.5 9.5t29.5 24.5l27 -68q-17 -32 -46.5 -49.5t-58.5 -17.5q-22 0 -42 7t-38 15.5t-35.5 15.5t-34.5 7q-22 0 -37.5 -9t-29.5 -26z" />
    <glyph glyph-name="utilde" unicode="&#x169;" horiz-adv-x="575" 
d="M193 482v-290q0 -47 19 -71.5t63 -24.5q17 0 32 4t28 10.5t23.5 13.5t18.5 13v345h135v-482h-109l-18 47h-2q-10 -9 -24 -20t-33 -20.5t-42 -15.5t-51 -6q-86 0 -130.5 53t-44.5 140v304h135zM114 647q16 28 44.5 47t61.5 19q24 0 43 -7t36 -15.5t33.5 -15.5t36.5 -7
t37.5 9.5t29.5 24.5l27 -68q-17 -32 -46.5 -49.5t-58.5 -17.5q-22 0 -42 7t-38 15.5t-35.5 15.5t-34.5 7q-22 0 -37.5 -9t-29.5 -26z" />
    <glyph glyph-name="Umacron" unicode="&#x16a;" horiz-adv-x="706" 
d="M210 680v-401q0 -38 7.5 -70t24.5 -55t44.5 -36.5t66.5 -13.5t66 13.5t44.5 36.5t25 55t7.5 70v401h139v-401q0 -70 -16.5 -124.5t-51 -92t-87.5 -57.5t-127 -20t-127.5 20t-88 57.5t-50.5 92.5t-16 124v401h139zM208 759v103h290v-103h-290z" />
    <glyph glyph-name="umacron" unicode="&#x16b;" horiz-adv-x="575" 
d="M193 482v-290q0 -47 19 -71.5t63 -24.5q17 0 32 4t28 10.5t23.5 13.5t18.5 13v345h135v-482h-109l-18 47h-2q-10 -9 -24 -20t-33 -20.5t-42 -15.5t-51 -6q-86 0 -130.5 53t-44.5 140v304h135zM146 579v103h290v-103h-290z" />
    <glyph glyph-name="Ubreve" unicode="&#x16c;" horiz-adv-x="706" 
d="M210 680v-401q0 -38 7.5 -70t24.5 -55t44.5 -36.5t66.5 -13.5t66 13.5t44.5 36.5t25 55t7.5 70v401h139v-401q0 -70 -16.5 -124.5t-51 -92t-87.5 -57.5t-127 -20t-127.5 20t-88 57.5t-50.5 92.5t-16 124v401h139zM351 858q42 0 74.5 7t58.5 27l42 -64
q-26 -38 -68.5 -57.5t-106.5 -19.5q-63 0 -105 19.5t-68 57.5l42 64q26 -19 58.5 -26.5t72.5 -7.5z" />
    <glyph glyph-name="ubreve" unicode="&#x16d;" horiz-adv-x="575" 
d="M193 482v-290q0 -47 19 -71.5t63 -24.5q17 0 32 4t28 10.5t23.5 13.5t18.5 13v345h135v-482h-109l-18 47h-2q-10 -9 -24 -20t-33 -20.5t-42 -15.5t-51 -6q-86 0 -130.5 53t-44.5 140v304h135zM289 674q42 0 74.5 7t58.5 27l42 -64q-26 -38 -68.5 -57.5t-106.5 -19.5
q-63 0 -105 19.5t-68 57.5l42 64q26 -19 58.5 -26.5t72.5 -7.5z" />
    <glyph glyph-name="Uring" unicode="&#x16e;" horiz-adv-x="706" 
d="M210 680v-401q0 -38 7.5 -70t24.5 -55t44.5 -36.5t66.5 -13.5t66 13.5t44.5 36.5t25 55t7.5 70v401h139v-401q0 -70 -16.5 -124.5t-51 -92t-87.5 -57.5t-127 -20t-127.5 20t-88 57.5t-50.5 92.5t-16 124v401h139zM311 834q0 -19 11.5 -29t30.5 -10t30 10t11 29
q0 18 -11 28.5t-30 10.5t-30.5 -10.5t-11.5 -28.5zM231 834q0 52 34 82t88 30t87.5 -30t33.5 -82q0 -53 -33.5 -83t-87.5 -30t-88 30t-34 83z" />
    <glyph glyph-name="uring" unicode="&#x16f;" horiz-adv-x="575" 
d="M193 482v-290q0 -47 19 -71.5t63 -24.5q17 0 32 4t28 10.5t23.5 13.5t18.5 13v345h135v-482h-109l-18 47h-2q-10 -9 -24 -20t-33 -20.5t-42 -15.5t-51 -6q-86 0 -130.5 53t-44.5 140v304h135zM244 643q0 -19 11.5 -29t30.5 -10t30 10t11 29q0 18 -11 28.5t-30 10.5
t-30.5 -10.5t-11.5 -28.5zM164 643q0 52 34 82t88 30t87.5 -30t33.5 -82q0 -53 -33.5 -83t-87.5 -30t-88 30t-34 83z" />
    <glyph glyph-name="Uhungarumlaut" unicode="&#x170;" horiz-adv-x="706" 
d="M210 680v-401q0 -38 7.5 -70t24.5 -55t44.5 -36.5t66.5 -13.5t66 13.5t44.5 36.5t25 55t7.5 70v401h139v-401q0 -70 -16.5 -124.5t-51 -92t-87.5 -57.5t-127 -20t-127.5 20t-88 57.5t-50.5 92.5t-16 124v401h139zM407 886l-103 -136h-118v10l79 136h142v-10zM617 886
l-103 -136h-118v10l79 136h142v-10z" />
    <glyph glyph-name="uhungarumlaut" unicode="&#x171;" horiz-adv-x="575" 
d="M193 482v-290q0 -47 19 -71.5t63 -24.5q17 0 32 4t28 10.5t23.5 13.5t18.5 13v345h135v-482h-109l-18 47h-2q-10 -9 -24 -20t-33 -20.5t-42 -15.5t-51 -6q-86 0 -130.5 53t-44.5 140v304h135zM343 704l-103 -137h-118v10l79 136h142v-9zM553 704l-103 -137h-118v10
l79 136h142v-9z" />
    <glyph glyph-name="Uogonek" unicode="&#x172;" horiz-adv-x="708" 
d="M377 -213q-28 0 -49.5 8t-36.5 21.5t-23 32.5t-8 41q0 35 15.5 57.5t39.5 39.5q-128 10 -185.5 86t-57.5 206v401h139v-401q0 -38 7.5 -70t24.5 -55t44.5 -36.5t66.5 -13.5t66 13.5t44.5 36.5t25 55t7.5 70v401h139v-401q0 -63 -13 -113.5t-40.5 -87t-70 -59.5
t-100.5 -30q-23 -5 -35 -26t-12 -45q0 -44 41 -44q15 0 29.5 5.5t23.5 12.5l11 -80q-16 -10 -43 -17.5t-50 -7.5z" />
    <glyph glyph-name="uogonek" unicode="&#x173;" horiz-adv-x="575" 
d="M439 -213q-28 0 -49.5 8t-36.5 21.5t-22.5 32.5t-7.5 41q0 19 7 35.5t18 30t25.5 25t28.5 20.5l-17 46h-2q-10 -9 -24 -20t-33 -20.5t-42 -15.5t-51 -6q-86 0 -130.5 53t-44.5 140v304h135v-290q0 -47 19 -71.5t63 -24.5q17 0 32 4t28 10.5t23.5 13.5t18.5 13v345h135
v-482q-17 -6 -32.5 -16t-27 -22.5t-18.5 -25.5t-7 -25q0 -37 41 -37q15 0 29.5 5.5t23.5 12.5l11 -80q-16 -10 -43 -17.5t-50 -7.5z" />
    <glyph glyph-name="Wcircumflex" unicode="&#x174;" horiz-adv-x="1014" 
d="M995 670l-185 -670h-165l-137 527h-1l-137 -527h-166l-185 670v10h149l115 -530h2l141 530h162l141 -530h2l114 530h150v-10zM683 760v-10h-112l-63 79l-62 -79h-112v10l111 136h127z" />
    <glyph glyph-name="wcircumflex" unicode="&#x175;" horiz-adv-x="840" 
d="M822 472l-144 -472h-147l-110 347h-2l-110 -347h-147l-144 472v10h135l89 -334h2l103 334h146l103 -334h2l89 334h135v-10zM585 577v-10h-112l-53 69l-52 -69h-112v10l91 136h147z" />
    <glyph glyph-name="Ycircumflex" unicode="&#x176;" horiz-adv-x="604" 
d="M149 680l151 -280h2l151 280h152v-10l-234 -396v-274h-139v274l-235 396v10h152zM477 760v-10h-112l-63 79l-62 -79h-112v10l111 136h127z" />
    <glyph glyph-name="ycircumflex" unicode="&#x177;" horiz-adv-x="530" 
d="M519 472l-207 -531q-32 -81 -81 -117.5t-112 -36.5q-24 0 -43 2.5t-36 6.5v107q17 -3 35.5 -4t26.5 -1q32 0 51.5 12t30.5 41l20 54l-194 467v10h140l116 -328h3l110 328h140v-10zM433 577v-10h-112l-53 69l-52 -69h-112v10l91 136h147z" />
    <glyph glyph-name="Ydieresis" unicode="&#x178;" horiz-adv-x="604" 
d="M149 680l151 -280h2l151 280h152v-10l-234 -396v-274h-139v274l-235 396v10h152zM93 819q0 32 21.5 53t56.5 21q36 0 57.5 -21t21.5 -53t-21.5 -53t-57.5 -21q-35 0 -56.5 21t-21.5 53zM354 819q0 32 21.5 53t56.5 21q36 0 57.5 -21t21.5 -53t-21.5 -53t-57.5 -21
q-35 0 -56.5 21t-21.5 53z" />
    <glyph glyph-name="Zacute" unicode="&#x179;" horiz-adv-x="587" 
d="M541 680v-100l-333 -462v-2h333v-116h-504v100l332 462v2h-311v116h483zM435 887l-83 -137h-128v10l59 136h152v-9z" />
    <glyph glyph-name="zacute" unicode="&#x17a;" horiz-adv-x="472" 
d="M431 482v-71l-232 -306v-2h232v-103h-397v71l231 306v2h-216v103h382zM398 704l-103 -137h-118v10l79 136h142v-9z" />
    <glyph glyph-name="Zdotaccent" unicode="&#x17b;" horiz-adv-x="587" 
d="M541 680v-100l-333 -462v-2h333v-116h-504v100l332 462v2h-311v116h483zM226 819q0 32 21.5 53t56.5 21q36 0 57.5 -21t21.5 -53t-21.5 -53t-57.5 -21q-35 0 -56.5 21t-21.5 53z" />
    <glyph glyph-name="zdotaccent" unicode="&#x17c;" horiz-adv-x="472" 
d="M431 482v-71l-232 -306v-2h232v-103h-397v71l231 306v2h-216v103h382zM164 640q0 32 21.5 53t56.5 21q36 0 57.5 -21t21.5 -53t-21.5 -53t-57.5 -21q-35 0 -56.5 21t-21.5 53z" />
    <glyph glyph-name="Zcaron" unicode="&#x17d;" horiz-adv-x="587" 
d="M541 680v-100l-333 -462v-2h333v-116h-504v100l332 462v2h-311v116h483zM124 886v10h112l63 -79l62 79h112v-10l-111 -136h-127z" />
    <glyph glyph-name="zcaron" unicode="&#x17e;" horiz-adv-x="472" 
d="M431 482v-71l-232 -306v-2h232v-103h-397v71l231 306v2h-216v103h382zM78 703v10h112l53 -69l52 69h112v-10l-91 -136h-147z" />
    <glyph glyph-name="florin" unicode="&#x192;" 
d="M144 285l18 101h90l26 150q14 84 60.5 121.5t121.5 37.5q20 0 47 -2t43 -5l-15 -111q-13 3 -32 5t-32 2q-27 0 -40.5 -10.5t-18.5 -43.5l-25 -144h110l-18 -101h-110l-60 -339q-15 -84 -61 -121.5t-121 -37.5q-20 0 -47 2t-42 5l15 111q13 -3 31.5 -5t30.5 -2
q27 0 40.5 10.5t19.5 43.5l59 333h-90z" />
    <glyph glyph-name="Aringacute" unicode="&#x1fa;" horiz-adv-x="666" 
d="M211 751q0 52 34 82t88 30t87.5 -30t33.5 -82q0 -27 -13.5 -51t-33.5 -38l257 -661h-153l-45 140h-266l-46 -140h-152l256 660q-20 14 -33.5 38t-13.5 52zM331 539l-93 -286h189l-93 286h-3zM291 751q0 -19 11.5 -29t30.5 -10t30 10t11 29q0 18 -11 28.5t-30 10.5
t-30.5 -10.5t-11.5 -28.5zM472.055 908.25l-79.0684 -102.75h-121.938v7.5l56.2051 102h144.801v-6.75z" />
    <glyph glyph-name="aringacute" unicode="&#x1fb;" horiz-adv-x="543" 
d="M248 634q0 -19 11.5 -26.5t30.5 -7.5t30 7.5t11 26.5q0 18 -11 26t-30 8t-30.5 -8t-11.5 -26zM168 634q0 52 34 79.5t88 27.5t87.5 -27.5t33.5 -79.5q0 -54 -33.5 -81t-87.5 -27t-88 27t-34 81zM434 873l-79 -103h-122v8l56 102h145v-7zM467 105q0 -11 2.5 -14.5
t13.5 -3.5h35v-92q-16 -3 -32 -5t-38 -2q-39 0 -61 14.5t-35 42.5h-2q-12 -10 -29.5 -20.5t-38 -19.5t-43 -14.5t-44.5 -5.5q-81 0 -122 43t-41 109q0 40 13.5 70t42 49.5t73.5 29t109 9.5h65v22q0 22 -8.5 36t-21.5 21t-27 9.5t-25 2.5q-40 0 -82.5 -9.5t-77.5 -25.5
l-32 103q38 17 90 30t109 13q105 0 156 -50.5t51 -144.5v-197zM284 208q-67 0 -95 -16t-28 -43q0 -58 64 -58q26 0 57.5 9t52.5 24v84h-51z" />
    <glyph glyph-name="AEacute" unicode="&#x1fc;" horiz-adv-x="958" 
d="M-19 10l403 670h519v-116h-317v-163h284v-116h-284v-169h320v-116h-459v140h-234l-83 -140h-149v10zM444 544l-167 -292h170v292h-3zM780 887l-83 -137h-128v10l59 136h152v-9z" />
    <glyph glyph-name="aeacute" unicode="&#x1fd;" horiz-adv-x="831" 
d="M474 202q5 -52 34 -80.5t84 -28.5q42 0 78 8.5t71 21.5l31 -97q-36 -17 -84 -29t-106 -12q-66 0 -109 24t-74 62q-15 -16 -33 -31.5t-41 -27.5t-53.5 -19.5t-70.5 -7.5t-71.5 11.5t-53 31.5t-33 48t-11.5 61q0 83 58 119.5t158 36.5h90v24q0 26 -10 40t-24.5 20.5
t-30.5 7.5t-27 1q-40 0 -79 -9.5t-74 -25.5l-32 103q38 17 86.5 30t105.5 13q54 0 95 -17t68 -48q27 28 67.5 46.5t91.5 18.5q58 0 100 -16.5t68.5 -45t39 -66.5t12.5 -80q0 -23 -2.5 -48.5t-4.5 -38.5h-314zM671 286q1 5 1 15q0 20 -5 38t-16 31.5t-30 21t-47 7.5
q-26 0 -44.5 -9.5t-31 -25.5t-19 -36t-7.5 -42h199zM252 206q-50 0 -72 -15.5t-22 -44.5q0 -57 63 -57q22 0 43.5 8.5t38.5 23.5t27 36.5t10 48.5h-88zM588 704l-103 -137h-118v10l79 136h142v-9z" />
    <glyph glyph-name="Oslashacute" unicode="&#x1fe;" horiz-adv-x="749" 
d="M95 19l40 59q-45 48 -66.5 115.5t-21.5 146.5q0 74 19.5 139t59.5 113t102 75.5t147 27.5q47 0 86 -8.5t72 -24.5l35 53l77 -52l-38 -55q48 -49 71.5 -118t23.5 -150q0 -74 -19.5 -139t-59.5 -113t-102 -75.5t-146 -27.5q-50 0 -91.5 10t-75.5 27l-35 -54zM557 340
q0 44 -7.5 82t-23.5 68l-247 -363q20 -11 43.5 -17t52.5 -6q50 0 85 18t56.5 49.5t31 75t9.5 93.5zM192 340q0 -41 5.5 -76.5t19.5 -64.5l244 358q-17 9 -38.5 14t-47.5 5q-51 0 -85.5 -18t-56.5 -49.5t-31.5 -75t-9.5 -93.5zM519 887l-83 -137h-128v10l59 136h152v-9z" />
    <glyph glyph-name="oslashacute" unicode="&#x1ff;" horiz-adv-x="583" 
d="M58 23l36 45q-29 35 -43 79t-14 94q0 52 16.5 99t48.5 81.5t79.5 55t109.5 20.5q37 0 69 -7t58 -21l35 44l69 -54l-35 -44q29 -35 44 -79t15 -95q0 -53 -16 -99.5t-48.5 -81t-80 -55t-110.5 -20.5q-38 0 -70 7.5t-59 21.5l-37 -48zM415 246q0 20 -2.5 38t-7.5 32
l-176 -217q25 -11 58 -11q29 0 53 10t40.5 29.5t25.5 49t9 69.5zM168 236q0 -20 2 -37t7 -31l174 215q-12 5 -26 8t-30 3q-29 0 -52.5 -10t-40 -29.5t-25.5 -49t-9 -69.5zM452 704l-103 -137h-118v10l79 136h142v-9z" />
    <glyph glyph-name="Scommaaccent" unicode="&#x218;" horiz-adv-x="561" 
d="M81 159q16 -10 38.5 -20t48 -18.5t52 -13.5t49.5 -5q56 0 84 21.5t28 64.5q0 16 -5 28.5t-16.5 22t-29.5 18t-45 17.5l-73 24q-81 26 -121 75t-40 114q0 46 16 84.5t47 66t77 42.5t107 15q21 0 46 -3.5t51.5 -9.5t53 -15t50.5 -21l-42 -111q-37 18 -82 30.5t-77 12.5
q-56 0 -80.5 -21.5t-24.5 -57.5q0 -26 14.5 -45.5t55.5 -32.5l71 -23q48 -15 83.5 -33.5t59 -42t35 -53.5t11.5 -69q0 -50 -17.5 -90t-50.5 -68t-80 -42.5t-106 -14.5q-31 0 -63.5 5.5t-62.5 15t-57 21t-48 23.5zM195 -208l25 156h135v-10l-59 -156h-101v10z" />
    <glyph glyph-name="scommaaccent" unicode="&#x219;" horiz-adv-x="468" 
d="M72 128q35 -18 75 -29.5t80 -11.5t58 12t18 35q0 22 -17 32.5t-49 18.5l-63 15q-25 6 -48.5 16.5t-42 27.5t-29.5 41t-11 57q0 71 53 113t147 42q55 0 96.5 -9t83.5 -26l-37 -96q-32 12 -68 20.5t-71 8.5q-38 0 -55.5 -11t-17.5 -33q0 -21 16 -31t46 -18l61 -15
q29 -7 54 -18.5t43.5 -28.5t29 -41t10.5 -56q0 -38 -14.5 -67t-41 -49.5t-64 -31t-83.5 -10.5q-62 0 -109 12t-90 34l40 97v0zM155 -208l25 156h135v-10l-59 -156h-101v10z" />
    <glyph glyph-name="uni021A" unicode="&#x21a;" horiz-adv-x="568" 
d="M545 680v-116h-192v-564h-139v564h-191v116h522zM190 -208l25 156h135v-10l-59 -156h-101v10z" />
    <glyph glyph-name="uni021B" unicode="&#x21b;" horiz-adv-x="415" 
d="M244 594v-112h138v-103h-138v-228q0 -26 14 -40.5t43 -14.5q17 0 39 4.5t39 9.5v-110q-15 -4 -46.5 -9.5t-66.5 -5.5q-80 0 -118.5 34t-38.5 107v253h-88v73l88 30v112h135zM138 -208l25 156h135v-10l-59 -156h-101v10z" />
    <glyph glyph-name="dotlessj" unicode="&#x237;" horiz-adv-x="261" 
d="M198 482v-513q0 -94 -43.5 -138t-129.5 -44q-16 0 -35 2t-35 5v109q13 -3 26 -4t27 -1q29 0 42 15t13 48v521h135z" />
    <glyph glyph-name="circumflex" unicode="&#x2c6;" 
d="M459 577v-10h-112l-53 69l-52 -69h-112v10l91 136h147z" />
    <glyph glyph-name="caron" unicode="&#x2c7;" 
d="M130 703v10h112l53 -69l52 69h112v-10l-91 -136h-147z" />
    <glyph glyph-name="uni02C9" unicode="&#x2c9;" 
d="M150 589v103h290v-103h-290z" />
    <glyph glyph-name="breve" unicode="&#x2d8;" 
d="M294 674q42 0 74.5 7t58.5 27l42 -64q-26 -38 -68.5 -57.5t-106.5 -19.5q-63 0 -105 19.5t-68 57.5l42 64q26 -19 58.5 -26.5t72.5 -7.5z" />
    <glyph glyph-name="dotaccent" unicode="&#x2d9;" 
d="M217 640q0 32 21.5 53t56.5 21q36 0 57.5 -21t21.5 -53t-21.5 -53t-57.5 -21q-35 0 -56.5 21t-21.5 53z" />
    <glyph glyph-name="ring" unicode="&#x2da;" 
d="M253 643q0 -19 11.5 -29t30.5 -10t30 10t11 29q0 18 -11 28.5t-30 10.5t-30.5 -10.5t-11.5 -28.5zM173 643q0 52 34 82t88 30t87.5 -30t33.5 -82q0 -53 -33.5 -83t-87.5 -30t-88 30t-34 83z" />
    <glyph glyph-name="ogonek" unicode="&#x2db;" 
d="M306 -213q-28 0 -49.5 8t-36.5 21.5t-22.5 32.5t-7.5 41q0 28 11.5 50t30 39t41 29.5t43.5 21.5l48 -24q-12 -5 -24 -15.5t-22.5 -23.5t-17 -27t-6.5 -26q0 -23 10.5 -31.5t30.5 -8.5q15 0 29.5 5.5t23.5 12.5l11 -80q-16 -10 -43 -17.5t-50 -7.5z" />
    <glyph glyph-name="tilde" unicode="&#x2dc;" 
d="M120 647q16 28 44.5 47t61.5 19q24 0 43 -7t36 -15.5t33.5 -15.5t36.5 -7t37.5 9.5t29.5 24.5l27 -68q-17 -32 -46.5 -49.5t-58.5 -17.5q-22 0 -42 7t-38 15.5t-35.5 15.5t-34.5 7q-22 0 -37.5 -9t-29.5 -26z" />
    <glyph glyph-name="hungarumlaut" unicode="&#x2dd;" 
d="M300 704l-103 -137h-118v10l79 136h142v-9zM510 704l-103 -137h-118v10l79 136h142v-9z" />
    <glyph glyph-name="tonos" unicode="&#x384;" 
d="M411 716l-56 -157h-116v10l32 156h140v-9z" />
    <glyph glyph-name="dieresistonos" unicode="&#x385;" 
d="M59 606q0 32 21.5 53t56.5 21q36 0 57.5 -21t21.5 -53t-21.5 -53t-57.5 -21q-35 0 -56.5 21t-21.5 53zM414 606q0 32 21.5 53t56.5 21q36 0 57.5 -21t21.5 -53t-21.5 -53t-57.5 -21q-35 0 -56.5 21t-21.5 53zM405 701l-53 -167h-113v10l29 166h137v-9z" />
    <glyph glyph-name="Alphatonos" unicode="&#x386;" horiz-adv-x="709" 
d="M706 0h-153l-45 140h-266l-46 -140h-152l250 680h162zM373 538l-93 -286h189l-93 286h-3zM212 671l-53 -157h-118v10l29 156h142v-9z" />
    <glyph glyph-name="anoteleia" unicode="&#x387;" horiz-adv-x="278" 
d="M54 291q0 38 23 62t62 24t62 -24t23 -62t-23 -62t-62 -24t-62 24t-23 62z" />
    <glyph glyph-name="Epsilontonos" unicode="&#x388;" horiz-adv-x="725" 
d="M670 680v-116h-317v-163h284v-116h-284v-169h320v-116h-459v680h456zM179 671l-53 -157h-118v10l29 156h142v-9z" />
    <glyph glyph-name="Etatonos" unicode="&#x389;" horiz-adv-x="857" 
d="M639 285h-286v-285h-139v680h139v-279h286v279h139v-680h-139v285zM179 671l-53 -157h-118v10l29 156h142v-9z" />
    <glyph glyph-name="Iotatonos" unicode="&#x38a;" horiz-adv-x="432" 
d="M353 0h-139v680h139v-680zM179 671l-53 -157h-118v10l29 156h142v-9z" />
    <glyph glyph-name="Omicrontonos" unicode="&#x38c;" horiz-adv-x="858" 
d="M301 340q0 -50 9.5 -93.5t31.5 -75t56.5 -49.5t85.5 -18q50 0 85 18t56.5 49.5t31 75t9.5 93.5t-9.5 93.5t-31 75t-56.5 49.5t-85 18q-51 0 -85.5 -18t-56.5 -49.5t-31.5 -75t-9.5 -93.5zM811 340q0 -74 -19.5 -139t-59.5 -113t-102 -75.5t-146 -27.5q-85 0 -147 27.5
t-102 75.5t-59.5 113t-19.5 139t19.5 139t59.5 113t102 75.5t147 27.5q84 0 146 -27.5t102 -75.5t59.5 -113t19.5 -139zM183 671l-53 -157h-118v10l29 156h142v-9z" />
    <glyph glyph-name="Upsilontonos" unicode="&#x38e;" horiz-adv-x="841" 
d="M386 680l151 -280h2l151 280h152v-10l-234 -396v-274h-139v274l-235 396v10h152zM191 671l-53 -157h-118v10l29 156h142v-9z" />
    <glyph glyph-name="Omegatonos" unicode="&#x38f;" horiz-adv-x="883" 
d="M165 116h142q-27 15 -52 39t-44 57.5t-30.5 76.5t-11.5 95q0 58 19.5 113.5t59.5 99.5t102 71t147 27q84 0 146 -27t102.5 -71t60 -99.5t19.5 -113.5q0 -52 -11.5 -94.5t-30.5 -76t-44.5 -58t-52.5 -39.5h142v-116h-288v102q31 20 56.5 44t44 55.5t28.5 72t10 91.5
q0 41 -9.5 79t-31 67.5t-56.5 47t-85 17.5q-51 0 -85.5 -17.5t-56.5 -47t-31.5 -67.5t-9.5 -79q0 -51 10 -91.5t28.5 -72t44 -55.5t56.5 -44v-102h-288v116zM185 671l-53 -157h-118v10l29 156h142v-9z" />
    <glyph glyph-name="iotadieresistonos" unicode="&#x390;" horiz-adv-x="303" 
d="M199 482v-339q0 -23 10.5 -35t32.5 -12q9 0 20 1.5t23 5.5v-110q-14 -3 -36 -5.5t-46 -2.5q-67 0 -103 35.5t-36 110.5v351h135zM-105 606q0 32 21.5 53t56.5 21q36 0 57.5 -21t21.5 -53t-21.5 -53t-57.5 -21q-35 0 -56.5 21t-21.5 53zM250 606q0 32 21.5 53t56.5 21
q36 0 57.5 -21t21.5 -53t-21.5 -53t-57.5 -21q-35 0 -56.5 21t-21.5 53zM241 701l-53 -167h-113v10l29 166h137v-9z" />
    <glyph glyph-name="Alpha" unicode="&#x391;" horiz-adv-x="668" 
d="M665 0h-153l-45 140h-266l-46 -140h-152l250 680h162zM332 538l-93 -286h189l-93 286h-3z" />
    <glyph glyph-name="Beta" unicode="&#x392;" horiz-adv-x="652" 
d="M218 116h129q31 0 53.5 5t36.5 16t20.5 27.5t6.5 39.5q0 46 -27.5 68t-95.5 22h-123v-178zM328 680q124 0 188 -43.5t64 -140.5q0 -55 -26 -90t-62 -51v-2q55 -19 86 -57.5t31 -101.5q0 -96 -59 -145t-191 -49h-280v680h249zM218 404h104q30 0 51.5 4t35 13t20 24t6.5 38
t-6 38.5t-19.5 25t-35.5 13.5t-54 4h-102v-160z" />
    <glyph glyph-name="Gamma" unicode="&#x393;" horiz-adv-x="533" 
d="M79 0v680h432v-116h-293v-564h-139z" />
    <glyph glyph-name="uni0394" unicode="&#x394;" horiz-adv-x="666" 
d="M663 0h-658v5l248 675h162l248 -675v-5zM332 538l-145 -422h295l-147 422h-3z" />
    <glyph glyph-name="Epsilon" unicode="&#x395;" 
d="M535 680v-116h-317v-163h284v-116h-284v-169h320v-116h-459v680h456z" />
    <glyph glyph-name="Zeta" unicode="&#x396;" horiz-adv-x="587" 
d="M541 680v-100l-333 -462v-2h333v-116h-504v100l332 462v2h-311v116h483z" />
    <glyph glyph-name="Eta" unicode="&#x397;" horiz-adv-x="722" 
d="M504 285h-286v-285h-139v680h139v-279h286v279h139v-680h-139v285z" />
    <glyph glyph-name="Theta" unicode="&#x398;" horiz-adv-x="748" 
d="M252 285v116h240v-116h-240zM192 340q0 -50 9.5 -93.5t31.5 -75t56.5 -49.5t85.5 -18q50 0 85 18t56.5 49.5t31 75t9.5 93.5t-9.5 93.5t-31 75t-56.5 49.5t-85 18q-51 0 -85.5 -18t-56.5 -49.5t-31.5 -75t-9.5 -93.5zM702 340q0 -74 -19.5 -139t-59.5 -113t-102 -75.5
t-146 -27.5q-85 0 -147 27.5t-102 75.5t-59.5 113t-19.5 139t19.5 139t59.5 113t102 75.5t147 27.5q84 0 146 -27.5t102 -75.5t59.5 -113t19.5 -139z" />
    <glyph glyph-name="Iota" unicode="&#x399;" horiz-adv-x="297" 
d="M218 0h-139v680h139v-680z" />
    <glyph glyph-name="Kappa" unicode="&#x39a;" horiz-adv-x="643" 
d="M218 304v-304h-139v680h139v-329h2l248 329h154v-10l-260 -337l273 -323v-10h-162l-253 304h-2z" />
    <glyph glyph-name="Lambda" unicode="&#x39b;" horiz-adv-x="650" 
d="M156 0h-152l240 680h162l240 -680h-153l-167 523h-3z" />
    <glyph glyph-name="Mu" unicode="&#x39c;" horiz-adv-x="842" 
d="M422 316l207 364h134v-680h-139v442h-2l-146 -271h-110l-146 271h-2v-442h-139v680h134l207 -364h2z" />
    <glyph glyph-name="Nu" unicode="&#x39d;" horiz-adv-x="736" 
d="M518 211v469h139v-680h-147l-289 469h-3v-469h-139v680h147l289 -469h3z" />
    <glyph glyph-name="Xi" unicode="&#x39e;" horiz-adv-x="587" 
d="M533 124v-124h-479v124h479zM87 281v124h410v-124h-410zM54 556v124h476v-124h-476z" />
    <glyph glyph-name="Omicron" unicode="&#x39f;" horiz-adv-x="749" 
d="M192 340q0 -50 9.5 -93.5t31.5 -75t56.5 -49.5t85.5 -18q50 0 85 18t56.5 49.5t31 75t9.5 93.5t-9.5 93.5t-31 75t-56.5 49.5t-85 18q-51 0 -85.5 -18t-56.5 -49.5t-31.5 -75t-9.5 -93.5zM702 340q0 -74 -19.5 -139t-59.5 -113t-102 -75.5t-146 -27.5q-85 0 -147 27.5
t-102 75.5t-59.5 113t-19.5 139t19.5 139t59.5 113t102 75.5t147 27.5q84 0 146 -27.5t102 -75.5t59.5 -113t19.5 -139z" />
    <glyph glyph-name="Pi" unicode="&#x3a0;" horiz-adv-x="722" 
d="M504 564h-286v-564h-139v680h564v-680h-139v564z" />
    <glyph glyph-name="Rho" unicode="&#x3a1;" horiz-adv-x="596" 
d="M79 0v680h259q62 0 105.5 -17t71 -47t40 -71t12.5 -90t-13 -90.5t-40.5 -71.5t-71 -47t-104.5 -17h-120v-229h-139zM218 345h110q51 0 72.5 31t21.5 79t-21.5 78.5t-72.5 30.5h-110v-219z" />
    <glyph glyph-name="Sigma" unicode="&#x3a3;" horiz-adv-x="599" 
d="M40 103l174 243l-158 230v104h494v-116h-338l153 -214l-170 -234h355v-116h-510v103z" />
    <glyph glyph-name="Tau" unicode="&#x3a4;" horiz-adv-x="568" 
d="M545 680v-116h-192v-564h-139v564h-191v116h522z" />
    <glyph glyph-name="Upsilon" unicode="&#x3a5;" horiz-adv-x="604" 
d="M149 680l151 -280h2l151 280h152v-10l-234 -396v-274h-139v274l-235 396v10h152z" />
    <glyph glyph-name="Phi" unicode="&#x3a6;" horiz-adv-x="820" 
d="M481 620q83 -7 141 -30.5t95 -60.5t53.5 -85t16.5 -104t-16.5 -104t-53.5 -85t-95 -60.5t-141 -30.5v-60h-139v59q-84 7 -143 30.5t-96 60.5t-54 85t-17 105q0 56 17 104.5t54 85t96 60t143 30.5v60h139v-60zM177 340q0 -34 7.5 -63.5t26.5 -52.5t51 -38.5t80 -21.5v352
q-48 -6 -80 -22t-51 -39t-26.5 -52t-7.5 -63zM642 340q0 34 -7.5 63t-26 52t-49.5 38.5t-78 21.5v-351q47 7 78 22.5t49.5 38.5t26 52t7.5 63z" />
    <glyph glyph-name="Chi" unicode="&#x3a7;" horiz-adv-x="624" 
d="M172 680l139 -256h2l140 256h150v-10l-192 -329l192 -331v-10h-152l-138 257h-2l-138 -257h-152v10l191 331l-191 329v10h151z" />
    <glyph glyph-name="Psi" unicode="&#x3a8;" horiz-adv-x="762" 
d="M451 269q67 4 95 41.5t28 121.5v248h139v-248q0 -134 -62 -205t-200 -77v-150h-139v150q-69 2 -119 21.5t-82 55t-47 87t-15 118.5v248h139v-248q0 -85 28 -122t96 -41v411h139v-411z" />
    <glyph glyph-name="uni03A9" unicode="&#x3a9;" horiz-adv-x="771" 
d="M55 116h142q-27 15 -52 39t-44 57.5t-30.5 76.5t-11.5 95q0 58 19.5 113.5t59.5 99.5t102 71t147 27q84 0 146 -27t102.5 -71t60 -99.5t19.5 -113.5q0 -52 -11.5 -94.5t-30.5 -76t-44.5 -58t-52.5 -39.5h142v-116h-288v102q31 20 56.5 44t44 55.5t28.5 72t10 91.5
q0 41 -9.5 79t-31 67.5t-56.5 47t-85 17.5q-51 0 -85.5 -17.5t-56.5 -47t-31.5 -67.5t-9.5 -79q0 -51 10 -91.5t28.5 -72t44 -55.5t56.5 -44v-102h-288v116z" />
    <glyph glyph-name="Iotadieresis" unicode="&#x3aa;" horiz-adv-x="297" 
d="M218 0h-139v680h139v-680zM-61 819q0 32 21.5 53t56.5 21q36 0 57.5 -21t21.5 -53t-21.5 -53t-57.5 -21q-35 0 -56.5 21t-21.5 53zM200 819q0 32 21.5 53t56.5 21q36 0 57.5 -21t21.5 -53t-21.5 -53t-57.5 -21q-35 0 -56.5 21t-21.5 53z" />
    <glyph glyph-name="Upsilondieresis" unicode="&#x3ab;" horiz-adv-x="604" 
d="M149 680l151 -280h2l151 280h152v-10l-234 -396v-274h-139v274l-235 396v10h152zM93 819q0 32 21.5 53t56.5 21q36 0 57.5 -21t21.5 -53t-21.5 -53t-57.5 -21q-35 0 -56.5 21t-21.5 53zM354 819q0 32 21.5 53t56.5 21q36 0 57.5 -21t21.5 -53t-21.5 -53t-57.5 -21
q-35 0 -56.5 21t-21.5 53z" />
    <glyph glyph-name="alphatonos" unicode="&#x3ac;" horiz-adv-x="621" 
d="M584 0h-135l-14 83h-2q-8 -17 -22 -34.5t-34.5 -31.5t-47.5 -23t-61 -9q-51 0 -93.5 18t-72.5 51.5t-47 81t-17 105.5t17 105.5t47 81t72.5 51.5t93.5 18q34 0 61 -9t47.5 -23t34.5 -31.5t22 -34.5h2l14 83h135l-68 -240zM396 241q-9 32 -21 59t-27 46t-32.5 29.5
t-38.5 10.5q-23 0 -41.5 -10t-31.5 -28.5t-20.5 -45.5t-7.5 -61t7.5 -61t20.5 -45.5t31.5 -28.5t41.5 -10q21 0 38.5 10.5t32.5 29.5t27 46t21 59zM430 716l-56 -157h-116v10l32 156h140v-9z" />
    <glyph glyph-name="epsilontonos" unicode="&#x3ad;" horiz-adv-x="495" 
d="M385 191h-136q-38 0 -55.5 -11t-17.5 -34t22.5 -36.5t76.5 -13.5q43 0 90 8.5t80 22.5l23 -105q-37 -16 -85.5 -26.5t-107.5 -10.5q-64 0 -109 10.5t-73.5 29.5t-41.5 45.5t-13 58.5q0 48 22.5 78t64.5 44v2q-32 12 -51 37.5t-19 68.5q0 65 51.5 102.5t169.5 37.5
q45 0 93 -9.5t85 -23.5l-26 -103q-34 11 -77 18t-76 7q-48 0 -65.5 -13.5t-17.5 -34.5q0 -11 3.5 -19.5t11.5 -14.5t20 -9t30 -3h128v-103zM406 716l-56 -157h-116v10l32 156h140v-9z" />
    <glyph glyph-name="etatonos" unicode="&#x3ae;" horiz-adv-x="581" 
d="M171 482l18 -47h2q10 9 25 20t34 20.5t43 15.5t52 6q85 0 131.5 -53t46.5 -140v-502h-135v488q0 47 -21 71.5t-65 24.5q-17 0 -32.5 -4t-28.5 -10.5t-24 -13.5t-19 -13v-345h-135v482h108zM433 716l-56 -157h-116v10l32 156h140v-9z" />
    <glyph glyph-name="iotatonos" unicode="&#x3af;" horiz-adv-x="303" 
d="M199 482v-339q0 -23 10.5 -35t32.5 -12q9 0 20 1.5t23 5.5v-110q-14 -3 -36 -5.5t-46 -2.5q-67 0 -103 35.5t-36 110.5v351h135zM250 716l-56 -157h-116v10l32 156h140v-9z" />
    <glyph glyph-name="upsilondieresistonos" unicode="&#x3b0;" horiz-adv-x="565" 
d="M192 213q0 -59 23.5 -88t73.5 -29q43 0 70 34t27 109q0 60 -12 120t-31 123h138q8 -28 15.5 -55.5t13 -56.5t8.5 -61.5t3 -69.5q0 -133 -61.5 -193.5t-170.5 -60.5q-115 0 -173.5 57t-58.5 156v284h135v-269zM381 716l-56 -157h-116v10l32 156h140v-9z" />
    <glyph glyph-name="alpha" unicode="&#x3b1;" horiz-adv-x="621" 
d="M584 0h-135l-14 83h-2q-8 -17 -22 -34.5t-34.5 -31.5t-47.5 -23t-61 -9q-51 0 -93.5 18t-72.5 51.5t-47 81t-17 105.5t17 105.5t47 81t72.5 51.5t93.5 18q34 0 61 -9t47.5 -23t34.5 -31.5t22 -34.5h2l14 83h135l-68 -240zM396 241q-9 32 -21 59t-27 46t-32.5 29.5
t-38.5 10.5q-23 0 -41.5 -10t-31.5 -28.5t-20.5 -45.5t-7.5 -61t7.5 -61t20.5 -45.5t31.5 -28.5t41.5 -10q21 0 38.5 10.5t32.5 29.5t27 46t21 59z" />
    <glyph glyph-name="beta" unicode="&#x3b2;" horiz-adv-x="587" 
d="M198 23v-221h-135v671q0 121 58.5 176.5t172.5 55.5q48 0 86.5 -14t64.5 -39t40 -60.5t14 -77.5q0 -28 -8 -50.5t-20.5 -40t-28.5 -30.5t-32 -20v-2q25 -7 50 -21t45 -36t33 -51.5t13 -67.5q0 -54 -17.5 -93.5t-48 -65.5t-71.5 -38.5t-87 -12.5q-39 0 -72 10.5t-55 27.5
h-2zM198 127q16 -14 42.5 -22.5t61.5 -8.5q54 0 82.5 26.5t28.5 82.5q0 48 -32.5 76.5t-100.5 28.5h-30v103h29q38 0 60 23t22 69q0 37 -19.5 63t-60.5 26q-38 0 -60.5 -24.5t-22.5 -93.5v-349z" />
    <glyph glyph-name="gamma" unicode="&#x3b3;" horiz-adv-x="534" 
d="M192 -198v201l-180 469v10h136l111 -345h2q22 42 40.5 82.5t33 82t26.5 86t21 94.5h136v-10q-23 -112 -72.5 -230.5t-118.5 -243.5v-196h-135z" />
    <glyph glyph-name="delta" unicode="&#x3b4;" horiz-adv-x="580" 
d="M436 585q-14 3 -37.5 6t-40.5 3q-14 0 -27.5 -2t-25 -7t-18.5 -14t-7 -22q0 -18 19.5 -35.5t49 -38t64 -45t64 -56t49 -71.5t19.5 -92q0 -41 -16.5 -81.5t-49 -72.5t-81 -52t-113.5 -20q-60 0 -106.5 20t-78 52.5t-48 74t-16.5 85.5q0 86 45 143.5t116 92.5
q-20 20 -36 44.5t-16 55.5q0 39 16 68t43 47.5t61.5 27.5t71.5 9q10 0 24 -1l28 -2t26.5 -3t20.5 -3v-111zM407 211q0 31 -10.5 56.5t-28 46.5t-40 38.5t-46.5 34.5q-23 -15 -43 -32.5t-34.5 -38.5t-22.5 -46t-8 -55q0 -27 8 -48.5t23 -37.5t35.5 -24.5t44.5 -8.5
q28 0 51 8.5t38.5 24t24 36.5t8.5 46z" />
    <glyph glyph-name="epsilon" unicode="&#x3b5;" horiz-adv-x="495" 
d="M385 191h-136q-38 0 -55.5 -11t-17.5 -34t22.5 -36.5t76.5 -13.5q43 0 90 8.5t80 22.5l23 -105q-37 -16 -85.5 -26.5t-107.5 -10.5q-64 0 -109 10.5t-73.5 29.5t-41.5 45.5t-13 58.5q0 48 22.5 78t64.5 44v2q-32 12 -51 37.5t-19 68.5q0 65 51.5 102.5t169.5 37.5
q45 0 93 -9.5t85 -23.5l-26 -103q-34 11 -77 18t-76 7q-48 0 -65.5 -13.5t-17.5 -34.5q0 -11 3.5 -19.5t11.5 -14.5t20 -9t30 -3h128v-103z" />
    <glyph glyph-name="zeta" unicode="&#x3b6;" horiz-adv-x="466" 
d="M455 700v-87q-79 -89 -133.5 -150.5t-88 -105.5t-48.5 -74.5t-15 -55.5q0 -33 18.5 -53.5t46.5 -35.5t61 -28t61 -32t46.5 -47t18.5 -73q0 -21 -7 -41.5t-19 -39t-28 -34.5t-34 -29l-91 64q9 7 16.5 15t13 16.5t8.5 16.5t3 16q0 23 -18.5 38t-46.5 28.5t-61 28.5t-61 37
t-46.5 54.5t-18.5 80.5q0 44 17 84.5t50 85t80.5 96.5t107.5 120v2h-234v103h402z" />
    <glyph glyph-name="eta" unicode="&#x3b7;" horiz-adv-x="581" 
d="M171 482l18 -47h2q10 9 25 20t34 20.5t43 15.5t52 6q85 0 131.5 -53t46.5 -140v-502h-135v488q0 47 -21 71.5t-65 24.5q-17 0 -32.5 -4t-28.5 -10.5t-24 -13.5t-19 -13v-345h-135v482h108z" />
    <glyph glyph-name="theta" unicode="&#x3b8;" horiz-adv-x="587" 
d="M542 345q0 -82 -13 -148.5t-42.5 -113.5t-77 -72.5t-115.5 -25.5q-69 0 -116.5 25.5t-77 72.5t-43 113.5t-13.5 148.5t13.5 148.5t43 113.5t77 72.5t116.5 25.5q68 0 115.5 -25.5t77 -72.5t42.5 -113.5t13 -148.5zM294 594q-28 0 -48.5 -13.5t-34.5 -39.5t-22 -63
t-10 -85h228q-2 48 -9.5 85t-21.5 63t-34 39.5t-48 13.5zM294 96q27 0 47.5 13t34 38.5t21 62.5t9.5 84h-227q3 -47 10.5 -84t21.5 -62.5t34.5 -38.5t48.5 -13z" />
    <glyph glyph-name="iota" unicode="&#x3b9;" horiz-adv-x="303" 
d="M199 482v-339q0 -23 10.5 -35t32.5 -12q9 0 20 1.5t23 5.5v-110q-14 -3 -36 -5.5t-46 -2.5q-67 0 -103 35.5t-36 110.5v351h135z" />
    <glyph glyph-name="kappa" unicode="&#x3ba;" horiz-adv-x="534" 
d="M196 211v-211h-133v482h133v-230h2l171 230h145v-7l-188 -237l197 -231v-7h-149l-176 211h-2z" />
    <glyph glyph-name="lambda" unicode="&#x3bb;" horiz-adv-x="531" 
d="M519 0h-140l-110 328h-3l-116 -328h-140v10l194 467l-26 71q-9 24 -22 35t-37 11q-8 0 -20 -1.5t-22 -3.5v107q11 3 24 6t42 3q25 0 47 -6t41 -19.5t34.5 -34.5t26.5 -51l227 -584v-10z" />
    <glyph glyph-name="uni03BC" unicode="&#x3bc;" horiz-adv-x="580" 
d="M64 -198v680h135v-290q0 -47 19 -71.5t63 -24.5q17 0 32 4t28 10.5t23.5 13.5t18.5 13v345h135v-482h-109l-18 47h-2q-10 -9 -24 -20t-31 -20.5t-36.5 -15.5t-41.5 -6q-16 0 -31.5 4.5t-25.5 11.5v-199h-135z" />
    <glyph glyph-name="nu" unicode="&#x3bd;" horiz-adv-x="536" 
d="M519 472q-23 -114 -68.5 -229.5t-116.5 -242.5h-146l-175 472v10h136l111 -345h2q22 42 40.5 82.5t33 82t26.5 86t21 94.5h136v-10z" />
    <glyph glyph-name="xi" unicode="&#x3be;" horiz-adv-x="484" 
d="M127 597h-104v103h437v-103h-137q-33 0 -56.5 -7t-39.5 -20t-23.5 -31t-7.5 -40q0 -23 7.5 -41.5t23 -32t40 -20.5t57.5 -7h76v-103h-74q-41 0 -69.5 -5.5t-46.5 -17t-26 -29t-8 -40.5q0 -31 20.5 -49t52 -30.5t67.5 -23.5t67.5 -28t52 -43t20.5 -68q0 -43 -27.5 -82
t-65.5 -65l-91 64q9 7 17 15t14.5 16.5t10.5 16.5t4 16q0 22 -20.5 36t-52 25.5t-67.5 23.5t-67.5 32t-52 51t-20.5 79q0 67 36.5 106.5t92.5 57.5v2q-20 6 -39 17.5t-35 28.5t-25.5 38.5t-9.5 47.5q0 36 18.5 64.5t50.5 43.5v2z" />
    <glyph glyph-name="omicron" unicode="&#x3bf;" horiz-adv-x="583" 
d="M175 241q0 -36 8.5 -63.5t23.5 -45.5t36.5 -27t47.5 -9q27 0 48.5 9t36.5 27t23.5 45.5t8.5 63.5t-8.5 63.5t-23.5 45.5t-36.5 27t-48.5 9q-26 0 -47.5 -9t-36.5 -27t-23.5 -45.5t-8.5 -63.5zM546 241q0 -53 -16 -99.5t-48.5 -81t-80 -55t-110.5 -20.5q-62 0 -109.5 20.5
t-79.5 55t-48.5 81t-16.5 99.5q0 52 16.5 99t48.5 81.5t79.5 55t109.5 20.5q63 0 110.5 -20.5t80 -55t48.5 -81.5t16 -99z" />
    <glyph glyph-name="pi" unicode="&#x3c0;" horiz-adv-x="620" 
d="M605 482v-103h-96v-236q0 -23 10.5 -35t32.5 -12q9 0 20 1.5t23 5.5v-110q-14 -3 -36 -5.5t-46 -2.5q-67 0 -103 35.5t-36 110.5v248h-139v-379h-135v379h-98v103h603z" />
    <glyph glyph-name="rho" unicode="&#x3c1;" horiz-adv-x="581" 
d="M191 130q16 -14 42.5 -24t54.5 -10q32 0 54.5 10.5t36.5 29.5t20 46t6 59t-6 59t-20 46t-36.5 29.5t-54.5 10.5q-45 0 -71 -31t-26 -88v-137zM56 -198v462q0 60 17.5 104t48.5 72.5t73.5 42.5t92.5 14q67 0 115 -20.5t79 -55t46 -81.5t15 -99q0 -53 -14.5 -99.5
t-42.5 -81t-70 -55t-97 -20.5q-44 0 -75 13t-51 32h-2v-228h-135z" />
    <glyph glyph-name="sigma1" unicode="&#x3c2;" horiz-adv-x="465" 
d="M417 365q-21 8 -47 14.5t-61 6.5q-27 0 -51 -8t-42 -26t-28.5 -47t-10.5 -71q0 -35 18 -56t45.5 -36t59.5 -28t59.5 -31.5t45.5 -47t18 -74.5q0 -21 -7 -42t-19 -40t-28 -35.5t-34 -29.5l-91 64q9 7 16.5 15t13 16.5t8.5 16.5t3 16q0 22 -18.5 35.5t-45.5 26.5
t-59.5 28.5t-59.5 41t-45.5 65.5t-18.5 101q0 58 17 105.5t49.5 81.5t80 52t109.5 18q44 0 85 -10t65 -19l-27 -103v0z" />
    <glyph glyph-name="sigma" unicode="&#x3c3;" horiz-adv-x="601" 
d="M473 377q35 -22 54 -67.5t19 -94.5q0 -44 -16 -85.5t-48.5 -73.5t-80 -51.5t-110.5 -19.5q-62 0 -109.5 19.5t-79.5 53.5t-48.5 79.5t-16.5 96.5t16.5 96.5t48.5 79t79.5 53t109.5 19.5h277v-103h-95v-2zM175 234q0 -35 8.5 -61t23.5 -43t36.5 -25.5t47.5 -8.5
q27 0 48.5 8.5t36.5 25.5t23.5 43t8.5 61t-8.5 61t-23.5 43t-36.5 25t-48.5 8q-26 0 -47.5 -8t-36.5 -25t-23.5 -43t-8.5 -61z" />
    <glyph glyph-name="tau" unicode="&#x3c4;" horiz-adv-x="487" 
d="M457 482v-103h-162v-228q0 -26 9 -40.5t38 -14.5q17 0 39 4.5t39 9.5v-110q-15 -4 -46.5 -9.5t-66.5 -5.5q-80 0 -113.5 34t-33.5 107v253h-140v103h437z" />
    <glyph glyph-name="upsilon" unicode="&#x3c5;" horiz-adv-x="565" 
d="M192 213q0 -59 23.5 -88t73.5 -29q43 0 70 34t27 109q0 60 -12 120t-31 123h138q8 -28 15.5 -55.5t13 -56.5t8.5 -61.5t3 -69.5q0 -133 -61.5 -193.5t-170.5 -60.5q-115 0 -173.5 57t-58.5 156v284h135v-269z" />
    <glyph glyph-name="phi" unicode="&#x3c6;" horiz-adv-x="724" 
d="M235 482q-14 -30 -25 -60.5t-18.5 -60.5t-11.5 -59t-4 -57q0 -32 6 -57.5t20 -43.5t36 -30t54 -17v183q0 109 48 163t140 54q57 0 96 -22.5t63.5 -57.5t35.5 -77.5t11 -83.5q0 -53 -14.5 -97.5t-45.5 -78.5t-80 -56.5t-119 -30.5v-191h-135v189q-68 7 -116 29t-78 55.5
t-43.5 76.5t-13.5 93q0 35 4.5 66.5t12 60t17.5 56t21 54.5h139zM427 98q33 6 56 18t37.5 31.5t21 46.5t6.5 62q0 26 -4 49.5t-12 41.5t-20.5 28.5t-28.5 10.5q-15 0 -25.5 -6.5t-17.5 -20.5t-10 -36.5t-3 -54.5v-170z" />
    <glyph glyph-name="chi" unicode="&#x3c7;" horiz-adv-x="531" 
d="M148 482l118 -246h1l119 246h139v-10l-173 -329l173 -331v-10h-141l-117 247h-1l-117 -247h-141v10l172 331l-172 329v10h140z" />
    <glyph glyph-name="psi" unicode="&#x3c8;" horiz-adv-x="740" 
d="M440 93q24 0 46 8.5t39.5 26.5t27.5 45.5t10 65.5q0 60 -14 120t-34 123h139q9 -28 17 -55.5t14 -56.5t9.5 -61.5t3.5 -69.5q0 -66 -17.5 -113.5t-51 -78t-81.5 -45t-108 -14.5v-186h-135v186q-62 0 -108 14.5t-77.5 41.5t-47 66t-15.5 88v284h135v-274q0 -65 29.5 -90
t83.5 -25v607h135v-607z" />
    <glyph glyph-name="omega" unicode="&#x3c9;" horiz-adv-x="825" 
d="M711 482q14 -28 27 -55.5t23.5 -56.5t16.5 -61.5t6 -69.5q0 -133 -58.5 -193.5t-161.5 -60.5q-56 0 -93.5 30t-57.5 69h-2q-19 -39 -57 -69t-94 -30q-103 0 -161 60.5t-58 193.5q0 37 6 69.5t16.5 61.5t23.5 56.5t27 55.5h144v-10q-37 -60 -59.5 -117t-22.5 -116
q0 -75 23.5 -109t60.5 -34q38 0 61.5 29t23.5 88v146h135v-152q0 -56 24 -83.5t60 -27.5q38 0 61.5 34t23.5 109q0 59 -22.5 116t-59.5 117v10h144z" />
    <glyph glyph-name="iotadieresis" unicode="&#x3ca;" horiz-adv-x="303" 
d="M199 482v-339q0 -23 10.5 -35t32.5 -12q9 0 20 1.5t23 5.5v-110q-14 -3 -36 -5.5t-46 -2.5q-67 0 -103 35.5t-36 110.5v351h135zM-53 640q0 32 21.5 53t56.5 21q36 0 57.5 -21t21.5 -53t-21.5 -53t-57.5 -21q-35 0 -56.5 21t-21.5 53zM167 640q0 32 21.5 53t56.5 21
q36 0 57.5 -21t21.5 -53t-21.5 -53t-57.5 -21q-35 0 -56.5 21t-21.5 53z" />
    <glyph glyph-name="upsilondieresis" unicode="&#x3cb;" horiz-adv-x="565" 
d="M192 213q0 -59 23.5 -88t73.5 -29q43 0 70 34t27 109q0 60 -12 120t-31 123h138q8 -28 15.5 -55.5t13 -56.5t8.5 -61.5t3 -69.5q0 -133 -61.5 -193.5t-170.5 -60.5q-115 0 -173.5 57t-58.5 156v284h135v-269zM90 640q0 32 21.5 53t56.5 21q36 0 57.5 -21t21.5 -53
t-21.5 -53t-57.5 -21q-35 0 -56.5 21t-21.5 53zM310 640q0 32 21.5 53t56.5 21q36 0 57.5 -21t21.5 -53t-21.5 -53t-57.5 -21q-35 0 -56.5 21t-21.5 53z" />
    <glyph glyph-name="omicrontonos" unicode="&#x3cc;" horiz-adv-x="583" 
d="M175 241q0 -36 8.5 -63.5t23.5 -45.5t36.5 -27t47.5 -9q27 0 48.5 9t36.5 27t23.5 45.5t8.5 63.5t-8.5 63.5t-23.5 45.5t-36.5 27t-48.5 9q-26 0 -47.5 -9t-36.5 -27t-23.5 -45.5t-8.5 -63.5zM546 241q0 -53 -16 -99.5t-48.5 -81t-80 -55t-110.5 -20.5q-62 0 -109.5 20.5
t-79.5 55t-48.5 81t-16.5 99.5q0 52 16.5 99t48.5 81.5t79.5 55t109.5 20.5q63 0 110.5 -20.5t80 -55t48.5 -81.5t16 -99zM413 716l-56 -157h-116v10l32 156h140v-9z" />
    <glyph glyph-name="upsilontonos" unicode="&#x3cd;" horiz-adv-x="565" 
d="M192 213q0 -59 23.5 -88t73.5 -29q43 0 70 34t27 109q0 60 -12 120t-31 123h138q8 -28 15.5 -55.5t13 -56.5t8.5 -61.5t3 -69.5q0 -133 -61.5 -193.5t-170.5 -60.5q-115 0 -173.5 57t-58.5 156v284h135v-269zM393 716l-56 -157h-116v10l32 156h140v-9z" />
    <glyph glyph-name="omegatonos" unicode="&#x3ce;" horiz-adv-x="825" 
d="M711 482q14 -28 27 -55.5t23.5 -56.5t16.5 -61.5t6 -69.5q0 -133 -58.5 -193.5t-161.5 -60.5q-56 0 -93.5 30t-57.5 69h-2q-19 -39 -57 -69t-94 -30q-103 0 -161 60.5t-58 193.5q0 37 6 69.5t16.5 61.5t23.5 56.5t27 55.5h144v-10q-37 -60 -59.5 -117t-22.5 -116
q0 -75 23.5 -109t60.5 -34q38 0 61.5 29t23.5 88v146h135v-152q0 -56 24 -83.5t60 -27.5q38 0 61.5 34t23.5 109q0 59 -22.5 116t-59.5 117v10h144zM535 716l-56 -157h-116v10l32 156h140v-9z" />
    <glyph glyph-name="uni0400" unicode="&#x400;" 
d="M535 680v-116h-317v-163h284v-116h-284v-169h320v-116h-459v680h456zM170 896h152l59 -136v-10h-128l-83 137v9z" />
    <glyph glyph-name="uni0401" unicode="&#x401;" 
d="M535 680v-116h-317v-163h284v-116h-284v-169h320v-116h-459v680h456zM96 819q0 32 21.5 53t56.5 21q36 0 57.5 -21t21.5 -53t-21.5 -53t-57.5 -21q-35 0 -56.5 21t-21.5 53zM357 819q0 32 21.5 53t56.5 21q36 0 57.5 -21t21.5 -53t-21.5 -53t-57.5 -21q-35 0 -56.5 21
t-21.5 53z" />
    <glyph glyph-name="uni0402" unicode="&#x402;" horiz-adv-x="707" 
d="M410 -63q21 24 43 54t40 63t29.5 68t11.5 70q0 23 -5.5 44t-18.5 36.5t-34.5 24.5t-53.5 9t-63 -5.5t-61 -13.5v-287h-139v564h-137v116h472v-116h-196v-161q29 8 67 13.5t78 5.5q59 0 103 -17t73.5 -47.5t44.5 -72.5t15 -93q0 -52 -17 -100.5t-42.5 -91t-54 -78.5
t-51.5 -62z" />
    <glyph glyph-name="uni0403" unicode="&#x403;" horiz-adv-x="557" 
d="M535 680v-116h-317v-564h-139v680h456zM452 887l-83 -137h-128v10l59 136h152v-9z" />
    <glyph glyph-name="uni0404" unicode="&#x404;" horiz-adv-x="604" 
d="M46 340q0 79 21.5 144.5t63.5 112.5t104 72.5t142 25.5q47 0 96.5 -11t96.5 -33l-37 -110q-43 19 -78.5 27t-77.5 8q-78 0 -124 -48.5t-58 -129.5h267v-116h-267q12 -82 58 -130t124 -48q42 0 77.5 8t78.5 27l37 -110q-47 -22 -96.5 -33t-96.5 -11q-80 0 -142 25.5
t-104 72.5t-63.5 112t-21.5 145z" />
    <glyph glyph-name="uni0405" unicode="&#x405;" horiz-adv-x="561" 
d="M81 159q16 -10 38.5 -20t48 -18.5t52 -13.5t49.5 -5q56 0 84 21.5t28 64.5q0 16 -5 28.5t-16.5 22t-29.5 18t-45 17.5l-73 24q-81 26 -121 75t-40 114q0 46 16 84.5t47 66t77 42.5t107 15q21 0 46 -3.5t51.5 -9.5t53 -15t50.5 -21l-42 -111q-37 18 -82 30.5t-77 12.5
q-56 0 -80.5 -21.5t-24.5 -57.5q0 -26 14.5 -45.5t55.5 -32.5l71 -23q48 -15 83.5 -33.5t59 -42t35 -53.5t11.5 -69q0 -50 -17.5 -90t-50.5 -68t-80 -42.5t-106 -14.5q-31 0 -63.5 5.5t-62.5 15t-57 21t-48 23.5z" />
    <glyph glyph-name="uni0406" unicode="&#x406;" horiz-adv-x="297" 
d="M218 0h-139v680h139v-680z" />
    <glyph glyph-name="uni0407" unicode="&#x407;" horiz-adv-x="297" 
d="M218 0h-139v680h139v-680zM-61 819q0 32 21.5 53t56.5 21q36 0 57.5 -21t21.5 -53t-21.5 -53t-57.5 -21q-35 0 -56.5 21t-21.5 53zM200 819q0 32 21.5 53t56.5 21q36 0 57.5 -21t21.5 -53t-21.5 -53t-57.5 -21q-35 0 -56.5 21t-21.5 53z" />
    <glyph glyph-name="uni0408" unicode="&#x408;" horiz-adv-x="482" 
d="M70 156q12 -11 23.5 -20t25 -16.5t29.5 -11.5t36 -4q24 0 40 9t26 24.5t14.5 35.5t4.5 43v464h139v-473q0 -111 -59.5 -166.5t-164.5 -55.5q-61 0 -104 22t-73 49z" />
    <glyph glyph-name="uni0409" unicode="&#x409;" horiz-adv-x="1009" 
d="M596 680v-250h141q118 0 177.5 -55t59.5 -161q0 -104 -59.5 -159t-177.5 -55h-280v564h-177l-13 -208q-5 -80 -14.5 -138t-25 -99t-36 -66t-47 -39t-60 -19t-73.5 -5v119q27 0 48.5 7t37.5 33t26 76.5t14 138.5l14 316h445zM596 116h131q54 0 78 26t24 72
q0 47 -23.5 73.5t-78.5 26.5h-131v-198z" />
    <glyph glyph-name="uni040A" unicode="&#x40a;" horiz-adv-x="1027" 
d="M614 680v-250h141q118 0 177.5 -55t59.5 -161q0 -104 -59.5 -159t-177.5 -55h-280v314h-257v-314h-139v680h139v-250h257v250h139zM614 116h131q54 0 78 26t24 72q0 47 -23.5 73.5t-78.5 26.5h-131v-198z" />
    <glyph glyph-name="uni040B" unicode="&#x40b;" horiz-adv-x="721" 
d="M537 0v255q0 46 -24.5 70.5t-80.5 24.5q-21 0 -41 -2.5t-37.5 -6t-31.5 -8.5t-24 -9v-324h-139v564h-137v116h472v-116h-196v-126q30 11 73 20t100 9q48 0 86.5 -14t64.5 -39.5t40 -61.5t14 -79v-273h-139z" />
    <glyph glyph-name="uni040C" unicode="&#x40c;" horiz-adv-x="643" 
d="M218 304v-304h-139v680h139v-329h2l248 329h154v-10l-260 -337l273 -323v-10h-162l-253 304h-2zM477 887l-83 -137h-128v10l59 136h152v-9z" />
    <glyph glyph-name="uni040D" unicode="&#x40d;" horiz-adv-x="726" 
d="M221 201l269 479h157v-680h-139v479h-3l-269 -479h-157v680h139v-479h3zM219 896h152l59 -136v-10h-128l-83 137v9z" />
    <glyph glyph-name="uni040E" unicode="&#x40e;" horiz-adv-x="569" 
d="M567 670l-212 -505q-21 -50 -43.5 -82t-50 -50.5t-63 -25.5t-82.5 -7h-42v116h31q23 0 40.5 2t31 8t23.5 18.5t19 33.5l10 25l-217 467v10h153l129 -326h3l123 326h147v-10zM297 858q42 0 74.5 7t58.5 27l42 -64q-26 -38 -68.5 -57.5t-106.5 -19.5q-63 0 -105 19.5
t-68 57.5l42 64q26 -19 58.5 -26.5t72.5 -7.5z" />
    <glyph glyph-name="uni040F" unicode="&#x40f;" horiz-adv-x="712" 
d="M306 -141l-12 141h-215v680h139v-564h276v564h139v-680h-215l-11 -141h-101z" />
    <glyph glyph-name="uni0410" unicode="&#x410;" horiz-adv-x="668" 
d="M665 0h-153l-45 140h-266l-46 -140h-152l250 680h162zM332 538l-93 -286h189l-93 286h-3z" />
    <glyph glyph-name="uni0411" unicode="&#x411;" horiz-adv-x="634" 
d="M544 680v-116h-326v-134h141q118 0 177.5 -55t59.5 -161q0 -104 -59.5 -159t-177.5 -55h-280v680h465zM218 116h131q54 0 78 26t24 72q0 47 -23.5 73.5t-78.5 26.5h-131v-198z" />
    <glyph glyph-name="uni0412" unicode="&#x412;" horiz-adv-x="652" 
d="M218 116h129q31 0 53.5 5t36.5 16t20.5 27.5t6.5 39.5q0 46 -27.5 68t-95.5 22h-123v-178zM328 680q124 0 188 -43.5t64 -140.5q0 -55 -26 -90t-62 -51v-2q55 -19 86 -57.5t31 -101.5q0 -96 -59 -145t-191 -49h-280v680h249zM218 404h104q30 0 51.5 4t35 13t20 24t6.5 38
t-6 38.5t-19.5 25t-35.5 13.5t-54 4h-102v-160z" />
    <glyph glyph-name="uni0413" unicode="&#x413;" horiz-adv-x="557" 
d="M535 680v-116h-317v-564h-139v680h456z" />
    <glyph glyph-name="uni0414" unicode="&#x414;" horiz-adv-x="730" 
d="M25 -141l-20 257h62q19 24 32.5 53t23.5 65t15.5 79.5t8.5 95.5l14 271h455v-564h78l-20 -257h-101l-10 141h-428l-9 -141h-101zM477 116v448h-189l-10 -156q-3 -53 -7.5 -97.5t-11.5 -80.5t-16 -64.5t-22 -49.5h256z" />
    <glyph glyph-name="uni0415" unicode="&#x415;" 
d="M535 680v-116h-317v-163h284v-116h-284v-169h320v-116h-459v680h456z" />
    <glyph glyph-name="uni0416" unicode="&#x416;" horiz-adv-x="990" 
d="M423 304l-253 -304h-162v10l274 324l-261 336v10h156l246 -329h2v329h140v-329h2l246 329h156v-10l-261 -336l274 -324v-10h-162l-253 304h-2v-304h-140v304h-2z" />
    <glyph glyph-name="uni0417" unicode="&#x417;" horiz-adv-x="560" 
d="M131 401h116q59 0 83.5 25t24.5 64t-26 62.5t-82 23.5q-38 0 -82 -9t-82 -25l-40 108q21 10 46 18.5t52 14.5t54 9t52 3q126 0 189.5 -51t63.5 -142q0 -30 -9 -54.5t-24 -43t-33 -31t-36 -18.5v-2q51 -18 85.5 -60.5t34.5 -109.5q0 -45 -17.5 -81.5t-51.5 -62.5t-85 -40
t-117 -14q-75 0 -126.5 14t-93.5 37l37 110q38 -20 82 -31t101 -11q27 0 50 6t40 17t26.5 28t9.5 38q0 23 -6.5 40.5t-21.5 29t-39 17t-59 5.5h-116v116z" />
    <glyph glyph-name="uni0418" unicode="&#x418;" horiz-adv-x="726" 
d="M221 201l269 479h157v-680h-139v479h-3l-269 -479h-157v680h139v-479h3z" />
    <glyph glyph-name="uni0419" unicode="&#x419;" horiz-adv-x="726" 
d="M370 858q42 0 74.5 7t58.5 27l42 -64q-26 -38 -68.5 -57.5t-106.5 -19.5q-63 0 -105 19.5t-68 57.5l42 64q26 -19 58.5 -26.5t72.5 -7.5zM221 201l269 479h157v-680h-139v479h-3l-269 -479h-157v680h139v-479h3z" />
    <glyph glyph-name="uni041A" unicode="&#x41a;" horiz-adv-x="643" 
d="M218 304v-304h-139v680h139v-329h2l248 329h154v-10l-260 -337l273 -323v-10h-162l-253 304h-2z" />
    <glyph glyph-name="uni041B" unicode="&#x41b;" horiz-adv-x="715" 
d="M497 564h-217l-13 -208q-5 -80 -14.5 -138t-25 -99t-36 -66t-47 -39t-60 -19t-73.5 -5v119q27 0 48.5 7t37.5 33t26 76.5t14 138.5l14 316h485v-680h-139v564z" />
    <glyph glyph-name="uni041C" unicode="&#x41c;" horiz-adv-x="842" 
d="M422 316l207 364h134v-680h-139v442h-2l-146 -271h-110l-146 271h-2v-442h-139v680h134l207 -364h2z" />
    <glyph glyph-name="uni041D" unicode="&#x41d;" horiz-adv-x="722" 
d="M504 285h-286v-285h-139v680h139v-279h286v279h139v-680h-139v285z" />
    <glyph glyph-name="uni041E" unicode="&#x41e;" horiz-adv-x="749" 
d="M192 340q0 -50 9.5 -93.5t31.5 -75t56.5 -49.5t85.5 -18q50 0 85 18t56.5 49.5t31 75t9.5 93.5t-9.5 93.5t-31 75t-56.5 49.5t-85 18q-51 0 -85.5 -18t-56.5 -49.5t-31.5 -75t-9.5 -93.5zM702 340q0 -74 -19.5 -139t-59.5 -113t-102 -75.5t-146 -27.5q-85 0 -147 27.5
t-102 75.5t-59.5 113t-19.5 139t19.5 139t59.5 113t102 75.5t147 27.5q84 0 146 -27.5t102 -75.5t59.5 -113t19.5 -139z" />
    <glyph glyph-name="uni041F" unicode="&#x41f;" horiz-adv-x="722" 
d="M504 564h-286v-564h-139v680h564v-680h-139v564z" />
    <glyph glyph-name="uni0420" unicode="&#x420;" horiz-adv-x="596" 
d="M79 0v680h259q62 0 105.5 -17t71 -47t40 -71t12.5 -90t-13 -90.5t-40.5 -71.5t-71 -47t-104.5 -17h-120v-229h-139zM218 345h110q51 0 72.5 31t21.5 79t-21.5 78.5t-72.5 30.5h-110v-219z" />
    <glyph glyph-name="uni0421" unicode="&#x421;" horiz-adv-x="605" 
d="M46 340q0 79 21.5 144.5t63.5 112.5t104 72.5t142 25.5q47 0 96.5 -11t96.5 -33l-37 -110q-43 19 -78.5 27t-77.5 8q-45 0 -80 -17t-58.5 -48t-35.5 -74.5t-12 -96.5t12 -96.5t35.5 -74.5t58.5 -48t80 -17q42 0 77.5 8t78.5 27l37 -110q-47 -22 -96.5 -33t-96.5 -11
q-80 0 -142 25.5t-104 72.5t-63.5 112t-21.5 145z" />
    <glyph glyph-name="uni0422" unicode="&#x422;" horiz-adv-x="568" 
d="M545 680v-116h-192v-564h-139v564h-191v116h522z" />
    <glyph glyph-name="uni0423" unicode="&#x423;" horiz-adv-x="569" 
d="M567 670l-212 -505q-21 -50 -43.5 -82t-50 -50.5t-63 -25.5t-82.5 -7h-42v116h31q23 0 40.5 2t31 8t23.5 18.5t19 33.5l10 25l-217 467v10h153l129 -326h3l123 326h147v-10z" />
    <glyph glyph-name="uni0424" unicode="&#x424;" horiz-adv-x="820" 
d="M481 620q83 -7 141 -30.5t95 -60.5t53.5 -85t16.5 -104t-16.5 -104t-53.5 -85t-95 -60.5t-141 -30.5v-60h-139v59q-84 7 -143 30.5t-96 60.5t-54 85t-17 105q0 56 17 104.5t54 85t96 60t143 30.5v60h139v-60zM177 340q0 -34 7.5 -63.5t26.5 -52.5t51 -38.5t80 -21.5v352
q-48 -6 -80 -22t-51 -39t-26.5 -52t-7.5 -63zM642 340q0 34 -7.5 63t-26 52t-49.5 38.5t-78 21.5v-351q47 7 78 22.5t49.5 38.5t26 52t7.5 63z" />
    <glyph glyph-name="uni0425" unicode="&#x425;" horiz-adv-x="624" 
d="M172 680l139 -256h2l140 256h150v-10l-192 -329l192 -331v-10h-152l-138 257h-2l-138 -257h-152v10l191 331l-191 329v10h151z" />
    <glyph glyph-name="uni0426" unicode="&#x426;" horiz-adv-x="747" 
d="M590 -141l-10 141h-501v680h139v-564h276v564h139v-564h78l-20 -257h-101z" />
    <glyph glyph-name="uni0427" unicode="&#x427;" horiz-adv-x="649" 
d="M192 680v-285q0 -46 24.5 -70.5t80.5 -24.5q21 0 41 2.5t37.5 6t31.5 8t24 9.5v354h139v-680h-139v212q-30 -11 -73 -20t-100 -9q-48 0 -86.5 14t-64.5 39.5t-40 61t-14 79.5v303h139z" />
    <glyph glyph-name="uni0428" unicode="&#x428;" horiz-adv-x="1027" 
d="M79 0v680h139v-564h226v564h139v-564h226v564h139v-680h-869z" />
    <glyph glyph-name="uni0429" unicode="&#x429;" horiz-adv-x="1062" 
d="M905 -141l-10 141h-816v680h139v-564h226v564h139v-564h226v564h139v-564h78l-20 -257h-101z" />
    <glyph glyph-name="uni042A" unicode="&#x42a;" horiz-adv-x="704" 
d="M22 680h269v-250h141q118 0 177.5 -55t59.5 -161q0 -104 -59.5 -159t-177.5 -55h-280v564h-130v116zM291 116h131q54 0 78 26t24 72q0 47 -23.5 73.5t-78.5 26.5h-131v-198z" />
    <glyph glyph-name="uni042B" unicode="&#x42b;" horiz-adv-x="884" 
d="M805 0h-139v680h139v-680zM218 680v-250h141q118 0 177.5 -55t59.5 -161q0 -104 -59.5 -159t-177.5 -55h-280v680h139zM218 116h131q54 0 78 26t24 72q0 47 -23.5 73.5t-78.5 26.5h-131v-198z" />
    <glyph glyph-name="uni042C" unicode="&#x42c;" horiz-adv-x="631" 
d="M218 680v-250h141q118 0 177.5 -55t59.5 -161q0 -104 -59.5 -159t-177.5 -55h-280v680h139zM218 116h131q54 0 78 26t24 72q0 47 -23.5 73.5t-78.5 26.5h-131v-198z" />
    <glyph glyph-name="uni042D" unicode="&#x42d;" horiz-adv-x="605" 
d="M559 340q0 -80 -21.5 -145t-63.5 -112t-104 -72.5t-142 -25.5q-47 0 -96.5 11t-96.5 33l37 110q43 -19 78.5 -27t77.5 -8q78 0 124 48t58 130h-267v116h267q-12 81 -58 129.5t-124 48.5q-42 0 -77.5 -8t-78.5 -27l-37 110q47 22 96.5 33t96.5 11q80 0 142 -25.5
t104 -72.5t63.5 -112.5t21.5 -144.5z" />
    <glyph glyph-name="uni042E" unicode="&#x42e;" horiz-adv-x="1062" 
d="M506 340q0 -50 9.5 -93.5t31.5 -75t56.5 -49.5t85.5 -18q50 0 85 18t56.5 49.5t31 75t9.5 93.5t-9.5 93.5t-31 75t-56.5 49.5t-85 18q-51 0 -85.5 -18t-56.5 -49.5t-31.5 -75t-9.5 -93.5zM1016 340q0 -74 -19.5 -139t-59.5 -113t-102 -75.5t-146 -27.5q-77 0 -135 22.5
t-98.5 63t-63 95t-29.5 119.5h-145v-285h-139v680h139v-279h146q7 63 30.5 117t63.5 93t97.5 61.5t133.5 22.5q84 0 146 -27.5t102 -75.5t59.5 -113t19.5 -139z" />
    <glyph glyph-name="uni042F" unicode="&#x42f;" horiz-adv-x="663" 
d="M445 0v257h-88l-186 -257h-147v16l186 250q-75 18 -112 71.5t-37 131.5q0 97 58 154t178 57h287v-680h-139zM445 373v191h-141q-47 0 -72.5 -27t-25.5 -68t25.5 -68.5t72.5 -27.5h141z" />
    <glyph glyph-name="uni0430" unicode="&#x430;" horiz-adv-x="543" 
d="M467 105q0 -11 2.5 -14.5t13.5 -3.5h35v-92q-16 -3 -32 -5t-38 -2q-39 0 -61 14.5t-35 42.5h-2q-12 -10 -29.5 -20.5t-38 -19.5t-43 -14.5t-44.5 -5.5q-81 0 -122 43t-41 109q0 40 13.5 70t42 49.5t73.5 29t109 9.5h65v22q0 22 -8.5 36t-21.5 21t-27 9.5t-25 2.5
q-40 0 -82.5 -9.5t-77.5 -25.5l-32 103q38 17 90 30t109 13q105 0 156 -50.5t51 -144.5v-197zM284 208q-67 0 -95 -16t-28 -43q0 -58 64 -58q26 0 57.5 9t52.5 24v84h-51z" />
    <glyph glyph-name="uni0431" unicode="&#x431;" horiz-adv-x="596" 
d="M182 388q23 26 63.5 44.5t94.5 18.5q52 0 92 -17t67.5 -47.5t42 -72.5t14.5 -93q0 -48 -16 -91t-47.5 -75.5t-79 -51t-110.5 -18.5q-129 0 -192 76t-63 212q0 101 12 173.5t38 121.5t67 77t98 40q28 6 67.5 10t78.5 7.5t72 6t50 5.5v-122q-15 -4 -44 -6t-62 -4.5l-66 -5
t-56 -6.5q-38 -7 -62 -22t-38 -37.5t-19 -53.5t-6 -69h4zM418 221q0 57 -31 88t-84 31q-54 0 -85.5 -31t-31.5 -88q0 -29 8 -52t23.5 -39t37 -25t48.5 -9q26 0 47.5 9t36.5 25t23 39t8 52z" />
    <glyph glyph-name="uni0432" unicode="&#x432;" horiz-adv-x="535" 
d="M194 96h97q43 0 57.5 15.5t14.5 37.5t-14.5 38t-57.5 16h-97v-107zM299 482q80 0 127.5 -31t47.5 -99q0 -44 -20 -68t-47 -37v-1q37 -11 63 -38t26 -72q0 -71 -48 -103.5t-139 -32.5h-246v482h236zM194 288h75q23 0 37 4t22 11t10.5 16t2.5 19t-2.5 19t-10 16t-22 11.5
t-37.5 4.5h-75v-101z" />
    <glyph glyph-name="uni0433" unicode="&#x433;" horiz-adv-x="445" 
d="M426 482v-103h-232v-379h-131v482h363z" />
    <glyph glyph-name="uni0434" unicode="&#x434;" horiz-adv-x="608" 
d="M33 -120l-20 225h54q13 15 22.5 38t16 49t9.5 55t5 56l9 179h390v-377h55l-19 -225h-91l-13 120h-316l-11 -120h-91zM388 105v274h-137l-5 -74q-2 -29 -4.5 -58.5t-6.5 -56t-10 -48.5t-13 -37h176z" />
    <glyph glyph-name="uni0435" unicode="&#x435;" horiz-adv-x="539" 
d="M175 202q2 -26 11 -46t24.5 -34t37 -21.5t48.5 -7.5q42 0 80.5 8.5t73.5 21.5l31 -97q-36 -17 -86.5 -29t-108.5 -12q-63 0 -109.5 20t-77 55t-46 82t-15.5 100q0 51 15.5 97.5t46 81.5t75.5 55.5t104 20.5q58 0 100.5 -16.5t70.5 -45t41 -66.5t13 -80q0 -23 -2.5 -48.5
t-4.5 -38.5h-322zM380 286q1 4 1 7.5v7.5q0 20 -5 38t-17 31.5t-31.5 21t-47.5 7.5q-26 0 -45 -9.5t-32 -25.5t-20 -36t-8 -42h205z" />
    <glyph glyph-name="uni0436" unicode="&#x436;" horiz-adv-x="812" 
d="M337 211l-177 -211h-149v7l197 231l-188 237v7h145l172 -228h2v228h134v-228h2l172 228h145v-7l-188 -237l197 -231v-7h-149l-177 211h-2v-211h-134v211h-2z" />
    <glyph glyph-name="uni0437" unicode="&#x437;" horiz-adv-x="486" 
d="M108 294h123q35 0 48.5 11.5t13.5 34.5q0 21 -17 34.5t-62 13.5q-15 0 -34.5 -2t-39 -5t-39 -7.5t-34.5 -10.5l-26 103q35 14 82.5 23.5t89.5 9.5q115 0 166 -37.5t51 -102.5q0 -43 -18.5 -68.5t-50.5 -37.5v-2q41 -14 63.5 -44t22.5 -78q0 -32 -12.5 -58.5t-40.5 -45.5
t-72 -29.5t-107 -10.5q-58 0 -105.5 10.5t-82.5 26.5l23 105q15 -7 35 -13t42 -10t44.5 -6t43.5 -2q51 0 72.5 13.5t21.5 36.5t-16.5 34t-53.5 11h-131v103z" />
    <glyph glyph-name="uni0438" unicode="&#x438;" horiz-adv-x="588" 
d="M197 180l180 302h148v-482h-131v302h-3l-180 -302h-148v482h131v-302h3z" />
    <glyph glyph-name="uni0439" unicode="&#x439;" horiz-adv-x="588" 
d="M197 180l180 302h148v-482h-131v302h-3l-180 -302h-148v482h131v-302h3zM297 674q42 0 74.5 7t58.5 27l42 -64q-26 -38 -68.5 -57.5t-106.5 -19.5q-63 0 -105 19.5t-68 57.5l42 64q26 -19 58.5 -26.5t72.5 -7.5z" />
    <glyph glyph-name="uni043A" unicode="&#x43a;" horiz-adv-x="534" 
d="M196 211v-211h-133v482h133v-230h2l171 230h145v-7l-188 -237l197 -231v-7h-149l-176 211h-2z" />
    <glyph glyph-name="uni043B" unicode="&#x43b;" horiz-adv-x="595" 
d="M400 379h-148l-11 -134q-6 -78 -22.5 -127t-43.5 -76.5t-65.5 -38t-89.5 -10.5v109q20 0 37 5.5t30 22t21 46.5t11 80l12 226h401v-482h-132v379z" />
    <glyph glyph-name="uni043C" unicode="&#x43c;" horiz-adv-x="684" 
d="M343 231l151 251h127v-482h-131v276h-2l-93 -161h-107l-92 161h-2v-276h-131v482h127l151 -251h2z" />
    <glyph glyph-name="uni043D" unicode="&#x43d;" horiz-adv-x="582" 
d="M388 188h-194v-188h-131v482h131v-189h194v189h131v-482h-131v188z" />
    <glyph glyph-name="uni043E" unicode="&#x43e;" horiz-adv-x="583" 
d="M175 241q0 -36 8.5 -63.5t23.5 -45.5t36.5 -27t47.5 -9q27 0 48.5 9t36.5 27t23.5 45.5t8.5 63.5t-8.5 63.5t-23.5 45.5t-36.5 27t-48.5 9q-26 0 -47.5 -9t-36.5 -27t-23.5 -45.5t-8.5 -63.5zM546 241q0 -53 -16 -99.5t-48.5 -81t-80 -55t-110.5 -20.5q-62 0 -109.5 20.5
t-79.5 55t-48.5 81t-16.5 99.5q0 52 16.5 99t48.5 81.5t79.5 55t109.5 20.5q63 0 110.5 -20.5t80 -55t48.5 -81.5t16 -99z" />
    <glyph glyph-name="uni043F" unicode="&#x43f;" horiz-adv-x="582" 
d="M388 379h-194v-379h-131v482h456v-482h-131v379z" />
    <glyph glyph-name="uni0440" unicode="&#x440;" horiz-adv-x="586" 
d="M198 125q19 -12 45 -20.5t52 -8.5q30 0 51.5 10.5t35.5 29.5t20.5 46t6.5 59t-6.5 59t-20.5 46t-35.5 29.5t-51.5 10.5q-26 0 -52 -8.5t-45 -20.5v-232zM162 482l19 -43h2q25 19 63 38.5t91 19.5q52 0 91.5 -20.5t65.5 -55t39.5 -81.5t13.5 -99q0 -53 -13.5 -99.5
t-39.5 -81t-65.5 -55t-91.5 -20.5q-51 0 -82.5 17t-54.5 33h-2v-233h-135v680h99z" />
    <glyph glyph-name="uni0441" unicode="&#x441;" horiz-adv-x="479" 
d="M38 241q0 58 17 105.5t49.5 81t80 51.5t109.5 18q44 0 85 -10t65 -19l-27 -103q-21 7 -48 14t-59 7q-27 0 -51.5 -8t-43 -25t-29 -45t-10.5 -67t10.5 -67t28.5 -45t42.5 -25t52.5 -8q32 0 59 7t48 14l27 -103q-24 -9 -65 -19t-85 -10q-62 0 -109.5 18t-80 51.5t-49.5 81
t-17 105.5z" />
    <glyph glyph-name="uni0442" unicode="&#x442;" horiz-adv-x="459" 
d="M439 482v-103h-145v-379h-131v379h-143v103h419z" />
    <glyph glyph-name="uni0443" unicode="&#x443;" horiz-adv-x="530" 
d="M519 472l-207 -531q-32 -81 -81 -117.5t-112 -36.5q-24 0 -43 2.5t-36 6.5v107q17 -3 35.5 -4t26.5 -1q32 0 51.5 12t30.5 41l20 54l-194 467v10h140l116 -328h3l110 328h140v-10z" />
    <glyph glyph-name="uni0444" unicode="&#x444;" horiz-adv-x="865" 
d="M500 115q19 -9 39.5 -14t43.5 -5q30 0 50 10.5t32 29.5t17 46t5 59t-5 59t-17 46t-32 29.5t-50 10.5q-23 0 -43.5 -5t-39.5 -14v-252zM365 367q-19 9 -39.5 14t-43.5 5q-30 0 -50 -10.5t-32 -29.5t-17 -46t-5 -59t5 -59t17 -46t32 -29.5t50 -10.5q23 0 43.5 5t39.5 14
v252zM502 465q23 14 51.5 23t71.5 9q52 0 90 -20.5t62.5 -55t36 -81.5t11.5 -99q0 -53 -11.5 -99.5t-36 -81t-62.5 -55t-90 -20.5q-24 0 -42 3t-32 8t-26 11.5t-23 13.5h-2v-219h-135v219h-2q-11 -7 -23 -13.5t-26 -11.5t-32 -8t-42 -3q-52 0 -90 20.5t-62.5 55t-36 81
t-11.5 99.5q0 52 11.5 99t36 81.5t62.5 55t90 20.5q43 0 71.5 -8.5t51.5 -23.5h2v235h135v-235h2z" />
    <glyph glyph-name="uni0445" unicode="&#x445;" horiz-adv-x="539" 
d="M269 168l-103 -168h-145v10l153 231l-153 231v10h145l103 -169h2l102 169h145v-10l-153 -231l153 -231v-10h-145l-102 168h-2z" />
    <glyph glyph-name="uni0446" unicode="&#x446;" horiz-adv-x="609" 
d="M470 -120l-13 120h-394v482h131v-380h186v380h132v-380h69l-20 -222h-91z" />
    <glyph glyph-name="uni0447" unicode="&#x447;" horiz-adv-x="520" 
d="M172 482v-198q0 -21 15.5 -34.5t51.5 -13.5q32 0 53 4.5t34 12.5v229h131v-482h-131v152q-25 -11 -55 -16.5t-72 -5.5q-38 0 -67.5 11.5t-49.5 31t-30.5 46t-10.5 55.5v208h131z" />
    <glyph glyph-name="uni0448" unicode="&#x448;" horiz-adv-x="815" 
d="M63 0v482h131v-380h148v380h131v-380h147v380h132v-482h-689z" />
    <glyph glyph-name="uni0449" unicode="&#x449;" horiz-adv-x="849" 
d="M710 -120l-13 120h-634v482h131v-380h148v380h131v-380h147v380h132v-380h69l-20 -222h-91z" />
    <glyph glyph-name="uni044A" unicode="&#x44a;" horiz-adv-x="568" 
d="M23 482h226v-161h100q96 0 143 -41t47 -121t-47 -119.5t-143 -39.5h-231v379h-95v103zM249 102h92q19 0 30.5 5.5t18 13.5t9 18.5t2.5 19.5t-2.5 19.5t-9 19t-18 14t-30.5 5.5h-92v-115z" />
    <glyph glyph-name="uni044B" unicode="&#x44b;" horiz-adv-x="739" 
d="M194 482v-162h100q96 0 143 -40.5t47 -120.5t-47 -119.5t-143 -39.5h-231v482h131zM194 102h92q19 0 30.5 5.5t18 13.5t9 18.5t2.5 19.5t-2.5 19.5t-9 19t-18 14t-30.5 5.5h-92v-115zM541 0v482h135v-482h-135z" />
    <glyph glyph-name="uni044C" unicode="&#x44c;" horiz-adv-x="513" 
d="M194 482v-162h100q96 0 143 -40.5t47 -120.5t-47 -119.5t-143 -39.5h-231v482h131zM194 102h92q19 0 30.5 5.5t18 13.5t9 18.5t2.5 19.5t-2.5 19.5t-9 19t-18 14t-30.5 5.5h-92v-115z" />
    <glyph glyph-name="uni044D" unicode="&#x44d;" horiz-adv-x="489" 
d="M451 241q0 -56 -17 -102.5t-50.5 -79.5t-82.5 -51.5t-113 -18.5q-38 0 -78 7.5t-77 24.5l35 103q33 -13 59.5 -19.5t60.5 -6.5q46 0 78 24t43 65h-189v106h189q-11 41 -42.5 66.5t-78.5 25.5q-34 0 -60.5 -7t-59.5 -20l-35 104q37 16 77 23.5t78 7.5q64 0 113 -18.5
t82.5 -51.5t50.5 -79.5t17 -102.5z" />
    <glyph glyph-name="uni044E" unicode="&#x44e;" horiz-adv-x="845" 
d="M808 241q0 -53 -16 -99.5t-48.5 -81t-80 -55t-110.5 -20.5q-54 0 -97 15.5t-74.5 43t-51.5 64.5t-27 80h-109v-188h-131v482h131v-189h109q7 43 26.5 80.5t51 65t75 43t97.5 15.5q63 0 110.5 -20.5t80 -55t48.5 -81.5t16 -99zM437 241q0 -36 8.5 -63.5t23.5 -45.5
t36.5 -27t47.5 -9q27 0 48.5 9t36.5 27t23.5 45.5t8.5 63.5t-8.5 63.5t-23.5 45.5t-36.5 27t-48.5 9q-26 0 -47.5 -9t-36.5 -27t-23.5 -45.5t-8.5 -63.5z" />
    <glyph glyph-name="uni044F" unicode="&#x44f;" horiz-adv-x="548" 
d="M354 0v159h-53l-139 -159h-138v11l139 157q-59 16 -85.5 57.5t-26.5 95.5q0 35 11 64.5t34 51t60 33.5t88 12h241v-482h-131zM354 379h-103q-32 0 -47 -17.5t-15 -40.5t15 -41t47 -18h103v117z" />
    <glyph glyph-name="uni0450" unicode="&#x450;" horiz-adv-x="539" 
d="M175 202q2 -26 11 -46t24.5 -34t37 -21.5t48.5 -7.5q42 0 80.5 8.5t73.5 21.5l31 -97q-36 -17 -86.5 -29t-108.5 -12q-63 0 -109.5 20t-77 55t-46 82t-15.5 100q0 51 15.5 97.5t46 81.5t75.5 55.5t104 20.5q58 0 100.5 -16.5t70.5 -45t41 -66.5t13 -80q0 -23 -2.5 -48.5
t-4.5 -38.5h-322zM380 286q1 4 1 7.5v7.5q0 20 -5 38t-17 31.5t-31.5 21t-47.5 7.5q-26 0 -45 -9.5t-32 -25.5t-20 -36t-8 -42h205zM141 713h142l79 -136v-10h-118l-103 137v9z" />
    <glyph glyph-name="uni0451" unicode="&#x451;" horiz-adv-x="539" 
d="M175 202q2 -26 11 -46t24.5 -34t37 -21.5t48.5 -7.5q42 0 80.5 8.5t73.5 21.5l31 -97q-36 -17 -86.5 -29t-108.5 -12q-63 0 -109.5 20t-77 55t-46 82t-15.5 100q0 51 15.5 97.5t46 81.5t75.5 55.5t104 20.5q58 0 100.5 -16.5t70.5 -45t41 -66.5t13 -80q0 -23 -2.5 -48.5
t-4.5 -38.5h-322zM380 286q1 4 1 7.5v7.5q0 20 -5 38t-17 31.5t-31.5 21t-47.5 7.5q-26 0 -45 -9.5t-32 -25.5t-20 -36t-8 -42h205zM97 640q0 32 21.5 53t56.5 21q36 0 57.5 -21t21.5 -53t-21.5 -53t-57.5 -21q-35 0 -56.5 21t-21.5 53zM317 640q0 32 21.5 53t56.5 21
q36 0 57.5 -21t21.5 -53t-21.5 -53t-57.5 -21q-35 0 -56.5 21t-21.5 53z" />
    <glyph glyph-name="uni0452" unicode="&#x452;" horiz-adv-x="572" 
d="M63 0v540h-50v103h50v57h135v-57h105v-103h-105v-98h2q10 9 25 18.5t33 17.5t40 13.5t46 5.5q43 0 77 -15t57 -45t35.5 -75.5t12.5 -106.5q0 -54 -8 -107.5t-21.5 -105.5t-31.5 -102t-39 -97l-111 51q34 81 53.5 177t19.5 184q0 72 -21.5 101.5t-64.5 29.5
q-18 0 -34 -4.5t-29 -11t-23.5 -15t-17.5 -15.5v-340h-135z" />
    <glyph glyph-name="uni0453" unicode="&#x453;" horiz-adv-x="445" 
d="M426 482v-103h-232v-379h-131v482h363zM400 704l-103 -137h-118v10l79 136h142v-9z" />
    <glyph glyph-name="uni0454" unicode="&#x454;" horiz-adv-x="487" 
d="M38 241q0 56 17 102.5t50.5 79.5t82.5 51.5t113 18.5q38 0 78 -7.5t77 -23.5l-35 -104q-33 13 -59.5 20t-60.5 7q-47 0 -78.5 -25.5t-42.5 -66.5h189v-106h-189q11 -41 43 -65t78 -24q34 0 60.5 6.5t59.5 19.5l35 -103q-37 -17 -77 -24.5t-78 -7.5q-64 0 -113 18.5
t-82.5 51.5t-50.5 79.5t-17 102.5z" />
    <glyph glyph-name="uni0455" unicode="&#x455;" horiz-adv-x="468" 
d="M72 128q35 -18 75 -29.5t80 -11.5t58 12t18 35q0 22 -17 32.5t-49 18.5l-63 15q-25 6 -48.5 16.5t-42 27.5t-29.5 41t-11 57q0 71 53 113t147 42q55 0 96.5 -9t83.5 -26l-37 -96q-32 12 -68 20.5t-71 8.5q-38 0 -55.5 -11t-17.5 -33q0 -21 16 -31t46 -18l61 -15
q29 -7 54 -18.5t43.5 -28.5t29 -41t10.5 -56q0 -38 -14.5 -67t-41 -49.5t-64 -31t-83.5 -10.5q-62 0 -109 12t-90 34l40 97v0z" />
    <glyph glyph-name="uni0456" unicode="&#x456;" horiz-adv-x="261" 
d="M63 0v482h135v-482h-135zM53 640q0 32 21.5 53t56.5 21q36 0 57.5 -21t21.5 -53t-21.5 -53t-57.5 -21q-35 0 -56.5 21t-21.5 53z" />
    <glyph glyph-name="uni0457" unicode="&#x457;" horiz-adv-x="261" 
d="M63 0v482h135v-482h-135zM-57 640q0 32 21.5 53t56.5 21q36 0 57.5 -21t21.5 -53t-21.5 -53t-57.5 -21q-35 0 -56.5 21t-21.5 53zM163 640q0 32 21.5 53t56.5 21q36 0 57.5 -21t21.5 -53t-21.5 -53t-57.5 -21q-35 0 -56.5 21t-21.5 53z" />
    <glyph glyph-name="uni0458" unicode="&#x458;" horiz-adv-x="261" 
d="M198 482v-513q0 -94 -43.5 -138t-129.5 -44q-16 0 -35 2t-35 5v109q13 -3 26 -4t27 -1q29 0 42 15t13 48v521h135zM53 640q0 32 21.5 53t56.5 21q36 0 57.5 -21t21.5 -53t-21.5 -53t-57.5 -21q-35 0 -56.5 21t-21.5 53z" />
    <glyph glyph-name="uni0459" unicode="&#x459;" horiz-adv-x="815" 
d="M496 482v-162h100q96 0 143 -40.5t47 -120.5t-47 -119.5t-143 -39.5h-231v379h-113l-11 -134q-6 -78 -22.5 -127t-43.5 -76.5t-65.5 -38t-89.5 -10.5v109q20 0 37 5.5t30 22t21 46.5t11 80l12 226h365zM496 102h92q19 0 30.5 5.5t18 13.5t9 18.5t2.5 19.5t-2.5 19.5
t-9 19t-18 14t-30.5 5.5h-92v-115z" />
    <glyph glyph-name="uni045A" unicode="&#x45a;" horiz-adv-x="821" 
d="M502 482v-162h100q96 0 143 -40.5t47 -120.5t-47 -119.5t-143 -39.5h-231v217h-177v-217h-131v482h131v-162h177v162h131zM502 102h92q19 0 30.5 5.5t18 13.5t9 18.5t2.5 19.5t-2.5 19.5t-9 19t-18 14t-30.5 5.5h-92v-115z" />
    <glyph glyph-name="uni045B" unicode="&#x45b;" horiz-adv-x="581" 
d="M198 540v-98h2q10 9 25 18.5t33 17.5t40 13.5t46 5.5q86 0 132.5 -53.5t46.5 -140.5v-303h-135v290q0 46 -21 71t-65 25q-18 0 -34 -4.5t-29 -11t-23.5 -15t-17.5 -15.5v-340h-135v540h-50v103h50v57h135v-57h105v-103h-105z" />
    <glyph glyph-name="uni045C" unicode="&#x45c;" horiz-adv-x="534" 
d="M196 211v-211h-133v482h133v-230h2l171 230h145v-7l-188 -237l197 -231v-7h-149l-176 211h-2zM439 704l-103 -137h-118v10l79 136h142v-9z" />
    <glyph glyph-name="uni045D" unicode="&#x45d;" horiz-adv-x="588" 
d="M197 180l180 302h148v-482h-131v302h-3l-180 -302h-148v482h131v-302h3zM149 713h142l79 -136v-10h-118l-103 137v9z" />
    <glyph glyph-name="uni045E" unicode="&#x45e;" horiz-adv-x="530" 
d="M519 472l-207 -531q-32 -81 -81 -117.5t-112 -36.5q-24 0 -43 2.5t-36 6.5v107q17 -3 35.5 -4t26.5 -1q32 0 51.5 12t30.5 41l20 54l-194 467v10h140l116 -328h3l110 328h140v-10zM274 674q42 0 74.5 7t58.5 27l42 -64q-26 -38 -68.5 -57.5t-106.5 -19.5q-63 0 -105 19.5
t-68 57.5l42 64q26 -19 58.5 -26.5t72.5 -7.5z" />
    <glyph glyph-name="uni045F" unicode="&#x45f;" horiz-adv-x="575" 
d="M243 -120l-14 120h-166v482h131v-380h186v380h132v-482h-165l-13 -120h-91z" />
    <glyph glyph-name="uni0462" unicode="&#x462;" horiz-adv-x="714" 
d="M305 680v-50h194v-116h-194v-84h141q118 0 177.5 -55t59.5 -161q0 -104 -59.5 -159t-177.5 -55h-280v514h-139v116h139v50h139zM305 116h131q54 0 78 26t24 72q0 47 -23.5 73.5t-78.5 26.5h-131v-198z" />
    <glyph glyph-name="uni0463" unicode="&#x463;" horiz-adv-x="564" 
d="M249 701v-219h159v-103h-159v-59h100q96 0 143 -40.5t47 -120.5t-47 -119.5t-143 -39.5h-231v379h-95v103h95v219h131zM249 102h92q19 0 30.5 5.5t18 13.5t9 18.5t2.5 19.5t-2.5 19.5t-9 19t-18 14t-30.5 5.5h-92v-115z" />
    <glyph glyph-name="uni0472" unicode="&#x472;" horiz-adv-x="748" 
d="M702 340q0 -74 -19.5 -139t-59.5 -113t-102 -75.5t-146 -27.5q-85 0 -147 27.5t-102 75.5t-59.5 113t-19.5 139t19.5 139t59.5 113t102 75.5t147 27.5q84 0 146 -27.5t102 -75.5t59.5 -113t19.5 -139zM375 104q43 0 75 13.5t53.5 38t33.5 58t17 74.5h-359
q4 -41 16.5 -74.5t34 -58t53.5 -38t76 -13.5zM375 576q-43 0 -75 -13t-53.5 -37t-34 -56.5t-17.5 -71.5h358q-5 39 -17.5 71.5t-34 56.5t-52.5 37t-74 13z" />
    <glyph glyph-name="uni0473" unicode="&#x473;" horiz-adv-x="583" 
d="M546 241q0 -53 -16 -99.5t-48.5 -81t-80 -55t-110.5 -20.5q-62 0 -109.5 20.5t-79.5 55t-48.5 81t-16.5 99.5q0 52 16.5 99t48.5 81.5t79.5 55t109.5 20.5q63 0 110.5 -20.5t80 -55t48.5 -81.5t16 -99zM291 96q43 0 72.5 24t39.5 73h-224q5 -24 15 -42.5t24 -30.5
t32.5 -18t40.5 -6zM291 386q-21 0 -39.5 -6t-32.5 -18t-24.5 -30t-15.5 -42h224q-10 48 -39 72t-73 24z" />
    <glyph glyph-name="uni0474" unicode="&#x474;" horiz-adv-x="679" 
d="M662 576q-29 0 -45.5 -14t-27.5 -47l-174 -515h-169l-240 670v10h151l173 -534h3l134 412q12 36 27.5 61.5t38 42.5t54 25t75.5 8v-119z" />
    <glyph glyph-name="uni0475" unicode="&#x475;" horiz-adv-x="553" 
d="M530 385q-21 0 -33 -12t-19 -32l-119 -341h-169l-178 475v7h145l117 -354h3l86 257q9 25 21 45.5t31.5 34t47.5 21t67 7.5v-108z" />
    <glyph glyph-name="uni0490" unicode="&#x490;" horiz-adv-x="554" 
d="M518 821l17 -257h-317v-564h-139v680h314l17 141h108z" />
    <glyph glyph-name="uni0491" unicode="&#x491;" horiz-adv-x="443" 
d="M416 588l10 -209h-232v-379h-131v482h243l17 106h93z" />
    <glyph glyph-name="uni0E3F" unicode="&#xe3f;" 
d="M336 678q91 -7 140 -50.5t49 -131.5q0 -55 -22.5 -90t-53.5 -51v-2q48 -19 74.5 -57.5t26.5 -101.5q0 -95 -49.5 -142.5t-164.5 -51.5v-108h-78v108h-187v680h187v90h78v-92zM408 204q0 41 -16 62t-56 26v-175q38 4 55 24.5t17 62.5zM208 116h50v178h-50v-178zM208 404
h50v160h-50v-160zM394 483q0 38 -14.5 56t-43.5 23v-156q29 5 43.5 22t14.5 55z" />
    <glyph glyph-name="Wgrave" unicode="&#x1e80;" horiz-adv-x="1014" 
d="M995 670l-185 -670h-165l-137 527h-1l-137 -527h-166l-185 670v10h149l115 -530h2l141 530h162l141 -530h2l114 530h150v-10zM363 896h152l59 -136v-10h-128l-83 137v9z" />
    <glyph glyph-name="wgrave" unicode="&#x1e81;" horiz-adv-x="840" 
d="M822 472l-144 -472h-147l-110 347h-2l-110 -347h-147l-144 472v10h135l89 -334h2l103 334h146l103 -334h2l89 334h135v-10zM259 713h142l79 -136v-10h-118l-103 137v9z" />
    <glyph glyph-name="Wacute" unicode="&#x1e82;" horiz-adv-x="1014" 
d="M995 670l-185 -670h-165l-137 527h-1l-137 -527h-166l-185 670v10h149l115 -530h2l141 530h162l141 -530h2l114 530h150v-10zM653 887l-83 -137h-128v10l59 136h152v-9z" />
    <glyph glyph-name="wacute" unicode="&#x1e83;" horiz-adv-x="840" 
d="M822 472l-144 -472h-147l-110 347h-2l-110 -347h-147l-144 472v10h135l89 -334h2l103 334h146l103 -334h2l89 334h135v-10zM580 704l-103 -137h-118v10l79 136h142v-9z" />
    <glyph glyph-name="Wdieresis" unicode="&#x1e84;" horiz-adv-x="1014" 
d="M995 670l-185 -670h-165l-137 527h-1l-137 -527h-166l-185 670v10h149l115 -530h2l141 530h162l141 -530h2l114 530h150v-10zM299 819q0 32 21.5 53t56.5 21q36 0 57.5 -21t21.5 -53t-21.5 -53t-57.5 -21q-35 0 -56.5 21t-21.5 53zM560 819q0 32 21.5 53t56.5 21
q36 0 57.5 -21t21.5 -53t-21.5 -53t-57.5 -21q-35 0 -56.5 21t-21.5 53z" />
    <glyph glyph-name="wdieresis" unicode="&#x1e85;" horiz-adv-x="840" 
d="M822 472l-144 -472h-147l-110 347h-2l-110 -347h-147l-144 472v10h135l89 -334h2l103 334h146l103 -334h2l89 334h135v-10zM232 640q0 32 21.5 53t56.5 21q36 0 57.5 -21t21.5 -53t-21.5 -53t-57.5 -21q-35 0 -56.5 21t-21.5 53zM452 640q0 32 21.5 53t56.5 21
q36 0 57.5 -21t21.5 -53t-21.5 -53t-57.5 -21q-35 0 -56.5 21t-21.5 53z" />
    <glyph glyph-name="uni1E9E" unicode="&#x1e9e;" horiz-adv-x="696" 
d="M71 381q0 70 16 128t50.5 99t88.5 64t130 23q66 0 125.5 -21t109.5 -49v-97l-110 -137v-2q42 -5 75 -20t56.5 -39t35.5 -57t12 -73q0 -49 -17 -89t-47.5 -68t-74 -43t-96.5 -15q-40 0 -68 3t-52 7v116q18 -3 43 -6.5t51 -3.5q29 0 50.5 6.5t35.5 19.5t21 31.5t7 42.5
q0 39 -24 67t-78 28h-73v88l124 164q-21 11 -51 19t-62 8q-68 0 -103.5 -47.5t-35.5 -138.5v-389h-139v381z" />
    <glyph glyph-name="Ygrave" unicode="&#x1ef2;" horiz-adv-x="604" 
d="M149 680l151 -280h2l151 280h152v-10l-234 -396v-274h-139v274l-235 396v10h152zM155 896h152l59 -136v-10h-128l-83 137v9z" />
    <glyph glyph-name="ygrave" unicode="&#x1ef3;" horiz-adv-x="530" 
d="M519 472l-207 -531q-32 -81 -81 -117.5t-112 -36.5q-24 0 -43 2.5t-36 6.5v107q17 -3 35.5 -4t26.5 -1q32 0 51.5 12t30.5 41l20 54l-194 467v10h140l116 -328h3l110 328h140v-10zM108 713h142l79 -136v-10h-118l-103 137v9z" />
    <glyph glyph-name="endash" unicode="&#x2013;" horiz-adv-x="584" 
d="M62 220v103h460v-103h-460z" />
    <glyph glyph-name="emdash" unicode="&#x2014;" horiz-adv-x="920" 
d="M62 220v103h796v-103h-796z" />
    <glyph glyph-name="quoteleft" unicode="&#x2018;" horiz-adv-x="280" 
d="M242 670l-66 -293h-135v10l100 293h101v-10z" />
    <glyph glyph-name="quoteright" unicode="&#x2019;" horiz-adv-x="277" 
d="M47 387l66 293h135v-10l-100 -293h-101v10z" />
    <glyph glyph-name="quotesinglbase" unicode="&#x201a;" horiz-adv-x="270" 
d="M15 -151l66 293h135v-10l-100 -293h-101v10z" />
    <glyph glyph-name="quotedblleft" unicode="&#x201c;" horiz-adv-x="489" 
d="M451 670l-66 -293h-135v10l100 293h101v-10zM242 670l-66 -293h-135v10l100 293h101v-10z" />
    <glyph glyph-name="quotedblright" unicode="&#x201d;" horiz-adv-x="487" 
d="M47 387l66 293h135v-10l-100 -293h-101v10zM257 387l66 293h135v-10l-100 -293h-101v10z" />
    <glyph glyph-name="quotedblbase" unicode="&#x201e;" horiz-adv-x="480" 
d="M15 -151l66 293h135v-10l-100 -293h-101v10zM225 -151l66 293h135v-10l-100 -293h-101v10z" />
    <glyph glyph-name="dagger" unicode="&#x2020;" horiz-adv-x="463" 
d="M188 482v218h89v-218h159v-85h-159v-595h-89v595h-161v85h161z" />
    <glyph glyph-name="daggerdbl" unicode="&#x2021;" horiz-adv-x="494" 
d="M204 482v218h89v-218h158v-85h-158v-292h158v-85h-158v-218h-89v218h-161v85h161v292h-161v85h161z" />
    <glyph glyph-name="bullet" unicode="&#x2022;" horiz-adv-x="376" 
d="M75 291q0 50 30.5 82t82.5 32t82.5 -32t30.5 -82t-30.5 -82t-82.5 -32t-82.5 32t-30.5 82z" />
    <glyph glyph-name="ellipsis" unicode="&#x2026;" horiz-adv-x="775" 
d="M51 71q0 38 23 62t62 24t62 -24t23 -62t-23 -62t-62 -24t-62 24t-23 62zM303 71q0 38 23 62t62 24t62 -24t23 -62t-23 -62t-62 -24t-62 24t-23 62zM554 71q0 38 23 62t62 24t62 -24t23 -62t-23 -62t-62 -24t-62 24t-23 62z" />
    <glyph glyph-name="perthousand" unicode="&#x2030;" horiz-adv-x="1163" 
d="M923 175q0 -54 14.5 -78t40.5 -24q29 0 44 24t15 78t-15 79t-44 25q-26 0 -40.5 -25t-14.5 -79zM1133 175q0 -41 -10.5 -75t-30.5 -58t-48.5 -37t-65.5 -13q-35 0 -63.5 13t-48 37t-30 58t-10.5 75q0 42 10.5 76t30 58.5t48 37.5t63.5 13q37 0 65.5 -13t48.5 -37.5
t30.5 -58.5t10.5 -76zM130 503q0 -54 14.5 -78t40.5 -24q29 0 44 24t15 78t-15 79t-44 25q-26 0 -40.5 -25t-14.5 -79zM340 503q0 -41 -10.5 -75t-30.5 -58t-48.5 -37t-65.5 -13q-35 0 -63.5 13t-48 37t-30 58t-10.5 75q0 42 10.5 76t30 58.5t48 37.5t63.5 13q37 0 65.5 -13
t48.5 -37.5t30.5 -58.5t10.5 -76zM567 175q0 -54 14.5 -78t40.5 -24q29 0 44 24t15 78t-15 79t-44 25q-26 0 -40.5 -25t-14.5 -79zM777 175q0 -41 -10.5 -75t-30.5 -58t-48.5 -37t-65.5 -13q-35 0 -63.5 13t-48 37t-30 58t-10.5 75q0 42 10.5 76t30 58.5t48 37.5t63.5 13
q37 0 65.5 -13t48.5 -37.5t30.5 -58.5t10.5 -76zM127 0v10l456 670h104v-10l-456 -670h-104z" />
    <glyph glyph-name="guilsinglleft" unicode="&#x2039;" horiz-adv-x="321" 
d="M34 276l161 219l83 -49l-107 -177l108 -176l-84 -48l-161 219v12z" />
    <glyph glyph-name="guilsinglright" unicode="&#x203a;" horiz-adv-x="322" 
d="M288 264l-161 -219l-83 49l107 177l-108 176l84 48l161 -219v-12z" />
    <glyph glyph-name="fraction" unicode="&#x2044;" horiz-adv-x="160" 
d="M-200 0v10l456 670h104v-10l-456 -670h-104z" />
    <glyph glyph-name="zerosuperior" unicode="&#x2070;" horiz-adv-x="359" 
d="M123 623q0 -54 14.5 -78t40.5 -24q29 0 44 24t15 78t-15 79t-44 25q-26 0 -40.5 -25t-14.5 -79zM333 623q0 -41 -10.5 -75t-30.5 -58t-48.5 -37t-65.5 -13q-35 0 -63.5 13t-48 37t-30 58t-10.5 75q0 42 10.5 76t30 58.5t48 37.5t63.5 13q37 0 65.5 -13t48.5 -37.5
t30.5 -58.5t10.5 -76z" />
    <glyph glyph-name="foursuperior" unicode="&#x2074;" horiz-adv-x="340" 
d="M278 692v-93h42v-76h-42v-75h-91v75h-172v68l90 209h93l-81 -200v-1h70v93h91z" />
    <glyph glyph-name="fivesuperior" unicode="&#x2075;" horiz-adv-x="314" 
d="M42 608l18 192h216v-77h-135l-4 -45h16q60 0 98 -26t38 -89q0 -57 -40.5 -90t-118.5 -33q-14 0 -47.5 2.5t-67.5 14.5l21 81q23 -10 48.5 -14t50.5 -4q32 0 44 11t12 31q0 17 -13 27.5t-45 10.5q-20 0 -40 -1.5t-39 -3.5z" />
    <glyph glyph-name="sixsuperior" unicode="&#x2076;" horiz-adv-x="331" 
d="M256 795l-93 -119v-1q8 2 21 4.5t27 2.5q20 0 38.5 -7t33 -21.5t23.5 -36t9 -49.5q0 -29 -10.5 -52.5t-29 -40t-45 -26t-59.5 -9.5q-39 0 -67 11t-46 29t-26.5 41t-8.5 47q0 17 5.5 39.5t25.5 51.5l96 141h106v-5zM219 566q0 23 -12.5 35t-35.5 12q-25 0 -38.5 -12
t-13.5 -35q0 -24 13.5 -35.5t38.5 -11.5q23 0 35.5 11.5t12.5 35.5z" />
    <glyph glyph-name="sevensuperior" unicode="&#x2077;" horiz-adv-x="303" 
d="M43 453l147 269v1h-172v77h272v-71l-149 -281h-98v5z" />
    <glyph glyph-name="eightsuperior" unicode="&#x2078;" horiz-adv-x="344" 
d="M172 515q31 0 42.5 12t11.5 29t-11.5 28.5t-42.5 11.5q-32 0 -43.5 -11.5t-11.5 -28.5t12 -29t43 -12zM172 808q59 0 95.5 -27t36.5 -71q0 -32 -17 -50.5t-37 -26.5v-1q30 -9 49.5 -30t19.5 -57q0 -48 -40.5 -76.5t-106.5 -28.5q-67 0 -107 28.5t-40 76.5q0 36 20.5 57
t49.5 30v1q-21 8 -38 26.5t-17 50.5q0 44 36 71t96 27zM172 667q23 0 34 10t11 26q0 15 -11 25.5t-34 10.5t-33 -10.5t-10 -25.5q0 -16 10 -26t33 -10z" />
    <glyph glyph-name="ninesuperior" unicode="&#x2079;" horiz-adv-x="331" 
d="M76 454l93 118v1q-8 -3 -20.5 -5t-26.5 -2q-20 0 -39 7.5t-33.5 21.5t-23.5 35.5t-9 49.5q0 29 10.5 52.5t29.5 40.5t46 26t60 9q38 0 65.5 -11t45.5 -29t26.5 -41t8.5 -47q0 -17 -5.5 -39.5t-25.5 -51.5l-96 -141h-106v6zM114 681q0 -23 12.5 -34.5t36.5 -11.5t37 11.5
t13 34.5q0 24 -13 36.5t-37 12.5t-36.5 -12.5t-12.5 -36.5z" />
    <glyph glyph-name="plussuperior" unicode="&#x207a;" horiz-adv-x="265" 
d="M170 666h68v-77h-68v-67h-77v67h-66v77h66v67h77v-67z" />
    <glyph glyph-name="minussuperior" unicode="&#x207b;" horiz-adv-x="287" 
d="M38 589v77h211v-77h-211z" />
    <glyph glyph-name="parenleftsuperior" unicode="&#x207d;" horiz-adv-x="179" 
d="M22 623q0 42 8 79.5t20.5 69t27.5 58t29 47.5l56 -29q-23 -50 -39 -102.5t-16 -122.5q0 -69 16 -121.5t39 -103.5l-56 -28q-14 21 -29 47.5t-27.5 58t-20.5 68.5t-8 79z" />
    <glyph glyph-name="parenrightsuperior" unicode="&#x207e;" horiz-adv-x="179" 
d="M158 623q0 -42 -8 -79t-20.5 -68.5t-27.5 -58t-29 -47.5l-56 28q23 51 39 103.5t16 121.5q0 70 -16 122.5t-39 102.5l56 29q14 -21 29 -47.5t27.5 -58t20.5 -69t8 -79.5v0z" />
    <glyph glyph-name="zeroinferior" unicode="&#x2080;" horiz-adv-x="359" 
d="M123 56q0 -54 14.5 -78t40.5 -24q29 0 44 24t15 78t-15 79t-44 25q-26 0 -40.5 -25t-14.5 -79zM333 56q0 -41 -10.5 -75t-30.5 -58t-48.5 -37t-65.5 -13q-35 0 -63.5 13t-48 37t-30 58t-10.5 75q0 42 10.5 76t30 58.5t48 37.5t63.5 13q37 0 65.5 -13t48.5 -37.5
t30.5 -58.5t10.5 -76z" />
    <glyph glyph-name="oneinferior" unicode="&#x2081;" horiz-adv-x="261" 
d="M15 91v84l130 58h70v-352h-92v254h-2l-97 -44h-9z" />
    <glyph glyph-name="twoinferior" unicode="&#x2082;" horiz-adv-x="328" 
d="M159 -43h141v-76h-275v70l147 117q14 11 20 23t6 27q0 18 -11.5 31t-32.5 13q-25 0 -42.5 -12.5t-34.5 -29.5l-53 60q8 9 20.5 20t29.5 20t38 15t47 6q28 0 53 -7.5t43.5 -22t29 -36.5t10.5 -51q0 -37 -19.5 -63.5t-48.5 -48.5l-68 -53v-2z" />
    <glyph glyph-name="threeinferior" unicode="&#x2083;" horiz-adv-x="324" 
d="M78 95h69q23 0 34 8t11 25q0 14 -10.5 24t-39.5 10q-22 0 -46.5 -4.5t-43.5 -12.5l-26 73q23 9 52.5 16t66.5 7q69 0 106 -26t37 -74q0 -37 -18 -54.5t-38 -20.5v-1q29 -9 47.5 -30t18.5 -58q0 -47 -36.5 -75.5t-121.5 -28.5q-36 0 -67.5 7.5t-55.5 19.5l24 75
q18 -9 45 -15.5t53 -6.5q32 0 47.5 9t15.5 28q0 17 -12.5 22.5t-41.5 5.5h-70v77z" />
    <glyph glyph-name="fourinferior" unicode="&#x2084;" horiz-adv-x="340" 
d="M278 125v-93h42v-76h-42v-75h-91v75h-172v68l90 209h93l-81 -200v-1h70v93h91z" />
    <glyph glyph-name="fiveinferior" unicode="&#x2085;" horiz-adv-x="313" 
d="M41 41l18 192h216v-77h-135l-4 -45h16q60 0 98 -26t38 -89q0 -57 -40.5 -90t-118.5 -33q-14 0 -47.5 2.5t-67.5 14.5l21 81q23 -10 48.5 -14t50.5 -4q32 0 44 11t12 31q0 17 -13 27.5t-45 10.5q-20 0 -40 -1.5t-39 -3.5z" />
    <glyph glyph-name="sixinferior" unicode="&#x2086;" horiz-adv-x="332" 
d="M256 228l-93 -119v-1q8 2 21 4.5t27 2.5q20 0 38.5 -7t33 -21.5t23.5 -36t9 -49.5q0 -29 -10.5 -52.5t-29 -40t-45 -26t-59.5 -9.5q-39 0 -67 11t-46 29t-26.5 41t-8.5 47q0 17 5.5 39.5t25.5 51.5l96 141h106v-5zM219 -1q0 23 -12.5 35t-35.5 12q-25 0 -38.5 -12
t-13.5 -35q0 -24 13.5 -35.5t38.5 -11.5q23 0 35.5 11.5t12.5 35.5z" />
    <glyph glyph-name="seveninferior" unicode="&#x2087;" horiz-adv-x="302" 
d="M42 -114l147 269v1h-172v77h272v-71l-149 -281h-98v5z" />
    <glyph glyph-name="eightinferior" unicode="&#x2088;" horiz-adv-x="344" 
d="M172 -52q31 0 42.5 12t11.5 29t-11.5 28.5t-42.5 11.5q-32 0 -43.5 -11.5t-11.5 -28.5t12 -29t43 -12zM172 241q59 0 95.5 -27t36.5 -71q0 -32 -17 -50.5t-37 -26.5v-1q30 -9 49.5 -30t19.5 -57q0 -48 -40.5 -76.5t-106.5 -28.5q-67 0 -107 28.5t-40 76.5q0 36 20.5 57
t49.5 30v1q-21 8 -38 26.5t-17 50.5q0 44 36 71t96 27zM172 100q23 0 34 10t11 26q0 15 -11 25.5t-34 10.5t-33 -10.5t-10 -25.5q0 -16 10 -26t33 -10z" />
    <glyph glyph-name="nineinferior" unicode="&#x2089;" horiz-adv-x="332" 
d="M76 -113l93 118v1q-8 -3 -20.5 -5t-26.5 -2q-20 0 -39 7.5t-33.5 21.5t-23.5 35.5t-9 49.5q0 29 10.5 52.5t29.5 40.5t46 26t60 9q38 0 65.5 -11t45.5 -29t26.5 -41t8.5 -47q0 -17 -5.5 -39.5t-25.5 -51.5l-96 -141h-106v6zM114 114q0 -23 12.5 -34.5t36.5 -11.5t37 11.5
t13 34.5q0 24 -13 36.5t-37 12.5t-36.5 -12.5t-12.5 -36.5z" />
    <glyph glyph-name="parenleftinferior" unicode="&#x208d;" horiz-adv-x="180" 
d="M22 56q0 42 8 79.5t20.5 69t27.5 58t29 47.5l56 -29q-23 -50 -39 -102.5t-16 -122.5q0 -69 16 -121.5t39 -103.5l-56 -28q-14 21 -29 47.5t-27.5 58t-20.5 68.5t-8 79z" />
    <glyph glyph-name="parenrightinferior" unicode="&#x208e;" horiz-adv-x="180" 
d="M158 56q0 -42 -8 -79t-20.5 -68.5t-27.5 -58t-29 -47.5l-56 28q23 51 39 103.5t16 121.5q0 70 -16 122.5t-39 102.5l56 29q14 -21 29 -47.5t27.5 -58t20.5 -69t8 -79.5v0z" />
    <glyph glyph-name="uni20A1" unicode="&#x20a1;" 
d="M493 675q16 -5 31 -11t31 -13l-37 -110q-13 5 -24.5 9.5t-22.5 8.5l-85 -455q33 2 64 10t68 25l37 -110q-46 -22 -95 -33t-95 -11h-1h-1l-18 -93h-68l19 99q-13 2 -25 5t-23 6l-20 -110h-69l26 139q-72 44 -109.5 123.5t-37.5 185.5q0 72 17.5 132.5t52 106.5t85.5 74.5
t117 37.5l15 79h68l-15 -75q13 -1 24.5 -2t24.5 -3l15 80h69zM272 129q11 -6 22 -11.5t24 -8.5l87 465q-10 1 -20 1.5t-20 0.5h-4.5h-4.5zM183 340q0 -45 8 -83t25 -67l68 368q-50 -26 -75.5 -82.5t-25.5 -135.5z" />
    <glyph glyph-name="lira" unicode="&#x20a4;" horiz-adv-x="569" 
d="M275 207q-5 -27 -18.5 -49.5t-30.5 -39.5v-2h293v-116h-456v96q20 11 33 22.5t21 23.5t11.5 25.5t3.5 29.5v10h-79v103h68l-4 30t-4 32h-60v103h53v6v6q0 109 58.5 158.5t176.5 49.5q47 0 98.5 -12.5t94.5 -32.5l-37 -110q-37 16 -75.5 26t-80.5 10q-22 0 -39 -4.5
t-28 -15t-17 -27.5t-6 -42v-6v-6h187v-103h-177l9 -62h168v-103h-163z" />
    <glyph glyph-name="uni20A6" unicode="&#x20a6;" horiz-adv-x="683" 
d="M610 218v-218h-195l-85 218h-131v-218h-127v218h-48v89h48v69h-48v89h48v215h196l83 -215h132v215h127v-215h49v-89h-49v-69h49v-89h-49zM411 307h75l-2 69h-99zM195 376l3 -69h97l-27 69h-73zM494 101l-5 117h-43l45 -117h3zM186 579l5 -114h42l-44 114h-3z" />
    <glyph glyph-name="rupee" unicode="&#x20a8;" 
d="M443 405q-6 -34 -21 -62t-39 -48.5t-57 -33.5t-76 -17l237 -228v-16h-160l-260 261v86h112q53 0 83 14.5t38 43.5h-248l30 101h218q-8 29 -38.5 43.5t-82.5 14.5h-127l30 116h466l-30 -101h-141v-2q26 -16 40 -34t21 -37h110l-30 -101h-75z" />
    <glyph glyph-name="uni20AA" unicode="&#x20aa;" horiz-adv-x="750" 
d="M401 194v227q0 42 -5.5 70t-19.5 44t-37 22.5t-59 6.5h-92v-564h-139v680h231q74 0 120.5 -15.5t73 -47.5t36.5 -81.5t10 -117.5v-224h-119zM706 681v-419q0 -68 -13 -117.5t-43 -81.5t-80 -47.5t-124 -15.5h-211v486h119v-370h92q36 0 59 6.5t37 22.5t19.5 44t5.5 70
v422h139z" />
    <glyph glyph-name="dong" unicode="&#x20ab;" 
d="M500 568v-438h-107l-13 27h-2q-25 -15 -57.5 -27t-81.5 -12q-48 0 -85 16.5t-62 45t-38 66.5t-13 81q0 42 13 80t38 66.5t62 45t85 16.5q46 0 75 -10t49 -21h2v64h-96v88h96v44h135v-44h44v-88h-44zM365 409q-17 7 -38.5 12t-44.5 5q-26 0 -45.5 -6.5t-32.5 -19.5
t-19 -31t-6 -42t6 -43t19 -32t32.5 -19.5t45.5 -6.5q23 0 44.5 6t38.5 11v166zM74 0v88h425v-88h-425z" />
    <glyph glyph-name="Euro" unicode="&#x20ac;" 
d="M242 204q22 -49 59 -74.5t85 -25.5q38 0 71 7.5t74 27.5l37 -110q-44 -22 -90.5 -33t-91.5 -11q-117 0 -189 58.5t-99 160.5h-82l31 101h34q-1 9 -1 18v17v16.5t1 18.5h-65l30 101h52q27 102 99 160.5t189 58.5q45 0 91.5 -11t90.5 -33l-37 -110q-41 20 -74 27.5t-71 7.5
q-48 0 -86.5 -26t-58.5 -74h264l-29 -101h-257q-1 -10 -1 -18.5v-16.5v-17t1 -18h242l-29 -101h-190z" />
    <glyph glyph-name="uni20AD" unicode="&#x20ad;" 
d="M391 283l182 -273v-10h-160l-169 283h-27v-283h-139v283h-53v103h53v294h139v-294h27l163 294h155v-10l-174 -284h149v-103h-146z" />
    <glyph glyph-name="uni20AE" unicode="&#x20ae;" 
d="M461 237l-97 -34v-203h-139v156l-96 -33v89l96 33v61l-96 -33v89l96 33v169h-191v116h522v-116h-192v-122l97 34v-89l-97 -34v-61l97 34v-89z" />
    <glyph glyph-name="uni20B1" unicode="&#x20b1;" 
d="M502 305q-24 -73 -81.5 -114.5t-149.5 -41.5h-49v-149h-139v305h-48v86h48v49h-48v86h48v154h188q93 0 150.5 -41t81.5 -113h65v-86h-50q1 -5 1 -12.5v-12.5v-12t-1 -12h50v-86h-66zM380 415v12.5t-1 12.5h-161v-49h161q1 5 1 12v12zM267 263q57 0 85 44h-134v-44h49z
M218 524h133q-14 20 -34.5 31t-49.5 11h-49v-42z" />
    <glyph glyph-name="uni20B2" unicode="&#x20b2;" 
d="M341 695q27 -1 54.5 -5.5t52 -11t46 -15t36.5 -17.5l-37 -108q-29 15 -67.5 26t-84.5 12v-472q16 2 35.5 6t33.5 12v133l-39 11v99h168v-321q-36 -23 -89 -39t-109 -19v-94h-82v98q-54 9 -95.5 38.5t-69.5 75t-42.5 105.5t-14.5 131q0 63 13.5 120t41 103.5t69 79
t98.5 45.5v82h82v-75zM183 340q0 -44 4.5 -80.5t14 -65.5t24 -49.5t33.5 -30.5v448q-39 -23 -57.5 -81t-18.5 -141z" />
    <glyph glyph-name="uni20B4" unicode="&#x20b4;" 
d="M212 207q-1 -5 -1.5 -9.5t-0.5 -9.5q0 -43 24 -64.5t75 -21.5q20 0 44.5 5t49 13.5t46 18.5t35.5 20l40 -109q-19 -12 -45 -23.5t-54.5 -21t-58.5 -15t-57 -5.5q-57 0 -100 14.5t-72.5 41t-44.5 63t-15 81.5v11t1 11h-35v98h104q14 11 27.5 22.5t24.5 19.5l42 30h-198v98
h330q2 5 2 11v13q0 36 -23 57.5t-72 21.5q-14 0 -32 -3.5t-38.5 -9t-40.5 -13.5t-37 -17l-40 111q24 12 49.5 21t50.5 15t47.5 9.5t40.5 3.5q58 0 100.5 -15t71 -41.5t42.5 -62.5t14 -78q0 -6 -0.5 -12t-1.5 -11h36v-98h-106q-12 -10 -27 -22t-29 -21l-44 -29h206v-98h-330z
" />
    <glyph glyph-name="uni20B5" unicode="&#x20b5;" 
d="M380 695q42 -2 87.5 -13t87.5 -31l-37 -110q-38 17 -70.5 25t-67.5 10v-472q35 2 67.5 10t70.5 25l37 -110q-42 -20 -87.5 -31t-87.5 -13v-93h-88v99q-62 11 -110 40.5t-80 74.5t-48.5 104.5t-16.5 129.5t16.5 129t48.5 104t80 75t110 41v81h88v-75zM182 340
q0 -83 28 -141t82 -81v444q-54 -23 -82 -81.5t-28 -140.5z" />
    <glyph glyph-name="afii61289" unicode="&#x2113;" horiz-adv-x="385" 
d="M355 26q-25 -21 -56 -31t-63 -10q-54 0 -85.5 31.5t-31.5 96.5v107q-3 -3 -10 -9t-15.5 -13t-17 -13.5t-15.5 -11.5l-41 74q12 9 27 21t28.5 24t25.5 23t18 18v215q0 43 9.5 75t27 52t41 30t52.5 10q53 0 82.5 -34.5t29.5 -99.5q0 -78 -40 -152.5t-114 -144.5v-147
q0 -14 3 -25t9 -18t14 -10.5t18 -3.5q19 0 38 8t37 22zM271 569q0 29 -10 40.5t-23 11.5q-14 0 -22.5 -11.5t-8.5 -43.5v-167q31 33 47.5 80t16.5 90z" />
    <glyph glyph-name="afii61352" unicode="&#x2116;" horiz-adv-x="1106" 
d="M518 211v469h139v-680h-147l-289 469h-3v-469h-139v680h147l289 -469h3zM828 502q0 -46 20.5 -62t48.5 -16q29 0 49 16t20 62q0 45 -20 61.5t-49 16.5q-28 0 -48.5 -16.5t-20.5 -61.5zM1066 502q0 -33 -11 -62.5t-32.5 -51t-53 -34.5t-72.5 -13q-40 0 -71.5 13t-53 34.5
t-33 51t-11.5 62.5t11.5 62.5t33 51t53 34.5t71.5 13q41 0 72.5 -13t53 -34.5t32.5 -51t11 -62.5zM755 196v87h283v-87h-283z" />
    <glyph glyph-name="uni2117" unicode="&#x2117;" horiz-adv-x="802" 
d="M46 340q0 75 27 140t75 113t113 75t140 27t140 -27t113 -75t75 -113t27 -140t-27 -140t-75 -113t-113 -75t-140 -27t-140 27t-113 75t-75 113t-27 140zM117 340q0 -61 22.5 -113.5t62 -91t92.5 -60.5t114 -22t111.5 22t87.5 60.5t57.5 91t20.5 113.5t-21.5 113.5
t-59.5 91t-90 60.5t-113 22t-113 -22t-90 -60.5t-59.5 -91t-21.5 -113.5zM280 153v374h152q36 0 61.5 -10t41.5 -27.5t23 -41t7 -50.5t-7.5 -50.5t-23 -41t-41 -27.5t-61.5 -10h-61v-116h-91zM371 343h50q27 0 38 14t11 41q0 28 -11 41.5t-38 13.5h-50v-110z" />
    <glyph glyph-name="trademark" unicode="&#x2122;" horiz-adv-x="738" 
d="M299 700v-64h-82v-216h-80v216h-83v64h245zM508 557l73 143h87v-280h-81v172h-1l-45 -115h-66l-46 115h-1v-172h-79v280h88l70 -143h1z" />
    <glyph glyph-name="Omega" unicode="&#x2126;" horiz-adv-x="774" 
d="M55 116h142q-27 15 -52 39t-44 57.5t-30.5 76.5t-11.5 95q0 58 19.5 113.5t59.5 99.5t102 71t147 27q84 0 146 -27t102.5 -71t60 -99.5t19.5 -113.5q0 -52 -11.5 -94.5t-30.5 -76t-44.5 -58t-52.5 -39.5h142v-116h-288v102q31 20 56.5 44t44 55.5t28.5 72t10 91.5
q0 41 -9.5 79t-31 67.5t-56.5 47t-85 17.5q-51 0 -85.5 -17.5t-56.5 -47t-31.5 -67.5t-9.5 -79q0 -51 10 -91.5t28.5 -72t44 -55.5t56.5 -44v-102h-288v116z" />
    <glyph glyph-name="estimated" unicode="&#x212e;" horiz-adv-x="656" 
d="M577 106q-47 -65 -104.5 -93t-137.5 -28q-65 0 -117 24t-89.5 65.5t-57.5 97t-20 118.5q0 64 20 119t57.5 95.5t89.5 64t117 23.5q63 0 115 -21.5t89.5 -60t59 -92t23.5 -118.5l-7 -10h-445v-201q32 -31 74.5 -46.5t90.5 -15.5q62 0 114.5 24t90.5 82zM501 491
q-35 33 -77.5 48t-88.5 15q-48 0 -90.5 -15t-74.5 -48v-161h331v161z" />
    <glyph glyph-name="onethird" unicode="&#x2153;" horiz-adv-x="773" 
d="M92 0v10l456 670h104v-10l-456 -670h-104zM516 214h69q23 0 34 8t11 25q0 14 -10.5 24t-39.5 10q-22 0 -46.5 -4.5t-43.5 -12.5l-26 73q23 9 52.5 16t66.5 7q69 0 106 -26t37 -74q0 -37 -18 -54.5t-38 -20.5v-1q29 -9 47.5 -30t18.5 -58q0 -47 -36.5 -75.5t-121.5 -28.5
q-36 0 -67.5 7.5t-55.5 19.5l24 75q18 -9 45 -15.5t53 -6.5q32 0 47.5 9t15.5 28q0 17 -12.5 22.5t-41.5 5.5h-70v77zM30 538v84l130 58h70v-352h-92v254h-2l-97 -44h-9z" />
    <glyph glyph-name="twothirds" unicode="&#x2154;" horiz-adv-x="824" 
d="M144 0v10l456 670h104v-10l-456 -670h-104zM568 214h69q23 0 34 8t11 25q0 14 -10.5 24t-39.5 10q-22 0 -46.5 -4.5t-43.5 -12.5l-26 73q23 9 52.5 16t66.5 7q69 0 106 -26t37 -74q0 -37 -18 -54.5t-38 -20.5v-1q29 -9 47.5 -30t18.5 -58q0 -47 -36.5 -75.5t-121.5 -28.5
q-36 0 -67.5 7.5t-55.5 19.5l24 75q18 -9 45 -15.5t53 -6.5q32 0 47.5 9t15.5 28q0 17 -12.5 22.5t-41.5 5.5h-70v77zM176 402h141v-76h-275v70l147 117q14 11 20 23t6 27q0 18 -11.5 31t-32.5 13q-25 0 -42.5 -12.5t-34.5 -29.5l-53 60q8 9 20.5 20t29.5 20t38 15t47 6
q28 0 53 -7.5t43.5 -22t29 -36.5t10.5 -51q0 -37 -19.5 -63.5t-48.5 -48.5l-68 -53v-2z" />
    <glyph glyph-name="oneeighth" unicode="&#x215b;" horiz-adv-x="773" 
d="M30 538v84l130 58h70v-352h-92v254h-2l-97 -44h-9zM92 0v10l456 670h104v-10l-456 -670h-104zM592 67q31 0 42.5 12t11.5 29t-11.5 28.5t-42.5 11.5q-32 0 -43.5 -11.5t-11.5 -28.5t12 -29t43 -12zM592 360q59 0 95.5 -27t36.5 -71q0 -32 -17 -50.5t-37 -26.5v-1
q30 -9 49.5 -30t19.5 -57q0 -48 -40.5 -76.5t-106.5 -28.5q-67 0 -107 28.5t-40 76.5q0 36 20.5 57t49.5 30v1q-21 8 -38 26.5t-17 50.5q0 44 36 71t96 27zM592 219q23 0 34 10t11 26q0 15 -11 25.5t-34 10.5t-33 -10.5t-10 -25.5q0 -16 10 -26t33 -10z" />
    <glyph glyph-name="threeeighths" unicode="&#x215c;" horiz-adv-x="813" 
d="M133 0v10l456 670h104v-10l-456 -670h-104zM633 67q31 0 42.5 12t11.5 29t-11.5 28.5t-42.5 11.5q-32 0 -43.5 -11.5t-11.5 -28.5t12 -29t43 -12zM633 360q59 0 95.5 -27t36.5 -71q0 -32 -17 -50.5t-37 -26.5v-1q30 -9 49.5 -30t19.5 -57q0 -48 -40.5 -76.5t-106.5 -28.5
q-67 0 -107 28.5t-40 76.5q0 36 20.5 57t49.5 30v1q-21 8 -38 26.5t-17 50.5q0 44 36 71t96 27zM633 219q23 0 34 10t11 26q0 15 -11 25.5t-34 10.5t-33 -10.5t-10 -25.5q0 -16 10 -26t33 -10zM94 539h69q23 0 34 8t11 25q0 14 -10.5 24t-39.5 10q-22 0 -46.5 -4.5
t-43.5 -12.5l-26 73q23 9 52.5 16t66.5 7q69 0 106 -26t37 -74q0 -37 -18 -54.5t-38 -20.5v-1q29 -9 47.5 -30t18.5 -58q0 -47 -36.5 -75.5t-121.5 -28.5q-36 0 -67.5 7.5t-55.5 19.5l24 75q18 -9 45 -15.5t53 -6.5q32 0 47.5 9t15.5 28q0 17 -12.5 22.5t-41.5 5.5h-70v77z
" />
    <glyph glyph-name="fiveeighths" unicode="&#x215d;" horiz-adv-x="796" 
d="M116 0v10l456 670h104v-10l-456 -670h-104zM616 67q31 0 42.5 12t11.5 29t-11.5 28.5t-42.5 11.5q-32 0 -43.5 -11.5t-11.5 -28.5t12 -29t43 -12zM616 360q59 0 95.5 -27t36.5 -71q0 -32 -17 -50.5t-37 -26.5v-1q30 -9 49.5 -30t19.5 -57q0 -48 -40.5 -76.5t-106.5 -28.5
q-67 0 -107 28.5t-40 76.5q0 36 20.5 57t49.5 30v1q-21 8 -38 26.5t-17 50.5q0 44 36 71t96 27zM616 219q23 0 34 10t11 26q0 15 -11 25.5t-34 10.5t-33 -10.5t-10 -25.5q0 -16 10 -26t33 -10zM58 488l18 192h216v-77h-135l-4 -45h16q60 0 98 -26t38 -89q0 -57 -40.5 -90
t-118.5 -33q-14 0 -47.5 2.5t-67.5 14.5l21 81q23 -10 48.5 -14t50.5 -4q32 0 44 11t12 31q0 17 -13 27.5t-45 10.5q-20 0 -40 -1.5t-39 -3.5z" />
    <glyph glyph-name="seveneighths" unicode="&#x215e;" horiz-adv-x="754" 
d="M74 0v10l456 670h104v-10l-456 -670h-104zM574 67q31 0 42.5 12t11.5 29t-11.5 28.5t-42.5 11.5q-32 0 -43.5 -11.5t-11.5 -28.5t12 -29t43 -12zM574 360q59 0 95.5 -27t36.5 -71q0 -32 -17 -50.5t-37 -26.5v-1q30 -9 49.5 -30t19.5 -57q0 -48 -40.5 -76.5t-106.5 -28.5
q-67 0 -107 28.5t-40 76.5q0 36 20.5 57t49.5 30v1q-21 8 -38 26.5t-17 50.5q0 44 36 71t96 27zM574 219q23 0 34 10t11 26q0 15 -11 25.5t-34 10.5t-33 -10.5t-10 -25.5q0 -16 10 -26t33 -10zM63 333l147 269v1h-172v77h272v-71l-149 -281h-98v5z" />
    <glyph glyph-name="arrowleft" unicode="&#x2190;" horiz-adv-x="892" 
d="M420 719l89 -89l-248 -232h631v-118h-631l248 -232l-89 -89l-380 380z" />
    <glyph glyph-name="arrowup" unicode="&#x2191;" horiz-adv-x="892" 
d="M845 383l-89 -89l-232 249v-631h-119l1 631l-232 -249l-89 89l380 380z" />
    <glyph glyph-name="arrowright" unicode="&#x2192;" horiz-adv-x="892" 
d="M512 -41l-89 89l248 232h-631v118h631l-248 232l89 89l380 -380z" />
    <glyph glyph-name="arrowdown" unicode="&#x2193;" horiz-adv-x="892" 
d="M85 292l89 89l232 -249v631h119l-1 -631l232 249l89 -89l-380 -380z" />
    <glyph glyph-name="uni2196" unicode="&#x2196;" horiz-adv-x="888" 
d="M697 662v-126l-339 11l446 -445l-85 -85l-446 447l12 -340h-126v538h538z" />
    <glyph glyph-name="uni2197" unicode="&#x2197;" horiz-adv-x="888" 
d="M804 124h-126l11 339l-445 -446l-85 85l447 446l-340 -11v125h538v-538z" />
    <glyph glyph-name="uni2198" unicode="&#x2198;" horiz-adv-x="888" 
d="M266 18v126l339 -11l-446 445l85 85l446 -447l-12 340h126v-538h-538z" />
    <glyph glyph-name="uni2199" unicode="&#x2199;" horiz-adv-x="888" 
d="M159 556h126l-11 -339l445 446l85 -85l-447 -446l340 12v-126h-538v538z" />
    <glyph glyph-name="partialdiff" unicode="&#x2202;" horiz-adv-x="604" 
d="M176 700q95 0 166 -26.5t118.5 -75t71.5 -116.5t24 -151q0 -76 -19 -139.5t-55 -109.5t-88 -71.5t-119 -25.5q-58 0 -103 19.5t-76 53t-47.5 78.5t-16.5 95q0 62 18 108.5t47.5 78t68.5 47.5t81 16q37 0 65 -7.5t48.5 -18.5t34.5 -24t24 -24l2 2q-7 42 -27.5 73.5
t-53.5 53.5t-78.5 33.5t-103.5 12.5zM416 292q-20 25 -52.5 48t-76.5 23q-53 0 -81.5 -37t-28.5 -95q0 -27 7.5 -50.5t22 -40.5t34.5 -27t45 -10q30 0 53.5 14.5t40 40t25.5 60t11 74.5z" />
    <glyph glyph-name="Delta" unicode="&#x2206;" horiz-adv-x="708" 
d="M683 0h-658v5l248 675h162l248 -675v-5zM352 538l-145 -422h295l-147 422h-3z" />
    <glyph glyph-name="product" unicode="&#x220f;" horiz-adv-x="714" 
d="M500 584h-286v-782h-139v898h564v-898h-139v782z" />
    <glyph glyph-name="summation" unicode="&#x2211;" horiz-adv-x="608" 
d="M32 -95l274 353l-258 338v104h509v-116h-353l253 -322l-270 -344h385v-116h-540v103z" />
    <glyph glyph-name="minus" unicode="&#x2212;" 
d="M550 323v-103h-510v103h510z" />
    <glyph glyph-name="uni2215" unicode="&#x2215;" horiz-adv-x="560" 
d="M0 0v10l456 670h104v-10l-456 -670h-104z" />
    <glyph glyph-name="uni2219" unicode="&#x2219;" horiz-adv-x="278" 
d="M54 291q0 38 23 62t62 24t62 -24t23 -62t-23 -62t-62 -24t-62 24t-23 62z" />
    <glyph glyph-name="radical" unicode="&#x221a;" horiz-adv-x="640" 
d="M8 222h127l121 -280h2l260 738h124l-313 -878h-140l-181 410v10z" />
    <glyph glyph-name="infinity" unicode="&#x221e;" horiz-adv-x="743" 
d="M538 113q-23 0 -42.5 4t-39 14t-39.5 27t-44 43q-25 -26 -46 -42.5t-41 -27t-40 -14.5t-42 -4q-33 0 -61.5 11.5t-49.5 32.5t-32.5 50t-11.5 64t11.5 64t32.5 49.5t50 32t63 11.5q22 0 40.5 -4t38 -14t40.5 -27t47 -44q26 27 47 44.5t39.5 27t37.5 13.5t41 4q33 0 62 -11
t50 -31.5t33 -49.5t12 -65q0 -35 -11.5 -64t-32.5 -50t-49.5 -32.5t-62.5 -11.5zM528 211q27 0 42 17.5t15 42.5q0 23 -15 41t-42 18q-19 0 -38 -13.5t-48 -46.5q30 -32 48.5 -45.5t37.5 -13.5zM216 211q18 0 37.5 14t47.5 46q-29 32 -47.5 45.5t-37.5 13.5q-28 0 -43 -17.5
t-15 -41.5q0 -26 15 -43t43 -17z" />
    <glyph glyph-name="integral" unicode="&#x222b;" horiz-adv-x="520" 
d="M244 536q15 84 61 121.5t121 37.5q20 0 47 -2t43 -5l-15 -111q-13 3 -32 5t-32 2q-27 0 -40 -10.5t-19 -43.5l-103 -584q-15 -84 -61 -121.5t-121 -37.5q-20 0 -47 2t-42 5l15 111q13 -3 31.5 -5t30.5 -2q27 0 40.5 10.5t19.5 43.5z" />
    <glyph glyph-name="approxequal" unicode="&#x2248;" 
d="M40 398q23 33 54.5 49t75.5 16q32 0 66 -8.5t67.5 -19t65 -19t59.5 -8.5q25 0 40 5t31 19l48 -63q-24 -33 -55 -48.5t-74 -15.5q-29 0 -62.5 8.5t-68 19t-67.5 19t-61 8.5q-26 0 -42 -6t-29 -19zM40 173q23 33 54.5 49t75.5 16q32 0 66 -8.5t67.5 -19t65 -19t59.5 -8.5
q25 0 40 5t31 19l48 -63q-24 -33 -55 -48.5t-74 -15.5q-29 0 -62.5 8.5t-68 19t-67.5 19t-61 8.5q-26 0 -42 -6t-29 -19z" />
    <glyph glyph-name="notequal" unicode="&#x2260;" 
d="M127 0v10l41 97h-109v103h152l52 123h-204v103h248l44 105h110v-10l-40 -95h108v-103h-152l-52 -123h204v-103h-247l-45 -107h-110z" />
    <glyph glyph-name="lessequal" unicode="&#x2264;" 
d="M534 136l-500 195v99l500 195h10v-109l-380 -134v-3l380 -134v-109h-10zM544 103v-103h-510v103h510z" />
    <glyph glyph-name="greaterequal" unicode="&#x2265;" 
d="M45 136v109l380 134v3l-380 134v109h10l500 -195v-99l-500 -195h-10zM555 103v-103h-510v103h510z" />
    <glyph glyph-name="lozenge" unicode="&#x25ca;" horiz-adv-x="581" 
d="M26 327l212 353h101l216 -333l-211 -347h-103zM421 340l-133 213l-128 -221l134 -206z" />
    <glyph glyph-name="whitecircle" unicode="&#x25cb;" horiz-adv-x="800" 
d="M60 340q0 72 26 134.5t71.5 108t108 71.5t134.5 26t134.5 -26t108 -71.5t71.5 -108t26 -134.5t-26 -134.5t-71.5 -108t-108 -71.5t-134.5 -26t-134.5 26t-108 71.5t-71.5 108t-26 134.5zM125 340q0 -59 21 -109t57.5 -87.5t87 -58.5t109.5 -21q58 0 108.5 21t87 58.5
t57.5 87.5t21 109q0 58 -21 108.5t-57.5 88t-87 58.5t-108.5 21q-59 0 -109.5 -21t-87 -58.5t-57.5 -88t-21 -108.5z" />
    <glyph glyph-name="blackcircle" unicode="&#x25cf;" horiz-adv-x="800" 
d="M60 341q0 72 26 134t71.5 107.5t107.5 71.5t134 26t134.5 -26t108.5 -71.5t72 -107.5t26 -134t-26 -134.5t-72 -108.5t-108.5 -72t-134.5 -26t-134 26t-107.5 72t-71.5 108.5t-26 134.5z" />
    <glyph glyph-name="uni25DC" unicode="&#x25dc;" horiz-adv-x="340" 
d="M340 616q-59 0 -109.5 -21t-87 -58.5t-57.5 -88t-21 -108.5h-65q0 72 26 134.5t71.5 108t108 71.5t134.5 26v-64z" />
    <glyph glyph-name="uni25DD" unicode="&#x25dd;" horiz-adv-x="340" 
d="M0 680q72 0 134.5 -26t108 -71.5t71.5 -108t26 -134.5h-66q0 58 -21 108.5t-57.5 88t-87 58.5t-108.5 21v64z" />
    <glyph glyph-name="uni25DE" unicode="&#x25de;" horiz-adv-x="340" 
d="M0 64q58 0 108.5 21t87 58.5t57.5 87.5t21 109h66q0 -72 -26 -134.5t-71.5 -108t-108 -71.5t-134.5 -26v64z" />
    <glyph glyph-name="uni25DF" unicode="&#x25df;" horiz-adv-x="340" 
d="M340 0q-72 0 -134.5 26t-108 71.5t-71.5 108t-26 134.5h65q0 -59 21 -109t57.5 -87.5t87 -58.5t109.5 -21v-64z" />
    <glyph glyph-name="uniEA01" unicode="&#xea01;" horiz-adv-x="1000" 
d="M69 765h861v-861h-861v861zM857 -23v715h-715v-715h715zM589 298h-176v-188h-116v469h116v-188h176v188h115v-469h-115v188z" />
    <glyph glyph-name="uniEA02" unicode="&#xea02;" horiz-adv-x="1000" 
d="M69 765h861v-861h-861v861zM857 -23v715h-715v-715h715zM287 344q0 55 15.5 100t45.5 77t74 50t101 18q34 0 69.5 -7.5t68.5 -22.5l-30 -92q-32 15 -55 20.5t-53 5.5q-48 0 -81 -37t-33 -112q0 -37 9 -65t24 -46.5t36 -27.5t45 -9q30 0 53 5.5t55 19.5l30 -92
q-33 -14 -68.5 -22t-69.5 -8q-57 0 -101 17.5t-74 50t-45.5 77.5t-15.5 100z" />
    <glyph glyph-name="uniEA03" unicode="&#xea03;" horiz-adv-x="1000" 
d="M69 765h861v-861h-861v861zM857 -23v715h-715v-715h715zM349 233q12 -7 29.5 -14t36.5 -12.5t38.5 -9t37.5 -3.5q64 0 64 47q0 17 -12 26.5t-49 21.5l-54 17q-66 22 -90.5 57t-24.5 79q0 69 48 108t129 39q28 0 68 -6t81 -24l-30 -92q-29 14 -61.5 21t-57.5 7
q-31 0 -44.5 -12.5t-13.5 -32.5q0 -14 8.5 -23.5t34.5 -17.5l52 -16q68 -21 101.5 -52t33.5 -86q0 -37 -14 -66t-38.5 -49t-57.5 -30.5t-70 -10.5q-51 0 -97 13t-77 29z" />
    <glyph glyph-name="uniEA04" unicode="&#xea04;" horiz-adv-x="1000" 
d="M69 765h861v-861h-861v861zM589 110h115v469h-115v-188h-176v188h-116v-469h116v188h176v-188z" />
    <glyph glyph-name="uniEA05" unicode="&#xea05;" horiz-adv-x="1000" 
d="M69 765h861v-861h-861v861zM287 344q0 -55 15.5 -100t45.5 -77.5t74 -50t101 -17.5q34 0 69.5 8t68.5 22l-30 92q-32 -14 -55 -19.5t-53 -5.5q-24 0 -45 9t-36 27.5t-24 46.5t-9 65q0 75 33 112t81 37q30 0 53 -5.5t55 -20.5l30 92q-33 15 -68.5 22.5t-69.5 7.5
q-57 0 -101 -18t-74 -50t-45.5 -77t-15.5 -100z" />
    <glyph glyph-name="uniEA06" unicode="&#xea06;" horiz-adv-x="1000" 
d="M69 765h861v-861h-861v861zM320 141q31 -16 77 -29t97 -13q37 0 70 10.5t57.5 30.5t38.5 49t14 66q0 55 -33.5 86t-101.5 52l-52 16q-26 8 -34.5 17.5t-8.5 23.5q0 20 13.5 32.5t44.5 12.5q25 0 57.5 -7t61.5 -21l30 92q-41 18 -81 24t-68 6q-81 0 -129 -39t-48 -108
q0 -44 24.5 -79t90.5 -57l54 -17q37 -12 49 -21.5t12 -26.5q0 -47 -64 -47q-18 0 -37.5 3.5t-38.5 9t-36.5 12.5t-29.5 14z" />
    <glyph glyph-name="commaaccent" unicode="&#xf6c3;" 
d="M215 -208l25 156h135v-10l-59 -156h-101v10z" />
    <glyph glyph-name="commainferior" unicode="&#xf6e1;" horiz-adv-x="191" 
d="M11 -212l39 215h111v-8l-67 -215h-83v8z" />
    <glyph glyph-name="commasuperior" unicode="&#xf6e2;" horiz-adv-x="192" 
d="M11 354l39 215h111v-8l-67 -215h-83v8z" />
    <glyph glyph-name="hypheninferior" unicode="&#xf6e5;" horiz-adv-x="267" 
d="M38 22v77h191v-77h-191z" />
    <glyph glyph-name="hyphensuperior" unicode="&#xf6e6;" horiz-adv-x="267" 
d="M38 589v77h191v-77h-191z" />
    <glyph glyph-name="periodinferior" unicode="&#xf6e7;" horiz-adv-x="188" 
d="M28 -61q0 30 18 49t48 19t48 -19t18 -49q0 -29 -18 -47.5t-48 -18.5t-48 18.5t-18 47.5z" />
    <glyph glyph-name="periodsuperior" unicode="&#xf6e8;" horiz-adv-x="190" 
d="M29 506q0 30 18 49t48 19t48 -19t18 -49q0 -29 -18 -47.5t-48 -18.5t-48 18.5t-18 47.5z" />
    <glyph glyph-name="uniF8FF" unicode="&#xf8ff;" horiz-adv-x="559" 
d="M73 680h413v-680h-413v680zM428 58v564h-297v-564h297z" />
    <glyph glyph-name="fi" unicode="&#xfb01;" horiz-adv-x="643" 
d="M445 0v379h-205v-379h-135v379h-85v73l85 30v64q0 83 45 121t119 38q20 0 45 -2t41 -5v-111q-14 3 -33 5t-32 2q-27 0 -38.5 -10.5t-11.5 -43.5v-58h340v-482h-135zM435 630q0 32 21.5 53t56.5 21q36 0 57.5 -21t21.5 -53t-21.5 -53t-57.5 -21q-35 0 -56.5 21t-21.5 53z
" />
    <glyph glyph-name="fl" unicode="&#xfb02;" horiz-adv-x="672" 
d="M105 0v379h-85v73l85 30v64q0 83 45 121t119 38q20 0 45 -2t41 -5v-111q-14 3 -33 5t-32 2q-27 0 -38.5 -10.5t-11.5 -43.5v-58h120v-103h-120v-379h-135zM578 700v-592q0 -11 2.5 -14.5t13.5 -3.5h53v-92q-16 -3 -37 -5t-43 -2q-69 0 -96.5 34.5t-27.5 106.5v568h135z
" />
    <glyph glyph-name="zero.lf" horiz-adv-x="648" 
d="M196 340q0 -56 6.5 -100t21.5 -74t39.5 -46t61.5 -16q36 0 60.5 16t39.5 46t21 74t6 100t-6 100t-21 74t-39.5 46t-60.5 16q-37 0 -61.5 -16t-39.5 -46t-21.5 -74t-6.5 -100zM597 340q0 -82 -15 -147.5t-48 -111.5t-84.5 -71t-124.5 -25q-74 0 -126 25t-85 71t-48 111.5
t-15 147.5t15 147.5t48 111.5t85 71t126 25q73 0 124.5 -25t84.5 -71t48 -111.5t15 -147.5z" />
    <glyph glyph-name="one.lf" horiz-adv-x="407" 
d="M28 491v119l196 70h104v-680h-139v542h-2l-147 -51h-12z" />
    <glyph glyph-name="two.lf" horiz-adv-x="569" 
d="M233 116h286v-116h-475v100l254 247q15 14 27.5 28.5t21.5 30t14.5 33.5t5.5 40q0 40 -29 68.5t-75 28.5q-48 0 -82.5 -21t-65.5 -50l-73 90q14 15 36 32.5t50.5 32.5t62.5 25t72 10q55 0 100.5 -14.5t78.5 -42t51.5 -67.5t18.5 -92q0 -35 -12 -66.5t-28.5 -57.5
t-35.5 -46t-32 -33l-171 -158v-2z" />
    <glyph glyph-name="three.lf" horiz-adv-x="573" 
d="M137 401h116q59 0 83.5 25t24.5 64t-26 62.5t-82 23.5q-38 0 -82 -9t-82 -25l-40 108q21 10 46 18.5t52 14.5t54 9t52 3q126 0 189.5 -51t63.5 -142q0 -30 -9 -54.5t-24 -43t-33 -31t-36 -18.5v-2q51 -18 85.5 -60.5t34.5 -109.5q0 -45 -17.5 -81.5t-51.5 -62.5t-85 -40
t-117 -14q-75 0 -126.5 14t-93.5 37l37 110q38 -20 82 -31t101 -11q27 0 50 6t40 17t26.5 28t9.5 38q0 23 -6.5 40.5t-21.5 29t-39 17t-59 5.5h-116v116z" />
    <glyph glyph-name="four.lf" horiz-adv-x="627" 
d="M503 459v-199h90v-116h-90v-144h-139v144h-337v100l212 436h143l-198 -418v-2h180v199h139z" />
    <glyph glyph-name="five.lf" horiz-adv-x="560" 
d="M77 323l38 357h374v-116h-256l-14 -135q8 1 20.5 1.5t23.5 0.5q55 0 101.5 -11.5t80.5 -38t52.5 -68t18.5 -101.5q0 -54 -19.5 -96t-56.5 -71.5t-89.5 -44.5t-118.5 -15q-18 0 -42.5 2.5t-51.5 7t-55.5 11.5t-53.5 16l32 117q45 -19 93.5 -27t81.5 -8q68 0 101.5 28.5
t33.5 79.5q0 48 -32 74t-108 26q-32 0 -68.5 -2t-68.5 -4z" />
    <glyph glyph-name="six.lf" horiz-adv-x="591" 
d="M428 670l-157 -230l1 -2q11 5 31.5 9t43.5 4q46 0 85 -17t67.5 -47.5t44.5 -72.5t16 -93q0 -48 -17 -91t-50 -75.5t-81.5 -51t-111.5 -18.5q-65 0 -114 18.5t-82 51t-49.5 75.5t-16.5 91q0 42 11 82.5t37 82.5l188 294h154v-10zM415 221q0 57 -31 84t-84 27
q-54 0 -85.5 -27t-31.5 -84t31.5 -87t85.5 -30q53 0 84 30t31 87z" />
    <glyph glyph-name="seven.lf" horiz-adv-x="522" 
d="M93 10l255 552v2h-319v116h470v-100l-260 -580h-146v10z" />
    <glyph glyph-name="eight.lf" horiz-adv-x="616" 
d="M308 104q61 0 88 26.5t27 68.5t-27 68.5t-88 26.5q-63 0 -89 -26.5t-26 -68.5t27 -68.5t88 -26.5zM308 695q60 0 104 -14t72.5 -39.5t42.5 -60.5t14 -76q0 -61 -26.5 -95.5t-61.5 -50.5v-2q52 -20 83.5 -64t31.5 -109q0 -45 -16.5 -81.5t-49 -62.5t-81 -40.5
t-113.5 -14.5t-113.5 14.5t-81 40.5t-49 62.5t-16.5 81.5q0 65 31.5 109t83.5 64v2q-18 8 -34 20.5t-28 30t-19 41.5t-7 54q0 41 14 76t42.5 60.5t72.5 39.5t104 14zM308 410q47 0 67.5 22t20.5 61t-20.5 61t-67.5 22t-67.5 -22t-20.5 -61t20.5 -61t67.5 -22z" />
    <glyph glyph-name="nine.lf" horiz-adv-x="591" 
d="M163 10l157 230l-1 2q-11 -5 -31.5 -9t-43.5 -4q-46 0 -85 17t-67.5 47.5t-44.5 72.5t-16 93q0 48 17 91t50 75.5t81.5 51t111.5 18.5q64 0 113 -18.5t82 -51t50 -75.5t17 -91q0 -42 -11 -82.5t-37 -82.5l-188 -294h-154v10zM176 459q0 -57 31 -84t84 -27q54 0 85.5 27
t31.5 84t-31.5 87t-85.5 30q-53 0 -84 -30t-31 -87z" />
    <glyph glyph-name="a.alt" horiz-adv-x="525" 
d="M263 208q-25 0 -43 -4t-29.5 -11.5t-17 -18.5t-5.5 -26q0 -28 14.5 -42.5t45.5 -14.5q28 0 56.5 10t47.5 23v84h-69zM367 0l-19 43h-2q-12 -10 -29 -20.5t-36.5 -18.5t-41.5 -13.5t-44 -5.5q-41 0 -71.5 11.5t-50.5 31.5t-30.5 48t-10.5 61q0 42 15 71.5t43 49t68 28.5
t90 9h84v18q0 26 -9 41t-22.5 22t-28.5 8.5t-26 1.5q-40 0 -80.5 -9.5t-75.5 -25.5l-32 103q38 17 88.5 30t106.5 13q104 0 159 -53t55 -146v-298h-100z" />
    <glyph glyph-name="agrave.alt" horiz-adv-x="525" 
d="M263 208q-25 0 -43 -4t-29.5 -11.5t-17 -18.5t-5.5 -26q0 -28 14.5 -42.5t45.5 -14.5q28 0 56.5 10t47.5 23v84h-69zM367 0l-19 43h-2q-12 -10 -29 -20.5t-36.5 -18.5t-41.5 -13.5t-44 -5.5q-41 0 -71.5 11.5t-50.5 31.5t-30.5 48t-10.5 61q0 42 15 71.5t43 49t68 28.5
t90 9h84v18q0 26 -9 41t-22.5 22t-28.5 8.5t-26 1.5q-40 0 -80.5 -9.5t-75.5 -25.5l-32 103q38 17 88.5 30t106.5 13q104 0 159 -53t55 -146v-298h-100zM113 713h142l79 -136v-10h-118l-103 137v9z" />
    <glyph glyph-name="aacute.alt" horiz-adv-x="525" 
d="M263 208q-25 0 -43 -4t-29.5 -11.5t-17 -18.5t-5.5 -26q0 -28 14.5 -42.5t45.5 -14.5q28 0 56.5 10t47.5 23v84h-69zM367 0l-19 43h-2q-12 -10 -29 -20.5t-36.5 -18.5t-41.5 -13.5t-44 -5.5q-41 0 -71.5 11.5t-50.5 31.5t-30.5 48t-10.5 61q0 42 15 71.5t43 49t68 28.5
t90 9h84v18q0 26 -9 41t-22.5 22t-28.5 8.5t-26 1.5q-40 0 -80.5 -9.5t-75.5 -25.5l-32 103q38 17 88.5 30t106.5 13q104 0 159 -53t55 -146v-298h-100zM419 704l-103 -137h-118v10l79 136h142v-9z" />
    <glyph glyph-name="acircumflex.alt" horiz-adv-x="525" 
d="M263 208q-25 0 -43 -4t-29.5 -11.5t-17 -18.5t-5.5 -26q0 -28 14.5 -42.5t45.5 -14.5q28 0 56.5 10t47.5 23v84h-69zM367 0l-19 43h-2q-12 -10 -29 -20.5t-36.5 -18.5t-41.5 -13.5t-44 -5.5q-41 0 -71.5 11.5t-50.5 31.5t-30.5 48t-10.5 61q0 42 15 71.5t43 49t68 28.5
t90 9h84v18q0 26 -9 41t-22.5 22t-28.5 8.5t-26 1.5q-40 0 -80.5 -9.5t-75.5 -25.5l-32 103q38 17 88.5 30t106.5 13q104 0 159 -53t55 -146v-298h-100zM434 577v-10h-112l-53 69l-52 -69h-112v10l91 136h147z" />
    <glyph glyph-name="atilde.alt" horiz-adv-x="525" 
d="M263 208q-25 0 -43 -4t-29.5 -11.5t-17 -18.5t-5.5 -26q0 -28 14.5 -42.5t45.5 -14.5q28 0 56.5 10t47.5 23v84h-69zM367 0l-19 43h-2q-12 -10 -29 -20.5t-36.5 -18.5t-41.5 -13.5t-44 -5.5q-41 0 -71.5 11.5t-50.5 31.5t-30.5 48t-10.5 61q0 42 15 71.5t43 49t68 28.5
t90 9h84v18q0 26 -9 41t-22.5 22t-28.5 8.5t-26 1.5q-40 0 -80.5 -9.5t-75.5 -25.5l-32 103q38 17 88.5 30t106.5 13q104 0 159 -53t55 -146v-298h-100zM96 647q16 28 44.5 47t61.5 19q24 0 43 -7t36 -15.5t33.5 -15.5t36.5 -7t37.5 9.5t29.5 24.5l27 -68
q-17 -32 -46.5 -49.5t-58.5 -17.5q-22 0 -42 7t-38 15.5t-35.5 15.5t-34.5 7q-22 0 -37.5 -9t-29.5 -26z" />
    <glyph glyph-name="adieresis.alt" horiz-adv-x="525" 
d="M263 208q-25 0 -43 -4t-29.5 -11.5t-17 -18.5t-5.5 -26q0 -28 14.5 -42.5t45.5 -14.5q28 0 56.5 10t47.5 23v84h-69zM367 0l-19 43h-2q-12 -10 -29 -20.5t-36.5 -18.5t-41.5 -13.5t-44 -5.5q-41 0 -71.5 11.5t-50.5 31.5t-30.5 48t-10.5 61q0 42 15 71.5t43 49t68 28.5
t90 9h84v18q0 26 -9 41t-22.5 22t-28.5 8.5t-26 1.5q-40 0 -80.5 -9.5t-75.5 -25.5l-32 103q38 17 88.5 30t106.5 13q104 0 159 -53t55 -146v-298h-100zM82 640q0 32 21.5 53t56.5 21q36 0 57.5 -21t21.5 -53t-21.5 -53t-57.5 -21q-35 0 -56.5 21t-21.5 53zM302 640
q0 32 21.5 53t56.5 21q36 0 57.5 -21t21.5 -53t-21.5 -53t-57.5 -21q-35 0 -56.5 21t-21.5 53z" />
    </font>
</defs>
</svg>
