<?xml version="1.0" standalone="no"?>
<!DOCTYPE svg PUBLIC "-//W3C//DTD SVG 1.1//EN" "http://www.w3.org/Graphics/SVG/1.1/DTD/svg11.dtd" >
<svg xmlns="http://www.w3.org/2000/svg">
<metadata>
Created by FontPrep 20130207 at Mon Nov 17 10:50:14 2014
 By Christoph Koeberlin
Copyright (c) 2014 by Volkswagen AG. All rights reserved.
</metadata>
<defs>
<font id="194f5394ae2e9c74dc3c441b92862d1d" horiz-adv-x='1024' >
  <font-face 
    font-family="Font"
    font-weight="400"
    font-stretch="normal"
    units-per-em="1000"
    panose-1="2 11 5 3 4 2 0 0 0 3"
    ascent="800"
    descent="-200"
    x-height="482"
    cap-height="680"
    bbox="-201 -220 1032 921"
    underline-thickness="65"
    underline-position="-46"
    unicode-range="U+0020-FB02"
  />
<missing-glyph horiz-adv-x="513" 
d="M50 680h413v-680h-413v680zM405 58v564h-297v-564h297z" />
    <glyph glyph-name=".notdef" horiz-adv-x="513" 
d="M50 680h413v-680h-413v680zM405 58v564h-297v-564h297z" />
    <glyph glyph-name=".null" horiz-adv-x="0" 
 />
    <glyph glyph-name="nonmarkingreturn" horiz-adv-x="245" 
 />
    <glyph glyph-name="space" unicode=" " horiz-adv-x="245" 
 />
    <glyph glyph-name="exclam" unicode="!" horiz-adv-x="265" 
d="M159 207h-53l-16 300v173h84v-173zM75 48q0 27 16 44.5t42 17.5q27 0 42.5 -17.5t15.5 -44.5q0 -28 -15.5 -45.5t-42.5 -17.5q-26 0 -42 17.5t-16 45.5z" />
    <glyph glyph-name="quotedbl" unicode="&#x22;" horiz-adv-x="364" 
d="M277 404h-52l-16 175v101h84v-101zM139 404h-52l-16 175v101h84v-101z" />
    <glyph glyph-name="numbersign" unicode="#" horiz-adv-x="647" 
d="M91 0v10l43 168h-89v66h106l51 197h-91v66h108l45 173h75v-10l-42 -163h137l45 173h75v-10l-42 -163h90v-66h-107l-51 -197h92v-66h-109l-46 -178h-75v10l43 168h-137l-46 -178h-75zM229 244h137l51 197h-137z" />
    <glyph glyph-name="dollar" unicode="$" 
d="M110 123q27 -25 60 -41t75 -20v250l-16 7q-63 27 -103.5 71t-40.5 111q0 34 10.5 66t31 57.5t50.5 43t68 23.5v79h66v-76q45 -3 82 -17t67 -34l-36 -66q-26 17 -54.5 27t-58.5 13v-240l4 -2q37 -16 66.5 -34t50.5 -41.5t32 -52.5t11 -66q0 -39 -11.5 -71.5t-33 -58
t-52 -41.5t-67.5 -22v-116h-66v114q-54 5 -96.5 23.5t-77.5 47.5zM170 507q0 -33 15.5 -58t60.5 -46v212q-39 -11 -57.5 -40.5t-18.5 -67.5zM390 176q0 40 -18 64t-61 45v-221q37 10 58 37.5t21 74.5z" />
    <glyph glyph-name="percent" unicode="%" horiz-adv-x="748" 
d="M116 508q0 -60 18.5 -87.5t51.5 -27.5t51 27.5t18 87.5t-18 87.5t-51 27.5t-51.5 -27.5t-18.5 -87.5zM322 508q0 -39 -8.5 -71.5t-25.5 -56t-42.5 -36t-59.5 -12.5t-59.5 12.5t-43 36t-26 56t-8.5 71.5t8.5 71.5t26 56t43 36t59.5 12.5t59.5 -12.5t42.5 -36t25.5 -56
t8.5 -71.5zM492 168q0 -60 18.5 -87.5t51.5 -27.5t51 27.5t18 87.5t-18 87.5t-51 27.5t-51.5 -27.5t-18.5 -87.5zM698 168q0 -39 -8.5 -71.5t-25.5 -56t-42.5 -36t-59.5 -12.5t-59.5 12.5t-43 36t-26 56t-8.5 71.5t8.5 71.5t26 56t43 36t59.5 12.5t59.5 -12.5t42.5 -36
t25.5 -56t8.5 -71.5zM116 0v10l447 670h76v-10l-447 -670h-76z" />
    <glyph glyph-name="ampersand" unicode="&#x26;" horiz-adv-x="659" 
d="M604 309l-35 -61q-15 -26 -31.5 -52t-34.5 -50l124 -136v-10h-96l-78 86q-44 -45 -94 -73t-109 -28q-47 0 -82.5 13.5t-59.5 37.5t-36.5 56.5t-12.5 69.5q0 34 11.5 61.5t30 50t40.5 39.5t43 30l24 15l-9 11q-17 18 -31 37t-24 38t-16 38.5t-6 40.5q0 33 10.5 64t32 55
t53.5 38.5t74 14.5q40 0 71 -14.5t52.5 -38.5t33 -55t11.5 -63q0 -28 -8 -50t-21.5 -40t-31 -33t-36.5 -27l-43 -29l130 -142q14 20 26.5 41t26.5 44l38 64zM253 61q46 0 82.5 21.5t68.5 58.5l-146 162l-22 -14q-21 -14 -37.5 -28t-28.5 -30t-18 -33t-6 -37q0 -42 27 -71
t80 -29zM209 526q0 -23 11 -53t46 -68l5 -6l45 28q27 17 42 43.5t15 56.5q0 37 -19 64t-62 27q-45 0 -64 -27t-19 -65z" />
    <glyph glyph-name="quotesingle" unicode="'" horiz-adv-x="226" 
d="M139 404h-52l-16 175v101h84v-101z" />
    <glyph glyph-name="parenleft" unicode="(" horiz-adv-x="281" 
d="M58 251q0 73 9 138t25 122.5t36.5 108.5t44.5 96l59 -30q-43 -100 -65 -209t-22 -227t22 -227.5t65 -209.5l-59 -29q-24 45 -44.5 96t-36.5 108.5t-25 123t-9 139.5v0z" />
    <glyph glyph-name="parenright" unicode=")" horiz-adv-x="280" 
d="M222 251q0 -74 -9 -139.5t-25 -123t-36.5 -108.5t-44.5 -96l-59 29q44 100 65.5 209.5t21.5 227.5t-21.5 227t-65.5 209l59 30q24 -45 44.5 -96t36.5 -108.5t25 -122.5t9 -138z" />
    <glyph glyph-name="asterisk" unicode="*" horiz-adv-x="431" 
d="M185 485l-91 -61l-35 61l96 50v2l-96 50l34 62l90 -61l2 1l-5 111h70l-7 -111l2 -1l91 61l35 -61l-96 -50v-2l96 -50l-34 -62l-93 62l-1 -1l7 -112h-70l6 111z" />
    <glyph glyph-name="plus" unicode="+" 
d="M312 307h181v-74h-181v-195h-77v195h-179v74h179v194h77v-194z" />
    <glyph glyph-name="comma" unicode="," horiz-adv-x="243" 
d="M43 -151l38 249h93v-10l-66 -249h-65v10z" />
    <glyph glyph-name="hyphen" unicode="-" horiz-adv-x="414" 
d="M75 233v74h264v-74h-264z" />
    <glyph glyph-name="period" unicode="." horiz-adv-x="248" 
d="M64 48q0 27 17 44.5t43 17.5q27 0 43.5 -17.5t16.5 -44.5q0 -28 -16.5 -45.5t-43.5 -17.5q-26 0 -43 17.5t-17 45.5z" />
    <glyph glyph-name="slash" unicode="/" horiz-adv-x="373" 
d="M31 0v10l237 670h75v-10l-236 -670h-76z" />
    <glyph glyph-name="zero" unicode="0" 
d="M129 340q0 -64 7 -115.5t24 -88t45.5 -56t70.5 -19.5t69.5 19.5t44 56t23.5 88t7 115.5t-7 115.5t-23.5 88t-44 56t-69.5 19.5t-70.5 -19.5t-45.5 -56t-24 -88t-7 -115.5zM507 340q0 -82 -13 -147.5t-40.5 -111.5t-71.5 -71t-106 -25t-106.5 25t-73 71t-41.5 111.5
t-13 147.5t13 147.5t41.5 111.5t73 71t106.5 25t106 -25t71.5 -71t40.5 -111.5t13 -147.5z" />
    <glyph glyph-name="one" unicode="1" 
d="M112 550v75l153 55h71v-606h131v-74h-365v74h147v517h-2l-122 -41h-13z" />
    <glyph glyph-name="two" unicode="2" 
d="M183 74h288v-74h-398v70l226 254q15 18 29.5 35.5t25.5 36.5t17.5 40t6.5 47q0 28 -8 52.5t-24 43t-39.5 29.5t-53.5 11q-49 0 -82 -18.5t-61 -44.5l-42 59q14 13 32 27t41.5 26t52.5 19.5t64 7.5q44 0 82 -15.5t65.5 -43t43.5 -66.5t16 -87q0 -33 -7 -60.5t-20 -51.5
t-31 -46.5t-39 -46.5l-185 -202v-2z" />
    <glyph glyph-name="three" unicode="3" 
d="M148 385h109q30 0 51.5 9t35 25t20 37t6.5 44t-7 44.5t-21.5 38t-35.5 26.5t-49 10q-42 0 -79.5 -9t-75.5 -26l-26 66q35 20 84.5 32.5t97.5 12.5q96 0 147.5 -51.5t51.5 -138.5q0 -27 -7.5 -51.5t-20 -44.5t-28 -34.5t-30.5 -21.5v-2q45 -19 73 -62.5t28 -106.5
q0 -45 -16 -81t-45.5 -62t-70 -40t-88.5 -14q-60 0 -108.5 14t-83.5 37l29 66q39 -22 78 -31.5t84 -9.5q28 0 52.5 8.5t42.5 25t28.5 39.5t10.5 53q0 25 -6.5 47t-21.5 38.5t-40.5 26.5t-64.5 10h-104v76z" />
    <glyph glyph-name="four" unicode="4" 
d="M347 480h84v-258h77v-74h-77v-148h-84v148h-313v61l192 471h85l-184 -456v-2h220v258z" />
    <glyph glyph-name="five" unicode="5" 
d="M105 346l37 334h308v-74h-240l-21 -195q15 1 30.5 1.5t32.5 0.5q49 0 89.5 -11.5t70 -36.5t45.5 -65t16 -97q0 -54 -17.5 -94.5t-49 -68t-75.5 -41.5t-96 -14q-20 0 -43 3.5t-46 9t-44 12.5t-37 15l22 71q36 -16 73 -25.5t75 -9.5q69 0 110 33.5t41 108.5q0 134 -142 134
q-31 0 -66 -1.5t-61 -3.5z" />
    <glyph glyph-name="six" unicode="6" 
d="M354 670l-156 -260l2 -2q13 12 41 24t57 12q44 0 80.5 -16t62.5 -46t40.5 -71.5t14.5 -92.5q0 -49 -14.5 -91.5t-42.5 -74t-69 -49.5t-93 -18q-53 0 -94 18t-69 49.5t-42.5 74t-14.5 91.5t14.5 97t37.5 88l154 277h91v-10zM409 218q0 69 -36 109.5t-96 40.5
q-61 0 -97 -40.5t-36 -109.5q0 -34 9.5 -63t26.5 -50t42 -32.5t55 -11.5t54.5 11.5t41.5 32.5t26.5 50t9.5 63z" />
    <glyph glyph-name="seven" unicode="7" 
d="M165 10l216 594v2h-303v74h394v-67l-218 -613h-89v10z" />
    <glyph glyph-name="eight" unicode="8" 
d="M275 61q70 0 102.5 36t32.5 92t-32.5 92.5t-102.5 36.5q-72 0 -104 -36.5t-32 -92.5t33 -92t103 -36zM275 695q51 0 88.5 -14t62 -39.5t36 -60t11.5 -74.5q0 -30 -8 -53.5t-20 -41.5t-27.5 -31t-30.5 -22v-2q22 -11 42 -28t35 -38.5t24 -48.5t9 -57q0 -43 -14 -79.5
t-41.5 -63.5t-69.5 -42t-97 -15q-56 0 -97.5 15t-69.5 42t-42 63.5t-14 79.5q0 30 9 57t24.5 48.5t35.5 38.5t42 28v2q-15 9 -30.5 22t-28.5 31t-21 41.5t-8 53.5q0 40 12 74.5t36.5 60t62 39.5t89.5 14zM275 394q55 0 83 30t28 82t-28 82.5t-83 30.5q-56 0 -84.5 -30.5
t-28.5 -82.5t28.5 -82t84.5 -30z" />
    <glyph glyph-name="nine" unicode="9" 
d="M195 10l156 260l-1 1v1q-13 -12 -41.5 -24t-57.5 -12q-44 0 -80.5 16t-62.5 46t-40.5 71.5t-14.5 92.5q0 49 14.5 91.5t42.5 74t69 49.5t93 18q53 0 94 -18t69 -49.5t42.5 -74t14.5 -91.5t-15 -97.5t-37 -87.5l-154 -277h-91v10zM140 462q0 -69 36 -109.5t96 -40.5
q62 0 97.5 40.5t35.5 109.5q0 34 -9.5 63t-26.5 50t-41.5 32.5t-55.5 11.5q-30 0 -54 -11.5t-41.5 -32.5t-27 -50t-9.5 -63z" />
    <glyph glyph-name="colon" unicode=":" horiz-adv-x="270" 
d="M75 435q0 27 17 44.5t43 17.5q27 0 43.5 -17.5t16.5 -44.5q0 -28 -16.5 -45.5t-43.5 -17.5q-26 0 -43 17.5t-17 45.5zM75 48q0 27 17 44.5t43 17.5q27 0 43.5 -17.5t16.5 -44.5q0 -28 -16.5 -45.5t-43.5 -17.5q-26 0 -43 17.5t-17 45.5z" />
    <glyph glyph-name="semicolon" unicode=";" horiz-adv-x="280" 
d="M57 -151l38 249h93v-10l-66 -249h-65v10zM86 435q0 27 17 44.5t43 17.5q27 0 43.5 -17.5t16.5 -44.5q0 -28 -16.5 -45.5t-43.5 -17.5q-26 0 -43 17.5t-17 45.5z" />
    <glyph glyph-name="less" unicode="&#x3c;" 
d="M474 25l-429 211v69l429 211h8v-84l-349 -160v-3l349 -160v-84h-8z" />
    <glyph glyph-name="equal" unicode="=" 
d="M56 343v74h437v-74h-437zM493 200v-74h-437v74h437z" />
    <glyph glyph-name="greater" unicode="&#x3e;" 
d="M67 25v84l349 160v3l-349 160v84h8l429 -211v-69l-429 -211h-8z" />
    <glyph glyph-name="question" unicode="?" horiz-adv-x="438" 
d="M165 207v139q31 13 57 26.5t44.5 31.5t28.5 41.5t10 55.5q0 25 -7 46.5t-20 37.5t-32.5 25t-43.5 9q-39 0 -73 -15.5t-61 -36.5l-36 58q13 11 31.5 23.5t40 23t46.5 17t52 6.5q91 0 140 -53t49 -142q0 -40 -13.5 -71.5t-35 -55.5t-48 -42t-53.5 -31l-11 -93h-65zM138 48
q0 27 16 44.5t43 17.5q26 0 42 -17.5t16 -44.5q0 -28 -16 -45.5t-42 -17.5q-27 0 -43 17.5t-16 45.5z" />
    <glyph glyph-name="at" unicode="@" horiz-adv-x="903" 
d="M631 -100q-32 -15 -84 -27.5t-110 -12.5q-86 0 -156.5 28.5t-120.5 81.5t-78 127.5t-28 166.5q0 90 28.5 171.5t84 144t136 99t185.5 36.5q88 0 157 -29.5t116 -80t71.5 -117.5t24.5 -142t-19 -131t-49 -93t-68 -55.5t-76 -18.5q-43 0 -66.5 20t-34.5 44h-1
q-26 -19 -61 -35.5t-75 -16.5q-33 0 -61 11t-48.5 33t-32 55t-11.5 76q0 51 13.5 99.5t39 87t63 61.5t84.5 23q42 0 74 -15t55 -33h1l18 36h56l-50 -286q-3 -16 -3 -33t4.5 -31t14.5 -23t27 -9q22 0 46 13.5t43 42t31.5 73t12.5 106.5q0 60 -18.5 115t-55.5 97t-92.5 67
t-130.5 25q-86 0 -152.5 -32t-111.5 -85t-68.5 -123t-23.5 -146q0 -73 22 -135.5t62 -108t97 -71.5t127 -26q58 0 100 11t70 22zM561 404q-15 14 -40.5 23t-49.5 9q-31 0 -56 -18t-42.5 -46.5t-27 -65t-9.5 -73.5q0 -48 23 -76t65 -28q11 0 24.5 2.5t27 6.5t25.5 10t21 12z
" />
    <glyph glyph-name="A" unicode="A" horiz-adv-x="595" 
d="M576 0h-88l-57 176h-267l-58 -176h-87l236 680h85zM297 595l-53 -184l-55 -165h216l-53 165l-53 184h-2z" />
    <glyph glyph-name="B" unicode="B" horiz-adv-x="593" 
d="M180 74h146q58 0 91 26t33 89q0 64 -33.5 89t-91.5 25h-145v-229zM301 680q104 0 157 -43t53 -131q0 -60 -24 -100t-58 -53v-2q51 -17 79.5 -58.5t28.5 -109.5q0 -86 -52.5 -134.5t-149.5 -48.5h-239v680h205zM180 377h115q31 0 55 5t40.5 18t25 35t8.5 56q0 67 -32 91
t-97 24h-115v-229z" />
    <glyph glyph-name="C" unicode="C" horiz-adv-x="569" 
d="M62 340q0 79 19 144.5t55.5 112.5t90.5 72.5t124 25.5q40 0 82.5 -11.5t84.5 -32.5l-23 -64q-39 19 -74 25.5t-70 6.5q-53 0 -91 -20t-62.5 -56.5t-36.5 -88t-12 -114.5t12 -114.5t36.5 -88t62.5 -56.5t91 -20q35 0 70 6.5t74 25.5l23 -64q-42 -21 -84.5 -32.5
t-82.5 -11.5q-70 0 -124 25.5t-90.5 72.5t-55.5 112t-19 145z" />
    <glyph glyph-name="D" unicode="D" horiz-adv-x="652" 
d="M96 680h172q87 0 147.5 -22t99 -65.5t56 -107t17.5 -145.5q0 -83 -17.5 -146t-56 -106.5t-99 -65.5t-147.5 -22h-172v680zM257 74q72 0 119.5 16t75 49t38.5 83t11 118t-11 118t-38.5 83t-75 49t-119.5 16h-77v-532h77z" />
    <glyph glyph-name="E" unicode="E" horiz-adv-x="557" 
d="M493 680v-74h-313v-222h284v-74h-284v-236h316v-74h-400v680h397z" />
    <glyph glyph-name="F" unicode="F" horiz-adv-x="535" 
d="M493 680v-74h-313v-235h284v-74h-284v-297h-84v680h397z" />
    <glyph glyph-name="G" unicode="G" horiz-adv-x="625" 
d="M554 334v-279q-19 -14 -43 -27t-51.5 -22.5t-57.5 -15t-60 -5.5q-73 0 -125.5 26.5t-86.5 73.5t-50.5 112.5t-16.5 142.5q0 78 16.5 143t51 112.5t89 73.5t131.5 26q65 0 114 -20.5t87 -44.5l-30 -64q-38 23 -83.5 38t-87.5 15q-54 0 -92 -19.5t-62.5 -56t-35.5 -88
t-11 -115.5q0 -60 10 -111t33 -88.5t59.5 -58.5t89.5 -21q38 0 70 6.5t58 25.5v167l-124 20v54h208z" />
    <glyph glyph-name="H" unicode="H" horiz-adv-x="670" 
d="M490 310h-310v-310h-84v680h84v-296h310v296h84v-680h-84v310z" />
    <glyph glyph-name="I" unicode="I" horiz-adv-x="276" 
d="M180 0h-84v680h84v-680z" />
    <glyph glyph-name="J" unicode="J" horiz-adv-x="444" 
d="M67 113q20 -18 43.5 -35t62.5 -17q22 0 40 7t30.5 24t19 45.5t6.5 71.5v471h84v-478q0 -113 -48.5 -165t-131.5 -52q-46 0 -84.5 22.5t-63.5 50.5z" />
    <glyph glyph-name="K" unicode="K" horiz-adv-x="571" 
d="M180 311v-311h-84v680h84v-335h2l258 335h97v-10l-270 -337l282 -323v-10h-105l-262 311h-2z" />
    <glyph glyph-name="L" unicode="L" horiz-adv-x="500" 
d="M180 680v-606h286v-74h-370v680h84z" />
    <glyph glyph-name="M" unicode="M" horiz-adv-x="804" 
d="M402 258l55 128l171 294h80v-680h-84v427l10 117h-2l-199 -373h-62l-199 373h-2l10 -117v-427h-84v680h80l170 -294l55 -128h1z" />
    <glyph glyph-name="N" unicode="N" horiz-adv-x="678" 
d="M506 126l-8 127v427h84v-680h-88l-320 554h-2l8 -127v-427h-84v680h88l320 -554h2z" />
    <glyph glyph-name="O" unicode="O" horiz-adv-x="680" 
d="M150 340q0 -58 9.5 -108.5t31.5 -88.5t58.5 -60t91.5 -22t91 22t58 60t31 88.5t9 108.5t-9 108.5t-31 88.5t-58 60t-91 22t-91.5 -22t-58.5 -60t-31.5 -88.5t-9.5 -108.5zM617 340q0 -75 -15.5 -140t-48.5 -113t-85.5 -75t-126.5 -27t-127 27t-86.5 75t-49 113t-15.5 140
t15.5 140t49 113t86.5 75t127 27t126.5 -27t85.5 -75t48.5 -113t15.5 -140z" />
    <glyph glyph-name="P" unicode="P" horiz-adv-x="562" 
d="M96 0v680h214q51 0 90 -14t65.5 -40.5t40 -65t13.5 -87.5t-14 -87.5t-40.5 -65t-65.5 -40.5t-89 -14h-129v-266h-85zM181 340h122q66 0 97.5 37t31.5 96q0 58 -31.5 95.5t-97.5 37.5h-122v-266z" />
    <glyph glyph-name="Q" unicode="Q" horiz-adv-x="680" 
d="M617 340q0 -111 -34 -196.5t-109 -127.5l164 -77l-37 -76l-237 123q-5 0 -11 -0.5t-12 -0.5q-74 0 -127 27t-86.5 75t-49 113t-15.5 140t15.5 140t49 113t86.5 75t127 27t126.5 -27t85.5 -75t48.5 -113t15.5 -140zM150 340q0 -58 9.5 -108.5t31.5 -88.5t58.5 -60
t91.5 -22t91 22t58 60t31 88.5t9 108.5t-9 108.5t-31 88.5t-58 60t-91 22t-91.5 -22t-58.5 -60t-31.5 -88.5t-9.5 -108.5z" />
    <glyph glyph-name="R" unicode="R" horiz-adv-x="611" 
d="M96 0v680h235q95 0 150 -48.5t55 -144.5q0 -80 -40 -127t-109 -60l188 -284v-16h-92l-190 295h-113v-295h-84zM326 369q60 0 91.5 30.5t31.5 87.5t-31.5 88t-91.5 31h-146v-237h146z" />
    <glyph glyph-name="S" unicode="S" horiz-adv-x="505" 
d="M88 123q32 -29 71.5 -45.5t90.5 -16.5q52 0 84 29.5t32 85.5q0 43 -24 69.5t-78 49.5l-57 24q-63 27 -103.5 71t-40.5 111q0 39 13.5 74.5t40 62t64 42t85.5 15.5q53 0 95.5 -14.5t76.5 -37.5l-36 -66q-32 20 -67 31t-73 11q-56 0 -84 -33t-28 -79q0 -34 18 -60t68 -47
l57 -25q37 -16 66.5 -34t50.5 -41.5t32 -52.5t11 -66q0 -43 -14.5 -79t-41 -62t-64 -40.5t-83.5 -14.5q-64 0 -112.5 20t-88.5 52z" />
    <glyph glyph-name="T" unicode="T" horiz-adv-x="523" 
d="M487 680v-74h-183v-606h-86v606h-182v74h451z" />
    <glyph glyph-name="U" unicode="U" horiz-adv-x="662" 
d="M174 680v-428q0 -44 9 -79.5t28.5 -60t49.5 -38t71 -13.5t70.5 13.5t48.5 38t28 60t9 79.5v428h84v-439q0 -120 -58 -188t-182 -68q-126 0 -184 68t-58 189v438h84z" />
    <glyph glyph-name="V" unicode="V" horiz-adv-x="593" 
d="M572 670l-234 -670h-84l-233 670v10h88l136 -411l51 -186h2l51 187l134 410h89v-10z" />
    <glyph glyph-name="W" unicode="W" horiz-adv-x="913" 
d="M882 670l-181 -670h-85l-118 427l-40 171h-3l-40 -171l-117 -427h-86l-180 670v10h87l101 -410l36 -169h2l40 169l114 410h89l114 -410l40 -169h2l36 169l101 410h88v-10z" />
    <glyph glyph-name="X" unicode="X" horiz-adv-x="553" 
d="M123 680l152 -279h2l153 279h90v-10l-191 -330l191 -330v-10h-90l-153 278h-2l-152 -278h-90v10l190 330l-190 330v10h90z" />
    <glyph glyph-name="Y" unicode="Y" horiz-adv-x="528" 
d="M105 680l158 -309h2l160 309h89v-10l-208 -382v-288h-84v288l-207 382v10h90z" />
    <glyph glyph-name="Z" unicode="Z" horiz-adv-x="521" 
d="M468 680v-71l-318 -533v-2h318v-74h-422v71l317 533v2h-301v74h406z" />
    <glyph glyph-name="bracketleft" unicode="[" horiz-adv-x="324" 
d="M283 700v-47l-111 -23v-758l111 -23v-47h-195v898h195z" />
    <glyph glyph-name="backslash" unicode="\" horiz-adv-x="373" 
d="M266 0l-236 670v10h75l237 -670v-10h-76z" />
    <glyph glyph-name="bracketright" unicode="]" horiz-adv-x="324" 
d="M236 700v-898h-195v47l111 23v758l-111 23v47h195z" />
    <glyph glyph-name="asciicircum" unicode="^" horiz-adv-x="472" 
d="M433 372h-76l-118 242h-4l-118 -242h-76v10l166 318h61l165 -318v-10z" />
    <glyph glyph-name="underscore" unicode="_" horiz-adv-x="470" 
d="M75 -88v66h320v-66h-320z" />
    <glyph glyph-name="grave" unicode="`" horiz-adv-x="542" 
d="M196 710h91l59 -121v-10h-71l-79 121v10z" />
    <glyph glyph-name="a" unicode="a" horiz-adv-x="494" 
d="M244 224q-53 0 -83 -22.5t-30 -70.5q0 -35 19 -55.5t60 -20.5q33 0 63.5 7.5t61.5 33.5v128h-91zM357 0l-8 44h-2q-31 -25 -70 -42t-85 -17q-66 0 -105.5 38t-39.5 108q0 46 16.5 75.5t43.5 46t61 23t69 6.5h98v31q0 24 -6 45t-18.5 36.5t-32 24t-46.5 8.5
q-34 0 -68 -10.5t-60 -30.5l-34 57q31 24 72.5 39t92.5 15q92 0 137 -50t45 -136v-311h-60z" />
    <glyph glyph-name="b" unicode="b" horiz-adv-x="546" 
d="M163 99q23 -22 54.5 -33t65.5 -11q35 0 59 15.5t38.5 41t20.5 59t6 70.5t-6 70.5t-20.5 59t-38.5 41t-59 15.5q-34 0 -65.5 -11t-54.5 -33v-284zM163 700v-252h2q24 20 56.5 34.5t83.5 14.5q48 0 83.5 -20.5t58 -55t33.5 -81.5t11 -99q0 -53 -11 -99.5t-33.5 -81t-58 -55
t-83.5 -20.5q-26 0 -48.5 5.5t-42 14.5t-35.5 19.5t-28 19.5h-1l-10 -44h-59v700h82z" />
    <glyph glyph-name="c" unicode="c" horiz-adv-x="463" 
d="M54 241q0 57 14 104t41 80.5t68 52.5t95 19q35 0 74 -10.5t68 -25.5l-22 -61q-20 9 -52.5 18t-64.5 9q-35 0 -61 -15.5t-43 -41t-25 -59.5t-8 -70t8.5 -70t25.5 -59.5t42.5 -41t60.5 -15.5q32 0 64.5 9t52.5 18l22 -61q-29 -15 -68 -25.5t-74 -10.5q-54 0 -95 19
t-68 52.5t-41 80.5t-14 104z" />
    <glyph glyph-name="d" unicode="d" horiz-adv-x="546" 
d="M383 383q-22 22 -54 33t-66 11q-35 0 -58.5 -15.5t-38 -41t-21 -59t-6.5 -70.5t6.5 -70.5t21 -59t38 -41t58.5 -15.5q34 0 66 11t54 33v284zM465 700v-700h-58l-9 44h-2q-24 -19 -63.5 -39t-91.5 -20q-49 0 -84 20.5t-57.5 55t-33.5 81t-11 99.5q0 52 11 99t33.5 81.5
t57.5 55t84 20.5q52 0 84.5 -14.5t55.5 -34.5h2v252h82z" />
    <glyph glyph-name="e" unicode="e" horiz-adv-x="511" 
d="M133 220q0 -33 10.5 -63t30 -52.5t46 -36t58.5 -13.5q46 0 77 13t56 31l31 -61q-29 -21 -71 -37t-100 -16q-57 0 -98 21t-67.5 56t-39 82t-12.5 99q0 49 13 94.5t39 81t65 57t91 21.5q53 0 90.5 -17.5t61.5 -46.5t35 -66.5t11 -77.5q0 -18 -1.5 -37t-3.5 -32h-322z
M379 282q1 5 1 11.5v11.5q0 26 -7.5 48t-22.5 38.5t-37 26t-51 9.5q-28 0 -50 -11.5t-38 -31t-25.5 -46t-11.5 -56.5h242z" />
    <glyph glyph-name="f" unicode="f" horiz-adv-x="350" 
d="M114 0v415h-79v48l79 19v66q0 83 35.5 120t100.5 37q18 0 36.5 -2t30.5 -4v-71q-9 2 -25.5 4.5t-29.5 2.5q-32 0 -49 -17.5t-17 -59.5v-76h121v-67h-121v-415h-82z" />
    <glyph glyph-name="g" unicode="g" horiz-adv-x="546" 
d="M383 383q-22 22 -54.5 33t-65.5 11q-35 0 -59 -15t-38.5 -40.5t-20.5 -58.5t-6 -70t6 -70.5t20.5 -58.5t38.5 -40t59 -15q33 0 65.5 10.5t54.5 33.5v280zM465 -6q0 -46 -13.5 -84t-39.5 -65.5t-63.5 -42.5t-84.5 -15q-51 0 -89.5 9.5t-71.5 25.5l22 60q30 -14 65 -20.5
t74 -6.5q54 0 86.5 33.5t32.5 96.5v52h-2q-23 -19 -55.5 -34t-83.5 -15q-49 0 -84 20t-58 55t-34 81t-11 99q0 52 11 98.5t34 81t58 54.5t84 20q26 0 49 -5.5t42.5 -14.5t35 -19.5t26.5 -19.5h2l11 44h57v-488z" />
    <glyph glyph-name="h" unicode="h" horiz-adv-x="546" 
d="M387 0v300q0 63 -24.5 95t-75.5 32q-17 0 -35 -4t-35 -10t-31 -13.5t-23 -14.5v-385h-82v700h82v-251h2q10 7 25 15.5t33 15.5t39.5 12t45.5 5q75 0 118 -45.5t43 -137.5v-314h-82z" />
    <glyph glyph-name="i" unicode="i" horiz-adv-x="244" 
d="M81 0v482h82v-482h-82zM70 633q0 25 14 40t38 15q25 0 39 -15t14 -40q0 -26 -14 -40.5t-39 -14.5q-24 0 -38 14.5t-14 40.5z" />
    <glyph glyph-name="j" unicode="j" horiz-adv-x="244" 
d="M163 482v-542q0 -36 -8 -64t-24.5 -48t-41 -30.5t-57.5 -10.5q-13 0 -31 2t-32 5v65q11 -2 27.5 -3t27.5 -1q57 0 57 83v544h82zM70 633q0 25 14 40t38 15q25 0 39 -15t14 -40q0 -26 -14 -40.5t-39 -14.5q-24 0 -38 14.5t-14 40.5z" />
    <glyph glyph-name="k" unicode="k" horiz-adv-x="483" 
d="M163 224v-224h-82v700h82v-442h2l189 224h95v-7l-205 -232l212 -235v-8h-101l-190 224h-2z" />
    <glyph glyph-name="l" unicode="l" horiz-adv-x="252" 
d="M85 0v700h82v-700h-82z" />
    <glyph glyph-name="m" unicode="m" horiz-adv-x="844" 
d="M137 482l9 -44h3q11 8 27 18t36.5 19t44 15.5t49.5 6.5q48 0 80.5 -16t51.5 -48h2q13 10 30 21t37 20.5t44 16t51 6.5q82 0 123.5 -45.5t41.5 -137.5v-314h-82v300q0 63 -21.5 95t-79.5 32q-35 0 -68 -17t-56 -37q2 -11 3.5 -28t1.5 -31v-314h-82v300q0 63 -19 95t-76 32
q-39 0 -72 -14.5t-53 -28.5v-384h-82v482h56z" />
    <glyph glyph-name="n" unicode="n" horiz-adv-x="546" 
d="M139 482l10 -44h2q10 8 26.5 18t37.5 19t45 15.5t48 6.5q75 0 118 -45.5t43 -137.5v-314h-82v300q0 63 -24.5 95t-75.5 32q-17 0 -35 -4t-35 -10.5t-31 -14t-23 -14.5v-384h-82v482h58z" />
    <glyph glyph-name="o" unicode="o" horiz-adv-x="545" 
d="M138 241q0 -37 7 -71t22.5 -59.5t41 -40.5t62.5 -15t63 15t42.5 40.5t23.5 59.5t7 71t-7 71t-23.5 59.5t-42.5 40.5t-63 15t-62.5 -15t-41 -40.5t-22.5 -59.5t-7 -71zM491 241q0 -53 -12.5 -99.5t-39 -81t-68 -55t-100.5 -20.5q-58 0 -99 20.5t-67.5 55t-38.5 81
t-12 99.5q0 52 12 99t38.5 81.5t67.5 55t99 20.5q59 0 100.5 -20.5t68 -55t39 -81.5t12.5 -99z" />
    <glyph glyph-name="p" unicode="p" horiz-adv-x="546" 
d="M163 99q22 -22 54.5 -33t66.5 -11q35 0 58.5 15.5t38 41t20.5 59t6 70.5t-6 70.5t-20.5 59t-38 41t-58.5 15.5q-34 0 -66.5 -11t-54.5 -33v-284zM139 482l10 -44h1q24 19 64 39t92 20q49 0 84 -20.5t57.5 -55t33 -81.5t10.5 -99q0 -53 -10.5 -99.5t-33 -81t-57.5 -55
t-84 -20.5q-26 0 -46.5 4t-38 10.5t-31 15.5t-25.5 19h-2v-232h-82v680h58z" />
    <glyph glyph-name="q" unicode="q" horiz-adv-x="546" 
d="M383 383q-21 22 -54 33t-66 11q-35 0 -59 -15.5t-38.5 -41t-20.5 -59t-6 -70.5t6 -70.5t20.5 -59t38.5 -41t59 -15.5q33 0 66 11t54 33v284zM465 -198h-82v232h-2q-12 -10 -25.5 -19t-30.5 -15.5t-38 -10.5t-46 -4q-49 0 -84.5 20.5t-58 55t-33 81t-10.5 99.5
q0 52 10.5 99t33 81.5t58 55t84.5 20.5q25 0 48 -5.5t43 -14.5t36 -19.5t28 -19.5h2l10 44h57v-680z" />
    <glyph glyph-name="r" unicode="r" horiz-adv-x="349" 
d="M139 482l10 -51h2q10 15 23.5 27.5t29.5 21t33.5 13t37.5 4.5q13 0 25.5 -2t21.5 -5l-12 -73q-11 3 -23 4.5t-22 1.5q-40 0 -63.5 -17t-38.5 -47v-359h-82v482h58z" />
    <glyph glyph-name="s" unicode="s" horiz-adv-x="430" 
d="M77 96q29 -19 61 -30t70 -11q46 0 67.5 21.5t21.5 52.5q0 26 -16 41.5t-49 26.5l-54 18q-26 9 -48.5 20.5t-39 28t-25.5 38t-9 49.5q0 30 11.5 57t33 46.5t52.5 31t69 11.5q46 0 81 -9t69 -25l-27 -66q-30 15 -60.5 22.5t-59.5 7.5q-45 0 -65 -22.5t-20 -51.5
q0 -24 14.5 -40t48.5 -27l53 -16q27 -8 49.5 -20t39.5 -29t26.5 -39.5t9.5 -51.5q0 -31 -11.5 -57.5t-33.5 -46t-53 -30.5t-70 -11q-29 0 -52 3t-42.5 9t-36.5 14.5t-34 19.5l29 65v0z" />
    <glyph glyph-name="t" unicode="t" horiz-adv-x="365" 
d="M204 594v-112h128v-67h-128v-290q0 -40 17.5 -55t40.5 -15q19 0 39.5 5t30.5 7v-68q-14 -4 -37 -9t-50 -5q-55 0 -89 32t-34 99v299h-89v48l89 19v112h82z" />
    <glyph glyph-name="u" unicode="u" horiz-adv-x="540" 
d="M159 482v-300q0 -63 22.5 -95t73.5 -32q17 0 35 4t34 10.5t30 14t23 14.5v384h82v-482h-58l-9 44h-2q-11 -8 -27.5 -18t-36.5 -19t-43.5 -15.5t-47.5 -6.5q-75 0 -116.5 45.5t-41.5 137.5v314h82z" />
    <glyph glyph-name="v" unicode="v" horiz-adv-x="481" 
d="M452 472l-172 -472h-78l-173 472v10h81l103 -305l26 -93h2l26 93l104 305h81v-10z" />
    <glyph glyph-name="w" unicode="w" horiz-adv-x="767" 
d="M735 472l-151 -472h-79l-99 312l-22 90h-2l-22 -90l-98 -312h-79l-151 472v10h83l89 -305l20 -88h2l21 88l94 305h84l95 -305l21 -88h2l20 88l89 305h83v-10z" />
    <glyph glyph-name="x" unicode="x" horiz-adv-x="469" 
d="M234 189l-114 -189h-85v10l152 231l-152 231v10h85l114 -190h2l113 190h85v-10l-152 -231l152 -231v-10h-85l-113 189h-2z" />
    <glyph glyph-name="y" unicode="y" horiz-adv-x="481" 
d="M450 472l-185 -537q-26 -76 -63.5 -112t-89.5 -36q-18 0 -42.5 4.5t-38.5 8.5v67q14 -4 36 -8t38 -4q29 0 46.5 22.5t31.5 62.5l22 65l-178 467v10h81l105 -305l28 -95h2l26 95l101 305h80v-10z" />
    <glyph glyph-name="z" unicode="z" horiz-adv-x="427" 
d="M377 482v-50l-232 -364v-2h232v-66h-333v50l232 364v2h-219v66h320z" />
    <glyph glyph-name="braceleft" unicode="{" horiz-adv-x="328" 
d="M44 288q36 0 53.5 16t17.5 56v194q0 33 5.5 59.5t22 46t46 30t77.5 10.5h18v-52q-27 0 -43.5 -4.5t-26.5 -15.5t-13.5 -29.5t-3.5 -46.5v-183q0 -51 -19.5 -78.5t-51.5 -38.5v-2q32 -11 51.5 -38.5t19.5 -78.5v-183q0 -28 3.5 -46.5t13.5 -29.5t26.5 -15.5t43.5 -4.5v-52
h-18q-48 0 -77.5 10.5t-46 30t-22 46t-5.5 59.5v194q0 40 -17.5 56t-53.5 16v74z" />
    <glyph glyph-name="bar" unicode="|" horiz-adv-x="242" 
d="M154 -198h-66v898h66v-898z" />
    <glyph glyph-name="braceright" unicode="}" horiz-adv-x="328" 
d="M284 214q-36 0 -53.5 -16t-17.5 -56v-194q0 -33 -5.5 -59.5t-22 -46t-46 -30t-77.5 -10.5h-18v52q26 0 43 4.5t26.5 15.5t13.5 29.5t4 46.5v183q0 51 19 78.5t52 38.5v2q-33 11 -52 38.5t-19 78.5v183q0 28 -4 46.5t-13.5 29.5t-26.5 15.5t-43 4.5v52h18q48 0 77.5 -10.5
t46 -30t22 -46t5.5 -59.5v-194q0 -40 17.5 -56t53.5 -16v-74z" />
    <glyph glyph-name="asciitilde" unicode="~" horiz-adv-x="489" 
d="M60 259q7 13 17.5 27t25 26t31.5 19.5t38 7.5q22 0 42 -10t38.5 -22.5t37 -22.5t37.5 -10q20 0 36 7.5t34 32.5l33 -48q-23 -32 -49.5 -47t-58.5 -15q-20 0 -40 10t-39.5 22.5t-38 22.5t-34.5 10q-19 0 -38 -13.5t-39 -43.5z" />
    <glyph glyph-name="uni00A0" unicode="&#xa0;" horiz-adv-x="245" 
 />
    <glyph glyph-name="exclamdown" unicode="&#xa1;" horiz-adv-x="248" 
d="M98 275h53l16 -300v-173h-84v173zM182 434q0 -27 -16 -44.5t-42 -17.5q-27 0 -42.5 17.5t-15.5 44.5q0 28 15.5 45.5t42.5 17.5q26 0 42 -17.5t16 -45.5z" />
    <glyph glyph-name="cent" unicode="&#xa2;" 
d="M96 241q0 51 11 94.5t33.5 76.5t56 54.5t78.5 27.5v84h66v-83q30 -3 61 -12.5t54 -21.5l-22 -61q-16 8 -41 15t-52 10v-369q27 3 52 10.5t41 15.5l22 -61q-23 -13 -54 -22t-61 -12v-83h-66v84q-90 13 -134.5 81.5t-44.5 171.5zM180 241q0 -30 5.5 -59t17.5 -53t30 -41.5
t42 -26.5v359q-24 -8 -42 -25.5t-30 -41.5t-17.5 -53t-5.5 -59z" />
    <glyph glyph-name="sterling" unicode="&#xa3;" 
d="M235 300q3 -29 5 -54.5t2 -43.5q0 -45 -17 -78t-35 -48v-2h288v-74h-393v62q8 7 20 18t23.5 27t19.5 37t8 49q0 23 -2.5 50.5t-5.5 56.5h-79v66h72q-5 35 -7.5 69t-2.5 65q0 45 15 81t40.5 61.5t60 39t74.5 13.5q45 0 82 -11t72 -32l-27 -64q-37 18 -63.5 24.5t-63.5 6.5
q-42 0 -73 -29.5t-31 -86.5q0 -25 3 -61t8 -76h174v-66h-167z" />
    <glyph glyph-name="currency" unicode="&#xa4;" horiz-adv-x="569" 
d="M445 270q0 -56 -22 -100l89 -92l-49 -49l-85 86q-41 -30 -101 -30q-55 0 -91 24l-80 -81l-49 49l80 85q-13 23 -19 50.5t-6 57.5q0 29 6 56t19 50l-82 88l49 49l81 -83q37 25 92 25q62 0 102 -31l85 88l49 -49l-89 -94q21 -45 21 -99zM188 270q0 -23 5.5 -43t17 -36
t28 -25t38.5 -9q23 0 40.5 9t29 25t17.5 36t6 43q0 22 -6 42.5t-17.5 36.5t-29 25t-40.5 9q-22 0 -38.5 -9t-28 -25t-17 -36.5t-5.5 -42.5z" />
    <glyph glyph-name="yen" unicode="&#xa5;" 
d="M496 308h-181v-99h181v-66h-181v-143h-84v143h-178v66h178v99h-178v66h140l-169 296v10h90l158 -289h2l160 289h89v-10l-170 -296h143v-66z" />
    <glyph glyph-name="brokenbar" unicode="&#xa6;" horiz-adv-x="248" 
d="M157 134v-332h-66v332h66zM91 368v332h66v-332h-66z" />
    <glyph glyph-name="section" unicode="&#xa7;" horiz-adv-x="524" 
d="M212 363q-28 -14 -41.5 -36t-13.5 -51q0 -22 15 -46t59 -43l90 -40q24 14 39 34.5t15 51.5q0 26 -18 50t-57 41zM385 114q35 -23 56 -55.5t21 -70.5q0 -37 -13.5 -67.5t-39.5 -52.5t-64 -34.5t-86 -12.5q-65 0 -111 17t-89 43l36 73q34 -23 74 -40t90 -17q52 0 83.5 24
t31.5 64q0 26 -20.5 45.5t-60.5 37.5l-92 40q-68 29 -99.5 66t-31.5 85t22.5 81t55.5 53v3q-33 20 -55.5 50.5t-22.5 76.5q0 36 13 67.5t38.5 54.5t63.5 36.5t88 13.5t91.5 -11.5t79.5 -32.5l-33 -70q-35 18 -66 28t-72 10q-58 0 -87 -26.5t-29 -61.5q0 -26 18 -46t68 -43
l84 -39q63 -29 99 -67t36 -89q0 -24 -7 -43.5t-18.5 -35.5t-25 -29t-26.5 -23v-2z" />
    <glyph glyph-name="dieresis" unicode="&#xa8;" horiz-adv-x="542" 
d="M308 633q0 25 14 40t38 15q25 0 39 -15t14 -40q0 -26 -14 -40.5t-39 -14.5q-24 0 -38 14.5t-14 40.5zM125 633q0 25 14 40t38 15q25 0 39 -15t14 -40q0 -26 -14 -40.5t-39 -14.5q-24 0 -38 14.5t-14 40.5z" />
    <glyph glyph-name="copyright" unicode="&#xa9;" horiz-adv-x="828" 
d="M59 340q0 75 27 140t75 113t113 75t140 27t140 -27t113 -75t75 -113t27 -140t-27 -140t-75 -113t-113 -75t-140 -27t-140 27t-113 75t-75 113t-27 140zM115 340q0 -64 22.5 -119.5t62.5 -96t95 -63.5t119 -23t119 23t95 63.5t62.5 96t22.5 119.5t-22.5 119.5t-62.5 96
t-95 63.5t-119 23t-119 -23t-95 -63.5t-62.5 -96t-22.5 -119.5zM230 340q0 88 47 141.5t138 53.5q26 0 54 -6t54 -18l-19 -56q-25 11 -45.5 15t-43.5 4q-55 0 -83.5 -36.5t-28.5 -97.5t28.5 -97.5t83.5 -36.5q23 0 43.5 4t45.5 15l19 -56q-26 -12 -54 -18t-54 -6
q-91 0 -138 53.5t-47 141.5z" />
    <glyph glyph-name="ordfeminine" unicode="&#xaa;" horiz-adv-x="410" 
d="M216 484q-41 0 -57 -11.5t-16 -31.5t11 -30.5t32 -10.5q18 0 36 6.5t32 16.5v61h-38zM272 350l-9 27h-1q-17 -14 -40.5 -25t-51.5 -11q-44 0 -69.5 25.5t-25.5 69.5q0 53 36.5 74.5t95.5 21.5h47v15q0 33 -16 45t-40 12q-22 0 -45 -6t-43 -17l-20 52q21 13 50 21.5
t61 8.5q59 0 90.5 -32t31.5 -90v-191h-51zM79 213v59h244v-59h-244z" />
    <glyph glyph-name="guillemotleft" unicode="&#xab;" horiz-adv-x="493" 
d="M47 276l141 209l57 -38l-106 -177l106 -177l-57 -38l-141 209v12zM239 276l141 209l57 -38l-106 -177l106 -177l-57 -38l-141 209v12z" />
    <glyph glyph-name="logicalnot" unicode="&#xac;" 
d="M423 233h-369v74h437v-201h-68v127z" />
    <glyph glyph-name="uni00AD" unicode="&#xad;" horiz-adv-x="414" 
d="M75 233v74h264v-74h-264z" />
    <glyph glyph-name="registered" unicode="&#xae;" horiz-adv-x="574" 
d="M59 561q0 49 17.5 90.5t48 72.5t72.5 48.5t90 17.5t90 -17.5t72.5 -48.5t48 -72.5t17.5 -90.5q0 -48 -17.5 -90t-48 -72.5t-72.5 -48t-90 -17.5t-90 17.5t-72.5 48t-48 72.5t-17.5 90zM106 561q0 -39 13.5 -72.5t38 -58t57.5 -38.5t72 -14t72 14t57.5 38.5t38 58
t13.5 72.5t-13.5 72.5t-38 58.5t-57.5 39t-72 14t-72 -14t-57.5 -39t-38 -58.5t-13.5 -72.5zM201 455v218h93q38 0 57.5 -17.5t19.5 -47.5q0 -25 -12 -42.5t-37 -22.5l63 -83v-5h-51l-61 85h-25v-85h-47zM287 580q19 0 28 5.5t9 22.5q0 15 -9 20t-28 5h-39v-53h39z" />
    <glyph glyph-name="macron" unicode="&#xaf;" horiz-adv-x="542" 
d="M149 597v74h243v-74h-243z" />
    <glyph glyph-name="degree" unicode="&#xb0;" horiz-adv-x="418" 
d="M126 544q0 -38 24.5 -62.5t59.5 -24.5t59.5 24.5t24.5 62.5q0 37 -24.5 60.5t-59.5 23.5t-59.5 -23.5t-24.5 -60.5zM56 544q0 35 12 63t32.5 47.5t48.5 30t61 10.5q32 0 60 -10.5t48.5 -30t32 -47.5t11.5 -63t-11.5 -63.5t-32 -48.5t-48.5 -31t-60 -11q-33 0 -61 11
t-48.5 31t-32.5 48.5t-12 63.5z" />
    <glyph glyph-name="plusminus" unicode="&#xb1;" 
d="M309 427h184v-74h-184v-175h-71v175h-182v74h182v194h71v-194zM493 74v-74h-437v74h437z" />
    <glyph glyph-name="twosuperior" unicode="&#xb2;" horiz-adv-x="301" 
d="M126 522h138v-60h-230v51l127 117q32 29 32 64q0 29 -16.5 41t-37.5 12q-23 0 -40.5 -11.5t-31.5 -25.5l-34 48q7 7 17.5 16t24.5 16.5t31 12.5t38 5q24 0 45.5 -7.5t37 -21t24.5 -34t9 -45.5q0 -37 -16 -62.5t-36 -42.5l-82 -72v-1z" />
    <glyph glyph-name="threesuperior" unicode="&#xb3;" horiz-adv-x="302" 
d="M78 662h56q31 0 43.5 12t12.5 30q0 21 -13.5 32t-41.5 11q-20 0 -41 -4.5t-39 -12.5l-19 55q21 11 47.5 17t54.5 6q56 0 87.5 -25.5t31.5 -68.5q0 -32 -16 -51t-34 -24v-1q25 -9 41.5 -30t16.5 -55q0 -45 -33 -72t-98 -27q-35 0 -60.5 7.5t-45.5 18.5l17 57
q20 -10 41 -16t46 -6q29 0 48 10.5t19 36.5q0 22 -16.5 31t-48.5 9h-56v60z" />
    <glyph glyph-name="acute" unicode="&#xb4;" horiz-adv-x="542" 
d="M346 700l-79 -121h-71v10l59 121h91v-10z" />
    <glyph glyph-name="mu" unicode="&#xb5;" horiz-adv-x="540" 
d="M88 -198v680h82v-300q0 -63 22.5 -95t73.5 -32q17 0 35 4t34 10.5t30 14t23 14.5v384h82v-482h-58l-9 44h-2q-11 -8 -27.5 -18t-36.5 -19t-43.5 -15.5t-47.5 -6.5q-22 0 -43 7t-41 21l8 -72v-139h-82z" />
    <glyph glyph-name="paragraph" unicode="&#xb6;" horiz-adv-x="507" 
d="M164 416q-27 0 -50.5 8.5t-41 25t-27.5 41t-10 56.5t10 57t27.5 42t41 25.5t50.5 8.5h308v-61h-86v-817h-67v817h-88v-817h-67v614z" />
    <glyph glyph-name="periodcentered" unicode="&#xb7;" horiz-adv-x="256" 
d="M68 288q0 27 17 44.5t43 17.5q27 0 43.5 -17.5t16.5 -44.5q0 -28 -16.5 -45.5t-43.5 -17.5q-26 0 -43 17.5t-17 45.5z" />
    <glyph glyph-name="cedilla" unicode="&#xb8;" horiz-adv-x="542" 
d="M226 -73l27 80h62l-21 -55q29 -5 47 -23t18 -49q0 -51 -31 -72t-77 -21q-23 0 -40.5 4.5t-28.5 9.5l13 55q9 -4 21.5 -7.5t26.5 -3.5q22 0 33.5 7.5t11.5 27.5q0 11 -4.5 18.5t-12 11.5t-18 5.5t-22.5 1.5z" />
    <glyph glyph-name="onesuperior" unicode="&#xb9;" horiz-adv-x="245" 
d="M24 688v58l118 54h48v-338h-64v266h-1l-94 -40h-7z" />
    <glyph glyph-name="ordmasculine" unicode="&#xba;" horiz-adv-x="416" 
d="M132 502q0 -47 18.5 -72.5t56.5 -25.5q39 0 58 25.5t19 72.5q0 46 -19 72t-58 26q-38 0 -56.5 -26t-18.5 -72zM355 502q0 -33 -9 -62.5t-27 -51t-46 -34.5t-66 -13q-37 0 -64.5 13t-45.5 34.5t-27 51t-9 62.5t9 62.5t27 51t45.5 34.5t64.5 13q38 0 66 -13t46 -34.5
t27 -51t9 -62.5zM86 213v59h243v-59h-243z" />
    <glyph glyph-name="guillemotright" unicode="&#xbb;" horiz-adv-x="493" 
d="M254 264l-141 -209l-57 38l106 177l-106 177l57 38l141 -209v-12zM446 264l-141 -209l-57 38l106 177l-106 177l57 38l141 -209v-12z" />
    <glyph glyph-name="onequarter" unicode="&#xbc;" horiz-adv-x="687" 
d="M535 239h65v-108h38v-59h-38v-72h-65v72h-164v52l89 214h69l-85 -206v-1h91v108zM44 568v58l118 54h48v-338h-64v266h-1l-94 -40h-7zM80 0v10l447 670h76v-10l-447 -670h-76z" />
    <glyph glyph-name="onehalf" unicode="&#xbd;" horiz-adv-x="702" 
d="M44 566v58l118 54h48v-338h-64v266h-1l-94 -40h-7zM508 60h138v-60h-230v51l127 117q32 29 32 64q0 29 -16.5 41t-37.5 12q-23 0 -40.5 -11.5t-31.5 -25.5l-34 48q7 7 17.5 16t24.5 16.5t31 12.5t38 5q24 0 45.5 -7.5t37 -21t24.5 -34t9 -45.5q0 -37 -16 -62.5t-36 -42.5
l-82 -72v-1zM79 0v10l447 670h76v-10l-447 -670h-76z" />
    <glyph glyph-name="threequarters" unicode="&#xbe;" horiz-adv-x="732" 
d="M580 239h65v-108h38v-59h-38v-72h-65v72h-164v52l89 214h69l-85 -206v-1h91v108zM98 539h56q31 0 43.5 12t12.5 30q0 21 -13.5 32t-41.5 11q-20 0 -41 -4.5t-39 -12.5l-19 55q21 11 47.5 17t54.5 6q56 0 87.5 -25.5t31.5 -68.5q0 -32 -16 -51t-34 -24v-1q25 -9 41.5 -30
t16.5 -55q0 -45 -33 -72t-98 -27q-35 0 -60.5 7.5t-45.5 18.5l17 57q20 -10 41 -16t46 -6q29 0 48 10.5t19 36.5q0 22 -16.5 31t-48.5 9h-56v60zM125 0v10l447 670h76v-10l-447 -670h-76z" />
    <glyph glyph-name="questiondown" unicode="&#xbf;" horiz-adv-x="432" 
d="M270 275v-139q-31 -13 -57 -26.5t-44.5 -31.5t-28.5 -41.5t-10 -55.5q0 -25 7 -46.5t20 -37.5t32.5 -25t43.5 -9q39 0 73 15.5t61 36.5l36 -58q-14 -11 -32 -23.5t-39.5 -23t-46.5 -17t-52 -6.5q-91 0 -140 53t-49 142q0 40 13.5 71.5t35 55.5t48 42t53.5 31l11 93h65z
M297 434q0 -27 -16 -44.5t-43 -17.5q-26 0 -42 17.5t-16 44.5q0 28 16 45.5t42 17.5q27 0 43 -17.5t16 -45.5z" />
    <glyph glyph-name="Agrave" unicode="&#xc0;" horiz-adv-x="595" 
d="M189 883h90l60 -121v-10h-71l-79 121v10zM576 0h-88l-57 176h-267l-58 -176h-87l236 680h85zM297 595l-53 -184l-55 -165h216l-53 165l-53 184h-2z" />
    <glyph glyph-name="Aacute" unicode="&#xc1;" horiz-adv-x="595" 
d="M576 0h-88l-57 176h-267l-58 -176h-87l236 680h85zM297 595l-53 -184l-55 -165h216l-53 165l-53 184h-2zM408 873l-79 -121h-71v10l60 121h90v-10z" />
    <glyph glyph-name="Acircumflex" unicode="&#xc2;" horiz-adv-x="595" 
d="M576 0h-88l-57 176h-267l-58 -176h-87l236 680h85zM297 595l-53 -184l-55 -165h216l-53 165l-53 184h-2zM430 762v-10h-75l-58 71l-58 -71h-75v10l86 121h94z" />
    <glyph glyph-name="Atilde" unicode="&#xc3;" horiz-adv-x="595" 
d="M576 0h-88l-57 176h-267l-58 -176h-87l236 680h85zM297 595l-53 -184l-55 -165h216l-53 165l-53 184h-2zM156 817q13 20 33 38.5t50 18.5q15 0 30.5 -6.5t30.5 -14t30 -13.5t29 -6q15 0 28.5 9t25.5 26l25 -50q-17 -25 -36.5 -41t-46.5 -16q-15 0 -30.5 6t-30.5 13.5
t-30 14t-30 6.5q-14 0 -28 -9.5t-25 -25.5z" />
    <glyph glyph-name="Adieresis" unicode="&#xc4;" horiz-adv-x="595" 
d="M576 0h-88l-57 176h-267l-58 -176h-87l236 680h85zM297 595l-53 -184l-55 -165h216l-53 165l-53 184h-2zM143 816q0 25 14 40t38 15q25 0 39 -15t14 -40q0 -26 -14 -40.5t-39 -14.5q-24 0 -38 14.5t-14 40.5zM346 816q0 25 14 40t38 15q25 0 39 -15t14 -40
q0 -26 -14 -40.5t-39 -14.5q-24 0 -38 14.5t-14 40.5z" />
    <glyph glyph-name="Aring" unicode="&#xc5;" horiz-adv-x="595" 
d="M205 721q0 45 26 69t68 24t67.5 -24t25.5 -69q0 -27 -11 -47.5t-28 -31.5l223 -642h-88l-57 176h-267l-58 -176h-87l223 642q-18 12 -27.5 32t-9.5 47zM297 595l-53 -184l-55 -165h216l-53 165l-53 184h-2zM259 721q0 -20 11 -30t29 -10t29 10t11 30t-11 29.5t-29 9.5
t-29 -9.5t-11 -29.5z" />
    <glyph glyph-name="AE" unicode="&#xc6;" horiz-adv-x="850" 
d="M0 10l364 670h422v-74h-313v-222h284v-74h-284v-236h316v-74h-400v176h-212l-97 -176h-80v10zM397 595l-71 -142l-111 -207h174v196l10 153h-2z" />
    <glyph glyph-name="Ccedilla" unicode="&#xc7;" horiz-adv-x="569" 
d="M63 340q0 79 19 144.5t55.5 112.5t90.5 72.5t124 25.5q40 0 82.5 -11.5t84.5 -32.5l-23 -64q-39 19 -74 25.5t-70 6.5q-53 0 -91 -20t-62.5 -56.5t-36.5 -88t-12 -114.5t12 -114.5t36.5 -88t62.5 -56.5t91 -20q35 0 70 6.5t74 25.5l23 -64q-42 -21 -84 -32t-82 -12
l-11 -33q29 -5 47 -23t18 -49q0 -51 -31 -72t-77 -21q-23 0 -41 4.5t-28 9.5l12 55q9 -4 22 -7.5t27 -3.5q22 0 33 7.5t11 27.5q0 11 -4.5 18.5t-12 11.5t-17.5 5.5t-22 1.5l-5 10l19 63q-56 10 -99 39.5t-72 75t-44 105t-15 130.5z" />
    <glyph glyph-name="Egrave" unicode="&#xc8;" horiz-adv-x="557" 
d="M493 680v-74h-313v-222h284v-74h-284v-236h316v-74h-400v680h397zM184 883h90l60 -121v-10h-71l-79 121v10z" />
    <glyph glyph-name="Eacute" unicode="&#xc9;" horiz-adv-x="557" 
d="M493 680v-74h-313v-222h284v-74h-284v-236h316v-74h-400v680h397zM407 873l-79 -121h-71v10l60 121h90v-10z" />
    <glyph glyph-name="Ecircumflex" unicode="&#xca;" horiz-adv-x="557" 
d="M493 680v-74h-313v-222h284v-74h-284v-236h316v-74h-400v680h397zM432 762v-10h-75l-58 71l-58 -71h-75v10l86 121h94z" />
    <glyph glyph-name="Edieresis" unicode="&#xcb;" horiz-adv-x="557" 
d="M493 680v-74h-313v-222h284v-74h-284v-236h316v-74h-400v680h397zM137 816q0 25 14 40t38 15q25 0 39 -15t14 -40q0 -26 -14 -40.5t-39 -14.5q-24 0 -38 14.5t-14 40.5zM340 816q0 25 14 40t38 15q25 0 39 -15t14 -40q0 -26 -14 -40.5t-39 -14.5q-24 0 -38 14.5t-14 40.5
z" />
    <glyph glyph-name="Igrave" unicode="&#xcc;" horiz-adv-x="276" 
d="M180 0h-84v680h84v-680zM24 883h90l60 -121v-10h-71l-79 121v10z" />
    <glyph glyph-name="Iacute" unicode="&#xcd;" horiz-adv-x="276" 
d="M180 0h-84v680h84v-680zM250 873l-79 -121h-71v10l60 121h90v-10z" />
    <glyph glyph-name="Icircumflex" unicode="&#xce;" horiz-adv-x="276" 
d="M180 0h-84v680h84v-680zM266 762v-10h-75l-58 71l-58 -71h-75v10l86 121h94z" />
    <glyph glyph-name="Idieresis" unicode="&#xcf;" horiz-adv-x="276" 
d="M180 0h-84v680h84v-680zM-20 816q0 25 14 40t38 15q25 0 39 -15t14 -40q0 -26 -14 -40.5t-39 -14.5q-24 0 -38 14.5t-14 40.5zM183 816q0 25 14 40t38 15q25 0 39 -15t14 -40q0 -26 -14 -40.5t-39 -14.5q-24 0 -38 14.5t-14 40.5z" />
    <glyph glyph-name="Eth" unicode="&#xd0;" horiz-adv-x="655" 
d="M40 373h59v307h172q87 0 147.5 -22t99 -65.5t56 -107t17.5 -145.5q0 -83 -17.5 -146t-56 -106.5t-99 -65.5t-147.5 -22h-172v299h-59v74zM260 74q72 0 119.5 16t75 49t38.5 83t11 118t-11 118t-38.5 83t-75 49t-119.5 16h-77v-233h138v-74h-138v-225h77z" />
    <glyph glyph-name="Ntilde" unicode="&#xd1;" horiz-adv-x="678" 
d="M506 126l-8 127v427h84v-680h-88l-320 554h-2l8 -127v-427h-84v680h88l320 -554h2zM194 817q13 20 33 38.5t50 18.5q15 0 30.5 -6.5t30.5 -14t30 -13.5t29 -6q15 0 28.5 9t25.5 26l25 -50q-17 -25 -36.5 -41t-46.5 -16q-15 0 -30.5 6t-30.5 13.5t-30 14t-30 6.5
q-14 0 -28 -9.5t-25 -25.5z" />
    <glyph glyph-name="Ograve" unicode="&#xd2;" horiz-adv-x="680" 
d="M150 340q0 -58 9.5 -108.5t31.5 -88.5t58.5 -60t91.5 -22t91 22t58 60t31 88.5t9 108.5t-9 108.5t-31 88.5t-58 60t-91 22t-91.5 -22t-58.5 -60t-31.5 -88.5t-9.5 -108.5zM617 340q0 -75 -15.5 -140t-48.5 -113t-85.5 -75t-126.5 -27t-127 27t-86.5 75t-49 113t-15.5 140
t15.5 140t49 113t86.5 75t127 27t126.5 -27t85.5 -75t48.5 -113t15.5 -140zM237 883h90l60 -121v-10h-71l-79 121v10z" />
    <glyph glyph-name="Oacute" unicode="&#xd3;" horiz-adv-x="680" 
d="M150 340q0 -58 9.5 -108.5t31.5 -88.5t58.5 -60t91.5 -22t91 22t58 60t31 88.5t9 108.5t-9 108.5t-31 88.5t-58 60t-91 22t-91.5 -22t-58.5 -60t-31.5 -88.5t-9.5 -108.5zM617 340q0 -75 -15.5 -140t-48.5 -113t-85.5 -75t-126.5 -27t-127 27t-86.5 75t-49 113t-15.5 140
t15.5 140t49 113t86.5 75t127 27t126.5 -27t85.5 -75t48.5 -113t15.5 -140zM454 873l-79 -121h-71v10l60 121h90v-10z" />
    <glyph glyph-name="Ocircumflex" unicode="&#xd4;" horiz-adv-x="680" 
d="M150 340q0 -58 9.5 -108.5t31.5 -88.5t58.5 -60t91.5 -22t91 22t58 60t31 88.5t9 108.5t-9 108.5t-31 88.5t-58 60t-91 22t-91.5 -22t-58.5 -60t-31.5 -88.5t-9.5 -108.5zM617 340q0 -75 -15.5 -140t-48.5 -113t-85.5 -75t-126.5 -27t-127 27t-86.5 75t-49 113t-15.5 140
t15.5 140t49 113t86.5 75t127 27t126.5 -27t85.5 -75t48.5 -113t15.5 -140zM478 762v-10h-75l-58 71l-58 -71h-75v10l86 121h94z" />
    <glyph glyph-name="Otilde" unicode="&#xd5;" horiz-adv-x="680" 
d="M150 340q0 -58 9.5 -108.5t31.5 -88.5t58.5 -60t91.5 -22t91 22t58 60t31 88.5t9 108.5t-9 108.5t-31 88.5t-58 60t-91 22t-91.5 -22t-58.5 -60t-31.5 -88.5t-9.5 -108.5zM617 340q0 -75 -15.5 -140t-48.5 -113t-85.5 -75t-126.5 -27t-127 27t-86.5 75t-49 113t-15.5 140
t15.5 140t49 113t86.5 75t127 27t126.5 -27t85.5 -75t48.5 -113t15.5 -140zM203 817q13 20 33 38.5t50 18.5q15 0 30.5 -6.5t30.5 -14t30 -13.5t29 -6q15 0 28.5 9t25.5 26l25 -50q-17 -25 -36.5 -41t-46.5 -16q-15 0 -30.5 6t-30.5 13.5t-30 14t-30 6.5q-14 0 -28 -9.5
t-25 -25.5z" />
    <glyph glyph-name="Odieresis" unicode="&#xd6;" horiz-adv-x="680" 
d="M150 340q0 -58 9.5 -108.5t31.5 -88.5t58.5 -60t91.5 -22t91 22t58 60t31 88.5t9 108.5t-9 108.5t-31 88.5t-58 60t-91 22t-91.5 -22t-58.5 -60t-31.5 -88.5t-9.5 -108.5zM617 340q0 -75 -15.5 -140t-48.5 -113t-85.5 -75t-126.5 -27t-127 27t-86.5 75t-49 113t-15.5 140
t15.5 140t49 113t86.5 75t127 27t126.5 -27t85.5 -75t48.5 -113t15.5 -140zM190 816q0 25 14 40t38 15q25 0 39 -15t14 -40q0 -26 -14 -40.5t-39 -14.5q-24 0 -38 14.5t-14 40.5zM393 816q0 25 14 40t38 15q25 0 39 -15t14 -40q0 -26 -14 -40.5t-39 -14.5q-24 0 -38 14.5
t-14 40.5z" />
    <glyph glyph-name="multiply" unicode="&#xd7;" 
d="M274 318l152 157l48 -49l-152 -157l154 -158l-48 -49l-153 158l-151 -155l-48 49l150 155l-152 158l48 49z" />
    <glyph glyph-name="Oslash" unicode="&#xd8;" horiz-adv-x="680" 
d="M100 10l38 63q-39 48 -57 116.5t-18 150.5q0 75 15.5 140t49 113t86.5 75t127 27q47 0 85 -11.5t68 -31.5l37 58l55 -33l-44 -70q39 -49 57 -117.5t18 -149.5q0 -75 -15.5 -140t-48.5 -113t-85.5 -75t-126.5 -27q-48 0 -86 11t-68 32l-34 -53zM530 340q0 55 -8 103
t-28 86l-265 -432q44 -36 112 -36q55 0 91 22t58 60t31 88.5t9 108.5zM150 340q0 -55 8 -103.5t28 -85.5l266 432q-21 17 -48.5 26.5t-62.5 9.5q-55 0 -91.5 -22t-58.5 -60t-31.5 -88.5t-9.5 -108.5z" />
    <glyph glyph-name="Ugrave" unicode="&#xd9;" horiz-adv-x="662" 
d="M174 680v-428q0 -44 9 -79.5t28.5 -60t49.5 -38t71 -13.5t70.5 13.5t48.5 38t28 60t9 79.5v428h84v-439q0 -120 -58 -188t-182 -68q-126 0 -184 68t-58 189v438h84zM217 883h90l60 -121v-10h-71l-79 121v10z" />
    <glyph glyph-name="Uacute" unicode="&#xda;" horiz-adv-x="662" 
d="M174 680v-428q0 -44 9 -79.5t28.5 -60t49.5 -38t71 -13.5t70.5 13.5t48.5 38t28 60t9 79.5v428h84v-439q0 -120 -58 -188t-182 -68q-126 0 -184 68t-58 189v438h84zM436 873l-79 -121h-71v10l60 121h90v-10z" />
    <glyph glyph-name="Ucircumflex" unicode="&#xdb;" horiz-adv-x="662" 
d="M174 680v-428q0 -44 9 -79.5t28.5 -60t49.5 -38t71 -13.5t70.5 13.5t48.5 38t28 60t9 79.5v428h84v-439q0 -120 -58 -188t-182 -68q-126 0 -184 68t-58 189v438h84zM460 762v-10h-75l-58 71l-58 -71h-75v10l86 121h94z" />
    <glyph glyph-name="Udieresis" unicode="&#xdc;" horiz-adv-x="662" 
d="M174 680v-428q0 -44 9 -79.5t28.5 -60t49.5 -38t71 -13.5t70.5 13.5t48.5 38t28 60t9 79.5v428h84v-439q0 -120 -58 -188t-182 -68q-126 0 -184 68t-58 189v438h84zM173 816q0 25 14 40t38 15q25 0 39 -15t14 -40q0 -26 -14 -40.5t-39 -14.5q-24 0 -38 14.5t-14 40.5z
M376 816q0 25 14 40t38 15q25 0 39 -15t14 -40q0 -26 -14 -40.5t-39 -14.5q-24 0 -38 14.5t-14 40.5z" />
    <glyph glyph-name="Yacute" unicode="&#xdd;" horiz-adv-x="528" 
d="M105 680l158 -309h2l160 309h89v-10l-208 -382v-288h-84v288l-207 382v10h90zM379 873l-79 -121h-71v10l60 121h90v-10z" />
    <glyph glyph-name="Thorn" unicode="&#xde;" horiz-adv-x="571" 
d="M96 0v680h85v-124h136q52 0 90.5 -14t63 -40.5t36.5 -65t12 -87.5t-12 -87.5t-37 -65t-63 -40.5t-90 -14h-136v-142h-85zM181 216h129q33 0 56 10t37.5 27.5t21.5 42t7 53.5q0 58 -28.5 95.5t-93.5 37.5h-129v-266z" />
    <glyph glyph-name="germandbls" unicode="&#xdf;" horiz-adv-x="571" 
d="M81 490q0 54 12.5 94t37 67t60.5 40.5t82 13.5q49 0 85.5 -13.5t60.5 -37.5t35.5 -57t11.5 -72q0 -31 -7 -54.5t-18.5 -41t-26 -30t-29.5 -21.5v-2q24 -6 47.5 -20t43 -36t31.5 -52.5t12 -69.5q0 -54 -16 -94.5t-44.5 -66.5t-69 -39t-89.5 -13q-12 0 -25 0.5t-21 2.5v69
q11 -1 21.5 -1.5t24.5 -0.5q65 0 100 35t35 107q0 61 -34 98.5t-111 37.5h-14v74h19q46 0 66.5 32.5t20.5 80.5q0 50 -26 82.5t-80 32.5q-60 0 -86.5 -37.5t-26.5 -114.5v-483h-82v490z" />
    <glyph glyph-name="agrave" unicode="&#xe0;" horiz-adv-x="494" 
d="M244 224q-53 0 -83 -22.5t-30 -70.5q0 -35 19 -55.5t60 -20.5q33 0 63.5 7.5t61.5 33.5v128h-91zM357 0l-8 44h-2q-31 -25 -70 -42t-85 -17q-66 0 -105.5 38t-39.5 108q0 46 16.5 75.5t43.5 46t61 23t69 6.5h98v31q0 24 -6 45t-18.5 36.5t-32 24t-46.5 8.5
q-34 0 -68 -10.5t-60 -30.5l-34 57q31 24 72.5 39t92.5 15q92 0 137 -50t45 -136v-311h-60zM135 710h91l59 -121v-10h-71l-79 121v10z" />
    <glyph glyph-name="aacute" unicode="&#xe1;" horiz-adv-x="494" 
d="M244 224q-53 0 -83 -22.5t-30 -70.5q0 -35 19 -55.5t60 -20.5q33 0 63.5 7.5t61.5 33.5v128h-91zM357 0l-8 44h-2q-31 -25 -70 -42t-85 -17q-66 0 -105.5 38t-39.5 108q0 46 16.5 75.5t43.5 46t61 23t69 6.5h98v31q0 24 -6 45t-18.5 36.5t-32 24t-46.5 8.5
q-34 0 -68 -10.5t-60 -30.5l-34 57q31 24 72.5 39t92.5 15q92 0 137 -50t45 -136v-311h-60zM355 700l-79 -121h-71v10l59 121h91v-10z" />
    <glyph glyph-name="acircumflex" unicode="&#xe2;" horiz-adv-x="494" 
d="M244 224q-53 0 -83 -22.5t-30 -70.5q0 -35 19 -55.5t60 -20.5q33 0 63.5 7.5t61.5 33.5v128h-91zM357 0l-8 44h-2q-31 -25 -70 -42t-85 -17q-66 0 -105.5 38t-39.5 108q0 46 16.5 75.5t43.5 46t61 23t69 6.5h98v31q0 24 -6 45t-18.5 36.5t-32 24t-46.5 8.5
q-34 0 -68 -10.5t-60 -30.5l-34 57q31 24 72.5 39t92.5 15q92 0 137 -50t45 -136v-311h-60zM375 589v-10h-75l-58 84l-58 -84h-75v10l86 121h94z" />
    <glyph glyph-name="atilde" unicode="&#xe3;" horiz-adv-x="494" 
d="M244 224q-53 0 -83 -22.5t-30 -70.5q0 -35 19 -55.5t60 -20.5q33 0 63.5 7.5t61.5 33.5v128h-91zM357 0l-8 44h-2q-31 -25 -70 -42t-85 -17q-66 0 -105.5 38t-39.5 108q0 46 16.5 75.5t43.5 46t61 23t69 6.5h98v31q0 24 -6 45t-18.5 36.5t-32 24t-46.5 8.5
q-34 0 -68 -10.5t-60 -30.5l-34 57q31 24 72.5 39t92.5 15q92 0 137 -50t45 -136v-311h-60zM102 634q13 20 33 38.5t50 18.5q15 0 30.5 -6.5t30.5 -14t30 -13.5t29 -6q15 0 28.5 9t25.5 26l25 -50q-17 -25 -36.5 -41t-46.5 -16q-15 0 -30.5 6t-30.5 13.5t-30 14t-30 6.5
q-14 0 -28 -9.5t-25 -25.5z" />
    <glyph glyph-name="adieresis" unicode="&#xe4;" horiz-adv-x="494" 
d="M244 224q-53 0 -83 -22.5t-30 -70.5q0 -35 19 -55.5t60 -20.5q33 0 63.5 7.5t61.5 33.5v128h-91zM357 0l-8 44h-2q-31 -25 -70 -42t-85 -17q-66 0 -105.5 38t-39.5 108q0 46 16.5 75.5t43.5 46t61 23t69 6.5h98v31q0 24 -6 45t-18.5 36.5t-32 24t-46.5 8.5
q-34 0 -68 -10.5t-60 -30.5l-34 57q31 24 72.5 39t92.5 15q92 0 137 -50t45 -136v-311h-60zM282 633q0 25 14 40t38 15q25 0 39 -15t14 -40q0 -26 -14 -40.5t-39 -14.5q-24 0 -38 14.5t-14 40.5zM99 633q0 25 14 40t38 15q25 0 39 -15t14 -40q0 -26 -14 -40.5t-39 -14.5
q-24 0 -38 14.5t-14 40.5z" />
    <glyph glyph-name="aring" unicode="&#xe5;" horiz-adv-x="494" 
d="M244 224q-53 0 -83 -22.5t-30 -70.5q0 -35 19 -55.5t60 -20.5q33 0 63.5 7.5t61.5 33.5v128h-91zM357 0l-8 44h-2q-31 -25 -70 -42t-85 -17q-66 0 -105.5 38t-39.5 108q0 46 16.5 75.5t43.5 46t61 23t69 6.5h98v31q0 24 -6 45t-18.5 36.5t-32 24t-46.5 8.5
q-34 0 -68 -10.5t-60 -30.5l-34 57q31 24 72.5 39t92.5 15q92 0 137 -50t45 -136v-311h-60zM204 638q0 -20 11 -31t29 -11t29 11t11 31t-11 30.5t-29 10.5t-29 -10.5t-11 -30.5zM150 638q0 45 26 69t68 24t67.5 -24t25.5 -69t-25.5 -69.5t-67.5 -24.5t-68 24.5t-26 69.5z
" />
    <glyph glyph-name="ae" unicode="&#xe6;" horiz-adv-x="778" 
d="M246 222q-60 0 -88 -22.5t-28 -64.5t22.5 -61t57.5 -19q21 0 44.5 10t42.5 31t31.5 52.5t12.5 73.5h-95zM378 92q-14 -23 -32.5 -42.5t-41.5 -33.5t-51 -22.5t-61 -8.5q-31 0 -57.5 9.5t-46 28.5t-30.5 46.5t-11 63.5q0 42 15 70.5t40.5 46t59.5 25t72 7.5h106v31
q0 24 -6.5 45t-19.5 36.5t-33.5 24t-47.5 8.5q-34 0 -68 -10.5t-60 -30.5l-34 57q31 24 72 39t88 15q54 0 94.5 -23t66.5 -62q24 37 59.5 61t85.5 24q53 0 89 -17.5t58.5 -46.5t32.5 -66.5t10 -77.5q0 -18 -1.5 -37t-3.5 -32h-302q0 -33 9 -63t26 -52.5t41.5 -36t56.5 -13.5
q46 0 73 13t52 31l31 -61q-29 -21 -67 -37t-96 -16q-34 0 -60 7.5t-46 22t-35 34t-27 43.5zM646 282q1 5 1 11.5v11.5q0 26 -6.5 48t-20 38.5t-34 26t-49.5 9.5q-28 0 -48.5 -11.5t-34 -31t-21 -46t-9.5 -56.5h222z" />
    <glyph glyph-name="ccedilla" unicode="&#xe7;" horiz-adv-x="463" 
d="M55 241q0 57 14 104t41 80.5t68 52.5t95 19q35 0 74 -10.5t68 -25.5l-22 -61q-20 9 -52.5 18t-64.5 9q-35 0 -61 -15.5t-43 -41t-25 -59.5t-8 -70t8.5 -70t25.5 -59.5t42.5 -41t60.5 -15.5q32 0 64.5 9t52.5 18l22 -61q-26 -14 -60.5 -23.5t-66.5 -11.5l-12 -34
q29 -5 47.5 -23t18.5 -49q0 -51 -31 -72t-78 -21q-22 0 -40 4.5t-29 9.5l13 55q9 -4 21.5 -7.5t27.5 -3.5q21 0 32.5 7.5t11.5 27.5q0 11 -4.5 18.5t-12 11.5t-17.5 5.5t-22 1.5l-6 10l19 62q-43 7 -75 28.5t-53.5 54.5t-32.5 76t-11 93z" />
    <glyph glyph-name="egrave" unicode="&#xe8;" horiz-adv-x="511" 
d="M133 220q0 -33 10.5 -63t30 -52.5t46 -36t58.5 -13.5q46 0 77 13t56 31l31 -61q-29 -21 -71 -37t-100 -16q-57 0 -98 21t-67.5 56t-39 82t-12.5 99q0 49 13 94.5t39 81t65 57t91 21.5q53 0 90.5 -17.5t61.5 -46.5t35 -66.5t11 -77.5q0 -18 -1.5 -37t-3.5 -32h-322z
M379 282q1 5 1 11.5v11.5q0 26 -7.5 48t-22.5 38.5t-37 26t-51 9.5q-28 0 -50 -11.5t-38 -31t-25.5 -46t-11.5 -56.5h242zM164 710h91l59 -121v-10h-71l-79 121v10z" />
    <glyph glyph-name="eacute" unicode="&#xe9;" horiz-adv-x="511" 
d="M133 220q0 -33 10.5 -63t30 -52.5t46 -36t58.5 -13.5q46 0 77 13t56 31l31 -61q-29 -21 -71 -37t-100 -16q-57 0 -98 21t-67.5 56t-39 82t-12.5 99q0 49 13 94.5t39 81t65 57t91 21.5q53 0 90.5 -17.5t61.5 -46.5t35 -66.5t11 -77.5q0 -18 -1.5 -37t-3.5 -32h-322z
M379 282q1 5 1 11.5v11.5q0 26 -7.5 48t-22.5 38.5t-37 26t-51 9.5q-28 0 -50 -11.5t-38 -31t-25.5 -46t-11.5 -56.5h242zM382 700l-79 -121h-71v10l59 121h91v-10z" />
    <glyph glyph-name="ecircumflex" unicode="&#xea;" horiz-adv-x="511" 
d="M133 220q0 -33 10.5 -63t30 -52.5t46 -36t58.5 -13.5q46 0 77 13t56 31l31 -61q-29 -21 -71 -37t-100 -16q-57 0 -98 21t-67.5 56t-39 82t-12.5 99q0 49 13 94.5t39 81t65 57t91 21.5q53 0 90.5 -17.5t61.5 -46.5t35 -66.5t11 -77.5q0 -18 -1.5 -37t-3.5 -32h-322z
M379 282q1 5 1 11.5v11.5q0 26 -7.5 48t-22.5 38.5t-37 26t-51 9.5q-28 0 -50 -11.5t-38 -31t-25.5 -46t-11.5 -56.5h242zM402 589v-10h-75l-58 84l-58 -84h-75v10l86 121h94z" />
    <glyph glyph-name="edieresis" unicode="&#xeb;" horiz-adv-x="511" 
d="M133 220q0 -33 10.5 -63t30 -52.5t46 -36t58.5 -13.5q46 0 77 13t56 31l31 -61q-29 -21 -71 -37t-100 -16q-57 0 -98 21t-67.5 56t-39 82t-12.5 99q0 49 13 94.5t39 81t65 57t91 21.5q53 0 90.5 -17.5t61.5 -46.5t35 -66.5t11 -77.5q0 -18 -1.5 -37t-3.5 -32h-322z
M379 282q1 5 1 11.5v11.5q0 26 -7.5 48t-22.5 38.5t-37 26t-51 9.5q-28 0 -50 -11.5t-38 -31t-25.5 -46t-11.5 -56.5h242zM307 633q0 25 14 40t38 15q25 0 39 -15t14 -40q0 -26 -14 -40.5t-39 -14.5q-24 0 -38 14.5t-14 40.5zM124 633q0 25 14 40t38 15q25 0 39 -15t14 -40
q0 -26 -14 -40.5t-39 -14.5q-24 0 -38 14.5t-14 40.5z" />
    <glyph glyph-name="igrave" unicode="&#xec;" horiz-adv-x="244" 
d="M81 0v482h82v-482h-82zM13 710h91l59 -121v-10h-71l-79 121v10z" />
    <glyph glyph-name="iacute" unicode="&#xed;" horiz-adv-x="244" 
d="M81 0v482h82v-482h-82zM236 700l-79 -121h-71v10l59 121h91v-10z" />
    <glyph glyph-name="icircumflex" unicode="&#xee;" horiz-adv-x="244" 
d="M81 0v482h82v-482h-82zM257 589v-10h-75l-58 84l-58 -84h-75v10l86 121h94z" />
    <glyph glyph-name="idieresis" unicode="&#xef;" horiz-adv-x="244" 
d="M81 0v482h82v-482h-82zM162 633q0 25 14 40t38 15q25 0 39 -15t14 -40q0 -26 -14 -40.5t-39 -14.5q-24 0 -38 14.5t-14 40.5zM-21 633q0 25 14 40t38 15q25 0 39 -15t14 -40q0 -26 -14 -40.5t-39 -14.5q-24 0 -38 14.5t-14 40.5z" />
    <glyph glyph-name="eth" unicode="&#xf0;" horiz-adv-x="558" 
d="M367 585q28 -38 53 -79t43.5 -84.5t29 -88t10.5 -89.5q0 -57 -15 -104.5t-43.5 -82t-70.5 -53.5t-96 -19q-53 0 -95 19t-70.5 52.5t-43.5 78.5t-15 98q0 55 14.5 99.5t41.5 76t64.5 49t82.5 17.5q44 0 73 -15t43 -26l2 2q-13 29 -36.5 63t-46.5 63l-97 -28l-19 57l76 20
q-16 20 -36 41t-37 38v10h94q14 -14 27.5 -32t26.5 -33l85 25l17 -57zM139 233q0 -81 38.5 -126.5t100.5 -45.5q63 0 101.5 45.5t38.5 126.5q0 83 -38.5 124.5t-101.5 41.5q-62 0 -100.5 -41.5t-38.5 -124.5z" />
    <glyph glyph-name="ntilde" unicode="&#xf1;" horiz-adv-x="546" 
d="M139 482l10 -44h2q10 8 26.5 18t37.5 19t45 15.5t48 6.5q75 0 118 -45.5t43 -137.5v-314h-82v300q0 63 -24.5 95t-75.5 32q-17 0 -35 -4t-35 -10.5t-31 -14t-23 -14.5v-384h-82v482h58zM138 634q13 20 33 38.5t50 18.5q15 0 30.5 -6.5t30.5 -14t30 -13.5t29 -6
q15 0 28.5 9t25.5 26l25 -50q-17 -25 -36.5 -41t-46.5 -16q-15 0 -30.5 6t-30.5 13.5t-30 14t-30 6.5q-14 0 -28 -9.5t-25 -25.5z" />
    <glyph glyph-name="ograve" unicode="&#xf2;" horiz-adv-x="545" 
d="M138 241q0 -37 7 -71t22.5 -59.5t41 -40.5t62.5 -15t63 15t42.5 40.5t23.5 59.5t7 71t-7 71t-23.5 59.5t-42.5 40.5t-63 15t-62.5 -15t-41 -40.5t-22.5 -59.5t-7 -71zM491 241q0 -53 -12.5 -99.5t-39 -81t-68 -55t-100.5 -20.5q-58 0 -99 20.5t-67.5 55t-38.5 81
t-12 99.5q0 52 12 99t38.5 81.5t67.5 55t99 20.5q59 0 100.5 -20.5t68 -55t39 -81.5t12.5 -99zM166 710h91l59 -121v-10h-71l-79 121v10z" />
    <glyph glyph-name="oacute" unicode="&#xf3;" horiz-adv-x="545" 
d="M138 241q0 -37 7 -71t22.5 -59.5t41 -40.5t62.5 -15t63 15t42.5 40.5t23.5 59.5t7 71t-7 71t-23.5 59.5t-42.5 40.5t-63 15t-62.5 -15t-41 -40.5t-22.5 -59.5t-7 -71zM491 241q0 -53 -12.5 -99.5t-39 -81t-68 -55t-100.5 -20.5q-58 0 -99 20.5t-67.5 55t-38.5 81
t-12 99.5q0 52 12 99t38.5 81.5t67.5 55t99 20.5q59 0 100.5 -20.5t68 -55t39 -81.5t12.5 -99zM384 700l-79 -121h-71v10l59 121h91v-10z" />
    <glyph glyph-name="ocircumflex" unicode="&#xf4;" horiz-adv-x="545" 
d="M138 241q0 -37 7 -71t22.5 -59.5t41 -40.5t62.5 -15t63 15t42.5 40.5t23.5 59.5t7 71t-7 71t-23.5 59.5t-42.5 40.5t-63 15t-62.5 -15t-41 -40.5t-22.5 -59.5t-7 -71zM491 241q0 -53 -12.5 -99.5t-39 -81t-68 -55t-100.5 -20.5q-58 0 -99 20.5t-67.5 55t-38.5 81
t-12 99.5q0 52 12 99t38.5 81.5t67.5 55t99 20.5q59 0 100.5 -20.5t68 -55t39 -81.5t12.5 -99zM406 589v-10h-75l-58 84l-58 -84h-75v10l86 121h94z" />
    <glyph glyph-name="otilde" unicode="&#xf5;" horiz-adv-x="545" 
d="M138 241q0 -37 7 -71t22.5 -59.5t41 -40.5t62.5 -15t63 15t42.5 40.5t23.5 59.5t7 71t-7 71t-23.5 59.5t-42.5 40.5t-63 15t-62.5 -15t-41 -40.5t-22.5 -59.5t-7 -71zM491 241q0 -53 -12.5 -99.5t-39 -81t-68 -55t-100.5 -20.5q-58 0 -99 20.5t-67.5 55t-38.5 81
t-12 99.5q0 52 12 99t38.5 81.5t67.5 55t99 20.5q59 0 100.5 -20.5t68 -55t39 -81.5t12.5 -99zM132 634q13 20 33 38.5t50 18.5q15 0 30.5 -6.5t30.5 -14t30 -13.5t29 -6q15 0 28.5 9t25.5 26l25 -50q-17 -25 -36.5 -41t-46.5 -16q-15 0 -30.5 6t-30.5 13.5t-30 14t-30 6.5
q-14 0 -28 -9.5t-25 -25.5z" />
    <glyph glyph-name="odieresis" unicode="&#xf6;" horiz-adv-x="545" 
d="M138 241q0 -37 7 -71t22.5 -59.5t41 -40.5t62.5 -15t63 15t42.5 40.5t23.5 59.5t7 71t-7 71t-23.5 59.5t-42.5 40.5t-63 15t-62.5 -15t-41 -40.5t-22.5 -59.5t-7 -71zM491 241q0 -53 -12.5 -99.5t-39 -81t-68 -55t-100.5 -20.5q-58 0 -99 20.5t-67.5 55t-38.5 81
t-12 99.5q0 52 12 99t38.5 81.5t67.5 55t99 20.5q59 0 100.5 -20.5t68 -55t39 -81.5t12.5 -99zM311 633q0 25 14 40t38 15q25 0 39 -15t14 -40q0 -26 -14 -40.5t-39 -14.5q-24 0 -38 14.5t-14 40.5zM128 633q0 25 14 40t38 15q25 0 39 -15t14 -40q0 -26 -14 -40.5t-39 -14.5
q-24 0 -38 14.5t-14 40.5z" />
    <glyph glyph-name="divide" unicode="&#xf7;" 
d="M213 70q0 27 17 44.5t43 17.5q27 0 43.5 -17.5t16.5 -44.5q0 -28 -16.5 -45.5t-43.5 -17.5q-26 0 -43 17.5t-17 45.5zM213 470q0 27 17 44.5t43 17.5q27 0 43.5 -17.5t16.5 -44.5q0 -28 -16.5 -45.5t-43.5 -17.5q-26 0 -43 17.5t-17 45.5zM493 307v-74h-437v74h437z" />
    <glyph glyph-name="oslash" unicode="&#xf8;" horiz-adv-x="545" 
d="M73 10l34 48q-27 35 -39.5 82t-12.5 101q0 52 12 99t38.5 81.5t67.5 55t99 20.5q38 0 68 -8.5t54 -24.5l32 45l54 -37l-38 -53q26 -35 38 -80.5t12 -97.5q0 -53 -12.5 -99.5t-39 -81t-68 -55t-100.5 -20.5q-35 0 -64 7.5t-52 21.5l-31 -43zM408 241q0 29 -4.5 55
t-13.5 49l-190 -269q14 -10 31.5 -15.5t40.5 -5.5q37 0 63 15t42.5 40.5t23.5 59.5t7 71zM139 241q0 -64 19 -111l192 272q-31 25 -78 25q-37 0 -62.5 -15t-41 -40.5t-22.5 -59.5t-7 -71z" />
    <glyph glyph-name="ugrave" unicode="&#xf9;" horiz-adv-x="540" 
d="M159 482v-300q0 -63 22.5 -95t73.5 -32q17 0 35 4t34 10.5t30 14t23 14.5v384h82v-482h-58l-9 44h-2q-11 -8 -27.5 -18t-36.5 -19t-43.5 -15.5t-47.5 -6.5q-75 0 -116.5 45.5t-41.5 137.5v314h82zM159 710h91l59 -121v-10h-71l-79 121v10z" />
    <glyph glyph-name="uacute" unicode="&#xfa;" horiz-adv-x="540" 
d="M159 482v-300q0 -63 22.5 -95t73.5 -32q17 0 35 4t34 10.5t30 14t23 14.5v384h82v-482h-58l-9 44h-2q-11 -8 -27.5 -18t-36.5 -19t-43.5 -15.5t-47.5 -6.5q-75 0 -116.5 45.5t-41.5 137.5v314h82zM381 700l-79 -121h-71v10l59 121h91v-10z" />
    <glyph glyph-name="ucircumflex" unicode="&#xfb;" horiz-adv-x="540" 
d="M159 482v-300q0 -63 22.5 -95t73.5 -32q17 0 35 4t34 10.5t30 14t23 14.5v384h82v-482h-58l-9 44h-2q-11 -8 -27.5 -18t-36.5 -19t-43.5 -15.5t-47.5 -6.5q-75 0 -116.5 45.5t-41.5 137.5v314h82zM401 589v-10h-75l-58 84l-58 -84h-75v10l86 121h94z" />
    <glyph glyph-name="udieresis" unicode="&#xfc;" horiz-adv-x="540" 
d="M159 482v-300q0 -63 22.5 -95t73.5 -32q17 0 35 4t34 10.5t30 14t23 14.5v384h82v-482h-58l-9 44h-2q-11 -8 -27.5 -18t-36.5 -19t-43.5 -15.5t-47.5 -6.5q-75 0 -116.5 45.5t-41.5 137.5v314h82zM306 633q0 25 14 40t38 15q25 0 39 -15t14 -40q0 -26 -14 -40.5
t-39 -14.5q-24 0 -38 14.5t-14 40.5zM123 633q0 25 14 40t38 15q25 0 39 -15t14 -40q0 -26 -14 -40.5t-39 -14.5q-24 0 -38 14.5t-14 40.5z" />
    <glyph glyph-name="yacute" unicode="&#xfd;" horiz-adv-x="481" 
d="M450 472l-185 -537q-26 -76 -63.5 -112t-89.5 -36q-18 0 -42.5 4.5t-38.5 8.5v67q14 -4 36 -8t38 -4q29 0 46.5 22.5t31.5 62.5l22 65l-178 467v10h81l105 -305l28 -95h2l26 95l101 305h80v-10zM361 700l-79 -121h-71v10l59 121h91v-10z" />
    <glyph glyph-name="thorn" unicode="&#xfe;" horiz-adv-x="546" 
d="M81 700h82v-252h2q24 19 56 34t83 15q49 0 84 -20.5t58 -55t34 -81.5t11 -99q0 -53 -10.5 -99.5t-33 -81t-58 -55t-84.5 -20.5q-26 0 -46.5 4t-37.5 11t-30.5 16t-25.5 18h-2v-232h-82v898zM163 99q23 -22 54.5 -33t65.5 -11q35 0 59 15.5t38.5 41t20.5 59t6 70.5
t-6 70.5t-20.5 59t-38.5 41t-59 15.5q-34 0 -65.5 -11t-54.5 -33v-284z" />
    <glyph glyph-name="ydieresis" unicode="&#xff;" horiz-adv-x="481" 
d="M450 472l-185 -537q-26 -76 -63.5 -112t-89.5 -36q-18 0 -42.5 4.5t-38.5 8.5v67q14 -4 36 -8t38 -4q29 0 46.5 22.5t31.5 62.5l22 65l-178 467v10h81l105 -305l28 -95h2l26 95l101 305h80v-10zM281 633q0 25 14 40t38 15q25 0 39 -15t14 -40q0 -26 -14 -40.5t-39 -14.5
q-24 0 -38 14.5t-14 40.5zM98 633q0 25 14 40t38 15q25 0 39 -15t14 -40q0 -26 -14 -40.5t-39 -14.5q-24 0 -38 14.5t-14 40.5z" />
    <glyph glyph-name="Amacron" unicode="&#x100;" horiz-adv-x="595" 
d="M576 0h-88l-57 176h-267l-58 -176h-87l236 680h85zM297 595l-53 -184l-55 -165h216l-53 165l-53 184h-2zM176 777v74h243v-74h-243z" />
    <glyph glyph-name="amacron" unicode="&#x101;" horiz-adv-x="494" 
d="M244 224q-53 0 -83 -22.5t-30 -70.5q0 -35 19 -55.5t60 -20.5q33 0 63.5 7.5t61.5 33.5v128h-91zM357 0l-8 44h-2q-31 -25 -70 -42t-85 -17q-66 0 -105.5 38t-39.5 108q0 46 16.5 75.5t43.5 46t61 23t69 6.5h98v31q0 24 -6 45t-18.5 36.5t-32 24t-46.5 8.5
q-34 0 -68 -10.5t-60 -30.5l-34 57q31 24 72.5 39t92.5 15q92 0 137 -50t45 -136v-311h-60zM122 597v74h243v-74h-243z" />
    <glyph glyph-name="Abreve" unicode="&#x102;" horiz-adv-x="595" 
d="M576 0h-88l-57 176h-267l-58 -176h-87l236 680h85zM297 595l-53 -184l-55 -165h216l-53 165l-53 184h-2zM297 838q38 0 65.5 10.5t44.5 21.5l23 -52q-11 -11 -25 -20.5t-30.5 -17.5t-36 -12.5t-41.5 -4.5t-41 4.5t-35.5 12.5t-30.5 17.5t-25 20.5l23 52q17 -11 44 -21.5
t65 -10.5z" />
    <glyph glyph-name="abreve" unicode="&#x103;" horiz-adv-x="494" 
d="M244 224q-53 0 -83 -22.5t-30 -70.5q0 -35 19 -55.5t60 -20.5q33 0 63.5 7.5t61.5 33.5v128h-91zM357 0l-8 44h-2q-31 -25 -70 -42t-85 -17q-66 0 -105.5 38t-39.5 108q0 46 16.5 75.5t43.5 46t61 23t69 6.5h98v31q0 24 -6 45t-18.5 36.5t-32 24t-46.5 8.5
q-34 0 -68 -10.5t-60 -30.5l-34 57q31 24 72.5 39t92.5 15q92 0 137 -50t45 -136v-311h-60zM244 654q38 0 65.5 10.5t44.5 21.5l23 -52q-11 -11 -25 -20.5t-30.5 -17.5t-36 -12.5t-41.5 -4.5t-41 4.5t-35.5 12.5t-30.5 17.5t-25 20.5l23 52q17 -11 44 -21.5t65 -10.5z" />
    <glyph glyph-name="Aogonek" unicode="&#x104;" horiz-adv-x="595" 
d="M507 -213q-18 0 -35.5 5.5t-31 16.5t-21.5 29t-8 44q0 37 21.5 65.5t54.5 53.5l-56 175h-267l-58 -176h-87l236 680h85l236 -680q-49 -25 -71 -50t-22 -51q0 -21 11 -32t32 -11q17 0 30.5 7t24.5 14l8 -62q-13 -10 -34.5 -19t-47.5 -9zM297 595l-53 -184l-55 -165h216
l-53 165l-53 184h-2z" />
    <glyph glyph-name="aogonek" unicode="&#x105;" horiz-adv-x="494" 
d="M352 -213q-18 0 -35.5 5.5t-31 16.5t-21.5 29t-8 44q0 21 7.5 39.5t20.5 35t31 31t39 28.5l-5 28h-2q-31 -25 -70 -42t-85 -17q-66 0 -105.5 38t-39.5 108q0 46 16.5 75.5t43.5 46t61 23t69 6.5h98v31q0 24 -6 45t-18.5 36.5t-32 24t-46.5 8.5q-34 0 -68 -10.5t-60 -30.5
l-34 57q31 24 72.5 39t92.5 15q92 0 137 -50t45 -136v-311q-24 -13 -41 -25.5t-27.5 -25t-15.5 -25t-5 -25.5q0 -21 11 -32t32 -11q17 0 30.5 7t24.5 14l8 -62q-13 -10 -34.5 -19t-47.5 -9zM244 224q-53 0 -83 -22.5t-30 -70.5q0 -35 19 -55.5t60 -20.5q33 0 63.5 7.5
t61.5 33.5v128h-91z" />
    <glyph glyph-name="Cacute" unicode="&#x106;" horiz-adv-x="569" 
d="M62 340q0 79 19 144.5t55.5 112.5t90.5 72.5t124 25.5q40 0 82.5 -11.5t84.5 -32.5l-23 -64q-39 19 -74 25.5t-70 6.5q-53 0 -91 -20t-62.5 -56.5t-36.5 -88t-12 -114.5t12 -114.5t36.5 -88t62.5 -56.5t91 -20q35 0 70 6.5t74 25.5l23 -64q-42 -21 -84.5 -32.5
t-82.5 -11.5q-70 0 -124 25.5t-90.5 72.5t-55.5 112t-19 145zM445 873l-79 -121h-71v10l60 121h90v-10z" />
    <glyph glyph-name="cacute" unicode="&#x107;" horiz-adv-x="463" 
d="M54 241q0 57 14 104t41 80.5t68 52.5t95 19q35 0 74 -10.5t68 -25.5l-22 -61q-20 9 -52.5 18t-64.5 9q-35 0 -61 -15.5t-43 -41t-25 -59.5t-8 -70t8.5 -70t25.5 -59.5t42.5 -41t60.5 -15.5q32 0 64.5 9t52.5 18l22 -61q-29 -15 -68 -25.5t-74 -10.5q-54 0 -95 19
t-68 52.5t-41 80.5t-14 104zM376 700l-79 -121h-71v10l59 121h91v-10z" />
    <glyph glyph-name="Ccircumflex" unicode="&#x108;" horiz-adv-x="569" 
d="M62 340q0 79 19 144.5t55.5 112.5t90.5 72.5t124 25.5q40 0 82.5 -11.5t84.5 -32.5l-23 -64q-39 19 -74 25.5t-70 6.5q-53 0 -91 -20t-62.5 -56.5t-36.5 -88t-12 -114.5t12 -114.5t36.5 -88t62.5 -56.5t91 -20q35 0 70 6.5t74 25.5l23 -64q-42 -21 -84.5 -32.5
t-82.5 -11.5q-70 0 -124 25.5t-90.5 72.5t-55.5 112t-19 145zM473 762v-10h-75l-58 71l-58 -71h-75v10l86 121h94z" />
    <glyph glyph-name="ccircumflex" unicode="&#x109;" horiz-adv-x="463" 
d="M54 241q0 57 14 104t41 80.5t68 52.5t95 19q35 0 74 -10.5t68 -25.5l-22 -61q-20 9 -52.5 18t-64.5 9q-35 0 -61 -15.5t-43 -41t-25 -59.5t-8 -70t8.5 -70t25.5 -59.5t42.5 -41t60.5 -15.5q32 0 64.5 9t52.5 18l22 -61q-29 -15 -68 -25.5t-74 -10.5q-54 0 -95 19
t-68 52.5t-41 80.5t-14 104zM395 589v-10h-75l-58 84l-58 -84h-75v10l86 121h94z" />
    <glyph glyph-name="Cdotaccent" unicode="&#x10a;" horiz-adv-x="569" 
d="M62 340q0 79 19 144.5t55.5 112.5t90.5 72.5t124 25.5q40 0 82.5 -11.5t84.5 -32.5l-23 -64q-39 19 -74 25.5t-70 6.5q-53 0 -91 -20t-62.5 -56.5t-36.5 -88t-12 -114.5t12 -114.5t36.5 -88t62.5 -56.5t91 -20q35 0 70 6.5t74 25.5l23 -64q-42 -21 -84.5 -32.5
t-82.5 -11.5q-70 0 -124 25.5t-90.5 72.5t-55.5 112t-19 145zM286 816q0 25 14 40t38 15q25 0 39 -15t14 -40q0 -26 -14 -40.5t-39 -14.5q-24 0 -38 14.5t-14 40.5z" />
    <glyph glyph-name="cdotaccent" unicode="&#x10b;" horiz-adv-x="463" 
d="M54 241q0 57 14 104t41 80.5t68 52.5t95 19q35 0 74 -10.5t68 -25.5l-22 -61q-20 9 -52.5 18t-64.5 9q-35 0 -61 -15.5t-43 -41t-25 -59.5t-8 -70t8.5 -70t25.5 -59.5t42.5 -41t60.5 -15.5q32 0 64.5 9t52.5 18l22 -61q-29 -15 -68 -25.5t-74 -10.5q-54 0 -95 19
t-68 52.5t-41 80.5t-14 104zM211 634q0 25 14 40t38 15q25 0 39 -15t14 -40q0 -26 -14 -40.5t-39 -14.5q-24 0 -38 14.5t-14 40.5z" />
    <glyph glyph-name="Ccaron" unicode="&#x10c;" horiz-adv-x="569" 
d="M62 340q0 79 19 144.5t55.5 112.5t90.5 72.5t124 25.5q40 0 82.5 -11.5t84.5 -32.5l-23 -64q-39 19 -74 25.5t-70 6.5q-53 0 -91 -20t-62.5 -56.5t-36.5 -88t-12 -114.5t12 -114.5t36.5 -88t62.5 -56.5t91 -20q35 0 70 6.5t74 25.5l23 -64q-42 -21 -84.5 -32.5
t-82.5 -11.5q-70 0 -124 25.5t-90.5 72.5t-55.5 112t-19 145zM200 873v10h75l58 -71l58 71h75v-10l-86 -121h-94z" />
    <glyph glyph-name="ccaron" unicode="&#x10d;" horiz-adv-x="463" 
d="M54 241q0 57 14 104t41 80.5t68 52.5t95 19q35 0 74 -10.5t68 -25.5l-22 -61q-20 9 -52.5 18t-64.5 9q-35 0 -61 -15.5t-43 -41t-25 -59.5t-8 -70t8.5 -70t25.5 -59.5t42.5 -41t60.5 -15.5q32 0 64.5 9t52.5 18l22 -61q-29 -15 -68 -25.5t-74 -10.5q-54 0 -95 19
t-68 52.5t-41 80.5t-14 104zM130 700v10h75l58 -84l58 84h75v-10l-86 -121h-94z" />
    <glyph glyph-name="Dcaron" unicode="&#x10e;" horiz-adv-x="652" 
d="M96 680h172q87 0 147.5 -22t99 -65.5t56 -107t17.5 -145.5q0 -83 -17.5 -146t-56 -106.5t-99 -65.5t-147.5 -22h-172v680zM257 74q72 0 119.5 16t75 49t38.5 83t11 118t-11 118t-38.5 83t-75 49t-119.5 16h-77v-532h77zM177 873v10h75l58 -71l58 71h75v-10l-86 -121h-94z
" />
    <glyph glyph-name="dcaron" unicode="&#x10f;" horiz-adv-x="546" 
d="M383 383q-22 22 -54 33t-66 11q-35 0 -58.5 -15.5t-38 -41t-21 -59t-6.5 -70.5t6.5 -70.5t21 -59t38 -41t58.5 -15.5q34 0 66 11t54 33v284zM465 700v-700h-58l-9 44h-2q-24 -19 -63.5 -39t-91.5 -20q-49 0 -84 20.5t-57.5 55t-33.5 81t-11 99.5q0 52 11 99t33.5 81.5
t57.5 55t84 20.5q52 0 84.5 -14.5t55.5 -34.5h2v252h82zM513 539l18 141h85v-10l-38 -141h-65v10z" />
    <glyph glyph-name="Dcroat" unicode="&#x110;" horiz-adv-x="655" 
d="M40 373h59v307h172q87 0 147.5 -22t99 -65.5t56 -107t17.5 -145.5q0 -83 -17.5 -146t-56 -106.5t-99 -65.5t-147.5 -22h-172v299h-59v74zM260 74q72 0 119.5 16t75 49t38.5 83t11 118t-11 118t-38.5 83t-75 49t-119.5 16h-77v-233h138v-74h-138v-225h77z" />
    <glyph glyph-name="dcroat" unicode="&#x111;" horiz-adv-x="546" 
d="M465 700v-75h58v-64h-58v-561h-58l-9 44h-2q-24 -19 -63.5 -39t-91.5 -20q-49 0 -84 20.5t-57.5 55t-33.5 81t-11 99.5q0 52 11 99t33.5 81.5t57.5 55t84 20.5q52 0 84.5 -14.5t55.5 -34.5h2v113h-104v64h104v75h82zM383 383q-22 22 -54 33t-66 11q-35 0 -58.5 -15.5
t-38 -41t-21 -59t-6.5 -70.5t6.5 -70.5t21 -59t38 -41t58.5 -15.5q34 0 66 11t54 33v284z" />
    <glyph glyph-name="Emacron" unicode="&#x112;" horiz-adv-x="557" 
d="M493 680v-74h-313v-222h284v-74h-284v-236h316v-74h-400v680h397zM177 777v74h243v-74h-243z" />
    <glyph glyph-name="emacron" unicode="&#x113;" horiz-adv-x="511" 
d="M133 220q0 -33 10.5 -63t30 -52.5t46 -36t58.5 -13.5q46 0 77 13t56 31l31 -61q-29 -21 -71 -37t-100 -16q-57 0 -98 21t-67.5 56t-39 82t-12.5 99q0 49 13 94.5t39 81t65 57t91 21.5q53 0 90.5 -17.5t61.5 -46.5t35 -66.5t11 -77.5q0 -18 -1.5 -37t-3.5 -32h-322z
M379 282q1 5 1 11.5v11.5q0 26 -7.5 48t-22.5 38.5t-37 26t-51 9.5q-28 0 -50 -11.5t-38 -31t-25.5 -46t-11.5 -56.5h242zM148 597v74h243v-74h-243z" />
    <glyph glyph-name="Ebreve" unicode="&#x114;" horiz-adv-x="557" 
d="M493 680v-74h-313v-222h284v-74h-284v-236h316v-74h-400v680h397zM296 838q38 0 65.5 10.5t44.5 21.5l23 -52q-11 -11 -25 -20.5t-30.5 -17.5t-36 -12.5t-41.5 -4.5t-41 4.5t-35.5 12.5t-30.5 17.5t-25 20.5l23 52q17 -11 44 -21.5t65 -10.5z" />
    <glyph glyph-name="ebreve" unicode="&#x115;" horiz-adv-x="511" 
d="M133 220q0 -33 10.5 -63t30 -52.5t46 -36t58.5 -13.5q46 0 77 13t56 31l31 -61q-29 -21 -71 -37t-100 -16q-57 0 -98 21t-67.5 56t-39 82t-12.5 99q0 49 13 94.5t39 81t65 57t91 21.5q53 0 90.5 -17.5t61.5 -46.5t35 -66.5t11 -77.5q0 -18 -1.5 -37t-3.5 -32h-322z
M379 282q1 5 1 11.5v11.5q0 26 -7.5 48t-22.5 38.5t-37 26t-51 9.5q-28 0 -50 -11.5t-38 -31t-25.5 -46t-11.5 -56.5h242zM273 654q38 0 65.5 10.5t44.5 21.5l23 -52q-11 -11 -25 -20.5t-30.5 -17.5t-36 -12.5t-41.5 -4.5t-41 4.5t-35.5 12.5t-30.5 17.5t-25 20.5l23 52
q17 -11 44 -21.5t65 -10.5z" />
    <glyph glyph-name="Edotaccent" unicode="&#x116;" horiz-adv-x="557" 
d="M493 680v-74h-313v-222h284v-74h-284v-236h316v-74h-400v680h397zM246 816q0 25 14 40t38 15q25 0 39 -15t14 -40q0 -26 -14 -40.5t-39 -14.5q-24 0 -38 14.5t-14 40.5z" />
    <glyph glyph-name="edotaccent" unicode="&#x117;" horiz-adv-x="511" 
d="M133 220q0 -33 10.5 -63t30 -52.5t46 -36t58.5 -13.5q46 0 77 13t56 31l31 -61q-29 -21 -71 -37t-100 -16q-57 0 -98 21t-67.5 56t-39 82t-12.5 99q0 49 13 94.5t39 81t65 57t91 21.5q53 0 90.5 -17.5t61.5 -46.5t35 -66.5t11 -77.5q0 -18 -1.5 -37t-3.5 -32h-322z
M379 282q1 5 1 11.5v11.5q0 26 -7.5 48t-22.5 38.5t-37 26t-51 9.5q-28 0 -50 -11.5t-38 -31t-25.5 -46t-11.5 -56.5h242zM217 634q0 25 14 40t38 15q25 0 39 -15t14 -40q0 -26 -14 -40.5t-39 -14.5q-24 0 -38 14.5t-14 40.5z" />
    <glyph glyph-name="Eogonek" unicode="&#x118;" horiz-adv-x="557" 
d="M419 -213q-18 0 -35.5 5.5t-31 16.5t-21.5 29t-8 44q0 18 5.5 34t15.5 30.5t23.5 28t30.5 25.5h-302v680h397v-74h-313v-222h284v-74h-284v-236h316v-74q-26 -12 -45 -24t-31.5 -25t-18.5 -26t-6 -26q0 -21 11 -32t32 -11q17 0 30.5 7t24.5 14l8 -62q-13 -10 -34.5 -19
t-47.5 -9z" />
    <glyph glyph-name="eogonek" unicode="&#x119;" horiz-adv-x="511" 
d="M300 -13q-7 -1 -14.5 -1.5t-14.5 -0.5q-57 0 -98 21t-67.5 56t-39 82t-12.5 99q0 49 13 94.5t39 81t65 57t91 21.5q53 0 90.5 -17.5t61.5 -46.5t35 -66.5t11 -77.5q0 -18 -1.5 -37t-3.5 -32h-322q0 -33 10.5 -63t30 -52.5t46 -36t58.5 -13.5q46 0 77 13t56 31l31 -61
q-5 -4 -11 -7.5t-12 -7.5q-43 -25 -66.5 -58.5t-23.5 -65.5q0 -43 43 -43q17 0 30.5 7t24.5 14l8 -62q-13 -10 -34.5 -19t-47.5 -9q-18 0 -35.5 5.5t-31 16.5t-21.5 29t-8 44t11 53t32 50v2zM379 282q1 5 1 11.5v11.5q0 26 -7.5 48t-22.5 38.5t-37 26t-51 9.5
q-28 0 -50 -11.5t-38 -31t-25.5 -46t-11.5 -56.5h242z" />
    <glyph glyph-name="Ecaron" unicode="&#x11a;" horiz-adv-x="557" 
d="M493 680v-74h-313v-222h284v-74h-284v-236h316v-74h-400v680h397zM165 873v10h75l58 -71l58 71h75v-10l-86 -121h-94z" />
    <glyph glyph-name="ecaron" unicode="&#x11b;" horiz-adv-x="511" 
d="M133 220q0 -33 10.5 -63t30 -52.5t46 -36t58.5 -13.5q46 0 77 13t56 31l31 -61q-29 -21 -71 -37t-100 -16q-57 0 -98 21t-67.5 56t-39 82t-12.5 99q0 49 13 94.5t39 81t65 57t91 21.5q53 0 90.5 -17.5t61.5 -46.5t35 -66.5t11 -77.5q0 -18 -1.5 -37t-3.5 -32h-322z
M379 282q1 5 1 11.5v11.5q0 26 -7.5 48t-22.5 38.5t-37 26t-51 9.5q-28 0 -50 -11.5t-38 -31t-25.5 -46t-11.5 -56.5h242zM136 700v10h75l58 -84l58 84h75v-10l-86 -121h-94z" />
    <glyph glyph-name="Gcircumflex" unicode="&#x11c;" horiz-adv-x="625" 
d="M554 334v-279q-19 -14 -43 -27t-51.5 -22.5t-57.5 -15t-60 -5.5q-73 0 -125.5 26.5t-86.5 73.5t-50.5 112.5t-16.5 142.5q0 78 16.5 143t51 112.5t89 73.5t131.5 26q65 0 114 -20.5t87 -44.5l-30 -64q-38 23 -83.5 38t-87.5 15q-54 0 -92 -19.5t-62.5 -56t-35.5 -88
t-11 -115.5q0 -60 10 -111t33 -88.5t59.5 -58.5t89.5 -21q38 0 70 6.5t58 25.5v167l-124 20v54h208zM473 762v-10h-75l-58 71l-58 -71h-75v10l86 121h94z" />
    <glyph glyph-name="gcircumflex" unicode="&#x11d;" horiz-adv-x="546" 
d="M383 383q-22 22 -54.5 33t-65.5 11q-35 0 -59 -15t-38.5 -40.5t-20.5 -58.5t-6 -70t6 -70.5t20.5 -58.5t38.5 -40t59 -15q33 0 65.5 10.5t54.5 33.5v280zM465 -6q0 -46 -13.5 -84t-39.5 -65.5t-63.5 -42.5t-84.5 -15q-51 0 -89.5 9.5t-71.5 25.5l22 60q30 -14 65 -20.5
t74 -6.5q54 0 86.5 33.5t32.5 96.5v52h-2q-23 -19 -55.5 -34t-83.5 -15q-49 0 -84 20t-58 55t-34 81t-11 99q0 52 11 98.5t34 81t58 54.5t84 20q26 0 49 -5.5t42.5 -14.5t35 -19.5t26.5 -19.5h2l11 44h57v-488zM414 589v-10h-75l-58 84l-58 -84h-75v10l86 121h94z" />
    <glyph glyph-name="Gbreve" unicode="&#x11e;" horiz-adv-x="625" 
d="M554 334v-279q-19 -14 -43 -27t-51.5 -22.5t-57.5 -15t-60 -5.5q-73 0 -125.5 26.5t-86.5 73.5t-50.5 112.5t-16.5 142.5q0 78 16.5 143t51 112.5t89 73.5t131.5 26q65 0 114 -20.5t87 -44.5l-30 -64q-38 23 -83.5 38t-87.5 15q-54 0 -92 -19.5t-62.5 -56t-35.5 -88
t-11 -115.5q0 -60 10 -111t33 -88.5t59.5 -58.5t89.5 -21q38 0 70 6.5t58 25.5v167l-124 20v54h208zM342 838q38 0 65.5 10.5t44.5 21.5l23 -52q-11 -11 -25 -20.5t-30.5 -17.5t-36 -12.5t-41.5 -4.5t-41 4.5t-35.5 12.5t-30.5 17.5t-25 20.5l23 52q17 -11 44 -21.5
t65 -10.5z" />
    <glyph glyph-name="gbreve" unicode="&#x11f;" horiz-adv-x="546" 
d="M383 383q-22 22 -54.5 33t-65.5 11q-35 0 -59 -15t-38.5 -40.5t-20.5 -58.5t-6 -70t6 -70.5t20.5 -58.5t38.5 -40t59 -15q33 0 65.5 10.5t54.5 33.5v280zM465 -6q0 -46 -13.5 -84t-39.5 -65.5t-63.5 -42.5t-84.5 -15q-51 0 -89.5 9.5t-71.5 25.5l22 60q30 -14 65 -20.5
t74 -6.5q54 0 86.5 33.5t32.5 96.5v52h-2q-23 -19 -55.5 -34t-83.5 -15q-49 0 -84 20t-58 55t-34 81t-11 99q0 52 11 98.5t34 81t58 54.5t84 20q26 0 49 -5.5t42.5 -14.5t35 -19.5t26.5 -19.5h2l11 44h57v-488zM281 654q38 0 65.5 10.5t44.5 21.5l23 -52q-11 -11 -25 -20.5
t-30.5 -17.5t-36 -12.5t-41.5 -4.5t-41 4.5t-35.5 12.5t-30.5 17.5t-25 20.5l23 52q17 -11 44 -21.5t65 -10.5z" />
    <glyph glyph-name="Gdotaccent" unicode="&#x120;" horiz-adv-x="625" 
d="M554 334v-279q-19 -14 -43 -27t-51.5 -22.5t-57.5 -15t-60 -5.5q-73 0 -125.5 26.5t-86.5 73.5t-50.5 112.5t-16.5 142.5q0 78 16.5 143t51 112.5t89 73.5t131.5 26q65 0 114 -20.5t87 -44.5l-30 -64q-38 23 -83.5 38t-87.5 15q-54 0 -92 -19.5t-62.5 -56t-35.5 -88
t-11 -115.5q0 -60 10 -111t33 -88.5t59.5 -58.5t89.5 -21q38 0 70 6.5t58 25.5v167l-124 20v54h208zM288 816q0 25 14 40t38 15q25 0 39 -15t14 -40q0 -26 -14 -40.5t-39 -14.5q-24 0 -38 14.5t-14 40.5z" />
    <glyph glyph-name="gdotaccent" unicode="&#x121;" horiz-adv-x="546" 
d="M383 383q-22 22 -54.5 33t-65.5 11q-35 0 -59 -15t-38.5 -40.5t-20.5 -58.5t-6 -70t6 -70.5t20.5 -58.5t38.5 -40t59 -15q33 0 65.5 10.5t54.5 33.5v280zM465 -6q0 -46 -13.5 -84t-39.5 -65.5t-63.5 -42.5t-84.5 -15q-51 0 -89.5 9.5t-71.5 25.5l22 60q30 -14 65 -20.5
t74 -6.5q54 0 86.5 33.5t32.5 96.5v52h-2q-23 -19 -55.5 -34t-83.5 -15q-49 0 -84 20t-58 55t-34 81t-11 99q0 52 11 98.5t34 81t58 54.5t84 20q26 0 49 -5.5t42.5 -14.5t35 -19.5t26.5 -19.5h2l11 44h57v-488zM229 634q0 25 14 40t38 15q25 0 39 -15t14 -40
q0 -26 -14 -40.5t-39 -14.5q-24 0 -38 14.5t-14 40.5z" />
    <glyph glyph-name="Gcommaaccent" unicode="&#x122;" horiz-adv-x="625" 
d="M554 334v-279q-19 -14 -43 -27t-51.5 -22.5t-57.5 -15t-60 -5.5q-73 0 -125.5 26.5t-86.5 73.5t-50.5 112.5t-16.5 142.5q0 78 16.5 143t51 112.5t89 73.5t131.5 26q65 0 114 -20.5t87 -44.5l-30 -64q-38 23 -83.5 38t-87.5 15q-54 0 -92 -19.5t-62.5 -56t-35.5 -88
t-11 -115.5q0 -60 10 -111t33 -88.5t59.5 -58.5t89.5 -21q38 0 70 6.5t58 25.5v167l-124 20v54h208zM281 -208l18 141h85v-10l-38 -141h-65v10z" />
    <glyph glyph-name="gcommaaccent" unicode="&#x123;" horiz-adv-x="546" 
d="M383 383q-22 22 -54.5 33t-65.5 11q-35 0 -59 -15t-38.5 -40.5t-20.5 -58.5t-6 -70t6 -70.5t20.5 -58.5t38.5 -40t59 -15q33 0 65.5 10.5t54.5 33.5v280zM465 -6q0 -46 -13.5 -84t-39.5 -65.5t-63.5 -42.5t-84.5 -15q-51 0 -89.5 9.5t-71.5 25.5l22 60q30 -14 65 -20.5
t74 -6.5q54 0 86.5 33.5t32.5 96.5v52h-2q-23 -19 -55.5 -34t-83.5 -15q-49 0 -84 20t-58 55t-34 81t-11 99q0 52 11 98.5t34 81t58 54.5t84 20q26 0 49 -5.5t42.5 -14.5t35 -19.5t26.5 -19.5h2l11 44h57v-488zM343 710l-18 -141h-85v10l38 141h65v-10z" />
    <glyph glyph-name="Hcircumflex" unicode="&#x124;" horiz-adv-x="670" 
d="M490 310h-310v-310h-84v680h84v-296h310v296h84v-680h-84v310zM468 762v-10h-75l-58 71l-58 -71h-75v10l86 121h94z" />
    <glyph glyph-name="hcircumflex" unicode="&#x125;" horiz-adv-x="546" 
d="M387 0v300q0 63 -24.5 95t-75.5 32q-17 0 -35 -4t-35 -10t-31 -13.5t-23 -14.5v-385h-82v700h82v-251h2q10 7 25 15.5t33 15.5t39.5 12t45.5 5q75 0 118 -45.5t43 -137.5v-314h-82zM414 762v-10h-75l-58 71l-58 -71h-75v10l86 121h94z" />
    <glyph glyph-name="Hbar" unicode="&#x126;" horiz-adv-x="672" 
d="M575 512v-512h-84v310h-310v-310h-84v512h-47v74h47v94h84v-94h310v94h84v-94h48v-74h-48zM491 384v128h-310v-128h310z" />
    <glyph glyph-name="hbar" unicode="&#x127;" horiz-adv-x="546" 
d="M387 0v300q0 63 -24.5 95t-75.5 32q-17 0 -35 -4t-35 -10t-31 -13.5t-23 -14.5v-385h-82v562h-58v64h58v74h82v-74h104v-64h-104v-113h2q10 7 25 15.5t33 15.5t39.5 12t45.5 5q75 0 118 -45.5t43 -137.5v-314h-82z" />
    <glyph glyph-name="Itilde" unicode="&#x128;" horiz-adv-x="276" 
d="M180 0h-84v680h84v-680zM-6 817q13 20 33 38.5t50 18.5q15 0 30.5 -6.5t30.5 -14t30 -13.5t29 -6q15 0 28.5 9t25.5 26l25 -50q-17 -25 -36.5 -41t-46.5 -16q-15 0 -30.5 6t-30.5 13.5t-30 14t-30 6.5q-14 0 -28 -9.5t-25 -25.5z" />
    <glyph glyph-name="itilde" unicode="&#x129;" horiz-adv-x="244" 
d="M81 0v482h82v-482h-82zM-17 634q13 20 33 38.5t50 18.5q15 0 30.5 -6.5t30.5 -14t30 -13.5t29 -6q15 0 28.5 9t25.5 26l25 -50q-17 -25 -36.5 -41t-46.5 -16q-15 0 -30.5 6t-30.5 13.5t-30 14t-30 6.5q-14 0 -28 -9.5t-25 -25.5z" />
    <glyph glyph-name="Imacron" unicode="&#x12a;" horiz-adv-x="276" 
d="M180 0h-84v680h84v-680zM13 777v74h243v-74h-243z" />
    <glyph glyph-name="imacron" unicode="&#x12b;" horiz-adv-x="244" 
d="M81 0v482h82v-482h-82zM3 597v74h243v-74h-243z" />
    <glyph glyph-name="Ibreve" unicode="&#x12c;" horiz-adv-x="276" 
d="M180 0h-84v680h84v-680zM133 838q38 0 65.5 10.5t44.5 21.5l23 -52q-11 -11 -25 -20.5t-30.5 -17.5t-36 -12.5t-41.5 -4.5t-41 4.5t-35.5 12.5t-30.5 17.5t-25 20.5l23 52q17 -11 44 -21.5t65 -10.5z" />
    <glyph glyph-name="ibreve" unicode="&#x12d;" horiz-adv-x="244" 
d="M81 0v482h82v-482h-82zM124 654q38 0 65.5 10.5t44.5 21.5l23 -52q-11 -11 -25 -20.5t-30.5 -17.5t-36 -12.5t-41.5 -4.5t-41 4.5t-35.5 12.5t-30.5 17.5t-25 20.5l23 52q17 -11 44 -21.5t65 -10.5z" />
    <glyph glyph-name="Iogonek" unicode="&#x12e;" horiz-adv-x="276" 
d="M115 -213q-18 0 -35.5 5.5t-31 16.5t-21.5 29t-8 44q0 37 21.5 65.5t55.5 53.5v679h84v-680q-48 -26 -68.5 -50.5t-20.5 -50.5q0 -21 11 -32t32 -11q17 0 30.5 7t24.5 14l8 -62q-13 -10 -34.5 -19t-47.5 -9z" />
    <glyph glyph-name="iogonek" unicode="&#x12f;" horiz-adv-x="245" 
d="M99 -213q-18 0 -35.5 5.5t-31 16.5t-21.5 29t-8 44q0 38 22 67t57 54v479h82v-482q-47 -26 -68 -50.5t-21 -50.5q0 -21 11 -32t32 -11q17 0 30.5 7t24.5 14l8 -62q-13 -10 -34.5 -19t-47.5 -9zM71 633q0 25 14 40t38 15q25 0 39 -15t14 -40q0 -26 -14 -40.5t-39 -14.5
q-24 0 -38 14.5t-14 40.5z" />
    <glyph glyph-name="Idotaccent" unicode="&#x130;" horiz-adv-x="276" 
d="M180 0h-84v680h84v-680zM83 816q0 25 14 40t38 15q25 0 39 -15t14 -40q0 -26 -14 -40.5t-39 -14.5q-24 0 -38 14.5t-14 40.5z" />
    <glyph glyph-name="dotlessi" unicode="&#x131;" horiz-adv-x="244" 
d="M81 0v482h82v-482h-82z" />
    <glyph glyph-name="IJ" unicode="&#x132;" horiz-adv-x="720" 
d="M180 0h-84v680h84v-680zM343 113q20 -18 43.5 -35t62.5 -17q22 0 40 7t30.5 24t19 45.5t6.5 71.5v471h84v-478q0 -113 -48.5 -165t-131.5 -52q-46 0 -84.5 22.5t-63.5 50.5z" />
    <glyph glyph-name="ij" unicode="&#x133;" horiz-adv-x="488" 
d="M81 0v482h82v-482h-82zM70 633q0 25 14 40t38 15q25 0 39 -15t14 -40q0 -26 -14 -40.5t-39 -14.5q-24 0 -38 14.5t-14 40.5zM407 482v-542q0 -36 -8 -64t-24.5 -48t-41 -30.5t-57.5 -10.5q-13 0 -31 2t-32 5v65q11 -2 27.5 -3t27.5 -1q57 0 57 83v544h82zM314 633
q0 25 14 40t38 15q25 0 39 -15t14 -40q0 -26 -14 -40.5t-39 -14.5q-24 0 -38 14.5t-14 40.5z" />
    <glyph glyph-name="Jcircumflex" unicode="&#x134;" horiz-adv-x="444" 
d="M67 113q20 -18 43.5 -35t62.5 -17q22 0 40 7t30.5 24t19 45.5t6.5 71.5v471h84v-478q0 -113 -48.5 -165t-131.5 -52q-46 0 -84.5 22.5t-63.5 50.5zM449 762v-10h-75l-58 71l-58 -71h-75v10l86 121h94z" />
    <glyph glyph-name="jcircumflex" unicode="&#x135;" horiz-adv-x="244" 
d="M163 482v-542q0 -36 -8 -64t-24.5 -48t-41 -30.5t-57.5 -10.5q-13 0 -31 2t-32 5v65q11 -2 27.5 -3t27.5 -1q57 0 57 83v544h82zM254 589v-10h-75l-58 84l-58 -84h-75v10l86 121h94z" />
    <glyph glyph-name="Kcommaaccent" unicode="&#x136;" horiz-adv-x="571" 
d="M180 311v-311h-84v680h84v-335h2l258 335h97v-10l-270 -337l282 -323v-10h-105l-262 311h-2zM239 -208l18 141h85v-10l-38 -141h-65v10z" />
    <glyph glyph-name="kcommaaccent" unicode="&#x137;" horiz-adv-x="483" 
d="M163 224v-224h-82v700h82v-442h2l189 224h95v-7l-205 -232l212 -235v-8h-101l-190 224h-2zM179 -208l18 141h85v-10l-38 -141h-65v10z" />
    <glyph glyph-name="kgreenlandic" unicode="&#x138;" horiz-adv-x="483" 
d="M163 221v-221h-82v482h82v-227h2l189 227h95v-7l-205 -235l212 -232v-8h-101l-190 221h-2z" />
    <glyph glyph-name="Lacute" unicode="&#x139;" horiz-adv-x="500" 
d="M180 680v-606h286v-74h-370v680h84zM249 873l-79 -121h-71v10l60 121h90v-10z" />
    <glyph glyph-name="lacute" unicode="&#x13a;" horiz-adv-x="252" 
d="M85 0v700h82v-700h-82zM236 873l-79 -121h-71v10l60 121h90v-10z" />
    <glyph glyph-name="Lcommaaccent" unicode="&#x13b;" horiz-adv-x="500" 
d="M180 680v-606h286v-74h-370v680h84zM225 -208l18 141h85v-10l-38 -141h-65v10z" />
    <glyph glyph-name="lcommaaccent" unicode="&#x13c;" horiz-adv-x="252" 
d="M85 0v700h82v-700h-82zM65 -208l18 141h85v-10l-38 -141h-65v10z" />
    <glyph glyph-name="Lcaron" unicode="&#x13d;" horiz-adv-x="500" 
d="M180 680v-606h286v-74h-370v680h84zM275 539l18 141h85v-10l-38 -141h-65v10z" />
    <glyph glyph-name="lcaron" unicode="&#x13e;" horiz-adv-x="252" 
d="M85 0v700h82v-700h-82zM214 539l18 141h85v-10l-38 -141h-65v10z" />
    <glyph glyph-name="Ldot" unicode="&#x13f;" horiz-adv-x="501" 
d="M180 680v-606h286v-74h-370v680h84zM310 350q0 27 17 44.5t43 17.5q27 0 43.5 -17.5t16.5 -44.5q0 -28 -16.5 -45.5t-43.5 -17.5q-26 0 -43 17.5t-17 45.5z" />
    <glyph glyph-name="ldot" unicode="&#x140;" horiz-adv-x="315" 
d="M85 0v700h82v-700h-82zM224 350q0 27 17 44.5t43 17.5q27 0 43.5 -17.5t16.5 -44.5q0 -28 -16.5 -45.5t-43.5 -17.5q-26 0 -43 17.5t-17 45.5z" />
    <glyph glyph-name="Lslash" unicode="&#x141;" horiz-adv-x="504" 
d="M184 680v-259l86 52h9v-77l-95 -57v-265h286v-74h-370v288l-71 -42h-9v77l80 48v309h84z" />
    <glyph glyph-name="lslash" unicode="&#x142;" horiz-adv-x="311" 
d="M107 0v276l-70 -40h-9v77l79 45v342h82v-292l82 47h9v-77l-91 -53v-325h-82z" />
    <glyph glyph-name="Nacute" unicode="&#x143;" horiz-adv-x="678" 
d="M506 126l-8 127v427h84v-680h-88l-320 554h-2l8 -127v-427h-84v680h88l320 -554h2zM440 873l-79 -121h-71v10l60 121h90v-10z" />
    <glyph glyph-name="nacute" unicode="&#x144;" horiz-adv-x="546" 
d="M139 482l10 -44h2q10 8 26.5 18t37.5 19t45 15.5t48 6.5q75 0 118 -45.5t43 -137.5v-314h-82v300q0 63 -24.5 95t-75.5 32q-17 0 -35 -4t-35 -10.5t-31 -14t-23 -14.5v-384h-82v482h58zM388 700l-79 -121h-71v10l59 121h91v-10z" />
    <glyph glyph-name="Ncommaaccent" unicode="&#x145;" horiz-adv-x="678" 
d="M506 126l-8 127v427h84v-680h-88l-320 554h-2l8 -127v-427h-84v680h88l320 -554h2zM277 -208l18 141h85v-10l-38 -141h-65v10z" />
    <glyph glyph-name="ncommaaccent" unicode="&#x146;" horiz-adv-x="546" 
d="M139 482l10 -44h2q10 8 26.5 18t37.5 19t45 15.5t48 6.5q75 0 118 -45.5t43 -137.5v-314h-82v300q0 63 -24.5 95t-75.5 32q-17 0 -35 -4t-35 -10.5t-31 -14t-23 -14.5v-384h-82v482h58zM210 -208l18 141h85v-10l-38 -141h-65v10z" />
    <glyph glyph-name="Ncaron" unicode="&#x147;" horiz-adv-x="678" 
d="M506 126l-8 127v427h84v-680h-88l-320 554h-2l8 -127v-427h-84v680h88l320 -554h2zM203 873v10h75l58 -71l58 71h75v-10l-86 -121h-94z" />
    <glyph glyph-name="ncaron" unicode="&#x148;" horiz-adv-x="546" 
d="M139 482l10 -44h2q10 8 26.5 18t37.5 19t45 15.5t48 6.5q75 0 118 -45.5t43 -137.5v-314h-82v300q0 63 -24.5 95t-75.5 32q-17 0 -35 -4t-35 -10.5t-31 -14t-23 -14.5v-384h-82v482h58zM144 700v10h75l58 -84l58 84h75v-10l-86 -121h-94z" />
    <glyph glyph-name="napostrophe" unicode="&#x149;" horiz-adv-x="546" 
d="M139 482l10 -44h2q10 8 26.5 18t37.5 19t45 15.5t48 6.5q75 0 118 -45.5t43 -137.5v-314h-82v300q0 63 -24.5 95t-75.5 32q-17 0 -35 -4t-35 -10.5t-31 -14t-23 -14.5v-384h-82v482h58zM3 539l18 141h85v-10l-38 -141h-65v10z" />
    <glyph glyph-name="Eng" unicode="&#x14a;" horiz-adv-x="678" 
d="M506 129l-8 124v427h84v-740q0 -36 -8 -64t-24.5 -48t-41 -30.5t-57.5 -10.5q-13 0 -31 2t-32 5v65q11 -2 27.5 -3t27.5 -1q55 0 55 83v67l-324 549h-2l8 -127v-427h-84v680h88l320 -551h2z" />
    <glyph glyph-name="eng" unicode="&#x14b;" horiz-adv-x="546" 
d="M139 482l10 -44h2q10 8 26.5 18t37.5 19t45 15.5t48 6.5q75 0 118 -45.5t43 -137.5v-374q0 -36 -8 -64t-24.5 -48t-41 -30.5t-57.5 -10.5q-13 0 -31 2t-32 5v65q11 -2 27.5 -3t27.5 -1q57 0 57 83v362q0 63 -24.5 95t-75.5 32q-17 0 -35 -4t-35 -10.5t-31 -14t-23 -14.5
v-384h-82v482h58z" />
    <glyph glyph-name="Omacron" unicode="&#x14c;" horiz-adv-x="680" 
d="M150 340q0 -58 9.5 -108.5t31.5 -88.5t58.5 -60t91.5 -22t91 22t58 60t31 88.5t9 108.5t-9 108.5t-31 88.5t-58 60t-91 22t-91.5 -22t-58.5 -60t-31.5 -88.5t-9.5 -108.5zM617 340q0 -75 -15.5 -140t-48.5 -113t-85.5 -75t-126.5 -27t-127 27t-86.5 75t-49 113t-15.5 140
t15.5 140t49 113t86.5 75t127 27t126.5 -27t85.5 -75t48.5 -113t15.5 -140zM224 777v74h243v-74h-243z" />
    <glyph glyph-name="omacron" unicode="&#x14d;" horiz-adv-x="545" 
d="M138 241q0 -37 7 -71t22.5 -59.5t41 -40.5t62.5 -15t63 15t42.5 40.5t23.5 59.5t7 71t-7 71t-23.5 59.5t-42.5 40.5t-63 15t-62.5 -15t-41 -40.5t-22.5 -59.5t-7 -71zM491 241q0 -53 -12.5 -99.5t-39 -81t-68 -55t-100.5 -20.5q-58 0 -99 20.5t-67.5 55t-38.5 81
t-12 99.5q0 52 12 99t38.5 81.5t67.5 55t99 20.5q59 0 100.5 -20.5t68 -55t39 -81.5t12.5 -99zM152 597v74h243v-74h-243z" />
    <glyph glyph-name="Obreve" unicode="&#x14e;" horiz-adv-x="680" 
d="M150 340q0 -58 9.5 -108.5t31.5 -88.5t58.5 -60t91.5 -22t91 22t58 60t31 88.5t9 108.5t-9 108.5t-31 88.5t-58 60t-91 22t-91.5 -22t-58.5 -60t-31.5 -88.5t-9.5 -108.5zM617 340q0 -75 -15.5 -140t-48.5 -113t-85.5 -75t-126.5 -27t-127 27t-86.5 75t-49 113t-15.5 140
t15.5 140t49 113t86.5 75t127 27t126.5 -27t85.5 -75t48.5 -113t15.5 -140zM344 838q38 0 65.5 10.5t44.5 21.5l23 -52q-11 -11 -25 -20.5t-30.5 -17.5t-36 -12.5t-41.5 -4.5t-41 4.5t-35.5 12.5t-30.5 17.5t-25 20.5l23 52q17 -11 44 -21.5t65 -10.5z" />
    <glyph glyph-name="obreve" unicode="&#x14f;" horiz-adv-x="545" 
d="M138 241q0 -37 7 -71t22.5 -59.5t41 -40.5t62.5 -15t63 15t42.5 40.5t23.5 59.5t7 71t-7 71t-23.5 59.5t-42.5 40.5t-63 15t-62.5 -15t-41 -40.5t-22.5 -59.5t-7 -71zM491 241q0 -53 -12.5 -99.5t-39 -81t-68 -55t-100.5 -20.5q-58 0 -99 20.5t-67.5 55t-38.5 81
t-12 99.5q0 52 12 99t38.5 81.5t67.5 55t99 20.5q59 0 100.5 -20.5t68 -55t39 -81.5t12.5 -99zM273 654q38 0 65.5 10.5t44.5 21.5l23 -52q-11 -11 -25 -20.5t-30.5 -17.5t-36 -12.5t-41.5 -4.5t-41 4.5t-35.5 12.5t-30.5 17.5t-25 20.5l23 52q17 -11 44 -21.5t65 -10.5z
" />
    <glyph glyph-name="Ohungarumlaut" unicode="&#x150;" horiz-adv-x="680" 
d="M150 340q0 -58 9.5 -108.5t31.5 -88.5t58.5 -60t91.5 -22t91 22t58 60t31 88.5t9 108.5t-9 108.5t-31 88.5t-58 60t-91 22t-91.5 -22t-58.5 -60t-31.5 -88.5t-9.5 -108.5zM617 340q0 -75 -15.5 -140t-48.5 -113t-85.5 -75t-126.5 -27t-127 27t-86.5 75t-49 113t-15.5 140
t15.5 140t49 113t86.5 75t127 27t126.5 -27t85.5 -75t48.5 -113t15.5 -140zM380 873l-78 -121h-71v10l59 121h90v-10zM535 873l-78 -121h-71v10l59 121h90v-10z" />
    <glyph glyph-name="ohungarumlaut" unicode="&#x151;" horiz-adv-x="545" 
d="M138 241q0 -37 7 -71t22.5 -59.5t41 -40.5t62.5 -15t63 15t42.5 40.5t23.5 59.5t7 71t-7 71t-23.5 59.5t-42.5 40.5t-63 15t-62.5 -15t-41 -40.5t-22.5 -59.5t-7 -71zM491 241q0 -53 -12.5 -99.5t-39 -81t-68 -55t-100.5 -20.5q-58 0 -99 20.5t-67.5 55t-38.5 81
t-12 99.5q0 52 12 99t38.5 81.5t67.5 55t99 20.5q59 0 100.5 -20.5t68 -55t39 -81.5t12.5 -99zM320 700l-78 -121h-71v10l59 121h90v-10zM475 700l-78 -121h-71v10l59 121h90v-10z" />
    <glyph glyph-name="OE" unicode="&#x152;" horiz-adv-x="899" 
d="M341 695q55 0 97 -15h397v-74h-314v-222h284v-74h-284v-236h316v-74h-399q-21 -8 -46 -11.5t-51 -3.5q-74 0 -127 27t-86.5 75t-49 113t-15.5 140t15.5 140t49 113t86.5 75t127 27zM341 61q29 0 52 4t43 13v523q-20 9 -43 13.5t-52 4.5q-55 0 -91.5 -22t-58.5 -60.5
t-31.5 -89t-9.5 -107.5t9.5 -107.5t31.5 -89t58.5 -60.5t91.5 -22z" />
    <glyph glyph-name="oe" unicode="&#x153;" horiz-adv-x="866" 
d="M488 220q0 -33 10.5 -63t30 -52.5t46 -36t58.5 -13.5q46 0 77 13t56 31l31 -61q-29 -21 -71 -37t-100 -16q-64 0 -108 28t-69 73q-25 -42 -69 -71.5t-109 -29.5q-58 0 -99 20.5t-67.5 55t-38.5 81t-12 99.5q0 52 12 99t38.5 81.5t67.5 55t99 20.5q65 0 109.5 -30.5
t69.5 -72.5q24 44 66.5 73.5t100.5 29.5q53 0 90.5 -17.5t61.5 -46.5t35 -66.5t11 -77.5q0 -18 -1.5 -37t-3.5 -32h-322zM139 241q0 -37 7 -71t22.5 -59.5t41 -40.5t62.5 -15t63 15t42.5 40.5t23.5 59.5t7 71t-7 71t-23.5 59.5t-42.5 40.5t-63 15t-62.5 -15t-41 -40.5
t-22.5 -59.5t-7 -71zM734 282q1 5 1 11.5v11.5q0 26 -7.5 48t-22.5 38.5t-37 26t-51 9.5q-28 0 -50 -11.5t-38 -31t-25.5 -46t-11.5 -56.5h242z" />
    <glyph glyph-name="Racute" unicode="&#x154;" horiz-adv-x="611" 
d="M96 0v680h235q95 0 150 -48.5t55 -144.5q0 -80 -40 -127t-109 -60l188 -284v-16h-92l-190 295h-113v-295h-84zM326 369q60 0 91.5 30.5t31.5 87.5t-31.5 88t-91.5 31h-146v-237h146zM398 873l-79 -121h-71v10l60 121h90v-10z" />
    <glyph glyph-name="racute" unicode="&#x155;" horiz-adv-x="349" 
d="M139 482l10 -51h2q10 15 23.5 27.5t29.5 21t33.5 13t37.5 4.5q13 0 25.5 -2t21.5 -5l-12 -73q-11 3 -23 4.5t-22 1.5q-40 0 -63.5 -17t-38.5 -47v-359h-82v482h58zM297 700l-79 -121h-71v10l59 121h91v-10z" />
    <glyph glyph-name="Rcommaaccent" unicode="&#x156;" horiz-adv-x="611" 
d="M96 0v680h235q95 0 150 -48.5t55 -144.5q0 -80 -40 -127t-109 -60l188 -284v-16h-92l-190 295h-113v-295h-84zM326 369q60 0 91.5 30.5t31.5 87.5t-31.5 88t-91.5 31h-146v-237h146zM237 -208l18 141h85v-10l-38 -141h-65v10z" />
    <glyph glyph-name="rcommaaccent" unicode="&#x157;" horiz-adv-x="349" 
d="M139 482l10 -51h2q10 15 23.5 27.5t29.5 21t33.5 13t37.5 4.5q13 0 25.5 -2t21.5 -5l-12 -73q-11 3 -23 4.5t-22 1.5q-40 0 -63.5 -17t-38.5 -47v-359h-82v482h58zM60 -208l18 141h85v-10l-38 -141h-65v10z" />
    <glyph glyph-name="Rcaron" unicode="&#x158;" horiz-adv-x="611" 
d="M96 0v680h235q95 0 150 -48.5t55 -144.5q0 -80 -40 -127t-109 -60l188 -284v-16h-92l-190 295h-113v-295h-84zM326 369q60 0 91.5 30.5t31.5 87.5t-31.5 88t-91.5 31h-146v-237h146zM148 873v10h75l58 -71l58 71h75v-10l-86 -121h-94z" />
    <glyph glyph-name="rcaron" unicode="&#x159;" horiz-adv-x="349" 
d="M139 482l10 -51h2q10 15 23.5 27.5t29.5 21t33.5 13t37.5 4.5q13 0 25.5 -2t21.5 -5l-12 -73q-11 3 -23 4.5t-22 1.5q-40 0 -63.5 -17t-38.5 -47v-359h-82v482h58zM63 700v10h75l58 -84l58 84h75v-10l-86 -121h-94z" />
    <glyph glyph-name="Sacute" unicode="&#x15a;" horiz-adv-x="505" 
d="M88 123q32 -29 71.5 -45.5t90.5 -16.5q52 0 84 29.5t32 85.5q0 43 -24 69.5t-78 49.5l-57 24q-63 27 -103.5 71t-40.5 111q0 39 13.5 74.5t40 62t64 42t85.5 15.5q53 0 95.5 -14.5t76.5 -37.5l-36 -66q-32 20 -67 31t-73 11q-56 0 -84 -33t-28 -79q0 -34 18 -60t68 -47
l57 -25q37 -16 66.5 -34t50.5 -41.5t32 -52.5t11 -66q0 -43 -14.5 -79t-41 -62t-64 -40.5t-83.5 -14.5q-64 0 -112.5 20t-88.5 52zM372 873l-79 -121h-71v10l60 121h90v-10z" />
    <glyph glyph-name="sacute" unicode="&#x15b;" horiz-adv-x="430" 
d="M77 96q29 -19 61 -30t70 -11q46 0 67.5 21.5t21.5 52.5q0 26 -16 41.5t-49 26.5l-54 18q-26 9 -48.5 20.5t-39 28t-25.5 38t-9 49.5q0 30 11.5 57t33 46.5t52.5 31t69 11.5q46 0 81 -9t69 -25l-27 -66q-30 15 -60.5 22.5t-59.5 7.5q-45 0 -65 -22.5t-20 -51.5
q0 -24 14.5 -40t48.5 -27l53 -16q27 -8 49.5 -20t39.5 -29t26.5 -39.5t9.5 -51.5q0 -31 -11.5 -57.5t-33.5 -46t-53 -30.5t-70 -11q-29 0 -52 3t-42.5 9t-36.5 14.5t-34 19.5l29 65v0zM332 700l-79 -121h-71v10l59 121h91v-10z" />
    <glyph glyph-name="Scircumflex" unicode="&#x15c;" horiz-adv-x="505" 
d="M88 123q32 -29 71.5 -45.5t90.5 -16.5q52 0 84 29.5t32 85.5q0 43 -24 69.5t-78 49.5l-57 24q-63 27 -103.5 71t-40.5 111q0 39 13.5 74.5t40 62t64 42t85.5 15.5q53 0 95.5 -14.5t76.5 -37.5l-36 -66q-32 20 -67 31t-73 11q-56 0 -84 -33t-28 -79q0 -34 18 -60t68 -47
l57 -25q37 -16 66.5 -34t50.5 -41.5t32 -52.5t11 -66q0 -43 -14.5 -79t-41 -62t-64 -40.5t-83.5 -14.5q-64 0 -112.5 20t-88.5 52zM396 762v-10h-75l-58 71l-58 -71h-75v10l86 121h94z" />
    <glyph glyph-name="scircumflex" unicode="&#x15d;" horiz-adv-x="430" 
d="M77 96q29 -19 61 -30t70 -11q46 0 67.5 21.5t21.5 52.5q0 26 -16 41.5t-49 26.5l-54 18q-26 9 -48.5 20.5t-39 28t-25.5 38t-9 49.5q0 30 11.5 57t33 46.5t52.5 31t69 11.5q46 0 81 -9t69 -25l-27 -66q-30 15 -60.5 22.5t-59.5 7.5q-45 0 -65 -22.5t-20 -51.5
q0 -24 14.5 -40t48.5 -27l53 -16q27 -8 49.5 -20t39.5 -29t26.5 -39.5t9.5 -51.5q0 -31 -11.5 -57.5t-33.5 -46t-53 -30.5t-70 -11q-29 0 -52 3t-42.5 9t-36.5 14.5t-34 19.5l29 65v0zM357 589v-10h-75l-58 84l-58 -84h-75v10l86 121h94z" />
    <glyph glyph-name="Scedilla" unicode="&#x15e;" horiz-adv-x="506" 
d="M88 123q32 -29 71.5 -45.5t90.5 -16.5q52 0 84 29.5t32 85.5q0 43 -24 69.5t-78 49.5l-57 24q-63 27 -103.5 71t-40.5 111q0 39 13.5 74.5t40 62t64 42t85.5 15.5q53 0 95.5 -14.5t76.5 -37.5l-36 -66q-32 20 -67 31t-73 11q-56 0 -84 -33t-28 -79q0 -34 18 -60t68 -47
l57 -25q37 -16 66.5 -34t50.5 -41.5t32 -52.5t11 -66q0 -40 -12.5 -73.5t-35 -59t-55 -41.5t-71.5 -20l-13 -35q29 -5 47 -23t18 -49q0 -51 -31 -72t-77 -21q-23 0 -41 4.5t-28 9.5l12 55q9 -4 22 -7.5t27 -3.5q22 0 33 7.5t11 27.5q0 11 -4.5 18.5t-12 11.5t-17.5 5.5
t-22 1.5l-5 10l19 60q-52 5 -92.5 23t-75.5 47z" />
    <glyph glyph-name="scedilla" unicode="&#x15f;" horiz-adv-x="431" 
d="M77 96q29 -19 61 -30t70 -11q46 0 67.5 21.5t21.5 52.5q0 26 -16 41.5t-49 26.5l-54 18q-26 9 -48.5 20.5t-39 28t-25.5 38t-9 49.5q0 30 11.5 57t33 46.5t52.5 31t69 11.5q46 0 81 -9t69 -25l-27 -66q-30 15 -60.5 22.5t-59.5 7.5q-45 0 -65 -22.5t-20 -51.5
q0 -24 14.5 -40t48.5 -27l53 -16q27 -8 49.5 -20t39.5 -29t26.5 -39.5t9.5 -51.5q0 -56 -36.5 -95t-100.5 -48l-13 -35q29 -5 47.5 -23t18.5 -49q0 -51 -31 -72t-78 -21q-22 0 -40 4.5t-29 9.5l13 55q9 -4 22 -7.5t27 -3.5q21 0 32.5 7.5t11.5 27.5q0 11 -4.5 18.5t-12 11.5
t-17.5 5.5t-22 1.5l-6 10l20 59q-45 3 -75.5 15t-59.5 30l29 65v0z" />
    <glyph glyph-name="Scaron" unicode="&#x160;" horiz-adv-x="505" 
d="M88 123q32 -29 71.5 -45.5t90.5 -16.5q52 0 84 29.5t32 85.5q0 43 -24 69.5t-78 49.5l-57 24q-63 27 -103.5 71t-40.5 111q0 39 13.5 74.5t40 62t64 42t85.5 15.5q53 0 95.5 -14.5t76.5 -37.5l-36 -66q-32 20 -67 31t-73 11q-56 0 -84 -33t-28 -79q0 -34 18 -60t68 -47
l57 -25q37 -16 66.5 -34t50.5 -41.5t32 -52.5t11 -66q0 -43 -14.5 -79t-41 -62t-64 -40.5t-83.5 -14.5q-64 0 -112.5 20t-88.5 52zM132 873v10h75l58 -71l58 71h75v-10l-86 -121h-94z" />
    <glyph glyph-name="scaron" unicode="&#x161;" horiz-adv-x="430" 
d="M77 96q29 -19 61 -30t70 -11q46 0 67.5 21.5t21.5 52.5q0 26 -16 41.5t-49 26.5l-54 18q-26 9 -48.5 20.5t-39 28t-25.5 38t-9 49.5q0 30 11.5 57t33 46.5t52.5 31t69 11.5q46 0 81 -9t69 -25l-27 -66q-30 15 -60.5 22.5t-59.5 7.5q-45 0 -65 -22.5t-20 -51.5
q0 -24 14.5 -40t48.5 -27l53 -16q27 -8 49.5 -20t39.5 -29t26.5 -39.5t9.5 -51.5q0 -31 -11.5 -57.5t-33.5 -46t-53 -30.5t-70 -11q-29 0 -52 3t-42.5 9t-36.5 14.5t-34 19.5l29 65v0zM85 700v10h75l58 -84l58 84h75v-10l-86 -121h-94z" />
    <glyph glyph-name="Tcommaaccent" unicode="&#x162;" horiz-adv-x="523" 
d="M487 680v-74h-183v-606h-12l-21 -48q29 -5 47 -23t18 -49q0 -51 -31 -72t-77 -21q-23 0 -40.5 4.5t-28.5 9.5l13 55q9 -4 21.5 -7.5t26.5 -3.5q22 0 33.5 7.5t11.5 27.5q0 11 -4.5 18.5t-12 11.5t-18 5.5t-22.5 1.5l-5 10l27 73h-12v606h-182v74h451z" />
    <glyph glyph-name="tcommaaccent" unicode="&#x163;" horiz-adv-x="367" 
d="M205 594v-112h128v-69h-128v-288q0 -40 17.5 -55t40.5 -15q19 0 39.5 5t30.5 7v-68q-13 -4 -34.5 -8.5t-47.5 -5.5l-13 -33q29 -5 47 -23t18 -49q0 -51 -31 -72t-77 -21q-23 0 -40.5 4.5t-28.5 9.5l13 55q9 -4 21.5 -7.5t26.5 -3.5q20 0 32.5 7.5t12.5 27.5
q0 11 -4.5 18.5t-12 11.5t-18 5.5t-22.5 1.5l-5 10l21 68q-32 12 -50 42t-18 79v297h-89v50l89 19v112h82z" />
    <glyph glyph-name="Tcaron" unicode="&#x164;" horiz-adv-x="523" 
d="M487 680v-74h-183v-606h-86v606h-182v74h451zM129 873v10h75l58 -71l58 71h75v-10l-86 -121h-94z" />
    <glyph glyph-name="tcaron" unicode="&#x165;" horiz-adv-x="365" 
d="M204 594v-112h128v-67h-128v-290q0 -40 17.5 -55t40.5 -15q19 0 39.5 5t30.5 7v-68q-14 -4 -37 -9t-50 -5q-55 0 -89 32t-34 99v299h-89v48l89 19v112h82zM279 539l18 141h85v-10l-38 -141h-65v10z" />
    <glyph glyph-name="Tbar" unicode="&#x166;" horiz-adv-x="523" 
d="M487 680v-74h-183v-199h117v-73h-117v-334h-86v334h-114v73h114v199h-182v74h451z" />
    <glyph glyph-name="tbar" unicode="&#x167;" horiz-adv-x="367" 
d="M206 594v-112h128v-69h-128v-110h95v-64h-95v-114q0 -40 17.5 -55t40.5 -15q19 0 39.5 5t30.5 7v-68q-14 -4 -37 -9t-50 -5q-55 0 -89 32t-34 99v123h-67v64h67v110h-89v50l89 19v112h82z" />
    <glyph glyph-name="Utilde" unicode="&#x168;" horiz-adv-x="662" 
d="M174 680v-428q0 -44 9 -79.5t28.5 -60t49.5 -38t71 -13.5t70.5 13.5t48.5 38t28 60t9 79.5v428h84v-439q0 -120 -58 -188t-182 -68q-126 0 -184 68t-58 189v438h84zM187 817q13 20 33 38.5t50 18.5q15 0 30.5 -6.5t30.5 -14t30 -13.5t29 -6q15 0 28.5 9t25.5 26l25 -50
q-17 -25 -36.5 -41t-46.5 -16q-15 0 -30.5 6t-30.5 13.5t-30 14t-30 6.5q-14 0 -28 -9.5t-25 -25.5z" />
    <glyph glyph-name="utilde" unicode="&#x169;" horiz-adv-x="540" 
d="M159 482v-300q0 -63 22.5 -95t73.5 -32q17 0 35 4t34 10.5t30 14t23 14.5v384h82v-482h-58l-9 44h-2q-11 -8 -27.5 -18t-36.5 -19t-43.5 -15.5t-47.5 -6.5q-75 0 -116.5 45.5t-41.5 137.5v314h82zM127 634q13 20 33 38.5t50 18.5q15 0 30.5 -6.5t30.5 -14t30 -13.5t29 -6
q15 0 28.5 9t25.5 26l25 -50q-17 -25 -36.5 -41t-46.5 -16q-15 0 -30.5 6t-30.5 13.5t-30 14t-30 6.5q-14 0 -28 -9.5t-25 -25.5z" />
    <glyph glyph-name="Umacron" unicode="&#x16a;" horiz-adv-x="662" 
d="M174 680v-428q0 -44 9 -79.5t28.5 -60t49.5 -38t71 -13.5t70.5 13.5t48.5 38t28 60t9 79.5v428h84v-439q0 -120 -58 -188t-182 -68q-126 0 -184 68t-58 189v438h84zM207 777v74h243v-74h-243z" />
    <glyph glyph-name="umacron" unicode="&#x16b;" horiz-adv-x="540" 
d="M159 482v-300q0 -63 22.5 -95t73.5 -32q17 0 35 4t34 10.5t30 14t23 14.5v384h82v-482h-58l-9 44h-2q-11 -8 -27.5 -18t-36.5 -19t-43.5 -15.5t-47.5 -6.5q-75 0 -116.5 45.5t-41.5 137.5v314h82zM147 597v74h243v-74h-243z" />
    <glyph glyph-name="Ubreve" unicode="&#x16c;" horiz-adv-x="662" 
d="M174 680v-428q0 -44 9 -79.5t28.5 -60t49.5 -38t71 -13.5t70.5 13.5t48.5 38t28 60t9 79.5v428h84v-439q0 -120 -58 -188t-182 -68q-126 0 -184 68t-58 189v438h84zM327 838q38 0 65.5 10.5t44.5 21.5l23 -52q-11 -11 -25 -20.5t-30.5 -17.5t-36 -12.5t-41.5 -4.5
t-41 4.5t-35.5 12.5t-30.5 17.5t-25 20.5l23 52q17 -11 44 -21.5t65 -10.5z" />
    <glyph glyph-name="ubreve" unicode="&#x16d;" horiz-adv-x="540" 
d="M159 482v-300q0 -63 22.5 -95t73.5 -32q17 0 35 4t34 10.5t30 14t23 14.5v384h82v-482h-58l-9 44h-2q-11 -8 -27.5 -18t-36.5 -19t-43.5 -15.5t-47.5 -6.5q-75 0 -116.5 45.5t-41.5 137.5v314h82zM270 654q38 0 65.5 10.5t44.5 21.5l23 -52q-11 -11 -25 -20.5
t-30.5 -17.5t-36 -12.5t-41.5 -4.5t-41 4.5t-35.5 12.5t-30.5 17.5t-25 20.5l23 52q17 -11 44 -21.5t65 -10.5z" />
    <glyph glyph-name="Uring" unicode="&#x16e;" horiz-adv-x="662" 
d="M174 680v-428q0 -44 9 -79.5t28.5 -60t49.5 -38t71 -13.5t70.5 13.5t48.5 38t28 60t9 79.5v428h84v-439q0 -120 -58 -188t-182 -68q-126 0 -184 68t-58 189v438h84zM289 828q0 -20 11 -31t29 -11t29 11t11 31t-11 30.5t-29 10.5t-29 -10.5t-11 -30.5zM235 828q0 45 26 69
t68 24t67.5 -24t25.5 -69t-25.5 -69.5t-67.5 -24.5t-68 24.5t-26 69.5z" />
    <glyph glyph-name="uring" unicode="&#x16f;" horiz-adv-x="540" 
d="M159 482v-300q0 -63 22.5 -95t73.5 -32q17 0 35 4t34 10.5t30 14t23 14.5v384h82v-482h-58l-9 44h-2q-11 -8 -27.5 -18t-36.5 -19t-43.5 -15.5t-47.5 -6.5q-75 0 -116.5 45.5t-41.5 137.5v314h82zM229 638q0 -20 11 -31t29 -11t29 11t11 31t-11 30.5t-29 10.5t-29 -10.5
t-11 -30.5zM175 638q0 45 26 69t68 24t67.5 -24t25.5 -69t-25.5 -69.5t-67.5 -24.5t-68 24.5t-26 69.5z" />
    <glyph glyph-name="Uhungarumlaut" unicode="&#x170;" horiz-adv-x="662" 
d="M174 680v-428q0 -44 9 -79.5t28.5 -60t49.5 -38t71 -13.5t70.5 13.5t48.5 38t28 60t9 79.5v428h84v-439q0 -120 -58 -188t-182 -68q-126 0 -184 68t-58 189v438h84zM361 873l-78 -121h-71v10l59 121h90v-10zM516 873l-78 -121h-71v10l59 121h90v-10z" />
    <glyph glyph-name="uhungarumlaut" unicode="&#x171;" horiz-adv-x="540" 
d="M159 482v-300q0 -63 22.5 -95t73.5 -32q17 0 35 4t34 10.5t30 14t23 14.5v384h82v-482h-58l-9 44h-2q-11 -8 -27.5 -18t-36.5 -19t-43.5 -15.5t-47.5 -6.5q-75 0 -116.5 45.5t-41.5 137.5v314h82zM304 700l-78 -121h-71v10l59 121h90v-10zM459 700l-78 -121h-71v10
l59 121h90v-10z" />
    <glyph glyph-name="Uogonek" unicode="&#x172;" horiz-adv-x="664" 
d="M175 680v-428q0 -44 9 -79.5t28.5 -60t49.5 -38t71 -13.5t70.5 13.5t48.5 38t28 60t9 79.5v428h84v-439q0 -112 -50 -178.5t-157 -75.5q-13 -3 -22 -10.5t-14 -18t-7.5 -24t-2.5 -28.5q0 -50 42 -50q17 0 30.5 7t23.5 14l8 -62q-13 -10 -34 -19t-46 -9q-18 0 -35 5.5
t-30 16.5t-21 29t-8 44q0 36 12 62t32 43q-105 10 -154 77t-49 178v438h84z" />
    <glyph glyph-name="uogonek" unicode="&#x173;" horiz-adv-x="540" 
d="M394 -213q-18 0 -35.5 5.5t-31 16.5t-21.5 29t-8 44q0 21 7.5 39.5t21 35t31.5 31.5t39 29l-5 27h-2q-11 -8 -27.5 -18t-36.5 -19t-43.5 -15.5t-47.5 -6.5q-75 0 -116.5 45.5t-41.5 137.5v314h82v-300q0 -63 22.5 -95t73.5 -32q17 0 35 4t34 10.5t30 14t23 14.5v384h82
v-482q-23 -13 -40 -25.5t-28 -25t-16 -25t-5 -25.5q0 -21 11 -32t32 -11q17 0 30.5 7t24.5 14l8 -62q-13 -10 -34.5 -19t-47.5 -9z" />
    <glyph glyph-name="Wcircumflex" unicode="&#x174;" horiz-adv-x="913" 
d="M882 670l-181 -670h-85l-118 427l-40 171h-3l-40 -171l-117 -427h-86l-180 670v10h87l101 -410l36 -169h2l40 169l114 410h89l114 -410l40 -169h2l36 169l101 410h88v-10zM590 762v-10h-75l-58 71l-58 -71h-75v10l86 121h94z" />
    <glyph glyph-name="wcircumflex" unicode="&#x175;" horiz-adv-x="767" 
d="M735 472l-151 -472h-79l-99 312l-22 90h-2l-22 -90l-98 -312h-79l-151 472v10h83l89 -305l20 -88h2l21 88l94 305h84l95 -305l21 -88h2l20 88l89 305h83v-10zM517 589v-10h-75l-58 84l-58 -84h-75v10l86 121h94z" />
    <glyph glyph-name="Ycircumflex" unicode="&#x176;" horiz-adv-x="528" 
d="M105 680l158 -309h2l160 309h89v-10l-208 -382v-288h-84v288l-207 382v10h90zM400 762v-10h-75l-58 71l-58 -71h-75v10l86 121h94z" />
    <glyph glyph-name="ycircumflex" unicode="&#x177;" horiz-adv-x="481" 
d="M450 472l-185 -537q-26 -76 -63.5 -112t-89.5 -36q-18 0 -42.5 4.5t-38.5 8.5v67q14 -4 36 -8t38 -4q29 0 46.5 22.5t31.5 62.5l22 65l-178 467v10h81l105 -305l28 -95h2l26 95l101 305h80v-10zM376 589v-10h-75l-58 84l-58 -84h-75v10l86 121h94z" />
    <glyph glyph-name="Ydieresis" unicode="&#x178;" horiz-adv-x="528" 
d="M105 680l158 -309h2l160 309h89v-10l-208 -382v-288h-84v288l-207 382v10h90zM113 816q0 25 14 40t38 15q25 0 39 -15t14 -40q0 -26 -14 -40.5t-39 -14.5q-24 0 -38 14.5t-14 40.5zM316 816q0 25 14 40t38 15q25 0 39 -15t14 -40q0 -26 -14 -40.5t-39 -14.5
q-24 0 -38 14.5t-14 40.5z" />
    <glyph glyph-name="Zacute" unicode="&#x179;" horiz-adv-x="521" 
d="M468 680v-71l-318 -533v-2h318v-74h-422v71l317 533v2h-301v74h406zM371 873l-79 -121h-71v10l60 121h90v-10z" />
    <glyph glyph-name="zacute" unicode="&#x17a;" horiz-adv-x="427" 
d="M377 482v-50l-232 -364v-2h232v-66h-333v50l232 364v2h-219v66h320zM334 700l-79 -121h-71v10l59 121h91v-10z" />
    <glyph glyph-name="Zdotaccent" unicode="&#x17b;" horiz-adv-x="521" 
d="M468 680v-71l-318 -533v-2h318v-74h-422v71l317 533v2h-301v74h406zM219 816q0 25 14 40t38 15q25 0 39 -15t14 -40q0 -26 -14 -40.5t-39 -14.5q-24 0 -38 14.5t-14 40.5z" />
    <glyph glyph-name="zdotaccent" unicode="&#x17c;" horiz-adv-x="427" 
d="M377 482v-50l-232 -364v-2h232v-66h-333v50l232 364v2h-219v66h320zM172 634q0 25 14 40t38 15q25 0 39 -15t14 -40q0 -26 -14 -40.5t-39 -14.5q-24 0 -38 14.5t-14 40.5z" />
    <glyph glyph-name="Zcaron" unicode="&#x17d;" horiz-adv-x="521" 
d="M468 680v-71l-318 -533v-2h318v-74h-422v71l317 533v2h-301v74h406zM138 873v10h75l58 -71l58 71h75v-10l-86 -121h-94z" />
    <glyph glyph-name="zcaron" unicode="&#x17e;" horiz-adv-x="427" 
d="M377 482v-50l-232 -364v-2h232v-66h-333v50l232 364v2h-219v66h320zM91 700v10h75l58 -84l58 84h75v-10l-86 -121h-94z" />
    <glyph glyph-name="florin" unicode="&#x192;" 
d="M148 299l11 69h94l26 170q14 84 54 120.5t109 36.5q14 0 31.5 -2t30.5 -4l-8 -71q-10 2 -26 4.5t-29 2.5q-33 0 -52 -19.5t-26 -60.5l-27 -177h112l-11 -69h-112l-59 -355q-14 -84 -53 -120.5t-108 -36.5q-14 0 -32 2t-30 4l8 71q9 -2 25.5 -4.5t29.5 -2.5q32 0 51 19.5
t25 60.5l60 362h-94z" />
    <glyph glyph-name="Aringacute" unicode="&#x1fa;" horiz-adv-x="595" 
d="M205 721q0 45 26 69t68 24t67.5 -24t25.5 -69q0 -27 -11 -47.5t-28 -31.5l223 -642h-88l-57 176h-267l-58 -176h-87l223 642q-18 12 -27.5 32t-9.5 47zM297 595l-53 -184l-55 -165h216l-53 165l-53 184h-2zM259 721q0 -20 11 -30t29 -10t29 10t11 30t-11 29.5t-29 9.5
t-29 -9.5t-11 -29.5zM411.687 906.074l-78.4795 -98.002h-70.5322v8.09961l59.6045 98.002h89.4072v-8.09961z" />
    <glyph glyph-name="aringacute" unicode="&#x1fb;" horiz-adv-x="494" 
d="M203 618q0 -20 11 -30t29 -10t29 10t11 30t-11 29.5t-29 9.5t-29 -9.5t-11 -29.5zM149 618q0 45 26 66.5t68 21.5t67.5 -21.5t25.5 -66.5t-25.5 -67t-67.5 -22t-68 22t-26 67zM244 224q-53 0 -83 -22.5t-30 -70.5q0 -35 19 -55.5t60 -20.5q33 0 63.5 7.5t61.5 33.5v128
h-91zM357 0l-8 44h-2q-31 -25 -70 -42t-85 -17q-66 0 -105.5 38t-39.5 108q0 46 16.5 75.5t43.5 46t61 23t69 6.5h98v31q0 24 -6 45t-18.5 36.5t-32 24t-46.5 8.5q-34 0 -68 -10.5t-60 -30.5l-34 57q31 24 72.5 39t92.5 15q92 0 137 -50t45 -136v-311h-60zM356 833l-79 -98
h-70v8l59 98h90v-8z" />
    <glyph glyph-name="AEacute" unicode="&#x1fc;" horiz-adv-x="850" 
d="M0 10l364 670h422v-74h-313v-222h284v-74h-284v-236h316v-74h-400v176h-212l-97 -176h-80v10zM397 595l-71 -142l-111 -207h174v196l10 153h-2zM676 873l-79 -121h-71v10l60 121h90v-10z" />
    <glyph glyph-name="aeacute" unicode="&#x1fd;" horiz-adv-x="778" 
d="M246 222q-60 0 -88 -22.5t-28 -64.5t22.5 -61t57.5 -19q21 0 44.5 10t42.5 31t31.5 52.5t12.5 73.5h-95zM378 92q-14 -23 -32.5 -42.5t-41.5 -33.5t-51 -22.5t-61 -8.5q-31 0 -57.5 9.5t-46 28.5t-30.5 46.5t-11 63.5q0 42 15 70.5t40.5 46t59.5 25t72 7.5h106v31
q0 24 -6.5 45t-19.5 36.5t-33.5 24t-47.5 8.5q-34 0 -68 -10.5t-60 -30.5l-34 57q31 24 72 39t88 15q54 0 94.5 -23t66.5 -62q24 37 59.5 61t85.5 24q53 0 89 -17.5t58.5 -46.5t32.5 -66.5t10 -77.5q0 -18 -1.5 -37t-3.5 -32h-302q0 -33 9 -63t26 -52.5t41.5 -36t56.5 -13.5
q46 0 73 13t52 31l31 -61q-29 -21 -67 -37t-96 -16q-34 0 -60 7.5t-46 22t-35 34t-27 43.5zM646 282q1 5 1 11.5v11.5q0 26 -6.5 48t-20 38.5t-34 26t-49.5 9.5q-28 0 -48.5 -11.5t-34 -31t-21 -46t-9.5 -56.5h222zM509 700l-79 -121h-71v10l59 121h91v-10z" />
    <glyph glyph-name="Oslashacute" unicode="&#x1fe;" horiz-adv-x="680" 
d="M100 10l38 63q-39 48 -57 116.5t-18 150.5q0 75 15.5 140t49 113t86.5 75t127 27q47 0 85 -11.5t68 -31.5l37 58l55 -33l-44 -70q39 -49 57 -117.5t18 -149.5q0 -75 -15.5 -140t-48.5 -113t-85.5 -75t-126.5 -27q-48 0 -86 11t-68 32l-34 -53zM530 340q0 55 -8 103
t-28 86l-265 -432q44 -36 112 -36q55 0 91 22t58 60t31 88.5t9 108.5zM150 340q0 -55 8 -103.5t28 -85.5l266 432q-21 17 -48.5 26.5t-62.5 9.5q-55 0 -91.5 -22t-58.5 -60t-31.5 -88.5t-9.5 -108.5zM464 873l-79 -121h-71v10l60 121h90v-10z" />
    <glyph glyph-name="oslashacute" unicode="&#x1ff;" horiz-adv-x="545" 
d="M73 10l34 48q-27 35 -39.5 82t-12.5 101q0 52 12 99t38.5 81.5t67.5 55t99 20.5q38 0 68 -8.5t54 -24.5l32 45l54 -37l-38 -53q26 -35 38 -80.5t12 -97.5q0 -53 -12.5 -99.5t-39 -81t-68 -55t-100.5 -20.5q-35 0 -64 7.5t-52 21.5l-31 -43zM408 241q0 29 -4.5 55
t-13.5 49l-190 -269q14 -10 31.5 -15.5t40.5 -5.5q37 0 63 15t42.5 40.5t23.5 59.5t7 71zM139 241q0 -64 19 -111l192 272q-31 25 -78 25q-37 0 -62.5 -15t-41 -40.5t-22.5 -59.5t-7 -71zM384 700l-79 -121h-71v10l59 121h91v-10z" />
    <glyph glyph-name="Scommaaccent" unicode="&#x218;" horiz-adv-x="505" 
d="M88 123q32 -29 71.5 -45.5t90.5 -16.5q52 0 84 29.5t32 85.5q0 43 -24 69.5t-78 49.5l-57 24q-63 27 -103.5 71t-40.5 111q0 39 13.5 74.5t40 62t64 42t85.5 15.5q53 0 95.5 -14.5t76.5 -37.5l-36 -66q-32 20 -67 31t-73 11q-56 0 -84 -33t-28 -79q0 -34 18 -60t68 -47
l57 -25q37 -16 66.5 -34t50.5 -41.5t32 -52.5t11 -66q0 -43 -14.5 -79t-41 -62t-64 -40.5t-83.5 -14.5q-64 0 -112.5 20t-88.5 52zM195 -208l18 141h85v-10l-38 -141h-65v10z" />
    <glyph glyph-name="scommaaccent" unicode="&#x219;" horiz-adv-x="430" 
d="M77 96q29 -19 61 -30t70 -11q46 0 67.5 21.5t21.5 52.5q0 26 -16 41.5t-49 26.5l-54 18q-26 9 -48.5 20.5t-39 28t-25.5 38t-9 49.5q0 30 11.5 57t33 46.5t52.5 31t69 11.5q46 0 81 -9t69 -25l-27 -66q-30 15 -60.5 22.5t-59.5 7.5q-45 0 -65 -22.5t-20 -51.5
q0 -24 14.5 -40t48.5 -27l53 -16q27 -8 49.5 -20t39.5 -29t26.5 -39.5t9.5 -51.5q0 -31 -11.5 -57.5t-33.5 -46t-53 -30.5t-70 -11q-29 0 -52 3t-42.5 9t-36.5 14.5t-34 19.5l29 65v0zM163 -208l18 141h85v-10l-38 -141h-65v10z" />
    <glyph glyph-name="uni021A" unicode="&#x21a;" horiz-adv-x="523" 
d="M487 680v-74h-183v-606h-86v606h-182v74h451zM201 -208l18 141h85v-10l-38 -141h-65v10z" />
    <glyph glyph-name="uni021B" unicode="&#x21b;" horiz-adv-x="365" 
d="M204 594v-112h128v-67h-128v-290q0 -40 17.5 -55t40.5 -15q19 0 39.5 5t30.5 7v-68q-14 -4 -37 -9t-50 -5q-55 0 -89 32t-34 99v299h-89v48l89 19v112h82zM175 -208l18 141h85v-10l-38 -141h-65v10z" />
    <glyph glyph-name="dotlessj" unicode="&#x237;" horiz-adv-x="244" 
d="M163 482v-542q0 -36 -8 -64t-24.5 -48t-41 -30.5t-57.5 -10.5q-13 0 -31 2t-32 5v65q11 -2 27.5 -3t27.5 -1q57 0 57 83v544h82z" />
    <glyph glyph-name="circumflex" unicode="&#x2c6;" horiz-adv-x="542" 
d="M404 589v-10h-75l-58 84l-58 -84h-75v10l86 121h94z" />
    <glyph glyph-name="caron" unicode="&#x2c7;" horiz-adv-x="542" 
d="M138 700v10h75l58 -84l58 84h75v-10l-86 -121h-94z" />
    <glyph glyph-name="uni02C9" unicode="&#x2c9;" horiz-adv-x="543" 
d="M149 607v74h243v-74h-243z" />
    <glyph glyph-name="breve" unicode="&#x2d8;" horiz-adv-x="542" 
d="M270 654q38 0 65.5 10.5t44.5 21.5l23 -52q-11 -11 -25 -20.5t-30.5 -17.5t-36 -12.5t-41.5 -4.5t-41 4.5t-35.5 12.5t-30.5 17.5t-25 20.5l23 52q17 -11 44 -21.5t65 -10.5z" />
    <glyph glyph-name="dotaccent" unicode="&#x2d9;" horiz-adv-x="542" 
d="M218 634q0 25 14 40t38 15q25 0 39 -15t14 -40q0 -26 -14 -40.5t-39 -14.5q-24 0 -38 14.5t-14 40.5z" />
    <glyph glyph-name="ring" unicode="&#x2da;" horiz-adv-x="542" 
d="M231 638q0 -20 11 -31t29 -11t29 11t11 31t-11 30.5t-29 10.5t-29 -10.5t-11 -30.5zM177 638q0 45 26 69t68 24t67.5 -24t25.5 -69t-25.5 -69.5t-67.5 -24.5t-68 24.5t-26 69.5z" />
    <glyph glyph-name="ogonek" unicode="&#x2db;" horiz-adv-x="542" 
d="M276 -213q-18 0 -35.5 5.5t-31 16.5t-21.5 29t-8 44q0 24 10 45t27.5 39.5t40 35t48.5 32.5l34 -30q-20 -14 -36 -27t-27.5 -26t-18 -26t-6.5 -26q0 -21 11 -32t32 -11q17 0 30.5 7t24.5 14l8 -62q-13 -10 -34.5 -19t-47.5 -9z" />
    <glyph glyph-name="tilde" unicode="&#x2dc;" horiz-adv-x="542" 
d="M130 634q13 20 33 38.5t50 18.5q15 0 30.5 -6.5t30.5 -14t30 -13.5t29 -6q15 0 28.5 9t25.5 26l25 -50q-17 -25 -36.5 -41t-46.5 -16q-15 0 -30.5 6t-30.5 13.5t-30 14t-30 6.5q-14 0 -28 -9.5t-25 -25.5z" />
    <glyph glyph-name="hungarumlaut" unicode="&#x2dd;" horiz-adv-x="542" 
d="M268 700l-78 -121h-71v10l59 121h90v-10zM423 700l-78 -121h-71v10l59 121h90v-10z" />
    <glyph glyph-name="tonos" unicode="&#x384;" horiz-adv-x="590" 
d="M387 700l-50 -141h-62v10l29 141h83v-10z" />
    <glyph glyph-name="dieresistonos" unicode="&#x385;" horiz-adv-x="590" 
d="M119 614q0 26 15.5 41t41.5 15q27 0 42.5 -15t15.5 -41t-15.5 -41.5t-42.5 -15.5q-26 0 -41.5 15.5t-15.5 41.5zM406 614q0 26 15.5 41t41.5 15q27 0 42.5 -15t15.5 -41t-15.5 -41.5t-42.5 -15.5q-26 0 -41.5 15.5t-15.5 41.5zM386 700l-45 -151h-72v10l24 151h93v-10z
" />
    <glyph glyph-name="Alphatonos" unicode="&#x386;" horiz-adv-x="621" 
d="M602 0h-88l-57 176h-267l-58 -176h-87l236 680h85zM323 595l-53 -184l-55 -165h216l-53 165l-53 184h-2zM170 670l-45 -141h-64v10l24 141h85v-10z" />
    <glyph glyph-name="anoteleia" unicode="&#x387;" horiz-adv-x="256" 
d="M68 288q0 27 17 44.5t43 17.5q27 0 43.5 -17.5t16.5 -44.5q0 -28 -16.5 -45.5t-43.5 -17.5q-26 0 -43 17.5t-17 45.5z" />
    <glyph glyph-name="Epsilontonos" unicode="&#x388;" horiz-adv-x="669" 
d="M605 680v-74h-313v-222h284v-74h-284v-236h316v-74h-400v680h397zM131 670l-45 -141h-64v10l24 141h85v-10z" />
    <glyph glyph-name="Etatonos" unicode="&#x389;" horiz-adv-x="782" 
d="M602 310h-310v-310h-84v680h84v-296h310v296h84v-680h-84v310zM131 670l-45 -141h-64v10l24 141h85v-10z" />
    <glyph glyph-name="Iotatonos" unicode="&#x38a;" horiz-adv-x="388" 
d="M292 0h-84v680h84v-680zM131 670l-45 -141h-64v10l24 141h85v-10z" />
    <glyph glyph-name="Omicrontonos" unicode="&#x38c;" horiz-adv-x="769" 
d="M239 340q0 -58 9.5 -108.5t31.5 -88.5t58.5 -60t91.5 -22t91 22t58 60t31 88.5t9 108.5t-9 108.5t-31 88.5t-58 60t-91 22t-91.5 -22t-58.5 -60t-31.5 -88.5t-9.5 -108.5zM706 340q0 -75 -15.5 -140t-48.5 -113t-85.5 -75t-126.5 -27t-127 27t-86.5 75t-49 113t-15.5 140
t15.5 140t49 113t86.5 75t127 27t126.5 -27t85.5 -75t48.5 -113t15.5 -140zM138 670l-45 -141h-64v10l24 141h85v-10z" />
    <glyph glyph-name="Upsilontonos" unicode="&#x38e;" horiz-adv-x="711" 
d="M288 680l158 -309h2l160 309h89v-10l-208 -382v-288h-84v288l-207 382v10h90zM142 670l-45 -141h-64v10l24 141h85v-10z" />
    <glyph glyph-name="Omegatonos" unicode="&#x38f;" horiz-adv-x="773" 
d="M154 74h128q-25 19 -49 46.5t-42.5 63t-29.5 77.5t-11 89q0 72 15.5 134.5t49 109.5t86.5 74t127 27t126.5 -27t86 -74t49 -109.5t15.5 -134.5q0 -47 -11 -89t-29.5 -77.5t-42.5 -63t-49 -46.5h128v-74h-223v70q64 48 101.5 112.5t37.5 156.5q0 57 -9 108t-31 89
t-58 60.5t-91 22.5q-54 0 -90.5 -22t-58.5 -60.5t-31.5 -89t-9.5 -107.5q0 -92 38 -157t101 -113v-70h-223v74zM141 670l-45 -141h-64v10l24 141h85v-10z" />
    <glyph glyph-name="iotadieresistonos" unicode="&#x390;" horiz-adv-x="268" 
d="M164 482v-373q0 -32 10 -43t30 -11q8 0 19.5 2t16.5 4v-68q-13 -4 -30.5 -6t-31.5 -2q-44 0 -70 29.5t-26 95.5v372h82zM-57 614q0 26 15.5 41t41.5 15q27 0 42.5 -15t15.5 -41t-15.5 -41.5t-42.5 -15.5q-26 0 -41.5 15.5t-15.5 41.5zM230 614q0 26 15.5 41t41.5 15
q27 0 42.5 -15t15.5 -41t-15.5 -41.5t-42.5 -15.5q-26 0 -41.5 15.5t-15.5 41.5zM210 700l-45 -151h-72v10l24 151h93v-10z" />
    <glyph glyph-name="Alpha" unicode="&#x391;" horiz-adv-x="595" 
d="M576 0h-88l-57 176h-267l-58 -176h-87l236 680h85zM297 595l-53 -184l-55 -165h216l-53 165l-53 184h-2z" />
    <glyph glyph-name="Beta" unicode="&#x392;" horiz-adv-x="593" 
d="M180 74h146q58 0 91 26t33 89q0 64 -33.5 89t-91.5 25h-145v-229zM301 680q104 0 157 -43t53 -131q0 -60 -24 -100t-58 -53v-2q51 -17 79.5 -58.5t28.5 -109.5q0 -86 -52.5 -134.5t-149.5 -48.5h-239v680h205zM180 377h115q31 0 55 5t40.5 18t25 35t8.5 56q0 67 -32 91
t-97 24h-115v-229z" />
    <glyph glyph-name="Gamma" unicode="&#x393;" horiz-adv-x="497" 
d="M96 0v680h367v-74h-283v-606h-84z" />
    <glyph glyph-name="uni0394" unicode="&#x394;" horiz-adv-x="597" 
d="M577 0h-555v5l235 675h85l235 -675v-5zM298 595l-53 -179l-116 -346h341l-117 346l-53 179h-2z" />
    <glyph glyph-name="Epsilon" unicode="&#x395;" horiz-adv-x="557" 
d="M493 680v-74h-313v-222h284v-74h-284v-236h316v-74h-400v680h397z" />
    <glyph glyph-name="Zeta" unicode="&#x396;" horiz-adv-x="521" 
d="M468 680v-71l-318 -533v-2h318v-74h-422v71l317 533v2h-301v74h406z" />
    <glyph glyph-name="Eta" unicode="&#x397;" horiz-adv-x="670" 
d="M490 310h-310v-310h-84v680h84v-296h310v296h84v-680h-84v310z" />
    <glyph glyph-name="Theta" unicode="&#x398;" horiz-adv-x="680" 
d="M229 305v83h223v-83h-223zM150 340q0 -58 9.5 -108.5t31.5 -88.5t58.5 -60t91.5 -22t91 22t58 60t31 88.5t9 108.5t-9 108.5t-31 88.5t-58 60t-91 22t-91.5 -22t-58.5 -60t-31.5 -88.5t-9.5 -108.5zM617 340q0 -75 -15.5 -140t-48.5 -113t-85.5 -75t-126.5 -27t-127 27
t-86.5 75t-49 113t-15.5 140t15.5 140t49 113t86.5 75t127 27t126.5 -27t85.5 -75t48.5 -113t15.5 -140z" />
    <glyph glyph-name="Iota" unicode="&#x399;" horiz-adv-x="276" 
d="M180 0h-84v680h84v-680z" />
    <glyph glyph-name="Kappa" unicode="&#x39a;" horiz-adv-x="571" 
d="M180 311v-311h-84v680h84v-335h2l258 335h97v-10l-270 -337l282 -323v-10h-105l-262 311h-2z" />
    <glyph glyph-name="Lambda" unicode="&#x39b;" horiz-adv-x="595" 
d="M106 0h-87l236 680h85l236 -680h-88l-136 411l-53 174h-2l-53 -174z" />
    <glyph glyph-name="Mu" unicode="&#x39c;" horiz-adv-x="804" 
d="M402 258l55 128l171 294h80v-680h-84v427l10 117h-2l-199 -373h-62l-199 373h-2l10 -117v-427h-84v680h80l170 -294l55 -128h1z" />
    <glyph glyph-name="Nu" unicode="&#x39d;" horiz-adv-x="678" 
d="M506 126l-8 127v427h84v-680h-88l-320 554h-2l8 -127v-427h-84v680h88l320 -554h2z" />
    <glyph glyph-name="Xi" unicode="&#x39e;" horiz-adv-x="544" 
d="M480 79v-79h-415v79h415zM97 307v79h351v-79h-351zM65 601v79h412v-79h-412z" />
    <glyph glyph-name="Omicron" unicode="&#x39f;" horiz-adv-x="680" 
d="M150 340q0 -58 9.5 -108.5t31.5 -88.5t58.5 -60t91.5 -22t91 22t58 60t31 88.5t9 108.5t-9 108.5t-31 88.5t-58 60t-91 22t-91.5 -22t-58.5 -60t-31.5 -88.5t-9.5 -108.5zM617 340q0 -75 -15.5 -140t-48.5 -113t-85.5 -75t-126.5 -27t-127 27t-86.5 75t-49 113t-15.5 140
t15.5 140t49 113t86.5 75t127 27t126.5 -27t85.5 -75t48.5 -113t15.5 -140z" />
    <glyph glyph-name="Pi" unicode="&#x3a0;" horiz-adv-x="666" 
d="M486 606h-306v-606h-84v680h474v-680h-84v606z" />
    <glyph glyph-name="Rho" unicode="&#x3a1;" horiz-adv-x="562" 
d="M96 0v680h214q51 0 90 -14t65.5 -40.5t40 -65t13.5 -87.5t-14 -87.5t-40.5 -65t-65.5 -40.5t-89 -14h-129v-266h-85zM181 340h122q66 0 97.5 37t31.5 96q0 58 -31.5 95.5t-97.5 37.5h-122v-266z" />
    <glyph glyph-name="Sigma" unicode="&#x3a3;" horiz-adv-x="528" 
d="M45 64l171 282l-157 269v65h417v-74h-319l152 -256l-168 -276h335v-74h-431v64z" />
    <glyph glyph-name="Tau" unicode="&#x3a4;" horiz-adv-x="523" 
d="M487 680v-74h-183v-606h-86v606h-182v74h451z" />
    <glyph glyph-name="Upsilon" unicode="&#x3a5;" horiz-adv-x="528" 
d="M105 680l158 -309h2l160 309h89v-10l-208 -382v-288h-84v288l-207 382v10h90z" />
    <glyph glyph-name="Phi" unicode="&#x3a6;" horiz-adv-x="746" 
d="M402 617q74 -5 127 -28t86.5 -59.5t49.5 -85t16 -103.5q0 -56 -16 -104t-49.5 -85t-86.5 -60t-127 -28v-64h-83v64q-75 5 -126.5 28t-83.5 60t-46.5 85t-14.5 104q0 55 14.5 103.5t46.5 85t83.5 59.5t126.5 28v63h83v-63zM135 341q0 -41 9 -76.5t30 -63t56.5 -45
t88.5 -21.5v412q-53 -5 -88.5 -22.5t-56.5 -44.5t-30 -62.5t-9 -76.5zM594 341q0 41 -10 76.5t-33 62.5t-59.5 44.5t-89.5 22.5v-412q53 4 89.5 21.5t59.5 45t33 63t10 76.5z" />
    <glyph glyph-name="Chi" unicode="&#x3a7;" horiz-adv-x="553" 
d="M123 680l152 -279h2l153 279h90v-10l-191 -330l191 -330v-10h-90l-153 278h-2l-152 -278h-90v10l190 330l-190 330v10h90z" />
    <glyph glyph-name="Psi" unicode="&#x3a8;" horiz-adv-x="681" 
d="M382 235q78 2 113.5 50.5t35.5 133.5v261h84v-271q0 -120 -56 -184.5t-177 -65.5v-159h-84v159q-122 1 -177 65.5t-55 185.5v270h84v-261q0 -85 35 -133.5t113 -50.5v445h84v-445z" />
    <glyph glyph-name="uni03A9" unicode="&#x3a9;" horiz-adv-x="691" 
d="M73 74h128q-25 19 -49 46.5t-42.5 63t-29.5 77.5t-11 89q0 72 15.5 134.5t49 109.5t86.5 74t127 27t126.5 -27t86 -74t49 -109.5t15.5 -134.5q0 -47 -11 -89t-29.5 -77.5t-42.5 -63t-49 -46.5h128v-74h-223v70q64 48 101.5 112.5t37.5 156.5q0 57 -9 108t-31 89t-58 60.5
t-91 22.5q-54 0 -90.5 -22t-58.5 -60.5t-31.5 -89t-9.5 -107.5q0 -92 38 -157t101 -113v-70h-223v74z" />
    <glyph glyph-name="Iotadieresis" unicode="&#x3aa;" horiz-adv-x="276" 
d="M180 0h-84v680h84v-680zM-16 816q0 25 14 40t38 15q25 0 39 -15t14 -40q0 -26 -14 -40.5t-39 -14.5q-24 0 -38 14.5t-14 40.5zM187 816q0 25 14 40t38 15q25 0 39 -15t14 -40q0 -26 -14 -40.5t-39 -14.5q-24 0 -38 14.5t-14 40.5z" />
    <glyph glyph-name="Upsilondieresis" unicode="&#x3ab;" horiz-adv-x="528" 
d="M105 680l158 -309h2l160 309h89v-10l-208 -382v-288h-84v288l-207 382v10h90zM104 816q0 25 14 40t38 15q25 0 39 -15t14 -40q0 -26 -14 -40.5t-39 -14.5q-24 0 -38 14.5t-14 40.5zM307 816q0 25 14 40t38 15q25 0 39 -15t14 -40q0 -26 -14 -40.5t-39 -14.5
q-24 0 -38 14.5t-14 40.5z" />
    <glyph glyph-name="alphatonos" unicode="&#x3ac;" horiz-adv-x="572" 
d="M519 0h-82l-28 119h-1q-11 -28 -26 -52.5t-34.5 -42.5t-44.5 -28.5t-56 -10.5q-51 0 -87.5 20.5t-59.5 55t-34 81t-11 99.5q0 52 11 99t34 81.5t59 55t87 20.5q31 0 56 -10.5t45 -28.5t35 -42.5t26 -52.5h1l28 119h82l-64 -240zM380 241q-7 35 -19 68.5t-29 59.5
t-38.5 42t-47.5 16q-31 0 -51.5 -14.5t-33 -39.5t-17.5 -59t-5 -73t5 -73t17.5 -59t33 -39.5t51.5 -14.5q26 0 47.5 16t38.5 42t29 59.5t19 68.5zM378 700l-50 -141h-62v10l29 141h83v-10z" />
    <glyph glyph-name="epsilontonos" unicode="&#x3ad;" horiz-adv-x="458" 
d="M346 214h-120q-38 0 -62.5 -18.5t-24.5 -53.5q0 -42 29.5 -64.5t83.5 -22.5q40 0 76 7t71 23l19 -63q-30 -17 -71.5 -27t-94.5 -10q-47 0 -83.5 10.5t-62 29.5t-39 46t-13.5 59q0 46 20.5 75.5t58.5 43.5v2q-28 11 -46.5 38t-18.5 68q0 62 43.5 101t135.5 39
q43 0 84.5 -9t73.5 -24l-17 -63q-35 12 -69 19t-71 7q-28 0 -46.5 -6.5t-29 -17.5t-15 -26t-4.5 -31q0 -17 7 -29t18 -20t25 -12t28 -4h115v-67zM340 700l-50 -141h-62v10l29 141h83v-10z" />
    <glyph glyph-name="etatonos" unicode="&#x3ae;" horiz-adv-x="546" 
d="M139 482l10 -44h2q10 8 26.5 18t37.5 19t45 15.5t48 6.5q75 0 118 -45.5t43 -137.5v-512h-82v498q0 63 -24.5 95t-75.5 32q-17 0 -35 -4t-35 -10.5t-31 -14t-23 -14.5v-384h-82v482h58zM369 700l-50 -141h-62v10l29 141h83v-10z" />
    <glyph glyph-name="iotatonos" unicode="&#x3af;" horiz-adv-x="268" 
d="M164 482v-373q0 -32 10 -43t30 -11q8 0 19.5 2t16.5 4v-68q-13 -4 -30.5 -6t-31.5 -2q-44 0 -70 29.5t-26 95.5v372h82zM210 700l-50 -141h-62v10l29 141h83v-10z" />
    <glyph glyph-name="upsilondieresistonos" unicode="&#x3b0;" horiz-adv-x="523" 
d="M157 208q0 -78 29 -115.5t83 -37.5t83.5 45.5t29.5 143.5q0 57 -14.5 120.5t-33.5 117.5h88q7 -24 14.5 -52.5t13.5 -59.5t10 -63t4 -63q0 -134 -51.5 -196.5t-143.5 -62.5q-93 0 -143.5 55t-50.5 164v278h82v-274zM344 700l-50 -141h-62v10l29 141h83v-10z" />
    <glyph glyph-name="alpha" unicode="&#x3b1;" horiz-adv-x="572" 
d="M519 0h-82l-28 119h-1q-11 -28 -26 -52.5t-34.5 -42.5t-44.5 -28.5t-56 -10.5q-51 0 -87.5 20.5t-59.5 55t-34 81t-11 99.5q0 52 11 99t34 81.5t59 55t87 20.5q31 0 56 -10.5t45 -28.5t35 -42.5t26 -52.5h1l28 119h82l-64 -240zM380 241q-7 35 -19 68.5t-29 59.5
t-38.5 42t-47.5 16q-31 0 -51.5 -14.5t-33 -39.5t-17.5 -59t-5 -73t5 -73t17.5 -59t33 -39.5t51.5 -14.5q26 0 47.5 16t38.5 42t29 59.5t19 68.5z" />
    <glyph glyph-name="beta" unicode="&#x3b2;" horiz-adv-x="544" 
d="M165 25v-223h-84v688q0 110 47 162.5t132 52.5q45 0 79.5 -14.5t57 -39t34 -58.5t11.5 -73q0 -31 -7.5 -54t-19.5 -40.5t-26.5 -29.5t-28.5 -20v-2q23 -7 46.5 -21t42.5 -36t31 -53.5t12 -72.5q0 -48 -16 -86t-43 -64.5t-63.5 -41t-77.5 -14.5q-42 0 -74.5 13t-50.5 27
h-2zM165 97q20 -18 49 -30t74 -12q55 0 87.5 38.5t32.5 96.5q0 66 -33.5 105.5t-109.5 39.5h-37v65h42q45 0 67 33t22 81q0 25 -6.5 47t-19 38.5t-30.5 26t-40 9.5q-50 0 -74 -37t-24 -115v-386z" />
    <glyph glyph-name="gamma" unicode="&#x3b3;" horiz-adv-x="478" 
d="M190 -198v203l-160 467v10h82l92 -287l28 -108h2q6 10 11.5 24t11 28.5t10.5 28.5t10 25q31 69 52 141.5t32 147.5h81v-10q-17 -109 -60.5 -225.5t-109.5 -243.5v-201h-82z" />
    <glyph glyph-name="delta" unicode="&#x3b4;" horiz-adv-x="538" 
d="M396 623q-18 5 -42.5 8.5t-47.5 3.5q-42 0 -59 -17t-17 -42q0 -23 19 -45t47.5 -45.5t61.5 -50t61.5 -59t47.5 -71.5t19 -88q0 -44 -12.5 -85.5t-38.5 -74t-68 -52.5t-100 -20q-57 0 -98 19.5t-66.5 52t-37.5 73.5t-12 84q0 88 42 147t112 94q-26 23 -42.5 50t-16.5 62
q0 34 12 60t33 43.5t50 26t64 8.5q10 0 22 -1t24 -2.5t23.5 -3.5t19.5 -4v-71zM402 217q0 34 -13 62.5t-33 53t-46 46t-51 41.5q-23 -14 -45.5 -34.5t-39.5 -46.5t-27.5 -57.5t-10.5 -67.5q0 -28 7 -56t22.5 -51t40.5 -37.5t61 -14.5q37 0 63 15t42 38t23 52t7 57z" />
    <glyph glyph-name="epsilon" unicode="&#x3b5;" horiz-adv-x="458" 
d="M346 214h-120q-38 0 -62.5 -18.5t-24.5 -53.5q0 -42 29.5 -64.5t83.5 -22.5q40 0 76 7t71 23l19 -63q-30 -17 -71.5 -27t-94.5 -10q-47 0 -83.5 10.5t-62 29.5t-39 46t-13.5 59q0 46 20.5 75.5t58.5 43.5v2q-28 11 -46.5 38t-18.5 68q0 62 43.5 101t135.5 39
q43 0 84.5 -9t73.5 -24l-17 -63q-35 12 -69 19t-71 7q-28 0 -46.5 -6.5t-29 -17.5t-15 -26t-4.5 -31q0 -17 7 -29t18 -20t25 -12t28 -4h115v-67z" />
    <glyph glyph-name="zeta" unicode="&#x3b6;" horiz-adv-x="426" 
d="M402 700v-61q-74 -96 -125.5 -164.5t-83.5 -118.5t-46.5 -86t-14.5 -67q0 -38 18 -60.5t44.5 -37.5t57.5 -26t57.5 -26.5t44.5 -39t18 -62.5q0 -45 -21.5 -75.5t-50.5 -51.5l-56 48q12 8 28.5 26.5t16.5 42.5q0 20 -18 32.5t-44.5 24t-58 25t-58 35.5t-44.5 56t-18 87
q0 40 18 83.5t52 94.5t81.5 113t107.5 139v2h-243v67h338z" />
    <glyph glyph-name="eta" unicode="&#x3b7;" horiz-adv-x="546" 
d="M139 482l10 -44h2q10 8 26.5 18t37.5 19t45 15.5t48 6.5q75 0 118 -45.5t43 -137.5v-512h-82v498q0 63 -24.5 95t-75.5 32q-17 0 -35 -4t-35 -10.5t-31 -14t-23 -14.5v-384h-82v482h58z" />
    <glyph glyph-name="theta" unicode="&#x3b8;" horiz-adv-x="561" 
d="M501 345q0 -82 -12 -148.5t-38.5 -113.5t-68 -72.5t-101.5 -25.5t-102 25.5t-69 72.5t-39 113.5t-12 148.5t12 148.5t39 113.5t69 72.5t102 25.5t101.5 -25.5t68 -72.5t38.5 -113.5t12 -148.5zM281 635q-37 0 -62.5 -19t-41.5 -53.5t-24 -83t-10 -107.5h273
q-2 59 -9 107.5t-23 83t-41 53.5t-62 19zM281 55q36 0 60.5 18t40.5 51t24 79t10 102h-272q2 -56 10 -102t24.5 -79t41.5 -51t61 -18z" />
    <glyph glyph-name="iota" unicode="&#x3b9;" horiz-adv-x="268" 
d="M164 482v-373q0 -32 10 -43t30 -11q8 0 19.5 2t16.5 4v-68q-13 -4 -30.5 -6t-31.5 -2q-44 0 -70 29.5t-26 95.5v372h82z" />
    <glyph glyph-name="kappa" unicode="&#x3ba;" horiz-adv-x="475" 
d="M162 217v-217h-81v482h81v-234h2l183 234h92v-7l-191 -238l201 -230v-7h-97l-188 217h-2z" />
    <glyph glyph-name="lambda" unicode="&#x3bb;" horiz-adv-x="480" 
d="M450 0h-81l-85 256l-38 134h-3l-40 -132l-92 -258h-82v10l177 467l-30 91q-9 26 -23 46.5t-39 20.5q-11 0 -23 -2t-24 -5v67q14 5 28.5 7.5t32.5 2.5q26 0 45 -8t33 -23t24.5 -36t18.5 -46l201 -582v-10z" />
    <glyph glyph-name="uni03BC" unicode="&#x3bc;" horiz-adv-x="544" 
d="M82 -198v680h82v-300q0 -63 22.5 -95t73.5 -32q17 0 35 4t34 10.5t30 14t23 14.5v384h82v-482h-58l-9 44h-2q-11 -8 -27.5 -18t-36.5 -19t-43.5 -15.5t-47.5 -6.5q-22 0 -43 7t-41 21l8 -72v-139h-82z" />
    <glyph glyph-name="nu" unicode="&#x3bd;" horiz-adv-x="477" 
d="M442 472q-17 -110 -61 -227t-111 -245h-78l-162 472v10h82l90 -287l28 -108h2q6 11 12 25t11.5 28.5l11 29t10.5 25.5q31 69 52 141t32 146h81v-10z" />
    <glyph glyph-name="xi" unicode="&#x3be;" horiz-adv-x="452" 
d="M146 633h-91v67h357v-67h-130q-33 0 -57.5 -11t-40 -29t-23 -40.5t-7.5 -46.5q0 -23 7.5 -45.5t23 -40.5t39.5 -29t57 -11h81v-67h-73q-44 0 -73 -10.5t-46 -27.5t-24.5 -39.5t-7.5 -46.5q0 -38 20 -60t50.5 -36t65.5 -23.5t65.5 -23t50.5 -35t20 -57.5q0 -45 -23 -77
t-54 -53l-55 48q6 4 14 11t15.5 16t13 19.5t5.5 22.5q0 20 -20 32t-50.5 22.5t-65.5 22.5t-65.5 32t-50.5 51.5t-20 80.5q0 63 30 106.5t78 62.5v2q-17 7 -33 21.5t-29.5 34t-21.5 43t-8 49.5q0 46 20.5 79t55.5 51v2z" />
    <glyph glyph-name="omicron" unicode="&#x3bf;" horiz-adv-x="545" 
d="M138 241q0 -37 7 -71t22.5 -59.5t41 -40.5t62.5 -15t63 15t42.5 40.5t23.5 59.5t7 71t-7 71t-23.5 59.5t-42.5 40.5t-63 15t-62.5 -15t-41 -40.5t-22.5 -59.5t-7 -71zM491 241q0 -53 -12.5 -99.5t-39 -81t-68 -55t-100.5 -20.5q-58 0 -99 20.5t-67.5 55t-38.5 81
t-12 99.5q0 52 12 99t38.5 81.5t67.5 55t99 20.5q59 0 100.5 -20.5t68 -55t39 -81.5t12.5 -99z" />
    <glyph glyph-name="pi" unicode="&#x3c0;" horiz-adv-x="546" 
d="M516 482v-67h-87v-306q0 -32 10.5 -43t29.5 -11q9 0 20 2t16 4v-68q-13 -4 -30 -6t-31 -2q-45 0 -71 29.5t-26 95.5v305h-157v-415h-82v415h-88v67h496z" />
    <glyph glyph-name="rho" unicode="&#x3c1;" horiz-adv-x="540" 
d="M159 102q20 -20 44 -33.5t65 -13.5q37 0 63 15.5t41.5 41t22.5 59.5t7 70t-7 70t-22 59.5t-39.5 41t-59.5 15.5q-51 0 -83 -41.5t-32 -124.5v-159zM75 -198v454q0 66 16 111.5t43.5 74.5t63.5 42t76 13q57 0 97 -20.5t65.5 -55t37.5 -81.5t12 -99q0 -53 -11.5 -99.5
t-35.5 -81t-60.5 -55t-87.5 -20.5q-45 0 -78.5 15t-51.5 30h-2v-228h-84z" />
    <glyph glyph-name="sigma1" unicode="&#x3c2;" horiz-adv-x="435" 
d="M385 401q-20 9 -52 17.5t-64 8.5q-35 0 -60 -16.5t-41 -43t-24 -60t-8 -66.5q0 -42 18.5 -69t45.5 -46t59.5 -34t59.5 -33t45.5 -42.5t18.5 -62.5q0 -45 -22 -77t-51 -53l-55 48q6 4 13.5 11t14 16t11.5 19.5t5 22.5q0 23 -18 39.5t-45.5 31.5t-59.5 32t-59.5 42.5
t-45.5 62.5t-18 92q0 57 14.5 104t42 80.5t67.5 52.5t91 19q35 0 72 -10.5t66 -24.5l-21 -61v0z" />
    <glyph glyph-name="sigma" unicode="&#x3c3;" horiz-adv-x="551" 
d="M403 413q21 -14 36.5 -34t26.5 -43.5t16.5 -50t5.5 -51.5q0 -51 -12.5 -96.5t-38.5 -79.5t-68 -53.5t-100 -19.5q-57 0 -98 19.5t-66.5 53.5t-37.5 79.5t-12 96.5t12 96.5t37.5 79t66.5 53t98 19.5h232v-67h-98v-2zM138 234q0 -36 7 -68.5t22.5 -57t40.5 -39t61 -14.5
q37 0 63 14.5t42 39t23 57t7 68.5t-7 68.5t-23 56.5t-42 38.5t-63 14.5q-36 0 -61 -14.5t-40.5 -38.5t-22.5 -56.5t-7 -68.5z" />
    <glyph glyph-name="tau" unicode="&#x3c4;" horiz-adv-x="436" 
d="M400 482v-67h-154v-303q0 -30 12.5 -43.5t35.5 -13.5q19 0 39 4.5t30 7.5v-68q-14 -4 -36.5 -9t-50.5 -5q-54 0 -83 30.5t-29 88.5v311h-133v67h369z" />
    <glyph glyph-name="upsilon" unicode="&#x3c5;" horiz-adv-x="523" 
d="M157 208q0 -78 29 -115.5t83 -37.5t83.5 45.5t29.5 143.5q0 57 -14.5 120.5t-33.5 117.5h88q7 -24 14.5 -52.5t13.5 -59.5t10 -63t4 -63q0 -134 -51.5 -196.5t-143.5 -62.5q-93 0 -143.5 55t-50.5 164v278h82v-274z" />
    <glyph glyph-name="phi" unicode="&#x3c6;" horiz-adv-x="640" 
d="M201 482q-14 -27 -25.5 -57t-19.5 -60t-13 -59.5t-5 -55.5q0 -36 6.5 -69t22.5 -60t42.5 -45.5t66.5 -23.5v245q0 97 36 148.5t108 51.5q43 0 74 -19t51 -51.5t29.5 -76.5t9.5 -93q0 -54 -12 -100.5t-38.5 -82t-69.5 -57.5t-106 -28v-187h-82v187q-62 5 -104 27.5
t-67.5 57t-37 79.5t-11.5 96q0 29 5 60t12.5 61.5t17.5 59t20 52.5h90zM358 53q41 6 68.5 23.5t44 44.5t23 61.5t6.5 73.5q0 32 -4.5 62.5t-14 54.5t-24.5 39t-37 15q-20 0 -32.5 -8.5t-19 -25t-8.5 -40.5t-2 -55v-245z" />
    <glyph glyph-name="chi" unicode="&#x3c7;" horiz-adv-x="484" 
d="M112 482l92 -188l39 -101h3l40 103l91 186h82v-10l-166 -330l166 -330v-10h-81l-91 184l-41 104h-3l-41 -104l-90 -184h-82v10l166 330l-166 330v10h82z" />
    <glyph glyph-name="psi" unicode="&#x3c8;" horiz-adv-x="657" 
d="M373 53q31 0 58 11.5t46 35t30 59.5t11 85q0 57 -16.5 120.5t-38.5 117.5h90q8 -24 16.5 -52.5t15 -59.5t11 -63t4.5 -63q0 -67 -17 -115.5t-47 -79.5t-72 -46t-91 -15v-186h-82v186q-98 0 -156.5 54t-58.5 162v278h81v-270q0 -78 36.5 -118.5t97.5 -40.5v647h82v-647z
" />
    <glyph glyph-name="omega" unicode="&#x3c9;" horiz-adv-x="771" 
d="M642 482q16 -24 29.5 -52.5t23 -59.5t14.5 -63t5 -63q0 -134 -48.5 -196.5t-135.5 -62.5q-49 0 -85 24t-58 71h-2q-23 -47 -59.5 -71t-84.5 -24q-87 0 -136 62.5t-49 196.5q0 31 5.5 63t15 63t23 59.5t29.5 52.5h88v-10q-36 -54 -57.5 -113t-21.5 -115q0 -98 27.5 -143.5
t75.5 -45.5q50 0 77 37.5t27 115.5v151h82v-151q0 -78 27 -115.5t76 -37.5t75.5 45.5t26.5 143.5q0 56 -21.5 115t-56.5 113v10h88z" />
    <glyph glyph-name="iotadieresis" unicode="&#x3ca;" horiz-adv-x="268" 
d="M164 482v-373q0 -32 10 -43t30 -11q8 0 19.5 2t16.5 4v-68q-13 -4 -30.5 -6t-31.5 -2q-44 0 -70 29.5t-26 95.5v372h82zM164 633q0 25 14 40t38 15q25 0 39 -15t14 -40q0 -26 -14 -40.5t-39 -14.5q-24 0 -38 14.5t-14 40.5zM-19 633q0 25 14 40t38 15q25 0 39 -15t14 -40
q0 -26 -14 -40.5t-39 -14.5q-24 0 -38 14.5t-14 40.5z" />
    <glyph glyph-name="upsilondieresis" unicode="&#x3cb;" horiz-adv-x="523" 
d="M157 208q0 -78 29 -115.5t83 -37.5t83.5 45.5t29.5 143.5q0 57 -14.5 120.5t-33.5 117.5h88q7 -24 14.5 -52.5t13.5 -59.5t10 -63t4 -63q0 -134 -51.5 -196.5t-143.5 -62.5q-93 0 -143.5 55t-50.5 164v278h82v-274zM297 633q0 25 14 40t38 15q25 0 39 -15t14 -40
q0 -26 -14 -40.5t-39 -14.5q-24 0 -38 14.5t-14 40.5zM114 633q0 25 14 40t38 15q25 0 39 -15t14 -40q0 -26 -14 -40.5t-39 -14.5q-24 0 -38 14.5t-14 40.5z" />
    <glyph glyph-name="omicrontonos" unicode="&#x3cc;" horiz-adv-x="545" 
d="M138 241q0 -37 7 -71t22.5 -59.5t41 -40.5t62.5 -15t63 15t42.5 40.5t23.5 59.5t7 71t-7 71t-23.5 59.5t-42.5 40.5t-63 15t-62.5 -15t-41 -40.5t-22.5 -59.5t-7 -71zM491 241q0 -53 -12.5 -99.5t-39 -81t-68 -55t-100.5 -20.5q-58 0 -99 20.5t-67.5 55t-38.5 81
t-12 99.5q0 52 12 99t38.5 81.5t67.5 55t99 20.5q59 0 100.5 -20.5t68 -55t39 -81.5t12.5 -99zM359 700l-50 -141h-62v10l29 141h83v-10z" />
    <glyph glyph-name="upsilontonos" unicode="&#x3cd;" horiz-adv-x="523" 
d="M157 208q0 -78 29 -115.5t83 -37.5t83.5 45.5t29.5 143.5q0 57 -14.5 120.5t-33.5 117.5h88q7 -24 14.5 -52.5t13.5 -59.5t10 -63t4 -63q0 -134 -51.5 -196.5t-143.5 -62.5q-93 0 -143.5 55t-50.5 164v278h82v-274zM341 700l-50 -141h-62v10l29 141h83v-10z" />
    <glyph glyph-name="omegatonos" unicode="&#x3ce;" horiz-adv-x="771" 
d="M642 482q16 -24 29.5 -52.5t23 -59.5t14.5 -63t5 -63q0 -134 -48.5 -196.5t-135.5 -62.5q-49 0 -85 24t-58 71h-2q-23 -47 -59.5 -71t-84.5 -24q-87 0 -136 62.5t-49 196.5q0 31 5.5 63t15 63t23 59.5t29.5 52.5h88v-10q-36 -54 -57.5 -113t-21.5 -115q0 -98 27.5 -143.5
t75.5 -45.5q50 0 77 37.5t27 115.5v151h82v-151q0 -78 27 -115.5t76 -37.5t75.5 45.5t26.5 143.5q0 56 -21.5 115t-56.5 113v10h88zM471 700l-50 -141h-62v10l29 141h83v-10z" />
    <glyph glyph-name="uni0400" unicode="&#x400;" horiz-adv-x="557" 
d="M493 680v-74h-313v-222h284v-74h-284v-236h316v-74h-400v680h397zM192 883h90l60 -121v-10h-71l-79 121v10z" />
    <glyph glyph-name="uni0401" unicode="&#x401;" horiz-adv-x="557" 
d="M493 680v-74h-313v-222h284v-74h-284v-236h316v-74h-400v680h397zM146 816q0 25 14 40t38 15q25 0 39 -15t14 -40q0 -26 -14 -40.5t-39 -14.5q-24 0 -38 14.5t-14 40.5zM349 816q0 25 14 40t38 15q25 0 39 -15t14 -40q0 -26 -14 -40.5t-39 -14.5q-24 0 -38 14.5t-14 40.5
z" />
    <glyph glyph-name="uni0402" unicode="&#x402;" horiz-adv-x="649" 
d="M417 -57q22 27 40.5 56.5t32 61t21 64t7.5 64.5q0 33 -8.5 59t-25 44.5t-39.5 28.5t-52 10q-35 0 -70.5 -8t-70.5 -19v-304h-83v606h-135v74h412v-74h-194v-228q32 11 73 19t81 8q47 0 84 -14t62.5 -41.5t39 -68t13.5 -92.5q0 -44 -10.5 -83.5t-28 -76.5t-41 -71
t-49.5 -66z" />
    <glyph glyph-name="uni0403" unicode="&#x403;" horiz-adv-x="524" 
d="M490 680v-74h-310v-606h-84v680h394zM413 873l-79 -121h-71v10l60 121h90v-10z" />
    <glyph glyph-name="uni0404" unicode="&#x404;" horiz-adv-x="565" 
d="M62 340q0 79 19 144.5t55.5 112.5t90.5 72.5t124 25.5q40 0 82.5 -11.5t84.5 -32.5l-23 -64q-39 19 -74 25.5t-70 6.5q-48 0 -84.5 -17t-61 -48.5t-38.5 -75.5t-17 -99h272v-75h-272q3 -56 16.5 -100.5t38 -76.5t61 -49t85.5 -17q35 0 70 6.5t74 25.5l23 -64
q-42 -21 -84.5 -32.5t-82.5 -11.5q-70 0 -124 25.5t-90.5 72.5t-55.5 112t-19 145z" />
    <glyph glyph-name="uni0405" unicode="&#x405;" horiz-adv-x="505" 
d="M88 123q32 -29 71.5 -45.5t90.5 -16.5q52 0 84 29.5t32 85.5q0 43 -24 69.5t-78 49.5l-57 24q-63 27 -103.5 71t-40.5 111q0 39 13.5 74.5t40 62t64 42t85.5 15.5q53 0 95.5 -14.5t76.5 -37.5l-36 -66q-32 20 -67 31t-73 11q-56 0 -84 -33t-28 -79q0 -34 18 -60t68 -47
l57 -25q37 -16 66.5 -34t50.5 -41.5t32 -52.5t11 -66q0 -43 -14.5 -79t-41 -62t-64 -40.5t-83.5 -14.5q-64 0 -112.5 20t-88.5 52z" />
    <glyph glyph-name="uni0406" unicode="&#x406;" horiz-adv-x="276" 
d="M180 0h-84v680h84v-680z" />
    <glyph glyph-name="uni0407" unicode="&#x407;" horiz-adv-x="276" 
d="M180 0h-84v680h84v-680zM-15 816q0 25 14 40t38 15q25 0 39 -15t14 -40q0 -26 -14 -40.5t-39 -14.5q-24 0 -38 14.5t-14 40.5zM188 816q0 25 14 40t38 15q25 0 39 -15t14 -40q0 -26 -14 -40.5t-39 -14.5q-24 0 -38 14.5t-14 40.5z" />
    <glyph glyph-name="uni0408" unicode="&#x408;" horiz-adv-x="444" 
d="M67 113q20 -18 43.5 -35t62.5 -17q22 0 40 7t30.5 24t19 45.5t6.5 71.5v471h84v-478q0 -113 -48.5 -165t-131.5 -52q-46 0 -84.5 22.5t-63.5 50.5z" />
    <glyph glyph-name="uni0409" unicode="&#x409;" horiz-adv-x="900" 
d="M504 680v-276h143q98 0 150.5 -52t52.5 -150q0 -96 -52.5 -149t-150.5 -53h-227v606h-204l-9 -239q-4 -87 -10.5 -149t-17 -104t-25.5 -66.5t-35 -37.5t-45.5 -16.5t-56.5 -3.5v74q26 0 45 7.5t32 38t21 91t12 166.5l12 313h365zM504 74h134q58 0 92 31t34 97t-33.5 97
t-92.5 31h-134v-256z" />
    <glyph glyph-name="uni040A" unicode="&#x40a;" horiz-adv-x="931" 
d="M534 680v-276h144q97 0 150 -52.5t53 -150.5q0 -96 -53 -148.5t-150 -52.5h-227v330h-271v-330h-84v680h84v-276h271v276h83zM534 74h135q58 0 92 30.5t34 96.5q0 33 -9 57.5t-25.5 40t-39.5 23.5t-52 8h-135v-256z" />
    <glyph glyph-name="uni040B" unicode="&#x40b;" horiz-adv-x="669" 
d="M524 0v261q0 62 -28.5 95t-91.5 33q-20 0 -42 -3.5t-42.5 -8t-38 -9.5t-28.5 -8v-360h-84v606h-135v74h412v-74h-193v-170q25 8 69 17.5t99 9.5q85 0 136 -44.5t51 -135.5v-283h-84z" />
    <glyph glyph-name="uni040C" unicode="&#x40c;" horiz-adv-x="571" 
d="M180 311v-311h-84v680h84v-335h2l258 335h97v-10l-270 -337l282 -323v-10h-105l-262 311h-2zM401 873l-79 -121h-71v10l60 121h90v-10z" />
    <glyph glyph-name="uni040D" unicode="&#x40d;" horiz-adv-x="665" 
d="M174 126l304 554h91v-680h-84v427l8 127h-2l-304 -554h-91v680h84v-427l-8 -127h2zM224 883h90l60 -121v-10h-71l-79 121v10z" />
    <glyph glyph-name="uni040E" unicode="&#x40e;" horiz-adv-x="520" 
d="M501 670l-200 -519q-15 -40 -32.5 -68.5t-39.5 -47t-50 -27t-65 -8.5h-35v75h26q42 0 66.5 19.5t44.5 69.5l15 35l-204 471v10h87l104 -251l54 -151h3l48 151l92 251h86v-10zM278 838q38 0 65.5 10.5t44.5 21.5l23 -52q-11 -11 -25 -20.5t-30.5 -17.5t-36 -12.5
t-41.5 -4.5t-41 4.5t-35.5 12.5t-30.5 17.5t-25 20.5l23 52q17 -11 44 -21.5t65 -10.5z" />
    <glyph glyph-name="uni040F" unicode="&#x40f;" horiz-adv-x="657" 
d="M295 -141l-8 141h-191v680h84v-606h297v606h84v-680h-193l-7 -141h-66z" />
    <glyph glyph-name="uni0410" unicode="&#x410;" horiz-adv-x="595" 
d="M576 0h-88l-57 176h-267l-58 -176h-87l236 680h85zM297 595l-53 -184l-55 -165h216l-53 165l-53 184h-2z" />
    <glyph glyph-name="uni0411" unicode="&#x411;" horiz-adv-x="579" 
d="M489 680v-74h-309v-203h143q98 0 150.5 -52t52.5 -150q0 -96 -52.5 -148.5t-150.5 -52.5h-227v680h393zM180 74h134q58 0 92 30.5t34 96.5q0 33 -8.5 57t-25 40t-40 23.5t-52.5 7.5h-134v-255z" />
    <glyph glyph-name="uni0412" unicode="&#x412;" horiz-adv-x="593" 
d="M180 74h146q58 0 91 26t33 89q0 64 -33.5 89t-91.5 25h-145v-229zM301 680q104 0 157 -43t53 -131q0 -60 -24 -100t-58 -53v-2q51 -17 79.5 -58.5t28.5 -109.5q0 -86 -52.5 -134.5t-149.5 -48.5h-239v680h205zM180 377h115q31 0 55 5t40.5 18t25 35t8.5 56q0 67 -32 91
t-97 24h-115v-229z" />
    <glyph glyph-name="uni0413" unicode="&#x413;" horiz-adv-x="524" 
d="M490 680v-74h-310v-606h-84v680h394z" />
    <glyph glyph-name="uni0414" unicode="&#x414;" horiz-adv-x="645" 
d="M30 -141l-12 215h45q19 26 33.5 54.5t25.5 65t18 84t11 113.5l16 289h368v-606h55l-12 -215h-65l-7 141h-403l-8 -141h-65zM451 74v532h-206l-14 -221q-4 -65 -10.5 -114t-15.5 -85.5t-21 -63.5t-28 -48h295z" />
    <glyph glyph-name="uni0415" unicode="&#x415;" horiz-adv-x="557" 
d="M493 680v-74h-313v-222h284v-74h-284v-236h316v-74h-400v680h397z" />
    <glyph glyph-name="uni0416" unicode="&#x416;" horiz-adv-x="859" 
d="M386 310l-260 -310h-104v10l273 323l-261 337v10h99l253 -334h1v334h84v-334h2l252 334h99v-10l-261 -337l274 -323v-10h-105l-259 310h-2v-310h-84v310h-1z" />
    <glyph glyph-name="uni0417" unicode="&#x417;" horiz-adv-x="508" 
d="M129 385h109q30 0 51.5 9t35 25t20 37t6.5 44t-7 44.5t-21.5 38t-35.5 26.5t-49 10q-42 0 -79.5 -9t-75.5 -26l-26 66q35 20 84.5 32.5t97.5 12.5q96 0 147.5 -51.5t51.5 -138.5q0 -27 -7.5 -51.5t-20 -44.5t-28 -34.5t-30.5 -21.5v-2q45 -19 73 -62.5t28 -106.5
q0 -45 -16 -81t-45.5 -62t-70 -40t-88.5 -14q-60 0 -108.5 14t-83.5 37l29 66q39 -22 78 -31.5t84 -9.5q28 0 52.5 8.5t42.5 25t28.5 39.5t10.5 53q0 25 -6.5 47t-21.5 38.5t-40.5 26.5t-64.5 10h-104v76z" />
    <glyph glyph-name="uni0418" unicode="&#x418;" horiz-adv-x="665" 
d="M174 126l304 554h91v-680h-84v427l8 127h-2l-304 -554h-91v680h84v-427l-8 -127h2z" />
    <glyph glyph-name="uni0419" unicode="&#x419;" horiz-adv-x="665" 
d="M349 838q38 0 65.5 10.5t44.5 21.5l23 -52q-11 -11 -25 -20.5t-30.5 -17.5t-36 -12.5t-41.5 -4.5t-41 4.5t-35.5 12.5t-30.5 17.5t-25 20.5l23 52q17 -11 44 -21.5t65 -10.5zM174 126l304 554h91v-680h-84v427l8 127h-2l-304 -554h-91v680h84v-427l-8 -127h2z" />
    <glyph glyph-name="uni041A" unicode="&#x41a;" horiz-adv-x="571" 
d="M180 311v-311h-84v680h84v-335h2l258 335h97v-10l-270 -337l282 -323v-10h-105l-262 311h-2z" />
    <glyph glyph-name="uni041B" unicode="&#x41b;" horiz-adv-x="636" 
d="M456 606h-240l-9 -239q-4 -87 -10.5 -149t-17.5 -104t-26 -66.5t-35 -37.5t-45 -16.5t-56 -3.5v74q26 0 45 7.5t32 38t21 91t12 166.5l12 313h401v-680h-84v606z" />
    <glyph glyph-name="uni041C" unicode="&#x41c;" horiz-adv-x="804" 
d="M402 258l55 128l171 294h80v-680h-84v427l10 117h-2l-199 -373h-62l-199 373h-2l10 -117v-427h-84v680h80l170 -294l55 -128h1z" />
    <glyph glyph-name="uni041D" unicode="&#x41d;" horiz-adv-x="670" 
d="M490 310h-310v-310h-84v680h84v-296h310v296h84v-680h-84v310z" />
    <glyph glyph-name="uni041E" unicode="&#x41e;" horiz-adv-x="680" 
d="M150 340q0 -58 9.5 -108.5t31.5 -88.5t58.5 -60t91.5 -22t91 22t58 60t31 88.5t9 108.5t-9 108.5t-31 88.5t-58 60t-91 22t-91.5 -22t-58.5 -60t-31.5 -88.5t-9.5 -108.5zM617 340q0 -75 -15.5 -140t-48.5 -113t-85.5 -75t-126.5 -27t-127 27t-86.5 75t-49 113t-15.5 140
t15.5 140t49 113t86.5 75t127 27t126.5 -27t85.5 -75t48.5 -113t15.5 -140z" />
    <glyph glyph-name="uni041F" unicode="&#x41f;" horiz-adv-x="666" 
d="M486 606h-306v-606h-84v680h474v-680h-84v606z" />
    <glyph glyph-name="uni0420" unicode="&#x420;" horiz-adv-x="562" 
d="M96 0v680h214q51 0 90 -14t65.5 -40.5t40 -65t13.5 -87.5t-14 -87.5t-40.5 -65t-65.5 -40.5t-89 -14h-129v-266h-85zM181 340h122q66 0 97.5 37t31.5 96q0 58 -31.5 95.5t-97.5 37.5h-122v-266z" />
    <glyph glyph-name="uni0421" unicode="&#x421;" horiz-adv-x="569" 
d="M62 340q0 79 19 144.5t55.5 112.5t90.5 72.5t124 25.5q40 0 82.5 -11.5t84.5 -32.5l-23 -64q-39 19 -74 25.5t-70 6.5q-53 0 -91 -20t-62.5 -56.5t-36.5 -88t-12 -114.5t12 -114.5t36.5 -88t62.5 -56.5t91 -20q35 0 70 6.5t74 25.5l23 -64q-42 -21 -84.5 -32.5
t-82.5 -11.5q-70 0 -124 25.5t-90.5 72.5t-55.5 112t-19 145z" />
    <glyph glyph-name="uni0422" unicode="&#x422;" horiz-adv-x="523" 
d="M487 680v-74h-183v-606h-86v606h-182v74h451z" />
    <glyph glyph-name="uni0423" unicode="&#x423;" horiz-adv-x="520" 
d="M501 670l-200 -519q-15 -40 -32.5 -68.5t-39.5 -47t-50 -27t-65 -8.5h-35v75h26q42 0 66.5 19.5t44.5 69.5l15 35l-204 471v10h87l104 -251l54 -151h3l48 151l92 251h86v-10z" />
    <glyph glyph-name="uni0424" unicode="&#x424;" horiz-adv-x="746" 
d="M402 617q74 -5 127 -28t86.5 -59.5t49.5 -85t16 -103.5q0 -56 -16 -104t-49.5 -85t-86.5 -60t-127 -28v-64h-83v64q-75 5 -126.5 28t-83.5 60t-46.5 85t-14.5 104q0 55 14.5 103.5t46.5 85t83.5 59.5t126.5 28v63h83v-63zM135 341q0 -41 9 -76.5t30 -63t56.5 -45
t88.5 -21.5v412q-53 -5 -88.5 -22.5t-56.5 -44.5t-30 -62.5t-9 -76.5zM594 341q0 41 -10 76.5t-33 62.5t-59.5 44.5t-89.5 22.5v-412q53 4 89.5 21.5t59.5 45t33 63t10 76.5z" />
    <glyph glyph-name="uni0425" unicode="&#x425;" horiz-adv-x="553" 
d="M123 680l152 -279h2l153 279h90v-10l-191 -330l191 -330v-10h-90l-153 278h-2l-152 -278h-90v10l190 330l-190 330v10h90z" />
    <glyph glyph-name="uni0426" unicode="&#x426;" horiz-adv-x="671" 
d="M539 -141l-7 141h-436v680h84v-606h297v606h84v-606h55l-12 -215h-65z" />
    <glyph glyph-name="uni0427" unicode="&#x427;" horiz-adv-x="605" 
d="M154 680v-291q0 -62 28.5 -95t91.5 -33q20 0 42 3.5t42.5 8t38 9.5t28.5 8v390h84v-680h-84v214q-25 -8 -69 -17.5t-99 -9.5q-85 0 -136 44.5t-51 135.5v313h84z" />
    <glyph glyph-name="uni0428" unicode="&#x428;" horiz-adv-x="948" 
d="M96 0v680h84v-606h252v606h84v-606h252v606h84v-680h-756z" />
    <glyph glyph-name="uni0429" unicode="&#x429;" horiz-adv-x="963" 
d="M830 -141l-7 141h-727v680h84v-606h252v606h84v-606h252v606h84v-606h56l-12 -215h-66z" />
    <glyph glyph-name="uni042A" unicode="&#x42a;" horiz-adv-x="642" 
d="M34 680h211v-275h144q97 0 150 -52.5t53 -150.5q0 -96 -53 -149t-150 -53h-228v606h-127v74zM245 74h135q57 0 91 31t34 97t-33.5 97.5t-91.5 31.5h-135v-257z" />
    <glyph glyph-name="uni042B" unicode="&#x42b;" horiz-adv-x="791" 
d="M695 0h-84v680h84v-680zM96 680h84v-275h144q97 0 150 -52.5t53 -150.5q0 -96 -53 -149t-150 -53h-228v680zM180 74h135q57 0 91 31t34 97t-33.5 97.5t-91.5 31.5h-135v-257z" />
    <glyph glyph-name="uni042C" unicode="&#x42c;" horiz-adv-x="577" 
d="M96 680h84v-275h144q97 0 150 -52.5t53 -150.5q0 -96 -53 -149t-150 -53h-228v680zM180 74h135q57 0 91 31t34 97t-33.5 97.5t-91.5 31.5h-135v-257z" />
    <glyph glyph-name="uni042D" unicode="&#x42d;" horiz-adv-x="569" 
d="M507 340q0 -80 -19 -145t-55.5 -112t-90.5 -72.5t-124 -25.5q-40 0 -82.5 11.5t-84.5 32.5l23 64q39 -19 74 -25.5t70 -6.5q49 0 85 17t61 49t38.5 76.5t16.5 100.5h-272v75h272q-3 55 -17 99t-38.5 75.5t-61 48.5t-84.5 17q-35 0 -70 -6.5t-74 -25.5l-23 64
q42 21 84.5 32.5t82.5 11.5q70 0 124 -25.5t90.5 -72.5t55.5 -112.5t19 -144.5z" />
    <glyph glyph-name="uni042E" unicode="&#x42e;" horiz-adv-x="926" 
d="M863 340q0 -75 -15.5 -140t-48.5 -113t-85.5 -75t-126.5 -27q-71 0 -122 24.5t-84.5 68t-51 103t-20.5 129.5h-129v-310h-84v680h84v-296h130q4 67 22 124t51.5 98.5t84 65t119.5 23.5q74 0 126.5 -27t85.5 -75t48.5 -113t15.5 -140zM396 340q0 -58 9.5 -108.5
t31.5 -88.5t58.5 -60t91.5 -22t91 22t58 60t31 88.5t9 108.5t-9 108.5t-31 88.5t-58 60t-91 22t-91.5 -22t-58.5 -60t-31.5 -88.5t-9.5 -108.5z" />
    <glyph glyph-name="uni042F" unicode="&#x42f;" horiz-adv-x="611" 
d="M431 0v287h-113l-190 -287h-92v16l188 276q-69 13 -109 62t-40 129q0 96 55 146.5t150 50.5h235v-680h-84zM431 361v245h-146q-60 0 -91.5 -33t-31.5 -90t31.5 -89.5t91.5 -32.5h146z" />
    <glyph glyph-name="uni0430" unicode="&#x430;" horiz-adv-x="494" 
d="M244 224q-53 0 -83 -22.5t-30 -70.5q0 -35 19 -55.5t60 -20.5q33 0 63.5 7.5t61.5 33.5v128h-91zM357 0l-8 44h-2q-31 -25 -70 -42t-85 -17q-66 0 -105.5 38t-39.5 108q0 46 16.5 75.5t43.5 46t61 23t69 6.5h98v31q0 24 -6 45t-18.5 36.5t-32 24t-46.5 8.5
q-34 0 -68 -10.5t-60 -30.5l-34 57q31 24 72.5 39t92.5 15q92 0 137 -50t45 -136v-311h-60z" />
    <glyph glyph-name="uni0431" unicode="&#x431;" horiz-adv-x="554" 
d="M147 366q11 14 25 28t32.5 25.5t42.5 18.5t55 7q45 0 81 -16.5t62 -46t40 -71.5t14 -93q0 -49 -14.5 -91.5t-42 -74t-68.5 -49.5t-93 -18q-107 0 -163 74t-56 208q0 66 3 129.5t20.5 117.5t54.5 95.5t105 64.5q25 9 57.5 14.5t65 9.5t60.5 7.5t46 7.5v-75
q-18 -3 -44 -5.5t-55 -6t-58 -9.5t-53 -15q-35 -14 -57.5 -34t-36.5 -48.5t-19.5 -66t-5.5 -85.5zM416 218q0 34 -9.5 63t-27.5 50t-43 32.5t-55 11.5q-31 0 -56 -11.5t-43 -32.5t-27.5 -50t-9.5 -63q0 -33 9.5 -63t27.5 -52t43 -35t56 -13q30 0 55 13t43 35t27.5 52t9.5 63
z" />
    <glyph glyph-name="uni0432" unicode="&#x432;" horiz-adv-x="490" 
d="M162 67h101q22 0 38.5 5t27.5 15t16.5 23.5t5.5 31.5q0 36 -21 53.5t-66 17.5h-102v-146zM246 482q84 0 126.5 -30.5t42.5 -98.5q0 -39 -18 -65t-44 -37v-1q38 -13 60.5 -41t22.5 -73q0 -67 -40.5 -101.5t-125.5 -34.5h-189v482h165zM162 279h80q45 0 66.5 14.5
t21.5 50.5q0 18 -4.5 31.5t-15 22.5t-27 13t-40.5 4h-81v-136z" />
    <glyph glyph-name="uni0433" unicode="&#x433;" horiz-adv-x="422" 
d="M392 482v-67h-230v-415h-81v482h311z" />
    <glyph glyph-name="uni0434" unicode="&#x434;" horiz-adv-x="536" 
d="M37 -120l-12 189h39q14 17 24.5 38.5t18 48.5t12.5 59.5t7 71.5l11 195h301v-413h49l-13 -189h-58l-8 120h-305l-7 -120h-59zM357 69v346h-148l-8 -130q-3 -40 -6.5 -73t-9 -60t-13.5 -47.5t-18 -35.5h203z" />
    <glyph glyph-name="uni0435" unicode="&#x435;" horiz-adv-x="511" 
d="M133 220q0 -33 10.5 -63t30 -52.5t46 -36t58.5 -13.5q46 0 77 13t56 31l31 -61q-29 -21 -71 -37t-100 -16q-57 0 -98 21t-67.5 56t-39 82t-12.5 99q0 49 13 94.5t39 81t65 57t91 21.5q53 0 90.5 -17.5t61.5 -46.5t35 -66.5t11 -77.5q0 -18 -1.5 -37t-3.5 -32h-322z
M379 282q1 5 1 11.5v11.5q0 26 -7.5 48t-22.5 38.5t-37 26t-51 9.5q-28 0 -50 -11.5t-38 -31t-25.5 -46t-11.5 -56.5h242z" />
    <glyph glyph-name="uni0436" unicode="&#x436;" horiz-adv-x="708" 
d="M312 217l-189 -217h-97v7l205 230l-196 238v7h94l183 -234v0v234h82v-234h2l183 234h93v-7l-195 -238l205 -230v-7h-97l-189 217h-2v-217h-82v217v0z" />
    <glyph glyph-name="uni0437" unicode="&#x437;" horiz-adv-x="445" 
d="M110 281h112q27 0 50.5 16t23.5 49q0 16 -4 31t-14.5 26t-28 17.5t-44.5 6.5q-18 0 -35 -2t-33.5 -5t-33.5 -8t-34 -11l-16 63q31 15 71 24t82 9q90 0 132.5 -39t42.5 -101q0 -41 -18 -68t-45 -38v-2q36 -14 56 -43.5t20 -75.5q0 -32 -13 -59t-37.5 -46t-60 -29.5
t-81.5 -10.5q-51 0 -92 10t-70 27l19 63q34 -16 69 -23t74 -7q52 0 80 22.5t28 64.5q0 35 -23.5 53.5t-60.5 18.5h-116v67z" />
    <glyph glyph-name="uni0438" unicode="&#x438;" horiz-adv-x="543" 
d="M159 107l41 82l170 293h92v-482h-81v269l5 106h-2l-55 -106l-156 -269h-92v482h81v-293l-5 -82h2z" />
    <glyph glyph-name="uni0439" unicode="&#x439;" horiz-adv-x="543" 
d="M159 107l41 82l170 293h92v-482h-81v269l5 106h-2l-55 -106l-156 -269h-92v482h81v-293l-5 -82h2zM287 654q38 0 65.5 10.5t44.5 21.5l23 -52q-11 -11 -25 -20.5t-30.5 -17.5t-36 -12.5t-41.5 -4.5t-41 4.5t-35.5 12.5t-30.5 17.5t-25 20.5l23 52q17 -11 44 -21.5
t65 -10.5z" />
    <glyph glyph-name="uni043A" unicode="&#x43a;" horiz-adv-x="475" 
d="M162 217v-217h-81v482h81v-234h2l183 234h92v-7l-191 -238l201 -230v-7h-97l-188 217h-2z" />
    <glyph glyph-name="uni043B" unicode="&#x43b;" horiz-adv-x="533" 
d="M371 415h-172l-9 -160q-5 -87 -16 -139t-30.5 -79t-48.5 -35.5t-68 -8.5v68q19 0 34 6.5t26 27t17.5 59.5t9.5 105l10 223h328v-482h-81v415z" />
    <glyph glyph-name="uni043C" unicode="&#x43c;" horiz-adv-x="634" 
d="M317 208l33 65l125 209h78v-482h-81v246l5 101h-2l-53 -100l-75 -126h-61l-75 127l-52 99h-2l5 -100v-247h-81v482h78l124 -209l33 -65h1z" />
    <glyph glyph-name="uni043D" unicode="&#x43d;" horiz-adv-x="542" 
d="M380 210h-218v-210h-81v482h81v-202h218v202h81v-482h-81v210z" />
    <glyph glyph-name="uni043E" unicode="&#x43e;" horiz-adv-x="545" 
d="M138 241q0 -37 7 -71t22.5 -59.5t41 -40.5t62.5 -15t63 15t42.5 40.5t23.5 59.5t7 71t-7 71t-23.5 59.5t-42.5 40.5t-63 15t-62.5 -15t-41 -40.5t-22.5 -59.5t-7 -71zM491 241q0 -53 -12.5 -99.5t-39 -81t-68 -55t-100.5 -20.5q-58 0 -99 20.5t-67.5 55t-38.5 81
t-12 99.5q0 52 12 99t38.5 81.5t67.5 55t99 20.5q59 0 100.5 -20.5t68 -55t39 -81.5t12.5 -99z" />
    <glyph glyph-name="uni043F" unicode="&#x43f;" horiz-adv-x="542" 
d="M380 415h-218v-415h-81v482h380v-482h-81v415z" />
    <glyph glyph-name="uni0440" unicode="&#x440;" horiz-adv-x="546" 
d="M163 99q22 -22 54.5 -33t66.5 -11q35 0 58.5 15.5t38 41t20.5 59t6 70.5t-6 70.5t-20.5 59t-38 41t-58.5 15.5q-34 0 -66.5 -11t-54.5 -33v-284zM139 482l10 -44h1q24 19 64 39t92 20q49 0 84 -20.5t57.5 -55t33 -81.5t10.5 -99q0 -53 -10.5 -99.5t-33 -81t-57.5 -55
t-84 -20.5q-26 0 -46.5 4t-38 10.5t-31 15.5t-25.5 19h-2v-232h-82v680h58z" />
    <glyph glyph-name="uni0441" unicode="&#x441;" horiz-adv-x="463" 
d="M54 241q0 57 14 104t41 80.5t68 52.5t95 19q35 0 74 -10.5t68 -25.5l-22 -61q-20 9 -52.5 18t-64.5 9q-35 0 -61 -15.5t-43 -41t-25 -59.5t-8 -70t8.5 -70t25.5 -59.5t42.5 -41t60.5 -15.5q32 0 64.5 9t52.5 18l22 -61q-29 -15 -68 -25.5t-74 -10.5q-54 0 -95 19
t-68 52.5t-41 80.5t-14 104z" />
    <glyph glyph-name="uni0442" unicode="&#x442;" horiz-adv-x="417" 
d="M386 482v-67h-138v-415h-81v415h-136v67h355z" />
    <glyph glyph-name="uni0443" unicode="&#x443;" horiz-adv-x="481" 
d="M450 472l-185 -537q-26 -76 -63.5 -112t-89.5 -36q-18 0 -42.5 4.5t-38.5 8.5v67q14 -4 36 -8t38 -4q29 0 46.5 22.5t31.5 62.5l22 65l-178 467v10h81l105 -305l28 -95h2l26 95l101 305h80v-10z" />
    <glyph glyph-name="uni0444" unicode="&#x444;" horiz-adv-x="798" 
d="M440 90q21 -17 47 -26t59 -9t54.5 15.5t34.5 41t18 59.5t5 70t-5 70t-18 59.5t-34.5 41t-54.5 15.5t-59 -9t-47 -26v-302zM358 392q-43 35 -105 35q-33 0 -55 -15.5t-35 -41t-18 -59.5t-5 -70t5 -70t18 -59.5t35 -41t55 -15.5q62 0 105 35v302zM442 461q23 17 51.5 26.5
t73.5 9.5q47 0 80 -20.5t54 -55t31 -81.5t10 -99q0 -53 -10 -99.5t-31 -81t-54 -55t-80 -20.5q-50 0 -76 9t-49 28h-2v-220h-82v220h-2q-23 -19 -49 -28t-76 -9q-47 0 -80 20.5t-54 55t-31 81t-10 99.5q0 52 10 99t31 81.5t54 55t80 20.5q44 0 73 -9.5t52 -26.5h2v239h82
v-239h2z" />
    <glyph glyph-name="uni0445" unicode="&#x445;" horiz-adv-x="469" 
d="M234 189l-114 -189h-85v10l152 231l-152 231v10h85l114 -190h2l113 190h85v-10l-152 -231l152 -231v-10h-85l-113 189h-2z" />
    <glyph glyph-name="uni0446" unicode="&#x446;" horiz-adv-x="552" 
d="M432 -120l-7 120h-344v482h81v-415h211v415h81v-415h49l-13 -187h-58z" />
    <glyph glyph-name="uni0447" unicode="&#x447;" horiz-adv-x="490" 
d="M140 482v-203q0 -35 19.5 -57.5t63.5 -22.5q31 0 59.5 5.5t45.5 13.5v264h81v-482h-81v150q-20 -8 -52 -14t-73 -6q-34 0 -60.5 9.5t-45 27t-28.5 42.5t-10 56v217h81z" />
    <glyph glyph-name="uni0448" unicode="&#x448;" horiz-adv-x="758" 
d="M81 0v482h81v-415h176v415h81v-415h176v415h82v-482h-596z" />
    <glyph glyph-name="uni0449" unicode="&#x449;" horiz-adv-x="775" 
d="M654 -120l-7 120h-566v482h81v-415h176v415h81v-415h176v415h82v-415h49l-13 -187h-59z" />
    <glyph glyph-name="uni044A" unicode="&#x44a;" horiz-adv-x="520" 
d="M34 482h176v-187h104q79 0 120 -37.5t41 -110.5q0 -72 -41 -109.5t-120 -37.5h-185v415h-95v67zM210 67h97q21 0 36.5 5.5t26.5 16t16.5 25.5t5.5 33t-5.5 33t-16 25.5t-26.5 16.5t-37 6h-97v-161z" />
    <glyph glyph-name="uni044B" unicode="&#x44b;" horiz-adv-x="660" 
d="M162 482v-187h104q79 0 120.5 -37.5t41.5 -110.5q0 -72 -41.5 -109.5t-120.5 -37.5h-185v482h81zM162 67h98q21 0 36.5 5.5t26 16t16 25.5t5.5 33t-5.5 33t-16 25.5t-26 16.5t-36.5 6h-98v-161zM497 0v482h82v-482h-82z" />
    <glyph glyph-name="uni044C" unicode="&#x44c;" horiz-adv-x="473" 
d="M162 482v-187h104q79 0 120.5 -37.5t41.5 -110.5q0 -72 -41.5 -109.5t-120.5 -37.5h-185v482h81zM162 67h98q21 0 36.5 5.5t26 16t16 25.5t5.5 33t-5.5 33t-16 25.5t-26 16.5t-36.5 6h-98v-161z" />
    <glyph glyph-name="uni044D" unicode="&#x44d;" horiz-adv-x="460" 
d="M406 241q0 -56 -15 -102.5t-43.5 -79.5t-71 -51.5t-97.5 -18.5q-32 0 -65.5 8t-65.5 24l22 61q30 -13 56 -18.5t53 -5.5q65 0 100 40t40 110h-198v67h198q-5 70 -40.5 109.5t-99.5 39.5q-27 0 -53 -5.5t-56 -18.5l-22 62q32 15 65.5 23t65.5 8q55 0 97.5 -18.5t71 -51.5
t43.5 -79.5t15 -102.5v0z" />
    <glyph glyph-name="uni044E" unicode="&#x44e;" horiz-adv-x="754" 
d="M700 241q0 -53 -12.5 -99.5t-39 -81t-68 -55t-100.5 -20.5q-54 0 -93 17.5t-65.5 48t-40.5 71.5t-17 88h-102v-210h-81v482h81v-204h102q4 46 18.5 86t41 69.5t65 46.5t91.5 17q59 0 100.5 -20.5t68 -55t39 -81.5t12.5 -99zM347 241q0 -37 7 -71t22.5 -59.5t41 -40.5
t62.5 -15t63 15t42.5 40.5t23.5 59.5t7 71t-7 71t-23.5 59.5t-42.5 40.5t-63 15t-62.5 -15t-41 -40.5t-22.5 -59.5t-7 -71z" />
    <glyph glyph-name="uni044F" unicode="&#x44f;" horiz-adv-x="507" 
d="M344 0v181h-78l-144 -181h-86v11l142 176q-54 11 -84 50t-30 95q0 34 11 62t32 47.5t52 30t71 10.5h196v-482h-82zM344 413h-109q-42 0 -64 -23t-22 -58t22 -58.5t64 -23.5h109v163z" />
    <glyph glyph-name="uni0450" unicode="&#x450;" horiz-adv-x="511" 
d="M133 220q0 -33 10.5 -63t30 -52.5t46 -36t58.5 -13.5q46 0 77 13t56 31l31 -61q-29 -21 -71 -37t-100 -16q-57 0 -98 21t-67.5 56t-39 82t-12.5 99q0 49 13 94.5t39 81t65 57t91 21.5q53 0 90.5 -17.5t61.5 -46.5t35 -66.5t11 -77.5q0 -18 -1.5 -37t-3.5 -32h-322z
M379 282q1 5 1 11.5v11.5q0 26 -7.5 48t-22.5 38.5t-37 26t-51 9.5q-28 0 -50 -11.5t-38 -31t-25.5 -46t-11.5 -56.5h242zM162 710h91l59 -121v-10h-71l-79 121v10z" />
    <glyph glyph-name="uni0451" unicode="&#x451;" horiz-adv-x="511" 
d="M133 220q0 -33 10.5 -63t30 -52.5t46 -36t58.5 -13.5q46 0 77 13t56 31l31 -61q-29 -21 -71 -37t-100 -16q-57 0 -98 21t-67.5 56t-39 82t-12.5 99q0 49 13 94.5t39 81t65 57t91 21.5q53 0 90.5 -17.5t61.5 -46.5t35 -66.5t11 -77.5q0 -18 -1.5 -37t-3.5 -32h-322z
M379 282q1 5 1 11.5v11.5q0 26 -7.5 48t-22.5 38.5t-37 26t-51 9.5q-28 0 -50 -11.5t-38 -31t-25.5 -46t-11.5 -56.5h242zM306 633q0 25 14 40t38 15q25 0 39 -15t14 -40q0 -26 -14 -40.5t-39 -14.5q-24 0 -38 14.5t-14 40.5zM123 633q0 25 14 40t38 15q25 0 39 -15t14 -40
q0 -26 -14 -40.5t-39 -14.5q-24 0 -38 14.5t-14 40.5z" />
    <glyph glyph-name="uni0452" unicode="&#x452;" horiz-adv-x="530" 
d="M81 0v562h-55v64h55v74h82v-74h104v-64h-104v-114h2q10 7 24.5 16t32.5 16t39.5 12t44.5 5q37 0 67 -12.5t51 -40t32.5 -71.5t11.5 -107q0 -62 -8.5 -120.5t-23 -112.5t-32.5 -103t-37 -92l-67 35q37 85 60.5 184.5t23.5 208.5q0 84 -24 122.5t-74 38.5q-17 0 -35 -4.5
t-34.5 -11.5t-30.5 -15.5t-23 -15.5v-380h-82z" />
    <glyph glyph-name="uni0453" unicode="&#x453;" horiz-adv-x="422" 
d="M392 482v-67h-230v-415h-81v482h311zM354 700l-79 -121h-71v10l59 121h91v-10z" />
    <glyph glyph-name="uni0454" unicode="&#x454;" horiz-adv-x="456" 
d="M54 241q0 56 15 102.5t43.5 79.5t71 51.5t97.5 18.5q32 0 65.5 -8t65.5 -23l-22 -62q-30 13 -56 18.5t-53 5.5q-64 0 -99.5 -39.5t-40.5 -109.5h198v-67h-198q5 -70 40 -110t100 -40q27 0 53 5.5t56 18.5l22 -61q-32 -16 -65.5 -24t-65.5 -8q-55 0 -97.5 18.5t-71 51.5
t-43.5 79.5t-15 102.5v0z" />
    <glyph glyph-name="uni0455" unicode="&#x455;" horiz-adv-x="430" 
d="M77 96q29 -19 61 -30t70 -11q46 0 67.5 21.5t21.5 52.5q0 26 -16 41.5t-49 26.5l-54 18q-26 9 -48.5 20.5t-39 28t-25.5 38t-9 49.5q0 30 11.5 57t33 46.5t52.5 31t69 11.5q46 0 81 -9t69 -25l-27 -66q-30 15 -60.5 22.5t-59.5 7.5q-45 0 -65 -22.5t-20 -51.5
q0 -24 14.5 -40t48.5 -27l53 -16q27 -8 49.5 -20t39.5 -29t26.5 -39.5t9.5 -51.5q0 -31 -11.5 -57.5t-33.5 -46t-53 -30.5t-70 -11q-29 0 -52 3t-42.5 9t-36.5 14.5t-34 19.5l29 65v0z" />
    <glyph glyph-name="uni0456" unicode="&#x456;" horiz-adv-x="244" 
d="M81 0v482h82v-482h-82zM70 633q0 25 14 40t38 15q25 0 39 -15t14 -40q0 -26 -14 -40.5t-39 -14.5q-24 0 -38 14.5t-14 40.5z" />
    <glyph glyph-name="uni0457" unicode="&#x457;" horiz-adv-x="244" 
d="M81 0v482h82v-482h-82zM158 633q0 25 14 40t38 15q25 0 39 -15t14 -40q0 -26 -14 -40.5t-39 -14.5q-24 0 -38 14.5t-14 40.5zM-25 633q0 25 14 40t38 15q25 0 39 -15t14 -40q0 -26 -14 -40.5t-39 -14.5q-24 0 -38 14.5t-14 40.5z" />
    <glyph glyph-name="uni0458" unicode="&#x458;" horiz-adv-x="244" 
d="M163 482v-542q0 -36 -8 -64t-24.5 -48t-41 -30.5t-57.5 -10.5q-13 0 -31 2t-32 5v65q11 -2 27.5 -3t27.5 -1q57 0 57 83v544h82zM70 633q0 25 14 40t38 15q25 0 39 -15t14 -40q0 -26 -14 -40.5t-39 -14.5q-24 0 -38 14.5t-14 40.5z" />
    <glyph glyph-name="uni0459" unicode="&#x459;" horiz-adv-x="731" 
d="M421 482v-187h104q79 0 120 -37.5t41 -110.5q0 -72 -41 -109.5t-120 -37.5h-186v415h-141l-8 -160q-5 -87 -16 -139t-30.5 -79t-48.5 -35.5t-68 -8.5v68q19 0 34 6.5t26 27t17.5 59.5t9.5 105l10 223h297zM421 67h97q20 0 36 5.5t26.5 16t16 25.5t5.5 33t-5.5 33
t-16 25.5t-26 16.5t-36.5 6h-97v-161z" />
    <glyph glyph-name="uni045A" unicode="&#x45a;" horiz-adv-x="748" 
d="M438 482v-187h104q79 0 120 -37.5t41 -110.5q0 -72 -41 -109.5t-120 -37.5h-185v229h-195v-229h-81v482h81v-187h195v187h81zM438 67h97q20 0 36 5.5t26.5 16t16 25.5t5.5 33t-5.5 33.5t-16 26t-26 16.5t-36.5 6h-97v-162z" />
    <glyph glyph-name="uni045B" unicode="&#x45b;" horiz-adv-x="546" 
d="M387 0v300q0 63 -24.5 95t-75.5 32q-17 0 -35 -4t-35 -10t-31 -13.5t-23 -14.5v-385h-82v562h-58v64h58v74h82v-74h104v-64h-104v-113h2q10 7 25 15.5t33 15.5t39.5 12t45.5 5q75 0 118 -45.5t43 -137.5v-314h-82z" />
    <glyph glyph-name="uni045C" unicode="&#x45c;" horiz-adv-x="475" 
d="M162 217v-217h-81v482h81v-234h2l183 234h92v-7l-191 -238l201 -230v-7h-97l-188 217h-2zM364 700l-79 -121h-71v10l59 121h91v-10z" />
    <glyph glyph-name="uni045D" unicode="&#x45d;" horiz-adv-x="543" 
d="M159 107l41 82l170 293h92v-482h-81v269l5 106h-2l-55 -106l-156 -269h-92v482h81v-293l-5 -82h2zM175 710h91l59 -121v-10h-71l-79 121v10z" />
    <glyph glyph-name="uni045E" unicode="&#x45e;" horiz-adv-x="481" 
d="M450 472l-185 -537q-26 -76 -63.5 -112t-89.5 -36q-18 0 -42.5 4.5t-38.5 8.5v67q14 -4 36 -8t38 -4q29 0 46.5 22.5t31.5 62.5l22 65l-178 467v10h81l105 -305l28 -95h2l26 95l101 305h80v-10zM253 654q38 0 65.5 10.5t44.5 21.5l23 -52q-11 -11 -25 -20.5t-30.5 -17.5
t-36 -12.5t-41.5 -4.5t-41 4.5t-35.5 12.5t-30.5 17.5t-25 20.5l23 52q17 -11 44 -21.5t65 -10.5z" />
    <glyph glyph-name="uni045F" unicode="&#x45f;" horiz-adv-x="535" 
d="M238 -120l-8 120h-149v482h81v-415h211v415h81v-482h-149l-9 -120h-58z" />
    <glyph glyph-name="uni0462" unicode="&#x462;" horiz-adv-x="654" 
d="M261 680v-76h193v-74h-193v-127h144q97 0 150 -52t53 -150q0 -96 -53 -148.5t-150 -52.5h-227v530h-136v74h136v76h83zM261 74h135q57 0 91.5 30.5t34.5 96.5t-34 97t-92 31h-135v-255z" />
    <glyph glyph-name="uni0463" unicode="&#x463;" horiz-adv-x="516" 
d="M210 701v-219h149v-67h-149v-120h104q79 0 120.5 -37.5t41.5 -110.5q0 -72 -41.5 -109.5t-120.5 -37.5h-185v415h-95v67h95v219h81zM210 67h98q21 0 36.5 5.5t26 16t16 25.5t5.5 33t-5.5 33t-16 25.5t-26 16.5t-36.5 6h-98v-161z" />
    <glyph glyph-name="uni0472" unicode="&#x472;" horiz-adv-x="680" 
d="M617 340q0 -75 -15.5 -140t-48.5 -113t-85.5 -75t-126.5 -27t-127 27t-86.5 75t-49 113t-15.5 140t15.5 140t49 113t86.5 75t127 27t126.5 -27t85.5 -75t48.5 -113t15.5 -140zM341 61q51 0 85.5 19t56.5 52.5t33 78.5t13 97h-378q2 -52 13 -97t33.5 -78.5t57.5 -52.5
t86 -19zM341 619q-50 0 -84.5 -18.5t-57 -50.5t-34 -75.5t-14.5 -93.5h377q-3 50 -14 93.5t-33 75.5t-56.5 50.5t-83.5 18.5z" />
    <glyph glyph-name="uni0473" unicode="&#x473;" horiz-adv-x="545" 
d="M491 241q0 -53 -12.5 -99.5t-39 -81t-68 -55t-100.5 -20.5q-58 0 -99 20.5t-67.5 55t-38.5 81t-12 99.5q0 52 12 99t38.5 81.5t67.5 55t99 20.5q59 0 100.5 -20.5t68 -55t39 -81.5t12.5 -99zM271 55q33 0 57 12t40 32t25 47.5t12 59.5h-266q3 -32 12 -59.5t24.5 -47.5
t39 -32t56.5 -12zM271 427q-32 0 -55.5 -12t-39.5 -32t-25 -47t-12 -58h266q-3 31 -12 58t-25.5 47t-40 32t-56.5 12z" />
    <glyph glyph-name="uni0474" unicode="&#x474;" horiz-adv-x="621" 
d="M338 0h-84l-233 670v10h88l136 -411l51 -186h2l51 187l100 303q12 35 25.5 58.5t31 37.5t40 20t51.5 6v-76q-28 0 -45 -15.5t-30 -53.5z" />
    <glyph glyph-name="uni0475" unicode="&#x475;" horiz-adv-x="507" 
d="M347 399q9 25 20 43t25.5 29t34 16.5t46.5 5.5v-71q-21 0 -33.5 -13t-21.5 -37l-138 -372h-78l-173 472v10h81l103 -305l26 -93h2l26 93z" />
    <glyph glyph-name="uni0490" unicode="&#x490;" horiz-adv-x="522" 
d="M479 821l11 -215h-310v-606h-84v680h307l11 141h65z" />
    <glyph glyph-name="uni0491" unicode="&#x491;" horiz-adv-x="421" 
d="M383 587l9 -172h-230v-415h-81v482h227l9 105h66z" />
    <glyph glyph-name="uni0E3F" unicode="&#xe3f;" 
d="M302 679q83 -7 125 -50t42 -124q0 -59 -22 -98.5t-53 -53.5v-2q47 -17 73 -58.5t26 -108.5q0 -88 -48.5 -136t-142.5 -48v-108h-63v108h-157v680h157v90h63v-91zM404 191q0 60 -26.5 87.5t-75.5 26.5v-231q49 0 75.5 28.5t26.5 88.5zM167 74h72v231h-72v-231zM167 379h72
v227h-72v-227zM381 490q0 55 -19 83.5t-60 30.5v-224q39 3 59 29t20 81z" />
    <glyph glyph-name="Wgrave" unicode="&#x1e80;" horiz-adv-x="913" 
d="M882 670l-181 -670h-85l-118 427l-40 171h-3l-40 -171l-117 -427h-86l-180 670v10h87l101 -410l36 -169h2l40 169l114 410h89l114 -410l40 -169h2l36 169l101 410h88v-10zM343 883h90l60 -121v-10h-71l-79 121v10z" />
    <glyph glyph-name="wgrave" unicode="&#x1e81;" horiz-adv-x="767" 
d="M735 472l-151 -472h-79l-99 312l-22 90h-2l-22 -90l-98 -312h-79l-151 472v10h83l89 -305l20 -88h2l21 88l94 305h84l95 -305l21 -88h2l20 88l89 305h83v-10zM269 710h91l59 -121v-10h-71l-79 121v10z" />
    <glyph glyph-name="Wacute" unicode="&#x1e82;" horiz-adv-x="913" 
d="M882 670l-181 -670h-85l-118 427l-40 171h-3l-40 -171l-117 -427h-86l-180 670v10h87l101 -410l36 -169h2l40 169l114 410h89l114 -410l40 -169h2l36 169l101 410h88v-10zM576 873l-79 -121h-71v10l60 121h90v-10z" />
    <glyph glyph-name="wacute" unicode="&#x1e83;" horiz-adv-x="767" 
d="M735 472l-151 -472h-79l-99 312l-22 90h-2l-22 -90l-98 -312h-79l-151 472v10h83l89 -305l20 -88h2l21 88l94 305h84l95 -305l21 -88h2l20 88l89 305h83v-10zM505 700l-79 -121h-71v10l59 121h91v-10z" />
    <glyph glyph-name="Wdieresis" unicode="&#x1e84;" horiz-adv-x="913" 
d="M882 670l-181 -670h-85l-118 427l-40 171h-3l-40 -171l-117 -427h-86l-180 670v10h87l101 -410l36 -169h2l40 169l114 410h89l114 -410l40 -169h2l36 169l101 410h88v-10zM303 816q0 25 14 40t38 15q25 0 39 -15t14 -40q0 -26 -14 -40.5t-39 -14.5q-24 0 -38 14.5
t-14 40.5zM506 816q0 25 14 40t38 15q25 0 39 -15t14 -40q0 -26 -14 -40.5t-39 -14.5q-24 0 -38 14.5t-14 40.5z" />
    <glyph glyph-name="wdieresis" unicode="&#x1e85;" horiz-adv-x="767" 
d="M735 472l-151 -472h-79l-99 312l-22 90h-2l-22 -90l-98 -312h-79l-151 472v10h83l89 -305l20 -88h2l21 88l94 305h84l95 -305l21 -88h2l20 88l89 305h83v-10zM423 633q0 25 14 40t38 15q25 0 39 -15t14 -40q0 -26 -14 -40.5t-39 -14.5q-24 0 -38 14.5t-14 40.5zM240 633
q0 25 14 40t38 15q25 0 39 -15t14 -40q0 -26 -14 -40.5t-39 -14.5q-24 0 -38 14.5t-14 40.5z" />
    <glyph glyph-name="uni1E9E" unicode="&#x1e9e;" horiz-adv-x="632" 
d="M91 455q0 54 13 98.5t40.5 76t70 48.5t102.5 17q63 0 113 -18t93 -49v-54l-116 -189v-2q36 0 68.5 -13.5t57 -38.5t39 -60.5t14.5 -78.5q0 -48 -15.5 -86.5t-43 -65t-64.5 -41t-79 -14.5q-35 0 -59.5 2.5t-48.5 7.5v76q23 -4 47 -7t53 -3q30 0 53 11t38.5 29t24 41.5
t8.5 49.5q0 59 -36 90t-102 31h-52v52l129 220q-23 18 -57 26t-65 8q-75 0 -108.5 -42.5t-33.5 -118.5v-458h-84v455z" />
    <glyph glyph-name="Ygrave" unicode="&#x1ef2;" horiz-adv-x="528" 
d="M105 680l158 -309h2l160 309h89v-10l-208 -382v-288h-84v288l-207 382v10h90zM156 883h90l60 -121v-10h-71l-79 121v10z" />
    <glyph glyph-name="ygrave" unicode="&#x1ef3;" horiz-adv-x="481" 
d="M450 472l-185 -537q-26 -76 -63.5 -112t-89.5 -36q-18 0 -42.5 4.5t-38.5 8.5v67q14 -4 36 -8t38 -4q29 0 46.5 22.5t31.5 62.5l22 65l-178 467v10h81l105 -305l28 -95h2l26 95l101 305h80v-10zM129 710h91l59 -121v-10h-71l-79 121v10z" />
    <glyph glyph-name="endash" unicode="&#x2013;" horiz-adv-x="538" 
d="M75 233v74h388v-74h-388z" />
    <glyph glyph-name="emdash" unicode="&#x2014;" horiz-adv-x="836" 
d="M75 233v74h686v-74h-686z" />
    <glyph glyph-name="quoteleft" unicode="&#x2018;" horiz-adv-x="247" 
d="M188 670l-38 -249h-93v10l66 249h65v-10z" />
    <glyph glyph-name="quoteright" unicode="&#x2019;" horiz-adv-x="243" 
d="M63 431l38 249h93v-10l-66 -249h-65v10z" />
    <glyph glyph-name="quotesinglbase" unicode="&#x201a;" horiz-adv-x="243" 
d="M43 -151l38 249h93v-10l-66 -249h-65v10z" />
    <glyph glyph-name="quotedblleft" unicode="&#x201c;" horiz-adv-x="424" 
d="M365 670l-38 -249h-93v10l66 249h65v-10zM188 670l-38 -249h-93v10l66 249h65v-10z" />
    <glyph glyph-name="quotedblright" unicode="&#x201d;" horiz-adv-x="420" 
d="M63 431l38 249h93v-10l-66 -249h-65v10zM240 431l38 249h93v-10l-66 -249h-65v10z" />
    <glyph glyph-name="quotedblbase" unicode="&#x201e;" horiz-adv-x="420" 
d="M43 -151l38 249h93v-10l-66 -249h-65v10zM220 -151l38 249h93v-10l-66 -249h-65v10z" />
    <glyph glyph-name="dagger" unicode="&#x2020;" horiz-adv-x="441" 
d="M188 482v218h66v-218h155v-64h-155v-616h-66v616h-156v64h156z" />
    <glyph glyph-name="daggerdbl" unicode="&#x2021;" horiz-adv-x="486" 
d="M211 482v218h66v-218h154v-64h-154v-334h154v-64h-154v-218h-66v218h-156v64h156v334h-156v64h156z" />
    <glyph glyph-name="bullet" unicode="&#x2022;" horiz-adv-x="348" 
d="M89 291q0 38 23 62t62 24t62 -24t23 -62t-23 -62t-62 -24t-62 24t-23 62z" />
    <glyph glyph-name="ellipsis" unicode="&#x2026;" horiz-adv-x="676" 
d="M64 48q0 27 17 44.5t43 17.5q27 0 43.5 -17.5t16.5 -44.5q0 -28 -16.5 -45.5t-43.5 -17.5q-26 0 -43 17.5t-17 45.5zM277 48q0 27 17 44.5t43 17.5q27 0 43.5 -17.5t16.5 -44.5q0 -28 -16.5 -45.5t-43.5 -17.5q-26 0 -43 17.5t-17 45.5zM492 48q0 27 17 44.5t43 17.5
q27 0 43.5 -17.5t16.5 -44.5q0 -28 -16.5 -45.5t-43.5 -17.5q-26 0 -43 17.5t-17 45.5z" />
    <glyph glyph-name="perthousand" unicode="&#x2030;" horiz-adv-x="1076" 
d="M826 168q0 -60 18.5 -87.5t51.5 -27.5t51 27.5t18 87.5t-18 87.5t-51 27.5t-51.5 -27.5t-18.5 -87.5zM1032 168q0 -39 -8.5 -71.5t-25.5 -56t-42.5 -36t-59.5 -12.5t-59.5 12.5t-43 36t-26 56t-8.5 71.5t8.5 71.5t26 56t43 36t59.5 12.5t59.5 -12.5t42.5 -36t25.5 -56
t8.5 -71.5zM116 508q0 -60 18.5 -87.5t51.5 -27.5t51 27.5t18 87.5t-18 87.5t-51 27.5t-51.5 -27.5t-18.5 -87.5zM322 508q0 -39 -8.5 -71.5t-25.5 -56t-42.5 -36t-59.5 -12.5t-59.5 12.5t-43 36t-26 56t-8.5 71.5t8.5 71.5t26 56t43 36t59.5 12.5t59.5 -12.5t42.5 -36
t25.5 -56t8.5 -71.5zM492 168q0 -60 18.5 -87.5t51.5 -27.5t51 27.5t18 87.5t-18 87.5t-51 27.5t-51.5 -27.5t-18.5 -87.5zM698 168q0 -39 -8.5 -71.5t-25.5 -56t-42.5 -36t-59.5 -12.5t-59.5 12.5t-43 36t-26 56t-8.5 71.5t8.5 71.5t26 56t43 36t59.5 12.5t59.5 -12.5
t42.5 -36t25.5 -56t8.5 -71.5zM118 0v10l447 670h76v-10l-447 -670h-76z" />
    <glyph glyph-name="guilsinglleft" unicode="&#x2039;" horiz-adv-x="301" 
d="M47 276l141 209l57 -38l-106 -177l106 -177l-57 -38l-141 209v12z" />
    <glyph glyph-name="guilsinglright" unicode="&#x203a;" horiz-adv-x="301" 
d="M254 264l-141 -209l-57 38l106 177l-106 177l57 38l141 -209v-12z" />
    <glyph glyph-name="fraction" unicode="&#x2044;" horiz-adv-x="120" 
d="M-201 0v10l447 670h76v-10l-447 -670h-76z" />
    <glyph glyph-name="zerosuperior" unicode="&#x2070;" horiz-adv-x="345" 
d="M103 630q0 -60 18.5 -87.5t51.5 -27.5t51 27.5t18 87.5t-18 87.5t-51 27.5t-51.5 -27.5t-18.5 -87.5zM309 630q0 -39 -8.5 -71.5t-25.5 -56t-42.5 -36t-59.5 -12.5t-59.5 12.5t-43 36t-26 56t-8.5 71.5t8.5 71.5t26 56t43 36t59.5 12.5t59.5 -12.5t42.5 -36t25.5 -56
t8.5 -71.5z" />
    <glyph glyph-name="foursuperior" unicode="&#x2074;" horiz-adv-x="322" 
d="M188 701h65v-108h38v-59h-38v-72h-65v72h-164v52l89 214h69l-85 -206v-1h91v108z" />
    <glyph glyph-name="fivesuperior" unicode="&#x2075;" horiz-adv-x="294" 
d="M50 624l18 176h178v-59h-123l-8 -64h23q53 0 87.5 -26t34.5 -82q0 -54 -36.5 -84.5t-100.5 -30.5q-18 0 -45.5 5t-51.5 14l15 60q22 -10 45.5 -14t38.5 -4q68 0 68 54q0 47 -62 47q-17 0 -36 -0.5t-36 -2.5z" />
    <glyph glyph-name="sixsuperior" unicode="&#x2076;" horiz-adv-x="312" 
d="M218 795l-77 -114v-1q6 3 17 5t22 2q46 0 76 -33t30 -82q0 -23 -8 -44.5t-24 -38t-39.5 -26t-54.5 -9.5t-55 9.5t-40 25.5t-24 37.5t-8 45.5q0 20 5.5 38.5t17.5 38.5l93 151h69v-5zM219 570q0 27 -16 40.5t-43 13.5q-28 0 -43.5 -13.5t-15.5 -40.5q0 -28 15.5 -41.5
t43.5 -13.5q27 0 43 13.5t16 41.5z" />
    <glyph glyph-name="sevensuperior" unicode="&#x2077;" horiz-adv-x="274" 
d="M59 467l124 273v1h-158v59h228v-51l-126 -287h-68v5z" />
    <glyph glyph-name="eightsuperior" unicode="&#x2078;" horiz-adv-x="322" 
d="M162 515q31 0 45.5 12.5t14.5 32.5q0 21 -14.5 34t-45.5 13q-32 0 -46.5 -13t-14.5 -34q0 -20 14.5 -32.5t46.5 -12.5zM162 808q51 0 82 -26.5t31 -67.5q0 -31 -15.5 -48t-32.5 -25v-1q26 -11 42.5 -33t16.5 -54q0 -45 -34.5 -72t-89.5 -27q-57 0 -92 27t-35 72
q0 32 17.5 54t43.5 33v1q-18 8 -33 25t-15 48q0 41 31 67.5t83 26.5zM162 669q23 0 35.5 10t12.5 27t-12.5 28t-35.5 11q-26 0 -37 -11t-11 -28t11 -27t37 -10z" />
    <glyph glyph-name="ninesuperior" unicode="&#x2079;" horiz-adv-x="313" 
d="M93 467l79 114v1q-7 -3 -17.5 -5t-21.5 -2q-24 0 -43.5 9t-33.5 24.5t-22 36.5t-8 46q0 23 8 44t24 37.5t39.5 26t54.5 9.5t55 -9.5t40.5 -25.5t24.5 -37t8 -45q0 -20 -5.5 -39.5t-17.5 -39.5l-93 -150h-71v5zM93 693q0 -27 16 -41t43 -14q28 0 44 14t16 41t-16 40.5
t-44 13.5q-27 0 -43 -13.5t-16 -40.5z" />
    <glyph glyph-name="plussuperior" unicode="&#x207a;" horiz-adv-x="248" 
d="M151 664h64v-50h-64v-75h-55v75h-63v50h63v73h55v-73z" />
    <glyph glyph-name="minussuperior" unicode="&#x207b;" horiz-adv-x="278" 
d="M48 614v50h182v-50h-182z" />
    <glyph glyph-name="parenleftsuperior" unicode="&#x207d;" horiz-adv-x="172" 
d="M32 631q0 36 6.5 69t16.5 62.5t22.5 55t25.5 47.5l41 -22q-23 -49 -36.5 -102t-13.5 -110q0 -58 13.5 -111t36.5 -102l-41 -22q-13 22 -25.5 47.5t-22.5 55t-16.5 63t-6.5 69.5z" />
    <glyph glyph-name="parenrightsuperior" unicode="&#x207e;" horiz-adv-x="172" 
d="M140 631q0 -36 -6.5 -69.5t-16.5 -63t-22.5 -55t-25.5 -47.5l-41 22q23 49 36.5 102t13.5 111q0 57 -14 110t-36 102l41 22q13 -22 25.5 -47.5t22.5 -55t16.5 -62.5t6.5 -69v0z" />
    <glyph glyph-name="zeroinferior" unicode="&#x2080;" horiz-adv-x="345" 
d="M103 49q0 -60 18.5 -87.5t51.5 -27.5t51 27.5t18 87.5t-18 87.5t-51 27.5t-51.5 -27.5t-18.5 -87.5zM309 49q0 -39 -8.5 -71.5t-25.5 -56t-42.5 -36t-59.5 -12.5t-59.5 12.5t-43 36t-26 56t-8.5 71.5t8.5 71.5t26 56t43 36t59.5 12.5t59.5 -12.5t42.5 -36t25.5 -56
t8.5 -71.5z" />
    <glyph glyph-name="oneinferior" unicode="&#x2081;" horiz-adv-x="245" 
d="M24 107v58l118 54h48v-338h-64v266h-1l-94 -40h-7z" />
    <glyph glyph-name="twoinferior" unicode="&#x2082;" horiz-adv-x="301" 
d="M126 -59h138v-60h-230v51l127 117q32 29 32 64q0 29 -16.5 41t-37.5 12q-23 0 -40.5 -11.5t-31.5 -25.5l-34 48q7 7 17.5 16t24.5 16.5t31 12.5t38 5q24 0 45.5 -7.5t37 -21t24.5 -34t9 -45.5q0 -37 -16 -62.5t-36 -42.5l-82 -72v-1z" />
    <glyph glyph-name="threeinferior" unicode="&#x2083;" horiz-adv-x="302" 
d="M78 81h56q31 0 43.5 12t12.5 30q0 21 -13.5 32t-41.5 11q-20 0 -41 -4.5t-39 -12.5l-19 55q21 11 47.5 17t54.5 6q56 0 87.5 -25.5t31.5 -68.5q0 -32 -16 -51t-34 -24v-1q25 -9 41.5 -30t16.5 -55q0 -45 -33 -72t-98 -27q-35 0 -60.5 7.5t-45.5 18.5l17 57q20 -10 41 -16
t46 -6q29 0 48 10.5t19 36.5q0 22 -16.5 31t-48.5 9h-56v60z" />
    <glyph glyph-name="fourinferior" unicode="&#x2084;" horiz-adv-x="322" 
d="M188 120h65v-108h38v-59h-38v-72h-65v72h-164v52l89 214h69l-85 -206v-1h91v108z" />
    <glyph glyph-name="fiveinferior" unicode="&#x2085;" horiz-adv-x="294" 
d="M50 43l18 176h178v-59h-123l-8 -64h23q53 0 87.5 -26t34.5 -82q0 -54 -36.5 -84.5t-100.5 -30.5q-18 0 -45.5 5t-51.5 14l15 60q22 -10 45.5 -14t38.5 -4q68 0 68 54q0 47 -62 47q-17 0 -36 -0.5t-36 -2.5z" />
    <glyph glyph-name="sixinferior" unicode="&#x2086;" horiz-adv-x="312" 
d="M218 214l-77 -114v-1q6 3 17 5t22 2q46 0 76 -33t30 -82q0 -23 -8 -44.5t-24 -38t-39.5 -26t-54.5 -9.5t-55 9.5t-40 25.5t-24 37.5t-8 45.5q0 20 5.5 38.5t17.5 38.5l93 151h69v-5zM219 -11q0 27 -16 40.5t-43 13.5q-28 0 -43.5 -13.5t-15.5 -40.5q0 -28 15.5 -41.5
t43.5 -13.5q27 0 43 13.5t16 41.5z" />
    <glyph glyph-name="seveninferior" unicode="&#x2087;" horiz-adv-x="274" 
d="M59 -114l124 273v1h-158v59h228v-51l-126 -287h-68v5z" />
    <glyph glyph-name="eightinferior" unicode="&#x2088;" horiz-adv-x="322" 
d="M162 -66q31 0 45.5 12.5t14.5 32.5q0 21 -14.5 34t-45.5 13q-32 0 -46.5 -13t-14.5 -34q0 -20 14.5 -32.5t46.5 -12.5zM162 227q51 0 82 -26.5t31 -67.5q0 -31 -15.5 -48t-32.5 -25v-1q26 -11 42.5 -33t16.5 -54q0 -45 -34.5 -72t-89.5 -27q-57 0 -92 27t-35 72
q0 32 17.5 54t43.5 33v1q-18 8 -33 25t-15 48q0 41 31 67.5t83 26.5zM162 88q23 0 35.5 10t12.5 27t-12.5 28t-35.5 11q-26 0 -37 -11t-11 -28t11 -27t37 -10z" />
    <glyph glyph-name="nineinferior" unicode="&#x2089;" horiz-adv-x="313" 
d="M93 -114l79 114v1q-7 -3 -17.5 -5t-21.5 -2q-24 0 -43.5 9t-33.5 24.5t-22 36.5t-8 46q0 23 8 44t24 37.5t39.5 26t54.5 9.5t55 -9.5t40.5 -25.5t24.5 -37t8 -45q0 -20 -5.5 -39.5t-17.5 -39.5l-93 -150h-71v5zM93 112q0 -27 16 -41t43 -14q28 0 44 14t16 41t-16 40.5
t-44 13.5q-27 0 -43 -13.5t-16 -40.5z" />
    <glyph glyph-name="parenleftinferior" unicode="&#x208d;" horiz-adv-x="172" 
d="M32 50q0 36 6.5 69t16.5 62.5t22.5 55t25.5 47.5l41 -22q-23 -49 -36.5 -102t-13.5 -110q0 -58 13.5 -111t36.5 -102l-41 -22q-13 22 -25.5 47.5t-22.5 55t-16.5 63t-6.5 69.5z" />
    <glyph glyph-name="parenrightinferior" unicode="&#x208e;" horiz-adv-x="172" 
d="M140 50q0 -36 -6.5 -69.5t-16.5 -63t-22.5 -55t-25.5 -47.5l-41 22q23 49 36.5 102t13.5 111q0 57 -14 110t-36 102l41 22q13 -22 25.5 -47.5t22.5 -55t16.5 -62.5t6.5 -69v0z" />
    <glyph glyph-name="uni20A1" unicode="&#x20a1;" 
d="M442 675q14 -5 27 -11t25 -13l-23 -64q-11 5 -22 9.5t-21 8.5l-84 -544q31 0 61.5 7t65.5 25l23 -64q-38 -21 -78.5 -32.5t-78.5 -11.5q-2 0 -4 0.5t-4 0.5l-15 -94h-55l17 100q-14 3 -27.5 7.5t-25.5 11.5l-20 -119h-54l24 152q-54 46 -81 121.5t-27 174.5
q0 71 14.5 131t42 106t67.5 75t91 39l13 79h54l-12 -75q15 -1 28 -2.5t27 -3.5l14 81h54zM238 90q11 -8 24 -14t29 -10l85 551q-10 1 -19.5 1.5t-19.5 0.5q-5 0 -8.5 -0.5t-8.5 -0.5zM154 340q0 -60 9 -112t29 -87l72 464q-57 -26 -83.5 -96.5t-26.5 -168.5z" />
    <glyph glyph-name="lira" unicode="&#x20a4;" horiz-adv-x="518" 
d="M232 223q0 -26 -5.5 -49.5t-13 -43t-16.5 -33.5t-18 -21v-2h284v-74h-392v62q9 7 21.5 18t23.5 27t19 37t8 49v30h-82v66h77q-2 22 -5.5 49t-5.5 50h-66v66h60q-1 13 -1.5 23.5t-0.5 22.5q0 95 51 145t136 50q40 0 79.5 -12.5t79.5 -33.5l-24 -65q-40 19 -70 27t-65 8
q-41 0 -70 -30t-29 -90v-21t2 -24h185v-66h-178l10 -99h168v-66h-162z" />
    <glyph glyph-name="uni20A6" unicode="&#x20a6;" 
d="M477 226v-226h-109l-86 226h-128v-226h-86v226h-45v66h45v79h-45v66h45v243h106l95 -243h123v243h85v-243h51v-66h-51v-79h51v-66h-51zM328 292h67l-2 79h-94zM150 371l3 -79h99l-28 79h-74zM401 106l-4 120h-40l42 -120h2zM144 555l4 -118h47l-49 118h-2z" />
    <glyph glyph-name="rupee" unicode="&#x20a8;" 
d="M391 443q-5 -42 -23.5 -73t-45.5 -51.5t-61 -30.5t-70 -11l209 -261v-16h-92l-230 294v63h97q63 0 92 22.5t37 63.5h-235l18 66h215q-9 39 -39.5 63.5t-87.5 24.5h-106l18 83h407l-18 -66h-163v-2q34 -19 52 -48t24 -55h105l-18 -66h-85z" />
    <glyph glyph-name="uni20AA" unicode="&#x20aa;" horiz-adv-x="667" 
d="M368 184v250q0 51 -4.5 84t-20 52.5t-44.5 27.5t-78 8h-68v-606h-86v680h166q63 0 105.5 -12t68 -40.5t36.5 -76t11 -117.5v-250h-86zM604 680v-434q0 -71 -11 -118t-36.5 -75.5t-68.5 -40.5t-106 -12h-165v496h85v-422h68q49 0 78 8t44.5 27.5t20.5 52.5t5 84v434h86z
" />
    <glyph glyph-name="dong" unicode="&#x20ab;" 
d="M443 585v-460h-60l-10 35h-2q-22 -15 -58 -31.5t-84 -16.5q-46 0 -79 16.5t-54.5 45t-32 66t-10.5 80.5q0 42 10.5 79.5t32 65.5t54.5 44.5t79 16.5q48 0 78 -12.5t50 -26.5h2v98h-95v64h95v51h84v-51h52v-64h-52zM359 428q-20 14 -48.5 22.5t-58.5 8.5
q-32 0 -53.5 -11.5t-34.5 -30.5t-19 -44.5t-6 -52.5q0 -28 6 -53.5t19 -44.5t34.5 -30.5t53.5 -11.5q30 0 58.5 8.5t48.5 22.5v217zM81 0v63h362v-63h-362z" />
    <glyph glyph-name="Euro" unicode="&#x20ac;" 
d="M192 223q14 -76 55 -119t110 -43q32 0 64.5 6.5t67.5 25.5l23 -64q-38 -21 -78 -32.5t-77 -11.5q-104 0 -166.5 64t-84.5 174h-78l20 66h50q-2 12 -2 24.5v26.5v24t1 24h-69l21 66h57q10 55 31 99.5t52.5 76t73 48.5t94.5 17q37 0 77.5 -11.5t77.5 -32.5l-23 -64
q-35 19 -67.5 25.5t-64.5 6.5q-69 0 -110.5 -44t-55.5 -121h267l-19 -66h-258q-1 -12 -1 -24v-24v-26.5t1 -24.5h238l-19 -66h-208z" />
    <glyph glyph-name="uni20AD" unicode="&#x20ad;" 
d="M315 301l198 -291v-10h-106l-195 301h-20v-301h-86v301h-60v66h60v313h86v-313h20l188 313h101v-10l-188 -303h158v-66h-156z" />
    <glyph glyph-name="uni20AE" unicode="&#x20ae;" 
d="M411 256l-92 -36v-220h-85v186l-94 -36v72l94 36v68l-94 -36v72l94 36v208h-186v74h455v-74h-184v-174l92 36v-72l-92 -36v-68l92 36v-72z" />
    <glyph glyph-name="uni20B1" unicode="&#x20b1;" 
d="M465 323q-19 -69 -66.5 -105t-125.5 -36h-92v-182h-86v323h-53v74h53v65h-53v74h53v144h178q80 0 127 -37t66 -107h54v-74h-43q1 -8 1 -15.5v-15.5v-17t-1 -17h43v-74h-55zM389 431v15.5t-1 15.5h-207v-65h207q1 8 1 16.5v17.5zM266 256q45 0 71 17.5t36 49.5h-192v-67
h85zM181 536h194q-11 32 -36.5 51t-72.5 19h-85v-70z" />
    <glyph glyph-name="uni20B2" unicode="&#x20b2;" 
d="M314 695q54 -2 96.5 -21t74.5 -42l-29 -64q-31 21 -68.5 35t-73.5 16v-558q26 1 48 7.5t40 22.5v171l-52 14v63h139v-285q-32 -27 -79 -46.5t-96 -22.5v-93h-62v97q-51 9 -89 38.5t-62.5 75.5t-36.5 106.5t-12 130.5q0 69 11.5 128.5t35.5 105.5t62 76t91 40v80h62v-75z
M140 340q0 -51 6 -96.5t19.5 -82t35 -61.5t51.5 -34v545q-30 -10 -51 -33.5t-34.5 -59t-20 -80.5t-6.5 -98z" />
    <glyph glyph-name="uni20B4" unicode="&#x20b4;" 
d="M175 209q-2 -8 -3 -15t-1 -15q0 -57 30 -87.5t79 -30.5q23 0 44.5 4.5t41 12.5t37.5 19.5t34 25.5l35 -64q-17 -14 -37.5 -27.5t-44.5 -24t-51.5 -16.5t-58.5 -6q-45 0 -80 15t-59.5 41t-37 61t-12.5 76v15.5t2 15.5h-40v66h74q13 15 32 30t36 26l81 55h-223v66h310
q7 11 11 23.5t4 30.5q0 22 -7.5 42.5t-22.5 36t-36.5 25t-48.5 9.5q-34 0 -68 -12.5t-66 -32.5l-32 65q15 10 34.5 20t41.5 18t45 13t45 5q47 0 83 -14.5t61 -40t37.5 -59t12.5 -72.5q0 -17 -2.5 -30t-7.5 -27h46v-66h-100q-9 -9 -27 -24.5t-30 -23.5l-92 -63h249v-66h-318z
" />
    <glyph glyph-name="uni20B5" unicode="&#x20b5;" 
d="M341 695q36 -1 74 -12.5t76 -31.5l-23 -64q-36 18 -66.5 24.5t-60.5 7.5v-558q30 0 60.5 7t66.5 25l23 -64q-38 -20 -76 -31.5t-74 -12.5v-93h-66v99q-52 10 -92 39.5t-67 74.5t-40.5 104.5t-13.5 130.5q0 70 13.5 129.5t40.5 105t67 74.5t92 40v81h66v-75zM149 340
q0 -52 7.5 -97t23 -80.5t39.5 -59.5t56 -34v542q-32 -10 -56 -34t-39.5 -59.5t-23 -80.5t-7.5 -97z" />
    <glyph glyph-name="afii61289" unicode="&#x2113;" horiz-adv-x="402" 
d="M373 35q-26 -22 -57 -36t-66 -14q-62 0 -87.5 35t-25.5 89v138l-15 -12.5t-19.5 -15.5t-22.5 -17t-24 -17l-35 56l22.5 15t29.5 20.5t33 24.5t31 25v237q0 43 9 72t24 47t35.5 25.5t43.5 7.5q51 0 79 -31t28 -90q0 -78 -38 -155t-116 -151v-175q0 -10 1.5 -21.5t7 -21
t15 -15.5t24.5 -6q25 0 52 12t49 31zM288 586q0 32 -10 48.5t-30 16.5q-25 0 -35.5 -23t-10.5 -68v-184q38 45 62 97.5t24 112.5z" />
    <glyph glyph-name="afii61352" unicode="&#x2116;" horiz-adv-x="1003" 
d="M507 126l-8 127v427h84v-680h-88l-320 554h-2l8 -127v-427h-84v680h88l320 -554h2zM726 502q0 -47 18.5 -72.5t56.5 -25.5q39 0 58 25.5t19 72.5q0 46 -19 72t-58 26q-38 0 -56.5 -26t-18.5 -72zM949 502q0 -33 -9 -62.5t-27 -51t-46 -34.5t-66 -13q-37 0 -64.5 13
t-45.5 34.5t-27 51t-9 62.5t9 62.5t27 51t45.5 34.5t64.5 13q38 0 66 -13t46 -34.5t27 -51t9 -62.5zM680 213v59h243v-59h-243z" />
    <glyph glyph-name="uni2117" unicode="&#x2117;" horiz-adv-x="828" 
d="M59 340q0 75 27 140t75 113t113 75t140 27t140 -27t113 -75t75 -113t27 -140t-27 -140t-75 -113t-113 -75t-140 -27t-140 27t-113 75t-75 113t-27 140zM115 340q0 -64 22.5 -119.5t62.5 -96t95 -63.5t119 -23t119 23t95 63.5t62.5 96t22.5 119.5t-22.5 119.5t-62.5 96
t-95 63.5t-119 23t-119 -23t-95 -63.5t-62.5 -96t-22.5 -119.5zM292 153v374h144q34 0 58.5 -9t40.5 -25t23 -38.5t7 -49.5t-7.5 -49t-23 -38.5t-40 -25.5t-58.5 -9h-74v-130h-70zM362 343h69q32 0 46.5 17.5t14.5 44.5q0 28 -14.5 45t-46.5 17h-69v-124z" />
    <glyph glyph-name="trademark" unicode="&#x2122;" horiz-adv-x="741" 
d="M300 700v-53h-84v-227h-65v227h-85v53h234zM507 549l29 64l49 87h74v-280h-64v127l5 69h-1l-67 -129h-51l-66 129h-1l5 -69v-127h-65v280h74l48 -85l31 -66v0z" />
    <glyph glyph-name="Omega" unicode="&#x2126;" horiz-adv-x="693" 
d="M73 74h128q-25 19 -49 46.5t-42.5 63t-29.5 77.5t-11 89q0 72 15.5 134.5t49 109.5t86.5 74t127 27t126.5 -27t86 -74t49 -109.5t15.5 -134.5q0 -47 -11 -89t-29.5 -77.5t-42.5 -63t-49 -46.5h128v-74h-223v70q64 48 101.5 112.5t37.5 156.5q0 57 -9 108t-31 89t-58 60.5
t-91 22.5q-54 0 -90.5 -22t-58.5 -60.5t-31.5 -89t-9.5 -107.5q0 -92 38 -157t101 -113v-70h-223v74z" />
    <glyph glyph-name="estimated" unicode="&#x212e;" horiz-adv-x="684" 
d="M591 106q-47 -65 -104.5 -93t-137.5 -28q-65 0 -117 24t-89.5 65.5t-57.5 97t-20 118.5q0 64 20 119t57.5 95.5t89.5 64t117 23.5q63 0 115 -21.5t89.5 -60t59 -92t23.5 -118.5l-7 -10h-445v-201q32 -31 74.5 -46.5t90.5 -15.5q62 0 114.5 24t90.5 82zM515 491
q-35 33 -77.5 48t-88.5 15q-48 0 -90.5 -15t-74.5 -48v-161h331v161z" />
    <glyph glyph-name="onethird" unicode="&#x2153;" horiz-adv-x="714" 
d="M475 200h56q31 0 43.5 12t12.5 30q0 21 -13.5 32t-41.5 11q-20 0 -41 -4.5t-39 -12.5l-19 55q21 11 47.5 17t54.5 6q56 0 87.5 -25.5t31.5 -68.5q0 -32 -16 -51t-34 -24v-1q25 -9 41.5 -30t16.5 -55q0 -45 -33 -72t-98 -27q-35 0 -60.5 7.5t-45.5 18.5l17 57
q20 -10 41 -16t46 -6q29 0 48 10.5t19 36.5q0 22 -16.5 31t-48.5 9h-56v60zM44 568v58l118 54h48v-338h-64v266h-1l-94 -40h-7zM80 0v10l447 670h76v-10l-447 -670h-76z" />
    <glyph glyph-name="twothirds" unicode="&#x2154;" horiz-adv-x="771" 
d="M532 200h56q31 0 43.5 12t12.5 30q0 21 -13.5 32t-41.5 11q-20 0 -41 -4.5t-39 -12.5l-19 55q21 11 47.5 17t54.5 6q56 0 87.5 -25.5t31.5 -68.5q0 -32 -16 -51t-34 -24v-1q25 -9 41.5 -30t16.5 -55q0 -45 -33 -72t-98 -27q-35 0 -60.5 7.5t-45.5 18.5l17 57
q20 -10 41 -16t46 -6q29 0 48 10.5t19 36.5q0 22 -16.5 31t-48.5 9h-56v60zM147 400h138v-60h-230v51l127 117q32 29 32 64q0 29 -16.5 41t-37.5 12q-23 0 -40.5 -11.5t-31.5 -25.5l-34 48q7 7 17.5 16t24.5 16.5t31 12.5t38 5q24 0 45.5 -7.5t37 -21t24.5 -34t9 -45.5
q0 -37 -16 -62.5t-36 -42.5l-82 -72v-1zM137 0v10l447 670h76v-10l-447 -670h-76z" />
    <glyph glyph-name="oneeighth" unicode="&#x215b;" horiz-adv-x="715" 
d="M44 568v58l118 54h48v-338h-64v266h-1l-94 -40h-7zM80 0v10l447 670h76v-10l-447 -670h-76zM540 53q31 0 45.5 12.5t14.5 32.5q0 21 -14.5 34t-45.5 13q-32 0 -46.5 -13t-14.5 -34q0 -20 14.5 -32.5t46.5 -12.5zM540 346q51 0 82 -26.5t31 -67.5q0 -31 -15.5 -48
t-32.5 -25v-1q26 -11 42.5 -33t16.5 -54q0 -45 -34.5 -72t-89.5 -27q-57 0 -92 27t-35 72q0 32 17.5 54t43.5 33v1q-18 8 -33 25t-15 48q0 41 31 67.5t83 26.5zM540 207q23 0 35.5 10t12.5 27t-12.5 28t-35.5 11q-26 0 -37 -11t-11 -28t11 -27t37 -10z" />
    <glyph glyph-name="threeeighths" unicode="&#x215c;" horiz-adv-x="760" 
d="M585 53q31 0 45.5 12.5t14.5 32.5q0 21 -14.5 34t-45.5 13q-32 0 -46.5 -13t-14.5 -34q0 -20 14.5 -32.5t46.5 -12.5zM585 346q51 0 82 -26.5t31 -67.5q0 -31 -15.5 -48t-32.5 -25v-1q26 -11 42.5 -33t16.5 -54q0 -45 -34.5 -72t-89.5 -27q-57 0 -92 27t-35 72
q0 32 17.5 54t43.5 33v1q-18 8 -33 25t-15 48q0 41 31 67.5t83 26.5zM585 207q23 0 35.5 10t12.5 27t-12.5 28t-35.5 11q-26 0 -37 -11t-11 -28t11 -27t37 -10zM98 539h56q31 0 43.5 12t12.5 30q0 21 -13.5 32t-41.5 11q-20 0 -41 -4.5t-39 -12.5l-19 55q21 11 47.5 17
t54.5 6q56 0 87.5 -25.5t31.5 -68.5q0 -32 -16 -51t-34 -24v-1q25 -9 41.5 -30t16.5 -55q0 -45 -33 -72t-98 -27q-35 0 -60.5 7.5t-45.5 18.5l17 57q20 -10 41 -16t46 -6q29 0 48 10.5t19 36.5q0 22 -16.5 31t-48.5 9h-56v60zM125 0v10l447 670h76v-10l-447 -670h-76z" />
    <glyph glyph-name="fiveeighths" unicode="&#x215d;" horiz-adv-x="747" 
d="M572 53q31 0 45.5 12.5t14.5 32.5q0 21 -14.5 34t-45.5 13q-32 0 -46.5 -13t-14.5 -34q0 -20 14.5 -32.5t46.5 -12.5zM572 346q51 0 82 -26.5t31 -67.5q0 -31 -15.5 -48t-32.5 -25v-1q26 -11 42.5 -33t16.5 -54q0 -45 -34.5 -72t-89.5 -27q-57 0 -92 27t-35 72
q0 32 17.5 54t43.5 33v1q-18 8 -33 25t-15 48q0 41 31 67.5t83 26.5zM572 207q23 0 35.5 10t12.5 27t-12.5 28t-35.5 11q-26 0 -37 -11t-11 -28t11 -27t37 -10zM72 504l18 176h178v-59h-123l-8 -64h23q53 0 87.5 -26t34.5 -82q0 -54 -36.5 -84.5t-100.5 -30.5q-18 0 -45.5 5
t-51.5 14l15 60q22 -10 45.5 -14t38.5 -4q68 0 68 54q0 47 -62 47q-17 0 -36 -0.5t-36 -2.5zM112 0v10l447 670h76v-10l-447 -670h-76z" />
    <glyph glyph-name="seveneighths" unicode="&#x215e;" horiz-adv-x="703" 
d="M528 53q31 0 45.5 12.5t14.5 32.5q0 21 -14.5 34t-45.5 13q-32 0 -46.5 -13t-14.5 -34q0 -20 14.5 -32.5t46.5 -12.5zM528 346q51 0 82 -26.5t31 -67.5q0 -31 -15.5 -48t-32.5 -25v-1q26 -11 42.5 -33t16.5 -54q0 -45 -34.5 -72t-89.5 -27q-57 0 -92 27t-35 72
q0 32 17.5 54t43.5 33v1q-18 8 -33 25t-15 48q0 41 31 67.5t83 26.5zM528 207q23 0 35.5 10t12.5 27t-12.5 28t-35.5 11q-26 0 -37 -11t-11 -28t11 -27t37 -10zM85 347l124 273v1h-158v59h228v-51l-126 -287h-68v5zM68 0v10l447 670h76v-10l-447 -670h-76z" />
    <glyph glyph-name="arrowleft" unicode="&#x2190;" horiz-adv-x="892" 
d="M420 719l56 -57l-295 -285h711v-76h-711l295 -286l-56 -56l-380 380z" />
    <glyph glyph-name="arrowup" unicode="&#x2191;" horiz-adv-x="892" 
d="M845 383l-57 -55l-285 294l-1 -710h-76l1 710l-286 -294l-56 55l380 380z" />
    <glyph glyph-name="arrowright" unicode="&#x2192;" horiz-adv-x="892" 
d="M512 -41l-57 56l296 286h-711v76h711l-296 285l57 57l380 -380z" />
    <glyph glyph-name="arrowdown" unicode="&#x2193;" horiz-adv-x="892" 
d="M85 292l56 55l286 -294l1 710h75v-710l285 294l57 -55l-380 -380z" />
    <glyph glyph-name="uni2196" unicode="&#x2196;" horiz-adv-x="896" 
d="M698 662v-81l-412 6l503 -503l-54 -52l-501 503l6 -412h-81v539h539z" />
    <glyph glyph-name="uni2197" unicode="&#x2197;" horiz-adv-x="895" 
d="M804 124h-81l6 412l-501 -503l-53 54l502 501l-412 -7v81h539v-538z" />
    <glyph glyph-name="uni2198" unicode="&#x2198;" horiz-adv-x="895" 
d="M266 18v81l412 -6l-503 501l54 53l501 -502l-6 412h81v-539h-539z" />
    <glyph glyph-name="uni2199" unicode="&#x2199;" horiz-adv-x="896" 
d="M159 557h81l-6 -412l501 502l54 -53l-503 -501l412 6v-81h-539v539z" />
    <glyph glyph-name="partialdiff" unicode="&#x2202;" horiz-adv-x="558" 
d="M168 700q87 0 148.5 -28t101 -77.5t58 -116t18.5 -142.5q0 -92 -18 -158.5t-49 -109.5t-73.5 -63t-90.5 -20q-52 0 -92 18.5t-67 51.5t-41 77.5t-14 95.5q0 55 15 100t42.5 77.5t65.5 50t85 17.5q21 0 42 -5t39 -13.5t33.5 -19.5t26.5 -23l2 1q-7 61 -28.5 101.5
t-54 64.5t-74.5 34.5t-90 11.5zM405 326q-11 13 -25 25.5t-31.5 22.5t-38.5 16.5t-45 6.5q-59 0 -94.5 -44.5t-35.5 -125.5q0 -33 9 -63.5t25.5 -53t40 -36t52.5 -13.5q72 0 107.5 68.5t35.5 196.5z" />
    <glyph glyph-name="Delta" unicode="&#x2206;" horiz-adv-x="609" 
d="M582 0h-555v5l235 675h85l235 -675v-5zM303 595l-53 -179l-116 -346h341l-117 346l-53 179h-2z" />
    <glyph glyph-name="product" unicode="&#x220f;" horiz-adv-x="667" 
d="M489 626h-311v-824h-84v898h479v-898h-84v824z" />
    <glyph glyph-name="summation" unicode="&#x2211;" horiz-adv-x="551" 
d="M43 -125l238 383l-223 368v74h435v-74h-347l229 -364l-244 -386h376v-74h-464v73z" />
    <glyph glyph-name="minus" unicode="&#x2212;" 
d="M493 307v-74h-437v74h437z" />
    <glyph glyph-name="uni2215" unicode="&#x2215;" horiz-adv-x="552" 
d="M15 0v10l447 670h76v-10l-447 -670h-76z" />
    <glyph glyph-name="uni2219" unicode="&#x2219;" horiz-adv-x="256" 
d="M68 288q0 27 17 44.5t43 17.5q27 0 43.5 -17.5t16.5 -44.5q0 -28 -16.5 -45.5t-43.5 -17.5q-26 0 -43 17.5t-17 45.5z" />
    <glyph glyph-name="radical" unicode="&#x221a;" horiz-adv-x="583" 
d="M26 222h81l83 -210l38 -126h2l32 124l226 670h77l-290 -878h-84l-165 410v10z" />
    <glyph glyph-name="infinity" unicode="&#x221e;" horiz-adv-x="709" 
d="M503 120q-21 0 -39 5t-35 16t-35 28t-39 42q-21 -24 -39.5 -41.5t-36.5 -28.5t-36 -16t-38 -5q-30 0 -56 11t-45.5 30.5t-30.5 47.5t-11 62t11 61.5t30.5 47t46 30t57.5 10.5q19 0 36 -5t34.5 -16t36 -29t40.5 -44q23 27 41.5 45t35.5 29t34.5 15.5t37.5 4.5
q30 0 56 -10.5t45.5 -29.5t31 -47t11.5 -62t-11 -62t-30.5 -47.5t-46 -30.5t-56.5 -11zM503 193q33 0 52.5 23.5t19.5 54.5q0 32 -19.5 54t-52.5 22q-22 0 -44.5 -16.5t-57.5 -59.5q36 -43 58 -60.5t44 -17.5zM207 193q21 0 44.5 19t56.5 59q-34 42 -56.5 59t-44.5 17
q-34 0 -53.5 -22t-19.5 -54t19.5 -55t53.5 -23z" />
    <glyph glyph-name="integral" unicode="&#x222b;" horiz-adv-x="501" 
d="M256 538q14 84 54 120.5t109 36.5q14 0 31.5 -2t30.5 -4l-8 -71q-10 2 -26 4.5t-29 2.5q-33 0 -52 -19.5t-26 -60.5l-97 -601q-14 -84 -53 -120.5t-108 -36.5q-14 0 -32 2t-30 4l8 71q9 -2 25.5 -4.5t29.5 -2.5q32 0 50.5 19.5t25.5 60.5z" />
    <glyph glyph-name="approxequal" unicode="&#x2248;" 
d="M69 383q14 26 42.5 43t69.5 17q22 0 48 -8t52.5 -17.5t50.5 -17.5t43 -8q21 0 38.5 7.5t34.5 26.5l33 -50q-23 -33 -51 -45.5t-60 -12.5q-21 0 -47 8t-52.5 17.5t-50.5 17.5t-41 8q-19 0 -38 -6.5t-39 -28.5zM69 166q14 26 42.5 43t69.5 17q22 0 48 -8t52.5 -17.5
t50.5 -17.5t43 -8q21 0 38.5 7.5t34.5 26.5l33 -50q-23 -33 -51 -45.5t-60 -12.5q-21 0 -47 8t-52.5 17.5t-50.5 17.5t-41 8q-19 0 -38 -6.5t-39 -28.5z" />
    <glyph glyph-name="notequal" unicode="&#x2260;" 
d="M212 200l50 143h-206v74h233l44 124h72v-10l-41 -114h129v-74h-155l-51 -143h206v-74h-232l-44 -126h-73v10l41 116h-129v74h156z" />
    <glyph glyph-name="lessequal" unicode="&#x2264;" 
d="M479 155l-429 201v69l429 201h8v-84l-350 -150v-3l350 -150v-84h-8zM487 74v-74h-437v74h437z" />
    <glyph glyph-name="greaterequal" unicode="&#x2265;" 
d="M63 155v84l350 150v3l-350 150v84h8l429 -201v-69l-429 -201h-8zM500 74v-74h-437v74h437z" />
    <glyph glyph-name="lozenge" unicode="&#x25ca;" horiz-adv-x="518" 
d="M29 327l201 353h53l205 -333l-201 -347h-54zM403 342l-148 252l-141 -264l149 -245z" />
    <glyph glyph-name="whitecircle" unicode="&#x25cb;" horiz-adv-x="800" 
d="M60 341q0 72 26 134t71.5 107.5t107.5 71.5t134 26t134.5 -26t108.5 -71.5t72 -107.5t26 -134t-26 -134.5t-72 -108.5t-108.5 -72t-134.5 -26t-134 26t-107.5 72t-71.5 108.5t-26 134.5zM125 341q0 -59 21 -109.5t57.5 -88t86.5 -58.5t109 -21q58 0 108.5 21t87.5 58.5
t58 88t21 109.5q0 58 -21 108.5t-58 87.5t-87.5 58t-108.5 21q-59 0 -109 -21t-86.5 -58t-57.5 -87.5t-21 -108.5z" />
    <glyph glyph-name="blackcircle" unicode="&#x25cf;" horiz-adv-x="800" 
d="M60 340q0 73 26 135t71.5 107.5t107.5 71.5t135 26q72 0 134.5 -26t108 -71.5t71.5 -107.5t26 -135q0 -72 -26 -134.5t-71.5 -108t-108 -71.5t-134.5 -26q-73 0 -135 26t-107.5 71.5t-71.5 108t-26 134.5z" />
    <glyph glyph-name="uni25DC" unicode="&#x25dc;" horiz-adv-x="339" 
d="M339 616q-59 0 -109 -21t-86.5 -58t-57.5 -87.5t-21 -108.5h-65q0 72 26 134t71.5 107.5t107.5 71.5t134 26v-64z" />
    <glyph glyph-name="uni25DD" unicode="&#x25dd;" horiz-adv-x="341" 
d="M0 680q72 0 134.5 -26t108.5 -71.5t72 -107.5t26 -134h-66q0 58 -21 108.5t-58 87.5t-87.5 58t-108.5 21v64z" />
    <glyph glyph-name="uni25DE" unicode="&#x25de;" horiz-adv-x="341" 
d="M0 64q58 0 108.5 21t87.5 58.5t58 88t21 109.5h66q0 -72 -26 -134.5t-72 -108.5t-108.5 -72t-134.5 -26v64z" />
    <glyph glyph-name="uni25DF" unicode="&#x25df;" horiz-adv-x="339" 
d="M339 0q-72 0 -134 26t-107.5 72t-71.5 108.5t-26 134.5h65q0 -59 21 -109.5t57.5 -88t86.5 -58.5t109 -21v-64z" />
    <glyph glyph-name="uniEA01" unicode="&#xea01;" horiz-adv-x="1000" 
d="M69 765h861v-861h-861v861zM857 -23v715h-715v-715h715zM598 305h-195v-195h-98v469h98v-192h195v192h98v-469h-98v195z" />
    <glyph glyph-name="uniEA02" unicode="&#xea02;" horiz-adv-x="1000" 
d="M69 765h861v-861h-861v861zM857 -23v715h-715v-715h715zM295 344q0 55 15 100t44.5 77t72 50t97.5 18q33 0 67.5 -7.5t67.5 -22.5l-27 -78q-30 14 -54.5 19t-53.5 5q-58 0 -92 -44.5t-34 -116.5q0 -36 9 -65.5t25.5 -50.5t39.5 -33t52 -12t53.5 5t54.5 19l27 -78
q-33 -14 -67.5 -22t-67.5 -8q-55 0 -97.5 17.5t-72 50t-44.5 77.5t-15 100z" />
    <glyph glyph-name="uniEA03" unicode="&#xea03;" horiz-adv-x="1000" 
d="M69 765h861v-861h-861v861zM857 -23v715h-715v-715h715zM361 222q12 -8 27.5 -15t33 -12.5t36.5 -9t37 -3.5q73 0 73 56q0 22 -14 34.5t-52 24.5l-51 16q-65 21 -89 54.5t-24 77.5q0 66 44 105t125 39q32 0 69 -7.5t72 -25.5l-28 -78q-28 14 -58 21t-56 7
q-35 0 -51.5 -13.5t-16.5 -37.5q0 -18 10 -31t39 -22l50 -16q66 -22 98.5 -52.5t32.5 -84.5q0 -35 -12.5 -62.5t-35 -47t-54 -30t-68.5 -10.5q-51 0 -93.5 13.5t-73.5 31.5z" />
    <glyph glyph-name="uniEA04" unicode="&#xea04;" horiz-adv-x="1000" 
d="M69 765h861v-861h-861v861zM598 110h98v469h-98v-192h-195v192h-98v-469h98v195h195v-195z" />
    <glyph glyph-name="uniEA05" unicode="&#xea05;" horiz-adv-x="1000" 
d="M69 765h861v-861h-861v861zM295 344q0 -55 15 -100t44.5 -77.5t72 -50t97.5 -17.5q33 0 67.5 8t67.5 22l-27 78q-30 -14 -54.5 -19t-53.5 -5t-52 12t-39.5 33t-25.5 50.5t-9 65.5q0 72 34 116.5t92 44.5q29 0 53.5 -5t54.5 -19l27 78q-33 15 -67.5 22.5t-67.5 7.5
q-55 0 -97.5 -18t-72 -50t-44.5 -77t-15 -100z" />
    <glyph glyph-name="uniEA06" unicode="&#xea06;" horiz-adv-x="1000" 
d="M69 765h861v-861h-861v861zM331 144q31 -18 73.5 -31.5t93.5 -13.5q37 0 68.5 10.5t54 30t35 47t12.5 62.5q0 54 -32.5 84.5t-98.5 52.5l-50 16q-29 9 -39 22t-10 31q0 24 16.5 37.5t51.5 13.5q26 0 56 -7t58 -21l28 78q-35 18 -72 25.5t-69 7.5q-81 0 -125 -39t-44 -105
q0 -44 24 -77.5t89 -54.5l51 -16q38 -12 52 -24.5t14 -34.5q0 -56 -73 -56q-18 0 -37 3.5t-36.5 9t-33 12.5t-27.5 15z" />
    <glyph glyph-name="commaaccent" unicode="&#xf6c3;" horiz-adv-x="542" 
d="M219 -208l18 141h85v-10l-38 -141h-65v10z" />
    <glyph glyph-name="commainferior" unicode="&#xf6e1;" horiz-adv-x="186" 
d="M28 -210l26 180h89v-9l-53 -181h-62v10z" />
    <glyph glyph-name="commasuperior" unicode="&#xf6e2;" horiz-adv-x="186" 
d="M28 371l26 180h89v-9l-53 -181h-62v10z" />
    <glyph glyph-name="hypheninferior" unicode="&#xf6e5;" horiz-adv-x="242" 
d="M48 33v50h146v-50h-146z" />
    <glyph glyph-name="hyphensuperior" unicode="&#xf6e6;" horiz-adv-x="242" 
d="M48 614v50h146v-50h-146z" />
    <glyph glyph-name="periodinferior" unicode="&#xf6e7;" horiz-adv-x="181" 
d="M40 -76q0 24 14.5 37.5t36.5 13.5t36 -13.5t14 -37.5q0 -23 -14 -36.5t-36 -13.5t-36.5 13.5t-14.5 36.5z" />
    <glyph glyph-name="periodsuperior" unicode="&#xf6e8;" horiz-adv-x="181" 
d="M40 505q0 24 14.5 37.5t36.5 13.5t36 -13.5t14 -37.5q0 -23 -14 -36.5t-36 -13.5t-36.5 13.5t-14.5 36.5z" />
    <glyph glyph-name="uniF8FF" unicode="&#xf8ff;" horiz-adv-x="595" 
d="M91 680h413v-680h-413v680zM446 58v564h-297v-564h297z" />
    <glyph glyph-name="fi" unicode="&#xfb01;" horiz-adv-x="576" 
d="M414 0v408h-217v-408h-83v408h-79v54l79 20v66q0 83 36 120t105 37q14 0 32 -2t31 -4v-80q-10 2 -26.5 4.5t-28.5 2.5q-33 0 -49.5 -15t-16.5 -56v-73h299v-482h-82zM403 624q0 26 14 41t38 15q25 0 39 -15t14 -41t-14 -41.5t-39 -15.5q-24 0 -38 15.5t-14 41.5z" />
    <glyph glyph-name="fl" unicode="&#xfb02;" horiz-adv-x="588" 
d="M114 0v415h-79v48l79 19v66q0 83 35.5 120t100.5 37q18 0 36.5 -2t30.5 -4v-71q-9 2 -25.5 4.5t-29.5 2.5q-32 0 -49 -17.5t-17 -59.5v-76h121v-67h-121v-415h-82zM421 0v700h82v-700h-82z" />
    <glyph glyph-name="zero.lf" horiz-adv-x="597" 
d="M153 340q0 -64 7 -115.5t24 -88t45.5 -56t70.5 -19.5t69.5 19.5t44 56t23.5 88t7 115.5t-7 115.5t-23.5 88t-44 56t-69.5 19.5t-70.5 -19.5t-45.5 -56t-24 -88t-7 -115.5zM531 340q0 -82 -13 -147.5t-40.5 -111.5t-71.5 -71t-106 -25t-106.5 25t-73 71t-41.5 111.5
t-13 147.5t13 147.5t41.5 111.5t73 71t106.5 25t106 -25t71.5 -71t40.5 -111.5t13 -147.5z" />
    <glyph glyph-name="one.lf" horiz-adv-x="374" 
d="M39 534v77l167 69h71v-680h-87v587h-2l-136 -53h-13z" />
    <glyph glyph-name="two.lf" horiz-adv-x="514" 
d="M166 74h288v-74h-398v70l226 254q15 18 29.5 35.5t25.5 36.5t17.5 40t6.5 47q0 28 -8 52.5t-24 43t-39.5 29.5t-53.5 11q-49 0 -82 -18.5t-61 -44.5l-42 59q14 13 32 27t41.5 26t52.5 19.5t64 7.5q44 0 82 -15.5t65.5 -43t43.5 -66.5t16 -87q0 -33 -7 -60.5t-20 -51.5
t-31 -46.5t-39 -46.5l-185 -202v-2z" />
    <glyph glyph-name="three.lf" horiz-adv-x="523" 
d="M135 385h109q30 0 51.5 9t35 25t20 37t6.5 44t-7 44.5t-21.5 38t-35.5 26.5t-49 10q-42 0 -79.5 -9t-75.5 -26l-26 66q35 20 84.5 32.5t97.5 12.5q96 0 147.5 -51.5t51.5 -138.5q0 -27 -7.5 -51.5t-20 -44.5t-28 -34.5t-30.5 -21.5v-2q45 -19 73 -62.5t28 -106.5
q0 -45 -16 -81t-45.5 -62t-70 -40t-88.5 -14q-60 0 -108.5 14t-83.5 37l29 66q39 -22 78 -31.5t84 -9.5q28 0 52.5 8.5t42.5 25t28.5 39.5t10.5 53q0 25 -6.5 47t-21.5 38.5t-40.5 26.5t-64.5 10h-104v76z" />
    <glyph glyph-name="four.lf" horiz-adv-x="565" 
d="M359 480h84v-258h77v-74h-77v-148h-84v148h-321v61l192 471h85l-184 -456v-2h228v258z" />
    <glyph glyph-name="five.lf" horiz-adv-x="511" 
d="M86 346l37 334h308v-74h-240l-21 -195q15 1 30.5 1.5t32.5 0.5q49 0 89.5 -11.5t70 -36.5t45.5 -65t16 -97q0 -54 -17.5 -94.5t-49 -68t-75.5 -41.5t-96 -14q-20 0 -43 3.5t-46 9t-44 12.5t-37 15l22 71q36 -16 73 -25.5t75 -9.5q69 0 110 33.5t41 108.5q0 134 -142 134
q-31 0 -66 -1.5t-61 -3.5z" />
    <glyph glyph-name="six.lf" horiz-adv-x="537" 
d="M348 670l-156 -260l2 -2q13 12 41 24t57 12q44 0 80.5 -16t62.5 -46t40.5 -71.5t14.5 -92.5q0 -49 -14.5 -91.5t-42.5 -74t-69 -49.5t-93 -18q-53 0 -94 18t-69 49.5t-42.5 74t-14.5 91.5t14.5 97t37.5 88l154 277h91v-10zM403 218q0 69 -36 109.5t-96 40.5
q-61 0 -97 -40.5t-36 -109.5q0 -34 9.5 -63t26.5 -50t42 -32.5t55 -11.5t54.5 11.5t41.5 32.5t26.5 50t9.5 63z" />
    <glyph glyph-name="seven.lf" horiz-adv-x="468" 
d="M124 10l216 594v2h-303v74h394v-67l-218 -613h-89v10z" />
    <glyph glyph-name="eight.lf" horiz-adv-x="569" 
d="M285 61q70 0 102.5 36t32.5 92t-32.5 92.5t-102.5 36.5q-72 0 -104 -36.5t-32 -92.5t33 -92t103 -36zM285 695q51 0 88.5 -14t62 -39.5t36 -60t11.5 -74.5q0 -30 -8 -53.5t-20 -41.5t-27.5 -31t-30.5 -22v-2q22 -11 42 -28t35 -38.5t24 -48.5t9 -57q0 -43 -14 -79.5
t-41.5 -63.5t-69.5 -42t-97 -15q-56 0 -97.5 15t-69.5 42t-42 63.5t-14 79.5q0 30 9 57t24.5 48.5t35.5 38.5t42 28v2q-15 9 -30.5 22t-28.5 31t-21 41.5t-8 53.5q0 40 12 74.5t36.5 60t62 39.5t89.5 14zM285 394q55 0 83 30t28 82t-28 82.5t-83 30.5q-56 0 -84.5 -30.5
t-28.5 -82.5t28.5 -82t84.5 -30z" />
    <glyph glyph-name="nine.lf" horiz-adv-x="537" 
d="M189 10l156 260l-1 1v1q-13 -12 -41.5 -24t-57.5 -12q-44 0 -80.5 16t-62.5 46t-40.5 71.5t-14.5 92.5q0 49 14.5 91.5t42.5 74t69 49.5t93 18q53 0 94 -18t69 -49.5t42.5 -74t14.5 -91.5t-15 -97.5t-37 -87.5l-154 -277h-91v10zM134 462q0 -69 36 -109.5t96 -40.5
q62 0 97.5 40.5t35.5 109.5q0 34 -9.5 63t-26.5 50t-41.5 32.5t-55.5 11.5q-30 0 -54 -11.5t-41.5 -32.5t-27 -50t-9.5 -63z" />
    <glyph glyph-name="a.alt" horiz-adv-x="546" 
d="M383 383q-22 22 -53.5 33t-66.5 11t-58.5 -15.5t-38 -41t-21 -59t-6.5 -70.5t6.5 -70.5t21 -59t38 -41t58.5 -15.5t66.5 11t53.5 33v284zM465 0h-58l-9 44h-1q-12 -9 -28 -19.5t-35.5 -19.5t-43 -14.5t-48.5 -5.5q-49 0 -84 20.5t-58 55t-34 81t-11 99.5q0 52 11 99
t34 81.5t58 55t84 20.5q25 0 48.5 -5.5t43 -14.5t35.5 -19.5t28 -19.5h1l9 44h58v-482z" />
    <glyph glyph-name="agrave.alt" horiz-adv-x="546" 
d="M383 383q-22 22 -53.5 33t-66.5 11t-58.5 -15.5t-38 -41t-21 -59t-6.5 -70.5t6.5 -70.5t21 -59t38 -41t58.5 -15.5t66.5 11t53.5 33v284zM465 0h-58l-9 44h-1q-12 -9 -28 -19.5t-35.5 -19.5t-43 -14.5t-48.5 -5.5q-49 0 -84 20.5t-58 55t-34 81t-11 99.5q0 52 11 99
t34 81.5t58 55t84 20.5q25 0 48.5 -5.5t43 -14.5t35.5 -19.5t28 -19.5h1l9 44h58v-482zM169 710h91l59 -121v-10h-71l-79 121v10z" />
    <glyph glyph-name="aacute.alt" horiz-adv-x="546" 
d="M383 383q-22 22 -53.5 33t-66.5 11t-58.5 -15.5t-38 -41t-21 -59t-6.5 -70.5t6.5 -70.5t21 -59t38 -41t58.5 -15.5t66.5 11t53.5 33v284zM465 0h-58l-9 44h-1q-12 -9 -28 -19.5t-35.5 -19.5t-43 -14.5t-48.5 -5.5q-49 0 -84 20.5t-58 55t-34 81t-11 99.5q0 52 11 99
t34 81.5t58 55t84 20.5q25 0 48.5 -5.5t43 -14.5t35.5 -19.5t28 -19.5h1l9 44h58v-482zM392 700l-79 -121h-71v10l59 121h91v-10z" />
    <glyph glyph-name="acircumflex.alt" horiz-adv-x="546" 
d="M383 383q-22 22 -53.5 33t-66.5 11t-58.5 -15.5t-38 -41t-21 -59t-6.5 -70.5t6.5 -70.5t21 -59t38 -41t58.5 -15.5t66.5 11t53.5 33v284zM465 0h-58l-9 44h-1q-12 -9 -28 -19.5t-35.5 -19.5t-43 -14.5t-48.5 -5.5q-49 0 -84 20.5t-58 55t-34 81t-11 99.5q0 52 11 99
t34 81.5t58 55t84 20.5q25 0 48.5 -5.5t43 -14.5t35.5 -19.5t28 -19.5h1l9 44h58v-482zM413 589v-10h-75l-58 84l-58 -84h-75v10l86 121h94z" />
    <glyph glyph-name="atilde.alt" horiz-adv-x="546" 
d="M383 383q-22 22 -53.5 33t-66.5 11t-58.5 -15.5t-38 -41t-21 -59t-6.5 -70.5t6.5 -70.5t21 -59t38 -41t58.5 -15.5t66.5 11t53.5 33v284zM465 0h-58l-9 44h-1q-12 -9 -28 -19.5t-35.5 -19.5t-43 -14.5t-48.5 -5.5q-49 0 -84 20.5t-58 55t-34 81t-11 99.5q0 52 11 99
t34 81.5t58 55t84 20.5q25 0 48.5 -5.5t43 -14.5t35.5 -19.5t28 -19.5h1l9 44h58v-482zM139 634q13 20 33 38.5t50 18.5q15 0 30.5 -6.5t30.5 -14t30 -13.5t29 -6q15 0 28.5 9t25.5 26l25 -50q-17 -25 -36.5 -41t-46.5 -16q-15 0 -30.5 6t-30.5 13.5t-30 14t-30 6.5
q-14 0 -28 -9.5t-25 -25.5z" />
    <glyph glyph-name="adieresis.alt" horiz-adv-x="546" 
d="M383 383q-22 22 -53.5 33t-66.5 11t-58.5 -15.5t-38 -41t-21 -59t-6.5 -70.5t6.5 -70.5t21 -59t38 -41t58.5 -15.5t66.5 11t53.5 33v284zM465 0h-58l-9 44h-1q-12 -9 -28 -19.5t-35.5 -19.5t-43 -14.5t-48.5 -5.5q-49 0 -84 20.5t-58 55t-34 81t-11 99.5q0 52 11 99
t34 81.5t58 55t84 20.5q25 0 48.5 -5.5t43 -14.5t35.5 -19.5t28 -19.5h1l9 44h58v-482zM318 633q0 25 14 40t38 15q25 0 39 -15t14 -40q0 -26 -14 -40.5t-39 -14.5q-24 0 -38 14.5t-14 40.5zM135 633q0 25 14 40t38 15q25 0 39 -15t14 -40q0 -26 -14 -40.5t-39 -14.5
q-24 0 -38 14.5t-14 40.5z" />
    <glyph glyph-name="aring.alt" horiz-adv-x="546" 
d="M383 383q-22 22 -53.5 33t-66.5 11t-58.5 -15.5t-38 -41t-21 -59t-6.5 -70.5t6.5 -70.5t21 -59t38 -41t58.5 -15.5t66.5 11t53.5 33v284zM465 0h-58l-9 44h-1q-12 -9 -28 -19.5t-35.5 -19.5t-43 -14.5t-48.5 -5.5q-49 0 -84 20.5t-58 55t-34 81t-11 99.5q0 52 11 99
t34 81.5t58 55t84 20.5q25 0 48.5 -5.5t43 -14.5t35.5 -19.5t28 -19.5h1l9 44h58v-482zM240 638q0 -20 11 -31t29 -11t29 11t11 31t-11 30.5t-29 10.5t-29 -10.5t-11 -30.5zM186 638q0 45 26 69t68 24t67.5 -24t25.5 -69t-25.5 -69.5t-67.5 -24.5t-68 24.5t-26 69.5z" />
    <glyph glyph-name="amacron.alt" horiz-adv-x="546" 
d="M383 383q-22 22 -53.5 33t-66.5 11t-58.5 -15.5t-38 -41t-21 -59t-6.5 -70.5t6.5 -70.5t21 -59t38 -41t58.5 -15.5t66.5 11t53.5 33v284zM465 0h-58l-9 44h-1q-12 -9 -28 -19.5t-35.5 -19.5t-43 -14.5t-48.5 -5.5q-49 0 -84 20.5t-58 55t-34 81t-11 99.5q0 52 11 99
t34 81.5t58 55t84 20.5q25 0 48.5 -5.5t43 -14.5t35.5 -19.5t28 -19.5h1l9 44h58v-482zM158 597v74h243v-74h-243z" />
    <glyph glyph-name="abreve.alt" horiz-adv-x="546" 
d="M383 383q-22 22 -53.5 33t-66.5 11t-58.5 -15.5t-38 -41t-21 -59t-6.5 -70.5t6.5 -70.5t21 -59t38 -41t58.5 -15.5t66.5 11t53.5 33v284zM465 0h-58l-9 44h-1q-12 -9 -28 -19.5t-35.5 -19.5t-43 -14.5t-48.5 -5.5q-49 0 -84 20.5t-58 55t-34 81t-11 99.5q0 52 11 99
t34 81.5t58 55t84 20.5q25 0 48.5 -5.5t43 -14.5t35.5 -19.5t28 -19.5h1l9 44h58v-482zM280 654q38 0 65.5 10.5t44.5 21.5l23 -52q-11 -11 -25 -20.5t-30.5 -17.5t-36 -12.5t-41.5 -4.5t-41 4.5t-35.5 12.5t-30.5 17.5t-25 20.5l23 52q17 -11 44 -21.5t65 -10.5z" />
    </font>
</defs>
</svg>
