<?xml version="1.0" standalone="no"?>
<!DOCTYPE svg PUBLIC "-//W3C//DTD SVG 1.1//EN" "http://www.w3.org/Graphics/SVG/1.1/DTD/svg11.dtd" >
<svg xmlns="http://www.w3.org/2000/svg">
<metadata>
Created by FontPrep 20130207 at Tue Nov  1 10:34:08 2016
 By Marcelo Arteiro
Copyright (c) 2015 by Volkswagen AG. All rights reserved.
</metadata>
<defs>
<font id="d28f021c44532a7af6ad185002fac06f" horiz-adv-x='1024' >
  <font-face 
    font-family="VWHead-Italic"
    font-weight="400"
    font-style="italic"
    font-stretch="normal"
    units-per-em="2048"
    panose-1="2 11 5 4 4 2 0 0 0 3"
    ascent="1612"
    descent="-436"
    x-height="987"
    cap-height="1393"
    bbox="-532 -453 2159.01 1968"
    underline-thickness="143"
    underline-position="-82"
    slope="-12"
    unicode-range="U+000D-FB02"
  />
<missing-glyph horiz-adv-x="1294" 
d="M369 119h608v1155h-608v-1155zM250 0v1393h846v-1393h-846z" />
    <glyph glyph-name=".notdef" horiz-adv-x="1294" 
d="M369 119h608v1155h-608v-1155zM250 0v1393h846v-1393h-846z" />
    <glyph glyph-name=".null" horiz-adv-x="0" 
 />
    <glyph glyph-name=".null" horiz-adv-x="0" 
 />
    <glyph glyph-name="nonmarkingreturn" horiz-adv-x="681" 
 />
    <glyph glyph-name="CR" unicode="&#xd;" horiz-adv-x="501" 
 />
    <glyph glyph-name="space" unicode=" " horiz-adv-x="514" 
 />
    <glyph glyph-name="exclam" unicode="!" horiz-adv-x="518" 
d="M131 -31q-104 -1 -104 115q0 60 46 106t105 46t87 -29t28 -87t-46 -105q-46 -46 -116 -46zM453 1042l-166 -612h-119l96 612l74 351h188z" />
    <glyph glyph-name="quotedbl" unicode="&#x22;" horiz-adv-x="772" 
d="M453 1188l-111 -361h-119l41 361l45 205h187zM760 1188l-111 -361h-119l41 361l45 205h187z" />
    <glyph glyph-name="numbersign" unicode="#" horiz-adv-x="1388" 
d="M655 893l-168 -387h289l168 387h-289zM266 0h-178l4 20l144 334h-185l25 152h227l168 387h-188l26 151h230l151 349h178l-4 -21l-141 -328h289l151 349h178l-6 -21l-141 -328h192l-26 -151h-234l-168 -387h195l-25 -152h-237l-152 -354h-178l4 20l144 334h-289z" />
    <glyph glyph-name="dollar" unicode="$" 
d="M467 1012q0 -127 127 -187l88 416q-104 -19 -160 -79t-55 -150zM809 393q0 113 -127 185l-92 -428q219 36 219 243zM268 987q0 180 121 298t332 134l33 158h141l-35 -158q152 -20 281 -104l-84 -152q-137 72 -234 82l-100 -477l8 -4q276 -125 277 -344q0 -186 -125 -308
t-330 -139l-41 -194h-141l41 194q-180 20 -332 129l90 152q129 -98 279 -109l104 494l-39 18q-114 51 -180 137t-66 193z" />
    <glyph glyph-name="percent" unicode="%" horiz-adv-x="1568" 
d="M1444 434q0 -184 -102 -317t-265 -133q-113 0 -172 76t-59 198q0 184 101 317t265 134q112 0 172 -76t60 -199zM1196 584q-94 0 -148 -94t-55 -238q1 -143 101 -143t151 94q51 93 51 237t-100 144zM772 1130q0 -184 -101 -317t-265 -133q-113 0 -173 76q-59 76 -59 198
q0 184 101 318t266 133q113 0 172 -76t59 -199zM524 1280q-94 0 -148 -94t-54 -238q0 -143 100 -143t151 94q51 93 51 237t-100 144zM293 0h-164l4 20l1190 1373h164l-4 -21z" />
    <glyph glyph-name="ampersand" unicode="&#x26;" horiz-adv-x="1398" 
d="M770 1249q-111 -1 -167 -65t-56 -164t63 -186l13 -17l122 60q168 80 168 225q0 59 -36 103q-37 44 -107 44zM254 308q0 -79 50 -122t145 -43q164 0 346 150l-236 317l-55 -30q-130 -74 -190 -134t-60 -138zM1108 1118q0 -229 -285 -377l-106 -55l207 -268
q143 148 254 289l135 -103q-121 -152 -285 -319l209 -265l-4 -20h-207l-125 160q-231 -190 -475 -191q-176 0 -273 87t-98 220q0 166 124 278q102 92 237 163l49 26l-14 21q-97 132 -97 276t123 264t309 119q142 0 232 -92t90 -213z" />
    <glyph glyph-name="quotesingle" unicode="'" horiz-adv-x="464" 
d="M453 1188l-111 -361h-119l41 361l45 205h187z" />
    <glyph glyph-name="parenleft" unicode="(" horiz-adv-x="598" 
d="M66 186q0 366 134 674q134 309 365 606l113 -86q-222 -324 -324 -628t-102 -622t51 -517l-143 -55q-94 262 -94 628z" />
    <glyph glyph-name="parenright" unicode=")" horiz-adv-x="598" 
d="M504 838q0 -366 -134 -674q-134 -309 -366 -606l-113 86q223 324 325 628t101 622q0 318 -51 517l144 55q94 -262 94 -628z" />
    <glyph glyph-name="asterisk" unicode="*" horiz-adv-x="872" 
d="M463 991l-2 2l-209 -125l-45 133l215 103v4l-170 102l96 119l154 -125l4 2l37 228h143l-63 -228l4 -2l209 125l45 -133l-215 -102v-4l170 -103l-97 -119l-159 127l-2 -2l-33 -229h-144z" />
    <glyph glyph-name="plus" unicode="+" 
d="M784 1067l-94 -438h404l-31 -152h-404l-94 -440h-157l94 440h-400l33 152h400l92 438h157z" />
    <glyph glyph-name="comma" unicode="," horiz-adv-x="520" 
d="M-104 -330l4 21l194 518h209l-4 -21l-258 -518h-145z" />
    <glyph glyph-name="hyphen" unicode="-" horiz-adv-x="827" 
d="M659 477h-534l33 152h532z" />
    <glyph glyph-name="period" unicode="." horiz-adv-x="505" 
d="M127 -31q-104 -1 -104 115q0 60 46 106t105 46q115 1 115 -105q0 -70 -46 -116t-116 -46z" />
    <glyph glyph-name="slash" unicode="/" horiz-adv-x="825" 
d="M117 0h-176l4 20l813 1373h176l-4 -21z" />
    <glyph glyph-name="zero" unicode="0" 
d="M1184 928q0 -449 -188 -704t-496 -255q-211 0 -317 133q-105 133 -105 365q0 449 186 703t500 253q208 0 314 -133t106 -362zM272 475q0 -332 242 -332q201 0 338 201t137 578q0 328 -239 327q-202 1 -340 -199t-138 -575z" />
    <glyph glyph-name="one" unicode="1" 
d="M385 1102h-27l35 172l352 119h154l-260 -1223h297l-37 -170h-782l37 170h297l219 1018h-4z" />
    <glyph glyph-name="two" unicode="2" 
d="M354 170h607l-37 -170h-889l33 150l618 514q82 70 125 112t82 111q39 71 39 157t-58 146t-162 59q-106 0 -186 -35t-168 -100l-84 139q223 170 455 170q174 0 288 -104q113 -105 113 -261t-74 -264t-239 -241l-463 -379v-4z" />
    <glyph glyph-name="three" unicode="3" 
d="M606 795q150 -1 229 79t78 193q0 80 -53 131t-155 51q-172 0 -363 -71l-45 153q199 92 405 92t310 -88q102 -88 102 -232q0 -145 -80 -247t-188 -154v-4q162 -68 162 -270t-163 -330q-163 -129 -393 -129t-417 105l76 153q152 -84 323 -84t275 79t104 216q0 186 -254 187
h-231l37 170h241z" />
    <glyph glyph-name="four" unicode="4" 
d="M729 465l109 518h188l-111 -518h197l-37 -170h-194l-64 -295h-188l63 295h-674l31 143l619 955h196l-596 -928h461z" />
    <glyph glyph-name="five" unicode="5" 
d="M586 856q204 0 320 -87t116 -257q0 -254 -172 -398t-451 -145q-86 0 -190 25t-170 57l63 164q146 -72 324 -72t287 85t108 255q0 199 -276 199q-150 0 -287 -10l-14 22l233 699h686l-37 -170h-528l-125 -371q78 4 113 4z" />
    <glyph glyph-name="six" unicode="6" 
d="M893 512q1 109 -63 167t-179 58q-166 0 -266 -96t-100 -260q0 -109 63 -173t178 -65q156 1 262 105t105 264zM717 911q172 0 273 -104t102 -270q0 -240 -162 -404t-420 -164q-200 0 -312 111t-112 280q0 238 186 465l471 568h220l-5 -21l-446 -514l4 -4q84 57 201 57z
" />
    <glyph glyph-name="seven" unicode="7" 
d="M969 1223h-672l37 170h878l-30 -144l-752 -1249h-201l4 20l736 1199v4z" />
    <glyph glyph-name="eight" unicode="8" 
d="M653 813q147 0 225 71q77 71 76 195q0 170 -206 170q-147 0 -227 -72q-79 -73 -79 -196q0 -168 211 -168zM764 1423q193 0 292 -89t99 -230q0 -258 -252 -379v-4q74 -39 119 -113t45 -168q0 -205 -151 -338t-420 -133q-213 -1 -327 95t-114 248t89 262t227 167v4
q-123 76 -123 249t132 301t384 128zM512 143q176 0 268 85t92 216q0 92 -63 146t-191 53q-184 0 -273 -85t-89 -216q0 -92 64 -146t192 -53z" />
    <glyph glyph-name="nine" unicode="9" 
d="M365 881q0 -109 63 -167t178 -59q166 1 266 97t101 260q1 110 -63 174t-179 63q-156 0 -261 -104t-105 -264zM166 856q0 240 162 404t420 163q200 -1 312 -111t111 -280q0 -238 -186 -465l-471 -567h-219l4 20l446 515l-4 4q-84 -57 -200 -58q-171 1 -273 105t-102 270z
" />
    <glyph glyph-name="colon" unicode=":" horiz-adv-x="552" 
d="M147 -31q-104 -1 -104 115q0 60 46 106q45 46 105 46t88 -28t28 -88t-47 -105q-46 -46 -116 -46zM313 752q-104 0 -104 114q0 60 46 106q45 46 105 46q114 0 115 -105q0 -69 -46 -115t-116 -46z" />
    <glyph glyph-name="semicolon" unicode=";" horiz-adv-x="583" 
d="M346 752q-104 0 -104 114q0 60 46 106t105 46q115 0 115 -105q0 -69 -46 -115t-116 -46zM-88 -330l4 21l195 518h208l-4 -21l-258 -518h-145z" />
    <glyph glyph-name="less" unicode="&#x3c;" 
d="M946 51h-18l-850 432l31 142l1032 432h18l-37 -180l-835 -328v-6l696 -328z" />
    <glyph glyph-name="equal" unicode="=" 
d="M975 258h-879l33 152h879zM1071 702h-881l33 152h879z" />
    <glyph glyph-name="greater" unicode="&#x3e;" 
d="M55 51h-18l37 182l835 328v6l-694 328l35 162h18l850 -432l-31 -142z" />
    <glyph glyph-name="question" unicode="?" horiz-adv-x="962" 
d="M311 -31q-104 1 -104 117q0 58 46 104q45 46 105 46t88 -29t27 -87q0 -58 -46 -105q-46 -46 -116 -46zM774 1069q0 78 -47 129t-133 51q-143 0 -315 -110l-74 135q201 150 405 149q162 0 263 -90t102 -235q0 -195 -131 -312q-131 -118 -297 -186l-62 -170h-145l57 283
q197 73 287 147t90 209z" />
    <glyph glyph-name="at" unicode="@" horiz-adv-x="1839" 
d="M993 340l181 487q-63 59 -162 60q-142 0 -248 -152t-107 -317q0 -147 131 -148q105 0 205 70zM717 -287q-289 0 -458 178t-169 474q0 209 77 407t212 350q135 154 336 248t430 94q291 0 451 -175t159 -437q0 -342 -171 -548t-376 -206q-147 0 -180 131h-2
q-147 -106 -297 -106q-109 0 -177 74q-68 75 -69 209q0 134 67 282t187 248q121 100 255 100t247 -98h2l53 74h113l-221 -580q-31 -66 -24 -132t67 -64q133 0 254 168t121 444q0 211 -119 345t-357 134t-445 -138q-205 -138 -317 -354t-112 -453t126 -384t351 -148
q151 0 348 74l37 -129q-193 -82 -399 -82z" />
    <glyph glyph-name="A" unicode="A" horiz-adv-x="1267" 
d="M768 1171h-4l-369 -663h463zM903 1393l219 -1393h-188l-47 348h-588l-197 -348h-202l811 1393h192z" />
    <glyph glyph-name="B" unicode="B" horiz-adv-x="1265" 
d="M664 784q182 0 259 60t76 221q0 90 -58 124t-185 34h-246l-94 -439h248zM786 1393q416 0 416 -295q0 -140 -75 -246t-179 -145l-2 -5q176 -61 176 -262q0 -200 -137 -320t-381 -120h-543l297 1393h428zM600 170q162 0 245 64t83 212q0 168 -236 168h-311l-96 -444h315z
" />
    <glyph glyph-name="C" unicode="C" horiz-adv-x="1214" 
d="M129 522q0 389 215 645t576 256q176 0 344 -90l-62 -149q-131 66 -290 66q-310 -1 -453 -223q-135 -205 -133 -497q0 -182 85 -284t255 -102t329 65l39 -150q-209 -90 -383 -90q-252 -1 -387 151t-135 402z" />
    <glyph glyph-name="D" unicode="D" horiz-adv-x="1400" 
d="M451 170q337 0 503 157t166 545q0 182 -102 266t-344 85h-164l-225 -1053h166zM717 1393q598 0 598 -512q0 -881 -854 -881h-400l297 1393h359z" />
    <glyph glyph-name="E" unicode="E" horiz-adv-x="1181" 
d="M358 1393h871l-37 -170h-682l-92 -428h618l-35 -170h-618l-98 -455h690l-37 -170h-877z" />
    <glyph glyph-name="F" unicode="F" horiz-adv-x="1153" 
d="M358 1393h871l-37 -170h-682l-98 -459h618l-37 -170h-618l-125 -594h-189z" />
    <glyph glyph-name="G" unicode="G" horiz-adv-x="1347" 
d="M644 -31q-259 -1 -386 147t-127 392q0 368 183 631q91 131 248 208t367 77t406 -130l-78 -149q-170 104 -350 104q-129 0 -231 -42t-166 -111q-182 -202 -182 -576q0 -174 79 -275t253 -101t284 61l68 319l-262 41l28 129h457l-121 -596q-211 -129 -470 -129z" />
    <glyph glyph-name="H" unicode="H" horiz-adv-x="1417" 
d="M922 0l133 625h-672l-133 -625h-189l297 1393h187l-127 -598h674l127 598h188l-297 -1393h-188z" />
    <glyph glyph-name="I" unicode="I" horiz-adv-x="557" 
d="M545 1393l-295 -1393h-189l297 1393h187z" />
    <glyph glyph-name="J" unicode="J" horiz-adv-x="919" 
d="M240 -31q-182 0 -295 150l100 131q90 -106 211 -107q207 0 274 314l199 936h189l-209 -977q-45 -215 -166 -331t-303 -116z" />
    <glyph glyph-name="K" unicode="K" 
d="M389 635h-4l-135 -635h-189l297 1393h187l-146 -684h4l691 684h231l-4 -21l-725 -710l465 -642l-4 -20h-215z" />
    <glyph glyph-name="L" unicode="L" horiz-adv-x="1046" 
d="M358 1393h187l-260 -1223h624l-37 -170h-811z" />
    <glyph glyph-name="M" unicode="M" horiz-adv-x="1665" 
d="M821 582h4l639 811h191l-297 -1393h-187l222 1047h-4l-535 -697h-137l-242 697h-4l-221 -1047h-189l297 1393h166z" />
    <glyph glyph-name="N" unicode="N" horiz-adv-x="1435" 
d="M997 287h4l236 1106h188l-297 -1393h-194l-445 1106h-4l-235 -1106h-189l297 1393h191z" />
    <glyph glyph-name="O" unicode="O" horiz-adv-x="1478" 
d="M129 508q0 358 174 621q88 134 242 214t354 80q248 0 374 -146t126 -409t-110 -493q-122 -255 -364 -352q-132 -53 -294 -54q-248 1 -375 147t-127 392zM1204 877q0 172 -77 272t-230 100t-257 -54t-164 -133q-58 -79 -104 -214t-46 -319q0 -384 321 -386q111 0 200 34
t146 84q149 131 195 407q16 104 16 209z" />
    <glyph glyph-name="P" unicode="P" horiz-adv-x="1210" 
d="M680 707q168 0 248 91t80 232q0 193 -217 193h-281l-111 -516h281zM821 1393q193 0 290 -89t97 -243q0 -240 -133 -382t-395 -142h-318l-112 -537h-189l297 1393h463z" />
    <glyph glyph-name="Q" unicode="Q" horiz-adv-x="1478" 
d="M1204 877q0 172 -77 272t-230 100t-257 -54t-164 -133q-58 -79 -104 -214t-46 -319q0 -384 321 -386q111 0 200 34t146 84q149 131 195 407q16 104 16 209zM129 508q0 358 174 621q88 134 242 214t354 80q248 0 374 -146t126 -390q0 -293 -120 -534t-364 -335l295 -165
l-110 -158l-438 276l-31 -2q-248 1 -375 147t-127 392z" />
    <glyph glyph-name="R" unicode="R" horiz-adv-x="1292" 
d="M731 768q154 0 238 74t84 205q0 176 -226 176h-317l-96 -455h317zM852 1393q188 0 294 -85t105 -237q-1 -193 -113 -311t-307 -152l285 -575l-6 -33h-192l-287 598h-254l-127 -598h-189l297 1393h494z" />
    <glyph glyph-name="S" unicode="S" horiz-adv-x="1081" 
d="M418 143q330 0 330 250q0 131 -181 213l-114 51q-115 51 -181 137t-65 193q0 195 139 316t379 120q193 0 354 -108l-84 -152q-161 86 -295 86t-214 -63t-80 -183t137 -182l127 -57q276 -125 276 -335t-144 -335t-371 -125t-413 133l91 152q147 -111 309 -111z" />
    <glyph glyph-name="T" unicode="T" horiz-adv-x="1110" 
d="M236 1393h983l-37 -170h-396l-260 -1223h-188l260 1223h-399z" />
    <glyph glyph-name="U" unicode="U" horiz-adv-x="1400" 
d="M342 1393h186l-182 -863q-38 -182 24 -284t236 -103q338 0 422 387l182 863h189l-191 -895q-113 -528 -618 -529q-266 0 -377 151t-51 429z" />
    <glyph glyph-name="V" unicode="V" horiz-adv-x="1263" 
d="M1409 1393l-4 -21l-801 -1372h-192l-215 1372l4 21h188l158 -1166h4l651 1166h207z" />
    <glyph glyph-name="W" unicode="W" horiz-adv-x="1955" 
d="M2081 1393l-4 -21l-684 -1372h-193l-96 1163h-4l-588 -1163h-195l-102 1372l4 21h189l57 -1131h4l573 1131h201l92 -1131h4l537 1131h205z" />
    <glyph glyph-name="X" unicode="X" horiz-adv-x="1183" 
d="M231 1393h191l209 -568h4l452 568h213l-4 -21l-561 -676l273 -676l-4 -20h-193l-211 565h-4l-449 -565h-213l5 20l559 676l-273 676z" />
    <glyph glyph-name="Y" unicode="Y" horiz-adv-x="1124" 
d="M188 1393h193l209 -627h4l481 627h209l-4 -21l-623 -784l-125 -588h-188l125 588l-285 784z" />
    <glyph glyph-name="Z" unicode="Z" horiz-adv-x="1114" 
d="M246 170h680l-37 -170h-926l33 152l903 1067v4h-639l35 170h891l-33 -152l-907 -1067v-4z" />
    <glyph glyph-name="bracketleft" unicode="[" horiz-adv-x="659" 
d="M340 1434h426l-23 -111l-251 -47l-324 -1524l231 -47l-24 -111h-426z" />
    <glyph glyph-name="backslash" unicode="\" horiz-adv-x="811" 
d="M623 0h-162l-228 1372l5 21h161l228 -1373z" />
    <glyph glyph-name="bracketright" unicode="]" horiz-adv-x="661" 
d="M258 1434h428l-391 -1840h-428l22 111l254 47l324 1524l-234 47z" />
    <glyph glyph-name="asciicircum" unicode="^" horiz-adv-x="1015" 
d="M1108 782l-4 -20h-162l-154 487h-8l-360 -487h-178l4 20l499 652h140z" />
    <glyph glyph-name="underscore" unicode="_" horiz-adv-x="966" 
d="M674 -193h-703l33 152h703z" />
    <glyph glyph-name="grave" unicode="`" horiz-adv-x="1183" 
d="M735 1434l4 20h193l76 -248l-4 -20h-150z" />
    <glyph glyph-name="a" unicode="a" horiz-adv-x="1177" 
d="M401 -31q-165 0 -245 109q-80 108 -80 278q0 374 221 562q119 100 291 100t317 -121h4l41 90h129l-168 -797q-6 -28 1 -40t44 -13h54l-31 -145q-66 -16 -102 -17q-125 0 -140 115h-4q-166 -121 -332 -121zM634 856q-285 0 -350 -321q-15 -76 -16 -154q0 -250 199 -250
q135 1 270 105l113 532q-102 88 -216 88z" />
    <glyph glyph-name="b" unicode="b" horiz-adv-x="1165" 
d="M1055 628q1 -170 -55 -314q-56 -146 -177 -245t-295 -99t-321 120h-4l-41 -90h-131l305 1434h184l-110 -516h4q51 33 85 50q96 48 220 50q166 0 251 -110t85 -280zM502 131q267 0 344 318q18 78 18 174q0 97 -50 165t-173 68t-264 -106l-115 -533q92 -86 240 -86z" />
    <glyph glyph-name="c" unicode="c" horiz-adv-x="978" 
d="M74 381q0 273 162 455t423 182q152 0 287 -72l-55 -143q-115 53 -244 53q-170 0 -275 -140t-106 -310q0 -117 56 -196t178 -79q121 0 258 53l37 -143q-166 -72 -318 -72q-190 0 -297 114q-106 114 -106 298z" />
    <glyph glyph-name="d" unicode="d" horiz-adv-x="1167" 
d="M414 -31q-170 0 -255 110q-85 111 -85 279q0 369 229 560q121 100 296 100t296 -100h4l111 516h184l-305 -1434h-131l-2 90h-4q-168 -121 -338 -121zM629 856q-272 0 -345 -321q-17 -76 -18 -154q0 -250 209 -250q146 1 281 105l112 532q-98 88 -239 88z" />
    <glyph glyph-name="e" unicode="e" horiz-adv-x="1091" 
d="M614 860q-110 0 -198 -76t-123 -202h524q16 49 17 92q0 84 -54 135q-56 51 -166 51zM254 377q0 -250 262 -250q136 0 291 92l63 -143q-182 -106 -390 -106t-308 116q-100 117 -100 295q0 253 156 445t407 192q186 0 280 -99t94 -227t-57 -258h-692q-6 -25 -6 -57z" />
    <glyph glyph-name="f" unicode="f" horiz-adv-x="729" 
d="M705 1444q80 0 149 -17l-35 -159q-69 14 -131 14t-102 -32t-58 -113l-32 -150h264l-33 -151h-264l-176 -836h-185l179 836h-175l25 110l180 41l29 135q37 168 125 245t240 77z" />
    <glyph glyph-name="g" unicode="g" horiz-adv-x="1167" 
d="M76 366q0 366 233 555q121 97 295 97t316 -121h4l45 90h131l-215 -1010q-41 -188 -172 -301q-131 -112 -321 -112t-349 94l59 147q135 -80 285 -79q260 0 313 247l23 105h-4q-135 -100 -303 -100t-254 109q-86 110 -86 279zM627 856q-86 0 -153 -34q-66 -34 -104 -84
q-104 -138 -104 -355q0 -244 209 -244q146 1 283 105l110 524q-111 88 -241 88z" />
    <glyph glyph-name="h" unicode="h" horiz-adv-x="1148" 
d="M666 856q-70 0 -153 -33t-138 -71l-160 -752h-184l305 1434h184l-110 -516h4q158 100 320 100t241 -102q80 -102 39 -298l-133 -618h-185l129 604q55 252 -159 252z" />
    <glyph glyph-name="i" unicode="i" horiz-adv-x="493" 
d="M375 1182q-94 0 -94 101q0 52 40 91t103 39q98 0 98 -90q0 -61 -42 -101t-105 -40zM215 0h-182l209 987h184z" />
    <glyph glyph-name="j" unicode="j" horiz-adv-x="493" 
d="M375 1182q-94 0 -94 101q0 52 40 91t103 39q98 0 98 -90q0 -61 -42 -101t-105 -40zM-152 -436q-80 0 -149 18l33 158q56 -14 120 -14t101 34t53 115l236 1112h184l-240 -1128q-63 -295 -338 -295z" />
    <glyph glyph-name="k" unicode="k" horiz-adv-x="1003" 
d="M315 457h-4l-96 -457h-184l305 1434h184l-192 -906h4l475 459h233l-4 -14l-526 -492l340 -465l-4 -16h-203z" />
    <glyph glyph-name="l" unicode="l" horiz-adv-x="536" 
d="M389 137l-31 -145q-66 -16 -108 -17q-221 0 -170 238l260 1221h182l-264 -1244q-8 -28 0 -40t39 -13h92z" />
    <glyph glyph-name="m" unicode="m" horiz-adv-x="1796" 
d="M723 1018q219 0 278 -133h5q190 133 365 133t254 -97t40 -280l-137 -641h-185l130 604q29 132 -7 192t-158 60t-288 -119q0 -39 -10 -96l-138 -641h-184l129 604q33 128 0 190t-151 62t-289 -104l-160 -752h-184l209 987h127l2 -90h4q184 121 348 121z" />
    <glyph glyph-name="n" unicode="n" horiz-adv-x="1150" 
d="M723 1018q174 0 254 -102t39 -298l-133 -618h-185l129 604q55 252 -159 252q-70 0 -153 -33t-138 -71l-160 -752h-184l209 987h133l2 -90h4q168 121 342 121z" />
    <glyph glyph-name="o" unicode="o" horiz-adv-x="1177" 
d="M1067 612q0 -252 -139 -439q-70 -93 -187 -148t-266 -56q-201 0 -301 114t-100 290q0 254 135 441q67 92 183 148t265 56q205 0 307 -114t103 -292zM264 385q0 -254 225 -254q135 0 226 74q162 133 162 393q-1 118 -57 188t-168 70q-296 0 -369 -309q-19 -78 -19 -162z
" />
    <glyph glyph-name="p" unicode="p" horiz-adv-x="1169" 
d="M502 131q267 0 344 318q18 78 18 174q0 97 -50 165t-173 68t-264 -106l-115 -533q92 -86 240 -86zM714 1018q173 0 258 -115t85 -284q-1 -169 -55 -312t-175 -240t-291 -97t-303 100h-4l-100 -476h-184l297 1393h129l2 -90h4q164 121 337 121z" />
    <glyph glyph-name="q" unicode="q" horiz-adv-x="1165" 
d="M646 856q-120 0 -194 -47q-123 -77 -168 -274q-17 -76 -18 -154q0 -250 209 -250q146 1 281 105l112 532q-102 88 -222 88zM74 358q0 369 229 560q121 100 298 100t323 -121h4l41 90h129l-295 -1393h-185l101 476h-2q-133 -100 -303 -100t-255 109q-85 111 -85 279z" />
    <glyph glyph-name="r" unicode="r" horiz-adv-x="704" 
d="M375 987v-106h4q123 137 276 137q57 0 101 -14l-41 -166q-47 10 -97 10q-154 0 -253 -152l-148 -696h-184l209 987h133z" />
    <glyph glyph-name="s" unicode="s" horiz-adv-x="913" 
d="M344 127q229 0 229 149q0 82 -116 127l-111 43q-217 84 -217 241t109 244t288 87t332 -74l-67 -149q-139 66 -252 65q-221 0 -222 -147q0 -72 119 -119l109 -41q217 -82 217 -254q0 -150 -111 -240t-304 -90t-345 90l74 148q123 -80 268 -80z" />
    <glyph glyph-name="t" unicode="t" horiz-adv-x="724" 
d="M414 131q70 0 159 27l-32 -158q-84 -31 -198 -31t-169 67t-27 197l127 603h-174l23 110l182 41l49 230h185l-50 -230h248l-32 -151h-248l-125 -588q-27 -117 82 -117z" />
    <glyph glyph-name="u" unicode="u" horiz-adv-x="1134" 
d="M379 -31q-170 1 -247 101t-36 295l133 622h183l-129 -604q-29 -129 7 -190t154 -61t279 104l158 751h184l-209 -987h-131l-4 90h-4q-168 -121 -338 -121z" />
    <glyph glyph-name="v" unicode="v" horiz-adv-x="1019" 
d="M1059 987l-4 -20l-584 -967h-176l-172 967l4 20h176l117 -768h4l444 768h191z" />
    <glyph glyph-name="w" unicode="w" horiz-adv-x="1640" 
d="M1673 987l-4 -20l-532 -967h-181l-98 766h-4l-424 -766h-178l-123 967l4 20h178l78 -747h4l408 747h188l92 -747h4l394 747h194z" />
    <glyph glyph-name="x" unicode="x" horiz-adv-x="1003" 
d="M471 383h-4l-328 -383h-200l4 20l424 474l-224 473l4 20h181l166 -385h4l327 385h203l-4 -20l-424 -473l223 -474l-6 -20h-180z" />
    <glyph glyph-name="y" unicode="y" horiz-adv-x="1017" 
d="M25 -436q-66 0 -158 20l27 156q90 -14 135 -14q119 0 204 153l74 131l-186 957l4 20h182l123 -756h6l430 756h191l-4 -20l-662 -1137q-156 -266 -366 -266z" />
    <glyph glyph-name="z" unicode="z" horiz-adv-x="911" 
d="M244 152h481l-33 -152h-731l23 106l634 725v5h-452l33 151h702l-22 -106l-635 -725v-4z" />
    <glyph glyph-name="braceleft" unicode="{" horiz-adv-x="684" 
d="M375 -406q-199 0 -258 80t-27 236l80 377q16 81 -14 115t-111 34l33 156q160 0 190 149l84 398q14 74 34 121q48 118 168 153q69 20 171 21h59l-22 -111q-113 0 -159 -41t-71 -158l-79 -376q-41 -193 -209 -242v-4q147 -51 106 -242l-76 -356q-24 -117 4 -158t140 -41
l-25 -111h-18z" />
    <glyph glyph-name="bar" unicode="|" horiz-adv-x="460" 
d="M485 1434l-391 -1840h-145l391 1840h145z" />
    <glyph glyph-name="braceright" unicode="}" horiz-adv-x="686" 
d="M283 1434q199 0 258 -80t26 -236l-80 -377q-15 -81 15 -115t110 -34l-32 -156q-160 0 -191 -149l-84 -398q-13 -75 -33 -121t-60 -90q-76 -82 -280 -84h-59l23 111q112 0 158 41t71 158l80 377q41 193 209 241v4q-147 51 -107 242l76 356q25 117 -3 158t-140 41l24 111
h19z" />
    <glyph glyph-name="asciitilde" unicode="~" horiz-adv-x="1077" 
d="M387 684q66 0 167 -52t157 -52q92 0 172 69l61 -102q-111 -119 -258 -119q-60 0 -164 52t-151 52q-101 1 -185 -71l-61 100q98 123 262 123z" />
    <glyph glyph-name="uni00A0" unicode="&#xa0;" horiz-adv-x="514" 
 />
    <glyph glyph-name="exclamdown" unicode="&#xa1;" horiz-adv-x="495" 
d="M340 1018q104 0 104 -116q0 -60 -46 -104q-46 -46 -105 -46q-113 0 -113 104q0 70 45 116t115 46zM18 -55l166 612h119l-96 -612l-74 -351h-188z" />
    <glyph glyph-name="cent" unicode="&#xa2;" 
d="M381 406q0 -205 139 -261l148 697q-131 -39 -209 -166t-78 -270zM188 381q0 254 142 430t375 203l36 170h146l-37 -172q121 -18 211 -66l-55 -143q-88 39 -189 49l-153 -719q111 12 208 51l37 -143q-139 -59 -280 -70l-35 -168h-145l36 177q-143 31 -220 137t-77 264z
" />
    <glyph glyph-name="sterling" unicode="&#xa3;" 
d="M340 170h612l-34 -170h-850l30 145q10 -1 40 23t55 42t37 36q12 16 38 51q27 35 38 91t30 218h-160l33 152h141q14 152 39 266q41 195 163 297t293 102t339 -94l-64 -151q-146 72 -258 72q-232 -1 -278 -228q-20 -98 -37 -264h383l-33 -152h-365q-14 -135 -26 -192
q-33 -154 -166 -240v-4z" />
    <glyph glyph-name="currency" unicode="&#xa4;" horiz-adv-x="1183" 
d="M385 512q0 -94 38 -142t107 -48q111 0 184 88q72 88 72 182q-1 192 -151 192q-109 0 -179 -88q-70 -90 -71 -184zM954 635q0 -160 -104 -299l137 -189l-119 -90l-133 181q-113 -64 -233 -64t-185 74l-206 -187l-95 111l224 197q-20 55 -21 106q0 176 109 309l-146 181
l119 88l143 -174q100 53 213 53t201 -68l209 187l92 -117l-221 -199q16 -49 16 -100z" />
    <glyph glyph-name="yen" unicode="&#xa5;" 
d="M995 289h-366l-62 -289h-186l61 289h-364l33 151h362l41 189h-364l32 151h275l-207 592l4 21h195l186 -586h4l442 586h209l-4 -21l-461 -592h275l-33 -151h-365l-40 -189h366z" />
    <glyph glyph-name="brokenbar" unicode="&#xa6;" horiz-adv-x="491" 
d="M354 754h-145l145 680h146zM109 274h145l-145 -680h-146z" />
    <glyph glyph-name="section" unicode="&#xa7;" horiz-adv-x="1116" 
d="M387 -193q287 0 287 183q0 41 -36 75t-112 70l-196 96q-211 104 -211 290t235 304v6q-121 80 -121 209q0 168 128 276q129 108 357 108t378 -97l-88 -156q-146 78 -284 78t-214 -51t-76 -136t154 -157l192 -92q92 -45 150 -119t57 -168q0 -94 -64 -169q-65 -74 -167 -140
l-2 -4q119 -88 118 -205q0 -180 -129 -277t-369 -97t-413 128l94 162q154 -117 332 -117zM483 743q-162 -70 -161 -200q0 -96 106 -148l199 -94q158 80 157 203q0 98 -102 145z" />
    <glyph glyph-name="dieresis" unicode="&#xa8;" horiz-adv-x="1183" 
d="M1040 1182q-94 0 -94 101q0 52 40 91t104 39q96 0 96 -90q0 -61 -41 -101t-105 -40zM639 1182q-94 0 -94 101q0 52 40 91t103 39q98 0 98 -90q0 -61 -41 -101t-106 -40z" />
    <glyph glyph-name="copyright" unicode="&#xa9;" horiz-adv-x="1669" 
d="M475 610q0 213 121 349t330 137q113 0 207 -49l-43 -115q-76 39 -170 39q-133 1 -213 -99t-80 -249q0 -93 45 -147t136 -54t181 39l35 -115q-117 -49 -227 -49q-154 0 -238 86t-84 227zM244 578q0 -220 133 -360t350 -140q301 0 523 218t223 519q1 219 -133 359t-351 141
q-299 0 -522 -218t-223 -519zM129 558q0 244 122 442q123 198 321 311t421 112q264 0 430 -172q166 -173 166 -417t-122 -442q-123 -198 -321 -310t-421 -113q-264 0 -430 172q-166 173 -166 417z" />
    <glyph glyph-name="ordfeminine" unicode="&#xaa;" horiz-adv-x="770" 
d="M621 426h-533l31 141h532zM360 698q-88 0 -138 44t-50 116q0 236 336 236h102l6 26q14 61 -12 84q-28 23 -110 23t-181 -47l-26 116q123 62 253 62t190 -66t36 -184l-84 -391h-113l-6 55h-2q-113 -74 -201 -74zM506 987q-100 -1 -139 -25t-39 -77q0 -61 78 -61t157 46
l25 117h-82z" />
    <glyph glyph-name="guillemotleft" unicode="&#xab;" horiz-adv-x="1017" 
d="M479 541l6 24l402 428l102 -92l-321 -362l157 -363l-125 -63zM82 541l6 24l401 428l103 -92l-322 -362l158 -363l-125 -63z" />
    <glyph glyph-name="logicalnot" unicode="&#xac;" 
d="M854 217l55 260h-809l33 152h959l-86 -412h-152z" />
    <glyph glyph-name="uni00AD" unicode="&#xad;" horiz-adv-x="827" 
d="M659 477h-534l33 152h532z" />
    <glyph glyph-name="registered" unicode="&#xae;" horiz-adv-x="1126" 
d="M690 1188q88 0 88 65q0 43 -65 43h-78l-23 -108h78zM733 1378q68 0 105 -30t36 -80q0 -131 -131 -156l91 -170l-3 -10h-96l-86 174h-55l-37 -174h-94l94 446h176zM309 1077q0 -133 81 -218t212 -85q180 0 316 132q135 132 135 315q0 133 -80 219t-211 86
q-180 0 -317 -133q-136 -134 -136 -316zM213 1073q0 225 168 385t389 160q168 0 274 -113t107 -278q0 -225 -169 -385t-390 -160q-168 0 -274 112t-105 279z" />
    <glyph glyph-name="macron" unicode="&#xaf;" horiz-adv-x="1183" 
d="M1118 1223h-534l32 151h533z" />
    <glyph glyph-name="degree" unicode="&#xb0;" horiz-adv-x="864" 
d="M211 1057q0 166 112 266t258 100q146 1 220 -69t73 -185q0 -166 -110 -268t-258 -102q-148 1 -222 71t-73 187zM369 1090q1 -150 153 -150q76 0 136 60t60 135t-36 111t-114 36t-139 -58q-60 -60 -60 -134z" />
    <glyph glyph-name="plusminus" unicode="&#xb1;" 
d="M41 152h958l-30 -152h-961zM836 1272l-86 -398h403l-31 -151h-403l-78 -358h-156l76 358h-399l33 151h399l84 398h158z" />
    <glyph glyph-name="twosuperior" unicode="&#xb2;" horiz-adv-x="632" 
d="M389 1069h279l-27 -123h-496l23 105l321 239q101 74 101 157t-92 83q-70 0 -170 -76l-66 98q140 102 248 102t170 -50t61 -134q0 -84 -39 -140t-112 -111l-201 -148v-2z" />
    <glyph glyph-name="threesuperior" unicode="&#xb3;" horiz-adv-x="632" 
d="M444 1356q135 0 136 106q0 68 -96 68t-181 -35l-27 113q98 47 217 47t181 -47t63 -123q0 -76 -46 -124t-99 -63v-2q90 -33 90 -138q0 -104 -83 -166t-225 -62t-229 53l54 117q84 -45 178 -45q160 0 160 112q0 66 -119 66h-121l27 123h120z" />
    <glyph glyph-name="acute" unicode="&#xb4;" horiz-adv-x="1185" 
d="M1071 1454l-4 -20l-225 -248h-166l4 20l182 248h209z" />
    <glyph glyph-name="mu" unicode="&#xb5;" horiz-adv-x="1142" 
d="M449 131q113 0 282 105l162 751h184l-211 -987h-131l-4 90h-4q-174 -121 -338 -121q-49 0 -96 22t-72 52l-94 -449h-184l297 1393h182l-139 -655q-43 -201 166 -201z" />
    <glyph glyph-name="paragraph" unicode="&#xb6;" horiz-adv-x="1095" 
d="M174 1067q0 147 104 237t246 89h674l-31 -144h-188l-352 -1655h-146l353 1655h-193l-352 -1655h-148l269 1258q-106 0 -171 56t-65 159z" />
    <glyph glyph-name="periodcentered" unicode="&#xb7;" horiz-adv-x="534" 
d="M286 727q116 0 116 -115q0 -59 -47 -105q-46 -46 -115 -46q-105 1 -105 115q0 60 46 105q45 46 105 46z" />
    <glyph glyph-name="cedilla" unicode="&#xb8;" horiz-adv-x="1185" 
d="M467 -436q-92 0 -145 28l40 113q53 -23 103 -22q113 0 113 86q0 61 -109 61l-8 20l94 164h137l-69 -112q51 -8 83 -44t31 -85q0 -209 -270 -209z" />
    <glyph glyph-name="onesuperior" unicode="&#xb9;" horiz-adv-x="485" 
d="M236 1386h-19l27 138l270 114h107l-148 -692h-143l112 527h-2z" />
    <glyph glyph-name="ordmasculine" unicode="&#xba;" horiz-adv-x="792" 
d="M623 426h-533l31 141h532zM817 1092q0 -162 -103 -278t-290 -116q-131 0 -201 77t-69 192q0 163 104 277t285 114q137 0 205 -76t69 -190zM311 971q0 -133 131 -133q109 0 163 64t54 179q0 135 -135 136q-106 1 -160 -65t-53 -181z" />
    <glyph glyph-name="guillemotright" unicode="&#xbb;" horiz-adv-x="1017" 
d="M926 565l-6 -24l-402 -428l-102 92l321 362l-157 363l125 63zM528 565l-6 -24l-401 -428l-103 92l322 362l-158 363l125 63z" />
    <glyph glyph-name="onequarter" unicode="&#xbc;" horiz-adv-x="1384" 
d="M829 268h185l49 234h145l-51 -234h84l-27 -121h-81l-31 -147h-146l33 147h-346l23 103l274 442h147l-258 -422v-2zM223 1141h-18l26 137l271 115h106l-147 -693h-144l113 527h-2zM176 0h-164l4 20l1190 1373h164l-4 -21z" />
    <glyph glyph-name="onehalf" unicode="&#xbd;" horiz-adv-x="1423" 
d="M952 123h279l-27 -123h-495l22 104l322 240q100 74 100 157t-92 83q-70 0 -170 -76l-66 98q139 102 248 102t170 -50q61 -52 61 -135t-38 -139q-39 -56 -113 -112l-201 -147v-2zM223 1141h-18l26 137l271 115h106l-147 -693h-144l113 527h-2zM176 0h-164l4 20l1190 1373
h164l-4 -21z" />
    <glyph glyph-name="threequarters" unicode="&#xbe;" horiz-adv-x="1478" 
d="M426 1104q135 0 135 106q0 68 -95 68t-181 -35l-27 113q98 47 216 47t182 -47q62 -47 62 -123t-45 -124q-46 -48 -100 -62v-3q91 -33 91 -138q0 -104 -83 -166t-225 -62t-229 53l53 117q84 -45 178 -45q160 0 160 112q0 66 -119 66h-120l26 123h121zM924 268h184l49 234
h146l-52 -234h84l-26 -121h-82l-31 -147h-145l32 147h-346l23 103l274 442h148l-258 -422v-2zM270 0h-164l5 20l1189 1373h164l-4 -21z" />
    <glyph glyph-name="questiondown" unicode="&#xbf;" horiz-adv-x="952" 
d="M598 1018q115 0 115 -116q0 -58 -46 -104q-45 -46 -105 -46t-88 28t-28 76q0 70 46 116t106 46zM326 -262q143 0 315 110l74 -135q-201 -150 -406 -149q-162 0 -263 90t-101 235q0 197 132 314t296 184l61 170h146l-58 -283q-196 -72 -286 -146t-91 -210q-1 -78 47 -129
t134 -51z" />
    <glyph glyph-name="Agrave" unicode="&#xc0;" horiz-adv-x="1267" 
d="M678 1788l4 20h192l56 -247l-4 -21h-150zM768 1171h-4l-369 -663h463zM903 1393l219 -1393h-188l-47 348h-588l-197 -348h-202l811 1393h192z" />
    <glyph glyph-name="Aacute" unicode="&#xc1;" horiz-adv-x="1267" 
d="M1120 1808l-4 -20l-205 -248h-166l5 21l161 247h209zM768 1171h-4l-369 -663h463zM903 1393l219 -1393h-188l-47 348h-588l-197 -348h-202l811 1393h192z" />
    <glyph glyph-name="Acircumflex" unicode="&#xc2;" horiz-adv-x="1267" 
d="M991 1808l137 -247l-4 -21h-157l-97 146l-157 -146h-174l4 21l243 247h205zM768 1171h-4l-369 -663h463zM903 1393l219 -1393h-188l-47 348h-588l-197 -348h-202l811 1393h192z" />
    <glyph glyph-name="Atilde" unicode="&#xc3;" horiz-adv-x="1267" 
d="M748 1790q44 0 124 -41t119 -41q76 0 144 72l41 -103q-111 -117 -201 -116q-45 0 -125 41t-123 40q-69 1 -137 -71l-41 102q104 117 199 117zM768 1171h-4l-369 -663h463zM903 1393l219 -1393h-188l-47 348h-588l-197 -348h-202l811 1393h192z" />
    <glyph glyph-name="Adieresis" unicode="&#xc4;" horiz-adv-x="1267" 
d="M1061 1554q-94 0 -94 102q0 52 40 91t103 39q96 0 96 -90q0 -62 -41 -102t-104 -40zM618 1554q-94 0 -94 102q0 52 40 91t104 39q96 0 96 -90q0 -62 -41 -102t-105 -40zM768 1171h-4l-369 -663h463zM903 1393l219 -1393h-188l-47 348h-588l-197 -348h-202l811 1393h192z
" />
    <glyph glyph-name="Aring" unicode="&#xc5;" horiz-adv-x="1269" 
d="M737 1460q0 -61 72 -61q49 1 78 27t28 73q0 61 -71 62q-107 -1 -107 -101zM768 1171h-4l-369 -663h463zM614 1461q0 93 69 151t163 59q94 0 142 -43t48 -115q0 -139 -121 -198l207 -1315h-188l-47 348h-588l-197 -348h-202l770 1325q-56 43 -56 136z" />
    <glyph glyph-name="AE" unicode="&#xc6;" horiz-adv-x="1849" 
d="M975 1157h-4l-504 -649h369zM-145 0l4 20l1112 1373h923l-36 -170h-682l-91 -428h619l-37 -170h-618l-97 -455h688l-34 -170h-879l76 348h-463l-277 -348h-208z" />
    <glyph glyph-name="Ccedilla" unicode="&#xc7;" horiz-adv-x="1214" 
d="M129 522q0 389 215 645t576 256q176 0 344 -90l-62 -149q-131 66 -290 66q-310 -1 -453 -223q-135 -205 -133 -497q0 -182 85 -284t255 -102t329 65l39 -150q-199 -86 -377 -90l-41 -67q51 -8 83 -44t32 -85q0 -209 -270 -209q-92 0 -146 28l41 113q53 -23 103 -22
q113 0 112 86q0 61 -108 61l-8 20l73 130q-195 37 -297 181t-102 361z" />
    <glyph glyph-name="Egrave" unicode="&#xc8;" horiz-adv-x="1181" 
d="M662 1788l4 20h192l55 -247l-4 -21h-149zM358 1393h871l-37 -170h-682l-92 -428h618l-35 -170h-618l-98 -455h690l-37 -170h-877z" />
    <glyph glyph-name="Eacute" unicode="&#xc9;" horiz-adv-x="1181" 
d="M1118 1808l-4 -20l-205 -248h-166l5 21l161 247h209zM358 1393h871l-37 -170h-682l-92 -428h618l-35 -170h-618l-98 -455h690l-37 -170h-877z" />
    <glyph glyph-name="Ecircumflex" unicode="&#xca;" horiz-adv-x="1181" 
d="M995 1808l138 -247l-5 -21h-157l-97 146l-157 -146h-174l4 21l244 247h204zM358 1393h871l-37 -170h-682l-92 -428h618l-35 -170h-618l-98 -455h690l-37 -170h-877z" />
    <glyph glyph-name="Edieresis" unicode="&#xcb;" horiz-adv-x="1181" 
d="M1047 1554q-95 0 -95 102q0 52 40 91t104 39q96 0 96 -90q0 -62 -41 -102t-104 -40zM604 1554q-94 0 -94 102q0 52 40 91t103 39q96 0 97 -90q0 -62 -41 -102t-105 -40zM358 1393h871l-37 -170h-682l-92 -428h618l-35 -170h-618l-98 -455h690l-37 -170h-877z" />
    <glyph glyph-name="Igrave" unicode="&#xcc;" horiz-adv-x="557" 
d="M315 1788l4 20h193l55 -247l-4 -21h-149zM545 1393l-295 -1393h-189l297 1393h187z" />
    <glyph glyph-name="Iacute" unicode="&#xcd;" horiz-adv-x="557" 
d="M772 1808l-4 -20l-205 -248h-166l4 21l162 247h209zM545 1393l-295 -1393h-189l297 1393h187z" />
    <glyph glyph-name="Icircumflex" unicode="&#xce;" horiz-adv-x="557" 
d="M637 1808l137 -247l-4 -21h-158l-96 146l-158 -146h-174l4 21l244 247h205zM545 1393l-295 -1393h-189l297 1393h187z" />
    <glyph glyph-name="Idieresis" unicode="&#xcf;" horiz-adv-x="557" 
d="M702 1554q-94 0 -94 102q0 52 40 91t104 39q96 0 96 -90q0 -62 -41 -102t-105 -40zM260 1554q-94 0 -94 102q0 52 40 91t103 39q96 0 97 -90q0 -62 -41 -102t-105 -40zM545 1393l-295 -1393h-189l297 1393h187z" />
    <glyph glyph-name="Eth" unicode="&#xd0;" horiz-adv-x="1402" 
d="M453 170q337 0 503 157t166 545q0 182 -102 266t-344 85h-164l-96 -451h323l-37 -170h-323l-92 -432h166zM719 1393q598 0 598 -512q0 -881 -854 -881h-400l127 602h-104l35 170h106l133 621h359z" />
    <glyph glyph-name="Ntilde" unicode="&#xd1;" horiz-adv-x="1435" 
d="M829 1790q45 0 125 -41t119 -41q76 0 144 72l40 -103q-111 -117 -200 -116q-45 0 -125 41t-123 40q-69 1 -137 -71l-41 102q104 117 198 117zM997 287h4l236 1106h188l-297 -1393h-194l-445 1106h-4l-235 -1106h-189l297 1393h191z" />
    <glyph glyph-name="Ograve" unicode="&#xd2;" horiz-adv-x="1478" 
d="M795 1788l4 20h192l56 -247l-5 -21h-149zM129 508q0 358 174 621q88 134 242 214t354 80q248 0 374 -146t126 -409t-110 -493q-122 -255 -364 -352q-132 -53 -294 -54q-248 1 -375 147t-127 392zM1204 877q0 172 -77 272t-230 100t-257 -54t-164 -133q-58 -79 -104 -214
t-46 -319q0 -384 321 -386q111 0 200 34t146 84q149 131 195 407q16 104 16 209z" />
    <glyph glyph-name="Oacute" unicode="&#xd3;" horiz-adv-x="1478" 
d="M1233 1808l-4 -20l-205 -248h-166l4 21l162 247h209zM129 508q0 358 174 621q88 134 242 214t354 80q248 0 374 -146t126 -409t-110 -493q-122 -255 -364 -352q-132 -53 -294 -54q-248 1 -375 147t-127 392zM1204 877q0 172 -77 272t-230 100t-257 -54t-164 -133
q-58 -79 -104 -214t-46 -319q0 -384 321 -386q111 0 200 34t146 84q149 131 195 407q16 104 16 209z" />
    <glyph glyph-name="Ocircumflex" unicode="&#xd4;" horiz-adv-x="1478" 
d="M1108 1808l137 -247l-4 -21h-158l-96 146l-158 -146h-174l4 21l244 247h205zM129 508q0 358 174 621q88 134 242 214t354 80q248 0 374 -146t126 -409t-110 -493q-122 -255 -364 -352q-132 -53 -294 -54q-248 1 -375 147t-127 392zM1204 877q0 172 -77 272t-230 100
t-257 -54t-164 -133q-58 -79 -104 -214t-46 -319q0 -384 321 -386q111 0 200 34t146 84q149 131 195 407q16 104 16 209z" />
    <glyph glyph-name="Otilde" unicode="&#xd5;" horiz-adv-x="1478" 
d="M862 1790q45 0 125 -41t119 -41q76 0 143 72l41 -103q-111 -117 -200 -116q-45 0 -125 41t-123 40q-69 1 -137 -71l-41 102q104 117 198 117zM129 508q0 358 174 621q88 134 242 214t354 80q248 0 374 -146t126 -409t-110 -493q-122 -255 -364 -352q-132 -53 -294 -54
q-248 1 -375 147t-127 392zM1204 877q0 172 -77 272t-230 100t-257 -54t-164 -133q-58 -79 -104 -214t-46 -319q0 -384 321 -386q111 0 200 34t146 84q149 131 195 407q16 104 16 209z" />
    <glyph glyph-name="Odieresis" unicode="&#xd6;" horiz-adv-x="1478" 
d="M1176 1554q-95 0 -95 102q0 52 40 91t104 39q96 0 96 -90q0 -62 -41 -102t-104 -40zM733 1554q-94 0 -94 102q0 52 40 91t103 39q96 0 97 -90q0 -62 -41 -102t-105 -40zM129 508q0 358 174 621q88 134 242 214t354 80q248 0 374 -146t126 -409t-110 -493
q-122 -255 -364 -352q-132 -53 -294 -54q-248 1 -375 147t-127 392zM1204 877q0 172 -77 272t-230 100t-257 -54t-164 -133q-58 -79 -104 -214t-46 -319q0 -384 321 -386q111 0 200 34t146 84q149 131 195 407q16 104 16 209z" />
    <glyph glyph-name="multiply" unicode="&#xd7;" 
d="M86 225l401 336l-254 330l123 106l254 -333l406 340l96 -119l-407 -342l256 -332l-123 -107l-258 336l-398 -334z" />
    <glyph glyph-name="Oslash" unicode="&#xd8;" horiz-adv-x="1478" 
d="M326 507q0 -95 30 -177l740 852q-80 68 -216 68t-240 -55q-104 -54 -164 -133q-58 -79 -94 -185q-36 -107 -46 -191t-10 -179zM1204 908q0 76 -30 157l-740 -854q78 -68 201 -68q569 1 569 765zM129 490q0 376 174 639q88 134 242 214q153 80 353 80t323 -98l112 131
l105 -88l-125 -143q86 -135 86 -338q0 -283 -110 -512q-195 -403 -677 -405q-180 0 -305 96l-108 -125l-107 84l123 143q-86 130 -86 322z" />
    <glyph glyph-name="Ugrave" unicode="&#xd9;" horiz-adv-x="1400" 
d="M735 1788l4 20h193l55 -247l-4 -21h-149zM342 1393h186l-182 -863q-38 -182 24 -284t236 -103q338 0 422 387l182 863h189l-191 -895q-113 -528 -618 -529q-266 0 -377 151t-51 429z" />
    <glyph glyph-name="Uacute" unicode="&#xda;" horiz-adv-x="1400" 
d="M1178 1808l-4 -20l-205 -248h-166l4 21l162 247h209zM342 1393h186l-182 -863q-38 -182 24 -284t236 -103q338 0 422 387l182 863h189l-191 -895q-113 -528 -618 -529q-266 0 -377 151t-51 429z" />
    <glyph glyph-name="Ucircumflex" unicode="&#xdb;" horiz-adv-x="1400" 
d="M1055 1808l137 -247l-4 -21h-158l-96 146l-158 -146h-174l4 21l244 247h205zM342 1393h186l-182 -863q-38 -182 24 -284t236 -103q338 0 422 387l182 863h189l-191 -895q-113 -528 -618 -529q-266 0 -377 151t-51 429z" />
    <glyph glyph-name="Udieresis" unicode="&#xdc;" horiz-adv-x="1400" 
d="M1122 1554q-94 0 -94 102q0 52 40 91t103 39q96 0 97 -90q0 -62 -41 -102t-105 -40zM680 1554q-94 0 -94 102q0 52 40 91t103 39q96 0 96 -90q0 -62 -41 -102t-104 -40zM342 1393h186l-182 -863q-38 -182 24 -284t236 -103q338 0 422 387l182 863h189l-191 -895
q-113 -528 -618 -529q-266 0 -377 151t-51 429z" />
    <glyph glyph-name="Yacute" unicode="&#xdd;" horiz-adv-x="1124" 
d="M1051 1808l-4 -20l-205 -248h-166l4 21l162 247h209zM188 1393h193l209 -627h4l481 627h209l-4 -21l-623 -784l-125 -588h-188l125 588l-285 784z" />
    <glyph glyph-name="Thorn" unicode="&#xde;" horiz-adv-x="1212" 
d="M627 455q170 0 249 91t78 232q0 193 -217 193h-280l-111 -516h281zM768 1141q193 0 290 -89t97 -243q0 -240 -133 -382t-395 -142h-318l-59 -285h-189l297 1393h187l-53 -252h276z" />
    <glyph glyph-name="germandbls" unicode="&#xdf;" horiz-adv-x="1222" 
d="M734 1444q180 0 280 -96t100 -236q0 -242 -242 -354v-4q92 -29 154 -103t64 -190q0 -236 -153 -364t-409 -128q-63 0 -120 13l34 157q41 -8 101 -8q172 0 265 87t93 249q0 98 -64 156q-65 57 -200 57h-33l33 151h41q119 0 181 76q63 75 63 175t-48 150t-139 50
q-127 0 -201 -77t-110 -247l-203 -958h-188l207 973q49 229 181 350t313 121z" />
    <glyph glyph-name="agrave" unicode="&#xe0;" horiz-adv-x="1177" 
d="M530 1434l5 20h192l76 -248l-4 -20h-150zM401 -31q-165 0 -245 109q-80 108 -80 278q0 374 221 562q119 100 291 100t317 -121h4l41 90h129l-168 -797q-6 -28 1 -40t44 -13h54l-31 -145q-66 -16 -102 -17q-125 0 -140 115h-4q-166 -121 -332 -121zM634 856
q-285 0 -350 -321q-15 -76 -16 -154q0 -250 199 -250q135 1 270 105l113 532q-102 88 -216 88z" />
    <glyph glyph-name="aacute" unicode="&#xe1;" horiz-adv-x="1177" 
d="M1020 1454l-4 -20l-225 -248h-166l4 20l182 248h209zM401 -31q-165 0 -245 109q-80 108 -80 278q0 374 221 562q119 100 291 100t317 -121h4l41 90h129l-168 -797q-6 -28 1 -40t44 -13h54l-31 -145q-66 -16 -102 -17q-125 0 -140 115h-4q-166 -121 -332 -121zM634 856
q-285 0 -350 -321q-15 -76 -16 -154q0 -250 199 -250q135 1 270 105l113 532q-102 88 -216 88z" />
    <glyph glyph-name="acircumflex" unicode="&#xe2;" horiz-adv-x="1177" 
d="M862 1454l137 -248l-4 -20h-159l-95 151l-157 -151h-174l4 20l241 248h207zM401 -31q-165 0 -245 109q-80 108 -80 278q0 374 221 562q119 100 291 100t317 -121h4l41 90h129l-168 -797q-6 -28 1 -40t44 -13h54l-31 -145q-66 -16 -102 -17q-125 0 -140 115h-4
q-166 -121 -332 -121zM634 856q-285 0 -350 -321q-15 -76 -16 -154q0 -250 199 -250q135 1 270 105l113 532q-102 88 -216 88z" />
    <glyph glyph-name="atilde" unicode="&#xe3;" horiz-adv-x="1177" 
d="M616 1415q45 0 125 -41t119 -41q76 0 144 72l40 -102q-111 -117 -200 -117q-45 0 -125 41t-123 41q-69 0 -137 -72l-41 102q104 117 198 117zM401 -31q-165 0 -245 109q-80 108 -80 278q0 374 221 562q119 100 291 100t317 -121h4l41 90h129l-168 -797q-6 -28 1 -40
t44 -13h54l-31 -145q-66 -16 -102 -17q-125 0 -140 115h-4q-166 -121 -332 -121zM634 856q-285 0 -350 -321q-15 -76 -16 -154q0 -250 199 -250q135 1 270 105l113 532q-102 88 -216 88z" />
    <glyph glyph-name="adieresis" unicode="&#xe4;" horiz-adv-x="1177" 
d="M909 1182q-94 0 -94 101q0 52 40 91t103 39q96 0 97 -90q0 -61 -41 -101t-105 -40zM508 1182q-94 0 -94 101q0 52 40 91t103 39q98 0 98 -90q0 -61 -41 -101t-106 -40zM401 -31q-165 0 -245 109q-80 108 -80 278q0 374 221 562q119 100 291 100t317 -121h4l41 90h129
l-168 -797q-6 -28 1 -40t44 -13h54l-31 -145q-66 -16 -102 -17q-125 0 -140 115h-4q-166 -121 -332 -121zM634 856q-285 0 -350 -321q-15 -76 -16 -154q0 -250 199 -250q135 1 270 105l113 532q-102 88 -216 88z" />
    <glyph glyph-name="aring" unicode="&#xe5;" horiz-adv-x="1177" 
d="M754 1497q190 0 190 -174q0 -88 -68 -148q-68 -61 -164 -61q-94 0 -142 44t-48 133t69 147t163 59zM645 1286q0 -61 72 -61q49 1 78 27t28 73q0 61 -71 61q-107 0 -107 -100zM401 -31q-165 0 -245 109q-80 108 -80 278q0 374 221 562q119 100 291 100t317 -121h4l41 90
h129l-168 -797q-6 -28 1 -40t44 -13h54l-31 -145q-66 -16 -102 -17q-125 0 -140 115h-4q-166 -121 -332 -121zM634 856q-285 0 -350 -321q-15 -76 -16 -154q0 -250 199 -250q135 1 270 105l113 532q-102 88 -216 88z" />
    <glyph glyph-name="ae" unicode="&#xe6;" horiz-adv-x="1671" 
d="M1419 674q0 84 -52 135q-53 51 -157 51t-189 -76t-118 -202h500q16 49 16 92zM537 434q-197 0 -265 -44t-67 -138q0 -121 145 -121q106 0 210 80q103 80 134 223h-157zM1096 129q130 0 288 90l64 -143q-182 -106 -383 -107q-248 0 -322 211q-180 -211 -442 -211
q-123 0 -202 76t-79 186q0 193 127 274t373 81h205l12 55q48 215 -202 215q-129 0 -279 -84l-57 137q172 109 370 109q242 0 310 -150q158 150 344 150t276 -97t90 -239q0 -94 -57 -248h-660q-26 -135 34 -220t190 -85z" />
    <glyph glyph-name="ccedilla" unicode="&#xe7;" horiz-adv-x="978" 
d="M74 381q0 273 162 455t423 182q152 0 287 -72l-55 -143q-115 53 -244 53q-170 0 -275 -140t-106 -310q0 -117 56 -196t178 -79q121 0 258 53l37 -143q-154 -66 -301 -72l-41 -67q51 -8 83 -44t31 -85q0 -209 -270 -209q-92 0 -145 28l41 113q53 -23 102 -22q113 0 113 86
q0 61 -109 61l-8 20l74 132q-139 31 -215 137t-76 262z" />
    <glyph glyph-name="egrave" unicode="&#xe8;" horiz-adv-x="1091" 
d="M530 1434l5 20h192l76 -248l-4 -20h-150zM614 860q-110 0 -198 -76t-123 -202h524q16 49 17 92q0 84 -54 135q-56 51 -166 51zM254 377q0 -250 262 -250q136 0 291 92l63 -143q-182 -106 -390 -106t-308 116q-100 117 -100 295q0 253 156 445t407 192q186 0 280 -99
t94 -227t-57 -258h-692q-6 -25 -6 -57z" />
    <glyph glyph-name="eacute" unicode="&#xe9;" horiz-adv-x="1091" 
d="M1014 1454l-4 -20l-226 -248h-166l5 20l182 248h209zM614 860q-110 0 -198 -76t-123 -202h524q16 49 17 92q0 84 -54 135q-56 51 -166 51zM254 377q0 -250 262 -250q136 0 291 92l63 -143q-182 -106 -390 -106t-308 116q-100 117 -100 295q0 253 156 445t407 192
q186 0 280 -99t94 -227t-57 -258h-692q-6 -25 -6 -57z" />
    <glyph glyph-name="ecircumflex" unicode="&#xea;" horiz-adv-x="1091" 
d="M864 1454l137 -248l-4 -20h-159l-95 151l-157 -151h-174l4 20l241 248h207zM614 860q-110 0 -198 -76t-123 -202h524q16 49 17 92q0 84 -54 135q-56 51 -166 51zM254 377q0 -250 262 -250q136 0 291 92l63 -143q-182 -106 -390 -106t-308 116q-100 117 -100 295
q0 253 156 445t407 192q186 0 280 -99t94 -227t-57 -258h-692q-6 -25 -6 -57z" />
    <glyph glyph-name="edieresis" unicode="&#xeb;" horiz-adv-x="1091" 
d="M901 1182q-94 0 -94 101q0 52 40 91t103 39q96 0 97 -90q0 -61 -41 -101t-105 -40zM500 1182q-94 0 -94 101q0 52 39 91q40 39 104 39q98 0 98 -90q0 -61 -41 -101t-106 -40zM614 860q-110 0 -198 -76t-123 -202h524q16 49 17 92q0 84 -54 135q-56 51 -166 51zM254 377
q0 -250 262 -250q136 0 291 92l63 -143q-182 -106 -390 -106t-308 116q-100 117 -100 295q0 253 156 445t407 192q186 0 280 -99t94 -227t-57 -258h-692q-6 -25 -6 -57z" />
    <glyph glyph-name="igrave" unicode="&#xec;" horiz-adv-x="491" 
d="M215 0h-184l209 987h184zM186 1434l4 20h193l76 -248l-4 -20h-150z" />
    <glyph glyph-name="iacute" unicode="&#xed;" horiz-adv-x="493" 
d="M217 0h-184l209 987h184zM682 1454l-4 -20l-225 -248h-166l4 20l182 248h209z" />
    <glyph glyph-name="icircumflex" unicode="&#xee;" horiz-adv-x="491" 
d="M530 1454l138 -248l-4 -20h-160l-94 151l-158 -151h-174l4 20l242 248h206zM215 0h-184l209 987h184z" />
    <glyph glyph-name="idieresis" unicode="&#xef;" horiz-adv-x="491" 
d="M215 0h-184l209 987h184zM573 1182q-94 0 -94 101q0 52 40 91t104 39q96 0 96 -90q0 -61 -41 -101t-105 -40zM172 1182q-94 0 -94 101q0 52 40 91t103 39q98 0 98 -90q-1 -61 -41 -101t-106 -40z" />
    <glyph glyph-name="eth" unicode="&#xf0;" horiz-adv-x="1189" 
d="M264 401q0 -117 65 -187t175 -71q166 0 276 117t109 295q0 117 -65 180t-181 64q-163 0 -271 -109t-108 -289zM612 973q166 0 256 -84l6 4q-37 133 -122 254l-228 -57l-16 120l162 41q-61 92 -131 162l4 21h209l94 -134l209 54l16 -123l-151 -37q160 -285 160 -572
q0 -288 -162 -470t-431 -183q-197 0 -307 116t-108 294q0 258 155 426q156 168 385 168z" />
    <glyph glyph-name="ntilde" unicode="&#xf1;" horiz-adv-x="1150" 
d="M631 1415q45 0 125 -41t118 -41q76 0 144 72l41 -102q-111 -117 -201 -117q-45 0 -125 41t-123 41q-69 0 -137 -72l-41 102q104 117 199 117zM723 1018q174 0 254 -102t39 -298l-133 -618h-185l129 604q55 252 -159 252q-70 0 -153 -33t-138 -71l-160 -752h-184l209 987
h133l2 -90h4q168 121 342 121z" />
    <glyph glyph-name="ograve" unicode="&#xf2;" horiz-adv-x="1177" 
d="M535 1434l4 20h192l76 -248l-4 -20h-150zM1067 612q0 -252 -139 -439q-70 -93 -187 -148t-266 -56q-201 0 -301 114t-100 290q0 254 135 441q67 92 183 148t265 56q205 0 307 -114t103 -292zM264 385q0 -254 225 -254q135 0 226 74q162 133 162 393q-1 118 -57 188
t-168 70q-296 0 -369 -309q-19 -78 -19 -162z" />
    <glyph glyph-name="oacute" unicode="&#xf3;" horiz-adv-x="1177" 
d="M1024 1454l-4 -20l-225 -248h-166l4 20l182 248h209zM1067 612q0 -252 -139 -439q-70 -93 -187 -148t-266 -56q-201 0 -301 114t-100 290q0 254 135 441q67 92 183 148t265 56q205 0 307 -114t103 -292zM264 385q0 -254 225 -254q135 0 226 74q162 133 162 393
q-1 118 -57 188t-168 70q-296 0 -369 -309q-19 -78 -19 -162z" />
    <glyph glyph-name="ocircumflex" unicode="&#xf4;" horiz-adv-x="1177" 
d="M870 1454l138 -248l-4 -20h-160l-94 151l-158 -151h-174l4 20l242 248h206zM1067 612q0 -252 -139 -439q-70 -93 -187 -148t-266 -56q-201 0 -301 114t-100 290q0 254 135 441q67 92 183 148t265 56q205 0 307 -114t103 -292zM264 385q0 -254 225 -254q135 0 226 74
q162 133 162 393q-1 118 -57 188t-168 70q-296 0 -369 -309q-19 -78 -19 -162z" />
    <glyph glyph-name="otilde" unicode="&#xf5;" horiz-adv-x="1177" 
d="M623 1415q45 0 125 -41t118 -41q76 0 144 72l41 -102q-111 -117 -201 -117q-45 0 -125 41t-123 41q-69 0 -137 -72l-41 102q104 117 199 117zM1067 612q0 -252 -139 -439q-70 -93 -187 -148t-266 -56q-201 0 -301 114t-100 290q0 254 135 441q67 92 183 148t265 56
q205 0 307 -114t103 -292zM264 385q0 -254 225 -254q135 0 226 74q162 133 162 393q-1 118 -57 188t-168 70q-296 0 -369 -309q-19 -78 -19 -162z" />
    <glyph glyph-name="odieresis" unicode="&#xf6;" horiz-adv-x="1177" 
d="M915 1182q-94 0 -94 101q0 52 40 91t104 39q96 0 96 -90q0 -61 -41 -101t-105 -40zM514 1182q-94 0 -94 101q0 52 40 91t103 39q98 0 99 -90q0 -61 -41 -101t-107 -40zM1067 612q0 -252 -139 -439q-70 -93 -187 -148t-266 -56q-201 0 -301 114t-100 290q0 254 135 441
q67 92 183 148t265 56q205 0 307 -114t103 -292zM264 385q0 -254 225 -254q135 0 226 74q162 133 162 393q-1 118 -57 188t-168 70q-296 0 -369 -309q-19 -78 -19 -162z" />
    <glyph glyph-name="divide" unicode="&#xf7;" 
d="M549 934q0 70 46 116q47 46 107 46q118 0 115 -105q0 -69 -47 -115q-46 -46 -106 -46t-88 28q-28 29 -27 76zM479 10q-104 0 -104 116q0 58 46 104q45 46 105 46q116 0 117 -104q0 -70 -47 -116t-117 -46zM135 629h959l-31 -152h-961z" />
    <glyph glyph-name="oslash" unicode="&#xf8;" horiz-adv-x="1177" 
d="M264 398q0 -70 12 -115l512 530q-59 43 -154 43t-173 -44t-119 -116q-42 -72 -60 -150t-18 -148zM877 566q0 85 -13 128l-510 -526q49 -37 135 -37q135 0 226 74q90 74 126 175t36 186zM74 364q0 262 135 450q67 92 183 148t270 56t253 -72l99 103l100 -97l-104 -108
q57 -100 57 -228q0 -256 -139 -443q-70 -93 -187 -148t-267 -55t-247 67l-100 -105l-92 101l98 102q-59 97 -59 229z" />
    <glyph glyph-name="ugrave" unicode="&#xf9;" horiz-adv-x="1134" 
d="M510 1434l4 20h193l75 -248l-4 -20h-149zM379 -31q-170 1 -247 101t-36 295l133 622h183l-129 -604q-29 -129 7 -190t154 -61t279 104l158 751h184l-209 -987h-131l-4 90h-4q-168 -121 -338 -121z" />
    <glyph glyph-name="uacute" unicode="&#xfa;" horiz-adv-x="1134" 
d="M1004 1454l-5 -20l-225 -248h-166l4 20l183 248h209zM379 -31q-170 1 -247 101t-36 295l133 622h183l-129 -604q-29 -129 7 -190t154 -61t279 104l158 751h184l-209 -987h-131l-4 90h-4q-168 -121 -338 -121z" />
    <glyph glyph-name="ucircumflex" unicode="&#xfb;" horiz-adv-x="1134" 
d="M850 1454l137 -248l-4 -20h-160l-94 151l-158 -151h-174l4 20l242 248h207zM379 -31q-170 1 -247 101t-36 295l133 622h183l-129 -604q-29 -129 7 -190t154 -61t279 104l158 751h184l-209 -987h-131l-4 90h-4q-168 -121 -338 -121z" />
    <glyph glyph-name="udieresis" unicode="&#xfc;" horiz-adv-x="1134" 
d="M893 1182q-94 0 -94 101q0 52 40 91t103 39q96 0 96 -90q0 -61 -41 -101t-104 -40zM492 1182q-95 0 -95 101q0 52 40 91t104 39q98 0 98 -90q0 -61 -41 -101t-106 -40zM379 -31q-170 1 -247 101t-36 295l133 622h183l-129 -604q-29 -129 7 -190t154 -61t279 104l158 751
h184l-209 -987h-131l-4 90h-4q-168 -121 -338 -121z" />
    <glyph glyph-name="yacute" unicode="&#xfd;" horiz-adv-x="1017" 
d="M958 1454l-4 -20l-225 -248h-166l4 20l183 248h208zM25 -436q-66 0 -158 20l27 156q90 -14 135 -14q119 0 204 153l74 131l-186 957l4 20h182l123 -756h6l430 756h191l-4 -20l-662 -1137q-156 -266 -366 -266z" />
    <glyph glyph-name="thorn" unicode="&#xfe;" horiz-adv-x="1165" 
d="M502 131q267 0 344 318q18 78 18 174q0 97 -50 165t-173 68t-264 -106l-115 -533q92 -86 240 -86zM719 1018q166 0 251 -110t85 -278q1 -168 -53 -314t-175 -246t-299 -100t-295 100h-4l-100 -476h-184l391 1840h184l-110 -516h4q70 48 136 74t169 26z" />
    <glyph glyph-name="ydieresis" unicode="&#xff;" horiz-adv-x="1017" 
d="M838 1182q-95 0 -95 101q0 52 40 91t104 39q96 0 96 -90q0 -61 -41 -101t-104 -40zM436 1182q-94 0 -94 101q0 52 40 91t103 39q98 0 99 -90q0 -61 -41 -101t-107 -40zM25 -436q-66 0 -158 20l27 156q90 -14 135 -14q119 0 204 153l74 131l-186 957l4 20h182l123 -756h6
l430 756h191l-4 -20l-662 -1137q-156 -266 -366 -266z" />
    <glyph glyph-name="Amacron" unicode="&#x100;" horiz-adv-x="1267" 
d="M1118 1591h-534l32 152h533zM768 1171h-4l-369 -663h463zM903 1393l219 -1393h-188l-47 348h-588l-197 -348h-202l811 1393h192z" />
    <glyph glyph-name="amacron" unicode="&#x101;" horiz-adv-x="1177" 
d="M985 1223h-534l32 151h533zM401 -31q-165 0 -245 109q-80 108 -80 278q0 374 221 562q119 100 291 100t317 -121h4l41 90h129l-168 -797q-6 -28 1 -40t44 -13h54l-31 -145q-66 -16 -102 -17q-125 0 -140 115h-4q-166 -121 -332 -121zM634 856q-285 0 -350 -321
q-15 -76 -16 -154q0 -250 199 -250q135 1 270 105l113 532q-102 88 -216 88z" />
    <glyph glyph-name="Abreve" unicode="&#x102;" horiz-adv-x="1267" 
d="M875 1716q161 0 255 66l52 -101q-125 -119 -327 -119t-277 134l71 86q65 -66 226 -66zM768 1171h-4l-369 -663h463zM903 1393l219 -1393h-188l-47 348h-588l-197 -348h-202l811 1393h192z" />
    <glyph glyph-name="abreve" unicode="&#x103;" horiz-adv-x="1177" 
d="M728 1339q161 0 255 66l51 -100q-125 -119 -327 -119t-277 133l72 86q65 -66 226 -66zM401 -31q-165 0 -245 109q-80 108 -80 278q0 374 221 562q119 100 291 100t317 -121h4l41 90h129l-168 -797q-6 -28 1 -40t44 -13h54l-31 -145q-66 -16 -102 -17q-125 0 -140 115h-4
q-166 -121 -332 -121zM634 856q-285 0 -350 -321q-15 -76 -16 -154q0 -250 199 -250q135 1 270 105l113 532q-102 88 -216 88z" />
    <glyph glyph-name="Aogonek" unicode="&#x104;" horiz-adv-x="1267" 
d="M768 1171h-4l-369 -663h463zM872 -227q0 -68 74 -68q47 0 129 43l-2 -127q-92 -57 -177 -57t-136 43t-51 123t59 146t164 130l-45 342h-588l-197 -348h-202l811 1393h192l219 -1393q-250 -104 -250 -227z" />
    <glyph glyph-name="aogonek" unicode="&#x105;" horiz-adv-x="1177" 
d="M634 856q-285 0 -350 -321q-15 -76 -16 -154q0 -250 199 -250q135 1 270 105l113 532q-102 88 -216 88zM774 -436q-84 0 -138 40t-54 124t54 147t157 119q-49 27 -56 96h-4q-166 -121 -332 -121q-165 0 -245 109q-80 108 -80 278q0 374 221 562q119 100 291 100t317 -121
h4l41 90h129l-168 -797q-6 -28 1 -40t44 -13h54l-31 -145q-117 -58 -175 -110t-59 -109q0 -68 76 -68q45 0 127 43l6 -127q-96 -57 -180 -57z" />
    <glyph glyph-name="Cacute" unicode="&#x106;" horiz-adv-x="1214" 
d="M1210 1808l-4 -20l-205 -248h-165l4 21l161 247h209zM129 522q0 389 215 645t576 256q176 0 344 -90l-62 -149q-131 66 -290 66q-310 -1 -453 -223q-135 -205 -133 -497q0 -182 85 -284t255 -102t329 65l39 -150q-209 -90 -383 -90q-252 -1 -387 151t-135 402z" />
    <glyph glyph-name="cacute" unicode="&#x107;" horiz-adv-x="978" 
d="M1006 1454l-5 -20l-225 -248h-166l4 20l183 248h209zM74 381q0 273 162 455t423 182q152 0 287 -72l-55 -143q-115 53 -244 53q-170 0 -275 -140t-106 -310q0 -117 56 -196t178 -79q121 0 258 53l37 -143q-166 -72 -318 -72q-190 0 -297 114q-106 114 -106 298z" />
    <glyph glyph-name="Ccircumflex" unicode="&#x108;" horiz-adv-x="1214" 
d="M1098 1808l137 -247l-4 -21h-158l-96 146l-158 -146h-174l4 21l244 247h205zM129 522q0 389 215 645t576 256q176 0 344 -90l-62 -149q-131 66 -290 66q-310 -1 -453 -223q-135 -205 -133 -497q0 -182 85 -284t255 -102t329 65l39 -150q-209 -90 -383 -90
q-252 -1 -387 151t-135 402z" />
    <glyph glyph-name="ccircumflex" unicode="&#x109;" horiz-adv-x="978" 
d="M846 1454l137 -248l-4 -20h-160l-94 151l-158 -151h-174l4 20l242 248h207zM74 381q0 273 162 455t423 182q152 0 287 -72l-55 -143q-115 53 -244 53q-170 0 -275 -140t-106 -310q0 -117 56 -196t178 -79q121 0 258 53l37 -143q-166 -72 -318 -72q-190 0 -297 114
q-106 114 -106 298z" />
    <glyph glyph-name="Cdotaccent" unicode="&#x10a;" horiz-adv-x="1214" 
d="M942 1554q-94 0 -94 102q0 52 40 91t103 39q96 0 96 -90q0 -61 -40 -102q-41 -40 -105 -40zM129 522q0 389 215 645t576 256q176 0 344 -90l-62 -149q-131 66 -290 66q-310 -1 -453 -223q-135 -205 -133 -497q0 -182 85 -284t255 -102t329 65l39 -150q-209 -90 -383 -90
q-252 -1 -387 151t-135 402z" />
    <glyph glyph-name="cdotaccent" unicode="&#x10b;" horiz-adv-x="978" 
d="M690 1182q-94 0 -94 101q0 52 40 91t103 39q98 0 99 -90q0 -61 -41 -101t-107 -40zM74 381q0 273 162 455t423 182q152 0 287 -72l-55 -143q-115 53 -244 53q-170 0 -275 -140t-106 -310q0 -117 56 -196t178 -79q121 0 258 53l37 -143q-166 -72 -318 -72q-190 0 -297 114
q-106 114 -106 298z" />
    <glyph glyph-name="Ccaron" unicode="&#x10c;" horiz-adv-x="1214" 
d="M825 1540l-137 248l4 20h160l94 -145l158 145h174l-4 -20l-242 -248h-207zM129 522q0 389 215 645t576 256q176 0 344 -90l-62 -149q-131 66 -290 66q-310 -1 -453 -223q-135 -205 -133 -497q0 -182 85 -284t255 -102t329 65l39 -150q-209 -90 -383 -90q-252 -1 -387 151
t-135 402z" />
    <glyph glyph-name="ccaron" unicode="&#x10d;" horiz-adv-x="978" 
d="M588 1186l-135 248l4 20h159l93 -151l157 151h176l-4 -20l-241 -248h-209zM74 381q0 273 162 455t423 182q152 0 287 -72l-55 -143q-115 53 -244 53q-170 0 -275 -140t-106 -310q0 -117 56 -196t178 -79q121 0 258 53l37 -143q-166 -72 -318 -72q-190 0 -297 114
q-106 114 -106 298z" />
    <glyph glyph-name="Dcaron" unicode="&#x10e;" horiz-adv-x="1400" 
d="M760 1540l-137 248l4 20h159l95 -145l157 145h174l-4 -20l-241 -248h-207zM451 170q337 0 503 157t166 545q0 182 -102 266t-344 85h-164l-225 -1053h166zM717 1393q598 0 598 -512q0 -881 -854 -881h-400l297 1393h359z" />
    <glyph glyph-name="dcaron" unicode="&#x10f;" horiz-adv-x="1165" 
d="M1198 1083l4 21l103 289h188l-4 -21l-146 -289h-145zM414 -31q-170 0 -255 110q-85 111 -85 279q0 369 229 560q121 100 296 100t296 -100h4l111 516h184l-305 -1434h-131l-2 90h-4q-168 -121 -338 -121zM629 856q-272 0 -345 -321q-17 -76 -18 -154q0 -250 209 -250
q146 1 281 105l112 532q-98 88 -239 88z" />
    <glyph glyph-name="Dcroat" unicode="&#x110;" horiz-adv-x="1402" 
d="M453 170q337 0 503 157t166 545q0 182 -102 266t-344 85h-164l-96 -451h323l-37 -170h-323l-92 -432h166zM719 1393q598 0 598 -512q0 -881 -854 -881h-400l127 602h-104l35 170h106l133 621h359z" />
    <glyph glyph-name="dcroat" unicode="&#x111;" horiz-adv-x="1165" 
d="M629 856q-272 0 -345 -321q-17 -76 -18 -154q0 -250 209 -250q146 1 281 105l112 532q-98 88 -239 88zM414 -31q-170 0 -255 110q-85 111 -85 279q0 369 229 560q121 100 296 100t296 -100h4l47 221h-223l33 151h223l31 144h184l-31 -144h125l-33 -151h-125l-241 -1139
h-131l-2 90h-4q-168 -121 -338 -121z" />
    <glyph glyph-name="Emacron" unicode="&#x112;" horiz-adv-x="1181" 
d="M1118 1591h-534l32 152h533zM358 1393h871l-37 -170h-682l-92 -428h618l-35 -170h-618l-98 -455h690l-37 -170h-877z" />
    <glyph glyph-name="emacron" unicode="&#x113;" horiz-adv-x="1091" 
d="M979 1223h-535l33 151h533zM614 860q-110 0 -198 -76t-123 -202h524q16 49 17 92q0 84 -54 135q-56 51 -166 51zM254 377q0 -250 262 -250q136 0 291 92l63 -143q-182 -106 -390 -106t-308 116q-100 117 -100 295q0 253 156 445t407 192q186 0 280 -99t94 -227t-57 -258
h-692q-6 -25 -6 -57z" />
    <glyph glyph-name="Ebreve" unicode="&#x114;" horiz-adv-x="1181" 
d="M871 1716q161 0 255 66l52 -101q-125 -119 -327 -119t-278 134l72 86q65 -66 226 -66zM358 1393h871l-37 -170h-682l-92 -428h618l-35 -170h-618l-98 -455h690l-37 -170h-877z" />
    <glyph glyph-name="ebreve" unicode="&#x115;" horiz-adv-x="1091" 
d="M740 1339q161 0 255 66l52 -100q-125 -119 -327 -119t-278 133l72 86q65 -66 226 -66zM614 860q-110 0 -198 -76t-123 -202h524q16 49 17 92q0 84 -54 135q-56 51 -166 51zM254 377q0 -250 262 -250q136 0 291 92l63 -143q-182 -106 -390 -106t-308 116
q-100 117 -100 295q0 253 156 445t407 192q186 0 280 -99t94 -227t-57 -258h-692q-6 -25 -6 -57z" />
    <glyph glyph-name="Edotaccent" unicode="&#x116;" horiz-adv-x="1181" 
d="M842 1554q-94 0 -94 102q0 52 39 91q40 39 104 39q96 0 96 -90q0 -62 -41 -102t-104 -40zM358 1393h871l-37 -170h-682l-92 -428h618l-35 -170h-618l-98 -455h690l-37 -170h-877z" />
    <glyph glyph-name="edotaccent" unicode="&#x117;" horiz-adv-x="1091" 
d="M702 1182q-94 0 -94 101q0 52 40 91t104 39q98 0 98 -90q0 -61 -41 -101t-107 -40zM614 860q-110 0 -198 -76t-123 -202h524q16 49 17 92q0 84 -54 135q-56 51 -166 51zM254 377q0 -250 262 -250q136 0 291 92l63 -143q-182 -106 -390 -106t-308 116q-100 117 -100 295
q0 253 156 445t407 192q186 0 280 -99t94 -227t-57 -258h-692q-6 -25 -6 -57z" />
    <glyph glyph-name="Eogonek" unicode="&#x118;" horiz-adv-x="1181" 
d="M725 -436q-84 0 -135 43t-51 123t55 142t160 128h-693l297 1393h871l-37 -170h-682l-92 -428h618l-35 -170h-618l-98 -455h690l-37 -170q-121 -64 -178 -116q-58 -52 -58 -116t76 -63q45 0 127 43v-127q-96 -57 -180 -57z" />
    <glyph glyph-name="eogonek" unicode="&#x119;" horiz-adv-x="1091" 
d="M614 860q-110 0 -198 -76t-123 -202h524q16 49 17 92q0 84 -54 135q-56 51 -166 51zM254 377q0 -250 262 -250q136 0 291 92l63 -143q-90 -41 -141 -66q-190 -88 -190 -239q0 -66 73 -66q51 0 127 43v-127q-92 -57 -177 -57t-136 43t-51 119q0 135 143 241v4
q-16 -2 -47 -2q-199 0 -299 117t-100 295q0 253 156 445t407 192q186 0 280 -99t94 -227t-57 -258h-692q-6 -25 -6 -57z" />
    <glyph glyph-name="Ecaron" unicode="&#x11a;" horiz-adv-x="1181" 
d="M733 1540l-137 248l4 20h160l94 -145l158 145h174l-4 -20l-242 -248h-207zM358 1393h871l-37 -170h-682l-92 -428h618l-35 -170h-618l-98 -455h690l-37 -170h-877z" />
    <glyph glyph-name="ecaron" unicode="&#x11b;" horiz-adv-x="1091" 
d="M598 1186l-135 248l4 20h160l92 -151l158 151h176l-4 -20l-242 -248h-209zM614 860q-110 0 -198 -76t-123 -202h524q16 49 17 92q0 84 -54 135q-56 51 -166 51zM254 377q0 -250 262 -250q136 0 291 92l63 -143q-182 -106 -390 -106t-308 116q-100 117 -100 295
q0 253 156 445t407 192q186 0 280 -99t94 -227t-57 -258h-692q-6 -25 -6 -57z" />
    <glyph glyph-name="Gcircumflex" unicode="&#x11c;" horiz-adv-x="1347" 
d="M1098 1808l137 -247l-4 -21h-158l-96 146l-158 -146h-174l4 21l244 247h205zM644 -31q-259 -1 -386 147t-127 392q0 368 183 631q91 131 248 208t367 77t406 -130l-78 -149q-170 104 -350 104q-129 0 -231 -42t-166 -111q-182 -202 -182 -576q0 -174 79 -275t253 -101
t284 61l68 319l-262 41l28 129h457l-121 -596q-211 -129 -470 -129z" />
    <glyph glyph-name="gcircumflex" unicode="&#x11d;" horiz-adv-x="1167" 
d="M891 1454l137 -248l-4 -20h-160l-94 151l-158 -151h-174l4 20l242 248h207zM76 366q0 366 233 555q121 97 295 97t316 -121h4l45 90h131l-215 -1010q-41 -188 -172 -301q-131 -112 -321 -112t-349 94l59 147q135 -80 285 -79q260 0 313 247l23 105h-4
q-135 -100 -303 -100t-254 109q-86 110 -86 279zM627 856q-86 0 -153 -34q-66 -34 -104 -84q-104 -138 -104 -355q0 -244 209 -244q146 1 283 105l110 524q-111 88 -241 88z" />
    <glyph glyph-name="Gbreve" unicode="&#x11e;" horiz-adv-x="1347" 
d="M984 1716q161 0 255 66l51 -101q-125 -119 -327 -119t-277 134l72 86q65 -66 226 -66zM644 -31q-259 -1 -386 147t-127 392q0 368 183 631q91 131 248 208t367 77t406 -130l-78 -149q-170 104 -350 104q-129 0 -231 -42t-166 -111q-182 -202 -182 -576q0 -174 79 -275
t253 -101t284 61l68 319l-262 41l28 129h457l-121 -596q-211 -129 -470 -129z" />
    <glyph glyph-name="gbreve" unicode="&#x11f;" horiz-adv-x="1167" 
d="M769 1339q161 0 255 66l51 -100q-125 -119 -327 -119t-277 133l72 86q65 -66 226 -66zM76 366q0 366 233 555q121 97 295 97t316 -121h4l45 90h131l-215 -1010q-41 -188 -172 -301q-131 -112 -321 -112t-349 94l59 147q135 -80 285 -79q260 0 313 247l23 105h-4
q-135 -100 -303 -100t-254 109q-86 110 -86 279zM627 856q-86 0 -153 -34q-66 -34 -104 -84q-104 -138 -104 -355q0 -244 209 -244q146 1 283 105l110 524q-111 88 -241 88z" />
    <glyph glyph-name="Gdotaccent" unicode="&#x120;" horiz-adv-x="1347" 
d="M946 1554q-94 0 -94 102q0 52 40 91t103 39q96 0 97 -90q0 -62 -41 -102t-105 -40zM644 -31q-259 -1 -386 147t-127 392q0 368 183 631q91 131 248 208t367 77t406 -130l-78 -149q-170 104 -350 104q-129 0 -231 -42t-166 -111q-182 -202 -182 -576q0 -174 79 -275
t253 -101t284 61l68 319l-262 41l28 129h457l-121 -596q-211 -129 -470 -129z" />
    <glyph glyph-name="gdotaccent" unicode="&#x121;" horiz-adv-x="1167" 
d="M731 1182q-94 0 -94 101q0 52 40 91t103 39q98 0 99 -90q0 -61 -41 -101t-107 -40zM76 366q0 366 233 555q121 97 295 97t316 -121h4l45 90h131l-215 -1010q-41 -188 -172 -301q-131 -112 -321 -112t-349 94l59 147q135 -80 285 -79q260 0 313 247l23 105h-4
q-135 -100 -303 -100t-254 109q-86 110 -86 279zM627 856q-86 0 -153 -34q-66 -34 -104 -84q-104 -138 -104 -355q0 -244 209 -244q146 1 283 105l110 524q-111 88 -241 88z" />
    <glyph glyph-name="Gcommaaccent" unicode="&#x122;" horiz-adv-x="1347" 
d="M387 -446l4 20l103 289h188l-4 -21l-146 -288h-145zM644 -31q-259 -1 -386 147t-127 392q0 368 183 631q91 131 248 208t367 77t406 -130l-78 -149q-170 104 -350 104q-129 0 -231 -42t-166 -111q-182 -202 -182 -576q0 -174 79 -275t253 -101t284 61l68 319l-262 41
l28 129h457l-121 -596q-211 -129 -470 -129z" />
    <glyph glyph-name="gcommaaccent" unicode="&#x123;" horiz-adv-x="1167" 
d="M934 1475l-4 -21l-101 -289h-190l4 21l148 289h143zM76 366q0 366 233 555q121 97 295 97t316 -121h4l45 90h131l-215 -1010q-41 -188 -172 -301q-131 -112 -321 -112t-349 94l59 147q135 -80 285 -79q260 0 313 247l23 105h-4q-135 -100 -303 -100t-254 109
q-86 110 -86 279zM627 856q-86 0 -153 -34q-66 -34 -104 -84q-104 -138 -104 -355q0 -244 209 -244q146 1 283 105l110 524q-111 88 -241 88z" />
    <glyph glyph-name="Hcircumflex" unicode="&#x124;" horiz-adv-x="1417" 
d="M1079 1808l138 -247l-5 -21h-157l-97 146l-157 -146h-174l4 21l243 247h205zM922 0l133 625h-672l-133 -625h-189l297 1393h187l-127 -598h674l127 598h188l-297 -1393h-188z" />
    <glyph glyph-name="hcircumflex" unicode="&#x125;" horiz-adv-x="1148" 
d="M954 1808l138 -247l-5 -21h-157l-96 146l-158 -146h-174l4 21l244 247h204zM666 856q-70 0 -153 -33t-138 -71l-160 -752h-184l305 1434h184l-110 -516h4q158 100 320 100t241 -102q80 -102 39 -298l-133 -618h-185l129 604q55 252 -159 252z" />
    <glyph glyph-name="Hbar" unicode="&#x126;" horiz-adv-x="1421" 
d="M420 795h674l51 245h-672zM924 0l133 625h-672l-133 -625h-189l222 1040h-101l37 170h101l38 183h187l-39 -183h674l39 183h188l-39 -183h100l-36 -170h-101l-221 -1040h-188z" />
    <glyph glyph-name="hbar" unicode="&#x127;" horiz-adv-x="1148" 
d="M666 856q-70 0 -153 -33t-138 -71l-160 -752h-184l241 1141h-122l32 151h123l31 142h184l-31 -142h226l-31 -151h-227l-47 -223h4q158 100 320 100t241 -102q80 -102 39 -298l-133 -618h-185l129 604q55 252 -159 252z" />
    <glyph glyph-name="Itilde" unicode="&#x128;" horiz-adv-x="557" 
d="M391 1790q45 0 125 -41t119 -41q76 0 143 72l41 -103q-111 -117 -201 -116q-44 0 -124 41t-123 40q-70 1 -138 -71l-40 102q104 117 198 117zM545 1393l-295 -1393h-189l297 1393h187z" />
    <glyph glyph-name="itilde" unicode="&#x129;" horiz-adv-x="491" 
d="M215 0h-184l209 987h184zM281 1415q45 0 125 -41t118 -41q76 0 144 72l41 -102q-111 -117 -201 -117q-45 0 -125 41t-123 41q-69 0 -137 -72l-41 102q104 117 199 117z" />
    <glyph glyph-name="Imacron" unicode="&#x12a;" horiz-adv-x="557" 
d="M758 1591h-535l33 152h532zM545 1393l-295 -1393h-189l297 1393h187z" />
    <glyph glyph-name="imacron" unicode="&#x12b;" horiz-adv-x="491" 
d="M215 0h-184l209 987h184zM651 1223h-534l33 151h532z" />
    <glyph glyph-name="Ibreve" unicode="&#x12c;" horiz-adv-x="557" 
d="M515 1716q161 0 255 66l51 -101q-125 -119 -327 -119t-277 134l72 86q65 -66 226 -66zM545 1393l-295 -1393h-189l297 1393h187z" />
    <glyph glyph-name="ibreve" unicode="&#x12d;" horiz-adv-x="491" 
d="M215 0h-184l209 987h184zM400 1339q161 0 255 66l52 -100q-125 -119 -327 -119t-278 133l72 86q65 -66 226 -66z" />
    <glyph glyph-name="Iogonek" unicode="&#x12e;" horiz-adv-x="557" 
d="M30 -436q-85 0 -135 42q-51 42 -51 124t56 143t161 127l295 1393h189l-295 -1393q-242 -111 -242 -227q0 -68 76 -68q45 0 127 43v-127q-96 -57 -181 -57z" />
    <glyph glyph-name="iogonek" unicode="&#x12f;" horiz-adv-x="493" 
d="M375 1182q-94 0 -94 101q0 52 40 91t103 39q98 0 98 -90q0 -61 -42 -101t-105 -40zM-6 -436q-84 0 -135 43t-51 125t56 144t169 130l209 981h184l-209 -987q-133 -60 -189 -114t-56 -118t75 -63q45 0 127 43v-127q-96 -57 -180 -57z" />
    <glyph glyph-name="Idotaccent" unicode="&#x130;" horiz-adv-x="557" 
d="M483 1554q-94 0 -94 102q0 52 40 91t103 39q96 0 97 -90q0 -62 -41 -102t-105 -40zM545 1393l-295 -1393h-189l297 1393h187z" />
    <glyph glyph-name="dotlessi" unicode="&#x131;" horiz-adv-x="493" 
d="M217 0h-184l209 987h184z" />
    <glyph glyph-name="IJ" unicode="&#x132;" horiz-adv-x="1476" 
d="M797 -31q-182 0 -295 150l100 131q90 -106 211 -107q207 0 274 314l199 936h189l-209 -977q-45 -215 -166 -331t-303 -116zM545 1393l-295 -1393h-189l297 1393h187z" />
    <glyph glyph-name="ij" unicode="&#x133;" horiz-adv-x="987" 
d="M868 1182q-94 0 -94 101q0 52 40 91t104 39q98 0 98 -90q0 -61 -42 -101t-106 -40zM342 -436q-80 0 -149 18l32 158q57 -14 121 -14t100 34t54 115l235 1112h185l-240 -1128q-63 -295 -338 -295zM375 1182q-94 0 -94 101q0 52 40 91t103 39q98 0 98 -90q0 -61 -42 -101
t-105 -40zM215 0h-182l209 987h184z" />
    <glyph glyph-name="Jcircumflex" unicode="&#x134;" horiz-adv-x="919" 
d="M1014 1808l137 -247l-4 -21h-158l-96 146l-158 -146h-174l4 21l244 247h205zM240 -31q-182 0 -295 150l100 131q90 -106 211 -107q207 0 274 314l199 936h189l-209 -977q-45 -215 -166 -331t-303 -116z" />
    <glyph glyph-name="jcircumflex" unicode="&#x135;" horiz-adv-x="491" 
d="M526 1454l138 -248l-5 -20h-159l-94 151l-158 -151h-174l4 20l241 248h207zM-154 -436q-80 0 -149 18l33 158q56 -14 120 -14t101 34t53 115l236 1112h184l-240 -1128q-63 -295 -338 -295z" />
    <glyph glyph-name="Kcommaaccent" unicode="&#x136;" 
d="M279 -446l4 20l102 289h188l-4 -21l-145 -288h-145zM389 635h-4l-135 -635h-189l297 1393h187l-146 -684h4l691 684h231l-4 -21l-725 -710l465 -642l-4 -20h-215z" />
    <glyph glyph-name="kcommaaccent" unicode="&#x137;" horiz-adv-x="1003" 
d="M152 -446l4 20l102 289h188l-4 -21l-145 -288h-145zM315 457h-4l-96 -457h-184l305 1434h184l-192 -906h4l475 459h233l-4 -14l-526 -492l340 -465l-4 -16h-203z" />
    <glyph glyph-name="kgreenlandic" unicode="&#x138;" horiz-adv-x="1003" 
d="M313 444h-4l-94 -444h-182l209 987h182l-102 -479h4l489 479h223l-4 -14l-530 -508l348 -451l-2 -14h-205z" />
    <glyph glyph-name="Lacute" unicode="&#x139;" horiz-adv-x="1046" 
d="M770 1808l-4 -20l-205 -248h-166l4 21l162 247h209zM358 1393h187l-260 -1223h624l-37 -170h-811z" />
    <glyph glyph-name="lacute" unicode="&#x13a;" horiz-adv-x="536" 
d="M743 1808l-4 -20l-204 -248h-166l4 21l162 247h208zM389 137l-31 -145q-66 -16 -108 -17q-221 0 -170 238l260 1221h182l-264 -1244q-8 -28 0 -40t39 -13h92z" />
    <glyph glyph-name="Lcommaaccent" unicode="&#x13b;" horiz-adv-x="1046" 
d="M246 -446l4 20l102 289h189l-4 -21l-146 -288h-145zM358 1393h187l-260 -1223h624l-37 -170h-811z" />
    <glyph glyph-name="lcommaaccent" unicode="&#x13c;" horiz-adv-x="536" 
d="M-35 -446l4 20l103 289h188l-4 -21l-145 -288h-146zM389 137l-31 -145q-66 -16 -108 -17q-221 0 -170 238l260 1221h182l-264 -1244q-8 -28 0 -40t39 -13h92z" />
    <glyph glyph-name="Lcaron" unicode="&#x13d;" horiz-adv-x="1048" 
d="M690 1083l4 21l103 289h188l-4 -21l-145 -289h-146zM358 1393h187l-260 -1223h624l-37 -170h-811z" />
    <glyph glyph-name="lcaron" unicode="&#x13e;" horiz-adv-x="536" 
d="M532 1083l5 21l102 289h188l-4 -21l-145 -289h-146zM389 137l-31 -145q-66 -16 -108 -17q-221 0 -170 238l260 1221h182l-264 -1244q-8 -28 0 -40t39 -13h92z" />
    <glyph glyph-name="Ldot" unicode="&#x13f;" horiz-adv-x="1048" 
d="M782 588q-104 0 -104 114q0 60 46 106t106 46q114 0 114 -104q0 -70 -46 -116t-116 -46zM358 1393h187l-260 -1223h624l-37 -170h-811z" />
    <glyph glyph-name="ldot" unicode="&#x140;" horiz-adv-x="731" 
d="M664 854q116 0 114 -115q0 -59 -46 -105t-116 -46q-104 0 -104 114q0 60 46 106t106 46zM389 137l-31 -145q-66 -16 -108 -17q-221 0 -170 238l260 1221h182l-264 -1244q-8 -28 0 -40t39 -13h92z" />
    <glyph glyph-name="Lslash" unicode="&#x141;" horiz-adv-x="1064" 
d="M377 1393h188l-114 -539l241 121h21l-37 -170l-264 -133l-107 -502h623l-35 -170h-811l121 567l-142 -69h-20l37 170l162 82z" />
    <glyph glyph-name="lslash" unicode="&#x142;" horiz-adv-x="649" 
d="M451 137l-31 -145q-66 -16 -109 -17q-221 0 -170 238l74 344l-164 -80h-20l37 170l186 92l147 695h183l-127 -592l194 96h21l-35 -170l-219 -109l-99 -469q-8 -28 0 -40t39 -13h93z" />
    <glyph glyph-name="Nacute" unicode="&#x143;" horiz-adv-x="1435" 
d="M1188 1808l-4 -20l-205 -248h-166l4 21l162 247h209zM997 287h4l236 1106h188l-297 -1393h-194l-445 1106h-4l-235 -1106h-189l297 1393h191z" />
    <glyph glyph-name="nacute" unicode="&#x144;" horiz-adv-x="1150" 
d="M1024 1454l-4 -20l-225 -248h-166l4 20l182 248h209zM723 1018q174 0 254 -102t39 -298l-133 -618h-185l129 604q55 252 -159 252q-70 0 -153 -33t-138 -71l-160 -752h-184l209 987h133l2 -90h4q168 121 342 121z" />
    <glyph glyph-name="Ncommaaccent" unicode="&#x145;" horiz-adv-x="1435" 
d="M362 -446l107 309h188l-4 -21l-145 -288h-146zM997 287h4l236 1106h188l-297 -1393h-194l-445 1106h-4l-235 -1106h-189l297 1393h191z" />
    <glyph glyph-name="ncommaaccent" unicode="&#x146;" horiz-adv-x="1150" 
d="M219 -446l4 20l103 289h188l-4 -21l-145 -288h-146zM723 1018q174 0 254 -102t39 -298l-133 -618h-185l129 604q55 252 -159 252q-70 0 -153 -33t-138 -71l-160 -752h-184l209 987h133l2 -90h4q168 121 342 121z" />
    <glyph glyph-name="Ncaron" unicode="&#x147;" horiz-adv-x="1435" 
d="M819 1540l-137 248l4 20h160l94 -145l158 145h174l-4 -20l-242 -248h-207zM997 287h4l236 1106h188l-297 -1393h-194l-445 1106h-4l-235 -1106h-189l297 1393h191z" />
    <glyph glyph-name="ncaron" unicode="&#x148;" horiz-adv-x="1150" 
d="M614 1186l-135 248l4 20h160l92 -151l158 151h176l-4 -20l-242 -248h-209zM723 1018q174 0 254 -102t39 -298l-133 -618h-185l129 604q55 252 -159 252q-70 0 -153 -33t-138 -71l-160 -752h-184l209 987h133l2 -90h4q168 121 342 121z" />
    <glyph glyph-name="napostrophe" unicode="&#x149;" horiz-adv-x="1148" 
d="M90 1083l4 21l103 289h188l-4 -21l-145 -289h-146zM721 1018q174 0 254 -102t39 -298l-133 -618h-185l129 604q55 252 -159 252q-70 0 -153 -33t-138 -71l-160 -752h-184l209 987h133l2 -90h4q168 121 342 121z" />
    <glyph glyph-name="Eng" unicode="&#x14a;" horiz-adv-x="1435" 
d="M770 -436q-90 0 -160 18l37 170q57 -14 121 -14t96 29t49 108l21 125l-445 1106h-4l-235 -1106h-189l297 1393h191l448 -1106h4l236 1106h188l-321 -1512q-33 -157 -114 -237t-220 -80z" />
    <glyph glyph-name="eng" unicode="&#x14b;" horiz-adv-x="1150" 
d="M723 1018q174 0 254 -102t39 -298l-164 -759q-63 -295 -338 -295q-80 0 -149 18l32 158q57 -14 121 -14t100 34t54 115l155 729q55 252 -159 252q-70 0 -153 -33t-138 -71l-160 -752h-184l209 987h133l2 -90h4q168 121 342 121z" />
    <glyph glyph-name="Omacron" unicode="&#x14c;" horiz-adv-x="1478" 
d="M1233 1591h-535l33 152h533zM129 508q0 358 174 621q88 134 242 214t354 80q248 0 374 -146t126 -409t-110 -493q-122 -255 -364 -352q-132 -53 -294 -54q-248 1 -375 147t-127 392zM1204 877q0 172 -77 272t-230 100t-257 -54t-164 -133q-58 -79 -104 -214t-46 -319
q0 -384 321 -386q111 0 200 34t146 84q149 131 195 407q16 104 16 209z" />
    <glyph glyph-name="omacron" unicode="&#x14d;" horiz-adv-x="1177" 
d="M993 1223h-534l33 151h532zM1067 612q0 -252 -139 -439q-70 -93 -187 -148t-266 -56q-201 0 -301 114t-100 290q0 254 135 441q67 92 183 148t265 56q205 0 307 -114t103 -292zM264 385q0 -254 225 -254q135 0 226 74q162 133 162 393q-1 118 -57 188t-168 70
q-296 0 -369 -309q-19 -78 -19 -162z" />
    <glyph glyph-name="Obreve" unicode="&#x14e;" horiz-adv-x="1478" 
d="M990 1716q161 0 255 66l51 -101q-124 -119 -326 -119t-278 134l72 86q65 -66 226 -66zM129 508q0 358 174 621q88 134 242 214t354 80q248 0 374 -146t126 -409t-110 -493q-122 -255 -364 -352q-132 -53 -294 -54q-248 1 -375 147t-127 392zM1204 877q0 172 -77 272
t-230 100t-257 -54t-164 -133q-58 -79 -104 -214t-46 -319q0 -384 321 -386q111 0 200 34t146 84q149 131 195 407q16 104 16 209z" />
    <glyph glyph-name="obreve" unicode="&#x14f;" horiz-adv-x="1177" 
d="M740 1339q161 0 255 66l52 -100q-125 -119 -327 -119t-278 133l72 86q65 -66 226 -66zM1067 612q0 -252 -139 -439q-70 -93 -187 -148t-266 -56q-201 0 -301 114t-100 290q0 254 135 441q67 92 183 148t265 56q205 0 307 -114t103 -292zM264 385q0 -254 225 -254
q135 0 226 74q162 133 162 393q-1 118 -57 188t-168 70q-296 0 -369 -309q-19 -78 -19 -162z" />
    <glyph glyph-name="Ohungarumlaut" unicode="&#x150;" horiz-adv-x="1478" 
d="M1432 1808l-5 -20l-225 -248h-166l4 21l183 247h209zM1092 1808l-5 -20l-225 -248h-166l4 21l183 247h209zM129 508q0 358 174 621q88 134 242 214t354 80q248 0 374 -146t126 -409t-110 -493q-122 -255 -364 -352q-132 -53 -294 -54q-248 1 -375 147t-127 392zM1204 877
q0 172 -77 272t-230 100t-257 -54t-164 -133q-58 -79 -104 -214t-46 -319q0 -384 321 -386q111 0 200 34t146 84q149 131 195 407q16 104 16 209z" />
    <glyph glyph-name="ohungarumlaut" unicode="&#x151;" horiz-adv-x="1177" 
d="M1221 1454l-4 -20l-226 -248h-166l4 20l183 248h209zM881 1454l-4 -20l-226 -248h-166l4 20l183 248h209zM1067 612q0 -252 -139 -439q-70 -93 -187 -148t-266 -56q-201 0 -301 114t-100 290q0 254 135 441q67 92 183 148t265 56q205 0 307 -114t103 -292zM264 385
q0 -254 225 -254q135 0 226 74q162 133 162 393q-1 118 -57 188t-168 70q-296 0 -369 -309q-19 -78 -19 -162z" />
    <glyph glyph-name="OE" unicode="&#x152;" horiz-adv-x="1949" 
d="M649 143q129 0 217 35l219 1034q-79 37 -209 37t-234 -54t-164 -133q-58 -79 -104 -214t-46 -319q0 -386 321 -386zM892 1423q150 0 236 -30h867l-37 -170h-682l-90 -428h618l-37 -170h-618l-96 -455h688l-37 -170h-873q-98 -31 -198 -31q-252 1 -377 149t-125 414
t114 492q127 253 365 347q132 52 282 52z" />
    <glyph glyph-name="oe" unicode="&#x153;" horiz-adv-x="1867" 
d="M1390 860q-110 0 -198 -76t-123 -202h524q16 49 17 92q0 84 -54 135q-56 51 -166 51zM264 385q0 -254 225 -254q135 0 226 74q162 133 162 393q-1 118 -57 188t-168 70q-296 0 -369 -309q-19 -78 -19 -162zM1030 377q0 -119 64 -185t198 -65q136 0 291 92l64 -143
q-182 -106 -400 -107q-248 0 -338 193q-150 -193 -434 -193q-201 0 -301 114t-100 290q0 254 135 441q67 92 183 148t265 56q260 0 351 -201q150 201 403 201q187 0 281 -99t94 -247q0 -107 -57 -238h-693q-6 -25 -6 -57z" />
    <glyph glyph-name="Racute" unicode="&#x154;" horiz-adv-x="1292" 
d="M1096 1808l-4 -20l-205 -248h-166l4 21l162 247h209zM731 768q154 0 238 74t84 205q0 176 -226 176h-317l-96 -455h317zM852 1393q188 0 294 -85t105 -237q-1 -193 -113 -311t-307 -152l285 -575l-6 -33h-192l-287 598h-254l-127 -598h-189l297 1393h494z" />
    <glyph glyph-name="racute" unicode="&#x155;" horiz-adv-x="704" 
d="M823 1454l-4 -20l-225 -248h-166l4 20l182 248h209zM375 987v-106h4q123 137 276 137q57 0 101 -14l-41 -166q-47 10 -97 10q-154 0 -253 -152l-148 -696h-184l209 987h133z" />
    <glyph glyph-name="Rcommaaccent" unicode="&#x156;" horiz-adv-x="1292" 
d="M283 -446l4 20l102 289h189l-5 -21l-145 -288h-145zM731 768q154 0 238 74t84 205q0 176 -226 176h-317l-96 -455h317zM852 1393q188 0 294 -85t105 -237q-1 -193 -113 -311t-307 -152l285 -575l-6 -33h-192l-287 598h-254l-127 -598h-189l297 1393h494z" />
    <glyph glyph-name="rcommaaccent" unicode="&#x157;" horiz-adv-x="704" 
d="M-109 -446l107 309h188l-4 -21l-145 -288h-146zM375 987v-106h4q123 137 276 137q57 0 101 -14l-41 -166q-47 10 -97 10q-154 0 -253 -152l-148 -696h-184l209 987h133z" />
    <glyph glyph-name="Rcaron" unicode="&#x158;" horiz-adv-x="1292" 
d="M696 1540l-137 248l4 20h160l94 -145l158 145h174l-4 -20l-242 -248h-207zM731 768q154 0 238 74t84 205q0 176 -226 176h-317l-96 -455h317zM852 1393q188 0 294 -85t105 -237q-1 -193 -113 -311t-307 -152l285 -575l-6 -33h-192l-287 598h-254l-127 -598h-189l297 1393
h494z" />
    <glyph glyph-name="rcaron" unicode="&#x159;" horiz-adv-x="704" 
d="M436 1186l-135 248l4 20h160l92 -151l158 151h176l-4 -20l-242 -248h-209zM375 987v-106h4q123 137 276 137q57 0 101 -14l-41 -166q-47 10 -97 10q-154 0 -253 -152l-148 -696h-184l209 987h133z" />
    <glyph glyph-name="Sacute" unicode="&#x15a;" horiz-adv-x="1081" 
d="M1036 1808l-4 -20l-205 -248h-165l4 21l161 247h209zM418 143q330 0 330 250q0 131 -181 213l-114 51q-115 51 -181 137t-65 193q0 195 139 316t379 120q193 0 354 -108l-84 -152q-161 86 -295 86t-214 -63t-80 -183t137 -182l127 -57q276 -125 276 -335t-144 -335
t-371 -125t-413 133l91 152q147 -111 309 -111z" />
    <glyph glyph-name="sacute" unicode="&#x15b;" horiz-adv-x="913" 
d="M897 1454l-4 -20l-225 -248h-166l4 20l182 248h209zM344 127q229 0 229 149q0 82 -116 127l-111 43q-217 84 -217 241t109 244t288 87t332 -74l-67 -149q-139 66 -252 65q-221 0 -222 -147q0 -72 119 -119l109 -41q217 -82 217 -254q0 -150 -111 -240t-304 -90t-345 90
l74 148q123 -80 268 -80z" />
    <glyph glyph-name="Scircumflex" unicode="&#x15c;" horiz-adv-x="1081" 
d="M909 1808l138 -247l-5 -21h-157l-97 146l-157 -146h-174l4 21l244 247h204zM418 143q330 0 330 250q0 131 -181 213l-114 51q-115 51 -181 137t-65 193q0 195 139 316t379 120q193 0 354 -108l-84 -152q-161 86 -295 86t-214 -63t-80 -183t137 -182l127 -57
q276 -125 276 -335t-144 -335t-371 -125t-413 133l91 152q147 -111 309 -111z" />
    <glyph glyph-name="scircumflex" unicode="&#x15d;" horiz-adv-x="913" 
d="M756 1454l137 -248l-4 -20h-160l-94 151l-158 -151h-174l4 20l242 248h207zM344 127q229 0 229 149q0 82 -116 127l-111 43q-217 84 -217 241t109 244t288 87t332 -74l-67 -149q-139 66 -252 65q-221 0 -222 -147q0 -72 119 -119l109 -41q217 -82 217 -254
q0 -150 -111 -240t-304 -90t-345 90l74 148q123 -80 268 -80z" />
    <glyph glyph-name="Scedilla" unicode="&#x15e;" horiz-adv-x="1081" 
d="M418 143q330 0 330 250q0 131 -181 213l-114 51q-115 51 -181 137t-65 193q0 195 139 316t379 120q193 0 354 -108l-84 -152q-161 86 -295 86t-214 -63t-80 -183t137 -182l127 -57q276 -125 276 -344q0 -193 -133 -316t-350 -133l-41 -69q51 -8 83 -44t32 -85
q0 -209 -271 -209q-92 0 -145 28l41 113q53 -23 102 -22q113 0 113 86q0 61 -109 61l-8 20l72 125q-173 25 -314 127l91 152q147 -111 309 -111z" />
    <glyph glyph-name="scedilla" unicode="&#x15f;" horiz-adv-x="913" 
d="M344 127q229 0 229 149q0 82 -116 127l-111 43q-217 84 -217 241t109 244t288 87t332 -74l-67 -149q-139 66 -252 65q-221 0 -222 -147q0 -72 119 -119l109 -41q217 -82 217 -254q0 -139 -97 -227t-270 -101l-43 -69q51 -8 83 -44t32 -85q0 -209 -270 -209q-92 0 -146 28
l41 113q53 -23 103 -22q113 0 112 86q0 61 -108 61l-9 20l70 123q-137 14 -258 86l74 148q123 -80 268 -80z" />
    <glyph glyph-name="Scaron" unicode="&#x160;" horiz-adv-x="1081" 
d="M657 1540l-137 248l4 20h160l94 -145l158 145h174l-4 -20l-242 -248h-207zM418 143q330 0 330 250q0 131 -181 213l-114 51q-115 51 -181 137t-65 193q0 195 139 316t379 120q193 0 354 -108l-84 -152q-161 86 -295 86t-214 -63t-80 -183t137 -182l127 -57
q276 -125 276 -335t-144 -335t-371 -125t-413 133l91 152q147 -111 309 -111z" />
    <glyph glyph-name="scaron" unicode="&#x161;" horiz-adv-x="913" 
d="M481 1186l-135 248l4 20h160l92 -151l158 151h176l-4 -20l-242 -248h-209zM344 127q229 0 229 149q0 82 -116 127l-111 43q-217 84 -217 241t109 244t288 87t332 -74l-67 -149q-139 66 -252 65q-221 0 -222 -147q0 -72 119 -119l109 -41q217 -82 217 -254
q0 -150 -111 -240t-304 -90t-345 90l74 148q123 -80 268 -80z" />
    <glyph glyph-name="Tcommaaccent" unicode="&#x162;" horiz-adv-x="1110" 
d="M555 -227q0 -209 -270 -209q-92 0 -146 28l41 113q53 -23 103 -22q113 0 112 86q1 61 -108 61l-8 20l86 150h-27l260 1223h-399l37 170h983l-35 -170h-398l-260 -1223h-26l-60 -98q51 -8 83 -44t32 -85z" />
    <glyph glyph-name="tcommaaccent" unicode="&#x163;" horiz-adv-x="724" 
d="M414 131q57 0 155 25l-32 -158q-115 -29 -179 -29h-8l-41 -67q51 -8 83 -44t32 -85q0 -209 -270 -209q-92 0 -146 28l41 113q53 -23 103 -22q113 0 112 86q1 61 -108 61l-9 20l82 146q-121 55 -82 237l127 603h-174l23 110l182 41l49 230h185l-50 -230h261l-33 -151h-260
l-125 -588q-27 -117 82 -117z" />
    <glyph glyph-name="Tcaron" unicode="&#x164;" horiz-adv-x="1110" 
d="M653 1540l-137 248l4 20h160l94 -145l158 145h174l-4 -20l-242 -248h-207zM236 1393h983l-37 -170h-396l-260 -1223h-188l260 1223h-399z" />
    <glyph glyph-name="tcaron" unicode="&#x165;" horiz-adv-x="724" 
d="M676 1083l4 21l102 289h189l-4 -21l-146 -289h-145zM414 131q70 0 159 27l-32 -158q-84 -31 -198 -31t-169 67t-27 197l127 603h-174l23 110l182 41l49 230h185l-50 -230h248l-32 -151h-248l-125 -588q-27 -117 82 -117z" />
    <glyph glyph-name="Tbar" unicode="&#x166;" horiz-adv-x="1110" 
d="M922 664h-254l-142 -664h-188l141 664h-252l35 170h252l84 389h-399l37 170h983l-37 -170h-396l-84 -389h254z" />
    <glyph glyph-name="tbar" unicode="&#x167;" horiz-adv-x="727" 
d="M418 131q57 0 155 25l-32 -158q-115 -29 -183 -29q-125 0 -180 67t-26 197l51 246h-146l33 152h146l43 205h-175l23 110l182 41l49 230h185l-49 -230h260l-33 -151h-260l-45 -205h207l-31 -152h-207l-49 -231q-27 -117 82 -117z" />
    <glyph glyph-name="Utilde" unicode="&#x168;" horiz-adv-x="1400" 
d="M811 1790q45 0 125 -41t119 -41q76 0 143 72l41 -103q-111 -117 -201 -116q-45 0 -125 41t-122 40q-70 1 -138 -71l-41 102q104 117 199 117zM342 1393h186l-182 -863q-38 -182 24 -284t236 -103q338 0 422 387l182 863h189l-191 -895q-113 -528 -618 -529
q-266 0 -377 151t-51 429z" />
    <glyph glyph-name="utilde" unicode="&#x169;" horiz-adv-x="1134" 
d="M600 1415q45 0 125 -41t119 -41q76 0 143 72l41 -102q-111 -117 -201 -117q-45 0 -125 41t-122 41q-70 0 -138 -72l-41 102q104 117 199 117zM379 -31q-170 1 -247 101t-36 295l133 622h183l-129 -604q-29 -129 7 -190t154 -61t279 104l158 751h184l-209 -987h-131l-4 90
h-4q-168 -121 -338 -121z" />
    <glyph glyph-name="Umacron" unicode="&#x16a;" horiz-adv-x="1400" 
d="M1182 1591h-535l33 152h532zM342 1393h186l-182 -863q-38 -182 24 -284t236 -103q338 0 422 387l182 863h189l-191 -895q-113 -528 -618 -529q-266 0 -377 151t-51 429z" />
    <glyph glyph-name="umacron" unicode="&#x16b;" horiz-adv-x="1134" 
d="M971 1223h-535l33 151h532zM379 -31q-170 1 -247 101t-36 295l133 622h183l-129 -604q-29 -129 7 -190t154 -61t279 104l158 751h184l-209 -987h-131l-4 90h-4q-168 -121 -338 -121z" />
    <glyph glyph-name="Ubreve" unicode="&#x16c;" horiz-adv-x="1400" 
d="M937 1716q161 0 255 66l51 -101q-125 -119 -327 -119t-277 134l72 86q65 -66 226 -66zM342 1393h186l-182 -863q-38 -182 24 -284t236 -103q338 0 422 387l182 863h189l-191 -895q-113 -528 -618 -529q-266 0 -377 151t-51 429z" />
    <glyph glyph-name="ubreve" unicode="&#x16d;" horiz-adv-x="1134" 
d="M724 1339q161 0 255 66l51 -100q-125 -119 -327 -119t-277 133l72 86q65 -66 226 -66zM379 -31q-170 1 -247 101t-36 295l133 622h183l-129 -604q-29 -129 7 -190t154 -61t279 104l158 751h184l-209 -987h-131l-4 90h-4q-168 -121 -338 -121z" />
    <glyph glyph-name="Uring" unicode="&#x16e;" horiz-adv-x="1400" 
d="M955 1886q190 0 190 -174q0 -88 -69 -148t-163 -60t-142 43q-48 44 -48 133q0 90 69 148t163 58zM846 1675q0 -61 72 -61q50 0 78 26t28 74q0 61 -72 62q-106 -1 -106 -101zM342 1393h186l-182 -863q-38 -182 24 -284t236 -103q338 0 422 387l182 863h189l-191 -895
q-113 -528 -618 -529q-266 0 -377 151t-51 429z" />
    <glyph glyph-name="uring" unicode="&#x16f;" horiz-adv-x="1134" 
d="M742 1497q190 0 190 -174q0 -88 -69 -148q-69 -61 -163 -61t-142 44t-48 133t69 147t163 59zM633 1286q0 -61 72 -61q49 1 77 27t29 73q0 61 -72 61q-106 0 -106 -100zM379 -31q-170 1 -247 101t-36 295l133 622h183l-129 -604q-29 -129 7 -190t154 -61t279 104l158 751
h184l-209 -987h-131l-4 90h-4q-168 -121 -338 -121z" />
    <glyph glyph-name="Uhungarumlaut" unicode="&#x170;" horiz-adv-x="1400" 
d="M1374 1808l-4 -20l-225 -248h-166l4 21l182 247h209zM1034 1808l-4 -20l-225 -248h-166l4 21l182 247h209zM342 1393h186l-182 -863q-38 -182 24 -284t236 -103q338 0 422 387l182 863h189l-191 -895q-113 -528 -618 -529q-266 0 -377 151t-51 429z" />
    <glyph glyph-name="uhungarumlaut" unicode="&#x171;" horiz-adv-x="1134" 
d="M1178 1454l-4 -20l-226 -248h-166l4 20l183 248h209zM838 1454l-4 -20l-226 -248h-166l4 20l183 248h209zM379 -31q-170 1 -247 101t-36 295l133 622h183l-129 -604q-29 -129 7 -190t154 -61t279 104l158 751h184l-209 -987h-131l-4 90h-4q-168 -121 -338 -121z" />
    <glyph glyph-name="Uogonek" unicode="&#x172;" horiz-adv-x="1400" 
d="M540 -436q-84 0 -138 40t-54 122q0 133 170 247q-225 21 -316 169t-38 407l180 844h186l-182 -863q-38 -182 24 -284t236 -103q338 0 422 387l182 863h189l-191 -895q-100 -477 -518 -523q-82 -29 -131 -85t-49 -105q0 -80 76 -80q45 0 127 43l6 -127q-97 -57 -181 -57z
" />
    <glyph glyph-name="uogonek" unicode="&#x173;" horiz-adv-x="1134" 
d="M694 -295q51 0 127 43v-127q-92 -57 -177 -57t-136 43t-51 129q1 86 67 154t199 141l-2 59h-4q-168 -121 -338 -121q-170 1 -247 101t-36 295l133 622h183l-129 -604q-29 -129 7 -190t154 -61t279 104l158 751h184l-209 -987q-236 -109 -235 -229q0 -66 73 -66z" />
    <glyph glyph-name="Wcircumflex" unicode="&#x174;" horiz-adv-x="1955" 
d="M1337 1808l138 -247l-5 -21h-157l-96 146l-158 -146h-174l4 21l244 247h204zM2081 1393l-4 -21l-684 -1372h-193l-96 1163h-4l-588 -1163h-195l-102 1372l4 21h189l57 -1131h4l573 1131h201l92 -1131h4l537 1131h205z" />
    <glyph glyph-name="wcircumflex" unicode="&#x175;" horiz-adv-x="1640" 
d="M1102 1454l137 -248l-4 -20h-160l-94 151l-158 -151h-174l4 20l242 248h207zM1673 987l-4 -20l-532 -967h-181l-98 766h-4l-424 -766h-178l-123 967l4 20h178l78 -747h4l408 747h188l92 -747h4l394 747h194z" />
    <glyph glyph-name="Ycircumflex" unicode="&#x176;" horiz-adv-x="1124" 
d="M920 1808l137 -247l-4 -21h-158l-96 146l-158 -146h-174l4 21l244 247h205zM188 1393h193l209 -627h4l481 627h209l-4 -21l-623 -784l-125 -588h-188l125 588l-285 784z" />
    <glyph glyph-name="ycircumflex" unicode="&#x177;" horiz-adv-x="1017" 
d="M797 1454l137 -248l-4 -20h-160l-94 151l-158 -151h-174l4 20l242 248h207zM25 -436q-66 0 -158 20l27 156q90 -14 135 -14q119 0 204 153l74 131l-186 957l4 20h182l123 -756h6l430 756h191l-4 -20l-662 -1137q-156 -266 -366 -266z" />
    <glyph glyph-name="Ydieresis" unicode="&#x178;" horiz-adv-x="1124" 
d="M989 1554q-94 0 -94 102q0 52 40 91t103 39q96 0 97 -90q0 -62 -41 -102t-105 -40zM547 1554q-94 0 -94 102q0 52 40 91t103 39q96 0 96 -90q0 -62 -41 -102t-104 -40zM188 1393h193l209 -627h4l481 627h209l-4 -21l-623 -784l-125 -588h-188l125 588l-285 784z" />
    <glyph glyph-name="Zacute" unicode="&#x179;" horiz-adv-x="1114" 
d="M1036 1808l-4 -20l-205 -248h-165l4 21l161 247h209zM246 170h680l-37 -170h-926l33 152l903 1067v4h-639l35 170h891l-33 -152l-907 -1067v-4z" />
    <glyph glyph-name="zacute" unicode="&#x17a;" horiz-adv-x="911" 
d="M864 1454l-4 -20l-225 -248h-166l4 20l182 248h209zM244 152h481l-33 -152h-731l23 106l634 725v5h-452l33 151h702l-22 -106l-635 -725v-4z" />
    <glyph glyph-name="Zdotaccent" unicode="&#x17b;" horiz-adv-x="1114" 
d="M780 1554q-94 0 -94 102q0 52 40 91t103 39q96 0 97 -90q0 -62 -41 -102t-105 -40zM246 170h680l-37 -170h-926l33 152l903 1067v4h-639l35 170h891l-33 -152l-907 -1067v-4z" />
    <glyph glyph-name="zdotaccent" unicode="&#x17c;" horiz-adv-x="911" 
d="M598 1182q-94 0 -94 101q0 52 40 91t103 39q98 0 98 -90q-1 -61 -41 -101t-106 -40zM244 152h481l-33 -152h-731l23 106l634 725v5h-452l33 151h702l-22 -106l-635 -725v-4z" />
    <glyph glyph-name="Zcaron" unicode="&#x17d;" horiz-adv-x="1114" 
d="M672 1540l-137 248l4 20h159l95 -145l157 145h174l-4 -20l-241 -248h-207zM246 170h680l-37 -170h-926l33 152l903 1067v4h-639l35 170h891l-33 -152l-907 -1067v-4z" />
    <glyph glyph-name="zcaron" unicode="&#x17e;" horiz-adv-x="911" 
d="M496 1186l-136 248l5 20h159l92 -151l158 151h176l-4 -20l-241 -248h-209zM244 152h481l-33 -152h-731l23 106l634 725v5h-452l33 151h702l-22 -106l-635 -725v-4z" />
    <glyph glyph-name="florin" unicode="&#x192;" 
d="M39 -436q-68 0 -133 12l33 164q57 -14 123 -14t111 32q46 32 77 113l282 735h-202l59 152h205l131 344q66 172 160 247t243 74q59 0 134 -12l-33 -164q-164 34 -238 -17q-47 -32 -78 -114l-137 -358h246l-59 -152h-244l-279 -721q-66 -173 -158 -247t-243 -74z" />
    <glyph glyph-name="Aringacute" unicode="&#x1fa;" horiz-adv-x="1269" 
d="M1171 1968l-4 -16l-202 -201h-164l4 16l160 201h206zM737 1460q0 -61 72 -61q49 1 78 27t28 73q0 61 -71 62q-107 -1 -107 -101zM768 1171h-4l-369 -663h463zM614 1461q0 93 69 151t163 59q94 0 142 -43t48 -115q0 -139 -121 -198l207 -1315h-188l-47 348h-588l-197 -348
h-202l770 1325q-56 43 -56 136z" />
    <glyph glyph-name="aringacute" unicode="&#x1fb;" horiz-adv-x="1177" 
d="M516 1245q0 86 68 141q68 56 161 56t141 -41t48 -125t-68 -141t-161 -57t-141 40q-48 41 -48 127zM637 1241q0 -59 72 -59q104 0 104 96q0 57 -70 57q-106 0 -106 -94zM401 -31q-165 0 -245 109q-80 108 -80 278q0 374 221 562q119 100 291 100t317 -121h4l41 90h129
l-168 -797q-6 -28 1 -40t44 -13h54l-31 -145q-66 -16 -102 -17q-125 0 -140 115h-4q-166 -121 -332 -121zM634 856q-285 0 -350 -321q-15 -76 -16 -154q0 -250 199 -250q135 1 270 105l113 532q-102 88 -216 88zM1051 1722l-2 -16l-193 -201h-154l3 17l149 200h197z" />
    <glyph glyph-name="AEacute" unicode="&#x1fc;" horiz-adv-x="1849" 
d="M1722 1808l-4 -20l-205 -248h-165l4 21l161 247h209zM975 1157h-4l-504 -649h369zM-145 0l4 20l1112 1373h923l-36 -170h-682l-91 -428h619l-37 -170h-618l-97 -455h688l-34 -170h-879l76 348h-463l-277 -348h-208z" />
    <glyph glyph-name="aeacute" unicode="&#x1fd;" horiz-adv-x="1671" 
d="M1290 1454l-4 -20l-225 -248h-166l4 20l182 248h209zM1419 674q0 84 -52 135q-53 51 -157 51t-189 -76t-118 -202h500q16 49 16 92zM537 434q-197 0 -265 -44t-67 -138q0 -121 145 -121q106 0 210 80q103 80 134 223h-157zM1096 129q130 0 288 90l64 -143
q-182 -106 -383 -107q-248 0 -322 211q-180 -211 -442 -211q-123 0 -202 76t-79 186q0 193 127 274t373 81h205l12 55q48 215 -202 215q-129 0 -279 -84l-57 137q172 109 370 109q242 0 310 -150q158 150 344 150t276 -97t90 -239q0 -94 -57 -248h-660q-26 -135 34 -220
t190 -85z" />
    <glyph glyph-name="Oslashacute" unicode="&#x1fe;" horiz-adv-x="1478" 
d="M1231 1808l-4 -20l-205 -248h-166l4 21l162 247h209zM326 507q0 -95 30 -177l740 852q-80 68 -216 68t-240 -55q-104 -54 -164 -133q-58 -79 -94 -185q-36 -107 -46 -191t-10 -179zM1204 908q0 76 -30 157l-740 -854q78 -68 201 -68q569 1 569 765zM129 490
q0 376 174 639q88 134 242 214q153 80 353 80t323 -98l112 131l105 -88l-125 -143q86 -135 86 -338q0 -283 -110 -512q-195 -403 -677 -405q-180 0 -305 96l-108 -125l-107 84l123 143q-86 130 -86 322z" />
    <glyph glyph-name="oslashacute" unicode="&#x1ff;" horiz-adv-x="1177" 
d="M264 398q0 -70 12 -115l512 530q-59 43 -154 43t-173 -44t-119 -116q-42 -72 -60 -150t-18 -148zM877 566q0 85 -13 128l-510 -526q49 -37 135 -37q135 0 226 74q90 74 126 175t36 186zM74 364q0 262 135 450q67 92 183 148t270 56t253 -72l99 103l100 -97l-104 -108
q57 -100 57 -228q0 -256 -139 -443q-70 -93 -187 -148t-267 -55t-247 67l-100 -105l-92 101l98 102q-59 97 -59 229zM1024 1454l-4 -20l-225 -248h-166l4 20l182 248h209z" />
    <glyph glyph-name="Scommaaccent" unicode="&#x218;" horiz-adv-x="1081" 
d="M180 -446l4 20l103 289h188l-4 -21l-145 -288h-146zM418 143q330 0 330 250q0 131 -181 213l-114 51q-115 51 -181 137t-65 193q0 195 139 316t379 120q193 0 354 -108l-84 -152q-161 86 -295 86t-214 -63t-80 -183t137 -182l127 -57q276 -125 276 -335t-144 -335
t-371 -125t-413 133l91 152q147 -111 309 -111z" />
    <glyph glyph-name="scommaaccent" unicode="&#x219;" horiz-adv-x="913" 
d="M115 -446l4 20l102 289h189l-4 -21l-146 -288h-145zM344 127q229 0 229 149q0 82 -116 127l-111 43q-217 84 -217 241t109 244t288 87t332 -74l-67 -149q-139 66 -252 65q-221 0 -222 -147q0 -72 119 -119l109 -41q217 -82 217 -254q0 -150 -111 -240t-304 -90t-345 90
l74 148q123 -80 268 -80z" />
    <glyph glyph-name="uni021A" unicode="&#x21a;" horiz-adv-x="1110" 
d="M199 -446l4 20l102 289h189l-5 -21l-145 -288h-145zM236 1393h983l-37 -170h-396l-260 -1223h-188l260 1223h-399z" />
    <glyph glyph-name="uni021B" unicode="&#x21b;" horiz-adv-x="724" 
d="M55 -446l4 20l103 289h188l-4 -21l-145 -288h-146zM414 131q70 0 159 27l-32 -158q-84 -31 -198 -31t-169 67t-27 197l127 603h-174l23 110l182 41l49 230h185l-50 -230h248l-32 -151h-248l-125 -588q-27 -117 82 -117z" />
    <glyph glyph-name="dotlessj" unicode="&#x237;" horiz-adv-x="493" 
d="M-152 -436q-80 0 -149 18l33 158q56 -14 120 -14t101 34t53 115l236 1112h184l-240 -1128q-63 -295 -338 -295z" />
    <glyph glyph-name="circumflex" unicode="&#x2c6;" horiz-adv-x="1183" 
d="M1004 1454l137 -248l-4 -20h-160l-94 151l-158 -151h-174l4 20l242 248h207z" />
    <glyph glyph-name="caron" unicode="&#x2c7;" horiz-adv-x="1183" 
d="M739 1186l-135 248l4 20h160l92 -151l158 151h176l-4 -20l-242 -248h-209z" />
    <glyph glyph-name="uni02C9" unicode="&#x2c9;" horiz-adv-x="1183" 
d="M1118 1243h-534l32 152h533z" />
    <glyph glyph-name="breve" unicode="&#x2d8;" horiz-adv-x="1183" 
d="M867 1339q161 0 255 66l52 -100q-125 -119 -327 -119t-278 133l72 86q65 -66 226 -66z" />
    <glyph glyph-name="dotaccent" unicode="&#x2d9;" horiz-adv-x="1185" 
d="M842 1182q-94 0 -94 101q0 52 39 91q40 39 104 39q98 0 98 -90q0 -61 -41 -101t-106 -40z" />
    <glyph glyph-name="ring" unicode="&#x2da;" horiz-adv-x="1183" 
d="M889 1497q190 0 190 -174q-1 -88 -69 -148q-68 -61 -162 -61t-142 44t-49 133q0 89 69 147t163 59zM780 1286q0 -61 72 -61q49 1 78 27t28 73q0 61 -71 61q-107 0 -107 -100z" />
    <glyph glyph-name="ogonek" unicode="&#x2db;" horiz-adv-x="1185" 
d="M536 -436q-84 0 -138 40t-54 122q0 125 143 227q61 42 195 117l61 -62q-119 -72 -177 -125t-58 -110q0 -68 76 -68q45 0 127 43l6 -127q-97 -57 -181 -57z" />
    <glyph glyph-name="tilde" unicode="&#x2dc;" horiz-adv-x="1183" 
d="M750 1415q44 0 124 -41t119 -41q76 0 144 72l41 -102q-111 -117 -201 -117q-45 0 -125 41t-123 41q-69 0 -137 -72l-41 102q104 117 199 117z" />
    <glyph glyph-name="hungarumlaut" unicode="&#x2dd;" horiz-adv-x="1185" 
d="M1241 1454l-4 -20l-225 -248h-166l4 20l182 248h209zM901 1454l-4 -20l-225 -248h-166l4 20l182 248h209z" />
    <glyph glyph-name="tonos" unicode="&#x384;" horiz-adv-x="1183" 
d="M1094 1454l-7 -20l-161 -289h-142l4 20l121 289h185z" />
    <glyph glyph-name="dieresistonos" unicode="&#x385;" horiz-adv-x="1185" 
d="M1199 1372q108 0 108 -100q0 -51 -41 -91t-107 -40q-94 0 -94 101q0 52 40 91t94 39zM1077 1454l-4 -20l-162 -289h-135l4 20l121 289h176zM632 1372q108 0 108 -100q0 -51 -42 -91q-41 -40 -106 -40q-94 0 -94 101q0 52 40 91t94 39z" />
    <glyph glyph-name="Alphatonos" unicode="&#x386;" horiz-adv-x="1312" 
d="M530 1393l-4 -21l-153 -289h-144l4 21l111 289h186zM813 1171h-4l-369 -663h463zM948 1393l219 -1393h-188l-47 348h-588l-197 -348h-202l811 1393h192z" />
    <glyph glyph-name="anoteleia" unicode="&#x387;" horiz-adv-x="534" 
d="M286 727q116 0 116 -115q0 -59 -47 -105q-46 -46 -115 -46q-105 1 -105 115q0 60 46 105q45 46 105 46z" />
    <glyph glyph-name="Epsilontonos" unicode="&#x388;" horiz-adv-x="1388" 
d="M446 1393l-4 -21l-153 -289h-144l5 21l110 289h186zM565 1393h871l-37 -170h-682l-92 -428h618l-35 -170h-618l-98 -455h690l-37 -170h-877z" />
    <glyph glyph-name="Etatonos" unicode="&#x389;" horiz-adv-x="1624" 
d="M446 1393l-4 -21l-153 -289h-144l5 21l110 289h186zM1128 0l134 625h-672l-133 -625h-189l297 1393h187l-127 -598h673l127 598h189l-297 -1393h-189z" />
    <glyph glyph-name="Iotatonos" unicode="&#x38a;" horiz-adv-x="763" 
d="M446 1393l-4 -21l-153 -289h-144l5 21l110 289h186zM752 1393l-295 -1393h-189l297 1393h187z" />
    <glyph glyph-name="Omicrontonos" unicode="&#x38c;" horiz-adv-x="1615" 
d="M451 1393l-5 -21l-153 -289h-143l4 21l110 289h187zM266 508q0 358 174 621q88 134 242 214t354 80q248 0 374 -146t126 -409t-110 -493q-122 -255 -364 -352q-132 -53 -294 -54q-248 1 -375 147t-127 392zM1341 877q0 172 -76 272q-77 100 -231 100t-258 -54t-162 -133
t-105 -214q-46 -135 -46 -319q0 -384 321 -386q111 0 200 34t146 84q149 131 195 407q16 104 16 209z" />
    <glyph glyph-name="Upsilontonos" unicode="&#x38e;" horiz-adv-x="1495" 
d="M465 1393l-4 -21l-154 -289h-143l4 21l111 289h186zM559 1393h193l209 -627h4l481 627h209l-4 -21l-623 -784l-125 -588h-188l125 588l-285 784z" />
    <glyph glyph-name="Omegatonos" unicode="&#x38f;" horiz-adv-x="1636" 
d="M457 1393l-4 -21l-154 -289h-143l4 21l110 289h187zM1364 893q0 156 -77 256t-237 100t-269 -61q-110 -60 -168 -160q-115 -197 -113 -420q0 -283 196 -446l-32 -162h-492l37 170h291q-80 72 -136 194t-56 264t46 279q107 313 373 444q147 73 303 73q287 -1 409 -159
q122 -157 122 -385t-113 -411q-113 -184 -291 -299h250l-37 -170h-489l34 162q223 137 336 310t113 421z" />
    <glyph glyph-name="iotadieresistonos" unicode="&#x390;" horiz-adv-x="546" 
d="M722 1372q108 0 108 -100q0 -51 -42 -91q-41 -40 -106 -40q-94 0 -94 101q0 52 40 91t94 39zM600 1454l-4 -20l-162 -289h-135l4 20l121 289h176zM154 1372q108 0 108 -100q0 -51 -41 -91t-106 -40q-95 0 -95 101q0 52 40 91t94 39zM336 131q48 0 80 12l-23 -157
q-66 -16 -141 -17q-225 0 -164 287l156 731h182l-158 -745q-12 -63 4 -87t64 -24z" />
    <glyph glyph-name="Alpha" unicode="&#x391;" horiz-adv-x="1267" 
d="M768 1171h-4l-369 -663h463zM903 1393l219 -1393h-188l-47 348h-588l-197 -348h-202l811 1393h192z" />
    <glyph glyph-name="Beta" unicode="&#x392;" horiz-adv-x="1265" 
d="M664 784q182 0 259 60t76 221q0 90 -58 124t-185 34h-246l-94 -439h248zM786 1393q416 0 416 -295q0 -140 -75 -246t-179 -145l-2 -5q176 -61 176 -262q0 -200 -137 -320t-381 -120h-543l297 1393h428zM600 170q162 0 245 64t83 212q0 168 -236 168h-311l-96 -444h315z
" />
    <glyph glyph-name="Gamma" unicode="&#x393;" horiz-adv-x="1056" 
d="M250 0h-189l297 1393h809l-34 -170h-623z" />
    <glyph glyph-name="uni0394" unicode="&#x394;" horiz-adv-x="1265" 
d="M768 1171h-4l-569 -1001h716zM1118 10l-2 -10h-1214l2 10l805 1383h192z" />
    <glyph glyph-name="Epsilon" unicode="&#x395;" horiz-adv-x="1181" 
d="M358 1393h871l-37 -170h-682l-92 -428h618l-35 -170h-618l-98 -455h690l-37 -170h-877z" />
    <glyph glyph-name="Zeta" unicode="&#x396;" horiz-adv-x="1114" 
d="M246 170h680l-37 -170h-926l33 152l903 1067v4h-639l35 170h891l-33 -152l-907 -1067v-4z" />
    <glyph glyph-name="Eta" unicode="&#x397;" horiz-adv-x="1417" 
d="M922 0l133 625h-672l-133 -625h-189l297 1393h187l-127 -598h674l127 598h188l-297 -1393h-188z" />
    <glyph glyph-name="Theta" unicode="&#x398;" horiz-adv-x="1478" 
d="M129 508q0 358 174 621q88 134 242 214t354 80q248 0 374 -146t126 -409t-110 -493q-122 -255 -364 -352q-132 -53 -294 -54q-248 1 -375 147t-127 392zM1204 877q0 172 -77 272t-230 100t-257 -54t-164 -133q-58 -79 -104 -214t-46 -319q0 -384 321 -386q111 0 200 34
t146 84q149 131 195 407q16 104 16 209zM993 625h-489l35 170h491z" />
    <glyph glyph-name="Iota" unicode="&#x399;" horiz-adv-x="557" 
d="M545 1393l-295 -1393h-189l297 1393h187z" />
    <glyph glyph-name="Kappa" unicode="&#x39a;" 
d="M389 635h-4l-135 -635h-189l297 1393h187l-146 -684h4l691 684h231l-4 -21l-725 -710l465 -642l-4 -20h-215z" />
    <glyph glyph-name="Lambda" unicode="&#x39b;" horiz-adv-x="1243" 
d="M743 1133l-639 -1133h-202l796 1393h193l205 -1393h-189l-159 1133h-5z" />
    <glyph glyph-name="Mu" unicode="&#x39c;" horiz-adv-x="1665" 
d="M821 582h4l639 811h191l-297 -1393h-187l222 1047h-4l-535 -697h-137l-242 697h-4l-221 -1047h-189l297 1393h166z" />
    <glyph glyph-name="Nu" unicode="&#x39d;" horiz-adv-x="1435" 
d="M997 287h4l236 1106h188l-297 -1393h-194l-445 1106h-4l-235 -1106h-189l297 1393h191z" />
    <glyph glyph-name="Xi" unicode="&#x39e;" horiz-adv-x="1163" 
d="M1169 1206h-911l41 187h909zM979 616h-776l41 187h776zM41 186h917l-38 -186h-918z" />
    <glyph glyph-name="Omicron" unicode="&#x39f;" horiz-adv-x="1478" 
d="M129 508q0 358 174 621q88 134 242 214t354 80q248 0 374 -146t126 -409t-110 -493q-122 -255 -364 -352q-132 -53 -294 -54q-248 1 -375 147t-127 392zM1204 877q0 172 -77 272t-230 100t-257 -54t-164 -133q-58 -79 -104 -214t-46 -319q0 -384 321 -386q111 0 200 34
t146 84q149 131 195 407q16 104 16 209z" />
    <glyph glyph-name="Pi" unicode="&#x3a0;" horiz-adv-x="1417" 
d="M922 0l260 1223h-672l-260 -1223h-189l297 1393h1049l-297 -1393h-188z" />
    <glyph glyph-name="Rho" unicode="&#x3a1;" horiz-adv-x="1210" 
d="M680 707q168 0 248 91t80 232q0 193 -217 193h-281l-111 -516h281zM821 1393q193 0 290 -89t97 -243q0 -240 -133 -382t-395 -142h-318l-112 -537h-189l297 1393h463z" />
    <glyph glyph-name="Sigma" unicode="&#x3a3;" horiz-adv-x="1142" 
d="M-37 0l33 150l493 559l-231 532l33 152h921l-34 -170h-725l245 -531l-462 -522h716l-34 -170h-955z" />
    <glyph glyph-name="Tau" unicode="&#x3a4;" horiz-adv-x="1110" 
d="M236 1393h983l-37 -170h-396l-260 -1223h-188l260 1223h-399z" />
    <glyph glyph-name="Upsilon" unicode="&#x3a5;" horiz-adv-x="1124" 
d="M188 1393h193l209 -627h4l481 627h209l-4 -21l-623 -784l-125 -588h-188l125 588l-285 784z" />
    <glyph glyph-name="Phi" unicode="&#x3a6;" horiz-adv-x="1587" 
d="M1339 791q0 281 -346 311l-172 -807q279 21 399 157t119 339zM301 598q0 -279 332 -303l172 807q-135 -10 -233 -50t-150 -89q-51 -49 -80 -120t-35 -123t-6 -122zM1536 803q0 -277 -188 -465t-562 -207l-28 -131h-189l29 131q-256 23 -375 143t-119 310q0 266 158 453
q82 97 230 157t348 70l26 129h189l-29 -129q258 -23 384 -146t126 -315z" />
    <glyph glyph-name="Chi" unicode="&#x3a7;" horiz-adv-x="1183" 
d="M231 1393h191l209 -568h4l452 568h213l-4 -21l-561 -676l273 -676l-4 -20h-193l-211 565h-4l-449 -565h-213l5 20l559 676l-273 676z" />
    <glyph glyph-name="Psi" unicode="&#x3a8;" horiz-adv-x="1464" 
d="M997 1393l-192 -901q328 2 405 366l113 535h188l-127 -592q-102 -481 -616 -484l-68 -317h-188l68 317q-262 15 -356 151t-40 398l111 527h188l-112 -535q-76 -358 245 -366l193 901h188z" />
    <glyph glyph-name="uni03A9" unicode="&#x3a9;" horiz-adv-x="1484" 
d="M156 628q0 142 47 279t136 254t236 190t303 73q289 -1 410 -159q121 -157 121 -385t-113 -411q-113 -184 -290 -299h249l-36 -170h-490l35 162q223 137 336 310t112 421q0 156 -76 256t-236 100t-270 -61q-110 -60 -168 -160q-114 -196 -114 -420q0 -283 197 -446
l-33 -162h-492l37 170h291q-80 72 -136 194t-56 264z" />
    <glyph glyph-name="Iotadieresis" unicode="&#x3aa;" horiz-adv-x="557" 
d="M702 1554q-94 0 -94 102q0 52 40 91t104 39q96 0 96 -90q0 -62 -41 -102t-105 -40zM260 1554q-94 0 -94 102q0 52 40 91t103 39q96 0 97 -90q0 -62 -41 -102t-105 -40zM545 1393l-295 -1393h-189l297 1393h187z" />
    <glyph glyph-name="Upsilondieresis" unicode="&#x3ab;" horiz-adv-x="1124" 
d="M989 1554q-94 0 -94 102q0 52 40 91t103 39q96 0 97 -90q0 -62 -41 -102t-105 -40zM547 1554q-94 0 -94 102q0 52 40 91t103 39q96 0 96 -90q0 -62 -41 -102t-104 -40zM188 1393h193l209 -627h4l481 627h209l-4 -21l-623 -784l-125 -588h-188l125 588l-285 784z" />
    <glyph glyph-name="alphatonos" unicode="&#x3ac;" horiz-adv-x="1228" 
d="M983 1454l-6 -20l-162 -289h-141l4 20l121 289h184zM592 856q-150 0 -225 -113t-90 -219t-15 -159q0 -233 176 -234q106 0 205 103q98 104 166 260q-6 160 -58 261t-159 101zM74 360q0 371 232 559q124 99 298 99q256 0 311 -275h3l116 244h189l-246 -491l35 -496h-178
l-5 244h-2q-162 -274 -401 -275q-174 0 -263 111q-89 110 -89 280z" />
    <glyph glyph-name="epsilontonos" unicode="&#x3ad;" horiz-adv-x="983" 
d="M453 430q-99 0 -161 -43t-63 -127q0 -129 215 -129q166 0 342 68l31 -154q-163 -76 -369 -76t-311 71q-104 71 -104 187q0 213 231 289v4q-102 57 -102 170q0 147 111 238q113 90 313 90t352 -72l-49 -143q-154 53 -295 53q-244 0 -244 -168q0 -53 42 -80t106 -26h252
l-31 -152h-266zM930 1454l-6 -20l-162 -289h-141l4 20l120 289h185z" />
    <glyph glyph-name="etatonos" unicode="&#x3ae;" horiz-adv-x="1150" 
d="M952 1454l-6 -20l-162 -289h-141l4 20l121 289h184zM723 1018q174 0 254 -102t39 -298l-219 -1024h-185l215 1010q55 252 -159 252q-70 0 -153 -33t-138 -71l-160 -752h-184l209 987h133l2 -90h4q168 121 342 121z" />
    <glyph glyph-name="iotatonos" unicode="&#x3af;" horiz-adv-x="546" 
d="M621 1454l-7 -20l-161 -289h-142l4 20l121 289h185zM338 131q48 0 80 12l-23 -157q-66 -16 -141 -17q-225 0 -164 287l156 731h182l-158 -745q-12 -63 4 -87t64 -24z" />
    <glyph glyph-name="upsilondieresistonos" unicode="&#x3b0;" horiz-adv-x="1126" 
d="M479 131q346 0 346 549q0 178 -22 307h198q12 -127 13 -272q0 -369 -140 -557t-411 -189q-211 0 -304 119t-44 352l116 547h183l-115 -543q-66 -313 180 -313zM895 1454l-6 -20l-162 -289h-141l4 20l121 289h184z" />
    <glyph glyph-name="alpha" unicode="&#x3b1;" horiz-adv-x="1228" 
d="M592 856q-150 0 -225 -113t-90 -219t-15 -159q0 -233 176 -234q106 0 205 103q98 104 166 260q-6 160 -58 261t-159 101zM74 360q0 371 232 559q124 99 298 99q256 0 311 -275h3l116 244h189l-246 -491l35 -496h-178l-5 244h-2q-162 -274 -401 -275q-174 0 -263 111
q-89 110 -89 280z" />
    <glyph glyph-name="beta" unicode="&#x3b2;" horiz-adv-x="1165" 
d="M504 131q156 0 250 90q92 90 92 240q0 215 -262 215h-82l33 151h90q119 0 185 82q66 81 67 179q0 98 -44 146q-43 48 -139 48t-162 -68t-102 -225l-164 -772q82 -86 238 -86zM717 1444q168 0 260 -90t92 -226q0 -256 -256 -372v-4q92 -29 157 -104t64 -195
q0 -215 -156 -350q-156 -134 -350 -134t-292 82h-5l-96 -457h-188l299 1410q92 440 471 440z" />
    <glyph glyph-name="gamma" unicode="&#x3b3;" horiz-adv-x="1009" 
d="M373 -406h-185l88 416l-149 957l4 20h176l101 -768h4q287 350 440 768h190l-4 -20q-162 -422 -577 -961z" />
    <glyph glyph-name="delta" unicode="&#x3b4;" horiz-adv-x="1161" 
d="M481 131q178 0 274 110q95 110 95 236t-80 215q-46 51 -68 73t-88 77q-365 -182 -364 -475q0 -102 56 -169t175 -67zM813 1282q-195 0 -195 -135q0 -66 149 -198q63 -53 125 -117t105 -152t43 -180t-34 -182q-81 -213 -283 -300q-115 -49 -256 -49q-205 0 -306 111
t-102 270q0 397 463 594q-90 90 -90 186q0 152 108 233t289 81q103 0 191 -27l-14 -164q-90 29 -193 29z" />
    <glyph glyph-name="epsilon" unicode="&#x3b5;" horiz-adv-x="983" 
d="M453 430q-99 0 -161 -43t-63 -127q0 -129 215 -129q166 0 342 68l31 -154q-163 -76 -369 -76t-311 71q-104 71 -104 187q0 213 231 289v4q-102 57 -102 170q0 147 111 238q113 90 313 90t352 -72l-49 -143q-154 53 -295 53q-244 0 -244 -168q0 -53 42 -80t106 -26h252
l-31 -152h-266z" />
    <glyph glyph-name="zeta" unicode="&#x3b6;" horiz-adv-x="913" 
d="M240 367q0 -68 44 -114t107 -72q63 -27 127 -53t108 -74t44 -117q0 -172 -224 -297l-102 108q129 78 129 154q0 38 -44 66t-107 54q-64 26 -126 60t-107 102q-44 68 -44 162q0 164 125 320t485 501l38 38q13 13 36 33t41 40v4h-496l33 152h750l-27 -125
q-502 -483 -646 -649t-144 -293z" />
    <glyph glyph-name="eta" unicode="&#x3b7;" horiz-adv-x="1150" 
d="M723 1018q174 0 254 -102t39 -298l-219 -1024h-185l215 1010q55 252 -159 252q-70 0 -153 -33t-138 -71l-160 -752h-184l209 987h133l2 -90h4q168 121 342 121z" />
    <glyph glyph-name="theta" unicode="&#x3b8;" horiz-adv-x="1212" 
d="M512 131q281 0 399 485h-600q-20 -123 -20 -200q0 -285 221 -285zM758 1282q-156 0 -255 -132t-161 -382h602q25 141 27 223q6 291 -213 291zM1151 1036q0 -180 -33 -336q-76 -358 -226 -544t-405 -187q-184 0 -279 112t-96 288t33 344q76 356 227 543t408 188
q184 0 278 -114t93 -294z" />
    <glyph glyph-name="iota" unicode="&#x3b9;" horiz-adv-x="546" 
d="M338 131q48 0 80 12l-23 -157q-66 -16 -141 -17q-225 0 -164 287l156 731h182l-158 -745q-12 -63 4 -87t64 -24z" />
    <glyph glyph-name="kappa" unicode="&#x3ba;" horiz-adv-x="1009" 
d="M313 444h-4l-94 -444h-182l209 987h182l-102 -479h4l489 479h223l-4 -14l-530 -508l348 -451l-2 -14h-205z" />
    <glyph glyph-name="lambda" unicode="&#x3bb;" horiz-adv-x="1017" 
d="M379 1282q-43 0 -105 -14l13 155q61 21 155 21q183 1 228 -268l184 -1156l-6 -20h-174l-107 758h-6l-450 -758h-193l4 20l594 957l-27 186q-16 119 -110 119z" />
    <glyph glyph-name="uni03BC" unicode="&#x3bc;" horiz-adv-x="1146" 
d="M451 131q113 0 282 105l162 751h184l-211 -987h-131l-4 90h-4q-174 -121 -338 -121q-49 0 -96 22t-72 52l-94 -449h-184l297 1393h182l-139 -655q-43 -201 166 -201z" />
    <glyph glyph-name="nu" unicode="&#x3bd;" horiz-adv-x="1011" 
d="M1042 987l-4 -20q-158 -416 -583 -967h-176l-152 967l4 20h176l96 -768h5q293 358 444 768h190z" />
    <glyph glyph-name="xi" unicode="&#x3be;" horiz-adv-x="952" 
d="M434 1282h-180l33 152h792l-32 -152h-287q-162 0 -251 -87t-89 -206q0 -86 57 -145t174 -60h178l-32 -151h-162q-207 0 -298 -84t-91 -197q0 -68 52 -112t126 -66t148 -46t127 -70q52 -46 53 -115q0 -174 -230 -303l-104 110q137 78 137 152q0 64 -129 96t-245 94
q-56 31 -93 89t-37 138q0 143 90 251t232 157v4q-59 25 -102 98q-42 74 -42 160q0 199 205 289v4z" />
    <glyph glyph-name="omicron" unicode="&#x3bf;" horiz-adv-x="1177" 
d="M1067 612q0 -252 -139 -439q-70 -93 -187 -148t-266 -56q-201 0 -301 114t-100 290q0 254 135 441q67 92 183 148t265 56q205 0 307 -114t103 -292zM264 385q0 -254 225 -254q135 0 226 74q162 133 162 393q-1 118 -57 188t-168 70q-296 0 -369 -309q-19 -78 -19 -162z
" />
    <glyph glyph-name="pi" unicode="&#x3c0;" horiz-adv-x="1236" 
d="M953 131q46 0 83 12l-35 -157q-61 -16 -122 -17q-104 0 -155 68q-50 68 -19 209l124 590h-344l-178 -836h-184l178 836h-192l32 151h1098l-33 -151h-192l-127 -594q-12 -63 4 -87t62 -24z" />
    <glyph glyph-name="rho" unicode="&#x3c1;" horiz-adv-x="1159" 
d="M656 1018q194 0 293 -113t100 -289q-1 -260 -143 -454t-398 -193q-184 0 -287 92h-4l-98 -467h-189l199 930q53 254 193 374t334 120zM458 131q296 0 378 308q20 79 20 179t-53 168q-53 70 -166 70q-250 1 -320 -321l-65 -308q88 -96 206 -96z" />
    <glyph glyph-name="sigma1" unicode="&#x3c2;" horiz-adv-x="931" 
d="M647 856q-168 0 -272 -133t-105 -277q0 -74 44 -129t108 -90t126 -69q64 -34 108 -86q44 -53 44 -125q0 -180 -223 -307l-104 110q131 76 131 158q0 43 -44 78q-44 36 -106 68t-126 73q-62 41 -106 117t-44 176q0 250 159 424t420 174q154 0 289 -72l-57 -143
q-115 53 -242 53z" />
    <glyph glyph-name="sigma" unicode="&#x3c3;" horiz-adv-x="1191" 
d="M262 379q0 -248 227 -248q133 0 224 70q161 125 159 374q0 115 -57 183t-169 68q-216 -1 -306 -150q-78 -129 -78 -297zM944 831q115 -79 115 -288q0 -210 -135 -383q-68 -86 -184 -138t-265 -53q-203 0 -303 111t-100 285q0 246 134 426q66 90 182 143t263 53h535
l-33 -151h-209v-5z" />
    <glyph glyph-name="tau" unicode="&#x3c4;" horiz-adv-x="933" 
d="M532 131q63 0 156 25l-22 -158q-115 -29 -199 -29q-258 0 -201 271l127 596h-293l33 151h815l-33 -151h-337l-125 -588q-27 -117 79 -117z" />
    <glyph glyph-name="upsilon" unicode="&#x3c5;" horiz-adv-x="1126" 
d="M479 131q346 0 346 549q0 178 -22 307h198q12 -127 13 -272q0 -369 -140 -557t-411 -189q-211 0 -304 119t-44 352l116 547h183l-115 -543q-66 -313 180 -313z" />
    <glyph glyph-name="phi" unicode="&#x3c6;" horiz-adv-x="1386" 
d="M1094 645q0 211 -134 211q-72 0 -111 -62q-40 -62 -71 -202l-98 -465q414 55 414 518zM260 400q0 -246 236 -275l102 483q86 410 387 410q143 0 221 -97t78 -239q0 -273 -130 -466q-69 -100 -198 -164t-307 -75l-82 -383h-184l82 383q-203 23 -297 133t-94 271
q-1 241 241 606h201q-256 -341 -256 -587z" />
    <glyph glyph-name="chi" unicode="&#x3c7;" horiz-adv-x="1003" 
d="M111 987h174l172 -551h4l405 551h193l-4 -20l-510 -676l221 -676l-4 -21h-174l-172 549h-6l-404 -549h-192l4 21l508 676l-222 676z" />
    <glyph glyph-name="psi" unicode="&#x3c8;" horiz-adv-x="1417" 
d="M1309 690q0 -360 -168 -537t-467 -178l-80 -381h-184l79 381q-221 6 -321 127t-53 349l114 536h183l-115 -543q-33 -156 27 -236t198 -81l279 1307h182l-276 -1307q184 0 299 130t114 396q0 180 -35 334h195q29 -143 29 -297z" />
    <glyph glyph-name="omega" unicode="&#x3c9;" horiz-adv-x="1683" 
d="M1565 621q0 -301 -133 -477t-377 -175q-215 0 -289 195h-4q-145 -195 -359 -195q-155 -1 -243 95t-88 278q0 344 278 645h205l-4 -20q-141 -154 -217 -297t-76 -310q0 -229 168 -229q227 0 293 313l61 291h185l-62 -291q-66 -313 158 -313q159 0 237 131t78 330t-86 375
l6 20h185q37 -68 61 -172t23 -194z" />
    <glyph glyph-name="iotadieresis" unicode="&#x3ca;" horiz-adv-x="546" 
d="M584 1182q-95 0 -95 101q0 52 40 91t104 39q96 0 96 -90q0 -61 -41 -101t-104 -40zM182 1182q-94 0 -94 101q0 52 40 91t103 39q98 0 99 -90q0 -61 -41 -101t-107 -40zM338 131q48 0 80 12l-23 -157q-66 -16 -141 -17q-225 0 -164 287l156 731h182l-158 -745
q-12 -63 4 -87t64 -24z" />
    <glyph glyph-name="upsilondieresis" unicode="&#x3cb;" horiz-adv-x="1126" 
d="M883 1182q-95 0 -95 101q0 52 40 91t104 39q96 0 96 -90q0 -61 -41 -101t-104 -40zM481 1182q-94 0 -94 101q0 52 40 91t103 39q98 0 99 -90q0 -61 -41 -101t-107 -40zM479 131q346 0 346 549q0 178 -22 307h198q12 -127 13 -272q0 -369 -140 -557t-411 -189
q-211 0 -304 119t-44 352l116 547h183l-115 -543q-66 -313 180 -313z" />
    <glyph glyph-name="omicrontonos" unicode="&#x3cc;" horiz-adv-x="1177" 
d="M967 1454l-6 -20l-162 -289h-142l5 20l120 289h185zM1067 612q0 -252 -139 -439q-70 -93 -187 -148t-266 -56q-201 0 -301 114t-100 290q0 254 135 441q67 92 183 148t265 56q205 0 307 -114t103 -292zM264 385q0 -254 225 -254q135 0 226 74q162 133 162 393
q-1 118 -57 188t-168 70q-296 0 -369 -309q-19 -78 -19 -162z" />
    <glyph glyph-name="upsilontonos" unicode="&#x3cd;" horiz-adv-x="1126" 
d="M479 131q346 0 346 549q0 178 -22 307h198q12 -127 13 -272q0 -369 -140 -557t-411 -189q-211 0 -304 119t-44 352l116 547h183l-115 -543q-66 -313 180 -313zM897 1454l-6 -20l-162 -289h-141l4 20l121 289h184z" />
    <glyph glyph-name="omegatonos" unicode="&#x3ce;" horiz-adv-x="1683" 
d="M1229 1454l-6 -20l-162 -289h-141l4 20l120 289h185zM1565 621q0 -301 -133 -477t-377 -175q-215 0 -289 195h-4q-145 -195 -359 -195q-155 -1 -243 95t-88 278q0 344 278 645h205l-4 -20q-141 -154 -217 -297t-76 -310q0 -229 168 -229q227 0 293 313l61 291h185
l-62 -291q-66 -313 158 -313q159 0 237 131t78 330t-86 375l6 20h185q37 -68 61 -172t23 -194z" />
    <glyph glyph-name="uni0400" unicode="&#x400;" horiz-adv-x="1181" 
d="M662 1788l4 20h192l55 -247l-4 -21h-149zM358 1393h871l-37 -170h-682l-92 -428h618l-35 -170h-618l-98 -455h690l-37 -170h-877z" />
    <glyph glyph-name="uni0401" unicode="&#x401;" horiz-adv-x="1181" 
d="M1047 1554q-95 0 -95 102q0 52 40 91t104 39q96 0 96 -90q0 -62 -41 -102t-104 -40zM604 1554q-94 0 -94 102q0 52 40 91t103 39q96 0 97 -90q0 -62 -41 -102t-105 -40zM358 1393h871l-37 -170h-682l-92 -428h618l-35 -170h-618l-98 -455h690l-37 -170h-877z" />
    <glyph glyph-name="uni0402" unicode="&#x402;" horiz-adv-x="1398" 
d="M1087 453q0 102 -58 158q-58 57 -174 57t-310 -56l-129 -612h-189l260 1223h-297l37 170h910l-35 -170h-428l-92 -441q178 56 342 56t264 -96t100 -259q0 -204 -134 -387q-68 -92 -130 -158t-164 -159l-117 119q344 317 344 555z" />
    <glyph glyph-name="uni0403" unicode="&#x403;" horiz-adv-x="1118" 
d="M1114 1808l-4 -20l-205 -248h-166l4 21l162 247h209zM358 1393h871l-37 -170h-682l-260 -1223h-189z" />
    <glyph glyph-name="uni0404" unicode="&#x404;" horiz-adv-x="1210" 
d="M129 522q0 389 215 645t576 256q176 0 344 -90l-62 -149q-131 66 -299 65q-223 0 -360 -127t-189 -338h613l-35 -170h-604q-2 -29 -2 -84q0 -182 85 -284t255 -102t329 65l39 -150q-209 -90 -383 -90q-252 -1 -387 151t-135 402z" />
    <glyph glyph-name="uni0405" unicode="&#x405;" horiz-adv-x="1081" 
d="M418 143q330 0 330 250q0 131 -181 213l-114 51q-115 51 -181 137t-65 193q0 195 139 316t379 120q193 0 354 -108l-84 -152q-161 86 -295 86t-214 -63t-80 -183t137 -182l127 -57q276 -125 276 -335t-144 -335t-371 -125t-413 133l91 152q147 -111 309 -111z" />
    <glyph glyph-name="uni0406" unicode="&#x406;" horiz-adv-x="557" 
d="M545 1393l-295 -1393h-189l297 1393h187z" />
    <glyph glyph-name="uni0407" unicode="&#x407;" horiz-adv-x="557" 
d="M702 1554q-94 0 -94 102q0 52 40 91t104 39q96 0 96 -90q0 -62 -41 -102t-105 -40zM260 1554q-94 0 -94 102q0 52 40 91t103 39q96 0 97 -90q0 -62 -41 -102t-105 -40zM545 1393l-295 -1393h-189l297 1393h187z" />
    <glyph glyph-name="uni0408" unicode="&#x408;" horiz-adv-x="919" 
d="M240 -31q-182 0 -295 150l100 131q90 -106 211 -107q207 0 274 314l199 936h189l-209 -977q-45 -215 -166 -331t-303 -116z" />
    <glyph glyph-name="uni0409" unicode="&#x409;" horiz-adv-x="1953" 
d="M1315 170q336 0 336 309q0 188 -230 189h-297l-104 -498h295zM1456 838q188 0 290 -89t103 -245q0 -232 -140 -368t-390 -136h-524l260 1223h-447l-121 -471q-96 -369 -173 -519q-44 -86 -84 -136q-76 -95 -200 -110q-50 -7 -128 -7l37 170q69 0 105 13t82 70t87 181
t96 338l164 641h807l-119 -555h295z" />
    <glyph glyph-name="uni040A" unicode="&#x40a;" horiz-adv-x="2002" 
d="M1364 170q336 0 336 309q0 188 -230 189h-296l-105 -498h295zM1505 838q189 0 291 -89t102 -245q0 -232 -140 -368t-390 -136h-524l143 668h-596l-141 -668h-189l297 1393h187l-117 -555h594l119 555h188l-119 -555h295z" />
    <glyph glyph-name="uni040B" unicode="&#x40b;" horiz-adv-x="1431" 
d="M934 786q-117 0 -363 -59l-155 -727h-187l260 1223h-299l37 170h910l-35 -170h-426l-68 -322q190 55 374 55t280 -102t53 -303l-117 -551h-186l112 535q29 129 -22 190t-168 61z" />
    <glyph glyph-name="uni040C" unicode="&#x40c;" 
d="M1116 1808l-4 -20l-205 -248h-166l4 21l162 247h209zM389 635h-4l-135 -635h-189l297 1393h187l-146 -684h4l691 684h231l-4 -21l-725 -710l465 -642l-4 -20h-215z" />
    <glyph glyph-name="uni040D" unicode="&#x40d;" horiz-adv-x="1415" 
d="M741 1788l4 20h193l55 -247l-4 -21h-149zM301 293h4l887 1100h213l-297 -1393h-188l243 1102h-4l-883 -1102h-215l297 1393h187z" />
    <glyph glyph-name="uni040E" unicode="&#x40e;" horiz-adv-x="1116" 
d="M828 1716q161 0 255 66l52 -101q-125 -119 -327 -119t-278 134l72 86q65 -66 226 -66zM125 0h-96l37 172h57q96 0 157 33q60 33 123 131l48 72l-246 964l6 21h188l179 -779h6l471 779h202l-4 -21l-667 -1063q-109 -173 -205 -241t-256 -68z" />
    <glyph glyph-name="uni040F" unicode="&#x40f;" horiz-adv-x="1396" 
d="M586 -289h-146l43 289h-422l297 1393h187l-260 -1223h653l260 1223h188l-296 -1393h-426z" />
    <glyph glyph-name="uni0410" unicode="&#x410;" horiz-adv-x="1267" 
d="M768 1171h-4l-369 -663h463zM903 1393l219 -1393h-188l-47 348h-588l-197 -348h-202l811 1393h192z" />
    <glyph glyph-name="uni0411" unicode="&#x411;" horiz-adv-x="1243" 
d="M582 170q336 0 336 309q0 188 -230 189h-297l-106 -498h297zM723 838q189 0 291 -89t102 -245q0 -232 -141 -368t-389 -136h-525l297 1393h869l-37 -170h-680l-82 -385h295z" />
    <glyph glyph-name="uni0412" unicode="&#x412;" horiz-adv-x="1265" 
d="M664 784q182 0 259 60t76 221q0 90 -58 124t-185 34h-246l-94 -439h248zM786 1393q416 0 416 -295q0 -140 -75 -246t-179 -145l-2 -5q176 -61 176 -262q0 -200 -137 -320t-381 -120h-543l297 1393h428zM600 170q162 0 245 64t83 212q0 168 -236 168h-311l-96 -444h315z
" />
    <glyph glyph-name="uni0413" unicode="&#x413;" horiz-adv-x="1118" 
d="M358 1393h871l-37 -170h-682l-260 -1223h-189z" />
    <glyph glyph-name="uni0414" unicode="&#x414;" horiz-adv-x="1384" 
d="M242 170h645l223 1053h-453l-122 -435q-75 -262 -139 -396t-154 -222zM8 -289h-147l71 459h99q115 115 186 246q72 131 141 385l162 592h815l-260 -1223h123l-123 -459h-147l45 289h-889z" />
    <glyph glyph-name="uni0415" unicode="&#x415;" horiz-adv-x="1181" 
d="M358 1393h871l-37 -170h-682l-92 -428h618l-35 -170h-618l-98 -455h690l-37 -170h-877z" />
    <glyph glyph-name="uni0416" unicode="&#x416;" horiz-adv-x="1865" 
d="M852 635h-4l-690 -635h-248l4 20l748 682l-433 670l4 21h205l426 -684h4l146 684h188l-145 -684h4l684 684h237l-4 -21l-725 -710l465 -642l-4 -20h-217l-453 635h-4l-135 -635h-188z" />
    <glyph glyph-name="uni0417" unicode="&#x417;" horiz-adv-x="1105" 
d="M553 795q151 -1 229 79t78 176t-53 148q-53 51 -156 51q-172 0 -362 -71l-45 153q200 92 406 92t308 -88t102 -232q0 -145 -79 -247q-80 -102 -188 -154v-4q161 -68 161 -270t-162 -330q-162 -129 -394 -129q-230 0 -416 105l75 153q152 -84 323 -84t275 79t105 216
q0 186 -254 187h-232l37 170h242z" />
    <glyph glyph-name="uni0418" unicode="&#x418;" horiz-adv-x="1415" 
d="M301 293h4l887 1100h213l-297 -1393h-188l243 1102h-4l-883 -1102h-215l297 1393h187z" />
    <glyph glyph-name="uni0419" unicode="&#x419;" horiz-adv-x="1415" 
d="M968 1716q161 0 255 66l51 -101q-125 -119 -327 -119t-277 134l71 86q66 -66 227 -66zM301 293h4l887 1100h213l-297 -1393h-188l243 1102h-4l-883 -1102h-215l297 1393h187z" />
    <glyph glyph-name="uni041A" unicode="&#x41a;" 
d="M389 635h-4l-135 -635h-189l297 1393h187l-146 -684h4l691 684h231l-4 -21l-725 -710l465 -642l-4 -20h-215z" />
    <glyph glyph-name="uni041B" unicode="&#x41b;" horiz-adv-x="1370" 
d="M877 0l258 1223h-527l-121 -471q-103 -401 -202 -581q-82 -148 -230 -179q-57 -12 -153 -12l37 170q69 0 105 13t82 70t87 181t96 338l164 641h887l-297 -1393h-186z" />
    <glyph glyph-name="uni041C" unicode="&#x41c;" horiz-adv-x="1665" 
d="M821 582h4l639 811h191l-297 -1393h-187l222 1047h-4l-535 -697h-137l-242 697h-4l-221 -1047h-189l297 1393h166z" />
    <glyph glyph-name="uni041D" unicode="&#x41d;" horiz-adv-x="1417" 
d="M922 0l133 625h-672l-133 -625h-189l297 1393h187l-127 -598h674l127 598h188l-297 -1393h-188z" />
    <glyph glyph-name="uni041E" unicode="&#x41e;" horiz-adv-x="1478" 
d="M129 508q0 358 174 621q88 134 242 214t354 80q248 0 374 -146t126 -409t-110 -493q-122 -255 -364 -352q-132 -53 -294 -54q-248 1 -375 147t-127 392zM1204 877q0 172 -77 272t-230 100t-257 -54t-164 -133q-58 -79 -104 -214t-46 -319q0 -384 321 -386q111 0 200 34
t146 84q149 131 195 407q16 104 16 209z" />
    <glyph glyph-name="uni041F" unicode="&#x41f;" horiz-adv-x="1417" 
d="M922 0l260 1223h-672l-260 -1223h-189l297 1393h1049l-297 -1393h-188z" />
    <glyph glyph-name="uni0420" unicode="&#x420;" horiz-adv-x="1210" 
d="M680 707q168 0 248 91t80 232q0 193 -217 193h-281l-111 -516h281zM821 1393q193 0 290 -89t97 -243q0 -240 -133 -382t-395 -142h-318l-112 -537h-189l297 1393h463z" />
    <glyph glyph-name="uni0421" unicode="&#x421;" horiz-adv-x="1214" 
d="M129 522q0 389 215 645t576 256q176 0 344 -90l-62 -149q-131 66 -290 66q-310 -1 -453 -223q-135 -205 -133 -497q0 -182 85 -284t255 -102t329 65l39 -150q-209 -90 -383 -90q-252 -1 -387 151t-135 402z" />
    <glyph glyph-name="uni0422" unicode="&#x422;" horiz-adv-x="1110" 
d="M236 1393h983l-37 -170h-396l-260 -1223h-188l260 1223h-399z" />
    <glyph glyph-name="uni0423" unicode="&#x423;" horiz-adv-x="1116" 
d="M125 0h-96l37 172h57q96 0 157 33q60 33 123 131l48 72l-246 964l6 21h188l179 -779h6l471 779h202l-4 -21l-667 -1063q-109 -173 -205 -241t-256 -68z" />
    <glyph glyph-name="uni0424" unicode="&#x424;" horiz-adv-x="1587" 
d="M1339 791q0 281 -346 311l-172 -807q279 21 399 157t119 339zM301 598q0 -279 332 -303l172 807q-135 -10 -233 -50t-150 -89q-51 -49 -80 -120t-35 -123t-6 -122zM1536 803q0 -277 -188 -465t-562 -207l-28 -131h-189l29 131q-256 23 -375 143t-119 310q0 266 158 453
q82 97 230 157t348 70l26 129h189l-29 -129q258 -23 384 -146t126 -315z" />
    <glyph glyph-name="uni0425" unicode="&#x425;" horiz-adv-x="1183" 
d="M231 1393h191l209 -568h4l452 568h213l-4 -21l-561 -676l273 -676l-4 -20h-193l-211 565h-4l-449 -565h-213l5 20l559 676l-273 676z" />
    <glyph glyph-name="uni0426" unicode="&#x426;" horiz-adv-x="1435" 
d="M1126 -289h-147l45 289h-963l297 1393h187l-260 -1223h653l260 1223h188l-260 -1223h123z" />
    <glyph glyph-name="uni0427" unicode="&#x427;" horiz-adv-x="1282" 
d="M552 545q116 0 363 59l168 789h189l-297 -1393h-189l93 430q-190 -55 -374 -55t-280 102t-53 301l131 615h186l-127 -596q-30 -129 22 -191t168 -61z" />
    <glyph glyph-name="uni0428" unicode="&#x428;" horiz-adv-x="2039" 
d="M1733 0h-1672l297 1393h187l-260 -1223h553l260 1223h190l-260 -1223h553l258 1223h189z" />
    <glyph glyph-name="uni0429" unicode="&#x429;" horiz-adv-x="2076" 
d="M1767 -289h-145l45 289h-1606l297 1393h187l-260 -1223h553l260 1223h190l-260 -1223h553l258 1223h189l-261 -1223h125z" />
    <glyph glyph-name="uni042A" unicode="&#x42a;" horiz-adv-x="1366" 
d="M727 170q336 0 336 309q0 188 -232 189h-294l-107 -498h297zM868 838q188 0 290 -89t104 -245q0 -232 -142 -368t-389 -136h-524l260 1223h-281l37 170h467l-117 -555h295z" />
    <glyph glyph-name="uni042B" unicode="&#x42b;" horiz-adv-x="1695" 
d="M582 170q336 0 336 309q0 188 -230 189h-297l-106 -498h297zM723 838q189 0 291 -89t102 -245q0 -232 -141 -368t-389 -136h-525l297 1393h187l-117 -555h295zM1683 1393l-294 -1393h-189l297 1393h186z" />
    <glyph glyph-name="uni042C" unicode="&#x42c;" horiz-adv-x="1220" 
d="M582 170q336 0 336 309q0 188 -230 189h-297l-106 -498h297zM723 838q189 0 291 -89t102 -245q0 -232 -141 -368t-389 -136h-525l297 1393h187l-117 -555h295z" />
    <glyph glyph-name="uni042D" unicode="&#x42d;" horiz-adv-x="1216" 
d="M1137 870q0 -389 -215 -645t-576 -256q-176 0 -344 90l61 150q131 -66 299 -66q223 0 361 129q137 129 188 340h-612l35 170h604q2 29 2 80q0 182 -85 284t-255 103q-170 0 -330 -65l-39 149q209 90 383 90q252 1 388 -151t135 -402z" />
    <glyph glyph-name="uni042E" unicode="&#x42e;" horiz-adv-x="2015" 
d="M1741 877q0 172 -77 272q-76 100 -230 100t-258 -54t-162 -133t-106 -216q-46 -137 -46 -318q0 -383 322 -385q308 0 445 242q93 164 110 403q2 43 2 89zM666 508q0 39 4 117h-287l-133 -625h-189l297 1393h187l-127 -598h278q64 272 234 440q188 188 506 188
q248 0 374 -146t125 -410q0 -264 -109 -492q-122 -254 -365 -352q-132 -53 -294 -54q-249 1 -375 147t-126 392z" />
    <glyph glyph-name="uni042F" unicode="&#x42f;" horiz-adv-x="1304" 
d="M651 748h318l100 475h-317q-154 0 -239 -79t-85 -210q0 -88 57 -137t166 -49zM229 911q1 225 143 353t386 129h534l-295 -1393h-188l123 578h-238l-536 -578h-209l6 33l526 555q-119 35 -185 118t-67 205z" />
    <glyph glyph-name="uni0430" unicode="&#x430;" horiz-adv-x="1177" 
d="M401 -31q-165 0 -245 109q-80 108 -80 278q0 374 221 562q119 100 291 100t317 -121h4l41 90h129l-168 -797q-6 -28 1 -40t44 -13h54l-31 -145q-66 -16 -102 -17q-125 0 -140 115h-4q-166 -121 -332 -121zM634 856q-285 0 -350 -321q-15 -76 -16 -154q0 -250 199 -250
q135 1 270 105l113 532q-102 88 -216 88z" />
    <glyph glyph-name="uni0431" unicode="&#x431;" horiz-adv-x="1202" 
d="M889 514q1 109 -63 172t-177 64q-164 0 -267 -104t-103 -267q0 -111 63 -179t174 -69q156 -1 264 111t109 272zM711 911q170 0 270 -103t100 -269q1 -240 -159 -405t-418 -165q-195 0 -300 114q-106 114 -106 297t111 515q69 209 185 319t308 166q94 29 300 53t225 27
l-37 -172q-29 -4 -188 -19t-279 -55q-289 -96 -379 -440l4 -4q66 59 165 100t198 41z" />
    <glyph glyph-name="uni0432" unicode="&#x432;" horiz-adv-x="1046" 
d="M512 578q123 0 174 36t51 125q0 53 -39 75t-129 22h-178l-53 -258h174zM592 987q342 0 342 -219q0 -98 -53 -167t-136 -97v-2q63 -23 101 -74t39 -121q0 -307 -412 -307h-440l209 987h350zM469 152q227 0 227 170q0 109 -166 108h-225l-59 -278h223z" />
    <glyph glyph-name="uni0433" unicode="&#x433;" horiz-adv-x="899" 
d="M242 987h688l-31 -151h-508l-176 -836h-182z" />
    <glyph glyph-name="uni0434" unicode="&#x434;" horiz-adv-x="1146" 
d="M236 156h444l143 680h-321l-72 -252q-90 -322 -194 -428zM20 -246h-131l58 402h86q152 143 227 432l109 399h669l-178 -831h109l-113 -402h-131l35 246h-672z" />
    <glyph glyph-name="uni0435" unicode="&#x435;" horiz-adv-x="1091" 
d="M614 860q-110 0 -198 -76t-123 -202h524q16 49 17 92q0 84 -54 135q-56 51 -166 51zM254 377q0 -250 262 -250q136 0 291 92l63 -143q-182 -106 -390 -106t-308 116q-100 117 -100 295q0 253 156 445t407 192q186 0 280 -99t94 -227t-57 -258h-692q-6 -25 -6 -57z" />
    <glyph glyph-name="uni0436" unicode="&#x436;" horiz-adv-x="1527" 
d="M643 444h-2l-494 -444h-231l2 14l549 488l-324 471l2 14h197l313 -479h2l103 479h182l-100 -479h4l487 479h223l-4 -14l-528 -504l346 -455l-2 -14h-203l-334 444h-4l-94 -444h-184z" />
    <glyph glyph-name="uni0437" unicode="&#x437;" horiz-adv-x="952" 
d="M469 582q82 0 138 38t57 117q0 119 -172 119q-123 0 -304 -57l-28 151q162 68 342 68t268 -68t88 -172t-54 -175t-136 -99v-4q121 -57 120 -187q0 -158 -126 -251t-346 -93q-222 0 -341 74l56 150q123 -61 301 -62q272 0 272 186q0 113 -155 113h-252l30 152h242z" />
    <glyph glyph-name="uni0438" unicode="&#x438;" horiz-adv-x="1155" 
d="M264 270h4l613 717h206l-210 -987h-183l162 717h-4l-612 -717h-207l209 987h182z" />
    <glyph glyph-name="uni0439" unicode="&#x439;" horiz-adv-x="1155" 
d="M264 270h4l613 717h206l-210 -987h-183l162 717h-4l-612 -717h-207l209 987h182zM740 1339q161 0 255 66l52 -100q-125 -119 -327 -119t-278 133l72 86q65 -66 226 -66z" />
    <glyph glyph-name="uni043A" unicode="&#x43a;" horiz-adv-x="1003" 
d="M313 444h-4l-94 -444h-182l209 987h182l-102 -479h4l489 479h223l-4 -14l-528 -504l346 -455l-2 -14h-205z" />
    <glyph glyph-name="uni043B" unicode="&#x43b;" horiz-adv-x="1130" 
d="M672 0l178 836h-379l-84 -314q-47 -176 -94 -284t-107 -162t-121 -72q-60 -18 -155 -18l33 157q49 1 79 11q75 26 131 165q32 80 64 211l119 457h727l-209 -987h-182z" />
    <glyph glyph-name="uni043C" unicode="&#x43c;" horiz-adv-x="1353" 
d="M637 446h4l461 541h184l-209 -987h-182l143 670h-4l-358 -422h-139l-177 422h-4l-141 -670h-182l209 987h166z" />
    <glyph glyph-name="uni043D" unicode="&#x43d;" horiz-adv-x="1150" 
d="M692 0l90 422h-479l-88 -422h-182l209 987h182l-86 -409h477l88 409h180l-209 -987h-182z" />
    <glyph glyph-name="uni043E" unicode="&#x43e;" horiz-adv-x="1177" 
d="M1067 612q0 -252 -139 -439q-70 -93 -187 -148t-266 -56q-201 0 -301 114t-100 290q0 254 135 441q67 92 183 148t265 56q205 0 307 -114t103 -292zM264 385q0 -254 225 -254q135 0 226 74q162 133 162 393q-1 118 -57 188t-168 70q-296 0 -369 -309q-19 -78 -19 -162z
" />
    <glyph glyph-name="uni043F" unicode="&#x43f;" horiz-adv-x="1150" 
d="M692 0l178 836h-479l-176 -836h-182l209 987h841l-209 -987h-182z" />
    <glyph glyph-name="uni0440" unicode="&#x440;" horiz-adv-x="1169" 
d="M502 131q267 0 344 318q18 78 18 174q0 97 -50 165t-173 68t-264 -106l-115 -533q92 -86 240 -86zM714 1018q173 0 258 -115t85 -284q-1 -169 -55 -312t-175 -240t-291 -97t-303 100h-4l-100 -476h-184l297 1393h129l2 -90h4q164 121 337 121z" />
    <glyph glyph-name="uni0441" unicode="&#x441;" horiz-adv-x="978" 
d="M74 381q0 273 162 455t423 182q152 0 287 -72l-55 -143q-115 53 -244 53q-170 0 -275 -140t-106 -310q0 -117 56 -196t178 -79q121 0 258 53l37 -143q-166 -72 -318 -72q-190 0 -297 114q-106 114 -106 298z" />
    <glyph glyph-name="uni0442" unicode="&#x442;" horiz-adv-x="888" 
d="M139 987h785l-33 -151h-303l-176 -836h-183l179 836h-302z" />
    <glyph glyph-name="uni0443" unicode="&#x443;" horiz-adv-x="1017" 
d="M25 -436q-66 0 -158 20l27 156q90 -14 135 -14q119 0 204 153l74 131l-186 957l4 20h182l123 -756h6l430 756h191l-4 -20l-662 -1137q-156 -266 -366 -266z" />
    <glyph glyph-name="uni0444" unicode="&#x444;" horiz-adv-x="1744" 
d="M1324 1018q152 0 232 -108q78 -108 78 -274q0 -370 -215 -562q-117 -104 -289 -104t-272 81h-4l-98 -457h-185l99 457h-4q-123 -82 -277 -82q-153 0 -233 108q-80 107 -80 273t49 312t166 251t289 105t274 -80h4l105 496h184l-105 -496h5q125 80 277 80zM266 366
q0 -236 191 -235q128 0 245 78l123 582q-79 65 -223 65t-240 -127t-96 -363zM1106 131q146 0 242 127q96 126 96 362t-189 236q-132 0 -245 -78l-125 -581q75 -66 221 -66z" />
    <glyph glyph-name="uni0445" unicode="&#x445;" horiz-adv-x="1003" 
d="M471 383h-4l-328 -383h-200l4 20l424 474l-224 473l4 20h181l166 -385h4l327 385h203l-4 -20l-424 -473l223 -474l-6 -20h-180z" />
    <glyph glyph-name="uni0446" unicode="&#x446;" horiz-adv-x="1175" 
d="M887 -246h-129l35 246h-760l209 987h182l-178 -835h463l178 835h182l-178 -835h108z" />
    <glyph glyph-name="uni0447" unicode="&#x447;" horiz-adv-x="1030" 
d="M366 266q-146 0 -224 79q-77 79 -46 220l90 422h181l-88 -416q-33 -150 149 -149q123 0 240 39l110 526h183l-209 -987h-183l66 307q-123 -41 -269 -41z" />
    <glyph glyph-name="uni0448" unicode="&#x448;" horiz-adv-x="1628" 
d="M1350 0h-1317l209 987h182l-178 -835h387l178 835h180l-176 -835h383l178 835h185z" />
    <glyph glyph-name="uni0449" unicode="&#x449;" horiz-adv-x="1667" 
d="M1378 -246h-133l37 246h-1249l209 987h182l-178 -835h387l178 835h180l-176 -835h383l178 835h185l-179 -835h109z" />
    <glyph glyph-name="uni044A" unicode="&#x44a;" horiz-adv-x="1097" 
d="M561 152q104 0 163 51q58 51 58 139q0 123 -155 123h-213l-68 -313h215zM655 616q154 0 237 -68t83 -183q1 -173 -105 -269t-305 -96h-432l178 836h-209l33 151h389l-78 -371h209z" />
    <glyph glyph-name="uni044B" unicode="&#x44b;" horiz-adv-x="1388" 
d="M1112 0h-184l209 987h184zM463 152q106 0 163 50q56 50 56 138q0 125 -154 125h-215l-65 -313h215zM555 616q154 0 238 -68t84 -183q-1 -173 -107 -269t-305 -96h-432l209 987h182l-78 -371h209z" />
    <glyph glyph-name="uni044C" unicode="&#x44c;" horiz-adv-x="999" 
d="M463 152q106 0 163 50q56 50 56 138q0 125 -154 125h-215l-65 -313h215zM555 616q154 0 238 -68t84 -183q-1 -173 -107 -269t-305 -96h-432l209 987h182l-78 -371h209z" />
    <glyph glyph-name="uni044D" unicode="&#x44d;" horiz-adv-x="985" 
d="M874 600q0 -272 -162 -447t-444 -176q-145 0 -276 66l59 143q113 -49 241 -49t231 80t130 201h-440l31 151h436q10 133 -51 207t-187 74t-260 -49l-39 145q160 63 303 64q200 0 314 -110t114 -300z" />
    <glyph glyph-name="uni044E" unicode="&#x44e;" horiz-adv-x="1628" 
d="M715 385q0 -254 225 -254q135 0 225 74q162 133 162 393q0 118 -56 188q-57 70 -169 70q-293 0 -369 -309q-18 -78 -18 -162zM1518 612q0 -253 -140 -439q-70 -93 -186 -148t-266 -56q-401 0 -402 453h-221l-88 -422h-182l209 987h182l-86 -409h211q49 196 189 318
t358 122t320 -114t102 -292z" />
    <glyph glyph-name="uni044F" unicode="&#x44f;" horiz-adv-x="1091" 
d="M567 831q-100 0 -161 -51q-62 -52 -62 -118t42 -101t118 -35h239l64 305h-240zM569 987h455l-209 -987h-184l78 371h-162l-393 -371h-203l4 23l389 360q-195 61 -194 248q0 166 107 261q108 95 312 95z" />
    <glyph glyph-name="uni0450" unicode="&#x450;" horiz-adv-x="1091" 
d="M530 1434l5 20h192l76 -248l-4 -20h-150zM614 860q-110 0 -198 -76t-123 -202h524q16 49 17 92q0 84 -54 135q-56 51 -166 51zM254 377q0 -250 262 -250q136 0 291 92l63 -143q-182 -106 -390 -106t-308 116q-100 117 -100 295q0 253 156 445t407 192q186 0 280 -99
t94 -227t-57 -258h-692q-6 -25 -6 -57z" />
    <glyph glyph-name="uni0451" unicode="&#x451;" horiz-adv-x="1091" 
d="M901 1182q-94 0 -94 101q0 52 40 91t103 39q96 0 97 -90q0 -61 -41 -101t-105 -40zM500 1182q-94 0 -94 101q0 52 39 91q40 39 104 39q98 0 98 -90q0 -61 -41 -101t-106 -40zM614 860q-110 0 -198 -76t-123 -202h524q16 49 17 92q0 84 -54 135q-56 51 -166 51zM254 377
q0 -250 262 -250q136 0 291 92l63 -143q-182 -106 -390 -106t-308 116q-100 117 -100 295q0 253 156 445t407 192q186 0 280 -99t94 -227t-57 -258h-692q-6 -25 -6 -57z" />
    <glyph glyph-name="uni0452" unicode="&#x452;" horiz-adv-x="1134" 
d="M726 1018q138 0 218 -87t80 -255q0 -233 -116 -475t-314 -533l-139 90q172 252 274 490t102 414q0 195 -165 194q-70 0 -153 -33t-136 -71l-162 -752h-184l241 1141h-122l32 151h123l31 142h184l-31 -142h226l-31 -151h-227l-47 -223h4q174 100 312 100z" />
    <glyph glyph-name="uni0453" unicode="&#x453;" horiz-adv-x="899" 
d="M242 987h688l-31 -151h-508l-176 -836h-182zM946 1454l-4 -20l-225 -248h-166l4 20l182 248h209z" />
    <glyph glyph-name="uni0454" unicode="&#x454;" horiz-adv-x="980" 
d="M74 387q0 271 163 447t443 176q145 0 276 -66l-59 -143q-113 49 -241 49t-230 -80q-104 -80 -131 -201h440l-30 -151h-437q-10 -133 51 -207t187 -74t260 49l39 -145q-158 -63 -303 -64q-201 0 -315 110q-113 110 -113 300z" />
    <glyph glyph-name="uni0455" unicode="&#x455;" horiz-adv-x="913" 
d="M344 127q229 0 229 149q0 82 -116 127l-111 43q-217 84 -217 241t109 244t288 87t332 -74l-67 -149q-139 66 -252 65q-221 0 -222 -147q0 -72 119 -119l109 -41q217 -82 217 -254q0 -150 -111 -240t-304 -90t-345 90l74 148q123 -80 268 -80z" />
    <glyph glyph-name="uni0456" unicode="&#x456;" horiz-adv-x="493" 
d="M375 1182q-94 0 -94 101q0 52 40 91t103 39q98 0 98 -90q0 -61 -42 -101t-105 -40zM215 0h-182l209 987h184z" />
    <glyph glyph-name="uni0457" unicode="&#x457;" horiz-adv-x="491" 
d="M215 0h-184l209 987h184zM573 1182q-94 0 -94 101q0 52 40 91t104 39q96 0 96 -90q0 -61 -41 -101t-105 -40zM172 1182q-94 0 -94 101q0 52 40 91t103 39q98 0 98 -90q-1 -61 -41 -101t-106 -40z" />
    <glyph glyph-name="uni0458" unicode="&#x458;" horiz-adv-x="493" 
d="M375 1182q-94 0 -94 101q0 52 40 91t103 39q98 0 98 -90q0 -61 -42 -101t-105 -40zM-152 -436q-80 0 -149 18l33 158q56 -14 120 -14t101 34t53 115l236 1112h184l-240 -1128q-63 -295 -338 -295z" />
    <glyph glyph-name="uni0459" unicode="&#x459;" horiz-adv-x="1566" 
d="M1028 152q106 0 164 51q57 51 57 139q0 123 -153 123h-213l-68 -313h213zM1124 616q154 0 237 -68t83 -183q0 -173 -106 -269t-304 -96h-434l176 836h-305l-84 -314q-112 -428 -275 -503q-75 -34 -202 -33l33 157q49 1 79 11q75 26 131 165q32 80 64 211l119 457h657
l-80 -371h211z" />
    <glyph glyph-name="uni045A" unicode="&#x45a;" horiz-adv-x="1605" 
d="M1069 152q104 0 162 51q57 51 57 123q0 140 -151 141h-215l-66 -315h213zM1163 616q154 0 237 -68t83 -186q-1 -172 -105 -267t-305 -95h-432l100 467h-428l-98 -467h-182l209 987h182l-78 -371h426l80 371h180l-78 -371h209z" />
    <glyph glyph-name="uni045B" unicode="&#x45b;" horiz-adv-x="1148" 
d="M666 856q-70 0 -153 -33t-138 -71l-160 -752h-184l241 1141h-122l32 151h123l31 142h184l-31 -142h226l-31 -151h-227l-47 -223h4q158 100 320 100t241 -102q80 -102 39 -298l-133 -618h-185l129 604q55 252 -159 252z" />
    <glyph glyph-name="uni045C" unicode="&#x45c;" horiz-adv-x="1003" 
d="M313 444h-4l-94 -444h-182l209 987h182l-102 -479h4l489 479h223l-4 -14l-528 -504l346 -455l-2 -14h-205zM1006 1454l-5 -20l-225 -248h-166l4 20l183 248h209z" />
    <glyph glyph-name="uni045D" unicode="&#x45d;" horiz-adv-x="1155" 
d="M264 270h4l613 717h206l-210 -987h-183l162 717h-4l-612 -717h-207l209 987h182zM532 1434l5 20h192l76 -248l-4 -20h-150z" />
    <glyph glyph-name="uni045E" unicode="&#x45e;" horiz-adv-x="1017" 
d="M652 1339q161 0 255 66l51 -100q-124 -119 -326 -119t-278 133l72 86q65 -66 226 -66zM25 -436q-66 0 -158 20l27 156q90 -14 135 -14q119 0 204 153l74 131l-186 957l4 20h182l123 -756h6l430 756h191l-4 -20l-662 -1137q-156 -266 -366 -266z" />
    <glyph glyph-name="uni045F" unicode="&#x45f;" horiz-adv-x="1136" 
d="M459 -246h-131l34 246h-329l209 987h182l-178 -835h463l178 835h182l-211 -987h-330z" />
    <glyph glyph-name="uni0462" unicode="&#x462;" horiz-adv-x="1419" 
d="M774 170q336 0 336 309q0 188 -231 189h-295l-107 -498h297zM915 838q185 0 289 -90t105 -246q1 -230 -141 -366t-390 -136h-524l229 1079h-299l37 170h297l31 144h188l-30 -144h423l-34 -170h-426l-52 -241h297z" />
    <glyph glyph-name="uni0463" unicode="&#x463;" horiz-adv-x="1103" 
d="M565 152q104 0 162 51q57 51 57 139q0 123 -153 123h-215l-68 -313h217zM657 616q154 0 238 -68t84 -183q-1 -173 -107 -269t-305 -96h-432l178 836h-209l33 151h207l96 449h183l-97 -449h330l-33 -151h-329l-45 -220h208z" />
    <glyph glyph-name="uni0472" unicode="&#x472;" horiz-adv-x="1478" 
d="M883 1249q-416 0 -527 -461h844q4 70 4 89q0 172 -76 272t-245 100zM326 518q0 -172 76 -273t245 -102q430 0 531 475h-848q-4 -37 -4 -100zM129 508q0 358 174 621q88 134 242 214t354 80q248 0 374 -146t126 -409t-110 -493q-122 -255 -364 -352q-132 -53 -294 -54
q-248 1 -375 147t-127 392z" />
    <glyph glyph-name="uni0473" unicode="&#x473;" horiz-adv-x="1177" 
d="M643 856q-268 0 -352 -276h586v18q-1 118 -57 188t-177 70zM489 131q145 0 236 80q90 80 127 207h-588v-33q0 -254 225 -254zM1067 612q0 -252 -139 -439q-70 -93 -187 -148t-266 -56q-201 0 -301 114t-100 290q0 254 135 441q67 92 183 148t265 56q205 0 307 -114
t103 -292z" />
    <glyph glyph-name="uni0474" unicode="&#x474;" horiz-adv-x="1335" 
d="M1477 1423l-39 -174q-66 -1 -106 -25t-83 -98l-645 -1126h-192l-215 1372l4 21h186l158 -1166h4l534 947q82 139 171 194q90 55 223 55z" />
    <glyph glyph-name="uni0475" unicode="&#x475;" horiz-adv-x="1089" 
d="M1128 1010l-34 -160q-47 0 -78 -20t-60 -68l-452 -762h-207l-174 973l2 14h184l121 -788h4l359 618q63 105 139 149t196 44z" />
    <glyph glyph-name="uni0490" unicode="&#x490;" horiz-adv-x="1114" 
d="M1120 1681h146l-74 -458h-682l-260 -1223h-189l297 1393h676z" />
    <glyph glyph-name="uni0491" unicode="&#x491;" horiz-adv-x="897" 
d="M811 1202h145l-57 -366h-508l-176 -836h-182l209 987h501z" />
    <glyph glyph-name="uni0E3F" unicode="&#xe3f;" 
d="M928 1073q0 70 -33 104t-100 42l-93 -433q123 14 175 83q51 69 51 204zM506 1223l-94 -439h153l92 439h-151zM375 614l-94 -444h153l94 444h-153zM844 455q0 83 -44 119t-134 40l-95 -444q141 2 207 71t66 214zM870 1577l-39 -186q297 -25 295 -294q0 -134 -68 -242
t-169 -142l-2 -4q153 -67 153 -267t-128 -321t-377 -121l-48 -221h-137l47 221h-340l297 1393h340l39 184h137z" />
    <glyph glyph-name="Wgrave" unicode="&#x1e80;" horiz-adv-x="1955" 
d="M1020 1788l4 20h193l55 -247l-4 -21h-150zM2081 1393l-4 -21l-684 -1372h-193l-96 1163h-4l-588 -1163h-195l-102 1372l4 21h189l57 -1131h4l573 1131h201l92 -1131h4l537 1131h205z" />
    <glyph glyph-name="wgrave" unicode="&#x1e81;" horiz-adv-x="1640" 
d="M754 1434l4 20h192l76 -248l-4 -20h-150zM1673 987l-4 -20l-532 -967h-181l-98 766h-4l-424 -766h-178l-123 967l4 20h178l78 -747h4l408 747h188l92 -747h4l394 747h194z" />
    <glyph glyph-name="Wacute" unicode="&#x1e82;" horiz-adv-x="1955" 
d="M1475 1808l-5 -20l-204 -248h-166l4 21l162 247h209zM2081 1393l-4 -21l-684 -1372h-193l-96 1163h-4l-588 -1163h-195l-102 1372l4 21h189l57 -1131h4l573 1131h201l92 -1131h4l537 1131h205z" />
    <glyph glyph-name="wacute" unicode="&#x1e83;" horiz-adv-x="1640" 
d="M1243 1454l-4 -20l-225 -248h-166l4 20l182 248h209zM1673 987l-4 -20l-532 -967h-181l-98 766h-4l-424 -766h-178l-123 967l4 20h178l78 -747h4l408 747h188l92 -747h4l394 747h194z" />
    <glyph glyph-name="Wdieresis" unicode="&#x1e84;" horiz-adv-x="1955" 
d="M1405 1554q-94 0 -94 102q0 52 40 91t103 39q96 0 96 -90q0 -62 -41 -102t-104 -40zM963 1554q-95 0 -95 102q0 52 40 91t104 39q96 0 96 -90q0 -62 -41 -102t-104 -40zM2081 1393l-4 -21l-684 -1372h-193l-96 1163h-4l-588 -1163h-195l-102 1372l4 21h189l57 -1131h4
l573 1131h201l92 -1131h4l537 1131h205z" />
    <glyph glyph-name="wdieresis" unicode="&#x1e85;" horiz-adv-x="1640" 
d="M1143 1182q-94 0 -94 101q0 52 40 91t103 39q96 0 96 -90q0 -61 -41 -101t-104 -40zM741 1182q-94 0 -94 101q0 52 40 91t104 39q98 0 98 -90q0 -61 -41 -101t-107 -40zM1673 987l-4 -20l-532 -967h-181l-98 766h-4l-424 -766h-178l-123 967l4 20h178l78 -747h4l408 747
h188l92 -747h4l394 747h194z" />
    <glyph glyph-name="uni1E9E" unicode="&#x1e9e;" horiz-adv-x="1341" 
d="M1227 463q0 -223 -159 -359t-384 -135q-129 0 -231 29l36 170q86 -29 222 -29t229 89q92 89 92 225q0 180 -254 180h-114l24 115l371 444q-102 61 -254 61q-303 0 -393 -419l-179 -834h-186l178 834q127 590 613 589q248 0 428 -145l-27 -123l-328 -381v-4
q141 -4 229 -86t87 -221z" />
    <glyph glyph-name="Ygrave" unicode="&#x1ef2;" horiz-adv-x="1124" 
d="M604 1788l4 20h193l55 -247l-4 -21h-150zM188 1393h193l209 -627h4l481 627h209l-4 -21l-623 -784l-125 -588h-188l125 588l-285 784z" />
    <glyph glyph-name="ygrave" unicode="&#x1ef3;" horiz-adv-x="1017" 
d="M449 1434l4 20h192l76 -248l-4 -20h-150zM25 -436q-66 0 -158 20l27 156q90 -14 135 -14q119 0 204 153l74 131l-186 957l4 20h182l123 -756h6l430 756h191l-4 -20l-662 -1137q-156 -266 -366 -266z" />
    <glyph glyph-name="endash" unicode="&#x2013;" horiz-adv-x="1146" 
d="M977 477h-852l33 152h852z" />
    <glyph glyph-name="emdash" unicode="&#x2014;" horiz-adv-x="1814" 
d="M1645 477h-1520l33 152h1519z" />
    <glyph glyph-name="quoteleft" unicode="&#x2018;" horiz-adv-x="522" 
d="M580 1393l-5 -21l-194 -518h-209l4 20l258 519h146z" />
    <glyph glyph-name="quoteright" unicode="&#x2019;" horiz-adv-x="512" 
d="M182 854l4 20l195 519h209l-4 -21l-258 -518h-146z" />
    <glyph glyph-name="quotesinglbase" unicode="&#x201a;" horiz-adv-x="520" 
d="M-104 -330l4 21l194 518h209l-4 -21l-258 -518h-145z" />
    <glyph glyph-name="quotedblleft" unicode="&#x201c;" horiz-adv-x="880" 
d="M580 1393l-5 -21l-194 -518h-209l4 20l258 519h146zM938 1393l-4 -21l-195 -518h-209l5 20l258 519h145z" />
    <glyph glyph-name="quotedblright" unicode="&#x201d;" horiz-adv-x="870" 
d="M541 854l4 20l194 519h209l-4 -21l-258 -518h-145zM182 854l4 20l195 519h209l-4 -21l-258 -518h-146z" />
    <glyph glyph-name="quotedblbase" unicode="&#x201e;" horiz-adv-x="878" 
d="M254 -330l4 21l195 518h209l-5 -21l-258 -518h-145zM-104 -330l4 21l194 518h209l-4 -21l-258 -518h-145z" />
    <glyph glyph-name="dagger" unicode="&#x2020;" horiz-adv-x="944" 
d="M147 987h340l95 447h145l-94 -447h336l-29 -139h-338l-266 -1254h-146l267 1254h-338z" />
    <glyph glyph-name="daggerdbl" unicode="&#x2021;" horiz-adv-x="1054" 
d="M209 987h340l94 447h145l-94 -447h334l-29 -139h-335l-142 -668h334l-29 -139h-335l-95 -447h-145l94 447h-338l29 139h340l141 668h-338z" />
    <glyph glyph-name="bullet" unicode="&#x2022;" horiz-adv-x="700" 
d="M377 772q153 0 153 -152q0 -76 -61 -138t-154 -62q-141 0 -141 152q0 76 62 138t141 62z" />
    <glyph glyph-name="ellipsis" unicode="&#x2026;" horiz-adv-x="1409" 
d="M1030 -31q-104 -1 -104 115q0 60 46 106t105 46q115 1 115 -105q0 -70 -46 -116t-116 -46zM580 -31q-105 -1 -105 115q0 60 46 106q45 46 105 46t88 -28t28 -88t-47 -105q-46 -46 -115 -46zM127 -31q-104 -1 -104 115q0 60 46 106t105 46q115 1 115 -105q0 -70 -46 -116
t-116 -46z" />
    <glyph glyph-name="perthousand" unicode="&#x2030;" horiz-adv-x="2242" 
d="M1444 434q0 -184 -102 -317t-265 -133q-113 0 -172 76t-59 198q0 184 101 317t265 134q112 0 172 -76t60 -199zM1196 584q-94 0 -148 -94t-55 -238q1 -143 101 -143t151 94q51 93 51 237t-100 144zM772 1130q0 -184 -101 -317t-265 -133q-113 0 -173 76q-59 76 -59 198
q0 184 101 318t266 133q113 0 172 -76t59 -199zM524 1280q-94 0 -148 -94t-54 -238q0 -143 100 -143t151 94q51 93 51 237t-100 144zM293 0h-164l4 20l1190 1373h164l-4 -21zM2132 434q0 -184 -101 -317t-266 -133q-113 0 -172 76t-59 198q0 184 101 317t266 134
q113 0 172 -76t59 -199zM1884 584q-94 0 -148 -94t-55 -238q1 -143 101 -143t151 94q51 93 51 237t-100 144z" />
    <glyph glyph-name="guilsinglleft" unicode="&#x2039;" horiz-adv-x="620" 
d="M82 541l6 24l401 428l103 -92l-322 -362l158 -363l-125 -63z" />
    <glyph glyph-name="guilsinglright" unicode="&#x203a;" horiz-adv-x="620" 
d="M528 565l-6 -24l-401 -428l-103 92l322 362l-158 363l125 63z" />
    <glyph glyph-name="fraction" unicode="&#x2044;" horiz-adv-x="241" 
d="M-369 0h-163l4 20l1190 1373h163l-4 -21z" />
    <glyph glyph-name="zerosuperior" unicode="&#x2070;" horiz-adv-x="716" 
d="M809 1380q0 -184 -101 -317t-266 -133q-113 0 -172 76t-59 198q0 184 101 318t266 133q113 0 172 -76t59 -199zM561 1530q-95 0 -149 -94t-54 -238q0 -143 100 -143t152 94q52 93 52 237t-101 144z" />
    <glyph glyph-name="foursuperior" unicode="&#x2074;" horiz-adv-x="669" 
d="M346 1214h184l50 234h145l-51 -234h84l-27 -120h-82l-31 -148h-145l33 148h-346l22 102l275 442h147l-258 -421v-3z" />
    <glyph glyph-name="fivesuperior" unicode="&#x2075;" horiz-adv-x="614" 
d="M446 1386q231 0 232 -182q0 -126 -93 -200t-225 -74t-223 39l49 123q76 -37 164 -37t130 35t42 96q0 76 -112 76q-72 -1 -154 -5l-14 19l116 362h387l-26 -120h-266l-45 -132h38z" />
    <glyph glyph-name="sixsuperior" unicode="&#x2076;" horiz-adv-x="655" 
d="M588 1192q0 86 -101 86q-71 0 -111 -36t-40 -101q0 -86 104 -86q68 -1 108 35t40 102zM553 1407q86 0 136 -58t50 -143q0 -120 -87 -198t-217 -78t-190 59q-61 59 -61 158t103 219l248 272h161l-4 -10l-221 -233l2 -4q37 16 80 16z" />
    <glyph glyph-name="sevensuperior" unicode="&#x2077;" horiz-adv-x="575" 
d="M569 1518h-325l26 120h490l-23 -104l-397 -588h-156l2 10l383 560v2z" />
    <glyph glyph-name="eightsuperior" unicode="&#x2078;" horiz-adv-x="679" 
d="M508 1366q121 0 121 96q0 68 -86 68q-119 0 -119 -105q0 -59 84 -59zM559 1655q219 0 219 -160q0 -131 -139 -188v-2q94 -45 94 -147t-81 -166q-81 -62 -214 -62t-194 47t-62 125q0 145 170 215v2q-72 37 -72 126t72 149t207 61zM442 1055q147 0 148 114q0 74 -107 74
q-147 0 -147 -117q0 -71 106 -71z" />
    <glyph glyph-name="ninesuperior" unicode="&#x2079;" horiz-adv-x="657" 
d="M373 1393q0 -86 100 -86q72 -1 112 35t40 102q0 86 -105 86q-68 0 -108 -36t-39 -101zM408 1178q-86 0 -137 58q-50 58 -50 142q0 119 87 198q88 79 218 79q130 1 190 -59t60 -158t-102 -219l-248 -273h-162l4 10l221 234l-2 4q-37 -16 -79 -16z" />
    <glyph glyph-name="plussuperior" unicode="&#x207a;" horiz-adv-x="528" 
d="M520 1509l-28 -141h139l-27 -121h-139l-31 -143h-119l31 143h-139l26 121h138l30 141h119z" />
    <glyph glyph-name="minussuperior" unicode="&#x207b;" horiz-adv-x="579" 
d="M631 1247h-398l27 121h397z" />
    <glyph glyph-name="parenleftsuperior" unicode="&#x207d;" horiz-adv-x="372" 
d="M338 1130q0 -164 35 -288l-101 -31q-69 157 -69 349t84 340t188 272l82 -60q-111 -158 -165 -288t-54 -294z" />
    <glyph glyph-name="parenrightsuperior" unicode="&#x207e;" horiz-adv-x="370" 
d="M471 1419q0 -287 -272 -608l-82 57q111 156 166 288t55 292t-37 291l100 33q70 -163 70 -353z" />
    <glyph glyph-name="zeroinferior" unicode="&#x2080;" horiz-adv-x="718" 
d="M557 188q0 -184 -101 -317t-266 -133q-113 0 -172 76t-59 198q0 184 101 318t266 133q113 0 172 -76t59 -199zM309 338q-95 0 -149 -94t-54 -238q0 -143 100 -143t152 94q52 93 52 237t-101 144z" />
    <glyph glyph-name="oneinferior" unicode="&#x2081;" horiz-adv-x="485" 
d="M-18 195h-19l27 137l270 114h107l-148 -692h-143l112 527h-2z" />
    <glyph glyph-name="twoinferior" unicode="&#x2082;" horiz-adv-x="632" 
d="M135 -123h279l-27 -123h-496l23 105l322 239q100 74 100 157t-92 83q-70 0 -170 -76l-66 98q140 102 248 102t170 -50t61 -134t-39 -140t-112 -111l-201 -148v-2z" />
    <glyph glyph-name="threeinferior" unicode="&#x2083;" horiz-adv-x="630" 
d="M188 164q135 0 136 106q0 68 -96 68t-181 -35l-27 113q98 47 217 47t181 -47t63 -123q0 -76 -46 -124t-99 -63v-2q90 -33 90 -138q0 -104 -83 -166t-225 -62t-229 53l54 117q84 -45 178 -45q160 0 160 112q0 66 -119 66h-121l27 123h120z" />
    <glyph glyph-name="fourinferior" unicode="&#x2084;" horiz-adv-x="667" 
d="M92 23h184l50 233h145l-51 -233h84l-27 -121h-82l-30 -148h-146l33 148h-346l22 102l275 442h147l-258 -421v-2z" />
    <glyph glyph-name="fiveinferior" unicode="&#x2085;" horiz-adv-x="616" 
d="M195 195q231 0 231 -183q0 -126 -93 -200t-225 -74t-223 39l49 123q76 -37 164 -37t130 35t42 96q0 76 -112 76q-72 0 -154 -4l-14 18l116 362h388l-27 -120h-266l-45 -131h39z" />
    <glyph glyph-name="sixinferior" unicode="&#x2086;" horiz-adv-x="657" 
d="M336 0q0 86 -100 86q-72 0 -112 -36t-40 -101q0 -86 104 -86q68 -1 108 35t40 102zM301 215q86 0 136 -58t50 -143q0 -120 -87 -198t-217 -78t-190 59q-61 59 -61 158t103 219l248 272h161l-4 -10l-221 -233l2 -4q37 16 80 16z" />
    <glyph glyph-name="seveninferior" unicode="&#x2087;" horiz-adv-x="573" 
d="M315 326h-325l26 120h490l-23 -104l-397 -588h-156l2 10l383 560v2z" />
    <glyph glyph-name="eightinferior" unicode="&#x2088;" horiz-adv-x="679" 
d="M254 174q121 0 121 96q0 68 -86 68q-119 0 -119 -105q0 -59 84 -59zM305 463q219 0 219 -160q0 -131 -139 -188v-2q94 -45 94 -147t-81 -166q-81 -62 -214 -62t-194 47t-62 125q0 145 170 215v2q-72 37 -72 126t72 149t207 61zM188 -137q147 0 148 114q0 74 -107 74
q-147 0 -147 -117q0 -71 106 -71z" />
    <glyph glyph-name="nineinferior" unicode="&#x2089;" horiz-adv-x="657" 
d="M119 201q0 -86 100 -86q72 0 112 36t40 101q0 86 -105 86q-68 0 -108 -36t-39 -101zM154 -14q-86 0 -137 58q-50 58 -50 142q0 119 87 198q88 79 218 79q130 1 190 -59t60 -158t-102 -219l-248 -273h-162l4 10l222 234l-3 4q-37 -16 -79 -16z" />
    <glyph glyph-name="parenleftinferior" unicode="&#x208d;" horiz-adv-x="370" 
d="M84 -62q0 -164 35 -288l-101 -31q-69 157 -69 348t83 339t189 274l82 -60q-111 -158 -165 -288t-54 -294z" />
    <glyph glyph-name="parenrightinferior" unicode="&#x208e;" horiz-adv-x="370" 
d="M217 227q0 -287 -272 -608l-82 57q111 156 166 288t55 292t-37 291l100 33q70 -163 70 -353z" />
    <glyph glyph-name="uni20A1" unicode="&#x20a1;" 
d="M346 514q0 -137 25 -207l348 914q-189 -75 -281 -273t-92 -434zM848 1247l-397 -1044q41 -35 100 -49l416 1091q-51 6 -119 2zM150 516q0 346 178 598t469 301l63 162h117l-59 -154q63 -4 114 -12l66 166h119l-76 -195q43 -18 102 -49l-82 -143q-47 25 -84 37l-413 -1084
q139 0 288 66l19 -160q-174 -80 -359 -80l-18 2l-72 -192h-119l78 205q-53 12 -104 39l-94 -244h-117l119 311q-135 129 -135 426z" />
    <glyph glyph-name="lira" unicode="&#x20a4;" horiz-adv-x="1110" 
d="M301 170h612l-34 -170h-850l30 145q10 -1 40 23t55 42q24 18 36 36q12 16 39 51t39 98l8 37h-176l33 152h164q7 53 16 186h-141l33 152h127q12 70 18 102q41 195 163 297t293 102t339 -94l-64 -151q-145 72 -257 72q-232 -1 -279 -228q-18 -90 -19 -100h400l-33 -152
h-385l-16 -186h362l-33 -152h-350q-41 -174 -170 -258v-4z" />
    <glyph glyph-name="uni20A6" unicode="&#x20a6;" 
d="M444 1137h-4l-41 -236h95zM805 256h4l35 201h-82zM526 754h-155l-25 -150h209zM698 754l33 -150h137l29 150h-199zM1128 457h-108l-98 -457h-236l-98 457h-273l-96 -457h-186l96 457h-98l30 147h99l33 150h-99l31 147h98l105 492h235l103 -492h260l104 492h189l-105 -492
h109l-31 -147h-111l-30 -150h110z" />
    <glyph glyph-name="rupee" unicode="&#x20a8;" 
d="M420 731q141 0 219 42t113 128h-537l74 152h495q-12 170 -260 170h-241l77 170h887l-73 -152h-312v-4q102 -63 103 -184h211l-74 -152h-156q-59 -166 -196 -248t-324 -86l397 -534l-6 -33h-196l-449 612l27 119h221z" />
    <glyph glyph-name="uni20AA" unicode="&#x20aa;" horiz-adv-x="1468" 
d="M743 0h-372l213 1016h184l-180 -846h143q201 0 269 61t114 273l186 889h185l-187 -889q-61 -292 -175 -398t-380 -106zM637 1225h-143l-258 -1225h-185l295 1393h330q268 0 356 -110t29 -394l-109 -512h-186l111 512q47 207 4 271t-244 65z" />
    <glyph glyph-name="dong" unicode="&#x20ab;" 
d="M848 0h-782l30 143h783zM518 387q123 0 244 72l86 407q-78 56 -228 56t-225 -100q-74 -100 -73 -240q0 -195 196 -195zM131 561q0 213 121 365t342 151q174 0 278 -80h5l41 187h-205l30 145h205l23 105h182l-23 -105h113l-31 -145h-112l-197 -928h-133l-6 72h-4
q-154 -98 -308 -98t-238 94q-83 94 -83 237z" />
    <glyph glyph-name="Euro" unicode="&#x20ac;" 
d="M692 143q158 0 301 66l39 -150q-193 -90 -356 -90q-221 0 -342 127t-121 350h-170l78 152h100q16 109 41 188h-147l78 152h122q207 485 629 485q162 0 320 -90l-64 -149q-123 66 -272 65q-281 0 -420 -311h575l-75 -152h-562q-29 -92 -38 -188h516l-74 -152h-447
q12 -303 289 -303z" />
    <glyph glyph-name="uni20AD" unicode="&#x20ad;" 
d="M1038 606h-336l302 -586l-5 -20h-219l-293 606h-53l-129 -606h-188l129 606h-129l33 152h129l135 635h188l-135 -635h49l547 635h207l-6 -21l-533 -614h338z" />
    <glyph glyph-name="uni20AE" unicode="&#x20ae;" 
d="M913 672l-30 -148l-215 -73l-95 -451h-188l80 381l-217 -74l31 148l219 73l28 140l-217 -74l31 147l217 74l88 408h-399l37 170h983l-37 -170h-395l-74 -338l215 73l-31 -147l-215 -74l-29 -139z" />
    <glyph glyph-name="uni20B1" unicode="&#x20b1;" 
d="M721 1223h-178l-27 -125h412q-25 125 -207 125zM578 543q158 0 245 119h-401l-25 -119h181zM895 813q25 70 31 133h-443l-28 -133h440zM754 1393q172 0 268 -76t106 -219h117l-33 -152h-94q-8 -51 -28 -133h94l-31 -151h-119q-74 -145 -182 -218q-109 -72 -274 -71h-218
l-77 -373h-189l142 662h-117l33 151h114l29 133h-115l31 152h117l63 295h363z" />
    <glyph glyph-name="uni20B2" unicode="&#x20b2;" 
d="M322 489q0 -289 153 -335l230 1079q-290 -92 -366 -545q-17 -103 -17 -199zM127 464q0 351 143 617q72 133 194 223t277 109l35 164h137l-32 -154q195 -8 340 -135l-93 -143q-125 94 -284 104l-236 -1106q117 4 201 62l72 332l-105 28l27 129h301l-125 -592
q-180 -121 -408 -133l-41 -190h-135l41 198q-154 35 -232 170t-77 317z" />
    <glyph glyph-name="uni20B4" unicode="&#x20b4;" 
d="M522 143q192 0 369 127l65 -149q-223 -152 -448 -152q-166 0 -261 86t-95 232q0 82 28 145h-86l33 152h162q59 55 149 104l158 82h-430l33 152h667q64 70 64 152t-54 128q-54 47 -171 47t-291 -92l-60 152q209 115 383 115q175 0 273 -84q98 -83 98 -228q0 -102 -55 -190
h96l-31 -152h-215q-33 -23 -119 -68l-231 -118h524l-33 -152h-684q-31 -55 -30 -121q0 -168 192 -168z" />
    <glyph glyph-name="uni20B5" unicode="&#x20b5;" 
d="M346 516q0 -299 182 -356l228 1073q-106 -29 -188 -104q-146 -135 -198 -386q-24 -110 -24 -227zM152 514q0 344 173 593t470 304l34 166h142l-33 -154q145 -2 293 -86l-68 -153q-117 61 -262 65l-235 -1106q139 0 288 66l31 -156q-178 -80 -356 -84l-41 -190h-142
l43 203q-165 31 -251 175t-86 357z" />
    <glyph glyph-name="afii61289" unicode="&#x2113;" horiz-adv-x="827" 
d="M721 1249q0 84 -59 84q-90 0 -132 -186l-79 -377q270 260 270 479zM672 1464q86 0 139 -52t53 -138q0 -328 -452 -690l-76 -353q-30 -131 70 -131t219 88l39 -116q-142 -102 -266 -102t-171 72q-47 73 -20 198l55 260q-104 -76 -186 -127l-47 121q158 90 268 174l102 485
q66 311 273 311z" />
    <glyph glyph-name="afii61352" unicode="&#x2116;" horiz-adv-x="2156" 
d="M1964 426h-532l30 141h533zM2159 1092q1 -162 -103 -278t-291 -116q-131 0 -201 77t-69 192q0 163 104 277t285 114q137 0 206 -76t69 -190zM1653 971q0 -133 131 -133q109 0 163 64t54 179q0 135 -135 136q-106 1 -160 -65t-53 -181zM977 287h4l236 1106h188l-297 -1393
h-195l-444 1106h-4l-236 -1106h-188l297 1393h190z" />
    <glyph glyph-name="uni2117" unicode="&#x2117;" horiz-adv-x="1669" 
d="M244 578q0 -220 133 -360t350 -140q301 0 523 218t223 519q1 219 -133 359t-351 141q-299 0 -522 -218t-223 -519zM129 558q0 244 122 442q123 198 321 311t421 112q264 0 430 -172q166 -173 166 -417t-122 -442q-123 -198 -321 -310t-421 -113q-264 0 -430 172
q-166 173 -166 417zM895 702q76 0 114 46t38 114q0 94 -99 94h-137l-53 -254h137zM969 1079q115 0 173 -57t58 -148q0 -130 -80 -212t-227 -82h-162l-57 -267h-142l162 766h275z" />
    <glyph glyph-name="trademark" unicode="&#x2122;" horiz-adv-x="1478" 
d="M1026 1434l94 -283h4l215 283h158l-121 -574h-131l82 381h-2l-176 -244h-102l-70 244h-2l-82 -381h-131l123 574h141zM305 1434h471l-22 -109h-170l-99 -465h-131l99 465h-170z" />
    <glyph glyph-name="Omega" unicode="&#x2126;" horiz-adv-x="1490" 
d="M158 628q0 142 47 279q107 313 373 444q146 73 302 73q289 -1 410 -159q121 -157 121 -385t-113 -411q-113 -184 -290 -299h249l-36 -170h-490l35 162q223 137 336 310t112 421q0 156 -76 256t-236 100t-270 -61q-110 -60 -168 -160q-114 -196 -114 -420q0 -283 197 -446
l-33 -162h-491l36 170h291q-80 72 -136 194t-56 264z" />
    <glyph glyph-name="estimated" unicode="&#x212e;" horiz-adv-x="1394" 
d="M1059 676v330q-137 129 -344 129t-334 -129v-330h678zM137 595q0 265 161 441t419 176t420 -166t170 -432l-15 -20h-911v-412q133 -127 338 -127q277 0 420 217l75 -55q-96 -133 -213 -190t-282 -58q-258 1 -420 181t-162 445z" />
    <glyph glyph-name="onethird" unicode="&#x2153;" horiz-adv-x="1443" 
d="M1034 410q135 0 135 106q0 68 -95 68t-181 -35l-27 113q98 47 217 47t181 -47q62 -48 63 -124q0 -76 -46 -124t-99 -62v-2q90 -33 90 -138q0 -104 -83 -166t-225 -62t-229 53l53 117q84 -45 179 -45q160 0 159 112q0 66 -118 66h-121l26 123h121zM223 1141h-18l26 137
l271 115h106l-147 -693h-144l113 527h-2zM176 0h-164l4 20l1190 1373h164l-4 -21z" />
    <glyph glyph-name="twothirds" unicode="&#x2154;" horiz-adv-x="1568" 
d="M1157 410q135 0 135 106q0 68 -95 68t-181 -35l-27 113q98 47 217 47q120 0 182 -47q62 -48 62 -124t-46 -124t-99 -62v-2q90 -33 90 -138q0 -104 -83 -166q-82 -62 -224 -62t-230 53l53 117q84 -45 179 -45q160 0 159 112q0 66 -119 66h-120l26 123h121zM375 819h278
l-26 -123h-496l23 105l321 239q100 74 100 157t-92 83q-70 0 -170 -76l-65 99q140 102 248 102t170 -51t61 -134q0 -84 -39 -140t-113 -111l-200 -148v-2zM301 0h-164l4 20l1190 1373h164l-4 -21z" />
    <glyph glyph-name="oneeighth" unicode="&#x215b;" horiz-adv-x="1447" 
d="M1055 420q121 0 121 96q0 68 -86 68q-119 0 -119 -105q0 -59 84 -59zM1106 709q219 0 219 -160q0 -131 -139 -189v-2q94 -45 94 -147q0 -103 -81 -165t-214 -62t-194 47t-62 125q0 145 170 215v2q-72 37 -72 126t72 149t207 61zM989 109q147 0 148 114q0 74 -107 74
q-147 0 -147 -117q0 -71 106 -71zM223 1141h-18l26 137l271 115h106l-147 -693h-144l113 527h-2zM176 0h-164l4 20l1190 1373h164l-4 -21z" />
    <glyph glyph-name="threeeighths" unicode="&#x215c;" horiz-adv-x="1542" 
d="M426 1104q135 0 135 106q0 68 -95 68t-181 -35l-27 113q98 47 216 47t182 -47q62 -47 62 -123t-45 -124q-46 -48 -100 -62v-3q91 -33 91 -138q0 -104 -83 -166t-225 -62t-229 53l53 117q84 -45 178 -45q160 0 160 112q0 66 -119 66h-120l26 123h121zM1149 420
q121 0 121 96q0 68 -86 68q-119 0 -119 -105q0 -59 84 -59zM1200 709q219 0 219 -160q0 -131 -139 -189v-2q94 -45 94 -147q0 -103 -81 -165t-214 -62t-194 47t-62 125q0 145 170 215v2q-71 37 -71 126t72 149t206 61zM1083 109q147 0 148 114q0 74 -107 74
q-147 0 -147 -117q0 -71 106 -71zM270 0h-164l5 20l1189 1373h164l-4 -21z" />
    <glyph glyph-name="fiveeighths" unicode="&#x215d;" horiz-adv-x="1515" 
d="M1122 420q121 0 121 96q0 68 -86 68q-119 0 -119 -105q0 -59 84 -59zM1174 709q219 0 219 -160q0 -131 -140 -189v-2q95 -45 95 -147q0 -103 -81 -165t-215 -62t-194 47q-61 47 -61 125q0 145 170 215v2q-72 37 -72 126t72 149t207 61zM1057 109q147 0 147 114
q0 74 -106 74q-147 0 -148 -117q1 -71 107 -71zM434 1141q231 0 232 -183q0 -126 -94 -200t-224 -74q-131 0 -223 39l49 123q76 -37 164 -37t130 35t42 96q0 76 -113 76q-71 0 -153 -4l-15 18l117 363h387l-26 -121h-267l-45 -131h39zM244 0h-164l4 20l1190 1373h164l-4 -21
z" />
    <glyph glyph-name="seveneighths" unicode="&#x215e;" horiz-adv-x="1435" 
d="M571 1272h-325l26 121h490l-23 -105l-397 -588h-156l2 11l383 559v2zM1042 420q121 0 121 96q0 68 -86 68q-119 0 -119 -105q0 -59 84 -59zM1094 709q219 0 219 -160q0 -131 -139 -189v-2q94 -45 94 -147q0 -103 -81 -165t-214 -62t-195 47q-61 47 -61 125q0 145 170 215
v2q-72 37 -72 126t72 149t207 61zM977 109q147 0 147 114q0 74 -106 74q-147 0 -148 -117q1 -71 107 -71zM164 0h-164l4 20l1190 1373h164l-4 -21z" />
    <glyph glyph-name="arrowleft" unicode="&#x2190;" horiz-adv-x="1826" 
d="M1827 772v-156h-1456l604 -585l-115 -115l-778 778l778 779l115 -117l-604 -584h1456z" />
    <glyph glyph-name="arrowup" unicode="&#x2191;" horiz-adv-x="1826" 
d="M874 -180v1454l-585 -602l-115 112l778 779l779 -779l-117 -112l-584 602l-2 -1454h-154z" />
    <glyph glyph-name="arrowright" unicode="&#x2192;" horiz-adv-x="1826" 
d="M82 616v156h1456l-606 584l117 117l778 -779l-778 -778l-117 115l606 585h-1456z" />
    <glyph glyph-name="arrowdown" unicode="&#x2193;" horiz-adv-x="1826" 
d="M1030 1563v-1454l584 602l117 -113l-779 -778l-778 778l115 113l585 -602l3 1454h153z" />
    <glyph glyph-name="uni2196" unicode="&#x2196;" horiz-adv-x="1835" 
d="M326 1356h1104v-166l-844 12l1030 -1030l-111 -106l-1026 1030l13 -844h-166v1104z" />
    <glyph glyph-name="uni2197" unicode="&#x2197;" horiz-adv-x="1832" 
d="M1647 1356v-1102h-166l12 844l-1026 -1030l-109 110l1028 1026l-843 -14v166h1104z" />
    <glyph glyph-name="uni2198" unicode="&#x2198;" horiz-adv-x="1832" 
d="M1649 37h-1104v166l844 -13l-1031 1027l111 108l1026 -1028l-12 844h166v-1104z" />
    <glyph glyph-name="uni2199" unicode="&#x2199;" horiz-adv-x="1835" 
d="M326 37v1104h166l-13 -844l1026 1028l111 -108l-1030 -1027l844 13v-166h-1104z" />
    <glyph glyph-name="partialdiff" unicode="&#x2202;" horiz-adv-x="1204" 
d="M606 795q-154 0 -253 -110t-99 -294q0 -109 56 -179t157 -69q143 1 266 139t150 367q-29 61 -101 103t-176 43zM1114 850q0 -395 -192 -638t-471 -243q-184 0 -290 113q-105 113 -106 285q0 260 154 431t375 171q106 0 196 -42t131 -98l4 2q24 246 -104 335
q-128 90 -344 94l70 174q291 0 434 -163t143 -421z" />
    <glyph glyph-name="Delta" unicode="&#x2206;" horiz-adv-x="1335" 
d="M809 1171h-4l-569 -1001h716zM1159 10l-2 -10h-1214l2 10l805 1383h192z" />
    <glyph glyph-name="product" unicode="&#x220f;" horiz-adv-x="1380" 
d="M817 -406l357 1670h-674l-355 -1670h-188l391 1840h1049l-391 -1840h-189z" />
    <glyph glyph-name="summation" unicode="&#x2211;" horiz-adv-x="1167" 
d="M-135 -406l33 150l684 784l-326 754l33 152h950l-35 -170h-753l340 -748l-658 -752h782l-36 -170h-1014z" />
    <glyph glyph-name="minus" unicode="&#x2212;" 
d="M135 629h959l-31 -152h-961z" />
    <glyph glyph-name="uni2215" unicode="&#x2215;" horiz-adv-x="1097" 
d="M59 0h-163l4 20l1190 1373h163l-4 -21z" />
    <glyph glyph-name="uni2219" unicode="&#x2219;" horiz-adv-x="534" 
d="M286 727q116 0 116 -115q0 -59 -47 -105q-46 -46 -115 -46q-105 1 -105 115q0 60 46 105q45 46 105 46z" />
    <glyph glyph-name="radical" unicode="&#x221a;" horiz-adv-x="1232" 
d="M2 434l4 21h170l129 -627h4l895 1565h178l-1013 -1799h-187z" />
    <glyph glyph-name="infinity" unicode="&#x221e;" horiz-adv-x="1509" 
d="M393 395q80 0 254 160q-53 86 -94 121t-86 35q-84 1 -141 -55q-58 -56 -58 -122t33 -103q33 -36 92 -36zM1030 395q80 -1 139 59t59 124t-33 98q-34 35 -86 35q-51 0 -107 -34t-152 -122q61 -90 98 -125t82 -35zM362 246q-100 0 -178 70t-78 186q0 154 106 256t253 102
q92 0 158 -46t139 -146q129 116 199 154t170 38t180 -68t80 -184q0 -152 -108 -257t-249 -105q-100 0 -167 45q-66 45 -136 141q-121 -104 -195 -145t-174 -41z" />
    <glyph glyph-name="integral" unicode="&#x222b;" horiz-adv-x="1040" 
d="M-43 -436q-68 0 -133 12l33 164q57 -14 123 -14t110 32q45 32 78 113l475 1231q66 172 160 247t244 74q59 0 133 -12l-33 -164q-164 34 -237 -17q-46 -32 -79 -114l-475 -1231q-66 -173 -158 -247t-241 -74z" />
    <glyph glyph-name="approxequal" unicode="&#x2248;" 
d="M369 463q66 0 208 -52t195 -53q90 0 174 70l60 -102q-113 -119 -271 -119q-61 0 -205 52t-190 52q-100 1 -184 -71l-60 100q98 123 273 123zM463 907q66 0 208 -52t195 -52q90 0 174 69l60 -102q-113 -119 -269 -119q-63 0 -206 52t-191 53q-100 0 -184 -72l-60 100
q98 123 273 123z" />
    <glyph glyph-name="notequal" unicode="&#x2260;" 
d="M356 0h-161l4 20l141 238h-244l33 152h301l172 292h-412l33 152h471l150 254h157l-4 -21l-137 -233h242l-31 -152h-301l-172 -292h410l-33 -152h-467z" />
    <glyph glyph-name="lessequal" unicode="&#x2264;" 
d="M23 152h958l-31 -152h-960zM1018 317h-19l-854 412l29 141l1030 412h19l-37 -180l-832 -307v-7l699 -307z" />
    <glyph glyph-name="greaterequal" unicode="&#x2265;" 
d="M51 152h959l-31 -152h-961zM104 317h-18l37 181l829 307v6l-698 307l37 164h18l854 -412l-30 -141z" />
    <glyph glyph-name="lozenge" unicode="&#x25ca;" horiz-adv-x="1122" 
d="M475 174l426 526l-201 517l-432 -541zM391 0l-305 711l571 682h123l303 -723l-569 -670h-123z" />
    <glyph glyph-name="whitecircle" unicode="&#x25cb;" horiz-adv-x="1638" 
d="M817 1262q-241 0 -401 -162t-160 -403t161 -403t401 -163q240 0 401 163q161 164 161 404t-161 402q-162 162 -402 162zM1516 697q0 -297 -201 -497t-497 -200t-496 200t-199 497q0 296 200 496q199 200 495 200t497 -200t201 -496z" />
    <glyph glyph-name="blackcircle" unicode="&#x25cf;" horiz-adv-x="1638" 
d="M819 0q-297 0 -497 200t-199 497q0 298 199 497q198 199 496 199t498 -200t200 -497q0 -296 -200 -496t-497 -200z" />
    <glyph glyph-name="uni25DC" unicode="&#x25dc;" horiz-adv-x="694" 
d="M694 1393v-131q-240 0 -400 -162t-161 -402h-133q0 295 200 495t494 200z" />
    <glyph glyph-name="uni25DD" unicode="&#x25dd;" horiz-adv-x="698" 
d="M0 1262v131q297 0 498 -200t200 -495h-135q1 240 -161 402t-402 162z" />
    <glyph glyph-name="uni25DE" unicode="&#x25de;" horiz-adv-x="698" 
d="M0 0v131q240 0 402 163t161 404h135q0 -298 -200 -498t-498 -200z" />
    <glyph glyph-name="uni25DF" unicode="&#x25df;" horiz-adv-x="694" 
d="M694 131v-131q-294 0 -494 201t-200 497h133q1 -242 161 -404t400 -163z" />
    <glyph glyph-name="uniEA01" unicode="&#xea01;" horiz-adv-x="2048" 
d="M1225 225v400h-400v-400h-200v961h200v-393h400v393h200v-961h-200zM291 -47h1464v1464h-1464v-1464zM141 -197v1764h1764v-1764h-1764z" />
    <glyph glyph-name="uniEA02" unicode="&#xea02;" horiz-adv-x="2048" 
d="M604 705q0 229 124 365t345 136q141 0 277 -61l-56 -160q-104 49 -221 49t-187 -91t-71 -238q0 -147 71 -239q72 -92 188 -91q116 0 220 49l56 -160q-141 -61 -277 -61q-223 1 -346 137t-123 365zM291 -47h1464v1464h-1464v-1464zM141 -197v1764h1764v-1764h-1764z" />
    <glyph glyph-name="uniEA03" unicode="&#xea03;" horiz-adv-x="2048" 
d="M1012 373q152 0 151 114q0 45 -28 71q-29 26 -107 50l-104 33q-127 41 -180 108q-52 67 -52 162q0 137 91 216t251 79t293 -67l-57 -160q-113 57 -243 57t-130 -104q0 -78 100 -109l103 -32q140 -47 204 -111t64 -186q0 -123 -96 -207t-266 -84t-328 92l61 160
q121 -82 273 -82zM291 -47h1464v1464h-1464v-1464zM141 -197v1764h1764v-1764h-1764z" />
    <glyph glyph-name="uniEA04" unicode="&#xea04;" horiz-adv-x="2048" 
d="M1225 625v-400h200v961h-200v-393h-400v393h-200v-961h200v400h400zM141 -197v1764h1764v-1764h-1764z" />
    <glyph glyph-name="uniEA05" unicode="&#xea05;" horiz-adv-x="2048" 
d="M604 705q0 -229 123 -365t346 -137q135 0 277 61l-56 160q-104 -49 -221 -49t-187 91q-70 90 -71 238q0 148 71 239q72 91 188 91t220 -49l56 160q-135 61 -277 61q-221 0 -345 -136t-124 -365zM141 -197v1764h1764v-1764h-1764z" />
    <glyph glyph-name="uniEA06" unicode="&#xea06;" horiz-adv-x="2048" 
d="M1006 203q170 0 266 84q96 85 96 207t-63 186t-205 111l-103 32q-100 31 -100 109q0 104 130 104t243 -57l57 160q-133 67 -293 67t-251 -79t-91 -216q0 -97 52 -163t180 -107l104 -33q78 -24 107 -50t28 -71q1 -115 -151 -115t-273 83l-61 -160q158 -92 328 -92z
M141 -197v1764h1764v-1764h-1764z" />
    <glyph glyph-name="commaaccent" unicode="&#xf6c3;" horiz-adv-x="1183" 
d="M381 -446l4 20l102 289h189l-4 -21l-146 -288h-145z" />
    <glyph glyph-name="commainferior" unicode="&#xf6e1;" horiz-adv-x="389" 
d="M-164 -453l4 21l135 369h197l-4 -19l-197 -371h-135z" />
    <glyph glyph-name="commasuperior" unicode="&#xf6e2;" horiz-adv-x="385" 
d="M86 739l4 21l135 368h197l-4 -18l-197 -371h-135z" />
    <glyph glyph-name="hypheninferior" unicode="&#xf6e5;" horiz-adv-x="505" 
d="M301 55h-319l26 121h320z" />
    <glyph glyph-name="hyphensuperior" unicode="&#xf6e6;" horiz-adv-x="501" 
d="M553 1247h-320l27 121h320z" />
    <glyph glyph-name="periodinferior" unicode="&#xf6e7;" horiz-adv-x="362" 
d="M43 -43q97 1 95 -95q0 -48 -38 -86q-37 -38 -94 -38q-88 0 -88 95q0 48 38 86t87 38z" />
    <glyph glyph-name="periodsuperior" unicode="&#xf6e8;" horiz-adv-x="362" 
d="M297 1149q97 1 95 -95q0 -48 -38 -86q-37 -38 -94 -38q-88 0 -88 95q0 48 38 86t87 38z" />
    <glyph glyph-name="uniF8FF" unicode="&#xf8ff;" horiz-adv-x="1294" 
d="M369 119h608v1155h-608v-1155zM250 0v1393h846v-1393h-846z" />
    <glyph glyph-name="fi" unicode="&#xfb01;" horiz-adv-x="1218" 
d="M1096 1161q-95 0 -95 101q0 52 40 92t104 39q98 0 98 -90q0 -61 -42 -101t-105 -41zM705 1444q80 0 149 -17l-35 -159q-69 14 -131 14t-102 -32t-58 -113l-32 -150h655l-209 -987h-184l178 836h-473l-176 -836h-185l179 836h-175l25 110l180 41l29 135q37 168 125 245
t240 77z" />
    <glyph glyph-name="fl" unicode="&#xfb02;" horiz-adv-x="1263" 
d="M1116 137l-31 -145q-66 -16 -108 -17q-221 0 -170 238l260 1221h182l-264 -1244q-8 -28 0 -40t39 -13h92zM705 1444q80 0 149 -17l-35 -159q-69 14 -131 14t-102 -32t-58 -113l-32 -150h264l-33 -151h-264l-176 -836h-185l179 836h-175l25 110l180 41l29 135
q37 168 125 245t240 77z" />
    <glyph glyph-name="zero.lf" horiz-adv-x="1329" 
d="M1243 928q0 -449 -187 -704t-497 -255q-211 0 -316 133t-106 365q1 449 187 703t499 253q207 0 313 -133t107 -362zM332 475q0 -332 241 -332q201 0 338 201t138 578q0 328 -240 327q-201 1 -339 -199t-138 -575z" />
    <glyph glyph-name="one.lf" horiz-adv-x="747" 
d="M195 1063h-27l35 174l399 156h156l-297 -1393h-189l254 1186h-4z" />
    <glyph glyph-name="two.lf" horiz-adv-x="1116" 
d="M309 170h606l-36 -170h-889l33 150l618 514q82 70 125 112t82 111q39 71 39 157q1 86 -57 146t-163 59q-105 0 -185 -35t-169 -100l-84 139q223 170 455 170q174 0 288 -104q114 -105 114 -261t-76 -264q-74 -108 -238 -241l-463 -379v-4z" />
    <glyph glyph-name="three.lf" horiz-adv-x="1126" 
d="M565 795q150 -1 229 79t78 193q0 80 -53 131t-155 51q-172 0 -363 -71l-45 153q200 92 406 92t308 -88t103 -232q0 -145 -80 -247t-188 -154v-4q162 -68 162 -270t-163 -330q-164 -129 -394 -129t-416 105l76 153q152 -84 323 -84t275 79t104 216q0 186 -254 187h-231
l37 170h241z" />
    <glyph glyph-name="four.lf" horiz-adv-x="1220" 
d="M735 465l111 518h188l-110 -518h200l-37 -170h-200l-62 -295h-188l61 295h-669l30 143l621 955h197l-596 -928h454z" />
    <glyph glyph-name="five.lf" horiz-adv-x="1101" 
d="M532 856q203 0 320 -87t117 -257q0 -254 -172 -398t-451 -145q-86 0 -190 25t-170 57l63 164q147 -72 324 -72t286 85t109 255q0 199 -276 199q-150 0 -287 -10l-15 22l234 699h686l-37 -170h-528l-125 -371q78 4 112 4z" />
    <glyph glyph-name="six.lf" horiz-adv-x="1177" 
d="M879 512q1 109 -63 167t-179 58q-166 0 -266 -96t-101 -260q0 -109 64 -173t178 -65q156 1 262 105t105 264zM702 911q172 0 274 -104t101 -270q0 -240 -162 -404t-419 -164q-201 0 -313 111t-111 280q0 238 186 465l471 568h219l-4 -21l-446 -514l4 -4q84 57 200 57z
" />
    <glyph glyph-name="seven.lf" horiz-adv-x="1001" 
d="M866 1223h-671l36 170h879l-31 -144l-751 -1249h-201l4 20l735 1199v4z" />
    <glyph glyph-name="eight.lf" horiz-adv-x="1236" 
d="M668 813q147 0 224 71t77 195q0 170 -207 170q-147 -1 -226 -73t-79 -195q0 -168 211 -168zM778 1423q193 0 292 -89t99 -230q0 -258 -251 -379v-4q74 -39 118 -113t45 -168q-1 -205 -151 -338t-420 -133q-213 -1 -327 95q-113 96 -113 248t89 262t226 167v4
q-123 76 -123 249t132 301t384 128zM526 143q176 0 269 85q92 85 92 216q1 92 -63 146t-191 53q-183 0 -273 -85t-90 -216q0 -92 64 -146t192 -53z" />
    <glyph glyph-name="nine.lf" horiz-adv-x="1177" 
d="M348 881q0 -109 64 -167t178 -59q166 1 266 97t100 260q0 110 -63 174t-178 63q-155 0 -261 -104t-106 -264zM150 856q0 240 161 404q162 164 420 163q201 -1 313 -111t111 -280q0 -238 -186 -465l-471 -567h-219l4 20l446 515l-4 4q-84 -57 -201 -58q-172 1 -273 105
t-101 270z" />
    <glyph glyph-name="uni0444.alt" horiz-adv-x="1378" 
d="M1077 596q0 250 -235 283l-164 -770q193 25 278 128t103 195t18 164zM266 366q0 -90 53 -168t175 -92l163 773q-121 -15 -205 -71t-120 -137q-38 -81 -52 -147q-14 -68 -14 -158zM76 381q0 304 189 479q67 60 175 102t244 48l90 424h184l-90 -424q396 -51 398 -408
q0 -229 -128 -407q-67 -93 -192 -151t-297 -67l-82 -383h-182l80 383q-203 23 -296 131t-93 273z" />
    <glyph glyph-name="Euro.alt" horiz-adv-x="1183" 
d="M688 143q158 0 301 66l39 -150q-193 -90 -356 -90q-221 0 -342 127t-121 350h-166l33 152h141q16 109 41 188h-141l30 152h164q207 485 629 485q162 0 320 -90l-64 -149q-123 66 -272 65q-281 0 -420 -311h444l-33 -152h-473q-29 -92 -39 -188h474l-31 -152h-447
q12 -303 289 -303z" />
    <glyph glyph-name="rupee.alt" 
d="M426 731q141 0 219 42t113 128h-514l32 152h515q-12 170 -261 170h-219l37 170h869l-33 -152h-316v-4q102 -63 103 -184h174l-33 -152h-160q-59 -166 -196 -248t-324 -86l397 -534l-6 -33h-196l-449 612l27 119h221z" />
    <glyph glyph-name="registered.alt" horiz-adv-x="1669" 
d="M244 578q0 -220 133 -360t350 -140q301 0 523 218t223 519q1 219 -133 359t-351 141q-299 0 -522 -218t-223 -519zM129 558q0 244 122 442q123 198 321 311t421 112q264 0 430 -172q166 -173 166 -417t-122 -442q-123 -198 -321 -310t-421 -113q-264 0 -430 172
q-166 173 -166 417zM885 743q152 0 151 134q0 80 -106 79h-168l-45 -213h168zM954 1079q232 0 234 -192q0 -96 -62 -165t-168 -91l156 -299l-4 -19h-147l-150 310h-123l-65 -310h-142l162 766h309z" />
    <glyph glyph-name="guillemotleft.case" horiz-adv-x="1058" 
d="M526 686l6 25l402 428l102 -92l-321 -363l157 -362l-124 -64zM129 686l6 25l402 428l102 -92l-322 -363l158 -362l-125 -64z" />
    <glyph glyph-name="bracketleft.case" horiz-adv-x="675" 
d="M387 1618h426l-22 -111l-252 -47l-324 -1523l231 -48l-24 -110h-426z" />
    <glyph glyph-name="guilsinglright.case" horiz-adv-x="663" 
d="M586 711l-6 -25l-402 -428l-102 92l321 363l-157 362l125 64z" />
    <glyph glyph-name="bar.case" horiz-adv-x="477" 
d="M532 1618l-391 -1839h-145l391 1839h145z" />
    <glyph glyph-name="periodcentered.case" horiz-adv-x="548" 
d="M268 565q-104 -1 -104 115q0 60 46 106t106 45q114 0 114 -104q0 -70 -46 -116t-116 -46z" />
    <glyph glyph-name="bullet.case" horiz-adv-x="696" 
d="M193 672q0 76 61 138q62 62 142 62t116 -38t37 -114q1 -77 -61 -138t-154 -62q-141 0 -141 152z" />
    <glyph glyph-name="emdash.case" horiz-adv-x="1830" 
d="M1681 623h-1519l33 151h1519z" />
    <glyph glyph-name="bracketright.case" horiz-adv-x="675" 
d="M303 1618h428l-391 -1839h-428l22 110l254 48l324 1523l-233 47z" />
    <glyph glyph-name="endash.case" horiz-adv-x="1163" 
d="M1014 623h-852l33 151h852z" />
    <glyph glyph-name="hyphen.case" horiz-adv-x="845" 
d="M696 623h-534l33 151h532z" />
    <glyph glyph-name="guillemotright.case" horiz-adv-x="1060" 
d="M983 711l-6 -25l-402 -428l-102 92l322 363l-158 362l125 64zM586 711l-6 -25l-402 -428l-102 92l321 363l-157 362l125 64z" />
    <glyph glyph-name="parenleft.case" horiz-adv-x="610" 
d="M113 370q0 366 134 674q134 309 365 607l113 -86q-223 -324 -325 -628q-102 -305 -101 -623q0 -318 51 -517l-143 -55q-94 262 -94 628z" />
    <glyph glyph-name="guilsinglleft.case" horiz-adv-x="661" 
d="M129 686l6 25l402 428l102 -92l-322 -363l158 -362l-125 -64z" />
    <glyph glyph-name="braceright.case" horiz-adv-x="698" 
d="M-20 -221h-60l23 110q113 0 159 41t70 158l80 377q41 193 209 242v4q-147 51 -107 241l76 357q25 117 -3 157t-140 41l24 111h19q199 0 258 -80t26 -235l-79 -377q-16 -80 14 -115t110 -35l-32 -155q-160 0 -191 -150l-84 -397q-14 -74 -34 -121q-49 -117 -167 -154
q-69 -20 -171 -20z" />
    <glyph glyph-name="braceleft.case" horiz-adv-x="696" 
d="M418 -221q-199 0 -258 80t-27 235l80 377q16 80 -14 115q-31 35 -111 35l33 155q160 0 190 150l84 397q14 74 34 121q48 118 168 153q69 20 171 21h59l-22 -111q-113 0 -159 -41t-71 -157l-79 -377q-41 -193 -209 -242v-4q147 -51 106 -242l-76 -356q-25 -117 3 -158
t141 -41l-25 -110h-18z" />
    <glyph glyph-name="parenright.case" horiz-adv-x="610" 
d="M549 1022q0 -366 -134 -674q-134 -309 -366 -606l-112 86q223 324 324 628t101 622t-51 517l144 56q94 -263 94 -629z" />
    <glyph glyph-name="minus.case" horiz-adv-x="1603" 
d="M1354 612h-842l33 152h839z" />
    <glyph glyph-name="zero.num" horiz-adv-x="718" 
d="M758 1135q0 -183 -102 -317t-265 -134q-113 0 -172 76t-59 198q0 184 101 318t265 133q112 1 172 -75t60 -199zM307 952q1 -143 101 -143t151 94t51 238t-100 143q-94 0 -149 -94q-54 -95 -54 -238z" />
    <glyph glyph-name="one.num" horiz-adv-x="485" 
d="M182 1141h-18l26 137l271 115h106l-147 -693h-144l113 527h-2z" />
    <glyph glyph-name="two.num" horiz-adv-x="630" 
d="M336 823h278l-26 -123h-496l23 105l321 239q100 74 100 157t-92 83q-70 0 -170 -76l-65 99q139 102 247 102t170 -51t62 -134q0 -84 -39 -140t-112 -111l-201 -148v-2z" />
    <glyph glyph-name="three.num" horiz-adv-x="632" 
d="M393 1110q135 0 135 107q0 67 -95 67t-181 -35l-27 113q98 47 217 47q120 0 182 -47t62 -123t-46 -124t-99 -62v-2q90 -33 90 -139t-83 -166q-82 -62 -224 -62t-230 53l53 117q84 -45 179 -45q160 0 159 113q0 66 -118 65h-121l26 123h121z" />
    <glyph glyph-name="four.num" horiz-adv-x="667" 
d="M293 969h184l49 233h146l-51 -233h84l-27 -121h-82l-31 -148h-145l33 148h-347l23 102l274 443h148l-258 -422v-2z" />
    <glyph glyph-name="five.num" horiz-adv-x="614" 
d="M395 1141q231 0 232 -183q0 -126 -93 -200q-92 -74 -224 -74t-224 39l49 123q76 -37 164 -37t130 35t42 96q0 76 -113 76q-71 0 -153 -4l-15 18l117 363h387l-26 -121h-267l-45 -131h39z" />
    <glyph glyph-name="six.num" horiz-adv-x="657" 
d="M537 946q0 86 -101 86q-72 0 -112 -36t-39 -101q0 -86 104 -86q68 -1 108 35t40 102zM502 1161q86 0 136 -58t50 -142q0 -119 -87 -198t-217 -79t-190 59t-60 158t102 219l247 273h162l-4 -11l-221 -233l2 -4q37 16 80 16z" />
    <glyph glyph-name="seven.num" horiz-adv-x="575" 
d="M518 1272h-325l26 121h490l-23 -105l-397 -588h-156l2 11l383 559v2z" />
    <glyph glyph-name="eight.num" horiz-adv-x="679" 
d="M455 1120q121 0 120 97q0 68 -86 67q-119 0 -118 -104q0 -60 84 -60zM506 1409q219 0 219 -160q0 -131 -139 -188v-2q94 -45 94 -147t-81 -166q-81 -62 -214 -62t-195 47q-61 47 -61 125q0 145 170 215v2q-72 37 -72 126t72 149t207 61zM389 809q147 0 148 115
q0 74 -107 73q-147 0 -147 -116q0 -72 106 -72z" />
    <glyph glyph-name="nine.num" horiz-adv-x="657" 
d="M319 1147q0 -86 101 -86q72 0 112 36t39 101q0 86 -104 86q-68 0 -108 -36t-40 -101zM354 932q-86 0 -136 58t-50 143q0 119 87 197t217 79q130 0 190 -59t61 -158q0 -99 -102 -219l-248 -273h-162l4 11l221 233l-2 4q-37 -16 -80 -16z" />
    <glyph glyph-name="comma.num" horiz-adv-x="387" 
d="M35 494l4 20l135 369h197l-4 -19l-197 -370h-135z" />
    <glyph glyph-name="plus.num" horiz-adv-x="526" 
d="M467 1264l-29 -142h140l-27 -121h-139l-31 -143h-119l31 143h-139l26 121h137l31 142h119z" />
    <glyph glyph-name="hyphen.num" horiz-adv-x="505" 
d="M502 1001h-320l27 121h319z" />
    <glyph glyph-name="minus.num" horiz-adv-x="583" 
d="M580 1001h-398l27 121h397z" />
    <glyph glyph-name="parenleft.num" horiz-adv-x="372" 
d="M287 884q0 -165 35 -288l-101 -31q-69 158 -69 349t83 338q83 148 189 274l82 -60q-111 -158 -165 -288t-54 -294z" />
    <glyph glyph-name="period.num" horiz-adv-x="360" 
d="M207 684q-88 0 -88 95q0 48 38 86t87 38q94 0 94 -86q0 -57 -37 -95t-94 -38z" />
    <glyph glyph-name="parenright.num" horiz-adv-x="368" 
d="M418 1174q0 -287 -273 -609l-82 58q111 155 166 287t55 292t-36 291l100 33q70 -162 70 -352z" />
    <glyph glyph-name="zero.denom" horiz-adv-x="720" 
d="M610 434q0 -184 -101 -317t-265 -133q-113 0 -172 76t-60 198q0 184 102 317t265 134q113 0 172 -76t59 -199zM362 584q-94 0 -148 -94t-54 -238q0 -143 100 -143t152 94q51 93 51 237t-101 144z" />
    <glyph glyph-name="one.denom" horiz-adv-x="485" 
d="M33 440h-19l27 138l270 114h107l-148 -692h-143l113 526h-2z" />
    <glyph glyph-name="two.denom" horiz-adv-x="630" 
d="M186 123h279l-27 -123h-495l22 104l322 240q100 74 100 157t-92 83q-70 0 -170 -76l-66 98q139 102 248 102t170 -50q61 -52 61 -135t-38 -139q-39 -56 -113 -112l-201 -147v-2z" />
    <glyph glyph-name="three.denom" horiz-adv-x="630" 
d="M242 410q135 0 135 106q0 68 -95 68t-182 -35l-26 113q98 47 216 47t182 -47q62 -48 62 -124t-46 -124t-99 -62v-2q90 -33 90 -138q0 -104 -83 -166t-224 -62t-229 53l53 117q84 -45 178 -45q160 0 160 112q0 66 -119 66h-121l27 123h121z" />
    <glyph glyph-name="four.denom" horiz-adv-x="669" 
d="M145 268h185l49 234h145l-51 -234h84l-27 -121h-81l-31 -147h-146l33 147h-346l23 103l274 442h147l-258 -422v-2z" />
    <glyph glyph-name="five.denom" horiz-adv-x="614" 
d="M246 440q231 0 231 -182q0 -127 -93 -201t-247 -73q-109 0 -200 39l49 122q76 -37 164 -37q172 1 172 132q0 76 -113 75q-72 0 -154 -4l-14 19l117 362h387l-27 -121h-266l-45 -131h39z" />
    <glyph glyph-name="six.denom" horiz-adv-x="657" 
d="M387 246q0 86 -100 86q-72 0 -112 -36t-40 -101q0 -86 105 -86q68 -1 108 35t39 102zM-16 200q0 98 102 220l248 272h162l-4 -10l-222 -233l2 -5q37 16 80 17q86 -1 136 -59t51 -142q0 -119 -87 -198q-88 -78 -218 -78t-190 59t-60 157z" />
    <glyph glyph-name="seven.denom" horiz-adv-x="575" 
d="M369 571h-326l27 121h489l-22 -104l-398 -588h-155l2 10l383 559v2z" />
    <glyph glyph-name="eight.denom" horiz-adv-x="677" 
d="M305 420q121 0 121 96q0 68 -86 68q-119 0 -119 -105q0 -59 84 -59zM356 709q219 0 219 -160q0 -131 -139 -189v-2q94 -45 94 -147t-80 -165q-80 -62 -214 -62t-195 47t-61 125q0 145 170 215v2q-72 37 -72 126t72 149t206 61zM240 109q147 0 147 114q0 74 -106 74
q-147 0 -148 -117q1 -71 107 -71z" />
    <glyph glyph-name="nine.denom" horiz-adv-x="657" 
d="M170 446q0 -86 100 -86q72 0 112 36t40 102q0 86 -105 86q-67 0 -107 -36t-40 -102zM322 709q130 1 191 -59q60 -60 60 -158t-102 -220l-248 -272h-162l5 10l221 234l-2 4q-37 -16 -80 -17q-86 1 -136 59t-51 142q0 119 87 198t217 79z" />
    <glyph glyph-name="comma.denom" horiz-adv-x="389" 
d="M-113 -207l4 21l136 368h196l-4 -18l-196 -371h-136z" />
    <glyph glyph-name="plus.denom" horiz-adv-x="532" 
d="M322 563l-29 -141h139l-26 -121h-140l-30 -143h-119l30 143h-139l27 121h137l31 141h119z" />
    <glyph glyph-name="parenright.denom" horiz-adv-x="370" 
d="M270 473q0 -287 -272 -608l-82 57q111 156 166 288t55 292t-37 291l101 32q69 -162 69 -352z" />
    <glyph glyph-name="hyphen.denom" horiz-adv-x="501" 
d="M350 301h-319l26 121h320z" />
    <glyph glyph-name="minus.denom" horiz-adv-x="579" 
d="M428 301h-397l26 121h398z" />
    <glyph glyph-name="parenleft.denom" horiz-adv-x="370" 
d="M137 184q0 -164 35 -288l-100 -31q-70 157 -70 346t83 338t189 276l82 -59q-111 -158 -165 -288t-54 -294z" />
    <glyph glyph-name="period.denom" horiz-adv-x="362" 
d="M96 203q96 1 94 -95q0 -48 -36 -86t-95 -38q-88 0 -88 95q0 48 38 86t87 38z" />
    <glyph glyph-name="minusinferior" horiz-adv-x="583" 
d="M379 55h-397l26 121h398z" />
    <glyph glyph-name="plusinferior" horiz-adv-x="534" 
d="M270 317l-28 -141h139l-27 -121h-139l-31 -143h-118l30 143h-139l27 121h137l31 141h118z" />
    <glyph glyph-name="commaaccent.alt" horiz-adv-x="1181" 
d="M1018 1475l-4 -21l-101 -289h-190l4 21l147 289h144z" />
    <glyph glyph-name="caron.alt" horiz-adv-x="1183" 
d="M707 1083l4 21l102 289h188l-4 -21l-145 -289h-145z" />
    <glyph glyph-name="commaaccent.cap" horiz-adv-x="1183" 
d="M381 -446l4 20l102 289h189l-4 -21l-146 -288h-145z" />
    <glyph glyph-name="grave.cap" horiz-adv-x="1183" 
d="M821 1788l4 20h193l55 -247l-4 -21h-149z" />
    <glyph glyph-name="acute.cap" horiz-adv-x="1183" 
d="M1135 1808l-5 -20l-204 -248h-166l4 21l162 247h209z" />
    <glyph glyph-name="circumflex.cap" horiz-adv-x="1183" 
d="M1079 1808l138 -247l-5 -21h-157l-97 146l-157 -146h-174l4 21l243 247h205z" />
    <glyph glyph-name="caron.cap" horiz-adv-x="1183" 
d="M817 1540l-137 248l4 20h160l94 -145l158 145h174l-4 -20l-242 -248h-207z" />
    <glyph glyph-name="tilde.cap" horiz-adv-x="1183" 
d="M829 1790q45 0 125 -41t119 -41q76 0 144 72l40 -103q-111 -117 -200 -116q-45 0 -125 41t-123 40q-69 1 -137 -71l-41 102q104 117 198 117z" />
    <glyph glyph-name="dieresis.cap" horiz-adv-x="1183" 
d="M1143 1554q-94 0 -94 102q0 52 40 91t103 39q96 0 96 -90q0 -62 -41 -102t-104 -40zM700 1554q-94 0 -94 102q0 52 40 91t104 39q96 0 96 -90q0 -62 -41 -102t-105 -40z" />
    <glyph glyph-name="macron.cap" horiz-adv-x="1181" 
d="M1196 1591h-534l32 152h533z" />
    <glyph glyph-name="tonos.cap" horiz-adv-x="1185" 
d="M1038 1393l-4 -21l-153 -289h-144l4 21l111 289h186z" />
    <glyph glyph-name="breve.cap" horiz-adv-x="1183" 
d="M955 1716q161 0 255 66l52 -101q-125 -119 -327 -119t-278 134l72 86q65 -66 226 -66z" />
    <glyph glyph-name="ring.cap" horiz-adv-x="1183" 
d="M969 1886q190 0 190 -174q0 -88 -68 -148q-69 -60 -163 -60q-191 -1 -191 176q0 90 69 148t163 58zM860 1675q0 -61 72 -61q49 0 78 26t28 74q0 61 -71 62q-107 -1 -107 -101z" />
    <glyph glyph-name="hungarumlaut.cap" horiz-adv-x="1183" 
d="M1315 1808l-4 -20l-226 -248h-165l4 21l182 247h209zM975 1808l-4 -20l-226 -248h-165l4 21l182 247h209z" />
    <glyph glyph-name="dotaccent.cap" horiz-adv-x="1183" 
d="M922 1554q-95 0 -95 102q0 52 40 91t104 39q96 0 96 -90q0 -62 -41 -102t-104 -40z" />
    </font>
</defs>
</svg>
